<svg width="2913" height="1201" viewBox="0 0 2913 1201" fill="none" xmlns="http://www.w3.org/2000/svg">
<path d="M2081.17 506.191H2032.6C2026.95 506.191 2021.56 503.761 2017.8 499.537L1998.11 477.335C1995.18 474.031 1990.95 472.12 1986.53 472.12C1982.11 472.12 1977.88 474.008 1974.95 477.335L1958.05 496.399C1952.52 502.628 1944.58 506.215 1936.24 506.215H1670.43C1662.87 527.756 1657.93 550.502 1655.97 574.12H1906.9C1911.32 574.12 1915.53 572.327 1918.58 569.142L1941.96 544.815C1944.86 541.772 1948.9 540.049 1953.11 540.049H1954.08C1958.5 540.049 1962.73 541.937 1965.66 545.264L1985.35 567.466C1989.11 571.69 1994.47 574.12 2000.15 574.12H2204.97C2203.01 550.502 2198.07 527.756 2190.5 506.215H2081.17V506.191Z" fill="white"/>
<path d="M1807.92 717.096C1812.34 717.096 1816.54 715.297 1819.59 712.102L1842.95 687.695C1845.85 684.641 1849.89 682.913 1854.09 682.913H1855.06C1859.48 682.913 1863.71 684.807 1866.63 688.145L1886.31 710.421C1890.06 714.658 1895.42 717.096 1901.09 717.096H2178.44C2188.83 695.578 2196.43 672.473 2200.97 648.304H1934.77C1929.12 648.304 1923.74 645.865 1919.98 641.628L1900.31 619.352C1897.38 616.038 1893.16 614.12 1888.74 614.12C1884.32 614.12 1880.1 616.014 1877.17 619.352L1860.28 638.479C1854.76 644.729 1846.82 648.327 1838.48 648.327H1659.97C1664.5 672.521 1672.11 695.602 1682.5 717.12H1807.92V717.096Z" fill="white"/>
<path d="M2004.8 431.12C2009.23 431.12 2013.44 429.325 2016.49 426.135L2039.89 401.777C2042.8 398.73 2046.85 397.005 2051.06 397.005H2052.03C2056.45 397.005 2060.69 398.895 2063.62 402.226L2083.33 424.458C2087.09 428.687 2092.46 431.12 2098.14 431.12H2150.97C2100.65 364.331 2020.61 321.12 1930.47 321.12C1840.33 321.12 1760.29 364.331 1709.97 431.12H2004.83H2004.8Z" fill="white"/>
<path d="M1898.71 785.314H1826.5C1820.85 785.314 1815.46 782.875 1811.7 778.636L1792.01 756.353C1789.07 753.038 1784.84 751.12 1780.42 751.12C1776 751.12 1771.77 753.015 1768.83 756.353L1751.93 775.487C1746.39 781.739 1738.45 785.338 1730.1 785.338H1728.97C1779.28 839.329 1850.9 873.12 1930.47 873.12C2010.03 873.12 2081.65 839.329 2131.97 785.338H1898.71V785.314Z" fill="white"/>
<path d="M712.056 855.12L655.903 718.821H405.035L348.881 855.12H283.969L530.102 339.12L776.969 855.12H712.056ZM426.175 667.079H634.028L529.77 447.241L426.199 667.079H426.175Z" fill="white"/>
<path d="M865.969 855.12V339.12H1009.62C1121.91 339.12 1180.97 390.862 1180.97 487.792C1180.97 584.723 1118.27 635.022 1008.89 635.022H926.493V855.12H865.969ZM926.493 581.079H995.041C1081.82 581.079 1119.73 552.665 1119.73 487.792C1119.73 422.92 1081.08 393.039 995.041 393.039H926.493V581.079Z" fill="white"/>
<path d="M1400.72 394.506H1222.97V339.12H1638.97V394.506H1461.19V855.12H1400.72V394.506Z" fill="white"/>
<path d="M2289.99 761.22L2342.14 725.853L2346.17 734.233C2378.26 792.562 2413.29 815.904 2466.55 815.904C2525.64 815.904 2567.23 775.068 2567.23 725.474C2567.23 678.791 2543.88 647.448 2450.5 608.791C2343.26 564.31 2306.76 518.361 2306.76 452.74C2306.76 381.272 2362.94 325.12 2459.97 325.12C2531.47 325.12 2580.35 355.753 2608.09 405.347L2565.76 434.512L2553.35 431.6C2531.47 397.322 2504.47 377.626 2458.5 377.626C2402.32 377.626 2369.5 408.993 2369.5 451.272C2369.5 490.64 2390.65 513.248 2481.85 554.817C2600.77 608.791 2629.97 653.272 2629.97 724.74C2629.97 802.765 2562.85 869.12 2467.26 869.12C2387 869.12 2331.56 838.488 2289.97 761.196L2289.99 761.22Z" fill="white"/>
</svg>
