<svg width="3322" height="1200" viewBox="0 0 3322 1200" fill="none" xmlns="http://www.w3.org/2000/svg">
<path d="M1230.54 876.42C1174.17 876.42 1119.81 855.778 1087.77 801.33H1069.18V860.927H941.008V151.979H1069.18V409.893H1087.77C1120.68 353.429 1182.19 331.668 1237.69 331.668C1376.17 331.668 1469.73 442.579 1469.73 598.76C1469.73 754.941 1367.02 876.151 1230.54 876.151V876.442V876.42ZM1202.8 761.523C1281.77 761.523 1338.12 696.754 1338.12 604.201C1338.12 511.647 1280.61 446.878 1202.8 446.878C1124.99 446.878 1069.47 508.491 1069.47 604.201C1069.47 699.911 1125.84 761.523 1202.8 761.523ZM1706.62 876.42C1608.21 876.42 1528.1 816.822 1528.1 719.097C1528.1 621.372 1616.21 566.924 1722.94 555.752L1873.73 540.282V511.625C1873.73 467.498 1837.68 436.535 1774.17 436.535C1710.67 436.535 1678.62 463.177 1667.46 503.297H1544.43C1556.73 405.572 1637.71 331.646 1774.17 331.646C1910.64 331.646 1992.76 395.273 1992.76 519.64V770.389C1992.76 802.203 1995.91 846.33 1997.9 858.644V860.659H1874.87C1873.73 843.173 1873.73 826.852 1873.73 809.367H1855.13C1823.37 860.658 1767.87 876.129 1706.36 876.129L1706.65 876.42H1706.62ZM1741.54 779.859C1825.65 779.859 1874 716.232 1874 651.485V625.693L1760.99 639.171C1691.18 647.477 1657.4 667.828 1657.4 713.097C1657.4 758.366 1692.32 779.859 1741.52 779.859H1741.54ZM2300.89 876.42C2171.56 876.42 2079.15 811.651 2064.84 709.918H2191.02C2205.33 755.187 2252.54 774.687 2301.76 774.687C2350.98 774.687 2393.02 753.195 2393.02 715.09C2393.02 676.985 2354.11 666.664 2300.62 657.485L2246.26 648.306C2143.55 630.82 2080.02 587.544 2080.02 495.282C2080.02 403.019 2168.14 331.937 2290.31 331.937C2412.49 331.937 2488.31 387.527 2509.77 484.11H2386.74C2372.44 446.005 2334.39 430.803 2291.19 430.803C2247.98 430.803 2205.06 453.438 2205.06 485.252C2205.06 517.065 2231.66 528.528 2287.18 537.685L2341.55 546.864C2441.1 563.208 2516.92 604.469 2516.92 704.187C2516.92 803.904 2426.51 876.979 2300.33 876.979L2300.91 876.397L2300.89 876.42ZM2838.49 876.42C2680.54 876.42 2575.84 768.374 2575.84 603.036C2575.84 437.699 2686.58 331.646 2839.65 331.646C2992.72 331.646 3092.01 450.863 3092.01 608.186V630.82H2701.18C2707.48 716.209 2766.98 766.359 2838.8 766.359C2910.62 766.359 2934.36 745.717 2951.81 709.896H3083.13C3056.53 806.479 2960.96 876.397 2838.8 876.397H2838.51L2838.49 876.42ZM2966.68 545.722C2956.37 476.946 2902.01 436.826 2838.51 436.826C2775.01 436.826 2715.48 475.804 2703.19 545.722H2966.99H2966.7H2966.68Z" fill="white"/>
<path d="M260.944 860.979C240.305 860.979 230.008 850.66 230.008 830.045V377.913C230.008 357.276 240.327 346.979 260.944 346.979H713.072C733.711 346.979 744.008 357.298 744.008 377.913V830.022C744.008 850.66 733.688 860.957 713.072 860.957H260.944V860.979Z" fill="white"/>
</svg>
