<svg width="2360" height="1200" viewBox="0 0 2360 1200" fill="none" xmlns="http://www.w3.org/2000/svg">
<path d="M328 342.507C328 334.495 334.493 328 342.502 328H567.285C575.294 328 581.787 334.495 581.787 342.507V403.68C581.787 406.228 583.123 408.589 585.308 409.9L596.184 416.428C598.481 417.806 601.349 417.806 603.646 416.428L614.522 409.9C616.707 408.589 618.043 406.228 618.043 403.68V342.507C618.043 334.495 624.536 328 632.545 328H857.328C865.336 328 871.83 334.495 871.83 342.507V476.693C871.83 484.705 865.336 491.2 857.328 491.2H639.595C637.343 491.2 635.122 490.676 633.108 489.668L603.158 474.688C601.117 473.668 598.713 473.668 596.672 474.688L567.668 489.195C565.211 490.424 563.66 492.936 563.66 495.683V522.984C563.66 525.731 565.211 528.243 567.668 529.472L596.672 543.979C598.713 545 601.117 545 603.158 543.979L633.108 528.999C635.122 527.991 637.343 527.467 639.595 527.467H857.328C865.336 527.467 871.83 533.962 871.83 541.973V658.027C871.83 666.038 865.336 672.533 857.328 672.533H639.595C637.343 672.533 635.122 672.009 633.108 671.001L603.158 656.021C601.117 655 598.713 655 596.672 656.021L567.668 670.528C565.211 671.757 563.66 674.269 563.66 677.016V704.317C563.66 707.065 565.211 709.576 567.668 710.806L595.907 724.928C598.363 726.157 599.915 728.669 599.915 731.416V857.493C599.915 865.505 593.422 872 585.413 872H342.502C334.493 872 328 865.505 328 857.493V723.307C328 715.295 334.493 708.8 342.502 708.8H403.656C406.203 708.8 408.563 707.464 409.874 705.279L416.4 694.398C417.778 692.101 417.778 689.232 416.4 686.935L409.874 676.055C408.563 673.87 406.203 672.533 403.656 672.533H342.502C334.493 672.533 328 666.038 328 658.027V541.973C328 533.962 334.493 527.467 342.502 527.467H403.656C406.203 527.467 408.563 526.13 409.874 523.945L416.4 513.065C417.778 510.768 417.778 507.899 416.4 505.601L409.874 494.721C408.563 492.537 406.203 491.2 403.656 491.2H342.502C334.493 491.2 328 484.705 328 476.693V342.507Z" fill="white"/>
<path d="M1502.67 708.8C1494.67 708.8 1488.17 715.295 1488.17 723.307V857.493C1488.17 865.505 1494.67 872 1502.67 872H1636.82C1644.83 872 1651.32 865.505 1651.32 857.493V796.321C1651.32 793.773 1652.66 791.412 1654.84 790.101L1665.72 783.573C1668.01 782.195 1670.88 782.195 1673.18 783.573L1684.06 790.101C1686.24 791.412 1687.58 793.773 1687.58 796.321V857.493C1687.58 865.505 1694.07 872 1702.08 872H2017.5C2025.51 872 2032 865.505 2032 857.493V632.64C2032 624.629 2025.51 618.133 2017.5 618.133H1956.35C1953.8 618.133 1951.44 616.797 1950.13 614.612L1943.6 603.732C1942.22 601.434 1942.22 598.566 1943.6 596.268L1950.13 585.388C1951.44 583.203 1953.8 581.867 1956.35 581.867H2017.5C2025.51 581.867 2032 575.371 2032 567.36V342.507C2032 334.495 2025.51 328 2017.5 328L1702.08 328C1694.07 328 1687.58 334.495 1687.58 342.507V403.68C1687.58 406.228 1686.24 408.589 1684.06 409.9L1673.18 416.428C1670.88 417.806 1668.01 417.806 1665.72 416.428L1654.84 409.9C1652.66 408.589 1651.32 406.228 1651.32 403.68V342.507C1651.32 334.495 1644.83 328 1636.82 328L1502.67 328C1494.67 328 1488.17 334.495 1488.17 342.507V476.693C1488.17 484.705 1494.67 491.2 1502.67 491.2H1811.05C1813.3 491.2 1815.52 490.676 1817.53 489.668L1847.48 474.689C1849.52 473.668 1851.93 473.668 1853.97 474.689L1882.97 489.195C1885.43 490.424 1886.98 492.935 1886.98 495.683V522.984C1886.98 525.731 1885.43 528.243 1882.97 529.472L1853.97 543.979C1851.93 545 1849.52 545 1847.48 543.979L1817.53 528.999C1815.52 527.991 1813.3 527.467 1811.05 527.467H1502.67C1494.67 527.467 1488.17 533.962 1488.17 541.973V658.027C1488.17 666.038 1494.67 672.533 1502.67 672.533H1811.05C1813.3 672.533 1815.52 672.009 1817.53 671.001L1847.48 656.021C1849.52 655 1851.93 655 1853.97 656.021L1882.97 670.528C1885.43 671.757 1886.98 674.269 1886.98 677.016V704.317C1886.98 707.065 1885.43 709.576 1882.97 710.806L1853.97 725.312C1851.93 726.333 1849.52 726.333 1847.48 725.312L1817.53 710.332C1815.52 709.324 1813.3 708.8 1811.05 708.8H1502.67Z" fill="white"/>
<path d="M1071.23 342.507C1071.23 334.495 1064.74 328 1056.73 328L922.588 328C914.579 328 908.086 334.495 908.086 342.507V476.693C908.086 484.705 914.579 491.2 922.588 491.2H983.742C986.289 491.2 988.649 492.537 989.96 494.721L996.485 505.601C997.863 507.899 997.863 510.768 996.485 513.065L989.96 523.945C988.649 526.13 986.289 527.467 983.742 527.467H922.588C914.579 527.467 908.086 533.962 908.086 541.973V658.027C908.086 666.038 914.579 672.533 922.588 672.533H983.742C986.289 672.533 988.649 673.87 989.96 676.055L996.485 686.935C997.863 689.232 997.863 692.101 996.485 694.398L989.96 705.279C988.649 707.464 986.289 708.8 983.742 708.8H922.588C914.579 708.8 908.086 715.295 908.086 723.307V857.493C908.086 865.505 914.579 872 922.588 872H1147.37C1155.38 872 1161.87 865.505 1161.87 857.493V796.321C1161.87 793.773 1163.21 791.412 1165.39 790.101L1176.27 783.573C1178.57 782.195 1181.43 782.195 1183.73 783.573L1194.61 790.101C1196.79 791.412 1198.13 793.773 1198.13 796.321V857.493C1198.13 865.505 1204.62 872 1212.63 872H1437.41C1445.42 872 1451.92 865.505 1451.92 857.493V723.307C1451.92 715.295 1445.42 708.8 1437.41 708.8H1376.26C1373.71 708.8 1371.35 707.464 1370.04 705.279L1363.52 694.398C1362.14 692.101 1362.14 689.232 1363.52 686.935L1370.04 676.055C1371.35 673.87 1373.71 672.533 1376.26 672.533H1437.41C1445.42 672.533 1451.92 666.038 1451.92 658.027V541.973C1451.92 533.962 1445.42 527.467 1437.41 527.467H1376.26C1373.71 527.467 1371.35 526.13 1370.04 523.945L1363.52 513.065C1362.14 510.768 1362.14 507.899 1363.52 505.601L1370.04 494.721C1371.35 492.537 1373.71 491.2 1376.26 491.2H1437.41C1445.42 491.2 1451.92 484.705 1451.92 476.693V342.507C1451.92 334.495 1445.42 328 1437.41 328L1303.27 328C1295.26 328 1288.77 334.495 1288.77 342.507V650.975C1288.77 653.227 1289.29 655.448 1290.3 657.463L1305.27 687.423C1306.29 689.464 1306.29 691.869 1305.27 693.911L1290.77 722.924C1289.54 725.381 1287.03 726.933 1284.29 726.933H1256.99C1254.25 726.933 1251.74 725.381 1250.51 722.924L1236 693.911C1234.98 691.869 1234.98 689.464 1236 687.423L1250.98 657.463C1251.99 655.448 1252.51 653.227 1252.51 650.975V342.507C1252.51 334.495 1246.02 328 1238.01 328L1121.99 328C1113.98 328 1107.49 334.495 1107.49 342.507V650.975C1107.49 653.227 1108.01 655.448 1109.02 657.463L1124 687.423C1125.02 689.464 1125.02 691.869 1124 693.911L1109.5 722.924C1108.27 725.381 1105.76 726.933 1103.01 726.933H1075.72C1072.97 726.933 1070.46 725.381 1069.23 722.924L1054.73 693.911C1053.71 691.869 1053.71 689.464 1054.73 687.423L1069.7 657.463C1070.71 655.448 1071.23 653.227 1071.23 650.975V342.507Z" fill="white"/>
</svg>
