<svg width="3285" height="1200" viewBox="0 0 3285 1200" fill="none" xmlns="http://www.w3.org/2000/svg">
<path d="M967.207 357.279H874.355V751.42C874.355 816.855 901.884 844.12 957.592 844.12H1218.23V764.286H1002.16C975.289 764.286 967.207 756 967.207 730.261V357.279ZM1498.96 855.245C1373.12 855.245 1297.53 788.5 1297.53 657.41V357.279H1389.73V651.956C1389.73 722.845 1412.45 774.756 1498.96 774.756C1585.48 774.756 1608.2 726.335 1608.2 651.301V356.624H1700.39V656.755C1700.39 786.316 1624.8 855.245 1498.96 855.245ZM2182.34 844.336V763.851H2373.5C2428.55 763.851 2456.74 749.455 2456.74 711.285C2456.74 677.259 2434.67 666.351 2374.81 649.994L2317.79 634.29C2211.18 605.061 2175.57 570.816 2175.57 490.33C2175.57 409.845 2223.63 356.624 2339.86 356.624H2513.76V438.419H2338.54C2289.61 438.419 2265.79 449.324 2265.79 484.223C2265.79 516.941 2287.86 532.646 2344.23 547.041L2403.43 562.092C2502.4 587.393 2549.15 622.729 2549.15 701.905C2549.15 793.296 2498.25 844.336 2356.68 844.336H2182.34ZM3030.01 600.917C3030.01 501.455 2968.83 427.73 2875.33 427.73C2781.82 427.73 2722.62 500.146 2722.62 600.917C2722.62 701.686 2785.75 774.756 2875.33 774.756C2969.49 774.756 3030.01 699.725 3030.01 600.917ZM2626.49 601.571C2626.49 459.794 2726.11 347.245 2874.67 347.245C3023.23 347.245 3126.36 453.687 3126.36 601.571C3126.36 749.455 3020.61 853.935 2875.54 853.935C2720.21 853.935 2626.71 746.185 2626.71 601.571H2626.49ZM1853.1 647.811L1999.48 844.12H2110.9L1933.5 610.296C1923.89 597.427 1919.74 587.829 1919.74 578.232C1919.74 568.635 1926.07 559.911 1937.65 546.824L2107.62 356.624H1995.55L1851.14 518.904C1829.07 543.987 1818.8 561.873 1818.8 578.887C1818.8 600.699 1831.26 618.366 1853.1 647.811Z" fill="white"/>
<path fill-rule="evenodd" clip-rule="evenodd" d="M653.355 496.418C653.355 473.25 640.975 451.843 620.872 440.259L439.839 335.932C419.739 324.349 394.973 324.349 374.873 335.932L193.839 440.259C173.738 451.843 161.355 473.25 161.355 496.418L161.355 705.07C161.355 728.239 173.738 749.645 193.839 761.23L374.873 865.556C394.973 877.141 419.739 877.141 439.839 865.556L620.872 761.23C640.975 749.645 653.355 728.239 653.355 705.07V496.418ZM352.138 471.112C339.881 471.112 328.554 477.639 322.425 488.235L267.228 583.662C261.099 594.258 261.099 607.313 267.228 617.908L322.425 713.337C328.554 723.932 339.881 730.457 352.138 730.457H462.534C474.79 730.457 486.117 723.932 492.245 713.337L547.442 617.908C553.57 607.313 553.57 594.258 547.442 583.662L492.245 488.235C486.117 477.639 474.79 471.112 462.534 471.112H352.138Z" fill="white"/>
</svg>
