<svg width="1200" height="1200" viewBox="0 0 1200 1200" fill="none" xmlns="http://www.w3.org/2000/svg">
<g clip-path="url(#clip0_6801_89855)">
<path d="M1200 0H0V1200H1200V0Z" fill="white"/>
<path d="M1003.08 701.782C986.317 701.782 972.996 697.81 963.121 689.869C953.246 681.698 948.309 667.289 948.309 646.638V563.583H905.248V532.946H930.74C942.452 532.946 949.342 527.273 951.409 515.927L956.576 488.696H984.824V532.946H1052.34V563.583H984.824V645.957C984.824 654.807 986.777 661.049 990.68 664.679C994.814 668.083 1001.82 669.785 1011.69 669.785H1051.66V701.782H1003.08Z" fill="black"/>
<path d="M724.428 701.921V456.839H760.943V603.888L826.396 533.087H872.213L800.903 607.973V610.697L881.514 701.921H837.075L760.943 615.122V701.921H724.428Z" fill="black"/>
<path d="M629.447 507.449C621.409 507.449 614.633 504.953 609.122 499.959C603.84 494.74 601.199 488.386 601.199 480.898C601.199 473.409 603.84 467.169 609.122 462.176C614.633 457.184 621.409 454.688 629.447 454.688C637.714 454.688 644.489 457.184 649.772 462.176C655.283 467.169 658.039 473.409 658.039 480.898C658.039 488.386 655.283 494.74 649.772 499.959C644.489 504.953 637.714 507.449 629.447 507.449ZM535.746 777.04V745.724H603.266C610.844 745.724 614.633 741.98 614.633 734.49V575.868C614.633 568.379 610.844 564.634 603.266 564.634H561.238V533.318H610.155C624.394 533.318 634.728 536.609 641.16 543.19C647.819 549.544 651.15 559.755 651.15 573.825V736.533C651.15 750.602 647.819 760.814 641.16 767.168C634.728 773.749 624.394 777.04 610.155 777.04H535.746Z" fill="black"/>
<path d="M454.665 706.006C442.033 706.006 431.355 703.51 422.628 698.518C414.13 693.299 407.585 686.15 402.992 677.073H400.925L397.824 701.921H366.477V456.839H402.992V554.872C407.125 548.065 413.67 542.051 422.628 536.831C431.585 531.612 442.263 529.002 454.665 529.002C468.904 529.002 481.65 532.406 492.903 539.213C504.157 545.795 512.998 555.667 519.428 568.828C526.088 581.99 529.419 598.215 529.419 617.504C529.419 636.793 526.088 653.019 519.428 666.18C512.998 679.343 504.157 689.327 492.903 696.135C481.65 702.716 468.904 706.006 454.665 706.006ZM447.086 671.627C460.176 671.627 470.97 667.202 479.468 658.351C488.195 649.275 492.559 635.772 492.559 617.845C492.559 599.69 488.195 586.074 479.468 576.997C470.97 567.921 460.176 563.382 447.086 563.382C433.995 563.382 423.086 567.921 414.359 576.997C405.862 585.848 401.614 599.351 401.614 617.504C401.614 635.431 405.862 648.934 414.359 658.011C423.086 667.088 433.995 671.627 447.086 671.627Z" fill="black"/>
<path d="M232.743 706.335C216.438 706.335 201.854 702.704 188.993 695.442C176.132 688.18 166.027 677.968 158.678 664.807C151.329 651.418 147.654 635.76 147.654 617.832C147.654 599.905 151.329 584.36 158.678 571.199C166.027 557.81 176.132 547.485 188.993 540.223C201.854 532.962 216.552 529.33 233.087 529.33C249.623 529.33 264.205 532.962 276.837 540.223C289.698 547.485 299.689 557.81 306.808 571.199C314.157 584.36 317.832 599.905 317.832 617.832C317.832 635.76 314.157 651.418 306.808 664.807C299.459 677.968 289.354 688.18 276.493 695.442C263.861 702.704 249.278 706.335 232.743 706.335ZM232.743 671.955C241.47 671.955 249.508 670.027 256.857 666.169C264.205 662.311 270.062 656.411 274.425 648.468C279.019 640.298 281.316 630.087 281.316 617.832C281.316 605.352 279.019 595.14 274.425 587.197C270.062 579.254 264.205 573.355 256.857 569.497C249.737 565.639 241.814 563.711 233.087 563.711C224.361 563.711 216.323 565.639 208.973 569.497C201.624 573.355 195.653 579.254 191.059 587.197C186.696 595.14 184.514 605.352 184.514 617.832C184.514 636.441 189.223 650.17 198.639 659.02C208.284 667.643 219.652 671.955 232.743 671.955Z" fill="black"/>
</g>
<defs>
<clipPath id="clip0_6801_89855">
<rect width="1200" height="1200" fill="white"/>
</clipPath>
</defs>
</svg>
