<svg width="2501" height="1200" viewBox="0 0 2501 1200" fill="none" xmlns="http://www.w3.org/2000/svg">
<path d="M276 446.737C276 380.608 329.799 327 396.163 327H703.781C770.145 327 823.943 380.608 823.943 446.737V753.263C823.943 819.391 770.145 873 703.781 873H396.163C329.799 873 276 819.391 276 753.263V446.737Z" fill="white"/>
<path fill-rule="evenodd" clip-rule="evenodd" d="M687.471 555.571C687.471 581.762 672.162 594.79 654.957 599.315C675.548 605.486 690.45 622.353 690.45 649.093V698.185H611.878V651.561C611.878 637.299 603.479 631.54 589.118 631.54H495.915V698.185H417.342V501.817H604.02C650.893 501.817 687.471 511.964 687.471 555.571ZM495.95 556.68H602.172C602.33 556.674 602.489 556.68 602.649 556.68C609.954 556.68 615.874 562.674 615.874 570.067C615.874 577.46 609.954 583.454 602.649 583.454C602.489 583.454 602.33 583.45 602.172 583.445L495.95 583.454V556.68Z" fill="black"/>
<path fill-rule="evenodd" clip-rule="evenodd" d="M1912.34 644.213C1912.34 701.503 1879.12 740.936 1822.76 740.936C1799.62 740.936 1778.34 731.264 1769.01 716.383V737.96H1721.98V474.574H1769.01V571.298C1779.83 557.161 1799.99 547.49 1823.51 547.49C1879.12 547.49 1912.34 586.923 1912.34 644.213ZM1766.03 644.213C1766.03 678.067 1785.8 700.387 1816.05 700.387C1845.9 700.387 1865.69 678.067 1865.69 644.213C1865.69 610.359 1845.9 588.039 1816.05 588.039C1785.8 588.039 1766.03 610.359 1766.03 644.213Z" fill="white"/>
<path fill-rule="evenodd" clip-rule="evenodd" d="M1241.75 737.96L1184.3 621.52C1210.06 608.871 1225.36 583.946 1225.36 554.558C1225.36 507.684 1192.14 477.551 1141.01 477.551H1016.27L1016.64 737.96H1067.41V631.193H1132.42L1182.78 737.96H1241.75ZM1067.41 521.076H1133.17C1159.3 521.076 1174.23 533.724 1174.23 554.558C1174.23 575.39 1159.3 587.667 1133.17 587.667H1067.41V521.076Z" fill="white"/>
<path fill-rule="evenodd" clip-rule="evenodd" d="M1396.22 550.465H1443.25V737.961H1396.22V716.384C1386.89 731.265 1365.99 740.936 1342.47 740.936C1286.11 740.936 1252.89 701.503 1252.89 644.214C1252.89 586.923 1286.11 547.49 1341.72 547.49C1365.24 547.49 1385.39 557.161 1396.22 571.298V550.465ZM1299.55 644.214C1299.55 678.067 1319.33 700.387 1349.19 700.387C1379.42 700.387 1399.21 678.067 1399.21 644.214C1399.21 610.359 1379.42 588.039 1349.19 588.039C1319.33 588.039 1299.55 610.359 1299.55 644.214Z" fill="white"/>
<path d="M1609.53 550.465L1606.53 595.852C1599.82 592.875 1590.85 591.387 1582.65 591.387C1556.15 591.387 1532.26 613.336 1532.26 669.139V737.961H1485.23V550.465H1532.26V584.691C1541.58 563.486 1566.23 547.49 1588.99 547.49C1595.71 547.49 1603.93 548.605 1609.53 550.465Z" fill="white"/>
<path d="M1680.16 737.96H1633.12V550.465H1680.16V737.96Z" fill="white"/>
<path d="M1944.25 737.96H1991.28V474.574H1944.25V737.96Z" fill="white"/>
<path fill-rule="evenodd" clip-rule="evenodd" d="M2210.39 637.889C2210.39 594.363 2179.42 547.49 2115.95 547.49C2053.62 547.49 2023.02 595.479 2023.02 644.214C2023.02 692.947 2056.24 740.936 2118.57 740.936C2162.62 740.936 2195.47 720.104 2205.92 684.763L2161.87 672.858C2157.02 691.087 2141.34 701.503 2119.32 701.503C2092.44 701.503 2074.16 684.763 2070.05 656.49H2209.64C2210.02 652.77 2210.39 644.585 2210.39 637.889ZM2071.17 622.264C2076.39 596.967 2092.82 583.203 2115.95 583.203C2143.2 583.203 2157.77 599.943 2160 622.264H2071.17Z" fill="white"/>
<path d="M1627.56 484.239C1627.56 472.337 1637.21 462.686 1649.13 462.686H1664.54C1676.46 462.686 1686.11 472.337 1686.11 484.239V499.66C1686.11 511.563 1676.46 521.212 1664.54 521.212H1649.13C1637.21 521.212 1627.56 511.563 1627.56 499.66V484.239Z" fill="white"/>
</svg>
