<svg width="2506" height="1200" viewBox="0 0 2506 1200" fill="none" xmlns="http://www.w3.org/2000/svg">
<path d="M547.578 486.25C547.578 398.299 618.894 327 706.867 327H934.422C1022.4 327 1093.71 398.299 1093.71 486.25V713.75C1093.71 801.701 1022.4 873 934.422 873H706.867C618.894 873 547.578 801.701 547.578 713.75V486.25Z" fill="white"/>
<path fill-rule="evenodd" clip-rule="evenodd" d="M840.246 484.428L759.055 704.193H786.38L867.571 484.428H840.246Z" fill="#202020"/>
<path d="M229 474.875C229 393.206 295.222 327 376.911 327C458.6 327 524.822 393.206 524.822 474.875V725.125C524.822 806.794 458.6 873 376.911 873C295.222 873 229 806.794 229 725.125V474.875Z" fill="white"/>
<path fill-rule="evenodd" clip-rule="evenodd" d="M360.866 637.986V670.063H392.952V637.986H360.866Z" fill="#202020"/>
<path d="M1116.47 600C1116.47 449.227 1230.87 327 1372 327H2021.47C2162.6 327 2277 449.227 2277 600C2277 750.773 2162.6 873 2021.47 873H1372C1230.87 873 1116.47 750.773 1116.47 600Z" fill="white"/>
<path d="M1936.41 537.508H1910.94V666.819H1936.41V592.404C1936.41 570.954 1951.77 555.958 1970.61 555.958C1979.4 555.958 1986.65 558.723 1991.7 563.978C1996.77 569.24 1999.8 577.186 1999.8 587.899V666.819H2025.02V586.648C2025.02 569.583 2020.17 556.449 2011.65 547.57C2003.13 538.688 1991.1 534.255 1977.12 534.255C1960.62 534.255 1945.42 541.005 1936.41 552.839V537.508Z" fill="#202020"/>
<path d="M1747.73 537.508L1771.59 666.819H1799.1L1819.47 604.794L1839.59 666.819H1867.12L1890.97 537.508H1866.68L1850.77 635.606L1830.9 573.043H1807.8L1787.71 636.31L1772.03 537.508H1747.73Z" fill="#202020"/>
<path fill-rule="evenodd" clip-rule="evenodd" d="M1499.72 609.512H1592.85L1592.95 608.007C1594.46 580.595 1588.28 562.091 1577.47 550.437C1566.65 538.782 1551.46 534.255 1535.53 534.255C1516.57 534.255 1501.05 541.569 1490.28 553.782C1479.53 565.975 1473.62 582.949 1473.62 602.164C1473.62 621.501 1479.53 638.477 1490.28 650.64C1501.05 662.824 1516.58 670.072 1535.53 670.072C1566.54 670.072 1587.03 650.297 1590.67 628.451L1590.98 626.597H1565.91L1565.56 627.705C1562 638.854 1551.56 648.619 1535.53 648.619C1523.47 648.619 1515 644.067 1509.28 636.807C1503.8 629.848 1500.75 620.274 1499.72 609.512ZM1568.1 589.56H1500.35C1501.97 580.245 1505.36 572.005 1510.78 566.006C1516.5 559.661 1524.58 555.708 1535.53 555.708C1545.61 555.708 1553.28 558.552 1558.65 564.248C1563.82 569.715 1567.06 578.015 1568.1 589.56Z" fill="#202020"/>
<path fill-rule="evenodd" clip-rule="evenodd" d="M1368.48 537.508V666.819H1394.45V598.66C1394.45 586.318 1397.93 577.177 1403.65 571.132C1409.36 565.094 1417.49 561.964 1427.15 561.964H1460.78V537.508H1428.9C1415.71 537.508 1402.95 543.477 1394.45 555.007V537.508H1368.48Z" fill="#202020"/>
<path fill-rule="evenodd" clip-rule="evenodd" d="M1612.73 602.164C1612.73 621.366 1618.45 638.343 1629.18 650.544C1639.92 662.767 1655.58 670.072 1675.15 670.072C1694.72 670.072 1710.38 662.767 1721.12 650.544C1731.85 638.343 1737.57 621.366 1737.57 602.164C1737.57 583.085 1731.85 566.109 1721.13 553.879C1710.39 541.626 1694.73 534.255 1675.15 534.255C1655.57 534.255 1639.91 541.626 1629.17 553.879C1618.45 566.109 1612.73 583.085 1612.73 602.164ZM1711.6 601.913C1711.6 613.985 1709.01 625.646 1703.18 634.24C1697.4 642.754 1688.38 648.369 1675.15 648.369C1661.92 648.369 1652.9 642.754 1647.12 634.24C1641.29 625.646 1638.7 613.985 1638.7 601.913C1638.7 589.971 1641.29 578.437 1647.12 569.937C1652.88 561.517 1661.91 555.958 1675.15 555.958C1688.39 555.958 1697.42 561.517 1703.18 569.937C1709.01 578.437 1711.6 589.971 1711.6 601.913Z" fill="#202020"/>
</svg>
