<svg width="1181" height="1199" viewBox="0 0 1181 1199" fill="none" xmlns="http://www.w3.org/2000/svg">
<path d="M282.949 110.052L118.273 990.429L377.784 437.226L383.216 439.774L126.15 987.767L571.099 393.701L575.901 397.299L135.903 984.755L722.915 417.343L727.085 421.657L141.508 987.683L437.765 777.553L441.235 782.447L133.795 1000.51L1071.87 619.721L1074.13 625.279L157.207 997.479L955.222 783.103L956.778 788.897L139.495 1008.45L793.838 973.004L794.162 978.996L107.349 1016.2L277.051 108.948L282.949 110.052Z" fill="white"/>
<path d="M338.539 1071.95C333.326 1071.95 329.178 1070.21 326.095 1066.72C323.058 1063.18 321.539 1058.76 321.539 1053.46C321.539 1048.24 323.08 1043.87 326.163 1040.33C329.291 1036.75 333.303 1034.96 338.199 1034.96C343.367 1034.96 347.356 1036.77 350.167 1040.4C352.978 1043.98 354.383 1048.76 354.383 1054.75H327.183C327.41 1058.47 328.498 1061.5 330.447 1063.86C332.442 1066.17 335.139 1067.33 338.539 1067.33C343.798 1067.33 347.039 1064.93 348.263 1060.12H353.635C352.819 1063.88 351.096 1066.81 348.467 1068.89C345.838 1070.93 342.528 1071.95 338.539 1071.95ZM345.543 1042.3C343.775 1040.31 341.327 1039.31 338.199 1039.31C335.071 1039.31 332.578 1040.35 330.719 1042.44C328.906 1044.53 327.772 1047.25 327.319 1050.6H348.467C348.286 1047.06 347.311 1044.3 345.543 1042.3Z" fill="white"/>
<path d="M266.123 1071V1035.84H271.631V1040.88H271.767C272.9 1039.11 274.374 1037.7 276.187 1036.66C278 1035.57 279.972 1035.03 282.103 1035.03C286.682 1035.03 289.742 1037.11 291.283 1041.28H291.419C292.507 1039.33 294.026 1037.82 295.975 1036.73C297.924 1035.59 299.987 1035.03 302.163 1035.03C305.382 1035.03 307.966 1036.03 309.915 1038.02C311.864 1039.97 312.839 1042.73 312.839 1046.32V1071H307.331V1046.59C307.331 1044.46 306.696 1042.78 305.427 1041.56C304.203 1040.29 302.684 1039.65 300.871 1039.65C298.559 1039.65 296.542 1040.56 294.819 1042.37C293.096 1044.19 292.235 1046.43 292.235 1049.1V1071H286.727V1046.59C286.727 1044.46 286.16 1042.78 285.027 1041.56C283.939 1040.29 282.488 1039.65 280.675 1039.65C278.408 1039.65 276.323 1040.58 274.419 1042.44C272.56 1044.25 271.631 1046.47 271.631 1049.1V1071H266.123Z" fill="white"/>
<path d="M252.606 1066.65C249.523 1070.18 245.421 1071.95 240.298 1071.95C235.175 1071.95 231.05 1070.18 227.922 1066.65C224.839 1063.11 223.298 1058.71 223.298 1053.46C223.298 1048.2 224.839 1043.8 227.922 1040.26C231.05 1036.73 235.175 1034.96 240.298 1034.96C245.421 1034.96 249.523 1036.73 252.606 1040.26C255.689 1043.8 257.23 1048.2 257.23 1053.46C257.23 1058.71 255.689 1063.11 252.606 1066.65ZM231.866 1063.45C233.861 1066.04 236.671 1067.33 240.298 1067.33C243.925 1067.33 246.713 1066.04 248.662 1063.45C250.611 1060.82 251.586 1057.49 251.586 1053.46C251.586 1049.38 250.589 1046.04 248.594 1043.46C246.645 1040.83 243.879 1039.52 240.298 1039.52C236.671 1039.52 233.861 1040.83 231.866 1043.46C229.917 1046.09 228.942 1049.42 228.942 1053.46C228.942 1057.49 229.917 1060.82 231.866 1063.45Z" fill="white"/>
<path d="M189.762 1071V1066.65L209.346 1040.88V1040.67H190.918V1035.84H217.03V1039.11L196.834 1065.76V1065.97H217.778V1071H189.762Z" fill="white"/>
<path d="M174.774 1071V1035.84H180.282V1071H174.774ZM174.774 1029.18V1022.38H180.282V1029.18H174.774Z" fill="white"/>
<path d="M140.956 1022.38V1040.47H141.092C143.812 1036.84 147.53 1035.03 152.244 1035.03C155.962 1035.03 158.863 1036 160.948 1037.95C163.034 1039.9 164.076 1042.69 164.076 1046.32V1071H158.568V1046.79C158.568 1044.53 157.866 1042.78 156.46 1041.56C155.055 1040.29 153.106 1039.65 150.612 1039.65C147.802 1039.65 145.49 1040.56 143.676 1042.37C141.863 1044.19 140.956 1046.52 140.956 1049.38V1071H135.448V1022.38H140.956Z" fill="white"/>
<path d="M114.248 1035.84V1041.69H114.384C115.518 1039.83 116.991 1038.34 118.804 1037.2C120.618 1036.03 122.635 1035.44 124.856 1035.44C125.672 1035.44 126.42 1035.57 127.1 1035.84V1041.15H126.896C126.216 1040.92 125.4 1040.81 124.448 1040.81C121.638 1040.81 119.235 1041.81 117.24 1043.8C115.246 1045.75 114.248 1048.31 114.248 1051.48V1071H108.74V1035.84H114.248Z" fill="white"/>
<path d="M108 1080H356V1090H108V1080Z" fill="white"/>
</svg>
