<svg width="1700" height="1200" viewBox="0 0 1700 1200" fill="none" xmlns="http://www.w3.org/2000/svg">
<path d="M676.6 621.4H621C608.5 621.4 599 631 599 643.4V769.7C599 782.2 608.6 791.7 621 791.7C633.5 791.7 643 782.1 643 769.7V739H664.7L697.4 781C703.2 788.2 709.9 791.7 718.3 791.7C728.7 791.7 739.4 783.9 739.4 771.1C739.4 763.9 736.2 759.2 732.7 754.9L711.8 729.4C731.2 719.6 741.3 702.2 741.3 679V678.4C741.3 662.2 736.1 648.6 726.2 638.7C714.8 627.5 697.4 621.4 676.6 621.4ZM696.9 680.5V681.1C696.9 692.7 688.5 699.3 674.3 699.3H642.7V662H673.4C684.1 662 696.9 665.2 696.9 680.5Z" fill="white"/>
<path d="M866.799 635.6C862.199 624.9 853.499 619.1 842.499 619.1H840.499C829.499 619.1 820.799 624.9 815.899 635.6L759.999 761.6C758.799 764.2 757.699 767.4 757.699 770.9C757.699 782.5 766.699 791.8 778.299 791.8C787.299 791.8 794.799 786.6 798.599 778.2L808.699 754.4H873.299L882.899 777C886.999 786.6 894.499 791.8 903.799 791.8C915.699 791.8 924.899 782.5 924.899 770.7C924.899 768.1 924.299 765.2 922.599 761.7L866.799 635.6ZM856.399 714.7H825.099L840.699 677.3L856.399 714.7Z" fill="white"/>
<path d="M1016.2 621.4H971.301C958.801 621.4 949.301 631 949.301 643.4V768.2C949.301 780.7 958.901 790.2 971.301 790.2H1016.2C1068.1 790.2 1105.7 754.6 1105.7 705.9V705.3C1105.4 656.8 1068 621.4 1016.2 621.4ZM1016.2 750H993.301V662H1016.2C1042.6 662 1060.2 679.7 1060.2 706V706.6C1059.9 732.4 1042.3 750 1016.2 750Z" fill="white"/>
<path d="M1161.4 620.3C1148.9 620.3 1139.4 629.9 1139.4 642.3V770C1139.4 782.5 1149 792 1161.4 792C1173.9 792 1183.4 782.4 1183.4 770V642.3C1183.4 629.8 1173.8 620.3 1161.4 620.3Z" fill="white"/>
<path d="M1306.1 618.8C1255.7 618.8 1216.3 657 1216.3 706V706.6C1216.3 756.1 1254.5 793.2 1305.5 793.2C1355.9 793.2 1395.3 755 1395.3 706V705.4C1395.4 656.2 1357.1 618.8 1306.1 618.8ZM1262.1 705.4C1262.1 679.3 1280.9 659.9 1305.8 659.9C1331 659.9 1349.8 679.6 1349.8 706V706.6C1349.8 732.7 1331 752.1 1306.1 752.1C1280.9 752.1 1262.1 732.4 1262.1 706V705.4Z" fill="white"/>
<path d="M676.6 429.8H621C608.5 429.8 599 439.4 599 451.8V578.1C599 590.6 608.6 600.1 621 600.1C633.5 600.1 643 590.5 643 578.1V547.4H664.7L697.7 589.4C703.5 596.6 710.2 600.1 718.6 600.1C729 600.1 739.7 592.3 739.7 579.5C739.7 572.3 736.5 567.6 733 563.3L712.1 537.8C731.5 528 741.6 510.6 741.6 487.4V486.8C741.6 470.6 736.4 457 726.5 447.1C714.8 435.9 697.7 429.8 676.6 429.8ZM697.2 488.9V489.5C697.2 501.1 688.8 507.7 674.6 507.7H643V470.3H673.7C684.4 470.3 697.2 473.5 697.2 488.9Z" fill="white"/>
<path d="M893.3 428.6C880.8 428.6 871.3 438.2 871.3 450.6V526.2C871.3 548.5 860.9 560.4 841.2 560.4C816.3 560.4 811.1 541.3 811.1 525.1V450.7C811.1 438.2 801.5 428.7 789.1 428.7C776.6 428.7 767.1 438.3 767.1 450.7V526C767.1 574.1 794 601.6 840.7 601.6C888.2 601.6 915.4 573.8 915.4 524.8V450.6C915.4 438.2 905.8 428.6 893.3 428.6Z" fill="white"/>
<path d="M1080.8 497.8H1040.5C1029.8 497.8 1020.8 506.5 1020.8 517.5C1020.8 528.2 1029.5 536.9 1040.5 536.9H1059.9V553.1C1052.1 558 1042.2 560.6 1030.9 560.6C1005.4 560.6 986.901 541.2 986.901 514.3V513.7C986.901 488.5 1005.7 468.2 1028.6 468.2C1041.3 468.2 1051.2 471.4 1061 478.3C1063.9 480.3 1067.9 482.9 1074.3 482.9C1086.2 482.9 1096 473.1 1096 461.2C1096 451.4 1089.6 445.6 1086.7 443.5C1070.5 431.9 1053.4 427 1029.6 427C980.101 427 941.301 465.2 941.301 514.2V514.8C941.301 564.9 978.701 601.4 1029.9 601.4C1050.5 601.4 1070.2 595.9 1088.1 584.9C1097.9 579.1 1102.6 570.4 1102.6 558.8V519.7C1102.8 507.4 1093.2 497.8 1080.8 497.8Z" fill="white"/>
<path d="M426.401 698.9H391.301V802.7H426.401V698.9Z" fill="white"/>
<path d="M426.401 810.3H391.301C387.201 810.3 383.801 806.9 383.801 802.8V698.9C383.801 694.8 387.201 691.4 391.301 691.4H426.401C430.501 691.4 433.901 694.8 433.901 698.9V802.7C434.001 806.9 430.601 810.3 426.401 810.3ZM398.901 795.2H418.901V706.5H398.901V795.2Z" fill="white"/>
<path d="M374.1 661.6C362.5 660.5 352.3 657.6 343.7 652.9C340.9 651.4 324.7 642 315.8 618.3L315.7 618L258.5 432.3L258.4 432.1C257.9 430.1 246.1 382.9 306.4 350.7C354.5 324.9 392 322.1 415 324.2C419.5 324.6 424 325.3 428.1 326.2C454.8 331.9 475.6 352.4 483.701 368.9C491.001 383.8 529.8 514.7 538.1 542.7C540.6 548.9 553.101 583.3 529.901 607.6C511.901 626.2 432.4 667 374.1 661.6Z" fill="white"/>
<path d="M328.199 613.7L271.199 428.6C271.199 428.6 260.899 389.9 312.599 362.1C364.299 334.3 404.099 334.3 425.399 338.9C446.499 343.5 464.699 359.7 472.099 374.5C479.299 389.3 525.899 546.9 525.899 546.9C525.899 546.9 539.899 578.2 520.499 598.4C501.199 618.5 398.799 667.7 349.999 641.3C349.899 641.4 335.699 634.3 328.199 613.7Z" fill="white"/>
<path d="M525.2 545.6C523.1 540 518.2 535.6 512.2 534.7C501.1 532.9 493.4 534.9 493.3 534.9C485.2 536.7 482.4 523.8 490.7 522.2C491.1 522.1 496.6 522 504.6 521.6C506.5 521.5 508.3 521.6 509.8 521.7C513.5 522 516.5 518.5 515.4 514.9C514.9 513.4 513.8 512.2 512.3 511.6C510.3 510.8 507.2 509.9 503.3 509.9C502 509.8 500.7 509.8 499.3 509.9C492 509.4 488.9 499.7 495.8 496.6C498.1 496 500.1 495.7 501.9 495.6C505.8 495.4 508.4 491.7 507.1 488L507 487.8C506.3 485.8 504.5 484.4 502.4 484.1C497.6 483.5 489.5 483.3 483.8 482.6C482.2 482.4 480.7 482.5 479.1 482.5L477.7 482.7C470.2 483.9 467.9 473 474 470.4C479.5 468.9 487.2 469.3 493 470.1C497 470.6 500.2 466.8 499 462.9C498.5 461.1 497.1 459.7 495.3 459.2C489.1 457.4 482.9 457.2 475.1 456.9C472.2 456.6 470.1 456.7 469 456.8C460.8 457.8 459.2 444.7 467.6 443.9C468 443.9 468.4 443.8 468.7 443.7C473.5 443 479.4 443.5 484.2 444.3C488.6 445 492.2 440.9 490.9 436.6C490.6 435.6 490 434.7 489.3 434C488.6 433.3 487.6 432.8 486.6 432.6C481 431.3 470.6 430 464.7 430.4C463.5 430.5 462.6 430.6 461.7 430.6C454.1 431.8 451.8 420.6 458.3 418.2C463.6 417.4 469 417.4 473.6 417.7C479 418 483 412.7 481 407.5C480.5 406.2 479.7 405.1 478.6 404.3C477.6 403.5 476.3 403 474.9 402.8C470.9 402.4 464.9 401.8 459.4 401.7C458.6 401.7 457.9 401.7 457.3 401.7C457.1 401.7 456.9 401.7 456.8 401.7C455.6 401.8 454.7 402 453.9 402C445.6 403.2 443.9 390.1 452.3 389.2C452.8 389.1 459.4 388.3 469.1 389.9C473.2 390.6 476.7 386.7 475.4 382.7C471.6 370.4 463 360.1 457.4 356.3C456 355.4 454.4 356.9 455.2 358.4C456.1 359.9 457 361.7 457.9 363.6C460.6 369.6 451.8 374.2 448.6 368.2C442.4 356.4 437.1 338.1 416.5 337.2C414.7 337.1 413.9 339.3 415.3 340.4C420.9 345.1 429.7 354.4 433.3 362.8C436.7 370.8 424.5 376.2 420.9 368.2C415.2 355.8 410.4 336.6 385.9 337.6C383.3 337.7 382.3 340.9 384.2 342.5C395 351.8 408 375 394.9 378.8C376.9 383.4 386.7 337.4 349 345.7C340.9 348.6 331.5 352.3 322.2 356.9C288.7 373.2 255.4 400.6 277.1 444.9C278.6 447.8 282.3 448.9 285.1 447.1C293.8 441.7 310.3 431.2 310.3 431.2C317.3 426.7 324.4 437.7 317.2 442.2C315.1 443.9 294.8 455.1 287.3 460.7C279.7 466.5 287.7 478.1 295.8 473C301.9 469.2 319 458.8 319 458.8C326 454.2 333.1 465.3 325.8 469.8C325.8 469.8 305.4 482.6 296 488.6C288.3 494.1 296.4 506 304.6 500.9L328.1 486C335.1 481.5 342.2 492.5 335 497C332.7 498.8 312.5 510.1 304 517.1C296.9 523.1 304.8 534.2 312.8 529.2C320.2 524.6 336.4 514.1 336.4 514.1C343.4 509.6 350.5 520.6 343.2 525.1C341.2 526.6 320.4 538.5 312.3 544.6C304.8 550.3 312.9 561.9 320.9 556.9C327 553 343.8 542.5 343.8 542.5C350.8 537.9 357.9 549 350.6 553.5C350.8 553 329 567 319.8 572.6C312.3 577.9 320.2 589.3 327.9 584.5L352.2 569.5C359.2 565 366.3 576 359 580.5L329.8 598.8C326.3 601 324.7 605.4 326.1 609.4C333 630.3 347.3 652 390 648.9C399.5 647.7 407.6 646.1 414.4 644.1C481.8 624.3 436.5 568.1 453.9 564.9C456.6 564.4 458.8 567.5 459.9 570C464.5 580.2 468.2 604.7 459.1 622.9C457.4 626.3 461.2 629.7 464.3 627.7C484.8 614.5 485.3 583.7 478.5 568.4C477.3 565.7 474.6 559 479.5 556.6C492.8 550.1 498.3 581.9 492.7 606C491.7 610.4 497.3 613.1 500.2 609.6C511.3 595.9 510.7 574 507.1 564C506.2 561.4 506.1 556.8 508.6 555.4C519.2 550.2 524.5 571.1 516.8 594.7C516.2 596.7 518.2 599.6 519.6 598.1C535.2 582.4 532 564.1 525.2 545.6ZM338.2 417.6C339.1 417.1 352.4 410.2 371.1 403.8C385.1 399.1 402.1 394.5 419.4 393.3C422.9 393 426 395.7 426.3 399.2C426.6 402.7 423.9 405.8 420.4 406.1C404.6 407.3 389.4 411.2 376.6 415.6C357.3 422.1 343.6 429.6 342.1 429.7C335 430.5 331.9 421 338.2 417.6ZM348.2 459.1C341.3 459.9 338.1 450.3 344.5 446.9C355.6 441.1 369.8 435.9 383.2 431.8C403.6 425.6 421.9 421.6 423.1 421.3C431.4 419.8 434.1 431.9 425.8 434C425.4 433.8 407.6 438 387.7 444.1C373.7 448.5 358.9 453.8 348.2 459.1ZM355.3 474.2C368.9 467.1 381.6 461.9 392.4 458.2C414.8 450.6 429.9 449 430.8 448.9C439.4 448.4 440.5 460.7 432 461.8C431.2 461.9 417 463.4 396.2 470.6C385.9 474.1 374 478.9 361.2 485.7C360.5 486.1 359.7 486.3 359 486.4C352.1 487.1 349 477.5 355.3 474.2ZM364.3 501.7C376.3 495.9 389.3 490.8 401 486.8C419.5 480.5 434.4 476.6 435.4 476.4C438.8 475.5 442.3 477.6 443.2 481.1C444.1 484.5 442 488 438.5 488.9C438.3 488.7 423 492.9 404.5 499.4C392.5 503.5 379.3 508.6 367.9 513.9C360.8 514.7 357.7 505 364.3 501.7ZM368.7 529.5C381.4 523.7 396.5 518.2 408.8 514C422 509.6 431.9 506.6 432.7 506.4C440.9 504.3 444.5 516.2 436.3 518.8C436.1 518.6 425.8 521.9 412.6 526.5C399.8 530.9 384.1 536.7 372.1 541.8C365 542.7 362.1 532.6 368.7 529.5ZM453.9 543C453.8 543 447.9 543.9 435.8 547.6C431.6 548.9 426.5 550.6 420.8 552.6C410.3 556.4 397.3 561.7 381.8 568.9C381.2 569.2 380.5 569.4 379.9 569.5C372.8 570.3 369.7 560.3 376.4 557.2C392.6 549.7 406.1 544.2 417 540.2C440 531.9 451.5 530.2 452.1 530.1C460.6 529.3 462.4 541.6 453.9 543ZM471.7 519.7C459.1 522.5 452.4 497.8 464.6 493.7C469.7 492.3 475.6 496.9 477.5 504.1C479.5 511.2 476.9 518.2 471.7 519.7Z" fill="white"/>
<path d="M414.899 644.1C407.999 646.1 399.899 647.8 390.499 648.9C347.799 651.9 333.699 630.3 326.599 609.4C325.299 605.4 326.799 601.1 330.299 598.8L359.499 580.5C366.599 576.2 359.599 565 352.699 569.5L328.399 584.5C320.699 589.4 312.799 578 320.299 572.6C329.499 567 351.299 553 351.099 553.5C358.199 549.2 351.199 538 344.299 542.5C344.299 542.5 327.499 553.1 321.399 556.9C313.399 561.9 305.299 550.5 312.799 544.6C320.799 538.5 341.699 526.7 343.699 525.1C350.799 520.8 343.799 509.6 336.899 514.1C336.899 514.1 320.599 524.5 313.299 529.2C305.399 534.2 297.399 523.1 304.499 517.1C312.999 510.1 333.199 498.7 335.499 497C342.599 492.7 335.599 481.5 328.599 486L304.699 501C296.599 506.1 288.399 494.3 296.099 488.7C305.499 482.7 325.899 469.9 325.899 469.9C332.999 465.6 325.999 454.4 319.099 458.9C319.099 458.9 301.999 469.3 295.899 473.1C287.899 478.2 279.799 466.6 287.399 460.8C294.799 455.1 315.099 443.9 317.299 442.3C324.399 438 317.399 426.8 310.399 431.3C310.399 431.3 293.799 441.8 285.199 447.2C282.399 449 278.699 447.9 277.199 445C255.499 400.6 288.899 373.3 322.299 357C336.099 351.2 353.799 367.5 371.399 403.6C352.699 409.9 339.499 416.9 338.499 417.4C332.199 420.8 335.299 430.4 342.299 429.6C343.799 429.5 357.499 422.1 376.799 415.5C378.999 420.6 381.199 426.1 383.399 431.8C369.999 435.9 355.699 441.1 344.699 446.9C338.399 450.3 341.499 459.9 348.399 459.1C359.099 453.8 373.999 448.4 387.899 444.2C389.499 448.7 390.999 453.4 392.599 458.2C381.699 461.9 369.099 467.1 355.499 474.2C349.199 477.6 352.299 487.2 359.199 486.4C359.999 486.3 360.699 486.1 361.399 485.7C374.199 479 386.099 474.1 396.399 470.6C397.999 475.8 399.499 481.3 401.099 486.9C389.399 490.9 376.399 496 364.399 501.8C357.899 505 360.899 514.9 367.999 514.1C379.399 508.8 392.599 503.7 404.599 499.6C405.999 504.6 407.499 509.5 408.899 514.2C396.499 518.4 381.399 523.9 368.799 529.7C362.199 532.8 365.099 542.8 372.199 542C384.299 536.8 399.899 531.1 412.699 526.7C414.199 531.4 415.599 536.1 416.999 540.5C406.099 544.4 392.599 550 376.399 557.5C369.799 560.6 372.699 570.6 379.899 569.8C380.599 569.7 381.199 569.5 381.799 569.2C397.399 562 410.399 556.7 420.799 552.9C434.399 596.4 439.699 622.6 414.899 644.1Z" fill="white"/>
<path d="M353.2 714.1L326.3 686.5L325.1 548.6L353.2 549.9V714.1Z" fill="white"/>
<path d="M454.9 642.7L481.4 632.9L480.8 644.3C480.8 644.3 480.2 681 480.2 681.7C480.2 682.3 474.3 697.5 474.6 698.3C474.9 699.1 458.9 705.9 458 705.9C457.1 705.9 403.5 710.4 403.5 710.4L380.9 707L378.4 695L391.2 689.1L409.4 687.5L456.5 680.7L455.1 675.1L456.8 642.3L454.9 642.7Z" fill="white"/>
<path d="M371.499 555L376.899 578L377.699 613.5C377.699 613.5 376.899 649.4 376.899 649.7C376.899 650 378.199 680.6 378.199 680.6L379.599 696.2L382.399 707.9L399.899 711.6L455.599 705.9C455.599 705.9 471.599 700.6 471.799 700.5C471.999 700.4 479.399 689.9 479.399 689.9C479.399 689.9 481.399 631.5 481.399 630.5C481.399 629.5 486.099 630.6 486.099 630.6L500.699 623.3L505.799 627.9C505.799 627.9 505.099 677.9 505.099 678.8C505.099 679.7 501.199 704.8 501.199 704.8C501.199 704.8 493.299 716 492.499 716.2C491.899 716.5 475.199 724.2 475.199 724.2L447.599 728.6L393.499 735L372.699 728.5L359.099 713.9L350.999 688.7L350.199 630.8L352.699 567.8L352.399 554L352.799 548.7L371.499 555Z" fill="white"/>
<path d="M377.901 698.4L376.301 686.4L449.701 677.1V637.2L461.801 632.8V679.3C461.801 684.1 458.201 688.2 453.501 688.9L377.901 698.4Z" fill="white"/>
<path d="M396.6 718C390.5 718 384.5 715.8 379.8 711.7C374.3 706.9 371 699.8 371 692.5V567.5C371 562.7 367.8 558.3 363.2 557L339.5 550.2L342.8 538.6L366.5 545.4C376.3 548.2 383.1 557.3 383.1 567.4V692.3C383.1 696.2 384.8 699.9 387.7 702.5C390.6 705 394.5 706.2 398.4 705.7L462.7 697.8C469.3 696.9 474.4 691.2 474.4 684.4V627.3L486.5 621V684.5C486.5 697.2 477 708 464.5 709.8L400.2 717.7C398.9 717.9 397.7 718 396.6 718Z" fill="white"/>
<path d="M393.9 741.2C381.9 741.2 370.4 736.8 361.3 728.5L333.9 707.9C323.7 700.3 317.6 688 317.6 675.2V557.9C317.6 546.9 326.6 538 337.5 538C338.8 538 340 538.1 341.3 538.4C342.3 538.6 343.3 538.9 344.2 539.2C352.1 542 357.4 549.6 357.4 558V692.9C357.4 703.2 361.5 712.6 369.1 719.7C377.2 727.1 388.1 730.6 399 729L468.7 719.8C486.5 717.2 499.9 701.7 499.9 683.8V624L512 617.2V683.8C512 707.7 494.2 728.4 470.6 731.8L400.9 741C398.5 741.1 396.2 741.2 393.9 741.2ZM337.5 549.9C333.2 549.9 329.7 553.4 329.7 557.7V675.1C329.7 684.1 334 692.7 341.2 698.1L346.3 702C345.7 699 345.4 695.8 345.4 692.5V557.9C345.4 554.6 343.3 551.6 340.2 550.5C339.8 550.4 339.4 550.3 339.1 550.2C338.5 550 338 549.9 337.5 549.9Z" fill="white"/>
<path d="M567.5 831.3H249.2C236.9 831.3 227 840 227 850.7C227 861.4 236.9 870.1 249.2 870.1H567.5C579.8 870.1 589.7 861.4 589.7 850.7C589.7 840 579.8 831.3 567.5 831.3Z" fill="white"/>
<path d="M567.501 877.5H249.201C232.201 877.5 218.301 865.4 218.301 850.7C218.301 836 232.201 823.9 249.201 823.9H567.501C584.501 823.9 598.401 836 598.401 850.7C598.401 865.4 584.501 877.5 567.501 877.5ZM249.201 839C241.801 839 235.701 844.2 235.701 850.8C235.701 857.3 241.701 862.6 249.201 862.6H567.501C574.901 862.6 581.001 857.4 581.001 850.8C581.001 844.3 575.001 839 567.501 839H249.201Z" fill="white"/>
<path d="M325.4 573.2H311.9V585.8H325.4V573.2Z" fill="white"/>
<path d="M457.801 664.9V636.2L506.801 614.7L505.401 647.5L457.801 664.9Z" fill="white"/>
<path d="M414.4 644.2C388.2 652.9 382.8 616.3 383 596.2L376.6 652.1L411.3 653.3L414.4 644.2Z" fill="white"/>
<path d="M480.3 791.9H336.2C325.5 791.9 316.9 800.6 316.9 811.2C316.9 821.8 325.6 830.5 336.2 830.5H480.2C490.9 830.5 499.5 821.8 499.5 811.2C499.5 800.6 490.9 791.9 480.3 791.9Z" fill="white"/>
<path d="M480.301 838.1H336.201C321.401 838.1 309.301 826 309.301 811.2C309.301 796.4 321.401 784.3 336.201 784.3H480.201C495.001 784.3 507.101 796.4 507.101 811.2C507.101 826 495.101 838.1 480.301 838.1ZM336.201 799.5C329.801 799.5 324.401 804.7 324.401 811.3C324.401 817.8 329.601 823.1 336.201 823.1H480.201C486.601 823.1 492.001 817.9 492.001 811.3C492.001 804.8 486.801 799.5 480.201 799.5H336.201Z" fill="white"/>
<path d="M1432.7 606.3H1426.5C1424.8 606.3 1423.4 607.6 1423.4 609.3C1423.4 611 1424.7 612.3 1426.5 612.3H1429.5V614.8C1428.3 615.6 1426.8 616 1425 616C1421.1 616 1418.2 613 1418.2 608.8V608.7C1418.2 604.8 1421.1 601.7 1424.7 601.7C1426.7 601.7 1428.2 602.2 1429.7 603.3C1430.1 603.6 1430.8 604 1431.8 604C1433.6 604 1435.2 602.5 1435.2 600.6C1435.2 599.1 1434.2 598.2 1433.8 597.9C1431.2 596.1 1428.6 595.4 1425 595.4C1417.3 595.4 1411.3 601.3 1411.3 608.9V609C1411.3 616.8 1417.1 622.4 1425 622.4C1428.2 622.4 1431.2 621.5 1434 619.8C1435.5 618.9 1436.2 617.6 1436.2 615.8V609.8C1436.1 607.8 1434.6 606.3 1432.7 606.3Z" fill="white"/>
<path d="M1464.9 595.7H1464.3C1463 595.7 1462 596.3 1461.3 597.4L1455.2 607.2L1449.2 597.4C1448.5 596.3 1447.4 595.7 1446.1 595.7H1445.5C1443.6 595.7 1442.1 597.2 1442.1 599.1V618.9C1442.1 620.8 1443.6 622.2 1445.4 622.2C1447.2 622.2 1448.8 620.7 1448.8 618.9V608.9L1452.3 614.3C1453.1 615.4 1454 616 1455.1 616C1456.3 616 1457.2 615.5 1457.9 614.3L1461.4 608.8V618.9C1461.4 620.8 1462.9 622.3 1464.8 622.3C1466.7 622.3 1468.2 620.8 1468.2 618.9V599.2C1468.3 597.2 1466.8 595.7 1464.9 595.7Z" fill="white"/>
<path d="M1440.2 649.6C1462.73 649.6 1481 631.333 1481 608.8C1481 586.267 1462.73 568 1440.2 568C1417.67 568 1399.4 586.267 1399.4 608.8C1399.4 631.333 1417.67 649.6 1440.2 649.6Z" fill="white" stroke="white" stroke-width="7.9434"/>
</svg>
