<svg width="2596" height="1200" viewBox="0 0 2596 1200" fill="none" xmlns="http://www.w3.org/2000/svg">
<path fill-rule="evenodd" clip-rule="evenodd" d="M708.846 360.369C696.167 345.674 677.406 336.373 656.474 336.373H375.704C370.186 336.373 364.82 337.019 359.675 338.24C344.338 339.805 329.992 347.392 320.041 359.711C320.041 359.711 218.429 493.415 210.011 503.836C201.592 514.257 197 527.249 197 540.645V626.697C197 642.234 203.173 657.134 214.161 668.12L228.098 682.054C238.198 692.153 251.898 697.826 266.182 697.826C295.927 697.826 320.041 721.935 320.041 751.676V795.662C320.041 811.196 322.214 831.068 335.903 846.951C349.145 862.313 365.381 870.112 382.394 870.112H2169.64C2204.59 870.112 2241.33 850.927 2260.7 837.316C2280.06 823.706 2345.94 737.099 2365.38 709.951C2384.82 682.804 2399 652.257 2399 616.868V590.156C2399 567.214 2391.9 545.881 2379.78 528.243C2392.15 515.346 2399.59 497.461 2398.01 476.961C2393.61 419.675 2373.87 378.132 2336.94 353.512C2303.77 331.395 2264.28 328.998 2238.7 327.542L2237.4 327.469H2088.92C2049.95 327.469 2013.56 343.121 1986.29 369.468C1974.14 349.618 1952.25 336.373 1927.27 336.373H1842.89C1818.84 336.373 1797.66 348.649 1785.27 367.276C1772.46 347.976 1750.83 336.373 1727.66 336.373H1619.31C1606.1 336.373 1593.75 340.08 1583.24 346.511C1572.85 340.121 1560.54 336.373 1547.09 336.373H1481.18C1451.63 336.373 1425.35 355.145 1415.77 383.092L1415.72 383.234C1406.28 355.453 1380.09 336.373 1350.26 336.373H1303.48C1273.65 336.373 1247.46 355.454 1238.02 383.235L1237.97 383.092C1228.39 355.145 1202.11 336.373 1172.56 336.373H1106.65C1086.77 336.373 1069.38 344.558 1057.01 357.362L1055.18 357.123C1030.46 338.214 999.603 327 966.282 327H802.228C767.393 327 734.838 339.216 708.846 360.369ZM966.282 372.718H802.224C775.038 372.718 749.728 383.496 730.509 402.242C711.762 420.988 700.981 446.764 701.452 473.476V616.882C700.981 643.594 711.762 668.901 730.509 688.115C749.728 706.861 775.509 717.64 802.224 717.64H966.282C1021.59 717.64 1067.05 672.182 1067.05 616.882V473.476C1067.05 417.708 1021.59 372.718 966.282 372.718ZM935.344 580.327C935.344 598.604 920.344 613.601 902.063 613.601H865.972C847.691 613.601 832.691 598.604 832.691 580.327V510.031C832.691 491.753 847.691 476.757 865.972 476.757H902.063C920.344 476.757 935.344 491.753 935.344 510.031V580.327ZM375.703 382.091C362.76 382.091 352.267 392.582 352.267 405.523V471.133C352.267 484.075 362.76 494.565 375.703 494.565H426.643C439.587 494.565 450.08 505.056 450.08 517.997V690.04C450.08 702.981 460.573 713.472 473.516 713.472H558.657C571.601 713.472 582.093 702.981 582.093 690.04V517.997C582.093 505.056 592.586 494.565 605.53 494.565H656.469C669.413 494.565 679.907 484.075 679.907 471.133V405.523C679.907 392.582 669.413 382.091 656.469 382.091H375.703ZM1459.01 397.925C1462.26 388.453 1471.17 382.091 1481.18 382.091H1547.09C1563.26 382.091 1574.58 398.075 1569.19 413.32L1469.96 694.506C1466.65 703.876 1457.79 710.141 1447.86 710.141H1365.45C1357.46 710.141 1350.25 705.483 1346.89 698.362C1346.32 697.161 1346.04 695.843 1345.88 694.524C1342.75 668.554 1339.97 653.939 1327.36 653.939C1314.75 653.939 1310.93 668.284 1307.77 694.526C1307.61 695.822 1307.35 697.118 1306.79 698.302C1303.47 705.467 1296.26 710.141 1288.25 710.141H1205.88C1195.95 710.141 1187.09 703.876 1183.78 694.506L1084.54 413.32C1079.17 398.075 1090.47 382.091 1106.65 382.091H1172.56C1182.57 382.091 1191.48 388.453 1194.73 397.925L1219.64 470.605C1227.27 492.845 1259.24 491.257 1264.63 468.37L1280.67 400.16C1283.16 389.573 1292.61 382.091 1303.48 382.091H1350.26C1361.13 382.091 1370.58 389.573 1373.07 400.16L1389.11 468.37C1394.49 491.257 1426.47 492.845 1434.1 470.605L1459.01 397.925ZM1842.89 382.091C1829.95 382.091 1819.46 392.582 1819.46 405.523V423.823C1819.46 447.039 1789.31 456.12 1776.49 436.767L1747.19 392.578C1742.85 386.029 1735.52 382.091 1727.66 382.091H1619.31C1606.37 382.091 1595.87 392.582 1595.87 405.523V687.178C1595.87 700.119 1606.37 710.61 1619.31 710.61H1707.43C1720.37 710.61 1730.87 700.119 1730.87 687.178V638.891C1730.87 614.808 1762.85 606.392 1774.7 627.355L1815.07 698.714C1819.23 706.065 1827.02 710.61 1835.47 710.61H1927.27C1940.21 710.61 1950.7 700.119 1950.7 687.178V405.523C1950.7 392.582 1940.21 382.091 1927.27 382.091H1842.89ZM2129.4 514.431C2130.21 514.665 2131.04 514.745 2131.88 514.802C2139.06 515.296 2176.58 517.864 2222.04 520.809C2238.45 522.148 2256.05 523.487 2273.65 524.826C2280.69 525.362 2287.73 525.898 2294.7 526.433C2327.51 529.245 2353.29 556.895 2353.29 590.169V616.882C2353.29 672.182 2308.29 717.171 2252.51 717.171H2080.96C2025.65 717.171 1988.62 672.182 1988.62 616.882V609.852C1988.62 596.911 1999.11 586.42 2012.05 586.42H2097.59C2104.56 586.42 2112.74 589.466 2120.91 592.512C2129.09 595.558 2137.27 598.604 2144.23 598.604H2206.1C2219.75 598.604 2223.69 579.19 2211.92 575.897C2211.18 575.69 2210.42 575.611 2209.65 575.551C2202.65 574.994 2164.28 571.907 2119.39 567.674C2114.65 567.218 2109.83 566.762 2104.98 566.303C2084.91 564.401 2064.21 562.44 2045.33 560.175C2012.99 556.426 1988.15 529.245 1988.62 496.909V473.945C1988.15 447.232 1998.93 421.457 2017.68 402.711C2036.89 383.965 2062.21 373.186 2088.92 373.186H2236.1C2289.73 376.238 2344.97 383.343 2352.43 480.474C2353.42 493.377 2342.79 503.938 2329.85 503.938H2244.24C2237.21 503.938 2228.97 501.009 2220.72 498.08C2212.47 495.151 2204.22 492.222 2197.2 492.222H2135.33C2121.72 492.222 2117.77 511.077 2129.4 514.431Z" fill="white"/>
</svg>
