<svg width="5039" height="546" viewBox="0 0 5039 546" fill="none" xmlns="http://www.w3.org/2000/svg">
<g clip-path="url(#clip0_6801_89987)">
<path d="M75.5311 207.178C86.7758 216.58 97.2714 226.462 107.606 236.851C109.229 238.473 110.852 240.096 112.524 241.768C117.842 247.087 123.152 252.414 128.462 257.741C132.165 261.449 135.869 265.156 139.574 268.863C149.288 278.586 158.997 288.316 168.704 298.047C178.624 307.99 188.55 317.926 198.476 327.863C217.925 347.336 237.368 366.816 256.806 386.3C268.05 376.897 278.546 367.016 288.88 356.627C291.315 354.193 291.315 354.193 293.798 351.71C299.116 346.391 304.426 341.064 309.736 335.737C313.44 332.029 317.144 328.322 320.848 324.615C330.563 314.892 340.271 305.162 349.978 295.431C359.898 285.488 369.824 275.552 379.75 265.615C399.199 246.142 418.642 226.662 438.08 207.178C449.251 216.522 459.689 226.33 469.957 236.652C471.559 238.254 473.161 239.856 474.811 241.506C480.059 246.755 485.299 252.012 490.539 257.269C494.194 260.929 497.849 264.587 501.505 268.246C511.093 277.841 520.673 287.443 530.253 297.047C540.042 306.859 549.838 316.665 559.634 326.472C578.827 345.689 598.014 364.913 617.197 384.142C623.795 381.195 628.329 377.86 633.421 372.753C634.885 371.294 636.35 369.835 637.859 368.332C639.442 366.734 641.025 365.135 642.657 363.487C644.342 361.803 646.027 360.118 647.763 358.383C653.331 352.811 658.884 347.225 664.437 341.638C668.295 337.772 672.153 333.907 676.012 330.044C685.13 320.911 694.239 311.768 703.342 302.621C713.709 292.205 724.088 281.802 734.468 271.4C755.816 250.006 777.149 228.597 798.471 207.178C814.401 220.676 814.401 220.676 821.235 227.54C822.53 228.835 823.825 230.13 825.16 231.464C826.498 232.814 827.836 234.163 829.215 235.553C831.338 237.681 831.338 237.681 833.504 239.853C837.972 244.332 842.432 248.82 846.892 253.307C849.942 256.368 852.992 259.428 856.042 262.488C863.474 269.942 870.898 277.404 878.318 284.869C874.959 292.907 870.031 298.005 863.898 304.126C862.863 305.164 861.828 306.203 860.762 307.273C857.296 310.746 853.815 314.203 850.334 317.66C847.845 320.148 845.357 322.637 842.87 325.127C836.116 331.882 829.349 338.624 822.58 345.364C815.507 352.41 808.446 359.468 801.384 366.525C788.011 379.886 774.626 393.236 761.237 406.582C745.994 421.776 730.764 436.983 715.535 452.191C684.208 483.474 652.865 514.742 621.513 546C614.914 543.052 610.38 539.718 605.288 534.61C603.824 533.152 602.359 531.693 600.85 530.19C599.267 528.591 597.684 526.992 596.053 525.345C594.367 523.661 592.682 521.976 590.946 520.24C585.378 514.669 579.825 509.082 574.272 503.495C570.415 499.63 566.556 495.765 562.697 491.901C553.579 482.768 544.471 473.626 535.367 464.478C525 454.063 514.621 443.66 504.241 433.258C482.893 411.864 461.561 390.455 440.238 369.035C429.068 378.363 418.698 388.172 408.498 398.544C406.91 400.15 405.322 401.755 403.686 403.408C400.263 406.868 396.843 410.33 393.425 413.794C386.16 421.15 378.875 428.486 371.591 435.823C358.048 449.464 344.515 463.114 331.016 476.799C321.605 486.338 312.168 495.851 302.713 505.347C299.114 508.971 295.525 512.605 291.947 516.249C286.961 521.322 281.944 526.362 276.918 531.394C275.439 532.915 273.96 534.436 272.436 536.004C271.066 537.362 269.696 538.72 268.284 540.12C267.103 541.315 265.921 542.509 264.703 543.74C261.122 546 261.122 546 256.826 545.707C251.764 543.53 248.89 541.045 244.999 537.144C243.556 535.713 242.114 534.283 240.627 532.809C239.068 531.229 237.508 529.65 235.901 528.022C234.24 526.366 232.579 524.709 230.868 523.002C225.367 517.508 219.889 511.99 214.412 506.471C210.591 502.644 206.769 498.817 202.946 494.992C194.923 486.959 186.911 478.916 178.907 470.864C168.677 460.571 158.427 450.298 148.17 440.031C140.269 432.121 132.374 424.205 124.482 416.286C120.706 412.499 116.93 408.712 113.153 404.927C107.854 399.613 102.563 394.291 97.2731 388.968C95.7266 387.419 94.1802 385.87 92.5869 384.274C84.1137 375.729 76.0036 366.987 68.1839 357.839C62.157 350.994 55.5814 344.718 49.0277 338.384C46.1154 335.53 43.2043 332.675 40.2945 329.819C35.7646 325.383 31.2271 320.955 26.6677 316.55C22.2273 312.252 17.8215 307.922 13.4202 303.584C12.0404 302.267 10.6605 300.949 9.2388 299.592C5.4583 295.835 5.4583 295.835 0 289.186C0.532837 281.678 3.92294 277.996 9.13844 272.838C10.6073 271.369 12.0761 269.901 13.5894 268.388C15.1832 266.828 16.777 265.267 18.4191 263.659C20.0447 262.043 21.6702 260.426 23.345 258.761C28.5415 253.601 33.76 248.463 38.9794 243.326C42.506 239.832 46.031 236.336 49.5546 232.839C58.1966 224.268 66.8581 215.717 75.5311 207.178Z" fill="#F6F6F6"/>
<path d="M984.062 53.9527C1011.84 53.9527 1039.61 53.9527 1068.22 53.9527C1071.03 62.3782 1073.49 70.2592 1075.51 78.8282C1076.06 81.1469 1076.61 83.4655 1077.18 85.8543C1077.77 88.3666 1078.36 90.8788 1078.97 93.4672C1079.6 96.1399 1080.23 98.8125 1080.88 101.566C1082.61 108.885 1084.34 116.205 1086.06 123.525C1087.88 131.246 1089.7 138.965 1091.53 146.684C1095 161.354 1098.46 176.026 1101.92 190.698C1106.94 212.03 1111.98 233.36 1117.02 254.69C1117.77 257.882 1118.53 261.073 1119.28 264.265C1119.83 266.611 1119.83 266.611 1120.4 269.004C1122.55 278.123 1124.7 287.242 1126.85 296.362C1135.28 332.116 1143.78 367.853 1152.39 403.565C1152.83 401.79 1153.27 400.014 1153.73 398.185C1164.49 355.03 1175.26 311.877 1186.04 268.726C1191.25 247.858 1196.46 226.99 1201.67 206.121C1206.2 187.937 1210.74 169.753 1215.28 151.571C1217.69 141.939 1220.09 132.306 1222.49 122.673C1224.75 113.613 1227.01 104.555 1229.28 95.4972C1230.11 92.1655 1230.94 88.8335 1231.77 85.5009C1232.9 80.965 1234.04 76.4307 1235.17 71.8968C1235.81 69.3544 1236.44 66.8121 1237.1 64.1927C1238.71 58.2689 1238.71 58.2689 1240.87 53.9527C1267.93 53.9527 1294.99 53.9527 1322.87 53.9527C1326 66.3518 1329.14 78.7509 1332.36 91.5256C1336.66 108.54 1340.96 125.555 1345.26 142.57C1345.82 144.771 1346.37 146.973 1346.95 149.241C1362.95 212.575 1378.97 275.906 1395.03 339.227C1395.66 341.723 1395.66 341.723 1396.31 344.27C1401.32 364.035 1406.34 383.801 1411.35 403.565C1419.69 373.718 1426.58 343.535 1433.59 313.355C1434.9 307.729 1436.21 302.104 1437.52 296.478C1440.27 284.716 1443 272.953 1445.74 261.189C1449.55 244.803 1453.37 228.418 1457.19 212.034C1462.05 191.179 1466.9 170.324 1471.76 149.467C1472.92 144.452 1474.09 139.436 1475.26 134.421C1478.24 121.63 1481.18 108.834 1484.09 96.0271C1484.69 93.4188 1485.28 90.8106 1485.9 88.1233C1487.03 83.1322 1488.16 78.1396 1489.29 73.1455C1489.79 70.9365 1490.29 68.7275 1490.81 66.4516C1491.25 64.5003 1491.69 62.5491 1492.15 60.5387C1493.36 56.1108 1493.36 56.1108 1495.51 53.9527C1501.58 53.7615 1507.6 53.7041 1513.66 53.742C1515.48 53.745 1517.3 53.7481 1519.17 53.7512C1525 53.7634 1530.82 53.7904 1536.65 53.8179C1540.59 53.8287 1544.53 53.8385 1548.47 53.8474C1558.16 53.8712 1567.84 53.9085 1577.52 53.9527C1576.12 65.0715 1573.89 75.77 1571.08 86.6225C1570.65 88.3261 1570.21 90.0297 1569.77 91.785C1568.32 97.447 1566.87 103.106 1565.41 108.765C1564.38 112.815 1563.34 116.865 1562.31 120.915C1559.52 131.843 1556.72 142.767 1553.91 153.691C1551.57 162.808 1549.24 171.925 1546.91 181.043C1527.03 258.71 1506.95 336.325 1486.77 413.915C1478.13 447.142 1469.56 480.384 1460.99 513.629C1431.08 513.629 1401.17 513.629 1370.35 513.629C1357.07 465.09 1344.73 416.333 1332.45 367.533C1328.18 350.56 1323.9 333.588 1319.62 316.616C1318.05 310.375 1316.48 304.133 1314.91 297.891C1309.74 277.388 1304.53 256.9 1299.22 236.434C1298.71 234.466 1298.21 232.499 1297.68 230.473C1295.27 221.166 1292.85 211.862 1290.42 202.563C1289.57 199.277 1288.71 195.991 1287.86 192.705C1287.47 191.226 1287.08 189.747 1286.67 188.224C1284.88 181.245 1284.03 175.618 1284.03 168.332C1282.6 168.332 1281.18 168.332 1279.71 168.332C1279.43 170.855 1279.16 173.378 1278.87 175.977C1277.78 184.646 1275.95 192.936 1273.76 201.404C1273.38 202.893 1273 204.382 1272.61 205.916C1271.35 210.841 1270.07 215.762 1268.8 220.683C1267.89 224.217 1266.98 227.75 1266.07 231.284C1263.63 240.793 1261.17 250.298 1258.72 259.802C1256.16 269.696 1253.61 279.592 1251.07 289.488C1246.88 305.766 1242.69 322.042 1238.49 338.316C1232.51 361.501 1226.54 384.691 1220.58 407.882C1218.78 414.92 1216.97 421.959 1215.16 428.998C1214.73 430.684 1214.29 432.371 1213.85 434.108C1207.04 460.617 1200.21 487.123 1193.39 513.629C1163.48 513.629 1133.57 513.629 1102.75 513.629C1090.36 469.01 1090.36 469.01 1086.64 454.478C1086.2 452.763 1085.76 451.048 1085.3 449.28C1083.87 443.707 1082.43 438.132 1081 432.556C1079.96 428.487 1078.91 424.418 1077.86 420.349C1075.05 409.425 1072.24 398.499 1069.43 387.574C1066.48 376.094 1063.53 364.615 1060.58 353.137C1056.88 338.76 1053.18 324.384 1049.48 310.007C1041.13 277.537 1032.76 245.072 1024.38 212.609C1022.48 205.237 1020.58 197.864 1018.67 190.491C1018.06 188.098 1017.44 185.705 1016.8 183.239C1015.57 178.467 1014.34 173.694 1013.11 168.922C1010.09 157.214 1007.07 145.506 1004.04 133.799C1001.21 122.82 998.373 111.841 995.542 100.86C994.499 96.8182 993.455 92.7763 992.411 88.7346C990.991 83.2404 989.574 77.7454 988.158 72.2502C987.528 69.8183 987.528 69.8183 986.886 67.3373C984.062 56.3571 984.062 56.3571 984.062 53.9527Z" fill="#F6F6F6"/>
<path d="M3046.16 82.4903C3089.24 118.4 3107.75 160.898 3116.2 215.81C3087.71 215.81 3059.22 215.81 3029.87 215.81C3026.31 204.415 3022.75 193.02 3019.08 181.28C3006.18 153.067 2987.77 134.394 2958.66 123.012C2934.27 114.447 2901.83 114.895 2877.88 124.605C2868.38 129.273 2859.44 134.217 2850.76 140.276C2849.27 141.309 2847.79 142.341 2846.26 143.404C2814.95 167.926 2801.38 210.605 2796.18 248.418C2789.85 300.785 2795.91 362.083 2829.32 404.973C2848.29 426.915 2870.84 444.656 2900.39 448.885C2936.61 451.445 2966.86 446.182 2996.07 423.367C3017.95 403.763 3026.64 377.292 3034.19 349.612C3061.96 349.612 3089.74 349.612 3118.35 349.612C3114.3 390.112 3100 428.695 3073.03 459.676C3072.07 460.941 3071.12 462.207 3070.13 463.511C3043.5 497.743 2998.28 513.76 2957.04 520.642C2896.99 528.074 2838.37 516.875 2789.93 479.368C2786.43 476.441 2782.97 473.474 2779.54 470.466C2777.93 469.056 2776.31 467.645 2774.64 466.192C2732.05 426.426 2710.87 364.879 2707.95 307.782C2705.59 234.191 2717.81 164.069 2768.75 107.905C2769.91 106.57 2771.07 105.234 2772.27 103.858C2837.75 32.9528 2970.28 22.4654 3046.16 82.4903Z" fill="#F6F6F6"/>
<path d="M1821.78 203.266C1844.46 225.942 1853.97 255.282 1854.16 286.746C1854.18 289.222 1854.18 289.222 1854.21 291.749C1854.25 295.313 1854.28 298.878 1854.31 302.442C1854.36 308.084 1854.41 313.726 1854.48 319.368C1854.63 333.373 1854.75 347.377 1854.88 361.382C1854.99 373.236 1855.11 385.09 1855.24 396.943C1855.3 402.5 1855.34 408.056 1855.39 413.613C1855.42 417.018 1855.46 420.423 1855.5 423.828C1855.51 425.371 1855.52 426.913 1855.52 428.503C1855.62 435.812 1856.27 441.723 1858.06 448.885C1868.03 449.597 1878 450.31 1888.28 451.043C1888.28 471.696 1888.28 492.349 1888.28 513.628C1878.08 513.806 1867.89 513.984 1857.39 514.168C1854.23 514.246 1851.06 514.325 1847.8 514.406C1829.32 514.561 1810.36 513.877 1795.56 501.437C1787.48 493.028 1783.85 483.618 1780.37 472.624C1779.53 473.695 1778.69 474.766 1777.83 475.87C1754.55 504.139 1723.44 517.698 1687.58 522.261C1651.54 525.286 1618.45 518.791 1589.79 495.824C1571.62 478.804 1563.8 457.249 1561.81 432.801C1561.08 405.267 1566.38 382.054 1583.99 360.403C1613.55 329.953 1658.98 322.528 1699.25 316.634C1700.83 316.402 1702.41 316.17 1704.04 315.931C1711.95 314.782 1719.86 313.683 1727.78 312.654C1743.16 310.584 1756.41 308.541 1769.58 299.976C1776 290.061 1777.12 281.738 1775.24 270.344C1772.2 259.24 1767.67 251.157 1757.9 244.784C1736.17 233.596 1715.86 232.145 1692.17 238.875C1676.02 244.442 1668.03 250.076 1659.93 265.446C1656.28 272.999 1654.75 278.556 1653.05 287.027C1626.7 287.027 1600.35 287.027 1573.2 287.027C1581.53 248.183 1592.64 219.328 1626.21 196.927C1684.95 159.965 1765.75 164.81 1821.78 203.266ZM1757.58 355.412C1743.83 359.041 1730.04 361.75 1716.04 364.212C1676.4 370.264 1676.4 370.264 1646.58 394.933C1640.43 407.36 1639.92 421.139 1643.67 434.461C1649.51 447.677 1658.84 454.69 1672.06 459.912C1692.72 465.677 1713.96 462.852 1732.9 453.201C1753.71 441.105 1767.07 422.091 1773.9 399.249C1777.93 383.378 1778.78 368.093 1778.22 351.771C1770.71 351.771 1764.84 353.464 1757.58 355.412Z" fill="#F6F6F6"/>
<path d="M4447.7 207.178C4481.99 238.328 4493.28 283.422 4497.33 328.031C4497.33 340.851 4497.33 353.67 4497.33 366.877C4419.71 366.877 4342.09 366.877 4262.11 366.877C4270.85 408.258 4270.85 408.258 4294.48 442.411C4318.39 456.324 4340.63 461.791 4368.17 456.118C4382.53 451.412 4392.14 444.884 4402.38 433.778C4406.65 425.232 4410.93 416.686 4415.33 407.881C4440.97 407.881 4466.6 407.881 4493.02 407.881C4488.97 440.258 4474.35 468.537 4449.28 489.746C4411.2 518.565 4365.08 527.087 4318.3 521.182C4290.75 516.182 4266.81 507.438 4244.84 489.889C4243.21 488.629 4241.57 487.369 4239.88 486.07C4207.05 459.134 4189.25 417.03 4184.42 375.51C4180.33 320.646 4188.09 270.397 4223.26 226.601C4224.67 224.77 4226.08 222.94 4227.53 221.054C4250.9 192.984 4288.41 178.068 4323.75 173.322C4368.34 169.494 4413.37 176.787 4447.7 207.178ZM4284.36 261.206C4272.28 278.336 4266.86 294.299 4264.27 315.083C4315.54 315.083 4366.82 315.083 4419.64 315.083C4419.64 292.176 4413.84 269.815 4398.06 252.498C4377.95 235.468 4356.48 233.449 4331.15 234.812C4313.02 236.587 4295.86 247.346 4284.36 261.206Z" fill="#F6F6F6"/>
<path d="M2421.31 207.178C2450.53 234.152 2464.17 272.077 2468.79 310.767C2469.03 312.661 2469.26 314.556 2469.51 316.507C2471.36 333.47 2470.94 349.588 2470.94 366.877C2393.32 366.877 2315.7 366.877 2235.72 366.877C2244.33 411.851 2244.33 411.851 2272.7 445.581C2294.18 458.126 2317.34 461.188 2341.76 456.11C2356.13 451.438 2365.75 444.885 2375.99 433.778C2380.26 425.232 2384.54 416.686 2388.94 407.881C2414.58 407.881 2440.21 407.881 2466.63 407.881C2459.66 442.728 2446.93 471.378 2418.07 493.126C2376.56 520.765 2327.18 528.716 2278.49 518.972C2239.81 510.245 2207.62 487.814 2185.75 454.811C2165.22 421.342 2157.17 386.872 2157.36 347.859C2157.37 345.185 2157.38 342.512 2157.39 339.757C2157.62 321.339 2158.7 304.626 2164.5 287.027C2165.26 284.682 2166.02 282.337 2166.81 279.921C2181.63 238.175 2207.37 206.572 2247.45 187.08C2303.77 162.496 2373.34 167.431 2421.31 207.178ZM2257.3 261.13C2244.13 277.793 2241.4 293.775 2235.72 315.083C2287.71 315.083 2339.69 315.083 2393.26 315.083C2390.52 284.955 2386.08 266.378 2363.04 246.023C2329.83 223.956 2283.05 232.213 2257.3 261.13Z" fill="#F6F6F6"/>
<path d="M437.406 -0.944239C439.092 -0.936958 440.778 -0.929677 442.516 -0.922175C547.912 -0.266237 643.462 49.8846 717.275 123.551C719.145 125.51 721.014 127.468 722.94 129.486C719.97 136.158 716.571 140.7 711.399 145.834C709.196 148.037 709.196 148.037 706.948 150.284C705.366 151.844 703.783 153.405 702.152 155.012C700.53 156.629 698.907 158.245 697.236 159.911C692.056 165.066 686.862 170.206 681.668 175.346C678.152 178.84 674.636 182.336 671.122 185.833C662.51 194.398 653.885 202.951 645.251 211.494C642.844 209.443 640.439 207.391 638.034 205.337C636.694 204.194 635.355 203.051 633.975 201.873C629.044 197.588 624.35 193.073 619.624 188.564C594.378 165.631 566.327 147.612 535.192 133.802C533.817 133.185 532.443 132.568 531.027 131.932C512.026 123.512 493.11 117.888 472.609 114.379C469.849 113.89 467.09 113.4 464.246 112.896C393.368 105.823 326.367 132.69 271.912 176.964C262.87 184.452 253.972 192.097 245.184 199.881C240.523 203.868 235.699 207.662 230.909 211.494C205.272 185.856 179.635 160.217 153.22 133.802C157.589 125.064 162.47 119.857 169.54 113.435C171.381 111.754 171.381 111.754 173.259 110.039C208.149 78.7242 246.648 52.0709 289.176 32.3715C292.827 30.6439 292.827 30.6439 296.552 28.8814C310.93 22.375 325.497 17.1928 340.564 12.5439C342.198 12.0303 343.831 11.5167 345.515 10.9875C375.865 1.99042 405.893 -1.21076 437.406 -0.944239Z" fill="#F6F6F6"/>
<path d="M3410.23 210.28C3442.55 240.637 3461.29 279.79 3464.08 324.281C3464.29 331.832 3464.35 339.361 3464.31 346.915C3464.3 350.917 3464.3 350.917 3464.28 355C3463.67 402.949 3448.77 449.328 3413.78 483.541C3377.38 514.822 3331.6 525.103 3284.52 522.261C3246.22 518.346 3208.98 503.724 3182.4 475.027C3146.19 429.365 3134.02 375.436 3140.6 317.879C3145.38 284.734 3155.66 255.299 3176.62 228.759C3177.72 227.282 3178.82 225.804 3179.95 224.283C3204.6 193.299 3243.36 178.302 3281.55 173.323C3328.32 169.249 3374.41 178.929 3410.23 210.28ZM3242.04 265.109C3218.51 293.756 3217.48 333.703 3219.78 369.036C3222.91 396.943 3232.96 423.483 3254.31 442.411C3274.66 456.993 3294.36 459.873 3319.05 457.518C3340.14 453.413 3356.21 441.136 3368.28 423.528C3388.44 387.86 3389.99 343.548 3381.63 304.292C3374.69 280.262 3363.19 258.552 3340.82 245.838C3305.65 227.295 3267.99 236.696 3242.04 265.109Z" fill="#F6F6F6"/>
<path d="M4115.76 200.299C4145.47 228.157 4152.83 266.377 4154.44 305.639C4154.79 320.524 4154.7 335.408 4154.63 350.296C4154.62 355.033 4154.62 359.771 4154.61 364.509C4154.59 376.851 4154.55 389.194 4154.5 401.537C4154.46 414.182 4154.44 426.828 4154.42 439.473C4154.37 464.192 4154.3 488.91 4154.21 513.629C4128.57 513.629 4102.93 513.629 4076.52 513.629C4076.45 504.844 4076.45 504.844 4076.39 495.882C4076.24 476.432 4076.08 456.982 4075.9 437.533C4075.79 425.752 4075.69 413.971 4075.61 402.19C4075.53 390.8 4075.43 379.409 4075.31 368.019C4075.27 363.695 4075.24 359.371 4075.22 355.047C4076.51 303.755 4076.51 303.755 4055.39 258.838C4041.15 245.214 4027.15 241.442 4007.73 240.763C3984.36 241.417 3968.49 248.247 3951.7 264.536C3934.82 283.456 3928.8 306.956 3928.84 331.839C3928.82 333.821 3928.8 335.802 3928.77 337.844C3928.71 344.313 3928.69 350.781 3928.67 357.25C3928.63 361.768 3928.59 366.285 3928.55 370.802C3928.45 382.631 3928.38 394.459 3928.33 406.288C3928.26 418.382 3928.16 430.477 3928.07 442.571C3927.88 466.257 3927.74 489.942 3927.61 513.629C3901.98 513.629 3876.34 513.629 3849.93 513.629C3849.93 403.954 3849.93 294.279 3849.93 181.281C3875.56 181.281 3901.2 181.281 3927.61 181.281C3928.68 201.578 3928.68 201.578 3929.77 222.285C3934.05 217.299 3938.32 212.314 3942.72 207.178C3990.81 165.961 4065.24 158.366 4115.76 200.299Z" fill="#F6F6F6"/>
<path d="M3763.85 199.844C3773.74 208.566 3779.88 218.654 3785.86 230.243C3786.91 232.258 3786.91 232.258 3787.99 234.313C3802.93 265.153 3801.15 297.5 3800.92 330.906C3800.91 336.189 3800.9 341.471 3800.9 346.753C3800.87 360.572 3800.81 374.39 3800.74 388.209C3800.67 402.344 3800.64 416.478 3800.61 430.613C3800.54 458.285 3800.42 485.957 3800.29 513.628C3774.65 513.628 3749.02 513.628 3722.6 513.628C3722.58 507.161 3722.56 500.694 3722.54 494.031C3722.47 472.591 3722.35 451.151 3722.2 429.712C3722.12 416.721 3722.05 403.731 3722.02 390.74C3721.98 378.188 3721.91 365.637 3721.81 353.085C3721.77 348.312 3721.76 343.538 3721.76 338.765C3722.48 293.912 3722.48 293.912 3700.88 255.996C3683.1 241.095 3663.01 239.996 3640.6 241.707C3625.71 245.102 3615.04 250.86 3603.91 261.13C3602.49 261.13 3601.06 261.13 3599.59 261.13C3598.99 262.393 3598.39 263.656 3597.76 264.958C3595.44 269.44 3592.86 273.424 3590.02 277.586C3579.8 293.923 3577.05 310.89 3577.08 329.879C3577.06 331.882 3577.04 333.884 3577.01 335.948C3576.95 342.487 3576.93 349.025 3576.91 355.564C3576.87 360.13 3576.83 364.696 3576.79 369.262C3576.69 381.218 3576.63 393.174 3576.57 405.13C3576.5 417.355 3576.4 429.579 3576.31 441.804C3576.12 465.745 3575.98 489.687 3575.86 513.628C3550.22 513.628 3524.58 513.628 3498.17 513.628C3498.17 403.954 3498.17 294.279 3498.17 181.281C3523.8 181.281 3549.44 181.281 3575.86 181.281C3576.92 201.578 3576.92 201.578 3578.01 222.285C3580.06 219.747 3582.11 217.21 3584.22 214.596C3629.39 163.249 3710.78 159.626 3763.85 199.844Z" fill="#F6F6F6"/>
<path d="M4670.49 172.387C4710.44 171.275 4749.9 181.444 4780.58 207.717C4790.74 217.331 4798.68 227.613 4805.93 239.549C4807.43 241.961 4807.43 241.961 4808.95 244.422C4818.01 260.611 4825.36 283.402 4825.36 302.134C4799.01 302.134 4772.66 302.134 4745.51 302.134C4742.66 293.588 4739.81 285.042 4736.88 276.237C4727.67 258.363 4715.93 248.57 4697.63 241.033C4674.04 236.78 4652.8 238.49 4632.35 251.537C4612.84 266.89 4602.23 291.561 4597.55 315.513C4593.09 354.282 4594.29 396.728 4618.18 429.462C4631.89 445.014 4646.74 454.144 4667.47 456.169C4688.55 457.123 4706.11 453.999 4723.39 441.332C4734.57 431.021 4740.77 415.615 4745.51 401.407C4771.86 401.407 4798.21 401.407 4825.36 401.407C4815.18 442.101 4803.95 474.458 4768.44 498.252C4724 524.229 4674.02 528.697 4624.66 515.786C4583.77 502.499 4554.05 475.794 4533.16 438.685C4519.26 410.273 4513.76 380.534 4513.92 349.073C4513.94 346.709 4513.95 344.345 4513.96 341.91C4514.69 291.34 4532.34 246.893 4568.55 211.494C4596.63 185.717 4632.99 174.416 4670.49 172.387Z" fill="#F6F6F6"/>
<path d="M2524.9 73.3755C2550.53 73.3755 2576.17 73.3755 2602.58 73.3755C2602.58 108.984 2602.58 144.593 2602.58 181.281C2626.09 181.281 2649.59 181.281 2673.8 181.281C2673.8 201.221 2673.8 221.162 2673.8 241.708C2650.3 241.708 2626.8 241.708 2602.58 241.708C2602.72 265.008 2602.88 288.309 2603.09 311.609C2603.19 322.43 2603.27 333.25 2603.33 344.071C2603.39 354.525 2603.48 364.977 2603.58 375.43C2603.62 379.407 2603.64 383.385 2603.66 387.362C2603.68 392.956 2603.74 398.549 2603.81 404.142C2603.81 405.767 2603.8 407.393 2603.8 409.067C2604.01 420.871 2606.22 431.646 2611.22 442.411C2619.01 449.369 2626.06 449.756 2636.28 449.99C2638.7 450.061 2641.13 450.133 2643.63 450.206C2648.22 450.287 2648.22 450.287 2652.89 450.369C2667.51 450.703 2667.51 450.703 2682.43 451.043C2682.43 471.697 2682.43 492.35 2682.43 513.628C2670 513.778 2657.56 513.907 2645.13 513.984C2640.91 514.016 2636.69 514.06 2632.47 514.117C2568.7 514.948 2568.7 514.948 2546.83 494.888C2526.95 474.047 2524.53 449.579 2524.65 422.027C2524.65 420.067 2524.65 418.107 2524.65 416.087C2524.65 409.665 2524.67 403.243 2524.68 396.821C2524.69 392.346 2524.69 387.871 2524.69 383.396C2524.7 371.659 2524.72 359.923 2524.75 348.187C2524.77 336.194 2524.78 324.201 2524.79 312.208C2524.81 288.708 2524.85 265.208 2524.9 241.708C2507.8 241.708 2490.71 241.708 2473.1 241.708C2473.1 221.767 2473.1 201.826 2473.1 181.281C2495.49 180.471 2495.49 180.471 2502.54 180.249C2504.37 180.172 2506.2 180.095 2508.09 180.016C2509.96 179.948 2511.84 179.88 2513.77 179.811C2518.87 179.528 2518.87 179.528 2522.74 174.806C2523.45 170.275 2523.45 170.275 2523.43 165.005C2523.47 162.975 2523.51 160.944 2523.56 158.853C2523.58 156.656 2523.61 154.46 2523.63 152.197C2523.67 149.952 2523.71 147.706 2523.76 145.393C2523.89 138.203 2523.99 131.012 2524.09 123.821C2524.17 118.954 2524.25 114.087 2524.34 109.22C2524.55 97.2721 2524.72 85.3244 2524.9 73.3755Z" fill="#F6F6F6"/>
<path d="M4883.62 73.3755C4909.26 73.3755 4934.9 73.3755 4961.31 73.3755C4961.31 108.984 4961.31 144.593 4961.31 181.281C4984.1 181.281 5006.89 181.281 5030.37 181.281C5030.37 201.221 5030.37 221.162 5030.37 241.708C5007.58 241.708 4984.79 241.708 4961.31 241.708C4961.45 266.246 4961.61 290.784 4961.82 315.321C4961.92 326.716 4962 338.11 4962.06 349.504C4962.11 360.503 4962.2 371.501 4962.31 382.499C4962.35 386.693 4962.37 390.887 4962.38 395.08C4962.41 400.96 4962.47 406.838 4962.54 412.717C4962.53 414.446 4962.53 416.176 4962.53 417.957C4962.7 428.375 4964.28 435.499 4969.94 444.569C4976.91 449.847 4984.1 449.546 4992.64 449.779C4995.07 449.856 4997.5 449.933 5000.01 450.012C5004.62 450.122 5004.62 450.122 5009.33 450.234C5019.12 450.501 5028.91 450.768 5039 451.043C5039 471.697 5039 492.35 5039 513.628C5026.57 513.778 5014.13 513.907 5001.7 513.984C4997.48 514.016 4993.26 514.06 4989.04 514.117C4924.73 514.955 4924.73 514.955 4901.5 492.84C4885.67 475.58 4883.29 457.131 4883.38 434.522C4883.38 432.437 4883.38 430.351 4883.38 428.203C4883.38 421.325 4883.39 414.447 4883.41 407.569C4883.42 402.795 4883.42 398.02 4883.42 393.245C4883.43 380.689 4883.45 368.134 4883.47 355.578C4883.5 342.761 4883.51 329.944 4883.52 317.127C4883.54 291.987 4883.58 266.847 4883.62 241.708C4866.53 241.708 4849.44 241.708 4831.83 241.708C4831.83 221.767 4831.83 201.826 4831.83 181.281C4847.5 180.568 4863.16 179.856 4879.31 179.123C4880.81 171.623 4881.76 165.821 4881.91 158.39C4881.95 156.49 4881.99 154.59 4882.04 152.632C4882.07 150.61 4882.11 148.589 4882.15 146.507C4882.19 144.414 4882.24 142.322 4882.28 140.166C4882.42 133.504 4882.55 126.842 4882.68 120.179C4882.77 115.654 4882.87 111.128 4882.96 106.603C4883.19 95.5271 4883.41 84.4514 4883.62 73.3755Z" fill="#F6F6F6"/>
<path d="M2045.81 53.9526C2071.45 53.9526 2097.09 53.9526 2123.5 53.9526C2123.5 205.646 2123.5 357.339 2123.5 513.629C2097.86 513.629 2072.23 513.629 2045.81 513.629C2045.81 361.935 2045.81 210.242 2045.81 53.9526Z" fill="#F6F6F6"/>
<path d="M1916.33 53.9526C1941.97 53.9526 1967.61 53.9526 1994.02 53.9526C1994.02 205.646 1994.02 357.339 1994.02 513.629C1968.38 513.629 1942.74 513.629 1916.33 513.629C1916.33 361.935 1916.33 210.242 1916.33 53.9526Z" fill="#F6F6F6"/>
</g>
<defs>
<clipPath id="clip0_6801_89987">
<rect width="5039" height="546" fill="white"/>
</clipPath>
</defs>
</svg>
