<?xml version="1.0" encoding="UTF-8"?>
<svg id="Layer_1" xmlns="http://www.w3.org/2000/svg" viewBox="0 0 1000 628.71">
  <g>
    <path d="M414.45,484.07h-162.82v-48.38h53.58v-242.67h-53.58v-48.38h162.82v48.38h-55.4v242.67h55.4v48.38Z"/>
    <path d="M682.21,484.07h-68.15l-87.91-137.33h-24.45v137.33h-53.84V144.64h111.84c37.28,0,66.23,8.54,86.87,25.62,20.63,17.08,30.95,42.35,30.95,75.82,0,14.91-2.3,28.05-6.89,39.4-4.6,11.36-11.1,21.11-19.51,29.26-8.42,8.15-18.21,14.61-29.39,19.38-11.18,4.77-23.28,8.02-36.28,9.75l96.76,140.19ZM623.69,245.04c0-17.34-5.69-30.34-17.04-39.01-11.36-8.67-27.01-13-46.95-13h-58v104.82h58c19.93,0,35.59-4.33,46.95-13,11.35-8.67,17.04-21.93,17.04-39.79Z"/>
    <path d="M913.84,484.07h-216.92V144.64h53.84v291.05h163.08v48.38Z"/>
  </g>
  <path d="M151.44,444.91v-21.76h-21.76v-10.88h-21.76v-10.88h-10.88v-10.88h-10.88v-21.76h32.64v10.88h10.88v10.88h21.76v-65.27h-10.88v-10.88h-32.64v-10.88h-10.88v-10.88h-10.88v-54.4h10.88v-10.88h10.88v-10.88h10.88v-10.88h32.64v-21.76h21.76v21.76h21.76v10.88h10.88v10.88h10.88v21.76h-32.64v-10.88h-10.88v65.27h21.76v10.88h21.76v21.76h10.88v54.4h-10.88v10.88h-10.88v10.88h-21.76v10.88h-10.88v21.76h-21.76ZM151.44,292.6v-54.4h-21.76v10.88h-10.88v32.64h21.76v10.88h10.88ZM184.08,390.51v-10.88h10.88v-32.64h-10.88v-10.88h-10.88v54.4h10.88Z"/>
</svg>