<?xml version="1.0" encoding="UTF-8"?>
<svg id="Layer_1" xmlns="http://www.w3.org/2000/svg" viewBox="0 0 1000 760.42">
  <g>
    <path d="M862.38,590.54v68.69l-68.69-68.69h-10.26v80.89h9.7v-68.71l68.7,68.7h10.25v-80.89h-9.7Z"/>
    <path d="M444.56,645.85l-14.91-14.87,40.57-40.45h-87.36v80.89h8.84v-65.84l46.63,46.51-19.32,19.32h12.74l12.96-12.96,12.99,12.96h12.49l-19.25-19.21,16.79-16.79h32.71v35.99h9.7v-80.88h-10.26l-55.33,55.33h0ZM476.64,626.52l23.81-23.81v23.81h-23.81ZM448.86,599.35l-25.46,25.4-25.45-25.4h50.91Z"/>
    <path d="M250.12,590.54h-87.36v80.89h8.84v-65.84l66,65.84h12.49l-40.52-40.43,40.55-40.46ZM228.77,599.36l-25.46,25.4-25.45-25.4h50.91Z"/>
    <path d="M526.66,602.38c-15.8,15.8-15.8,41.41,0,57.2,7.58,7.58,17.88,11.85,28.6,11.85h37.8v-8.82h-37.8c-8.38,0-16.43-3.34-22.36-9.26-12.35-12.35-12.35-32.37,0-44.72,5.93-5.93,13.97-9.26,22.36-9.26h37.8v-8.82h-37.8c-10.72,0-21.02,4.27-28.6,11.85h0Z"/>
    <path d="M679.78,590.54h-78.15v9.01h28.2l-30.94,30.93v40.94h9.01v-37.21l34.67-34.67h37.21v-9.01Z"/>
    <path d="M693.88,590.54l-39.95,39.95v40.94h9.01v-37.21l43.69-43.68h-12.75Z"/>
    <path d="M736.01,589.39c-22.97,0-41.59,18.62-41.59,41.59s18.62,41.59,41.59,41.59,41.59-18.62,41.59-41.59-18.62-41.59-41.59-41.59ZM736.01,663.59c-18.02,0-32.61-14.6-32.61-32.61s14.6-32.61,32.61-32.61,32.61,14.6,32.61,32.61-14.6,32.61-32.61,32.61Z"/>
    <path d="M244.37,626.57l27.2-27.21h35.95v-8.82h-39.61l-40.43,40.44,40.43,40.44h39.61v-8.82h-35.95l-27.2-27.21h53.95l36.01,36.03h12.49l-36.03-36.03h63.15v-8.82h-63.15l27.2-27.21h35.96v-8.82h-39.61l-36.01,36.03h-53.96Z"/>
  </g>
  <g>
    <path d="M337.16,489.39h-174.41v-51.82h57.39V177.63h-57.39v-51.82h174.41v51.82h-59.34v259.94h59.34v51.82Z"/>
    <path d="M623.98,489.39h-72.99l-94.17-147.1h-26.19v147.1h-57.67V125.81h119.8c39.93,0,70.94,9.15,93.05,27.44,22.1,18.29,33.15,45.37,33.15,81.21,0,15.97-2.47,30.04-7.38,42.21-4.92,12.17-11.89,22.61-20.9,31.34-9.02,8.73-19.5,15.65-31.48,20.76-11.98,5.11-24.94,8.59-38.87,10.45l103.64,150.17ZM561.29,233.35c0-18.57-6.09-32.5-18.25-41.79-12.17-9.29-28.94-13.93-50.29-13.93h-62.13v112.28h62.13c21.35,0,38.12-4.64,50.29-13.93,12.16-9.29,18.25-23.5,18.25-42.63Z"/>
    <path d="M872.08,489.39h-232.36V125.81h57.67v311.76h174.68v51.82Z"/>
  </g>
</svg>