<?xml version="1.0" encoding="UTF-8"?>
<svg id="Layer_1" xmlns="http://www.w3.org/2000/svg" viewBox="0 0 1000 1000">
  <g>
    <path d="M416.49,948.32c-218.29,0-396.53-200.05-397.6-446.62-.52-119.59,40.22-232.18,114.72-317.04C208.22,99.67,307.75,52.65,413.86,52.28c.41,0,.84,0,1.26,0,218.29,0,396.53,200.05,397.6,446.62.52,119.58-40.22,232.18-114.72,317.04-74.61,85-174.14,132.01-280.25,132.38-.41,0-.85,0-1.26,0ZM415.12,60.01c-.42,0-.81,0-1.23,0-103.86.37-201.34,46.45-274.47,129.75C66.18,273.21,26.12,383.97,26.63,501.67c1.05,242.3,175.84,438.9,389.86,438.91.42,0,.82,0,1.23,0,103.86-.37,201.34-46.45,274.47-129.75,73.25-83.44,113.31-194.21,112.79-311.9-1.05-242.3-175.84-438.92-389.86-438.92Z"/>
    <path d="M458.58,948.17c-218.29,0-396.53-200.05-397.6-446.62-.52-119.58,40.22-232.18,114.72-317.04C250.32,99.52,349.85,52.5,455.96,52.13c.41,0,.85,0,1.26,0,218.29,0,396.53,200.05,397.6,446.62.52,119.58-40.22,232.18-114.72,317.04-74.61,85-174.14,132.01-280.26,132.38-.41,0-.85,0-1.26,0ZM457.22,59.87c-.42,0-.82,0-1.23,0-103.86.37-201.34,46.45-274.47,129.75-73.25,83.44-113.31,194.21-112.79,311.9,1.05,242.3,175.84,438.9,389.86,438.91.42,0,.82,0,1.23,0,103.86-.37,201.34-46.45,274.47-129.75,73.25-83.44,113.31-194.21,112.79-311.9-1.05-242.3-175.84-438.91-389.86-438.91Z"/>
    <path d="M500.69,948.02c-218.29.01-396.53-200.05-397.6-446.62-.52-119.58,40.22-232.18,114.72-317.04C292.42,99.37,391.95,52.35,498.06,51.98c.41,0,.85,0,1.26,0,218.29,0,396.53,200.05,397.6,446.62.52,119.59-40.22,232.18-114.72,317.04-74.61,85-174.14,132.01-280.26,132.39-.41,0-.84,0-1.26,0ZM499.32,59.72c-.42,0-.82,0-1.23,0-103.86.37-201.34,46.45-274.47,129.75-73.25,83.44-113.31,194.21-112.79,311.9,1.05,242.3,175.84,438.9,389.86,438.92.42,0,.81,0,1.23,0,103.86-.37,201.34-46.45,274.47-129.75,73.25-83.44,113.31-194.21,112.79-311.9-1.05-242.3-175.84-438.91-389.86-438.91Z"/>
    <path d="M542.78,947.88c-218.29,0-396.53-200.05-397.6-446.62-.52-119.58,40.22-232.18,114.72-317.04,74.61-85,174.14-132.01,280.26-132.38.41,0,.85,0,1.26,0,218.29,0,396.53,200.05,397.6,446.62.52,119.58-40.22,232.18-114.72,317.04-74.61,85-174.14,132.01-280.25,132.39-.41,0-.84,0-1.26,0ZM541.42,59.57c-.42,0-.82,0-1.23,0-103.86.37-201.34,46.45-274.47,129.75-73.25,83.44-113.31,194.21-112.79,311.9,1.05,242.3,175.84,438.9,389.86,438.92.42,0,.81,0,1.23,0,103.86-.37,201.34-46.45,274.47-129.75,73.25-83.44,113.31-194.21,112.79-311.9-1.05-242.3-175.84-438.92-389.86-438.92Z"/>
    <path d="M584.88,947.73c-218.29,0-396.53-200.05-397.6-446.62-.52-119.58,40.22-232.18,114.72-317.04,74.61-85,174.14-132.01,280.26-132.39.41,0,.85,0,1.26,0,218.29,0,396.53,200.05,397.6,446.62.52,119.58-40.22,232.18-114.72,317.04-74.61,85-174.14,132.01-280.26,132.39-.41,0-.84,0-1.26,0ZM583.51,59.42c-.42,0-.82,0-1.23,0-103.86.37-201.34,46.45-274.47,129.75-73.25,83.44-113.31,194.21-112.79,311.9,1.05,242.3,175.84,438.9,389.86,438.92.42,0,.81,0,1.23,0,103.86-.37,201.34-46.45,274.47-129.75,73.25-83.44,113.31-194.21,112.79-311.9-1.05-242.3-175.84-438.92-389.86-438.92Z"/>
  </g>
  <g>
    <g>
      <path d="M451.7,595.82h-91.92v-27.31h30.25v-137.01h-30.25v-27.31h91.92v27.31h-31.28v137.01h31.28v27.31Z"/>
      <path d="M602.87,595.82h-38.47l-49.63-77.53h-13.8v77.53h-30.4v-191.63h63.14c21.05,0,37.39,4.82,49.05,14.46,11.65,9.64,17.47,23.91,17.47,42.81,0,8.42-1.3,15.83-3.89,22.25-2.59,6.41-6.27,11.92-11.01,16.52-4.75,4.6-10.28,8.25-16.59,10.94-6.31,2.69-13.14,4.53-20.48,5.51l54.63,79.15ZM569.83,460.87c0-9.79-3.21-17.13-9.62-22.03-6.41-4.89-15.25-7.34-26.51-7.34h-32.75v59.18h32.75c11.25,0,20.09-2.45,26.51-7.34,6.41-4.89,9.62-12.38,9.62-22.47Z"/>
      <path d="M733.64,595.82h-122.47v-191.63h30.4v164.32h92.07v27.31Z"/>
    </g>
    <path d="M303.21,573.7v-12.28h-12.28v-6.14h-12.28v-6.14h-6.14v-6.14h-6.14v-12.28h18.43v6.14h6.14v6.14h12.28v-36.85h-6.14v-6.14h-18.43v-6.14h-6.14v-6.14h-6.14v-30.71h6.14v-6.14h6.14v-6.14h6.14v-6.14h18.43v-12.28h12.28v12.28h12.28v6.14h6.14v6.14h6.14v12.28h-18.43v-6.14h-6.14v36.85h12.28v6.14h12.28v12.28h6.14v30.71h-6.14v6.14h-6.14v6.14h-12.28v6.14h-6.14v12.28h-12.28ZM303.21,487.72v-30.71h-12.28v6.14h-6.14v18.43h12.28v6.14h6.14ZM321.64,542.99v-6.14h6.14v-18.43h-6.14v-6.14h-6.14v30.71h6.14Z"/>
  </g>
</svg>