<?xml version="1.0" encoding="UTF-8"?>
<svg id="Layer_1" xmlns="http://www.w3.org/2000/svg" viewBox="0 0 1000 734.63">
  <g>
    <path d="M919.52,575.02v68.63l-68.63-68.63h-10.25v80.82h9.7v-68.65l68.64,68.64h10.24v-80.81h-9.7Z"/>
    <path d="M502.08,630.29l-14.89-14.85,40.53-40.41h-87.28v80.82h8.83v-65.78l46.59,46.47-19.3,19.3h12.73l12.95-12.95,12.98,12.95h12.48l-19.23-19.19,16.78-16.78h32.68v35.96h9.7v-80.8h-10.25l-55.28,55.28h0ZM534.13,610.97l23.78-23.78v23.78h-23.78ZM506.38,583.83l-25.44,25.37-25.43-25.37h50.87Z"/>
    <path d="M307.82,575.02h-87.28v80.82h8.83v-65.78l65.94,65.78h12.48l-40.49-40.4,40.51-40.42ZM286.49,583.84l-25.44,25.37-25.43-25.37h50.87Z"/>
    <path d="M584.11,586.86c-15.78,15.78-15.78,41.37,0,57.15,7.58,7.58,17.86,11.84,28.57,11.84h37.77v-8.82h-37.77c-8.38,0-16.42-3.33-22.34-9.26-12.34-12.34-12.34-32.34,0-44.68,5.92-5.92,13.96-9.26,22.34-9.26h37.77v-8.81h-37.77c-10.71,0-21,4.26-28.57,11.84h0Z"/>
    <path d="M737.09,575.02h-78.08v9h28.18l-30.91,30.91v40.9h9v-37.17l34.64-34.64h37.18v-9Z"/>
    <path d="M751.17,575.02l-39.92,39.91v40.9h9v-37.17l43.65-43.64h-12.74Z"/>
    <path d="M793.27,573.88c-22.95,0-41.55,18.6-41.55,41.55s18.6,41.55,41.55,41.55,41.55-18.6,41.55-41.55-18.6-41.55-41.55-41.55ZM793.27,648.01c-18,0-32.58-14.58-32.58-32.58s14.58-32.58,32.58-32.58,32.58,14.58,32.58,32.58-14.58,32.58-32.58,32.58Z"/>
    <path d="M302.07,611.02l27.17-27.18h35.92v-8.82h-39.57l-40.39,40.41,40.39,40.41h39.57v-8.82h-35.92l-27.17-27.18h53.9l35.98,36h12.48l-36-36h63.09v-8.82h-63.09l27.17-27.18h35.92v-8.82h-39.57l-35.98,36h-53.91Z"/>
  </g>
  <g>
    <g>
      <path d="M394.78,473.97h-174.25v-51.77h57.34V162.5h-57.34v-51.77h174.25v51.77h-59.29v259.7h59.29v51.77Z"/>
      <path d="M681.33,473.97h-72.93l-94.08-146.97h-26.16v146.97h-57.62V110.72h119.69c39.9,0,70.88,9.14,92.97,27.42,22.08,18.28,33.12,45.32,33.12,81.14,0,15.96-2.47,30.02-7.38,42.17-4.92,12.15-11.88,22.59-20.88,31.31-9.01,8.72-19.48,15.63-31.45,20.74-11.97,5.1-24.91,8.58-38.83,10.44l103.55,150.03ZM618.71,218.17c0-18.56-6.09-32.47-18.23-41.75-12.15-9.28-28.91-13.92-50.24-13.92h-62.07v112.17h62.07c21.33,0,38.09-4.64,50.24-13.92,12.15-9.28,18.23-23.47,18.23-42.59Z"/>
      <path d="M929.21,473.97h-232.14V110.72h57.62v311.47h174.52v51.77Z"/>
    </g>
    <path d="M113.32,432.06v-23.28h-23.28v-11.64h-23.28v-11.64h-11.64v-11.64h-11.64v-23.28h34.93v11.64h11.64v11.64h23.28v-69.85h-11.64v-11.64h-34.93v-11.64h-11.64v-11.64h-11.64v-58.21h11.64v-11.64h11.64v-11.64h11.64v-11.64h34.93v-23.28h23.28v23.28h23.28v11.64h11.64v11.64h11.64v23.28h-34.93v-11.64h-11.64v69.85h23.28v11.64h23.28v23.28h11.64v58.21h-11.64v11.64h-11.64v11.64h-23.28v11.64h-11.64v23.28h-23.28ZM113.32,269.06v-58.21h-23.28v11.64h-11.64v34.93h23.28v11.64h11.64ZM148.25,373.84v-11.64h11.64v-34.93h-11.64v-11.64h-11.64v58.21h11.64Z"/>
  </g>
</svg>