<?xml version="1.0" encoding="UTF-8"?>
<svg id="Layer_1" xmlns="http://www.w3.org/2000/svg" viewBox="0 0 1000 1000">
  <g>
    <path d="M59.11,417.87C59.11,203.2,255.85,27.92,498.33,26.87c117.6-.51,228.33,39.56,311.78,112.82,83.59,73.38,129.82,171.26,130.19,275.61,0,.41,0,.83,0,1.24,0,214.67-196.74,389.96-439.21,391.01-117.6.51-228.33-39.55-311.78-112.82-83.59-73.38-129.82-171.26-130.19-275.61,0-.41,0-.83,0-1.24ZM932.69,416.53c0-.41,0-.8,0-1.21-.36-102.14-45.68-198-127.6-269.92-82.06-72.03-190.99-111.43-306.73-110.92-238.28,1.04-431.62,172.92-431.63,383.39,0,.41,0,.8,0,1.21.36,102.14,45.68,198,127.6,269.91,82.06,72.03,190.98,111.43,306.72,110.92,238.28-1.04,431.64-172.92,431.64-383.4Z"/>
    <path d="M59.26,459.27c0-214.67,196.73-389.95,439.21-391.01,117.6-.51,228.33,39.55,311.78,112.82,83.59,73.38,129.82,171.26,130.19,275.61,0,.41,0,.83,0,1.24,0,214.67-196.73,389.95-439.21,391.01-117.6.51-228.33-39.55-311.78-112.82-83.59-73.38-129.82-171.26-130.19-275.61,0-.41,0-.83,0-1.24ZM932.83,457.93c0-.41,0-.8,0-1.21-.36-102.14-45.68-198-127.6-269.91-82.06-72.03-190.98-111.43-306.72-110.92-238.28,1.04-431.62,172.92-431.63,383.39,0,.41,0,.8,0,1.21.36,102.14,45.68,198,127.6,269.91,82.06,72.03,190.98,111.43,306.72,110.92,238.28-1.04,431.63-172.92,431.63-383.39Z"/>
    <path d="M59.4,500.67c0-214.67,196.74-389.96,439.21-391.01,117.6-.51,228.33,39.55,311.78,112.82,83.59,73.38,129.82,171.26,130.19,275.61,0,.41,0,.83,0,1.24,0,214.67-196.73,389.95-439.21,391.01-117.6.51-228.33-39.55-311.78-112.82-83.59-73.38-129.82-171.26-130.19-275.61,0-.41,0-.83,0-1.24ZM932.98,499.33c0-.41,0-.8,0-1.21-.36-102.14-45.68-198-127.6-269.91-82.06-72.03-190.98-111.43-306.72-110.92-238.28,1.04-431.62,172.92-431.64,383.4,0,.41,0,.8,0,1.21.36,102.14,45.68,198,127.6,269.91,82.06,72.03,190.99,111.43,306.73,110.92,238.28-1.03,431.63-172.92,431.63-383.39Z"/>
    <path d="M59.55,542.08c0-214.67,196.74-389.96,439.21-391.01,117.6-.51,228.33,39.56,311.78,112.82,83.59,73.38,129.82,171.26,130.19,275.61,0,.41,0,.83,0,1.24,0,214.67-196.73,389.95-439.21,391.01-117.6.51-228.33-39.55-311.78-112.82-83.59-73.38-129.82-171.26-130.19-275.61,0-.41,0-.83,0-1.24ZM933.13,540.73c0-.41,0-.8,0-1.21-.36-102.14-45.68-198-127.6-269.92-82.06-72.03-190.98-111.43-306.72-110.92-238.28,1.04-431.62,172.92-431.64,383.4,0,.41,0,.8,0,1.21.36,102.14,45.68,198,127.6,269.91,82.06,72.03,190.99,111.43,306.72,110.92,238.28-1.04,431.64-172.92,431.64-383.39Z"/>
    <path d="M59.7,583.47c0-214.67,196.74-389.96,439.21-391.01,117.6-.51,228.33,39.55,311.78,112.82,83.59,73.38,129.82,171.26,130.19,275.61,0,.41,0,.83,0,1.24,0,214.67-196.73,389.95-439.21,391.01-117.6.51-228.33-39.55-311.78-112.82-83.59-73.38-129.82-171.26-130.19-275.61,0-.41,0-.83,0-1.24ZM933.27,582.13c0-.41,0-.8,0-1.21-.36-102.14-45.68-198-127.6-269.91-82.06-72.03-190.99-111.43-306.72-110.92-238.28,1.04-431.62,172.92-431.64,383.4,0,.41,0,.8,0,1.21.36,102.14,45.68,198,127.6,269.91,82.06,72.03,190.99,111.43,306.72,110.92,238.28-1.04,431.64-172.92,431.64-383.39Z"/>
  </g>
  <g>
    <g>
      <path d="M446.32,606.5h-102.17v-30.36h33.62v-152.28h-33.62v-30.36h102.17v30.36h-34.76v152.28h34.76v30.36Z"/>
      <path d="M614.34,606.5h-42.76l-55.17-86.18h-15.34v86.18h-33.79v-212.99h70.18c23.39,0,41.56,5.36,54.51,16.08,12.95,10.72,19.42,26.58,19.42,47.58,0,9.36-1.45,17.6-4.33,24.73-2.88,7.13-6.96,13.25-12.24,18.36-5.28,5.11-11.42,9.17-18.44,12.16-7.02,2.99-14.61,5.03-22.77,6.12l60.72,87.97ZM577.62,456.5c0-10.88-3.57-19.04-10.69-24.48-7.13-5.44-16.95-8.16-29.46-8.16h-36.4v65.78h36.4c12.51,0,22.33-2.72,29.46-8.16,7.12-5.44,10.69-13.76,10.69-24.97Z"/>
      <path d="M759.69,606.5h-136.12v-212.99h33.79v182.64h102.33v30.36Z"/>
    </g>
    <path d="M281.27,581.92v-13.65h-13.65v-6.83h-13.65v-6.83h-6.83v-6.83h-6.83v-13.65h20.48v6.83h6.83v6.83h13.65v-40.96h-6.83v-6.83h-20.48v-6.83h-6.83v-6.83h-6.83v-34.13h6.83v-6.83h6.83v-6.83h6.83v-6.83h20.48v-13.65h13.65v13.65h13.65v6.83h6.83v6.83h6.83v13.65h-20.48v-6.83h-6.83v40.96h13.65v6.83h13.65v13.65h6.83v34.13h-6.83v6.83h-6.83v6.83h-13.65v6.83h-6.83v13.65h-13.65ZM281.27,486.35v-34.13h-13.65v6.83h-6.83v20.48h13.65v6.83h6.83ZM301.75,547.79v-6.83h6.83v-20.48h-6.83v-6.83h-6.83v34.13h6.83Z"/>
  </g>
</svg>