<?xml version="1.0" encoding="UTF-8"?>
<svg id="Layer_1" xmlns="http://www.w3.org/2000/svg" viewBox="0 0 1000 1000">
  <g>
    <g>
      <path d="M432.8,762.83c-175.66,0-319.08-160.98-319.94-359.39-.42-96.23,32.37-186.83,92.31-255.12,60.04-68.4,140.13-106.23,225.52-106.53.33,0,.68,0,1.01,0,175.66,0,319.08,160.98,319.94,359.39.42,96.23-32.37,186.83-92.31,255.12-60.04,68.4-140.13,106.23-225.52,106.53-.33,0-.68,0-1.01,0ZM431.7,48.02c-.34,0-.65,0-.99,0-83.58.29-162.01,37.37-220.86,104.41-58.94,67.14-91.17,156.28-90.76,250.98.85,194.97,141.49,353.17,313.71,353.19.34,0,.66,0,.99,0,83.58-.29,162.01-37.37,220.86-104.41,58.94-67.14,91.18-156.27,90.76-250.98-.85-194.97-141.5-353.19-313.72-353.19Z"/>
      <path d="M466.67,762.71c-175.66,0-319.08-160.98-319.94-359.39-.42-96.23,32.37-186.83,92.31-255.12,60.04-68.4,140.13-106.23,225.52-106.53.33,0,.68,0,1.01,0,175.66,0,319.08,160.98,319.94,359.39.42,96.23-32.37,186.83-92.31,255.12-60.04,68.4-140.13,106.23-225.52,106.53-.33,0-.68,0-1.01,0ZM465.58,47.91c-.34,0-.66,0-.99,0-83.58.29-162.01,37.37-220.86,104.41-58.94,67.14-91.18,156.27-90.76,250.98.85,194.97,141.49,353.17,313.71,353.19.34,0,.66,0,.99,0,83.58-.29,162.01-37.37,220.86-104.41,58.94-67.14,91.18-156.27,90.76-250.98-.85-194.97-141.49-353.19-313.71-353.19Z"/>
      <path d="M500.55,762.59c-175.66,0-319.08-160.98-319.94-359.39-.42-96.23,32.37-186.83,92.31-255.12,60.04-68.4,140.13-106.23,225.52-106.53.33,0,.68,0,1.01,0,175.66,0,319.08,160.98,319.94,359.39.42,96.23-32.37,186.83-92.31,255.12-60.04,68.4-140.13,106.23-225.52,106.53-.33,0-.68,0-1.01,0ZM499.45,47.79c-.34,0-.66,0-.99,0-83.58.29-162.01,37.37-220.86,104.41-58.94,67.14-91.18,156.27-90.76,250.98.85,194.97,141.5,353.17,313.72,353.19.34,0,.65,0,.99,0,83.58-.29,162.01-37.37,220.86-104.41,58.94-67.14,91.18-156.28,90.76-250.98-.85-194.97-141.49-353.19-313.71-353.19Z"/>
      <path d="M534.43,762.47c-175.66,0-319.08-160.98-319.95-359.39-.42-96.23,32.37-186.83,92.31-255.12,60.04-68.4,140.13-106.23,225.52-106.53.33,0,.68,0,1.01,0,175.66,0,319.08,160.98,319.94,359.39.42,96.23-32.37,186.83-92.31,255.11-60.04,68.4-140.13,106.23-225.52,106.53-.33,0-.68,0-1.01,0ZM533.33,47.67c-.34,0-.66,0-.99,0-83.58.29-162.01,37.37-220.86,104.41-58.94,67.14-91.17,156.27-90.76,250.98.85,194.97,141.5,353.17,313.72,353.19.34,0,.65,0,.99,0,83.58-.29,162.01-37.37,220.86-104.41,58.94-67.14,91.18-156.28,90.76-250.98-.85-194.98-141.49-353.19-313.71-353.19Z"/>
      <path d="M568.3,762.35c-175.66,0-319.08-160.98-319.94-359.39-.42-96.23,32.37-186.83,92.31-255.11,60.04-68.4,140.13-106.23,225.52-106.53.33,0,.68,0,1.01,0,175.66,0,319.08,160.98,319.94,359.39.42,96.23-32.37,186.83-92.31,255.11-60.04,68.4-140.13,106.23-225.52,106.53-.33,0-.68,0-1.01,0ZM567.2,47.55c-.34,0-.66,0-.99,0-83.58.29-162.01,37.37-220.86,104.41-58.94,67.14-91.18,156.28-90.76,250.98.85,194.97,141.5,353.17,313.72,353.19.34,0,.65,0,.99,0,83.58-.29,162.01-37.37,220.86-104.41,58.94-67.14,91.18-156.28,90.76-250.98-.85-194.98-141.49-353.19-313.71-353.19Z"/>
    </g>
    <g>
      <g>
        <path d="M461.13,479.18h-73.97v-21.98h24.34v-110.25h-24.34v-21.98h73.97v21.98h-25.17v110.25h25.17v21.98Z"/>
        <path d="M582.78,479.18h-30.96l-39.94-62.39h-11.11v62.39h-24.46v-154.2h50.81c16.94,0,30.09,3.88,39.47,11.64,9.37,7.76,14.06,19.24,14.06,34.44,0,6.77-1.05,12.74-3.13,17.9-2.09,5.16-5.04,9.59-8.86,13.29-3.82,3.7-8.27,6.64-13.35,8.8-5.08,2.17-10.58,3.64-16.48,4.43l43.96,63.69ZM556.19,370.58c0-7.88-2.58-13.79-7.74-17.72-5.16-3.94-12.27-5.91-21.33-5.91h-26.35v47.62h26.35c9.06,0,16.17-1.97,21.33-5.91,5.16-3.94,7.74-9.97,7.74-18.08Z"/>
        <path d="M688.01,479.18h-98.55v-154.2h24.46v132.23h74.09v21.98Z"/>
      </g>
      <path d="M341.65,461.38v-9.88h-9.88v-4.94h-9.88v-4.94h-4.94v-4.94h-4.94v-9.88h14.83v4.94h4.94v4.94h9.88v-29.65h-4.94v-4.94h-14.83v-4.94h-4.94v-4.94h-4.94v-24.71h4.94v-4.94h4.94v-4.94h4.94v-4.94h14.83v-9.88h9.88v9.88h9.88v4.94h4.94v4.94h4.94v9.88h-14.83v-4.94h-4.94v29.65h9.88v4.94h9.88v9.88h4.94v24.71h-4.94v4.94h-4.94v4.94h-9.88v4.94h-4.94v9.88h-9.88ZM341.65,392.19v-24.71h-9.88v4.94h-4.94v14.83h9.88v4.94h4.94ZM356.47,436.67v-4.94h4.94v-14.83h-4.94v-4.94h-4.94v24.71h4.94Z"/>
    </g>
  </g>
  <g>
    <path d="M876.55,869.13v74.98l-74.98-74.98h-11.2v88.3h10.59v-75l74.99,74.99h11.19v-88.29h-10.59Z"/>
    <path d="M420.47,929.52l-16.27-16.23,44.28-44.16h-95.36v88.3h9.65v-71.87l50.9,50.77-21.09,21.09h13.91l14.15-14.15,14.18,14.15h13.64l-21.01-20.97,18.33-18.33h35.71v39.29h10.59v-88.29h-11.2l-60.39,60.39h0ZM455.48,908.41l25.99-25.99v25.99h-25.99ZM425.16,878.76l-27.79,27.72-27.78-27.72h55.58Z"/>
    <path d="M208.21,869.13h-95.36v88.3h9.65v-71.87l72.05,71.87h13.64l-44.24-44.14,44.26-44.16ZM184.91,878.76l-27.79,27.72-27.78-27.72h55.58Z"/>
    <path d="M510.09,882.06c-17.24,17.24-17.24,45.2,0,62.44,8.28,8.28,19.51,12.94,31.22,12.94h41.26v-9.63h-41.26c-9.15,0-17.94-3.64-24.41-10.11-13.48-13.48-13.48-35.33,0-48.82,6.47-6.47,15.25-10.11,24.41-10.11h41.26v-9.62h-41.26c-11.71,0-22.94,4.66-31.22,12.94h0Z"/>
    <path d="M677.23,869.13h-85.31v9.84h30.78l-33.78,33.77v44.69h9.84v-40.61l37.84-37.84h40.62v-9.84Z"/>
    <path d="M692.62,869.13l-43.61,43.6v44.69h9.84v-40.61l47.69-47.68h-13.91Z"/>
    <path d="M738.61,867.88c-25.08,0-45.4,20.32-45.4,45.4s20.32,45.4,45.4,45.4,45.4-20.32,45.4-45.4-20.32-45.4-45.4-45.4ZM738.61,948.88c-19.67,0-35.6-15.94-35.6-35.6s15.94-35.6,35.6-35.6,35.6,15.94,35.6,35.6-15.94,35.6-35.6,35.6Z"/>
    <path d="M201.94,908.46l29.69-29.7h39.24v-9.63h-43.24l-44.13,44.15,44.13,44.15h43.24v-9.63h-39.24l-29.69-29.7h58.89l39.31,39.33h13.64l-39.33-39.33h68.93v-9.63h-68.93l29.69-29.7h39.25v-9.63h-43.24l-39.31,39.33h-58.9Z"/>
  </g>
</svg>