<svg width="196" height="107" viewBox="0 0 196 107" fill="none" xmlns="http://www.w3.org/2000/svg">
<path d="M192.304 40.8273C181.778 17.3139 148.272 5.75438 124.575 2.08811C95.0951 -2.47779 61.313 0.153301 34.0615 12.8713C21.7123 18.6325 9.86653 26.914 3.51398 39.2253C-1.38393 48.7145 -1.13228 59.3929 4.08479 68.7095C10.468 80.115 22.3936 88.4273 34.0799 93.8928C71.7349 111.516 127.993 111.207 164.967 91.9272C175.96 86.1967 187.56 77.1204 192.532 65.493C195.963 57.4642 195.877 48.8069 192.304 40.8273ZM62.7431 30.2907C60.4353 32.6198 57.6242 33.5872 54.3037 34.5423C53.825 34.6779 53.7943 35.3557 54.2607 35.5282C56.2125 36.2615 58.0477 36.8345 59.6067 38.1346C61.0798 39.367 62.3994 41.4374 62.0925 43.4461L58.4774 66.9719C57.0779 76.0975 36.3079 82.7091 27.5432 73.6636C25.4011 71.4515 24.9776 68.6171 25.8001 65.7765L32.3122 43.2921C32.6314 42.2014 33.7853 40.7596 34.5586 40.0325C37.1733 37.5678 40.1931 36.5511 43.5443 35.5467C44.0967 35.3803 44.1212 34.6101 43.5872 34.4067C41.8687 33.7536 40.3649 33.2175 39.0883 32.2624C36.535 30.3584 36.1053 27.1481 38.1615 24.7327C44.1151 17.7452 60.3064 17.4618 64.1179 24.0857C65.3762 26.2732 64.3512 28.6516 62.7369 30.2845L62.7431 30.2907ZM125.814 46.5948C125.133 48.5604 123.286 50.3473 121.358 51.2901C114.846 54.4757 107.733 54.2293 100.772 50.7602C100.214 50.4829 99.5633 50.8896 99.5633 51.5119L99.502 67.1198C99.4713 74.9576 83.2063 82.3948 71.2745 74.8774C68.4696 73.109 66.2355 69.9788 66.6405 66.7316L69.6051 42.8484C69.9365 40.1619 73.0974 38.11 75.35 37.044C81.8437 33.9631 90.7434 34.1233 96.7523 38.757C97.2985 39.1821 98.0596 39.176 98.612 38.757C105.271 33.6427 116.08 33.9261 122.463 38.4612C125.133 40.359 126.938 43.3352 125.814 46.5886V46.5948ZM164.482 75.8818C152.667 81.6493 137.734 74.2243 136.488 67.169L128.583 25.9343C127.791 21.4546 139.434 16.3896 150.402 21.2513C152.489 22.1756 155.208 23.8269 155.951 26.1992L169.392 67.1259C170.479 70.5888 167.747 74.2921 164.482 75.888V75.8818Z" fill="#171717"/>
</svg>
