<svg width="70" height="56" viewBox="0 0 70 56" fill="none" xmlns="http://www.w3.org/2000/svg">
<path d="M69.0163 23.4959C65.2385 15.0602 53.2136 10.9131 44.7087 9.59776C34.1287 7.9597 22.0047 8.90363 12.2243 13.4663C7.79236 15.5333 3.54101 18.5043 1.26113 22.9211C-0.496679 26.3255 -0.406365 30.1564 1.46599 33.4989C3.75688 37.5907 8.03687 40.5728 12.231 42.5336C25.745 48.856 45.9356 48.7455 59.2051 41.8285C63.1503 39.7726 67.3135 36.5164 69.0978 32.3449C70.3291 29.4645 70.2983 26.3586 69.0163 23.4959Z" fill="#171717"/>
<path d="M69.0163 23.4959C65.2385 15.0602 53.2136 10.9131 44.7087 9.59776C34.1287 7.9597 22.0047 8.90363 12.2243 13.4663C7.79236 15.5333 3.54101 18.5043 1.26113 22.9211C-0.496679 26.3254 -0.406365 30.1564 1.46599 33.4989C3.75688 37.5907 8.03687 40.5728 12.231 42.5336C25.745 48.856 45.9356 48.7455 59.2051 41.8285C63.1503 39.7726 67.3135 36.5164 69.0978 32.3449C70.3291 29.4645 70.2983 26.3586 69.0163 23.4959ZM22.5179 19.7157C21.6897 20.5513 20.6808 20.8984 19.4891 21.241C19.3173 21.2897 19.3063 21.5328 19.4737 21.5947C20.1742 21.8578 20.8328 22.0634 21.3923 22.5298C21.921 22.972 22.3946 23.7147 22.2844 24.4354L20.987 32.8755C20.4847 36.1494 13.0306 38.5214 9.885 35.2762C9.11623 34.4826 8.96424 33.4657 9.25941 32.4466L11.5966 24.3801C11.7111 23.9888 12.1252 23.4716 12.4028 23.2107C13.3411 22.3265 14.4249 21.9617 15.6276 21.6014C15.8259 21.5417 15.8347 21.2654 15.643 21.1924C15.0263 20.9581 14.4866 20.7658 14.0284 20.4231C13.1121 19.74 12.9579 18.5883 13.6958 17.7218C15.8325 15.2149 21.6434 15.1132 23.0113 17.4896C23.4629 18.2744 23.095 19.1277 22.5157 19.7135L22.5179 19.7157ZM45.1536 25.565C44.9091 26.2702 44.2461 26.9113 43.5544 27.2495C41.2173 28.3924 38.6642 28.3039 36.1663 27.0594C35.9658 26.9599 35.7323 27.1058 35.7323 27.3291L35.7103 32.9285C35.6993 35.7404 29.862 38.4086 25.5798 35.7117C24.5731 35.0773 23.7713 33.9543 23.9167 32.7893L24.9806 24.221C25.0996 23.2571 26.234 22.521 27.0424 22.1386C29.3729 21.0332 32.567 21.0907 34.7235 22.7531C34.9195 22.9056 35.1927 22.9034 35.3909 22.7531C37.7809 20.9183 41.66 21.02 43.9509 22.647C44.9091 23.3279 45.5567 24.3956 45.1536 25.5628V25.565ZM59.0311 36.072C54.7908 38.1412 49.4314 35.4774 48.9842 32.9462L46.1471 18.1528C45.8629 16.5457 50.0416 14.7286 53.9779 16.4728C54.7269 16.8044 55.7027 17.3968 55.9692 18.2479L60.7933 32.9308C61.1832 34.1731 60.203 35.5017 59.0311 36.0742V36.072Z" fill="white"/>
</svg>
