<svg xmlns="http://www.w3.org/2000/svg" width="70" height="67" viewBox="0 0 70 67" fill="none">
  <path d="M69.0163 27.4959C65.2385 19.0602 53.2136 14.9131 44.7087 13.5978C34.1287 11.9597 22.0047 12.9036 12.2243 17.4663C7.79236 19.5333 3.54101 22.5043 1.26113 26.9211C-0.496679 30.3254 -0.406365 34.1564 1.46599 37.4989C3.75688 41.5907 8.03687 44.5728 12.231 46.5336C25.745 52.856 45.9356 52.7455 59.2051 45.8285C63.1503 43.7726 67.3135 40.5164 69.0978 36.3449C70.3291 33.4645 70.2983 30.3586 69.0163 27.4959ZM22.5179 23.7157C21.6897 24.5513 20.6808 24.8984 19.4891 25.241C19.3173 25.2897 19.3063 25.5328 19.4737 25.5947C20.1742 25.8578 20.8328 26.0634 21.3923 26.5298C21.921 26.972 22.3946 27.7147 22.2844 28.4354L20.987 36.8755C20.4847 40.1494 13.0306 42.5214 9.885 39.2762C9.11623 38.4826 8.96424 37.4657 9.25941 36.4466L11.5966 28.3801C11.7111 27.9888 12.1252 27.4716 12.4028 27.2107C13.3411 26.3265 14.4249 25.9617 15.6276 25.6014C15.8259 25.5417 15.8347 25.2654 15.643 25.1924C15.0263 24.9581 14.4866 24.7658 14.0284 24.4231C13.1121 23.74 12.9579 22.5883 13.6958 21.7218C15.8325 19.2149 21.6434 19.1132 23.0113 21.4896C23.4629 22.2744 23.095 23.1277 22.5157 23.7135L22.5179 23.7157ZM45.1536 29.565C44.9091 30.2702 44.2461 30.9113 43.5544 31.2495C41.2173 32.3924 38.6642 32.3039 36.1663 31.0594C35.9658 30.9599 35.7323 31.1058 35.7323 31.3291L35.7103 36.9285C35.6993 39.7404 29.862 42.4086 25.5798 39.7117C24.5731 39.0773 23.7713 37.9543 23.9167 36.7893L24.9806 28.221C25.0996 27.2571 26.234 26.521 27.0424 26.1386C29.3729 25.0332 32.567 25.0907 34.7235 26.7531C34.9195 26.9056 35.1927 26.9034 35.3909 26.7531C37.7809 24.9183 41.66 25.02 43.9509 26.647C44.9091 27.3279 45.5567 28.3956 45.1536 29.5628V29.565ZM59.0311 40.072C54.7908 42.1412 49.4314 39.4774 48.9842 36.9462L46.1471 22.1528C45.8629 20.5457 50.0416 18.7286 53.9779 20.4728C54.7269 20.8044 55.7027 21.3968 55.9692 22.2479L60.7933 36.9308C61.1832 38.1731 60.203 39.5017 59.0311 40.0742V40.072Z" fill="white"/>
</svg>
