<?xml version="1.0" encoding="UTF-8"?>
<svg id="Layer_1" xmlns="http://www.w3.org/2000/svg" viewBox="0 0 304.84 296.78">
  <path d="M107.75,254.79c-25.53,0-49.35-8.5-67-26.01-20.18-20.03-29.38-48.69-25.89-80.71,3.48-31.92,19.16-63.38,44.16-88.57,25-25.19,56.33-41.12,88.23-44.85,31.99-3.74,60.73,5.23,80.91,25.25,20.18,20.03,29.38,48.69,25.89,80.71-3.48,31.92-19.16,63.38-44.16,88.57l-.8-.79.8.79c-29.74,29.97-67.51,45.61-102.13,45.61ZM161.26,16.07c-4.5,0-9.09.27-13.76.82-31.39,3.67-62.25,19.37-86.89,44.2-24.64,24.83-40.09,55.81-43.52,87.23-3.41,31.33,5.55,59.33,25.23,78.87,17.22,17.09,40.48,25.37,65.43,25.37,34.03,0,71.21-15.42,100.52-44.96,24.64-24.83,40.09-55.81,43.52-87.23,3.41-31.33-5.55-59.33-25.23-78.87-16.75-16.62-39.59-25.43-65.3-25.43Z"/>
  <path d="M115.61,262.79c-26.32,0-49.69-9.03-66.88-26.08-20.18-20.03-29.38-48.69-25.89-80.71,3.48-31.92,19.16-63.38,44.16-88.57,25-25.19,56.33-41.12,88.23-44.85,31.99-3.74,60.73,5.23,80.91,25.25,20.18,20.03,29.38,48.69,25.89,80.71-3.48,31.93-19.16,63.38-44.16,88.57-25,25.19-56.33,41.12-88.23,44.85-4.75.56-9.44.83-14.03.83ZM169.25,24c-4.5,0-9.09.27-13.76.82-31.39,3.67-62.25,19.37-86.89,44.2-24.64,24.83-40.09,55.81-43.52,87.23-3.41,31.33,5.55,59.33,25.23,78.87,19.69,19.53,47.77,28.28,79.06,24.61,31.39-3.67,62.25-19.37,86.89-44.2,24.64-24.83,40.09-55.81,43.52-87.23,3.41-31.32-5.55-59.33-25.23-78.87-16.75-16.62-39.58-25.43-65.31-25.43Z"/>
  <path d="M123.61,270.73c-26.32,0-49.69-9.03-66.88-26.08-41.59-41.27-33.39-117.21,18.27-169.28,51.67-52.07,127.54-60.87,169.13-19.6,41.59,41.27,33.39,117.21-18.27,169.28-25,25.19-56.33,41.12-88.23,44.85-4.75.56-9.44.83-14.03.83ZM177.12,31.99c-34.03,0-71.21,15.42-100.52,44.96-50.79,51.19-59,125.7-18.29,166.1,19.69,19.53,47.77,28.28,79.06,24.61,31.39-3.67,62.25-19.37,86.89-44.2,50.79-51.19,59-125.7,18.29-166.1-17.22-17.09-40.48-25.37-65.43-25.37Z"/>
  <path d="M131.6,278.66c-26.32,0-49.69-9.03-66.88-26.08-20.18-20.03-29.38-48.69-25.89-80.71,3.48-31.92,19.16-63.38,44.16-88.57,51.67-52.07,127.54-60.87,169.13-19.6,41.59,41.27,33.39,117.21-18.27,169.28-25,25.19-56.33,41.12-88.23,44.85-4.75.56-9.44.83-14.03.83ZM185.12,39.92c-34.03,0-71.21,15.42-100.52,44.96-24.64,24.83-40.09,55.81-43.52,87.23-3.41,31.33,5.55,59.33,25.23,78.87,19.69,19.53,47.77,28.28,79.06,24.61,31.39-3.67,62.25-19.37,86.89-44.2,50.79-51.19,59-125.7,18.29-166.1-17.22-17.09-40.48-25.37-65.43-25.37Z"/>
  <path d="M139.59,286.59c-26.32,0-49.69-9.03-66.88-26.08-20.18-20.03-29.38-48.69-25.88-80.71,3.48-31.92,19.16-63.38,44.16-88.57,25-25.19,56.33-41.12,88.23-44.85,31.99-3.74,60.73,5.23,80.91,25.25,20.18,20.03,29.38,48.69,25.88,80.71-3.48,31.92-19.16,63.38-44.16,88.57l-.8-.79.8.79c-25,25.19-56.33,41.12-88.23,44.85-4.75.56-9.44.83-14.03.83ZM193.23,47.79c-4.5,0-9.09.27-13.76.82-31.39,3.67-62.25,19.37-86.89,44.2-24.64,24.83-40.09,55.81-43.52,87.23-3.41,31.33,5.55,59.33,25.23,78.87,16.75,16.62,39.59,25.43,65.3,25.43,4.5,0,9.09-.27,13.76-.82,31.39-3.67,62.25-19.37,86.89-44.2,24.64-24.83,40.09-55.81,43.52-87.23,3.41-31.33-5.55-59.33-25.23-78.87-16.75-16.62-39.59-25.43-65.3-25.43Z"/>
</svg>