<?xml version="1.0" encoding="UTF-8"?>
<svg id="Layer_1" xmlns="http://www.w3.org/2000/svg" viewBox="0 0 304.84 296.78">
  <path d="M20.65,147.43c0-35.56,10.8-69.06,30.56-94.59,20.31-26.25,47.63-40.93,76.94-41.35,3.13-.05,6.3.08,9.42.36l-.3,3.32c-3-.28-6.05-.39-9.07-.35-28.27.41-54.68,14.63-74.35,40.06-19.76,25.54-30.36,59.24-29.84,95.04.51,35.75,12.08,69.18,32.57,94.14,20.4,24.85,47.2,38.31,75.47,37.9l.05,3.33c-29.31.42-57.04-13.47-78.1-39.12-20.96-25.54-32.8-59.71-33.32-96.21-.01-.84-.02-1.69-.02-2.53Z"/>
  <path d="M132.04,281.96c2.64-.04,5.3-.2,7.91-.48l.36,3.32c-2.71.29-5.48.46-8.22.5l-.05-3.33Z"/>
  <path d="M32.2,147.26c0-35.56,10.8-69.06,30.56-94.59,20.31-26.25,47.63-40.93,76.94-41.35,3.39-.05,6.81.1,10.17.44l-.33,3.32c-3.24-.32-6.53-.46-9.79-.42-28.27.41-54.68,14.63-74.35,40.06-19.76,25.54-30.46,59.27-29.84,95.04.51,35.74,12.08,69.15,32.57,94.08,20.39,24.81,47.19,38.25,75.47,37.85,1.69-.03,3.4-.1,5.07-.22l.24,3.32c-1.74.13-3.51.21-5.27.23-29.32.42-57.05-13.45-78.1-39.06-20.96-25.51-32.8-59.66-33.32-96.15-.01-.84-.02-1.69-.02-2.53Z"/>
  <path d="M43.74,147.1c0-35.56,10.8-69.06,30.56-94.59,20.31-26.25,47.63-40.93,76.94-41.35,3.45-.05,6.94.1,10.36.46l-.34,3.32c-3.29-.34-6.65-.49-9.97-.44-28.27.41-54.68,14.63-74.35,40.06-19.76,25.54-30.39,59.29-29.84,95.04.51,35.75,12.08,69.18,32.57,94.14,20.4,24.85,47.2,38.31,75.47,37.9,2.69-.04,5.4-.21,8.05-.49l.36,3.31c-2.75.3-5.57.48-8.37.52-29.31.42-57.04-13.47-78.1-39.12-20.96-25.54-32.8-59.71-33.32-96.21-.01-.84-.02-1.69-.02-2.53Z"/>
  <path d="M55.28,146.93c0-35.56,10.8-69.06,30.56-94.59,20.31-26.25,47.63-40.93,76.94-41.35,1.66-.02,3.31,0,4.96.07l-.13,3.33c-1.58-.06-3.17-.09-4.77-.06-28.27.41-54.68,14.63-74.35,40.06-19.76,25.54-30.4,59.32-29.84,95.04.51,35.75,12.08,69.18,32.57,94.14,20.4,24.85,47.2,38.31,75.47,37.9,1.66-.02,3.35-.1,5.03-.22l.24,3.32c-1.75.13-3.5.2-5.22.23-29.31.42-57.04-13.47-78.1-39.12-20.96-25.54-32.8-59.71-33.32-96.2-.01-.84-.02-1.69-.02-2.53Z"/>
  <path d="M66.83,146.76c0-35.56,10.8-69.06,30.56-94.59,20.31-26.25,47.63-40.93,76.94-41.35,29.31-.42,57.04,13.47,78.1,39.12,20.96,25.54,32.8,59.71,33.32,96.2h0c.6,36.5-10.32,70.99-30.54,97.12-20.31,26.25-47.63,40.93-76.94,41.35-29.31.42-57.04-13.47-78.1-39.12-20.96-25.54-32.8-59.71-33.32-96.2-.01-.84-.02-1.69-.02-2.53ZM282.41,146.2c-.51-35.75-12.08-69.18-32.57-94.14-20.4-24.85-47.2-38.31-75.47-37.9-28.27.41-54.68,14.63-74.35,40.06-19.76,25.54-30.46,59.3-29.84,95.04.51,35.75,12.08,69.18,32.57,94.14,20.4,24.85,47.2,38.31,75.47,37.9,28.27-.41,54.68-14.63,74.35-40.06,19.76-25.54,30.34-59.31,29.84-95.04h0Z"/>
</svg>