<?xml version="1.0" encoding="UTF-8"?>
<svg id="Layer_1" xmlns="http://www.w3.org/2000/svg" viewBox="0 0 1000 1000">
  <g>
    <g>
      <path d="M164.16,341.89c0-166.63,152.7-302.69,340.92-303.5,91.28-.4,177.23,30.7,242.01,87.57,64.88,56.96,100.77,132.93,101.06,213.93,0,.32,0,.64,0,.96,0,166.63-152.71,302.69-340.92,303.5-91.28.4-177.23-30.7-242.01-87.57-64.88-56.96-100.77-132.93-101.05-213.93,0-.32,0-.65,0-.96ZM842.23,340.85c0-.32,0-.62,0-.94-.28-79.28-35.45-153.69-99.04-209.51-63.69-55.91-148.25-86.49-238.08-86.1-184.96.8-335.03,134.22-335.04,297.59,0,.32,0,.62,0,.94.28,79.28,35.45,153.69,99.04,209.51,63.69,55.91,148.24,86.49,238.08,86.1,184.96-.8,335.04-134.23,335.04-297.6Z"/>
      <path d="M164.27,374.03c0-166.63,152.7-302.68,340.92-303.5,91.28-.4,177.23,30.7,242.01,87.57,64.88,56.96,100.77,132.93,101.05,213.93,0,.32,0,.65,0,.96,0,166.63-152.7,302.68-340.92,303.5-91.28.4-177.23-30.7-242.01-87.57-64.88-56.96-100.77-132.93-101.05-213.93,0-.32,0-.65,0-.96ZM842.35,372.99c0-.32,0-.62,0-.94-.28-79.28-35.45-153.69-99.04-209.51-63.69-55.91-148.24-86.49-238.08-86.1-184.96.8-335.03,134.22-335.04,297.59,0,.32,0,.62,0,.94.28,79.28,35.45,153.69,99.04,209.51,63.69,55.91,148.24,86.49,238.08,86.1,184.96-.8,335.04-134.22,335.04-297.59Z"/>
      <path d="M164.38,406.16c0-166.63,152.71-302.69,340.92-303.5,91.28-.4,177.23,30.7,242.01,87.57,64.88,56.96,100.77,132.93,101.05,213.93,0,.32,0,.65,0,.96,0,166.63-152.7,302.69-340.92,303.5-91.28.4-177.23-30.7-242.01-87.57-64.88-56.96-100.77-132.93-101.06-213.93,0-.32,0-.64,0-.96ZM842.46,405.12c0-.32,0-.62,0-.94-.28-79.28-35.45-153.69-99.04-209.51-63.69-55.91-148.24-86.49-238.08-86.1-184.96.8-335.03,134.23-335.04,297.6,0,.32,0,.62,0,.94.28,79.28,35.45,153.69,99.04,209.51,63.69,55.91,148.25,86.49,238.08,86.1,184.96-.8,335.04-134.22,335.04-297.59Z"/>
      <path d="M164.5,438.3c0-166.63,152.71-302.69,340.92-303.51,91.28-.4,177.23,30.7,242.01,87.57,64.88,56.96,100.77,132.93,101.05,213.93,0,.32,0,.65,0,.96,0,166.63-152.71,302.68-340.92,303.5-91.28.4-177.23-30.7-242.01-87.57-64.88-56.96-100.77-132.93-101.06-213.93,0-.32,0-.64,0-.96ZM842.57,437.26c0-.32,0-.62,0-.94-.28-79.28-35.45-153.69-99.04-209.51-63.69-55.91-148.24-86.49-238.08-86.1-184.96.8-335.03,134.23-335.04,297.6,0,.32,0,.62,0,.94.28,79.28,35.45,153.69,99.04,209.51,63.69,55.91,148.25,86.49,238.08,86.1,184.96-.8,335.04-134.22,335.04-297.59Z"/>
      <path d="M164.61,470.43c0-166.63,152.71-302.69,340.92-303.5,91.28-.4,177.23,30.7,242.01,87.57,64.88,56.96,100.77,132.93,101.06,213.93,0,.32,0,.65,0,.96,0,166.63-152.71,302.68-340.92,303.5-91.28.4-177.23-30.7-242.01-87.57-64.88-56.96-100.77-132.93-101.06-213.93,0-.32,0-.64,0-.96ZM842.69,469.39c0-.32,0-.62,0-.94-.28-79.28-35.45-153.69-99.04-209.51-63.69-55.91-148.25-86.49-238.08-86.1-184.96.8-335.03,134.23-335.04,297.6,0,.32,0,.62,0,.94.28,79.28,35.45,153.69,99.04,209.51,63.69,55.91,148.25,86.49,238.08,86.1,184.96-.8,335.04-134.22,335.04-297.59Z"/>
    </g>
    <g>
      <g>
        <path d="M464.71,488.3h-79.31v-23.56h26.1v-118.2h-26.1v-23.56h79.31v23.56h-26.98v118.2h26.98v23.56Z"/>
        <path d="M595.13,488.3h-33.19l-42.82-66.89h-11.91v66.89h-26.22v-165.33h54.48c18.16,0,32.26,4.16,42.31,12.48,10.05,8.32,15.08,20.63,15.08,36.93,0,7.26-1.12,13.66-3.36,19.19-2.24,5.53-5.41,10.28-9.5,14.25-4.1,3.97-8.87,7.12-14.32,9.44-5.45,2.32-11.34,3.91-17.67,4.75l47.13,68.28ZM566.62,371.88c0-8.45-2.77-14.78-8.3-19-5.53-4.22-13.16-6.33-22.87-6.33h-28.25v51.06h28.25c9.71,0,17.34-2.11,22.87-6.33,5.53-4.22,8.3-10.68,8.3-19.38Z"/>
        <path d="M707.95,488.3h-105.66v-165.33h26.22v141.76h79.43v23.56Z"/>
      </g>
      <path d="M336.6,469.23v-10.6h-10.6v-5.3h-10.6v-5.3h-5.3v-5.3h-5.3v-10.6h15.9v5.3h5.3v5.3h10.6v-31.79h-5.3v-5.3h-15.9v-5.3h-5.3v-5.3h-5.3v-26.49h5.3v-5.3h5.3v-5.3h5.3v-5.3h15.9v-10.6h10.6v10.6h10.6v5.3h5.3v5.3h5.3v10.6h-15.9v-5.3h-5.3v31.79h10.6v5.3h10.6v10.6h5.3v26.49h-5.3v5.3h-5.3v5.3h-10.6v5.3h-5.3v10.6h-10.6ZM336.6,395.04v-26.49h-10.6v5.3h-5.3v15.9h10.6v5.3h5.3ZM352.5,442.73v-5.3h5.3v-15.9h-5.3v-5.3h-5.3v26.49h5.3Z"/>
    </g>
  </g>
  <g>
    <path d="M842.15,866.71v66.86l-66.86-66.86h-9.99v78.74h9.45v-66.88l66.87,66.87h9.98v-78.73h-9.45Z"/>
    <path d="M435.45,920.55l-14.51-14.47,39.49-39.37h-85.04v78.74h8.61v-64.09l45.39,45.27-18.81,18.81h12.4l12.61-12.61,12.65,12.61h12.16l-18.73-18.69,16.35-16.35h31.84v35.03h9.45v-78.72h-9.99l-53.85,53.85h0ZM466.68,901.73l23.17-23.17v23.17h-23.17ZM439.64,875.29l-24.78,24.72-24.78-24.72h49.56Z"/>
    <path d="M246.19,866.71h-85.04v78.74h8.61v-64.09l64.25,64.09h12.16l-39.45-39.36,39.47-39.38ZM225.41,875.29l-24.78,24.72-24.78-24.72h49.56Z"/>
    <path d="M515.37,878.23c-15.38,15.38-15.38,40.3,0,55.68,7.38,7.38,17.4,11.53,27.84,11.53h36.79v-8.59h-36.79c-8.16,0-16-3.25-21.77-9.02-12.02-12.02-12.02-31.51,0-43.53,5.77-5.77,13.6-9.02,21.77-9.02h36.79v-8.58h-36.79c-10.44,0-20.46,4.15-27.84,11.53h0Z"/>
    <path d="M664.41,866.71h-76.07v8.77h27.45l-30.12,30.11v39.85h8.77v-36.21l33.75-33.75h36.22v-8.77Z"/>
    <path d="M678.14,866.71l-38.89,38.88v39.85h8.77v-36.21l42.53-42.52h-12.41Z"/>
    <path d="M719.15,865.59c-22.36,0-40.49,18.12-40.49,40.49s18.12,40.49,40.49,40.49,40.49-18.12,40.49-40.49-18.12-40.49-40.49-40.49ZM719.15,937.82c-17.54,0-31.75-14.21-31.75-31.75s14.21-31.75,31.75-31.75,31.75,14.21,31.75,31.75-14.21,31.75-31.75,31.75Z"/>
    <path d="M240.59,901.78l26.47-26.48h34.99v-8.59h-38.56l-39.35,39.37,39.35,39.37h38.56v-8.59h-34.99l-26.47-26.48h52.51l35.06,35.07h12.16l-35.07-35.07h61.47v-8.59h-61.47l26.47-26.48h35v-8.59h-38.56l-35.06,35.07h-52.52Z"/>
  </g>
</svg>