<?xml version="1.0" encoding="UTF-8"?>
<svg id="Layer_1" xmlns="http://www.w3.org/2000/svg" viewBox="0 0 304.84 296.78">
  <path d="M151.8,279.4c-35.14,0-68.26-10.68-93.49-30.2-25.94-20.07-40.46-47.08-40.87-76.04-.05-3.09.08-6.22.36-9.31l3.28.3c-.27,2.97-.39,5.98-.35,8.96.4,27.94,14.46,54.04,39.59,73.48,25.24,19.53,58.55,30,93.93,29.5,35.33-.51,68.37-11.94,93.04-32.19,24.56-20.16,37.87-46.65,37.46-74.59l3.29-.05c.42,28.97-13.31,56.38-38.67,77.19-25.24,20.72-59.01,32.42-95.09,32.94-.83.01-1.67.02-2.5.02Z"/>
  <path d="M284.76,169.31c-.04-2.61-.2-5.24-.48-7.82l3.28-.35c.29,2.68.45,5.42.49,8.12l-3.29.05Z"/>
  <path d="M151.64,267.99c-35.14,0-68.26-10.68-93.49-30.2-25.94-20.07-40.46-47.08-40.87-76.04-.05-3.35.1-6.73.43-10.05l3.28.33c-.32,3.2-.46,6.45-.41,9.68.4,27.94,14.46,54.04,39.6,73.48,25.24,19.53,58.58,30.1,93.93,29.5,35.32-.51,68.35-11.94,92.99-32.19,24.52-20.15,37.81-46.64,37.41-74.59-.03-1.67-.1-3.36-.22-5.01l3.29-.24c.13,1.72.2,3.47.23,5.21.42,28.97-13.29,56.39-38.61,77.19-25.21,20.72-58.96,32.42-95.03,32.94-.83.01-1.67.02-2.5.02Z"/>
  <path d="M151.47,256.58c-35.14,0-68.26-10.68-93.49-30.2-25.94-20.07-40.46-47.08-40.87-76.04-.05-3.41.1-6.86.45-10.24l3.28.34c-.33,3.26-.48,6.57-.43,9.86.4,27.94,14.46,54.04,39.59,73.48,25.24,19.53,58.6,30.04,93.93,29.5,35.33-.51,68.37-11.94,93.04-32.19,24.56-20.16,37.87-46.65,37.46-74.59-.04-2.66-.2-5.34-.49-7.96l3.27-.36c.3,2.72.47,5.5.51,8.27.42,28.97-13.31,56.38-38.67,77.19-25.24,20.72-59.01,32.42-95.09,32.94-.83.01-1.67.02-2.5.02Z"/>
  <path d="M151.31,245.17c-35.14,0-68.26-10.68-93.49-30.2-25.94-20.07-40.46-47.08-40.87-76.04-.02-1.64,0-3.27.07-4.9l3.29.13c-.06,1.57-.09,3.14-.06,4.72.4,27.94,14.46,54.04,39.6,73.48,25.24,19.53,58.63,30.05,93.93,29.5,35.33-.51,68.37-11.94,93.04-32.19,24.56-20.16,37.87-46.65,37.46-74.59-.02-1.64-.1-3.31-.22-4.97l3.29-.24c.13,1.73.2,3.46.23,5.16.42,28.97-13.31,56.38-38.67,77.19-25.24,20.72-59.01,32.42-95.08,32.94-.83.01-1.67.02-2.5.02Z"/>
  <path d="M151.14,233.76c-35.14,0-68.26-10.68-93.49-30.2-25.94-20.07-40.45-47.08-40.87-76.04-.42-28.97,13.31-56.38,38.67-77.19,25.24-20.72,59.01-32.41,95.08-32.94h0c36.08-.6,70.17,10.2,95.99,30.18,25.94,20.07,40.46,47.08,40.87,76.04.42,28.97-13.31,56.38-38.67,77.19-25.24,20.72-59.01,32.42-95.08,32.94-.83.01-1.67.02-2.5.02ZM150.58,20.69c-35.33.51-68.37,11.94-93.04,32.19-24.56,20.16-37.86,46.65-37.46,74.59.4,27.94,14.46,54.04,39.59,73.48,25.24,19.53,58.61,30.11,93.93,29.5,35.33-.51,68.37-11.94,93.04-32.19,24.56-20.16,37.86-46.65,37.46-74.59-.4-27.94-14.46-54.04-39.59-73.48-25.24-19.53-58.62-29.99-93.93-29.5h0Z"/>
</svg>