<?xml version="1.0" encoding="UTF-8"?>
<svg id="Layer_1" xmlns="http://www.w3.org/2000/svg" viewBox="0 0 1000 595.43">
  <path d="M331.45,467.69h-163.08v-48.45h53.66v-243.05h-53.66v-48.45h163.08v48.45h-55.49v243.05h55.49v48.45Z"/>
  <path d="M599.63,467.69h-68.25l-88.05-137.55h-24.49v137.55h-53.92V127.73h112.02c37.34,0,66.33,8.55,87.01,25.66,20.67,17.11,31,42.42,31,75.94,0,14.94-2.31,28.09-6.9,39.47-4.6,11.38-11.11,21.14-19.54,29.31-8.43,8.16-18.24,14.63-29.44,19.41-11.2,4.78-23.32,8.03-36.34,9.77l96.91,140.41ZM541.02,228.29c0-17.37-5.69-30.39-17.06-39.08-11.38-8.68-27.06-13.03-47.02-13.03h-58.09v104.98h58.09c19.96,0,35.65-4.34,47.02-13.03,11.37-8.68,17.06-21.97,17.06-39.86Z"/>
  <path d="M831.62,467.69h-217.26V127.73h53.92v291.51h163.34v48.45Z"/>
</svg>