<?xml version="1.0" encoding="UTF-8"?>
<svg id="Layer_1" xmlns="http://www.w3.org/2000/svg" viewBox="0 0 598.76 305.67">
  <defs>
    <style>
      .cls-1 {
        fill: #fff;
      }
    </style>
  </defs>
  <g>
    <path class="cls-1" d="M381.81,283.12c-71.84,0-130.29-58.45-130.29-130.29,0-34.8,13.55-67.52,38.16-92.13,24.61-24.61,57.33-38.16,92.13-38.16,0,0,0,0,0,0,71.84,0,130.29,58.45,130.29,130.29s-58.45,130.29-130.29,130.29ZM381.81,24.63c-34.25,0-66.44,13.34-90.66,37.55-24.22,24.22-37.55,56.41-37.55,90.66,0,70.69,57.51,128.21,128.21,128.21s128.21-57.51,128.21-128.21S452.51,24.63,381.81,24.63Z"/>
    <path class="cls-1" d="M400.27,283.12c-71.84,0-130.29-58.45-130.29-130.29,0-34.8,13.55-67.52,38.16-92.13,24.61-24.61,57.33-38.16,92.13-38.16,0,0,0,0,0,0,71.84,0,130.29,58.45,130.29,130.29s-58.45,130.29-130.29,130.29ZM400.27,24.63c-34.25,0-66.44,13.34-90.66,37.55-24.22,24.22-37.55,56.41-37.55,90.66,0,70.69,57.51,128.21,128.21,128.21s128.21-57.51,128.21-128.21S470.97,24.63,400.27,24.63Z"/>
    <path class="cls-1" d="M418.73,283.12c-71.84,0-130.29-58.45-130.29-130.29,0-34.8,13.55-67.52,38.16-92.13,24.61-24.61,57.33-38.16,92.13-38.16,0,0,0,0,0,0,71.84,0,130.29,58.45,130.29,130.29s-58.45,130.29-130.29,130.29ZM418.73,24.63c-34.25,0-66.44,13.34-90.66,37.55-24.22,24.22-37.55,56.41-37.55,90.66,0,70.69,57.51,128.21,128.21,128.21s128.21-57.51,128.21-128.21S489.42,24.63,418.73,24.63Z"/>
    <path class="cls-1" d="M437.19,283.12c-71.84,0-130.29-58.45-130.29-130.29S365.35,22.54,437.19,22.54s130.29,58.45,130.29,130.29-58.45,130.29-130.29,130.29ZM437.19,24.63c-70.69,0-128.21,57.51-128.21,128.21s57.51,128.21,128.21,128.21,128.21-57.51,128.21-128.21S507.88,24.63,437.19,24.63Z"/>
  </g>
  <g>
    <path class="cls-1" d="M309.28,283.12c-71.84,0-130.29-58.45-130.29-130.29S237.43,22.54,309.28,22.54c71.84,0,130.29,58.45,130.29,130.29s-58.45,130.29-130.29,130.29ZM309.28,24.62c-70.69,0-128.21,57.51-128.21,128.21s57.51,128.21,128.21,128.21,128.21-57.51,128.21-128.21S379.97,24.63,309.28,24.62Z"/>
    <path class="cls-1" d="M327.73,283.12c-71.84,0-130.29-58.45-130.29-130.29S255.89,22.54,327.73,22.54c71.84,0,130.29,58.45,130.29,130.29s-58.45,130.29-130.29,130.29ZM327.73,24.62c-70.69,0-128.21,57.51-128.21,128.21s57.51,128.21,128.21,128.21,128.21-57.51,128.21-128.21S398.43,24.63,327.73,24.62Z"/>
    <path class="cls-1" d="M346.19,283.12c-71.84,0-130.29-58.45-130.29-130.29S274.35,22.54,346.19,22.54c71.84,0,130.29,58.45,130.29,130.29s-58.45,130.29-130.29,130.29ZM346.19,24.62c-70.69,0-128.21,57.51-128.21,128.21s57.51,128.21,128.21,128.21,128.21-57.51,128.21-128.21S416.88,24.63,346.19,24.62Z"/>
    <path class="cls-1" d="M364.65,283.12c-71.84,0-130.29-58.45-130.29-130.29,0-71.84,58.45-130.29,130.29-130.29,71.84,0,130.29,58.45,130.29,130.29s-58.45,130.29-130.29,130.29ZM364.65,24.62c-70.69,0-128.21,57.51-128.21,128.21,0,70.69,57.51,128.21,128.21,128.21s128.21-57.51,128.21-128.21S435.34,24.63,364.65,24.62Z"/>
  </g>
  <g>
    <path class="cls-1" d="M234.75,283.12c-71.84,0-130.29-58.45-130.29-130.29S162.91,22.54,234.75,22.54s130.29,58.45,130.29,130.29-58.45,130.29-130.29,130.29ZM234.75,24.62c-70.69,0-128.21,57.51-128.21,128.21s57.51,128.21,128.21,128.21,128.21-57.51,128.21-128.21S305.44,24.62,234.75,24.62Z"/>
    <path class="cls-1" d="M253.21,283.12c-71.84,0-130.29-58.45-130.29-130.29S181.36,22.54,253.21,22.54s130.29,58.45,130.29,130.29-58.45,130.29-130.29,130.29ZM253.21,24.62c-70.69,0-128.21,57.51-128.21,128.21s57.51,128.21,128.21,128.21,128.21-57.51,128.21-128.21S323.9,24.62,253.21,24.62Z"/>
    <path class="cls-1" d="M271.66,283.12c-71.84,0-130.29-58.45-130.29-130.29S199.82,22.54,271.66,22.54s130.29,58.45,130.29,130.29-58.45,130.29-130.29,130.29ZM271.66,24.62c-70.69,0-128.21,57.51-128.21,128.21s57.51,128.21,128.21,128.21,128.21-57.51,128.21-128.21S342.36,24.62,271.66,24.62Z"/>
    <path class="cls-1" d="M290.12,283.12c-71.84,0-130.29-58.45-130.29-130.29S218.28,22.54,290.12,22.54s130.29,58.45,130.29,130.29-58.45,130.29-130.29,130.29ZM290.12,24.62c-70.69,0-128.21,57.51-128.21,128.21s57.51,128.21,128.21,128.21,128.21-57.51,128.21-128.21S360.81,24.62,290.12,24.62Z"/>
  </g>
  <g>
    <path class="cls-1" d="M161.57,283.12c-71.84,0-130.29-58.45-130.29-130.29,0-71.84,58.45-130.29,130.29-130.29s130.29,58.45,130.29,130.29-58.45,130.29-130.29,130.29ZM161.57,24.62c-70.69,0-128.21,57.51-128.21,128.21,0,70.69,57.51,128.21,128.21,128.21s128.21-57.51,128.21-128.21S232.26,24.62,161.57,24.62Z"/>
    <path class="cls-1" d="M180.03,283.12c-34.8,0-67.52-13.55-92.13-38.16-24.61-24.61-38.16-57.33-38.16-92.13,0-71.84,58.45-130.29,130.29-130.29s130.29,58.45,130.29,130.29-58.45,130.29-130.29,130.29ZM180.03,24.62c-70.69,0-128.21,57.51-128.21,128.21,0,34.25,13.34,66.44,37.55,90.66s56.41,37.55,90.66,37.55c70.69,0,128.21-57.51,128.21-128.21S250.72,24.62,180.03,24.62Z"/>
    <path class="cls-1" d="M198.48,283.12c-71.84,0-130.29-58.45-130.29-130.29S126.64,22.54,198.49,22.54s130.29,58.45,130.29,130.29-58.45,130.29-130.29,130.29ZM198.49,24.62c-70.69,0-128.21,57.51-128.21,128.21s57.51,128.21,128.21,128.21,128.21-57.51,128.21-128.21S269.18,24.62,198.49,24.62Z"/>
    <path class="cls-1" d="M216.94,283.12c-71.84,0-130.29-58.45-130.29-130.29S145.1,22.54,216.94,22.54s130.29,58.45,130.29,130.29-58.45,130.29-130.29,130.29ZM216.94,24.62c-70.69,0-128.21,57.51-128.21,128.21s57.51,128.21,128.21,128.21,128.21-57.51,128.21-128.21S287.64,24.62,216.94,24.62Z"/>
  </g>
</svg>