<svg width="189" height="23" viewBox="0 0 189 23" fill="none" xmlns="http://www.w3.org/2000/svg">
<g clip-path="url(#clip0_23_1070)">
<path d="M185.59 0.310059V18.5301L167.36 0.310059H164.64V21.7701H167.21V3.54006L185.43 21.7601H188.15V0.310059H185.58H185.59Z" fill="black"/>
<path d="M74.75 14.9801L70.8 11.0401L81.56 0.310059H58.39V21.7701H60.74V4.30006L73.11 16.6401L67.98 21.7701H71.36L74.8 18.3301L78.25 21.7701H81.56L76.45 16.6801L80.9 12.2301H89.58V21.7801H92.15V0.310059H89.43L74.75 14.9901V14.9801ZM83.26 9.85006L89.57 3.54006V9.85006H83.26ZM75.89 2.64006L69.14 9.38006L62.39 2.64006H75.9H75.89Z" fill="black"/>
<path d="M23.17 0.310059H0V21.7701H2.35V4.30006L19.86 21.7601H23.17L12.42 11.0301L23.17 0.310059ZM17.51 2.65006L10.76 9.39006L4 2.65006H17.51Z" fill="black"/>
<path d="M96.53 3.45006C92.34 7.64006 92.34 14.4301 96.53 18.6201C98.54 20.6301 101.27 21.7601 104.12 21.7601H114.15V19.4201H104.12C101.9 19.4201 99.76 18.5401 98.19 16.9601C94.91 13.6801 94.91 8.37006 98.19 5.10006C99.76 3.53006 101.9 2.64006 104.12 2.64006H114.15V0.310059H104.12C101.28 0.310059 98.54 1.44006 96.53 3.45006Z" fill="black"/>
<path d="M137.15 0.310059H116.42V2.70006H123.9L115.69 10.9101V21.7701H118.08V11.9001L127.28 2.70006H137.15V0.310059Z" fill="black"/>
<path d="M140.89 0.310059L130.29 10.9101V21.7701H132.68V11.9001L144.27 0.310059H140.89Z" fill="black"/>
<path d="M152.07 0C145.98 0 141.04 4.94 141.04 11.03C141.04 17.12 145.98 22.06 152.07 22.06C158.16 22.06 163.1 17.12 163.1 11.03C163.1 4.94 158.16 0 152.07 0ZM152.07 19.68C147.29 19.68 143.42 15.81 143.42 11.03C143.42 6.25 147.29 2.38 152.07 2.38C156.85 2.38 160.72 6.25 160.72 11.03C160.72 15.81 156.85 19.68 152.07 19.68Z" fill="black"/>
<path d="M21.65 9.86006L28.86 2.64006H38.4V0.310059H27.89L17.17 11.0401L27.89 21.7701H38.4V19.4301H28.86L21.65 12.2101H35.96L45.51 21.7701H48.82L39.26 12.2101H56.01V9.87006H39.26L46.47 2.65006H56.01V0.310059H45.5L35.95 9.87006H21.64L21.65 9.86006Z" fill="black"/>
</g>
<defs>
<clipPath id="clip0_23_1070">
<rect width="188.16" height="22.07" fill="white"/>
</clipPath>
</defs>
</svg>
