<svg width="189" height="44" viewBox="0 0 189 44" fill="none" xmlns="http://www.w3.org/2000/svg">
<path d="M7.43643 44.0002C7.51616 43.9521 7.59588 43.9039 7.71946 43.8277C6.52357 43.4105 6.21662 42.5079 6.24054 41.3805C6.2525 40.6464 6.3402 39.9042 6.16879 39.1741C5.90968 38.0668 5.32768 37.5894 4.20355 37.5694C3.43419 37.5533 2.66085 37.5774 1.8915 37.5654C0.759389 37.5493 0.00597944 36.8192 0.00597944 35.6919C-0.00199315 30.5889 -0.00199315 25.482 0.00597944 20.379C0.00597944 19.356 0.839115 18.5858 1.97521 18.5457C2.77645 18.5176 3.58168 18.5416 4.38293 18.5376C5.47119 18.5376 6.22858 17.7955 6.24851 16.7002C6.26047 15.9139 6.24453 15.1276 6.2525 14.3413C6.26845 13.0776 7.07368 12.2793 8.34132 12.2793C15.9033 12.2793 23.4653 12.2793 31.0273 12.2793C31.6292 12.2793 31.6532 12.3074 31.6532 12.9011C31.6532 23.111 31.6492 33.3169 31.6452 43.5268C31.6452 43.6913 31.6452 43.8478 31.7209 43.9962H7.43643V44.0002ZM25.2352 28.0535C25.2352 25.1169 25.2352 22.1803 25.2392 19.2437C25.2392 18.8746 25.1635 18.6861 24.7369 18.6861C19.3116 18.6941 13.8823 18.678 8.45692 18.6861C7.08962 18.6861 6.38804 19.4323 6.38405 20.7922C6.37608 22.1241 6.39202 23.456 6.39202 24.7879C6.39202 28.3504 6.38405 31.9128 6.39999 35.4753C6.40398 36.6908 7.16935 37.4169 8.36922 37.4169C13.7786 37.4169 19.188 37.4169 24.6014 37.4169C25.2352 37.4169 25.2392 37.4169 25.2392 36.767C25.2392 33.8625 25.2392 30.958 25.2392 28.0535H25.2352Z" fill="white"/>
<path d="M34.7947 43.9962C34.8836 43.8317 34.8715 43.6552 34.8715 43.4786C34.8715 36.0158 34.8715 28.553 34.8674 21.0902C34.8674 20.9137 34.8674 20.7371 34.8755 20.5606C34.9604 19.373 35.789 18.5745 37.0016 18.5384C37.7008 18.5184 38.4 18.5304 39.0993 18.5384C40.5665 18.5464 41.2577 17.9045 41.2981 16.452C41.3223 15.6977 41.2981 14.9434 41.3062 14.1891C41.3142 13.0777 42.1186 12.2793 43.2463 12.2793C49.0908 12.2793 54.9313 12.2793 60.7759 12.2833C61.3822 12.2833 61.3903 12.3074 61.3903 12.9172C61.3903 14.458 61.3903 15.9987 61.3903 17.5394C61.3903 18.8273 61.5398 18.6829 60.21 18.6829C54.7414 18.6829 49.2727 18.6829 43.804 18.6668C43.0967 18.6668 42.4419 18.7591 41.9246 19.2927C41.6295 19.5977 41.4476 19.9347 41.4517 20.364C41.4557 21.1986 41.4517 22.0331 41.4517 22.8677C41.4517 29.5762 41.4598 36.2847 41.4598 42.9932C41.4598 43.3302 41.4436 43.6632 41.4355 44.0002H34.7906L34.7947 43.9962Z" fill="white"/>
<path d="M72.1445 43.9881C72.1972 43.9204 72.3959 43.8647 72.1688 43.7652C71.0903 43.2877 70.7781 42.4202 70.8349 41.3378C70.8673 40.7011 70.8552 40.0644 70.8389 39.4277C70.8187 38.3931 70.0848 37.6529 69.0265 37.6171C68.1791 37.5892 67.3276 37.6091 66.4802 37.6091C65.2882 37.6091 64.4773 36.8331 64.4732 35.6632C64.4651 30.2035 64.4732 24.7398 64.4651 19.2801C64.4651 18.8703 64.5867 18.7151 65.0246 18.723C66.3302 18.7469 67.6358 18.731 68.9454 18.735C70.1091 18.735 70.8308 18.0346 70.843 16.8925C70.847 16.0966 70.8552 15.3008 70.8349 14.5049C70.8024 13.331 70.1132 12.6863 68.9211 12.6863C67.6317 12.6863 66.3424 12.6744 65.049 12.6943C64.6354 12.7022 64.4691 12.5829 64.4691 12.1531C64.4813 8.26921 64.4773 4.38534 64.4691 0.497498C64.4691 0.119457 64.6192 7.62107e-05 64.9922 7.62107e-05C66.7884 0.0120143 68.5846 0.0159937 70.3808 7.62107e-05C70.8511 -0.00390316 71.0011 0.147313 71.0011 0.604941C70.9849 3.62926 70.993 6.65359 71.0011 9.68189C71.0011 10.0162 71.0254 10.3504 71.066 10.6807C71.2241 11.8984 71.9053 12.5033 73.1866 12.5271C74.4273 12.551 75.668 12.547 76.9087 12.5311C77.3385 12.5232 77.4723 12.6704 77.4682 13.0882C77.448 14.8073 77.4601 16.5264 77.4601 18.2455C77.4601 18.8623 77.4398 18.8862 76.7952 18.8862C75.6518 18.8862 74.5084 18.8782 73.365 18.8742C72.9717 18.8742 72.5824 18.9061 72.2094 19.0374C71.4552 19.2961 71.0133 19.9049 71.0011 20.7724C70.9849 22.1413 70.993 23.5102 70.993 24.8791C70.993 28.3969 70.993 31.9146 70.993 35.4364C70.993 35.9935 71.0984 36.5148 71.5201 36.9287C71.9215 37.3266 72.4081 37.4778 72.9798 37.4778C76.3451 37.4659 79.7064 37.4698 83.0717 37.4698C83.5826 37.4698 83.8367 37.7126 83.834 38.1981C83.8259 40.0445 83.8178 41.8909 83.8096 43.7374C83.8096 43.8408 83.8461 43.9204 83.9069 44H72.1486L72.1445 43.9881Z" fill="white"/>
<path d="M94.4073 44C94.4869 43.9522 94.5666 43.9005 94.6701 43.8328C93.6547 43.3871 93.2844 42.5991 93.3202 41.5604C93.3441 40.8918 93.3361 40.2232 93.3242 39.5546C93.3043 38.4284 92.5636 37.6643 91.4247 37.6205C90.6562 37.5926 89.8837 37.6205 89.1152 37.6125C87.8011 37.6046 86.9888 36.8484 86.9888 35.547C86.9728 30.6759 86.9728 25.8007 86.9888 20.9295C86.9927 19.5485 87.8409 18.7526 89.2346 18.7406C89.9554 18.7367 90.6801 18.7406 91.4009 18.7406C92.5835 18.7406 93.3162 18.0163 93.3242 16.8264C93.3321 16.0782 93.3202 15.33 93.3242 14.5818C93.3321 13.2964 94.1007 12.5323 95.3869 12.5323C100.679 12.5323 105.975 12.5323 111.267 12.5323C111.883 12.5323 112.19 12.2351 112.187 11.6408C112.187 7.97945 112.187 4.31412 112.187 0.652763C112.187 0.0160062 112.195 0.0080467 112.828 0.0080467C114.592 0.0080467 116.356 0.0199859 118.12 8.72391e-05C118.558 -0.00389249 118.698 0.127439 118.698 0.569189C118.69 14.8524 118.69 29.1397 118.69 43.4229C118.69 43.614 118.67 43.805 118.658 43.996H94.4033L94.4073 44ZM112.187 28.1925C112.187 25.2793 112.183 22.3622 112.195 19.449C112.195 19.0471 112.084 18.8839 111.65 18.8839C106.31 18.8919 100.966 18.876 95.6258 18.8839C94.1086 18.8839 93.4675 19.5684 93.4675 21.0648C93.4675 24.3919 93.4675 27.7229 93.4715 31.05C93.4715 32.5782 93.4596 34.1064 93.4835 35.6346C93.4994 36.7688 94.24 37.4653 95.3749 37.4653C100.767 37.4653 106.154 37.4653 111.546 37.4653C112.191 37.4653 112.195 37.4653 112.195 36.8325C112.195 33.9512 112.195 31.0659 112.195 28.1845L112.187 28.1925Z" fill="white"/>
<path d="M129.289 44.0002C129.361 43.9441 129.436 43.8919 129.539 43.8117C128.395 43.4546 128.061 42.6282 128.093 41.533C128.113 40.7507 128.18 39.9604 128.037 39.1821C127.859 38.2153 127.207 37.6215 126.221 37.5774C125.407 37.5453 124.588 37.5694 123.774 37.5654C122.629 37.5614 121.799 36.763 121.779 35.6117C121.759 34.4723 121.771 33.333 121.771 32.1936C121.771 28.4547 121.771 24.7157 121.771 20.9768C121.771 19.2758 122.506 18.5416 124.199 18.5376C124.87 18.5376 125.542 18.5416 126.214 18.5376C127.326 18.5336 128.081 17.7914 128.097 16.6682C128.109 15.8658 128.097 15.0635 128.101 14.2611C128.109 13.0616 128.9 12.2793 130.096 12.2793C137.65 12.2793 145.203 12.2793 152.753 12.2793C153.401 12.2793 153.421 12.2953 153.421 12.9051C153.421 23.111 153.417 33.3209 153.413 43.5268C153.413 43.6913 153.413 43.8478 153.488 43.9962H129.285L129.289 44.0002ZM146.928 28.0776C146.928 25.1891 146.928 22.3007 146.928 19.4082C146.928 18.9241 146.682 18.6821 146.189 18.6821C141.019 18.6821 135.85 18.678 130.68 18.674C130.473 18.674 130.263 18.674 130.056 18.6901C128.947 18.7743 128.26 19.4844 128.244 20.5916C128.232 21.5224 128.244 22.4531 128.244 23.3838C128.244 27.4116 128.244 31.4434 128.252 35.4712C128.252 36.7069 128.983 37.4169 130.195 37.4169C135.54 37.4169 140.888 37.4169 146.233 37.4169C146.694 37.4169 146.924 37.1923 146.924 36.743C146.924 33.8545 146.924 30.966 146.924 28.0736L146.928 28.0776Z" fill="white"/>
<path d="M164.055 43.9962C164.158 43.912 164.277 43.8478 164.047 43.7475C163.148 43.3543 162.851 42.624 162.882 41.6852C162.906 40.9629 162.91 40.2407 162.874 39.5185C162.819 38.3269 162.062 37.5967 160.878 37.5686C160.113 37.5525 159.345 37.5686 158.58 37.5686C157.459 37.5686 156.683 36.8624 156.572 35.735C156.564 35.6387 156.56 35.5424 156.56 35.4461C156.56 30.503 156.556 25.5559 156.56 20.6128C156.56 19.389 157.376 18.5665 158.608 18.5384C159.372 18.5184 160.141 18.5384 160.906 18.5384C162.054 18.5384 162.815 17.8523 162.874 16.6888C162.918 15.8703 162.882 15.0518 162.89 14.2333C162.898 13.0497 163.663 12.2793 164.843 12.2793C169.823 12.2793 174.798 12.2793 179.778 12.2793C180.962 12.2793 181.778 13.1018 181.798 14.3015C181.81 15.0718 181.798 15.8422 181.802 16.6125C181.814 17.7881 182.555 18.5264 183.731 18.5344C184.464 18.5384 185.201 18.5304 185.934 18.5344C187.277 18.5464 188.148 19.4653 188.089 20.8094C187.899 25.2228 188.049 29.6363 188.01 34.0498C188.01 34.1742 188.029 34.2986 188.113 34.423C188.121 34.2785 188.132 34.1341 188.132 33.9896C188.132 30.6554 188.148 27.3172 188.121 23.9831C188.113 23.0522 188.117 22.1214 188.16 21.1945C188.172 20.9578 188.148 20.7091 188.279 20.4924V35.426C188.156 35.2615 188.216 35.0449 188.097 34.7319C188.097 34.9686 188.097 35.0649 188.097 35.1612C188.117 36.8383 187.384 37.5806 185.732 37.5686C185.047 37.5646 184.361 37.5405 183.676 37.5686C182.519 37.6207 181.802 38.4031 181.798 39.5627C181.798 40.3651 181.798 41.1636 181.798 41.966C181.798 42.5237 181.564 42.9891 181.184 43.3823C180.966 43.607 180.665 43.7073 180.352 43.8518C180.483 43.924 180.55 43.9641 180.618 44.0002H164.055V43.9962ZM163.033 28.0555C163.033 30.5431 163.033 33.0307 163.033 35.5183C163.033 36.7581 163.686 37.4121 164.926 37.4121C169.902 37.4121 174.881 37.4121 179.857 37.4121C180.641 37.4121 181.137 37.0069 181.481 36.3488C181.691 35.9476 181.659 35.5063 181.663 35.077C181.663 30.4067 181.663 25.7364 181.667 21.0661C181.667 20.8415 181.667 20.6168 181.648 20.3921C181.568 19.4532 180.867 18.7591 179.936 18.6869C179.683 18.6668 179.425 18.6708 179.172 18.6668C174.576 18.6668 169.985 18.6628 165.39 18.6628C165.184 18.6628 164.974 18.6628 164.768 18.6829C163.694 18.7792 163.037 19.5094 163.037 20.5887C163.037 23.0763 163.037 25.5639 163.037 28.0515L163.033 28.0555Z" fill="white"/>
</svg>
