<svg width="773" height="32" viewBox="0 0 773 32" fill="none" xmlns="http://www.w3.org/2000/svg">
<path d="M765.014 30.7728L761.829 22.6614L763.825 24.0629H748.07L750.065 22.6614L746.838 30.7728H739.873L752.486 1.17268H759.366L772.021 30.7728H765.014ZM754.227 6.09894C754.256 7.2031 754.241 8.23651 754.185 9.19911C754.128 10.1334 754.001 11.0677 753.803 12.002C753.633 12.908 753.392 13.8423 753.081 14.8049C752.713 15.8524 751.92 17.6219 750.703 20.1133L749.768 19.1366H762.084L761.15 20.1133C760.555 18.8959 760.003 17.6502 759.493 16.3762C758.757 14.5925 758.276 12.9363 758.049 11.4074C757.823 9.85027 757.738 8.08077 757.795 6.09894H754.227Z" fill="white"/>
<path d="M716.104 1.17268H729.864C733.629 1.17268 736.447 1.838 738.315 3.16866C740.184 4.471 741.118 6.43868 741.118 9.07169C741.118 10.6855 740.693 12.0303 739.844 13.1062C738.995 14.182 737.848 15.003 736.404 15.5693C734.96 16.1355 733.332 16.4753 731.52 16.5885V19.9859C732.823 20.0426 733.941 20.3257 734.875 20.8353C735.838 21.3166 736.73 22.1093 737.551 23.2135L737.678 23.3834L743.114 30.7728H735.427L730.756 24.1053C730.643 23.9354 730.529 23.7656 730.416 23.5957C729.595 22.4349 728.93 21.6139 728.42 21.1326C727.939 20.6513 727.401 20.3257 726.806 20.1558C726.212 19.9576 725.348 19.8585 724.216 19.8585H721.031L722.644 18.2872V30.7728H716.104V1.17268ZM721.031 15.6967H728.675C729.977 15.6967 731.053 15.5268 731.903 15.1871C732.78 14.819 733.431 14.2811 733.856 13.5733C734.309 12.8655 734.536 11.9737 734.536 10.8978C734.536 9.34066 734.054 8.17987 733.092 7.41545C732.129 6.65103 730.657 6.26881 728.675 6.26881H721.031L722.644 4.61256V17.2255L721.031 15.6967Z" fill="white"/>
<path d="M708.937 30.7728L705.752 22.6614L707.748 24.0629H691.992L693.988 22.6614L690.76 30.7728H683.796L696.409 1.17268H703.288L715.944 30.7728H708.937ZM698.15 6.09894C698.178 7.2031 698.164 8.23651 698.107 9.19911C698.051 10.1334 697.923 11.0677 697.725 12.002C697.555 12.908 697.315 13.8423 697.003 14.8049C696.635 15.8524 695.842 17.6219 694.625 20.1133L693.691 19.1366H706.006L705.072 20.1133C704.478 18.8959 703.925 17.6502 703.416 16.3762C702.68 14.5925 702.198 12.9363 701.972 11.4074C701.745 9.85027 701.661 8.08077 701.717 6.09894H698.15Z" fill="white"/>
<path d="M677.067 1.17268H683.649V30.7728H677.067V1.17268ZM657.829 1.17268H664.369V30.7728H657.829V1.17268ZM663.817 13.1062H677.661V18.4571H663.817V13.1062Z" fill="white"/>
<path d="M649.407 1.17268H655.947V30.7728H649.407V1.17268Z" fill="white"/>
<path d="M642.239 30.7728L639.054 22.6614L641.05 24.0629H625.294L627.29 22.6614L624.063 30.7728H617.098L629.711 1.17268H636.591L649.246 30.7728H642.239ZM631.452 6.09894C631.48 7.2031 631.466 8.23651 631.41 9.19911C631.353 10.1334 631.226 11.0677 631.027 12.002C630.857 12.908 630.617 13.8423 630.305 14.8049C629.937 15.8524 629.145 17.6219 627.927 20.1133L626.993 19.1366H639.309L638.374 20.1133C637.78 18.8959 637.228 17.6502 636.718 16.3762C635.982 14.5925 635.501 12.9363 635.274 11.4074C635.048 9.85027 634.963 8.08077 635.019 6.09894H631.452Z" fill="white"/>
<path d="M594.213 31.3248C591.241 31.3248 588.579 30.6737 586.229 29.3713C583.879 28.0407 582.039 26.2146 580.709 23.893C579.378 21.5431 578.713 18.9101 578.713 15.9939C578.713 13.0778 579.378 10.459 580.709 8.13739C582.039 5.81581 583.879 4.00386 586.229 2.70151C588.579 1.37085 591.241 0.705521 594.213 0.705521C597.158 0.705521 599.805 1.37085 602.155 2.70151C604.533 4.00386 606.387 5.81581 607.718 8.13739C609.049 10.459 609.714 13.0778 609.714 15.9939C609.714 18.9101 609.049 21.5431 607.718 23.893C606.387 26.2146 604.533 28.0407 602.155 29.3713C599.805 30.6737 597.158 31.3248 594.213 31.3248ZM594.213 25.9314C595.997 25.9314 597.554 25.5068 598.885 24.6574C600.215 23.808 601.235 22.6331 601.943 21.1326C602.65 19.632 603.004 17.9192 603.004 15.9939C603.004 14.0687 602.65 12.3559 601.943 10.8553C601.235 9.3548 600.215 8.17986 598.885 7.33051C597.554 6.48115 595.997 6.05647 594.213 6.05647C592.43 6.05647 590.873 6.48115 589.542 7.33051C588.211 8.17986 587.178 9.3548 586.442 10.8553C585.734 12.3559 585.38 14.0687 585.38 15.9939C585.38 17.9192 585.734 19.632 586.442 21.1326C587.178 22.6331 588.211 23.808 589.542 24.6574C590.873 25.5068 592.43 25.9314 594.213 25.9314Z" fill="white"/>
<path d="M553.592 1.17268H567.351C571.117 1.17268 573.934 1.838 575.803 3.16866C577.671 4.471 578.605 6.43868 578.605 9.07169C578.605 10.6855 578.181 12.0303 577.331 13.1062C576.482 14.182 575.335 15.003 573.891 15.5693C572.448 16.1355 570.82 16.4753 569.008 16.5885V19.9859C570.31 20.0426 571.428 20.3257 572.363 20.8353C573.325 21.3166 574.217 22.1093 575.038 23.2135L575.166 23.3834L580.601 30.7728H572.915L568.243 24.1053C568.13 23.9354 568.017 23.7656 567.904 23.5957C567.083 22.4349 566.417 21.6139 565.908 21.1326C565.426 20.6513 564.888 20.3257 564.294 20.1558C563.699 19.9576 562.836 19.8585 561.703 19.8585H558.518L560.132 18.2872V30.7728H553.592V1.17268ZM558.518 15.6967H566.162C567.465 15.6967 568.541 15.5268 569.39 15.1871C570.268 14.819 570.919 14.2811 571.343 13.5733C571.796 12.8655 572.023 11.9737 572.023 10.8978C572.023 9.34066 571.542 8.17987 570.579 7.41545C569.616 6.65103 568.144 6.26881 566.162 6.26881H558.518L560.132 4.61256V17.2255L558.518 15.6967Z" fill="white"/>
<path d="M545.17 1.17268H551.71V30.7728H545.17V1.17268Z" fill="white"/>
<path d="M536.742 1.17268H543.325V30.7728H536.742V1.17268ZM517.504 1.17268H524.044V30.7728H517.504V1.17268ZM523.492 13.1062H537.337V18.4571H523.492V13.1062Z" fill="white"/>
<path d="M502.749 31.3673C500.088 31.3673 497.766 30.9002 495.784 29.9659C493.802 29.0033 492.273 27.5735 491.198 25.6766C490.15 23.7797 489.626 21.4582 489.626 18.7119V1.17268H496.166V18.542C496.166 20.1275 496.421 21.4723 496.931 22.5765C497.469 23.6523 498.219 24.4734 499.182 25.0396C500.172 25.5775 501.362 25.8465 502.749 25.8465C504.816 25.8465 506.415 25.2236 507.548 23.9779C508.709 22.7039 509.289 20.8919 509.289 18.542V1.17268H515.829V18.7119C515.829 22.8454 514.654 25.9881 512.304 28.1398C509.983 30.2915 506.798 31.3673 502.749 31.3673Z" fill="white"/>
<path d="M465.678 25.8465L482.411 5.29205L479.82 3.04126C478.999 3.77737 478.093 4.38607 477.102 4.86737C476.111 5.34867 474.979 5.71674 473.705 5.97154C472.431 6.22635 470.732 6.39622 468.609 6.48116C467.674 6.50947 466.853 6.52362 466.146 6.52362V1.17268H489.291V6.09894L472.516 26.7383L475.149 28.9042C475.97 28.253 476.89 27.7009 477.909 27.2479C478.928 26.7666 480.103 26.3703 481.434 26.0588C482.793 25.7474 484.577 25.5492 486.785 25.4643C487.748 25.436 488.611 25.4218 489.375 25.4218V30.7728H465.678V25.8465Z" fill="white"/>
<path d="M459.899 30.7728L456.714 22.6614L458.71 24.0629H442.954L444.95 22.6614L441.723 30.7728H434.758L447.371 1.17268H454.251L466.906 30.7728H459.899ZM449.112 6.09894C449.141 7.2031 449.126 8.23651 449.07 9.19911C449.013 10.1334 448.886 11.0677 448.688 12.002C448.518 12.908 448.277 13.8423 447.966 14.8049C447.598 15.8524 446.805 17.6219 445.587 20.1133L444.653 19.1366H456.969L456.035 20.1133C455.44 18.8959 454.888 17.6502 454.378 16.3762C453.642 14.5925 453.161 12.9363 452.934 11.4074C452.708 9.85027 452.623 8.08077 452.68 6.09894H449.112Z" fill="white"/>
<path d="M410.492 1.17268H417.032V6.48116C417.032 7.38714 416.919 8.22233 416.692 8.98676C416.466 9.75118 416.041 10.6147 415.418 11.5773C414.824 12.5116 413.946 13.7148 412.785 15.1871L415.588 17.1831L429.772 1.17268H437.714L424.761 14.9747L424.931 12.639L438.096 30.7728H430.239L420.642 17.268L422.468 17.4379L415.758 24.6149L417.032 21.6846V30.7728H410.492V1.17268Z" fill="white"/>
<path d="M361.956 1.17268H385.355V6.52362H366.882L368.496 4.99478V14.8049L366.882 13.3185H384.039V18.3722H366.882L368.496 16.9707V27.0356L366.882 25.4218H385.865V30.7728H361.956V1.17268Z" fill="white"/>
<path d="M345.388 4.90985L346.874 6.52362H335.577V1.17268H361.78V6.52362H350.484L351.97 4.90985V30.7728H345.388V4.90985Z" fill="white"/>
<path d="M308.118 1.17268H314.021L330.626 21.6422L333.726 19.5188C332.678 18.358 331.815 17.2963 331.135 16.3337C330.456 15.3711 329.904 14.3377 329.479 13.2335C329.054 12.1011 328.842 10.9261 328.842 9.70871V1.17268H335.425V30.7728H329.989L313.214 10.1759L310.029 12.2568C311.218 13.3893 312.152 14.5076 312.832 15.6117C314.049 17.5653 314.658 19.7028 314.658 22.0244V30.7728H308.118V1.17268Z" fill="white"/>
<path d="M300.95 30.7728L297.765 22.6614L299.761 24.0629H284.005L286.001 22.6614L282.774 30.7728H275.809L288.422 1.17268H295.302L307.957 30.7728H300.95ZM290.163 6.09894C290.191 7.2031 290.177 8.23651 290.121 9.19911C290.064 10.1334 289.937 11.0677 289.738 12.002C289.569 12.908 289.328 13.8423 289.016 14.8049C288.648 15.8524 287.856 17.6219 286.638 20.1133L285.704 19.1366H298.02L297.085 20.1133C296.491 18.8959 295.939 17.6502 295.429 16.3762C294.693 14.5925 294.212 12.9363 293.985 11.4074C293.759 9.85027 293.674 8.08077 293.73 6.09894H290.163Z" fill="white"/>
<path d="M266.275 31.3673C263.359 31.3673 260.74 30.7303 258.418 29.4563C256.125 28.1539 254.327 26.342 253.025 24.0204C251.723 21.6705 251.071 18.9809 251.071 15.9515C251.071 12.9221 251.723 10.2466 253.025 7.92506C254.356 5.60349 256.196 3.80568 258.546 2.53165C260.924 1.2293 263.614 0.578125 266.615 0.578125C268.965 0.578125 271.045 0.96034 272.857 1.72476C274.669 2.48918 276.34 3.57919 277.869 4.99478L274.556 9.36897C273.509 8.34974 272.376 7.57116 271.159 7.03323C269.941 6.46699 268.568 6.18388 267.039 6.18388C265.227 6.18388 263.599 6.60856 262.156 7.45792C260.74 8.27896 259.636 9.43974 258.843 10.9403C258.05 12.4408 257.654 14.1537 257.654 16.0789C257.654 18.0041 258.05 19.6887 258.843 21.1326C259.664 22.5765 260.782 23.6948 262.198 24.4875C263.642 25.252 265.27 25.6342 267.082 25.6342C268.639 25.6342 270.026 25.3227 271.244 24.6999C272.489 24.077 273.636 23.1993 274.684 22.0669L278.081 26.5685C276.496 28.1256 274.768 29.3147 272.9 30.1358C271.06 30.9568 268.851 31.3673 266.275 31.3673Z" fill="white"/>
<path d="M230.803 1.17268H237.343V27.0356L235.729 25.4218H253.268V30.7728H230.803V1.17268Z" fill="white"/>
<path d="M223.635 30.7728L220.45 22.6614L222.446 24.0629H206.691L208.687 22.6614L205.459 30.7728H198.494L211.107 1.17268H217.987L230.642 30.7728H223.635ZM212.848 6.09894C212.877 7.2031 212.863 8.23651 212.806 9.19911C212.749 10.1334 212.622 11.0677 212.424 12.002C212.254 12.908 212.013 13.8423 211.702 14.8049C211.334 15.8524 210.541 17.6219 209.324 20.1133L208.389 19.1366H220.705L219.771 20.1133C219.176 18.8959 218.624 17.6502 218.114 16.3762C217.378 14.5925 216.897 12.9363 216.67 11.4074C216.444 9.85027 216.359 8.08077 216.416 6.09894H212.848Z" fill="white"/>
<path d="M175.183 1.17268H182.021C182.559 2.58827 183.068 3.91892 183.55 5.16464C184.908 9.1 185.914 12.1011 186.565 14.1678C187.216 16.2063 187.669 18.0324 187.924 19.6462C188.179 21.26 188.306 23.2276 188.306 25.5492H191.831C191.831 23.2843 191.958 21.3591 192.213 19.7736C192.468 18.1598 192.907 16.362 193.529 14.3802C194.181 12.37 195.129 9.48222 196.375 5.71674C196.969 4.21621 197.564 2.70152 198.158 1.17268H204.996L193.954 30.7728H186.225L175.183 1.17268Z" fill="white"/>
<path d="M174.65 30.7728L171.464 22.6614L173.46 24.0629H157.705L159.701 22.6614L156.473 30.7728H149.509L162.121 1.17268H169.001L181.657 30.7728H174.65ZM163.863 6.09894C163.891 7.2031 163.877 8.23651 163.82 9.19911C163.764 10.1334 163.636 11.0677 163.438 12.002C163.268 12.908 163.027 13.8423 162.716 14.8049C162.348 15.8524 161.555 17.6219 160.338 20.1133L159.404 19.1366H171.719L170.785 20.1133C170.19 18.8959 169.638 17.6502 169.129 16.3762C168.393 14.5925 167.911 12.9363 167.685 11.4074C167.458 9.85027 167.373 8.08077 167.43 6.09894H163.863Z" fill="white"/>
<path d="M139.974 31.3673C137.058 31.3673 134.44 30.7303 132.118 29.4563C129.825 28.1539 128.027 26.342 126.725 24.0204C125.422 21.6705 124.771 18.9809 124.771 15.9515C124.771 12.9221 125.422 10.2466 126.725 7.92506C128.055 5.60349 129.895 3.80568 132.245 2.53165C134.624 1.2293 137.313 0.578125 140.314 0.578125C142.664 0.578125 144.745 0.96034 146.557 1.72476C148.369 2.48918 150.039 3.57919 151.568 4.99478L148.256 9.36897C147.208 8.34974 146.076 7.57116 144.858 7.03323C143.641 6.46699 142.268 6.18388 140.739 6.18388C138.927 6.18388 137.299 6.60856 135.855 7.45792C134.44 8.27896 133.335 9.43974 132.543 10.9403C131.75 12.4408 131.354 14.1537 131.354 16.0789C131.354 18.0041 131.75 19.6887 132.543 21.1326C133.364 22.5765 134.482 23.6948 135.898 24.4875C137.341 25.252 138.969 25.6342 140.781 25.6342C142.339 25.6342 143.726 25.3227 144.943 24.6999C146.189 24.077 147.336 23.1993 148.383 22.0669L151.781 26.5685C150.195 28.1256 148.468 29.3147 146.599 30.1358C144.759 30.9568 142.551 31.3673 139.974 31.3673Z" fill="white"/>
<path d="M102.912 30.8306C100.015 30.8306 97.4219 30.1961 95.1322 28.9271C92.8426 27.6306 91.0495 25.8513 89.7529 23.5892C88.4564 21.2995 87.8081 18.734 87.8081 15.8926C87.8081 13.0513 88.4564 10.4995 89.7529 8.23747C91.0495 5.9754 92.8426 4.20988 95.1322 2.94092C97.4219 1.64437 100.015 0.996094 102.912 0.996094C105.781 0.996094 108.36 1.64437 110.649 2.94092C112.967 4.20988 114.774 5.9754 116.07 8.23747C117.367 10.4995 118.015 13.0513 118.015 15.8926C118.015 18.734 117.367 21.2995 116.07 23.5892C114.774 25.8513 112.967 27.6306 110.649 28.9271C108.36 30.1961 105.781 30.8306 102.912 30.8306ZM102.912 25.5754C104.649 25.5754 106.167 25.1616 107.463 24.334C108.76 23.5064 109.753 22.3616 110.443 20.8995C111.132 19.4375 111.477 17.7685 111.477 15.8926C111.477 14.0168 111.132 12.3478 110.443 10.8857C109.753 9.42368 108.76 8.27885 107.463 7.45126C106.167 6.62368 104.649 6.20988 102.912 6.20988C101.174 6.20988 99.6564 6.62368 98.3598 7.45126C97.0633 8.27885 96.0564 9.42368 95.3391 10.8857C94.6495 12.3478 94.3047 14.0168 94.3047 15.8926C94.3047 17.7685 94.6495 19.4375 95.3391 20.8995C96.0564 22.3616 97.0633 23.5064 98.3598 24.334C99.6564 25.1616 101.174 25.5754 102.912 25.5754Z" fill="white"/>
<path d="M63.3315 1.45117H76.7384C80.4074 1.45117 83.1522 2.09944 84.9729 3.396C86.7936 4.66496 87.704 6.5822 87.704 9.14772C87.704 10.7201 87.2902 12.0305 86.4626 13.0788C85.635 14.127 84.5178 14.927 83.1109 15.4788C81.704 16.0305 80.1178 16.3615 78.3522 16.4719V19.7822C79.6212 19.8374 80.7109 20.1132 81.6212 20.6098C82.5591 21.0788 83.4281 21.8512 84.2281 22.927L84.3522 23.0926L89.6488 30.2925H82.1591L77.6074 23.796C77.4971 23.6305 77.3867 23.465 77.2764 23.2994C76.4764 22.1684 75.8281 21.3684 75.3316 20.8994C74.8626 20.4305 74.3384 20.1132 73.7591 19.9477C73.1798 19.7546 72.3384 19.6581 71.235 19.6581H68.1315L69.704 18.127V30.2925H63.3315V1.45117ZM68.1315 15.6029H75.5798C76.8488 15.6029 77.8971 15.4374 78.7246 15.1063C79.5798 14.7477 80.2143 14.2236 80.6281 13.5339C81.0695 12.8443 81.2902 11.9753 81.2902 10.927C81.2902 9.40979 80.8212 8.27876 79.8833 7.53393C78.9453 6.7891 77.5109 6.41669 75.5798 6.41669H68.1315L69.704 4.80289V17.0926L68.1315 15.6029Z" fill="white"/>
<path d="M56.3471 30.2925L53.2437 22.3891L55.1885 23.7546H39.8368L41.7816 22.3891L38.6368 30.2925H31.8506L44.1402 1.45117H50.8437L63.1747 30.2925H56.3471ZM45.8368 6.25117C45.8644 7.32704 45.8506 8.33393 45.7954 9.27186C45.7402 10.1822 45.6161 11.0925 45.423 12.0029C45.2575 12.8857 45.023 13.796 44.7196 14.7339C44.3609 15.7546 43.5885 17.4788 42.4023 19.9063L41.492 18.9546H53.492L52.5816 19.9063C52.0023 18.7201 51.4644 17.5063 50.9678 16.265C50.2506 14.527 49.7816 12.9132 49.5609 11.4236C49.3402 9.90634 49.2575 8.18221 49.3127 6.25117H45.8368Z" fill="white"/>
<path d="M8.20654 1.45117H14.579V6.62359C14.579 7.50635 14.4686 8.32014 14.2479 9.06496C14.0272 9.80979 13.6134 10.6512 13.0065 11.5891C12.4272 12.4994 11.5721 13.6719 10.441 15.1063L13.1721 17.0512L26.9927 1.45117H34.7307L22.11 14.8994L22.2755 12.6236L35.1031 30.2925H27.4479L18.0962 17.1339L19.8755 17.2994L13.3376 24.2925L14.579 21.4374V30.2925H8.20654V1.45117Z" fill="white"/>
<path d="M0 1.45117H6.37241V30.2925H0V1.45117Z" fill="white"/>
</svg>
