<svg width="565" height="31" viewBox="0 0 565 31" fill="none" xmlns="http://www.w3.org/2000/svg">
<path d="M540.8 0.594548H564.2V5.9455H545.726L547.34 4.41665V14.2267L545.726 12.7404H562.883V17.794H545.726L547.34 16.3926V26.4575L545.726 24.8437H564.709V30.1947H540.8V0.594548Z" fill="white"/>
<path d="M518.194 0.594548H524.734V26.4575L523.12 24.8437H540.66V30.1947H518.194V0.594548Z" fill="white"/>
<path d="M495.588 0.594548H502.128V26.4575L500.515 24.8437H518.054V30.1947H495.588V0.594548Z" fill="white"/>
<path d="M487.166 0.594548H493.706V30.1947H487.166V0.594548Z" fill="white"/>
<path d="M457.221 0.594548H464.059C464.597 2.01014 465.106 3.3408 465.587 4.58653C466.946 8.52188 467.951 11.5229 468.603 13.5897C469.254 15.6282 469.707 17.4543 469.962 19.0681C470.216 20.6818 470.344 22.6495 470.344 24.9711H473.869C473.869 22.7061 473.996 20.7809 474.251 19.1955C474.506 17.5817 474.945 15.7839 475.567 13.8021C476.219 11.7919 477.167 8.90409 478.413 5.13861C479.007 3.63808 479.602 2.12339 480.196 0.594548H487.034L475.992 30.1947H468.263L457.221 0.594548Z" fill="white"/>
<path d="M456.687 30.1947L453.502 22.0833L455.498 23.4847H439.743L441.739 22.0833L438.511 30.1947H431.546L444.159 0.594548H451.039L463.695 30.1947H456.687ZM445.901 5.52082C445.929 6.62498 445.915 7.65837 445.858 8.62097C445.801 9.55527 445.674 10.4896 445.476 11.4239C445.306 12.3298 445.065 13.2641 444.754 14.2267C444.386 15.2743 443.593 17.0438 442.376 19.5352L441.441 18.5585H453.757L452.823 19.5352C452.228 18.3178 451.676 17.0721 451.167 15.798C450.43 14.0144 449.949 12.3581 449.723 10.8293C449.496 9.27215 449.411 7.50265 449.468 5.52082H445.901Z" fill="white"/>
<path d="M421.508 30.7467C419.045 30.7467 416.879 30.4353 415.011 29.8124C413.171 29.1896 411.741 28.2978 410.722 27.137C409.702 25.9479 409.193 24.5889 409.193 23.06C409.193 21.6728 409.603 20.512 410.424 19.5777C411.245 18.6434 412.35 17.9356 413.737 17.4543C415.152 16.9447 416.724 16.6757 418.451 16.6474V13.2075C416.497 13.1226 414.784 12.8819 413.312 12.4855C411.84 12.0609 410.665 11.4097 409.787 10.532C408.91 9.65436 408.471 8.50773 408.471 7.09213C408.471 5.64822 408.938 4.4025 409.872 3.35496C410.806 2.27911 412.151 1.45806 413.907 0.891821C415.662 0.325584 417.701 0.0424648 420.022 0.0424648C422.825 0.0424648 425.373 0.424676 427.666 1.1891C429.96 1.95352 432.168 3.05768 434.291 4.50159L431.361 9.30046C429.945 8.13967 428.218 7.20538 426.18 6.49758C424.17 5.78978 422.188 5.42173 420.234 5.39342C418.621 5.39342 417.389 5.67654 416.54 6.24277C415.69 6.7807 415.266 7.4885 415.266 8.36617C415.266 8.98903 415.478 9.52696 415.903 9.97995C416.327 10.4046 416.922 10.7727 417.686 11.0841C418.479 11.3672 419.484 11.622 420.702 11.8485L424.226 12.6554C427.227 13.2783 429.577 14.3117 431.276 15.7556C433.003 17.1995 433.867 19.1388 433.867 21.5737C433.867 23.1875 433.371 24.7021 432.38 26.1177C431.389 27.505 429.96 28.6233 428.091 29.4727C426.222 30.3221 424.028 30.7467 421.508 30.7467ZM421.678 26.0328C422.811 26.0328 423.787 25.8346 424.609 25.4382C425.458 25.0419 426.095 24.5181 426.52 23.8669C426.973 23.2158 427.199 22.4938 427.199 21.7011C427.199 20.8234 426.958 20.059 426.477 19.4078C426.024 18.7283 425.359 18.2046 424.481 17.8365C423.632 17.4401 422.655 17.242 421.551 17.242C420.503 17.242 419.555 17.426 418.706 17.794C417.856 18.1621 417.191 18.6859 416.709 19.3653C416.228 20.0165 415.988 20.7809 415.988 21.6586C415.988 22.4797 416.228 23.2299 416.709 23.9094C417.191 24.5606 417.856 25.0844 418.706 25.4807C419.583 25.8488 420.574 26.0328 421.678 26.0328Z" fill="white"/>
<path d="M393.93 30.1947L390.744 22.0833L392.74 23.4847H376.985L378.981 22.0833L375.753 30.1947H368.788L381.401 0.594548H388.281L400.937 30.1947H393.93ZM383.143 5.52082C383.171 6.62498 383.157 7.65837 383.1 8.62097C383.044 9.55527 382.916 10.4896 382.718 11.4239C382.548 12.3298 382.308 13.2641 381.996 14.2267C381.628 15.2743 380.835 17.0438 379.618 19.5352L378.683 18.5585H390.999L390.065 19.5352C389.47 18.3178 388.918 17.0721 388.409 15.798C387.673 14.0144 387.191 12.3581 386.965 10.8293C386.738 9.27215 386.653 7.50265 386.71 5.52082H383.143Z" fill="white"/>
<path d="M344.522 0.594548H351.062V5.90303C351.062 6.80901 350.949 7.64421 350.722 8.40864C350.496 9.17306 350.071 10.0366 349.448 10.9992C348.854 11.9335 347.976 13.1367 346.815 14.6089L349.618 16.6049L363.803 0.594548H371.744L358.791 14.3966L358.961 12.0609L372.126 30.1947H364.27L354.672 16.6899L356.498 16.8597L349.788 24.0368L351.062 21.1065V30.1947H344.522V0.594548Z" fill="white"/>
<path d="M332.294 30.7892C329.378 30.7892 326.759 30.1522 324.438 28.8781C322.144 27.5758 320.346 25.7638 319.044 23.4423C317.742 21.0924 317.091 18.4027 317.091 15.3734C317.091 12.344 317.742 9.66852 319.044 7.34694C320.375 5.02536 322.215 3.22756 324.565 1.95352C326.943 0.651174 329.633 0 332.634 0C334.984 0 337.065 0.382211 338.877 1.14663C340.689 1.91105 342.359 3.00106 343.888 4.41666L340.575 8.79085C339.528 7.77162 338.395 6.99304 337.178 6.45512C335.96 5.88888 334.587 5.60576 333.058 5.60576C331.247 5.60576 329.619 6.03044 328.175 6.87979C326.759 7.70084 325.655 8.86163 324.862 10.3622C324.069 11.8627 323.673 13.5756 323.673 15.5008C323.673 17.426 324.069 19.1105 324.862 20.5544C325.683 21.9984 326.802 23.1167 328.217 23.9094C329.661 24.6738 331.289 25.056 333.101 25.056C334.658 25.056 336.045 24.7446 337.263 24.1217C338.508 23.4989 339.655 22.6212 340.703 21.4887L344.1 25.9903C342.515 27.5475 340.788 28.7366 338.919 29.5576C337.079 30.3787 334.87 30.7892 332.294 30.7892Z" fill="white"/>
<path d="M294.375 0.594548H317.775V5.9455H299.302L300.915 4.41665V14.2267L299.302 12.7404H316.459V17.794H299.302L300.915 16.3926V26.4575L299.302 24.8437H318.285V30.1947H294.375V0.594548Z" fill="white"/>
<path d="M267.538 0.594548H282.275C284.426 0.594548 286.238 0.821042 287.71 1.27403C289.211 1.69871 290.358 2.42067 291.15 3.43989C291.971 4.43081 292.382 5.70485 292.382 7.262C292.382 8.56435 292.099 9.65436 291.532 10.532C290.966 11.3814 290.145 12.0184 289.069 12.4431C288.022 12.8678 286.748 13.1226 285.247 13.2075V16.6474C286.974 16.6757 288.432 16.9022 289.621 17.3269C290.839 17.7516 291.773 18.4027 292.424 19.2804C293.075 20.1581 293.401 21.3047 293.401 22.7203C293.401 24.3624 292.948 25.7355 292.042 26.8397C291.165 27.9439 289.933 28.7791 288.348 29.3453C286.762 29.9115 284.922 30.1947 282.827 30.1947H267.538V0.594548ZM281.595 25.0985C282.671 25.0985 283.591 24.9711 284.355 24.7163C285.148 24.4332 285.743 24.0085 286.139 23.4423C286.564 22.876 286.776 22.1541 286.776 21.2764C286.776 20.4554 286.564 19.7759 286.139 19.2379C285.743 18.7 285.162 18.3036 284.398 18.0488C283.634 17.794 282.699 17.6666 281.595 17.6666H274.121V25.0985H281.595ZM280.618 12.8253C282.345 12.8253 283.633 12.5422 284.483 11.9759C285.36 11.3814 285.799 10.4471 285.799 9.17306C285.799 7.95564 285.36 7.07797 284.483 6.54005C283.633 5.97381 282.345 5.69069 280.618 5.69069H274.121V12.8253H280.618Z" fill="white"/>
<path d="M236.764 30.1947L233.578 22.0833L235.574 23.4847H219.819L221.815 22.0833L218.587 30.1947H211.623L224.236 0.594548H231.115L243.771 30.1947H236.764ZM225.977 5.52082C226.005 6.62498 225.991 7.65837 225.934 8.62097C225.878 9.55527 225.75 10.4896 225.552 11.4239C225.382 12.3298 225.142 13.2641 224.83 14.2267C224.462 15.2743 223.669 17.0438 222.452 19.5352L221.518 18.5585H233.833L232.899 19.5352C232.304 18.3178 231.752 17.0721 231.243 15.798C230.507 14.0144 230.025 12.3581 229.799 10.8293C229.572 9.27215 229.487 7.50265 229.544 5.52082H225.977Z" fill="white"/>
<path d="M204.899 0.594548H211.439V30.1947H204.899V0.594548Z" fill="white"/>
<path d="M192.671 30.7892C189.755 30.7892 187.136 30.1522 184.814 28.8781C182.521 27.5758 180.723 25.7638 179.421 23.4423C178.119 21.0924 177.468 18.4027 177.468 15.3734C177.468 12.344 178.119 9.66852 179.421 7.34694C180.752 5.02536 182.592 3.22756 184.942 1.95352C187.32 0.651174 190.01 0 193.011 0C195.361 0 197.442 0.382211 199.254 1.14663C201.066 1.91105 202.736 3.00106 204.265 4.41666L200.952 8.79085C199.905 7.77162 198.772 6.99304 197.555 6.45512C196.338 5.88888 194.964 5.60576 193.436 5.60576C191.624 5.60576 189.996 6.03044 188.552 6.87979C187.136 7.70084 186.032 8.86163 185.239 10.3622C184.446 11.8627 184.05 13.5756 184.05 15.5008C184.05 17.426 184.446 19.1105 185.239 20.5544C186.06 21.9984 187.179 23.1167 188.594 23.9094C190.038 24.6738 191.666 25.056 193.478 25.056C195.035 25.056 196.422 24.7446 197.64 24.1217C198.885 23.4989 200.032 22.6212 201.08 21.4887L204.477 25.9903C202.892 27.5475 201.165 28.7366 199.296 29.5576C197.456 30.3787 195.248 30.7892 192.671 30.7892Z" fill="white"/>
<path d="M163.349 30.7892C160.688 30.7892 158.366 30.3221 156.385 29.3878C154.403 28.4252 152.874 26.9954 151.798 25.0985C150.751 23.2016 150.227 20.88 150.227 18.1338V0.594548H156.767V17.9639C156.767 19.5494 157.022 20.8942 157.531 21.9984C158.069 23.0742 158.819 23.8953 159.782 24.4615C160.773 24.9994 161.962 25.2684 163.349 25.2684C165.416 25.2684 167.016 24.6455 168.148 23.3998C169.309 22.1258 169.889 20.3138 169.889 17.9639V0.594548H176.429V18.1338C176.429 22.2673 175.254 25.4099 172.905 27.5616C170.583 29.7133 167.398 30.7892 163.349 30.7892Z" fill="white"/>
<path d="M129.119 0.594548H135.659V26.4575L134.045 24.8437H151.584V30.1947H129.119V0.594548Z" fill="white"/>
<path d="M114.068 30.1947L110.883 22.0833L112.879 23.4847H97.1234L99.1193 22.0833L95.8918 30.1947H88.927L101.54 0.594548H108.42L121.075 30.1947H114.068ZM103.281 5.52082C103.31 6.62498 103.295 7.65837 103.239 8.62097C103.182 9.55527 103.055 10.4896 102.857 11.4239C102.687 12.3298 102.446 13.2641 102.135 14.2267C101.766 15.2743 100.974 17.0438 99.7563 19.5352L98.822 18.5585H111.138L110.203 19.5352C109.609 18.3178 109.057 17.0721 108.547 15.798C107.811 14.0144 107.33 12.3581 107.103 10.8293C106.877 9.27215 106.792 7.50265 106.849 5.52082H103.281Z" fill="white"/>
<path d="M61.4673 0.594548H67.3704L83.9752 21.0641L87.0754 18.9407C86.0279 17.7799 85.1643 16.7182 84.4849 15.7556C83.8054 14.793 83.2533 13.7596 82.8286 12.6554C82.4039 11.5229 82.1915 10.348 82.1915 9.13059V0.594548H88.774V30.1947H83.3383L66.5634 9.59774L63.3783 11.6787C64.5674 12.8111 65.5018 13.9295 66.1813 15.0336C67.3987 16.9871 68.0073 19.1247 68.0073 21.4463V30.1947H61.4673V0.594548Z" fill="white"/>
<path d="M32.3087 0.594548H38.2118L54.8168 21.0641L57.9169 18.9407C56.8693 17.7799 56.0058 16.7182 55.3263 15.7556C54.6468 14.793 54.0948 13.7596 53.6702 12.6554C53.2455 11.5229 53.0331 10.348 53.0331 9.13059V0.594548H59.6156V30.1947H54.1797L37.4049 9.59774L34.2198 11.6787C35.4089 12.8111 36.3432 13.9295 37.0227 15.0336C38.2401 16.9871 38.8488 19.1247 38.8488 21.4463V30.1947H32.3087V0.594548Z" fill="white"/>
<path d="M25.141 30.1947L21.9559 22.0833L23.9519 23.4847H8.19629L10.1923 22.0833L6.96472 30.1947H0L12.6129 0.594548H19.4928L32.1482 30.1947H25.141ZM14.3541 5.52082C14.3824 6.62498 14.3683 7.65837 14.3116 8.62097C14.255 9.55527 14.1276 10.4896 13.9294 11.4239C13.7596 12.3298 13.519 13.2641 13.2075 14.2267C12.8395 15.2743 12.0468 17.0438 10.8293 19.5352L9.89502 18.5585H22.2107L21.2765 19.5352C20.6819 18.3178 20.1297 17.0721 19.6201 15.798C18.884 14.0144 18.4028 12.3581 18.1763 10.8293C17.9498 9.27215 17.8649 7.50265 17.9215 5.52082H14.3541Z" fill="white"/>
</svg>
