<svg width="563" height="32" viewBox="0 0 563 32" fill="none" xmlns="http://www.w3.org/2000/svg">
<path d="M549.97 31.3249C547.507 31.3249 545.341 31.0134 543.473 30.3906C541.633 29.7677 540.203 28.8759 539.184 27.7151C538.164 26.526 537.655 25.167 537.655 23.6382C537.655 22.2509 538.065 21.0901 538.886 20.1558C539.707 19.2215 540.812 18.5137 542.199 18.0324C543.614 17.5228 545.186 17.2539 546.913 17.2255V13.7856C544.959 13.7007 543.246 13.4601 541.774 13.0637C540.302 12.639 539.127 11.9878 538.249 11.1102C537.372 10.2325 536.933 9.08587 536.933 7.67027C536.933 6.22637 537.4 4.98065 538.334 3.93311C539.269 2.85725 540.613 2.03619 542.369 1.46996C544.124 0.903718 546.163 0.620605 548.484 0.620605C551.287 0.620605 553.835 1.00282 556.128 1.76724C558.422 2.53166 560.63 3.63582 562.753 5.07973L559.823 9.8786C558.407 8.71781 556.68 7.78351 554.642 7.07571C552.632 6.36792 550.65 5.99987 548.696 5.97156C547.083 5.97156 545.851 6.25467 545.002 6.82091C544.152 7.35883 543.728 8.06664 543.728 8.94431C543.728 9.56717 543.94 10.1051 544.365 10.5581C544.789 10.9828 545.384 11.3508 546.148 11.6622C546.941 11.9454 547.946 12.2002 549.164 12.4267L552.688 13.2336C555.689 13.8564 558.039 14.8898 559.738 16.3337C561.465 17.7776 562.329 19.717 562.329 22.1518C562.329 23.7656 561.833 25.2803 560.842 26.6959C559.851 28.0832 558.422 29.2015 556.553 30.0508C554.684 30.9002 552.49 31.3249 549.97 31.3249ZM550.14 26.6109C551.273 26.6109 552.25 26.4128 553.071 26.0164C553.92 25.62 554.557 25.0963 554.982 24.4451C555.435 23.7939 555.661 23.072 555.661 22.2792C555.661 21.4016 555.421 20.6371 554.939 19.986C554.486 19.3065 553.821 18.7827 552.943 18.4146C552.094 18.0183 551.117 17.8201 550.013 17.8201C548.965 17.8201 548.017 18.0041 547.168 18.3722C546.318 18.7402 545.653 19.264 545.172 19.9435C544.69 20.5947 544.45 21.3591 544.45 22.2368C544.45 23.0578 544.69 23.8081 545.172 24.4875C545.653 25.1387 546.318 25.6625 547.168 26.0589C548.045 26.4269 549.036 26.6109 550.14 26.6109Z" fill="white"/>
<path d="M516.371 1.17269H522.911V27.0356L521.297 25.4218H538.837V30.7728H516.371V1.17269Z" fill="white"/>
<path d="M493.765 1.17269H500.305V27.0356L498.692 25.4218H516.231V30.7728H493.765V1.17269Z" fill="white"/>
<path d="M485.343 1.17269H491.883V30.7728H485.343V1.17269Z" fill="white"/>
<path d="M452.037 1.17269H461.21C462.003 3.06959 462.711 4.82493 463.334 6.43871C463.956 8.02417 464.438 9.45392 464.778 10.728C465.202 12.1719 465.514 13.5308 465.712 14.8049C465.91 16.0506 466.009 17.3246 466.009 18.627H469.449C469.449 17.1831 469.576 15.7392 469.831 14.2953C470.086 12.823 470.482 11.2659 471.02 9.62379C471.558 7.9817 472.309 5.97155 473.271 3.59335C473.413 3.19699 473.738 2.3901 474.248 1.17269H483.464V30.7728H476.923C476.923 28.1681 476.966 25.5776 477.051 23.0012C477.164 20.5947 477.348 18.6411 477.603 17.1406C477.886 15.6118 478.254 14.2386 478.707 13.0212C479.16 11.8038 479.797 10.3741 480.618 8.73196L477.221 7.5004L470.214 25.5068H465.202L458.238 7.5004L454.883 8.85938C455.704 10.5015 456.341 11.9171 456.794 13.1062C457.247 14.2953 457.601 15.6259 457.855 17.0981C458.138 18.5421 458.337 20.4248 458.45 22.7464C458.535 25.4077 458.577 28.0832 458.577 30.7728H452.037V1.17269Z" fill="white"/>
<path d="M436.986 30.7728L433.801 22.6614L435.797 24.0629H420.042L422.038 22.6614L418.81 30.7728H411.845L424.458 1.17269H431.338L443.994 30.7728H436.986ZM426.2 6.09895C426.228 7.20312 426.214 8.23652 426.157 9.19913C426.1 10.1334 425.973 11.0677 425.775 12.002C425.605 12.908 425.364 13.8423 425.053 14.8049C424.685 15.8524 423.892 17.6219 422.675 20.1134L421.74 19.1366H434.056L433.122 20.1134C432.527 18.8959 431.975 17.6502 431.465 16.3762C430.729 14.5925 430.248 12.9363 430.022 11.4074C429.795 9.85028 429.71 8.08079 429.767 6.09895H426.2Z" fill="white"/>
<path d="M384.386 1.17269H390.289L406.894 21.6422L409.994 19.5188C408.946 18.358 408.083 17.2963 407.403 16.3337C406.724 15.3711 406.172 14.3377 405.747 13.2336C405.322 12.1011 405.11 10.9261 405.11 9.70872V1.17269H411.693V30.7728H406.257L389.482 10.1759L386.297 12.2568C387.486 13.3893 388.42 14.5076 389.1 15.6118C390.317 17.5653 390.926 19.7028 390.926 22.0244V30.7728H384.386V1.17269Z" fill="white"/>
<path d="M357.259 1.17269H371.019C374.784 1.17269 377.601 1.83801 379.47 3.16867C381.338 4.47102 382.273 6.43869 382.273 9.0717C382.273 10.6855 381.848 12.0303 380.999 13.1062C380.149 14.182 379.003 15.0031 377.559 15.5693C376.115 16.1355 374.487 16.4753 372.675 16.5885V19.986C373.977 20.0426 375.096 20.3257 376.03 20.8353C376.993 21.3166 377.884 22.1094 378.705 23.2135L378.833 23.3834L384.269 30.7728H376.582L371.911 24.1053C371.797 23.9355 371.684 23.7656 371.571 23.5957C370.75 22.4349 370.085 21.6139 369.575 21.1326C369.094 20.6513 368.556 20.3257 367.961 20.1558C367.367 19.9576 366.503 19.8586 365.371 19.8586H362.186L363.799 18.2872V30.7728H357.259V1.17269ZM362.186 15.6967H369.83C371.132 15.6967 372.208 15.5268 373.057 15.1871C373.935 14.819 374.586 14.2811 375.011 13.5733C375.464 12.8655 375.69 11.9737 375.69 10.8978C375.69 9.34067 375.209 8.17989 374.246 7.41547C373.284 6.65104 371.812 6.26883 369.83 6.26883H362.186L363.799 4.61258V17.2255L362.186 15.6967Z" fill="white"/>
<path d="M340.559 31.3249C337.586 31.3249 334.925 30.6737 332.575 29.3713C330.225 28.0407 328.385 26.2146 327.054 23.893C325.724 21.5431 325.058 18.9101 325.058 15.994C325.058 13.0778 325.724 10.459 327.054 8.13741C328.385 5.81583 330.225 4.00387 332.575 2.70152C334.925 1.37086 337.586 0.705536 340.559 0.705536C343.504 0.705536 346.151 1.37086 348.501 2.70152C350.879 4.00387 352.733 5.81583 354.064 8.13741C355.395 10.459 356.06 13.0778 356.06 15.994C356.06 18.9101 355.395 21.5431 354.064 23.893C352.733 26.2146 350.879 28.0407 348.501 29.3713C346.151 30.6737 343.504 31.3249 340.559 31.3249ZM340.559 25.9314C342.343 25.9314 343.9 25.5068 345.231 24.6574C346.561 23.8081 347.581 22.6331 348.288 21.1326C348.996 19.632 349.35 17.9192 349.35 15.994C349.35 14.0687 348.996 12.3559 348.288 10.8553C347.581 9.35482 346.561 8.17988 345.231 7.33052C343.9 6.48116 342.343 6.05649 340.559 6.05649C338.776 6.05649 337.218 6.48116 335.888 7.33052C334.557 8.17988 333.524 9.35482 332.788 10.8553C332.08 12.3559 331.726 14.0687 331.726 15.994C331.726 17.9192 332.08 19.632 332.788 21.1326C333.524 22.6331 334.557 23.8081 335.888 24.6574C337.218 25.5068 338.776 25.9314 340.559 25.9314Z" fill="white"/>
<path d="M304.79 1.17269H311.33V27.0356L309.716 25.4218H327.255V30.7728H304.79V1.17269Z" fill="white"/>
<path d="M273.973 30.7728L270.788 22.6614L272.784 24.0629H257.028L259.024 22.6614L255.797 30.7728H248.832L261.445 1.17269H268.325L280.98 30.7728H273.973ZM263.186 6.09895C263.214 7.20312 263.2 8.23652 263.143 9.19913C263.087 10.1334 262.959 11.0677 262.761 12.002C262.591 12.908 262.351 13.8423 262.039 14.8049C261.671 15.8524 260.878 17.6219 259.661 20.1134L258.727 19.1366H271.042L270.108 20.1134C269.514 18.8959 268.961 17.6502 268.452 16.3762C267.716 14.5925 267.234 12.9363 267.008 11.4074C266.782 9.85028 266.697 8.08079 266.753 6.09895H263.186Z" fill="white"/>
<path d="M242.108 1.17269H248.648V30.7728H242.108V1.17269Z" fill="white"/>
<path d="M212.95 1.17269H218.853L235.458 21.6422L238.558 19.5188C237.51 18.358 236.647 17.2963 235.967 16.3337C235.288 15.3711 234.736 14.3377 234.311 13.2336C233.886 12.1011 233.674 10.9261 233.674 9.70872V1.17269H240.257V30.7728H234.821L218.046 10.1759L214.861 12.2568C216.05 13.3893 216.984 14.5076 217.664 15.6118C218.881 17.5653 219.49 19.7028 219.49 22.0244V30.7728H212.95V1.17269Z" fill="white"/>
<path d="M198.195 31.3673C195.533 31.3673 193.212 30.9002 191.23 29.9659C189.248 29.0033 187.719 27.5735 186.643 25.6767C185.596 23.7798 185.072 21.4582 185.072 18.7119V1.17269H191.612V18.542C191.612 20.1275 191.867 21.4723 192.376 22.5765C192.914 23.6523 193.665 24.4734 194.627 25.0396C195.618 25.5776 196.807 25.8465 198.195 25.8465C200.261 25.8465 201.861 25.2237 202.993 23.9779C204.154 22.7039 204.735 20.8919 204.735 18.542V1.17269H211.275V18.7119C211.275 22.8455 210.1 25.9881 207.75 28.1398C205.428 30.2915 202.243 31.3673 198.195 31.3673Z" fill="white"/>
<path d="M168.584 31.3249C165.611 31.3249 162.95 30.6737 160.6 29.3713C158.25 28.0407 156.41 26.2146 155.079 23.893C153.749 21.5431 153.083 18.9101 153.083 15.994C153.083 13.0778 153.749 10.459 155.079 8.13741C156.41 5.81583 158.25 4.00387 160.6 2.70152C162.95 1.37086 165.611 0.705536 168.584 0.705536C171.529 0.705536 174.176 1.37086 176.526 2.70152C178.904 4.00387 180.758 5.81583 182.089 8.13741C183.42 10.459 184.085 13.0778 184.085 15.994C184.085 18.9101 183.42 21.5431 182.089 23.893C180.758 26.2146 178.904 28.0407 176.526 29.3713C174.176 30.6737 171.529 31.3249 168.584 31.3249ZM168.584 25.9314C170.368 25.9314 171.925 25.5068 173.256 24.6574C174.586 23.8081 175.606 22.6331 176.313 21.1326C177.021 19.632 177.375 17.9192 177.375 15.994C177.375 14.0687 177.021 12.3559 176.313 10.8553C175.606 9.35482 174.586 8.17988 173.256 7.33052C171.925 6.48116 170.368 6.05649 168.584 6.05649C166.801 6.05649 165.243 6.48116 163.913 7.33052C162.582 8.17988 161.549 9.35482 160.813 10.8553C160.105 12.3559 159.751 14.0687 159.751 15.994C159.751 17.9192 160.105 19.632 160.813 21.1326C161.549 22.6331 162.582 23.8081 163.913 24.6574C165.243 25.5068 166.801 25.9314 168.584 25.9314Z" fill="white"/>
<path d="M125.143 1.17269H136.396C139.737 1.17269 142.639 1.82386 145.102 3.12621C147.565 4.40024 149.448 6.15559 150.751 8.39223C152.053 10.6289 152.704 13.1628 152.704 15.994C152.704 18.7119 152.053 21.2034 150.751 23.4683C149.448 25.705 147.565 27.4886 145.102 28.8193C142.639 30.1216 139.737 30.7728 136.396 30.7728H125.143V1.17269ZM130.069 25.4218H135.972C138.039 25.4218 139.822 25.0255 141.323 24.2327C142.852 23.44 144.012 22.3358 144.805 20.9202C145.626 19.4763 146.037 17.8342 146.037 15.994C146.037 14.1537 145.626 12.5258 144.805 11.1102C144.012 9.66626 142.852 8.54794 141.323 7.7552C139.822 6.93416 138.039 6.52364 135.972 6.52364H130.069L131.683 4.95233V27.0356L130.069 25.4218Z" fill="white"/>
<path d="M110.092 30.7728L106.906 22.6614L108.903 24.0629H93.147L95.1429 22.6614L91.9154 30.7728H84.9506L97.5636 1.17269H104.443L117.099 30.7728H110.092ZM99.3048 6.09895C99.3331 7.20312 99.3189 8.23652 99.2623 9.19913C99.2056 10.1334 99.0783 11.0677 98.8801 12.002C98.7103 12.908 98.4696 13.8423 98.1581 14.8049C97.7901 15.8524 96.9974 17.6219 95.78 20.1134L94.8456 19.1366H107.161L106.227 20.1134C105.633 18.8959 105.08 17.6502 104.571 16.3762C103.835 14.5925 103.353 12.9363 103.127 11.4074C102.9 9.85028 102.815 8.08079 102.872 6.09895H99.3048Z" fill="white"/>
<path d="M60.1866 1.17269H71.4406C74.7814 1.17269 77.6834 1.82386 80.1465 3.12621C82.6097 4.40024 84.4925 6.15559 85.7948 8.39223C87.0971 10.6289 87.7483 13.1628 87.7483 15.994C87.7483 18.7119 87.0971 21.2034 85.7948 23.4683C84.4925 25.705 82.6097 27.4886 80.1465 28.8193C77.6834 30.1216 74.7814 30.7728 71.4406 30.7728H60.1866V1.17269ZM65.1129 25.4218H71.0159C73.0827 25.4218 74.8664 25.0255 76.3669 24.2327C77.8958 23.44 79.0565 22.3358 79.8492 20.9202C80.6703 19.4763 81.0809 17.8342 81.0809 15.994C81.0809 14.1537 80.6703 12.5258 79.8492 11.1102C79.0565 9.66626 77.8958 8.54794 76.3669 7.7552C74.8664 6.93416 73.0827 6.52364 71.0159 6.52364H65.1129L66.7267 4.95233V27.0356L65.1129 25.4218Z" fill="white"/>
<path d="M31.0281 1.17269H36.9311L53.536 21.6422L56.6362 19.5188C55.5887 18.358 54.7251 17.2963 54.0457 16.3337C53.3662 15.3711 52.8141 14.3377 52.3894 13.2336C51.9647 12.1011 51.7524 10.9261 51.7524 9.70872V1.17269H58.3349V30.7728H52.899L36.1242 10.1759L32.9391 12.2568C34.1282 13.3893 35.0625 14.5076 35.742 15.6118C36.9594 17.5653 37.5681 19.7028 37.5681 22.0244V30.7728H31.0281V1.17269Z" fill="white"/>
<path d="M22.6059 1.17269H29.1459V30.7728H22.6059V1.17269Z" fill="white"/>
<path d="M0 1.17269H6.54004V27.0356L4.92621 25.4218H22.4655V30.7728H0V1.17269Z" fill="white"/>
</svg>
