<svg width="611" height="32" viewBox="0 0 611 32" fill="none" xmlns="http://www.w3.org/2000/svg">
<path d="M603.523 30.5619L600.338 22.4505L602.334 23.8519H586.579L588.575 22.4505L585.347 30.5619H578.382L590.995 0.961731H597.875L610.531 30.5619H603.523ZM592.737 5.88797C592.765 6.99213 592.751 8.02552 592.694 8.98813C592.637 9.92242 592.51 10.8567 592.312 11.791C592.142 12.697 591.901 13.6313 591.59 14.5939C591.222 15.6414 590.429 17.4109 589.212 19.9024L588.277 18.9257H600.593L599.659 19.9024C599.064 18.685 598.512 17.4393 598.003 16.1652C597.266 14.3816 596.785 12.7253 596.559 11.1965C596.332 9.63932 596.247 7.8698 596.304 5.88797H592.737Z" fill="white"/>
<path d="M554.116 0.961731H560.656V6.27023C560.656 7.17621 560.543 8.0114 560.316 8.77582C560.09 9.54024 559.665 10.4038 559.042 11.3664C558.448 12.3007 557.57 13.5039 556.409 14.9761L559.212 16.9722L573.396 0.961731H581.338L568.385 14.7638L568.555 12.4281L581.72 30.5619H573.864L564.266 17.057L566.092 17.2269L559.382 24.404L560.656 21.4737V30.5619H554.116V0.961731Z" fill="white"/>
<path d="M537.416 31.1139C534.443 31.1139 531.782 30.4627 529.432 29.1604C527.082 27.8297 525.242 26.0036 523.911 23.682C522.58 21.3321 521.915 18.6992 521.915 15.7831C521.915 12.8669 522.58 10.248 523.911 7.92645C525.242 5.60488 527.082 3.79289 529.432 2.49054C531.782 1.15988 534.443 0.494598 537.416 0.494598C540.36 0.494598 543.008 1.15988 545.357 2.49054C547.736 3.79289 549.59 5.60488 550.921 7.92645C552.251 10.248 552.917 12.8669 552.917 15.7831C552.917 18.6992 552.251 21.3321 550.921 23.682C549.59 26.0036 547.736 27.8297 545.357 29.1604C543.008 30.4627 540.36 31.1139 537.416 31.1139ZM537.416 25.7205C539.2 25.7205 540.757 25.2958 542.087 24.4464C543.418 23.5971 544.437 22.4221 545.145 20.9216C545.853 19.4211 546.207 17.7083 546.207 15.7831C546.207 13.8578 545.853 12.145 545.145 10.6444C544.437 9.14391 543.418 7.96896 542.087 7.1196C540.757 6.27024 539.2 5.84552 537.416 5.84552C535.632 5.84552 534.075 6.27024 532.744 7.1196C531.414 7.96896 530.38 9.14391 529.644 10.6444C528.936 12.145 528.583 13.8578 528.583 15.7831C528.583 17.7083 528.936 19.4211 529.644 20.9216C530.38 22.4221 531.414 23.5971 532.744 24.4464C534.075 25.2958 535.632 25.7205 537.416 25.7205Z" fill="white"/>
<path d="M499.2 0.961731H522.6V6.31265H504.126L505.74 4.78384V14.5939L504.126 13.1075H521.283V18.1613H504.126L505.74 16.7598V26.8246L504.126 25.2108H523.109V30.5619H499.2V0.961731Z" fill="white"/>
<path d="M470.622 0.961731H481.876C485.217 0.961731 488.119 1.61287 490.582 2.91522C493.045 4.18926 494.928 5.94463 496.23 8.18127C497.532 10.4179 498.184 12.9519 498.184 15.7831C498.184 18.501 497.532 20.9924 496.23 23.2574C494.928 25.494 493.045 27.2777 490.582 28.6084C488.119 29.9107 485.217 30.5619 481.876 30.5619H470.622V0.961731ZM475.548 25.2108H481.451C483.518 25.2108 485.302 24.8145 486.802 24.0218C488.331 23.229 489.492 22.1249 490.284 20.7093C491.105 19.2654 491.516 17.6233 491.516 15.7831C491.516 13.9428 491.105 12.3148 490.284 10.8992C489.492 9.45526 488.331 8.33702 486.802 7.54428C485.302 6.72324 483.518 6.31265 481.451 6.31265H475.548L477.162 4.74139V26.8246L475.548 25.2108Z" fill="white"/>
<path d="M453.922 31.1139C450.949 31.1139 448.288 30.4627 445.938 29.1604C443.588 27.8297 441.748 26.0036 440.417 23.682C439.086 21.3321 438.421 18.6992 438.421 15.7831C438.421 12.8669 439.086 10.248 440.417 7.92645C441.748 5.60488 443.588 3.79289 445.938 2.49054C448.288 1.15988 450.949 0.494598 453.922 0.494598C456.866 0.494598 459.513 1.15988 461.863 2.49054C464.241 3.79289 466.096 5.60488 467.427 7.92645C468.757 10.248 469.423 12.8669 469.423 15.7831C469.423 18.6992 468.757 21.3321 467.427 23.682C466.096 26.0036 464.241 27.8297 461.863 29.1604C459.513 30.4627 456.866 31.1139 453.922 31.1139ZM453.922 25.7205C455.706 25.7205 457.263 25.2958 458.593 24.4464C459.924 23.5971 460.943 22.4221 461.651 20.9216C462.359 19.4211 462.713 17.7083 462.713 15.7831C462.713 13.8578 462.359 12.145 461.651 10.6444C460.943 9.14391 459.924 7.96896 458.593 7.1196C457.263 6.27024 455.706 5.84552 453.922 5.84552C452.138 5.84552 450.581 6.27024 449.25 7.1196C447.92 7.96896 446.886 9.14391 446.15 10.6444C445.442 12.145 445.089 13.8578 445.089 15.7831C445.089 17.7083 445.442 19.4211 446.15 20.9216C446.886 22.4221 447.92 23.5971 449.25 24.4464C450.581 25.2958 452.138 25.7205 453.922 25.7205Z" fill="white"/>
<path d="M426.658 31.1139C424.195 31.1139 422.029 30.8025 420.16 30.1796C418.32 29.5568 416.89 28.6649 415.871 27.5042C414.852 26.3151 414.342 24.9561 414.342 23.4272C414.342 22.0399 414.753 20.8792 415.574 19.9449C416.395 19.0106 417.499 18.3027 418.886 17.8214C420.302 17.3118 421.873 17.0429 423.6 17.0146V13.5747C421.646 13.4898 419.934 13.2491 418.461 12.8528C416.989 12.4281 415.814 11.7768 414.937 10.8992C414.059 10.0215 413.62 8.87492 413.62 7.45932C413.62 6.01541 414.087 4.76971 415.021 3.72217C415.956 2.64632 417.301 1.82524 419.056 1.259C420.811 0.692765 422.85 0.409637 425.171 0.409637C427.974 0.409637 430.522 0.791853 432.816 1.55627C435.109 2.3207 437.317 3.4249 439.441 4.8688L436.51 9.66763C435.095 8.50684 433.368 7.57257 431.329 6.86478C429.319 6.15698 427.337 5.78896 425.384 5.76065C423.77 5.76065 422.538 6.04368 421.689 6.60992C420.84 7.14785 420.415 7.8557 420.415 8.73337C420.415 9.35623 420.627 9.89418 421.052 10.3472C421.477 10.7718 422.071 11.1399 422.836 11.4513C423.628 11.7344 424.633 11.9892 425.851 12.2157L429.376 13.0226C432.377 13.6455 434.727 14.6789 436.425 16.1228C438.152 17.5667 439.016 19.506 439.016 21.9408C439.016 23.5546 438.52 25.0693 437.53 26.4849C436.539 27.8722 435.109 28.9905 433.24 29.8399C431.372 30.6893 429.177 31.1139 426.658 31.1139ZM426.828 26.4C427.96 26.4 428.937 26.2018 429.758 25.8054C430.607 25.409 431.244 24.8853 431.669 24.2341C432.122 23.583 432.348 22.861 432.348 22.0683C432.348 21.1906 432.108 20.4262 431.626 19.775C431.173 19.0955 430.508 18.5718 429.63 18.2037C428.781 17.8073 427.804 17.6092 426.7 17.6092C425.653 17.6092 424.704 17.7932 423.855 18.1613C423.006 18.5293 422.34 19.053 421.859 19.7325C421.377 20.3837 421.137 21.1481 421.137 22.0258C421.137 22.8469 421.377 23.5971 421.859 24.2766C422.34 24.9278 423.006 25.4516 423.855 25.8479C424.733 26.216 425.723 26.4 426.828 26.4Z" fill="white"/>
<path d="M397.824 0.961731H404.364V30.5619H397.824V0.961731Z" fill="white"/>
<path d="M389.397 0.961731H395.979V30.5619H389.397V0.961731ZM370.159 0.961731H376.699V30.5619H370.159V0.961731ZM376.147 12.8952H389.991V18.2461H376.147V12.8952Z" fill="white"/>
<path d="M356.722 31.1139C354.259 31.1139 352.093 30.8025 350.224 30.1796C348.384 29.5568 346.954 28.6649 345.935 27.5042C344.916 26.3151 344.406 24.9561 344.406 23.4272C344.406 22.0399 344.817 20.8792 345.638 19.9449C346.459 19.0106 347.563 18.3027 348.95 17.8214C350.366 17.3118 351.937 17.0429 353.664 17.0146V13.5747C351.711 13.4898 349.998 13.2491 348.525 12.8528C347.053 12.4281 345.878 11.7768 345.001 10.8992C344.123 10.0215 343.684 8.87492 343.684 7.45932C343.684 6.01541 344.151 4.76971 345.086 3.72217C346.02 2.64632 347.365 1.82524 349.12 1.259C350.875 0.692765 352.914 0.409637 355.235 0.409637C358.038 0.409637 360.586 0.791853 362.88 1.55627C365.173 2.3207 367.381 3.4249 369.505 4.8688L366.574 9.66763C365.159 8.50684 363.432 7.57257 361.393 6.86478C359.383 6.15698 357.401 5.78896 355.448 5.76065C353.834 5.76065 352.602 6.04368 351.753 6.60992C350.904 7.14785 350.479 7.8557 350.479 8.73337C350.479 9.35623 350.691 9.89418 351.116 10.3472C351.541 10.7718 352.135 11.1399 352.9 11.4513C353.692 11.7344 354.697 11.9892 355.915 12.2157L359.44 13.0226C362.441 13.6455 364.791 14.6789 366.489 16.1228C368.216 17.5667 369.08 19.506 369.08 21.9408C369.08 23.5546 368.584 25.0693 367.594 26.4849C366.603 27.8722 365.173 28.9905 363.304 29.8399C361.436 30.6893 359.241 31.1139 356.722 31.1139ZM356.892 26.4C358.024 26.4 359.001 26.2018 359.822 25.8054C360.671 25.409 361.308 24.8853 361.733 24.2341C362.186 23.583 362.412 22.861 362.412 22.0683C362.412 21.1906 362.172 20.4262 361.691 19.775C361.238 19.0955 360.572 18.5718 359.694 18.2037C358.845 17.8073 357.868 17.6092 356.764 17.6092C355.717 17.6092 354.768 17.7932 353.919 18.1613C353.069 18.5293 352.404 19.053 351.923 19.7325C351.442 20.3837 351.201 21.1481 351.201 22.0258C351.201 22.8469 351.442 23.5971 351.923 24.2766C352.404 24.9278 353.069 25.4516 353.919 25.8479C354.796 26.216 355.787 26.4 356.892 26.4Z" fill="white"/>
<path d="M328.406 31.1139C325.433 31.1139 322.772 30.4627 320.422 29.1604C318.072 27.8297 316.232 26.0036 314.901 23.682C313.571 21.3321 312.905 18.6992 312.905 15.7831C312.905 12.8669 313.571 10.248 314.901 7.92645C316.232 5.60488 318.072 3.79289 320.422 2.49054C322.772 1.15988 325.433 0.494598 328.406 0.494598C331.351 0.494598 333.998 1.15988 336.348 2.49054C338.726 3.79289 340.58 5.60488 341.911 7.92645C343.241 10.248 343.907 12.8669 343.907 15.7831C343.907 18.6992 343.241 21.3321 341.911 23.682C340.58 26.0036 338.726 27.8297 336.348 29.1604C333.998 30.4627 331.351 31.1139 328.406 31.1139ZM328.406 25.7205C330.19 25.7205 331.747 25.2958 333.077 24.4464C334.408 23.5971 335.427 22.4221 336.135 20.9216C336.843 19.4211 337.197 17.7083 337.197 15.7831C337.197 13.8578 336.843 12.145 336.135 10.6444C335.427 9.14391 334.408 7.96896 333.077 7.1196C331.747 6.27024 330.19 5.84552 328.406 5.84552C326.622 5.84552 325.065 6.27024 323.735 7.1196C322.404 7.96896 321.371 9.14391 320.634 10.6444C319.927 12.145 319.573 13.8578 319.573 15.7831C319.573 17.7083 319.927 19.4211 320.634 20.9216C321.371 22.4221 322.404 23.5971 323.735 24.4464C325.065 25.2958 326.622 25.7205 328.406 25.7205Z" fill="white"/>
<path d="M299.368 19.3928L288.284 0.961731H295.503C296.947 3.31162 298.037 5.30765 298.773 6.94974C299.538 8.56352 300.061 10.1206 300.345 11.6212C300.656 13.0934 300.812 14.8204 300.812 16.8022H304.549C304.549 14.8204 304.691 13.0792 304.974 11.5787C305.285 10.0782 305.809 8.52098 306.545 6.9072C307.281 5.29342 308.371 3.31162 309.815 0.961731H317.077L305.95 19.3928V30.5619H299.368V19.3928Z" fill="white"/>
<path d="M259.777 0.961731H266.317V30.5619H259.777V0.961731Z" fill="white"/>
<path d="M243.209 4.69888L244.696 6.31265H233.399V0.961731H259.602V6.31265H248.305L249.792 4.69888V30.5619H243.209V4.69888Z" fill="white"/>
<path d="M205.939 0.961731H211.842L228.447 21.4313L231.547 19.3078C230.5 18.147 229.636 17.0854 228.957 16.1228C228.277 15.1602 227.725 14.1268 227.301 13.0226C226.876 11.8901 226.664 10.7152 226.664 9.49777V0.961731H233.246V30.5619H227.81L211.035 9.9649L207.85 12.0458C209.039 13.1783 209.974 14.2967 210.653 15.4008C211.871 17.3543 212.479 19.4918 212.479 21.8134V30.5619H205.939V0.961731Z" fill="white"/>
<path d="M181.052 0.961731H204.452V6.31265H185.979L187.593 4.78384V14.5939L185.979 13.1075H203.136V18.1613H185.979L187.593 16.7598V26.8246L185.979 25.2108H204.962V30.5619H181.052V0.961731Z" fill="white"/>
<path d="M168.824 31.1564C165.908 31.1564 163.289 30.5194 160.968 29.2454C158.674 27.943 156.877 26.131 155.574 23.8094C154.272 21.4596 153.621 18.7699 153.621 15.7405C153.621 12.7112 154.272 10.0357 155.574 7.71414C156.905 5.39257 158.745 3.59472 161.095 2.32068C163.473 1.01833 166.163 0.367188 169.164 0.367188C171.514 0.367188 173.595 0.749403 175.407 1.51382C177.219 2.27825 178.889 3.36825 180.418 4.78384L177.106 9.15808C176.058 8.13885 174.926 7.36025 173.708 6.82233C172.491 6.25609 171.118 5.97293 169.589 5.97293C167.777 5.97293 166.149 6.39765 164.705 7.24701C163.289 8.06805 162.185 9.22881 161.392 10.7293C160.6 12.2299 160.203 13.9427 160.203 15.868C160.203 17.7932 160.6 19.4777 161.392 20.9216C162.213 22.3655 163.332 23.4838 164.747 24.2766C166.191 25.041 167.819 25.4232 169.631 25.4232C171.188 25.4232 172.576 25.1118 173.793 24.489C175.039 23.8661 176.185 22.9884 177.233 21.856L180.63 26.3575C179.045 27.9147 177.318 29.1037 175.449 29.9248C173.609 30.7458 171.401 31.1564 168.824 31.1564Z" fill="white"/>
<path d="M143.44 31.1564C140.524 31.1564 137.905 30.5194 135.583 29.2454C133.29 27.943 131.492 26.131 130.19 23.8094C128.888 21.4596 128.236 18.7699 128.236 15.7405C128.236 12.7112 128.888 10.0357 130.19 7.71414C131.521 5.39257 133.361 3.59472 135.711 2.32068C138.089 1.01833 140.779 0.367188 143.78 0.367188C146.129 0.367188 148.21 0.749403 150.022 1.51382C151.834 2.27825 153.505 3.36825 155.034 4.78384L151.721 9.15808C150.674 8.13885 149.541 7.36025 148.324 6.82233C147.106 6.25609 145.733 5.97293 144.204 5.97293C142.392 5.97293 140.764 6.39765 139.32 7.24701C137.905 8.06805 136.801 9.22881 136.008 10.7293C135.215 12.2299 134.819 13.9427 134.819 15.868C134.819 17.7932 135.215 19.4777 136.008 20.9216C136.829 22.3655 137.947 23.4838 139.363 24.2766C140.807 25.041 142.435 25.4232 144.247 25.4232C145.804 25.4232 147.191 25.1118 148.409 24.489C149.654 23.8661 150.801 22.9884 151.849 21.856L155.246 26.3575C153.661 27.9147 151.933 29.1037 150.065 29.9248C148.225 30.7458 146.016 31.1564 143.44 31.1564Z" fill="white"/>
<path d="M123.696 30.5619L120.511 22.4505L122.507 23.8519H106.752L108.748 22.4505L105.52 30.5619H98.5554L111.168 0.961731H118.048L130.704 30.5619H123.696ZM112.91 5.88797C112.938 6.99213 112.924 8.02552 112.867 8.98813C112.81 9.92242 112.683 10.8567 112.485 11.791C112.315 12.697 112.074 13.6313 111.763 14.5939C111.395 15.6414 110.602 17.4109 109.385 19.9024L108.45 18.9257H120.766L119.832 19.9024C119.237 18.685 118.685 17.4393 118.176 16.1652C117.439 14.3816 116.958 12.7253 116.732 11.1965C116.505 9.63932 116.42 7.8698 116.477 5.88797H112.91Z" fill="white"/>
<path d="M88.5173 31.1139C86.0542 31.1139 83.8884 30.8025 82.0198 30.1796C80.1795 29.5568 78.7498 28.6649 77.7305 27.5042C76.7113 26.3151 76.2016 24.9561 76.2016 23.4272C76.2016 22.0399 76.6122 20.8792 77.4332 19.9449C78.2543 19.0106 79.3584 18.3027 80.7457 17.8214C82.1613 17.3118 83.7326 17.0429 85.4596 17.0146V13.5747C83.5061 13.4898 81.7932 13.2491 80.321 12.8528C78.8488 12.4281 77.6738 11.7768 76.7961 10.8992C75.9185 10.0215 75.4797 8.87492 75.4797 7.45932C75.4797 6.01541 75.9468 4.76971 76.8811 3.72217C77.8154 2.64632 79.1602 1.82524 80.9155 1.259C82.6709 0.692765 84.7094 0.409637 87.0309 0.409637C89.8338 0.409637 92.3819 0.791853 94.6752 1.55627C96.9684 2.3207 99.1768 3.4249 101.3 4.8688L98.3699 9.66763C96.9543 8.50684 95.2272 7.57257 93.1887 6.86478C91.1786 6.15698 89.1968 5.78896 87.2433 5.76065C85.6295 5.76065 84.3979 6.04368 83.5486 6.60992C82.6992 7.14785 82.2745 7.8557 82.2745 8.73337C82.2745 9.35623 82.4869 9.89418 82.9116 10.3472C83.3362 10.7718 83.9308 11.1399 84.6952 11.4513C85.4879 11.7344 86.493 11.9892 87.7104 12.2157L91.2352 13.0226C94.2363 13.6455 96.5862 14.6789 98.2849 16.1228C100.012 17.5667 100.875 19.506 100.875 21.9408C100.875 23.5546 100.38 25.0693 99.3891 26.4849C98.3982 27.8722 96.9684 28.9905 95.0998 29.8399C93.2312 30.6893 91.0371 31.1139 88.5173 31.1139ZM88.6872 26.4C89.8197 26.4 90.7964 26.2018 91.6175 25.8054C92.4668 25.409 93.1039 24.8853 93.5286 24.2341C93.9816 23.583 94.2079 22.861 94.2079 22.0683C94.2079 21.1906 93.9674 20.4262 93.4861 19.775C93.0331 19.0955 92.3677 18.5718 91.4901 18.2037C90.6407 17.8073 89.6639 17.6092 88.5598 17.6092C87.5122 17.6092 86.5638 17.7932 85.7145 18.1613C84.8651 18.5293 84.1997 19.053 83.7184 19.7325C83.2371 20.3837 82.9965 21.1481 82.9965 22.0258C82.9965 22.8469 83.2371 23.5971 83.7184 24.2766C84.1997 24.9278 84.8651 25.4516 85.7145 25.8479C86.5921 26.216 87.583 26.4 88.6872 26.4Z" fill="white"/>
<path d="M34.8005 0.961731H43.9735C44.7662 2.85863 45.474 4.614 46.0969 6.22778C46.7197 7.81325 47.201 9.24299 47.5408 10.517C47.9654 11.9609 48.2769 13.3198 48.4751 14.5939C48.6733 15.8396 48.7724 17.1136 48.7724 18.416H52.2123C52.2123 16.9721 52.3397 15.5282 52.5945 14.0843C52.8493 12.6121 53.2457 11.0549 53.7836 9.41281C54.3216 7.77072 55.0718 5.76056 56.0344 3.38235C56.1759 2.98599 56.5015 2.17914 57.0111 0.961731H66.2267V30.5619H59.6866C59.6866 27.9572 59.7291 25.3666 59.814 22.7902C59.9273 20.3837 60.1113 18.4302 60.3661 16.9296C60.6492 15.4008 61.0173 14.0277 61.4703 12.8102C61.9233 11.5928 62.5603 10.1631 63.3813 8.521L59.9839 7.28946L52.9767 25.2958H47.9655L41.0007 7.28946L37.6458 8.64841C38.4668 10.2905 39.1038 11.7061 39.5568 12.8952C40.0098 14.0843 40.3637 15.415 40.6185 16.8872C40.9016 18.3311 41.0998 20.2138 41.2131 22.5354C41.298 25.1967 41.3405 27.8722 41.3405 30.5619H34.8005V0.961731Z" fill="white"/>
<path d="M26.3783 0.961731H32.9183V30.5619H26.3783V0.961731Z" fill="white"/>
<path d="M9.81012 4.69888L11.2964 6.31265H0V0.961731H26.2027V6.31265H14.9062L16.3926 4.69888V30.5619H9.81012V4.69888Z" fill="white"/>
</svg>
