<svg width="758" height="31" viewBox="0 0 758 31" fill="none" xmlns="http://www.w3.org/2000/svg">
<path d="M730.686 0.750793H736.589L753.194 21.2203L756.294 19.0969C755.247 17.9361 754.383 16.8744 753.704 15.9118C753.024 14.9492 752.472 13.9158 752.047 12.8117C751.623 11.6792 751.41 10.5043 751.41 9.28685V0.750793H757.993V30.3509H752.557L735.782 9.75398L732.597 11.8349C733.786 12.9674 734.72 14.0857 735.4 15.1899C736.617 17.1434 737.226 19.2809 737.226 21.6025V30.3509H730.686V0.750793Z" fill="white"/>
<path d="M713.986 30.903C711.013 30.903 708.352 30.2518 706.002 28.9495C703.652 27.6188 701.812 25.7927 700.481 23.4711C699.15 21.1212 698.485 18.4882 698.485 15.5721C698.485 12.656 699.15 10.0371 700.481 7.71555C701.812 5.39397 703.652 3.582 706.002 2.27965C708.352 0.948988 711.013 0.283661 713.986 0.283661C716.93 0.283661 719.577 0.948988 721.927 2.27965C724.306 3.582 726.16 5.39397 727.491 7.71555C728.821 10.0371 729.487 12.656 729.487 15.5721C729.487 18.4882 728.821 21.1212 727.491 23.4711C726.16 25.7927 724.306 27.6188 721.927 28.9495C719.577 30.2518 716.93 30.903 713.986 30.903ZM713.986 25.5096C715.77 25.5096 717.327 25.0849 718.657 24.2355C719.988 23.3862 721.007 22.2112 721.715 20.7107C722.423 19.2102 722.777 17.4973 722.777 15.5721C722.777 13.6469 722.423 11.934 721.715 10.4335C721.007 8.93296 719.988 7.758 718.657 6.90865C717.327 6.05929 715.77 5.63463 713.986 5.63463C712.202 5.63463 710.645 6.05929 709.314 6.90865C707.984 7.758 706.95 8.93296 706.214 10.4335C705.506 11.934 705.153 13.6469 705.153 15.5721C705.153 17.4973 705.506 19.2102 706.214 20.7107C706.95 22.2112 707.984 23.3862 709.314 24.2355C710.645 25.0849 712.202 25.5096 713.986 25.5096Z" fill="white"/>
<path d="M682.422 30.903C679.449 30.903 676.788 30.2518 674.438 28.9495C672.088 27.6188 670.248 25.7927 668.917 23.4711C667.587 21.1212 666.921 18.4882 666.921 15.5721C666.921 12.656 667.587 10.0371 668.917 7.71555C670.248 5.39397 672.088 3.582 674.438 2.27965C676.788 0.948988 679.449 0.283661 682.422 0.283661C685.367 0.283661 688.014 0.948988 690.364 2.27965C692.742 3.582 694.596 5.39397 695.927 7.71555C697.258 10.0371 697.923 12.656 697.923 15.5721C697.923 18.4882 697.258 21.1212 695.927 23.4711C694.596 25.7927 692.742 27.6188 690.364 28.9495C688.014 30.2518 685.367 30.903 682.422 30.903ZM682.422 25.5096C684.206 25.5096 685.763 25.0849 687.094 24.2355C688.424 23.3862 689.443 22.2112 690.151 20.7107C690.859 19.2102 691.213 17.4973 691.213 15.5721C691.213 13.6469 690.859 11.934 690.151 10.4335C689.443 8.93296 688.424 7.758 687.094 6.90865C685.763 6.05929 684.206 5.63463 682.422 5.63463C680.638 5.63463 679.081 6.05929 677.751 6.90865C676.42 7.758 675.387 8.93296 674.651 10.4335C673.943 11.934 673.589 13.6469 673.589 15.5721C673.589 17.4973 673.943 19.2102 674.651 20.7107C675.387 22.2112 676.42 23.3862 677.751 24.2355C679.081 25.0849 680.638 25.5096 682.422 25.5096Z" fill="white"/>
<path d="M655.158 30.903C652.695 30.903 650.529 30.5916 648.66 29.9687C646.82 29.3459 645.39 28.454 644.371 27.2932C643.352 26.1041 642.842 24.7452 642.842 23.2163C642.842 21.829 643.253 20.6682 644.074 19.7339C644.895 18.7997 645.999 18.0919 647.386 17.6105C648.802 17.1009 650.373 16.832 652.1 16.8036V13.3638C650.147 13.2788 648.434 13.0382 646.962 12.6418C645.489 12.2172 644.314 11.566 643.437 10.6883C642.559 9.81064 642.12 8.66399 642.12 7.2484C642.12 5.80449 642.587 4.55877 643.522 3.51123C644.456 2.43538 645.801 1.61432 647.556 1.04808C649.311 0.481843 651.35 0.19873 653.672 0.19873C656.475 0.19873 659.023 0.580946 661.316 1.34537C663.609 2.10979 665.817 3.21394 667.941 4.65785L665.01 9.45673C663.595 8.29594 661.868 7.36164 659.829 6.65384C657.819 5.94604 655.837 5.578 653.884 5.54968C652.27 5.54968 651.039 5.83279 650.189 6.39903C649.34 6.93696 648.915 7.64476 648.915 8.52243C648.915 9.14529 649.128 9.68322 649.552 10.1362C649.977 10.5609 650.571 10.929 651.336 11.2404C652.129 11.5235 653.134 11.7783 654.351 12.0048L657.876 12.8117C660.877 13.4345 663.227 14.4679 664.926 15.9118C666.653 17.3557 667.516 19.2951 667.516 21.7299C667.516 23.3437 667.021 24.8584 666.03 26.274C665.039 27.6613 663.609 28.7796 661.74 29.629C659.872 30.4783 657.678 30.903 655.158 30.903ZM655.328 26.1891C656.46 26.1891 657.437 25.9909 658.258 25.5945C659.107 25.1981 659.745 24.6744 660.169 24.0232C660.622 23.372 660.849 22.6501 660.849 21.8573C660.849 20.9797 660.608 20.2152 660.127 19.5641C659.674 18.8846 659.008 18.3608 658.131 17.9928C657.281 17.5964 656.305 17.3982 655.2 17.3982C654.153 17.3982 653.204 17.5822 652.355 17.9503C651.506 18.3184 650.84 18.8421 650.359 19.5216C649.878 20.1728 649.637 20.9372 649.637 21.8149C649.637 22.6359 649.878 23.3862 650.359 24.0657C650.84 24.7169 651.506 25.2406 652.355 25.637C653.233 26.005 654.224 26.1891 655.328 26.1891Z" fill="white"/>
<path d="M630.022 30.903C627.559 30.903 625.393 30.5916 623.525 29.9687C621.685 29.3459 620.255 28.454 619.236 27.2932C618.216 26.1041 617.707 24.7452 617.707 23.2163C617.707 21.829 618.117 20.6682 618.938 19.7339C619.759 18.7997 620.863 18.0919 622.251 17.6105C623.666 17.1009 625.238 16.832 626.965 16.8036V13.3638C625.011 13.2788 623.298 13.0382 621.826 12.6418C620.354 12.2172 619.179 11.566 618.301 10.6883C617.423 9.81064 616.985 8.66399 616.985 7.2484C616.985 5.80449 617.452 4.55877 618.386 3.51123C619.321 2.43538 620.665 1.61432 622.421 1.04808C624.176 0.481843 626.214 0.19873 628.536 0.19873C631.339 0.19873 633.887 0.580946 636.18 1.34537C638.473 2.10979 640.682 3.21394 642.805 4.65785L639.875 9.45673C638.459 8.29594 636.732 7.36164 634.694 6.65384C632.684 5.94604 630.702 5.578 628.748 5.54968C627.135 5.54968 625.903 5.83279 625.054 6.39903C624.204 6.93696 623.78 7.64476 623.78 8.52243C623.78 9.14529 623.992 9.68322 624.417 10.1362C624.841 10.5609 625.436 10.929 626.2 11.2404C626.993 11.5235 627.998 11.7783 629.215 12.0048L632.74 12.8117C635.741 13.4345 638.091 14.4679 639.79 15.9118C641.517 17.3557 642.38 19.2951 642.38 21.7299C642.38 23.3437 641.885 24.8584 640.894 26.274C639.903 27.6613 638.473 28.7796 636.605 29.629C634.736 30.4783 632.542 30.903 630.022 30.903ZM630.192 26.1891C631.325 26.1891 632.302 25.9909 633.123 25.5945C633.972 25.1981 634.609 24.6744 635.034 24.0232C635.487 23.372 635.713 22.6501 635.713 21.8573C635.713 20.9797 635.472 20.2152 634.991 19.5641C634.538 18.8846 633.873 18.3608 632.995 17.9928C632.146 17.5964 631.169 17.3982 630.065 17.3982C629.017 17.3982 628.069 17.5822 627.219 17.9503C626.37 18.3184 625.705 18.8421 625.224 19.5216C624.742 20.1728 624.501 20.9372 624.501 21.8149C624.501 22.6359 624.742 23.3862 625.224 24.0657C625.705 24.7169 626.37 25.2406 627.219 25.637C628.097 26.005 629.088 26.1891 630.192 26.1891Z" fill="white"/>
<path d="M612.773 30.3509L609.588 22.2395L611.584 23.641H595.829L597.825 22.2395L594.597 30.3509H587.632L600.245 0.750793H607.125L619.781 30.3509H612.773ZM601.987 5.67708C602.015 6.78124 602.001 7.81462 601.944 8.77722C601.887 9.71151 601.76 10.6458 601.562 11.5801C601.392 12.4861 601.151 13.4204 600.84 14.383C600.472 15.4305 599.679 17.2 598.462 19.6915L597.527 18.7147H609.843L608.909 19.6915C608.314 18.4741 607.762 17.2283 607.253 15.9543C606.516 14.1706 606.035 12.5144 605.809 10.9855C605.582 9.42839 605.497 7.65891 605.554 5.67708H601.987Z" fill="white"/>
<path d="M577.594 30.903C575.131 30.903 572.966 30.5916 571.097 29.9687C569.257 29.3459 567.827 28.454 566.808 27.2932C565.788 26.1041 565.279 24.7452 565.279 23.2163C565.279 21.829 565.689 20.6682 566.51 19.7339C567.331 18.7997 568.436 18.0919 569.823 17.6105C571.238 17.1009 572.81 16.832 574.537 16.8036V13.3638C572.583 13.2788 570.87 13.0382 569.398 12.6418C567.926 12.2172 566.751 11.566 565.873 10.6883C564.996 9.81064 564.557 8.66399 564.557 7.2484C564.557 5.80449 565.024 4.55877 565.958 3.51123C566.893 2.43538 568.237 1.61432 569.993 1.04808C571.748 0.481843 573.787 0.19873 576.108 0.19873C578.911 0.19873 581.459 0.580946 583.752 1.34537C586.046 2.10979 588.254 3.21394 590.377 4.65785L587.447 9.45673C586.031 8.29594 584.304 7.36164 582.266 6.65384C580.256 5.94604 578.274 5.578 576.32 5.54968C574.707 5.54968 573.475 5.83279 572.626 6.39903C571.776 6.93696 571.352 7.64476 571.352 8.52243C571.352 9.14529 571.564 9.68322 571.989 10.1362C572.413 10.5609 573.008 10.929 573.772 11.2404C574.565 11.5235 575.57 11.7783 576.788 12.0048L580.312 12.8117C583.313 13.4345 585.663 14.4679 587.362 15.9118C589.089 17.3557 589.953 19.2951 589.953 21.7299C589.953 23.3437 589.457 24.8584 588.466 26.274C587.475 27.6613 586.045 28.7796 584.177 29.629C582.308 30.4783 580.114 30.903 577.594 30.903ZM577.764 26.1891C578.897 26.1891 579.874 25.9909 580.695 25.5945C581.544 25.1981 582.181 24.6744 582.606 24.0232C583.059 23.372 583.285 22.6501 583.285 21.8573C583.285 20.9797 583.045 20.2152 582.563 19.5641C582.11 18.8846 581.445 18.3608 580.567 17.9928C579.718 17.5964 578.741 17.3982 577.637 17.3982C576.589 17.3982 575.641 17.5822 574.792 17.9503C573.942 18.3184 573.277 18.8421 572.796 19.5216C572.314 20.1728 572.074 20.9372 572.074 21.8149C572.074 22.6359 572.314 23.3862 572.796 24.0657C573.277 24.7169 573.942 25.2406 574.792 25.637C575.669 26.005 576.66 26.1891 577.764 26.1891Z" fill="white"/>
<path d="M543.746 30.903C541.283 30.903 539.117 30.5916 537.249 29.9687C535.408 29.3459 533.979 28.454 532.959 27.2932C531.94 26.1041 531.431 24.7452 531.431 23.2163C531.431 21.829 531.841 20.6682 532.662 19.7339C533.483 18.7997 534.587 18.0919 535.975 17.6105C537.39 17.1009 538.962 16.832 540.689 16.8036V13.3638C538.735 13.2788 537.022 13.0382 535.55 12.6418C534.078 12.2172 532.903 11.566 532.025 10.6883C531.147 9.81064 530.709 8.66399 530.709 7.2484C530.709 5.80449 531.176 4.55877 532.11 3.51123C533.044 2.43538 534.389 1.61432 536.144 1.04808C537.9 0.481843 539.938 0.19873 542.26 0.19873C545.063 0.19873 547.611 0.580946 549.904 1.34537C552.197 2.10979 554.406 3.21394 556.529 4.65785L553.599 9.45673C552.183 8.29594 550.456 7.36164 548.418 6.65384C546.407 5.94604 544.426 5.578 542.472 5.54968C540.858 5.54968 539.627 5.83279 538.777 6.39903C537.928 6.93696 537.503 7.64476 537.503 8.52243C537.503 9.14529 537.716 9.68322 538.141 10.1362C538.565 10.5609 539.16 10.929 539.924 11.2404C540.717 11.5235 541.722 11.7783 542.939 12.0048L546.464 12.8117C549.465 13.4345 551.815 14.4679 553.514 15.9118C555.241 17.3557 556.104 19.2951 556.104 21.7299C556.104 23.3437 555.609 24.8584 554.618 26.274C553.627 27.6613 552.197 28.7796 550.329 29.629C548.46 30.4783 546.266 30.903 543.746 30.903ZM543.916 26.1891C545.049 26.1891 546.025 25.9909 546.846 25.5945C547.696 25.1981 548.333 24.6744 548.757 24.0232C549.21 23.372 549.437 22.6501 549.437 21.8573C549.437 20.9797 549.196 20.2152 548.715 19.5641C548.262 18.8846 547.597 18.3608 546.719 17.9928C545.87 17.5964 544.893 17.3982 543.789 17.3982C542.741 17.3982 541.793 17.5822 540.943 17.9503C540.094 18.3184 539.429 18.8421 538.947 19.5216C538.466 20.1728 538.225 20.9372 538.225 21.8149C538.225 22.6359 538.466 23.3862 538.947 24.0657C539.429 24.7169 540.094 25.2406 540.943 25.637C541.821 26.005 542.812 26.1891 543.916 26.1891Z" fill="white"/>
<path d="M526.497 30.3509L523.312 22.2395L525.308 23.641H509.553L511.548 22.2395L508.321 30.3509H501.356L513.969 0.750793H520.849L533.504 30.3509H526.497ZM515.71 5.67708C515.739 6.78124 515.724 7.81462 515.668 8.77722C515.611 9.71151 515.484 10.6458 515.286 11.5801C515.116 12.4861 514.875 13.4204 514.564 14.383C514.196 15.4305 513.403 17.2 512.186 19.6915L511.251 18.7147H523.567L522.633 19.6915C522.038 18.4741 521.486 17.2283 520.976 15.9543C520.24 14.1706 519.759 12.5144 519.533 10.9855C519.306 9.42839 519.221 7.65891 519.278 5.67708H515.71Z" fill="white"/>
<path d="M480.449 0.750793H486.989V26.6137L485.375 25H502.915V30.3509H480.449V0.750793Z" fill="white"/>
<path d="M463.749 30.903C460.776 30.903 458.115 30.2518 455.765 28.9495C453.415 27.6188 451.575 25.7927 450.244 23.4711C448.914 21.1212 448.248 18.4882 448.248 15.5721C448.248 12.656 448.914 10.0371 450.244 7.71555C451.575 5.39397 453.415 3.582 455.765 2.27965C458.115 0.948988 460.776 0.283661 463.749 0.283661C466.693 0.283661 469.341 0.948988 471.691 2.27965C474.069 3.582 475.923 5.39397 477.254 7.71555C478.584 10.0371 479.25 12.656 479.25 15.5721C479.25 18.4882 478.584 21.1212 477.254 23.4711C475.923 25.7927 474.069 27.6188 471.691 28.9495C469.341 30.2518 466.693 30.903 463.749 30.903ZM463.749 25.5096C465.533 25.5096 467.09 25.0849 468.42 24.2355C469.751 23.3862 470.77 22.2112 471.478 20.7107C472.186 19.2102 472.54 17.4973 472.54 15.5721C472.54 13.6469 472.186 11.934 471.478 10.4335C470.77 8.93296 469.751 7.758 468.42 6.90865C467.09 6.05929 465.533 5.63463 463.749 5.63463C461.965 5.63463 460.408 6.05929 459.077 6.90865C457.747 7.758 456.713 8.93296 455.977 10.4335C455.27 11.934 454.916 13.6469 454.916 15.5721C454.916 17.4973 455.27 19.2102 455.977 20.7107C456.713 22.2112 457.747 23.3862 459.077 24.2355C460.408 25.0849 461.965 25.5096 463.749 25.5096Z" fill="white"/>
<path d="M438.067 30.9454C435.151 30.9454 432.532 30.3084 430.211 29.0344C427.917 27.732 426.12 25.9201 424.817 23.5985C423.515 21.2486 422.864 18.559 422.864 15.5296C422.864 12.5002 423.515 9.82475 424.817 7.50317C426.148 5.1816 427.988 3.38381 430.338 2.10977C432.716 0.807424 435.406 0.15625 438.407 0.15625C440.757 0.15625 442.838 0.53845 444.65 1.30287C446.462 2.06729 448.132 3.15731 449.661 4.57291L446.348 8.94708C445.301 7.92785 444.168 7.14928 442.951 6.61136C441.734 6.04512 440.361 5.76201 438.832 5.76201C437.02 5.76201 435.392 6.18668 433.948 7.03604C432.532 7.85709 431.428 9.01787 430.635 10.5184C429.843 12.0189 429.446 13.7318 429.446 15.657C429.446 17.5822 429.843 19.2668 430.635 20.7107C431.456 22.1546 432.575 23.2729 433.99 24.0657C435.434 24.8301 437.062 25.2123 438.874 25.2123C440.431 25.2123 441.819 24.9008 443.036 24.278C444.282 23.6551 445.428 22.7775 446.476 21.645L449.873 26.1466C448.288 27.7037 446.561 28.8928 444.692 29.7139C442.852 30.5349 440.644 30.9454 438.067 30.9454Z" fill="white"/>
<path d="M415.079 0.750793H421.619V30.3509H415.079V0.750793Z" fill="white"/>
<path d="M385.92 0.750793H391.823L408.428 21.2203L411.528 19.0969C410.481 17.9361 409.617 16.8744 408.938 15.9118C408.258 14.9492 407.706 13.9158 407.281 12.8117C406.857 11.6792 406.644 10.5043 406.644 9.28685V0.750793H413.227V30.3509H407.791L391.016 9.75398L387.831 11.8349C389.02 12.9674 389.955 14.0857 390.634 15.1899C391.851 17.1434 392.46 19.2809 392.46 21.6025V30.3509H385.92V0.750793Z" fill="white"/>
<path d="M333.112 0.750793H339.015L355.62 21.2203L358.72 19.0969C357.673 17.9361 356.809 16.8744 356.13 15.9118C355.45 14.9492 354.898 13.9158 354.474 12.8117C354.049 11.6792 353.837 10.5043 353.837 9.28685V0.750793H360.419V30.3509H354.983L338.208 9.75398L335.023 11.8349C336.212 12.9674 337.147 14.0857 337.826 15.1899C339.044 17.1434 339.652 19.2809 339.652 21.6025V30.3509H333.112V0.750793Z" fill="white"/>
<path d="M305.986 0.750793H319.745C323.511 0.750793 326.328 1.41612 328.197 2.74678C330.065 4.04913 330.999 6.0168 330.999 8.64981C330.999 10.2636 330.575 11.6084 329.725 12.6843C328.876 13.7601 327.729 14.5812 326.286 15.1474C324.842 15.7137 323.214 16.0534 321.402 16.1666V19.5641C322.704 19.6207 323.822 19.9038 324.757 20.4134C325.719 20.8947 326.611 21.6874 327.432 22.7916L327.56 22.9615L332.995 30.3509H325.309L320.637 23.6834C320.524 23.5136 320.411 23.3437 320.298 23.1738C319.477 22.013 318.811 21.192 318.302 20.7107C317.82 20.2294 317.282 19.9038 316.688 19.7339C316.093 19.5357 315.23 19.4367 314.097 19.4367H310.912L312.526 17.8653V30.3509H305.986V0.750793ZM310.912 15.2748H318.556C319.859 15.2748 320.935 15.1049 321.784 14.7652C322.662 14.3971 323.313 13.8592 323.737 13.1514C324.19 12.4436 324.417 11.5518 324.417 10.4759C324.417 8.91878 323.936 7.75798 322.973 6.99356C322.01 6.22914 320.538 5.84694 318.556 5.84694H310.912L312.526 4.19069V16.8036L310.912 15.2748Z" fill="white"/>
<path d="M281.099 0.750793H304.499V6.10175H286.025L287.639 4.57291V14.383L286.025 12.8966H303.182V17.9503H286.025L287.639 16.5488V26.6137L286.025 25H305.008V30.3509H281.099V0.750793Z" fill="white"/>
<path d="M264.531 4.48796L266.017 6.10175H254.721V0.750793H280.924V6.10175H269.627L271.114 4.48796V30.3509H264.531V4.48796Z" fill="white"/>
<path d="M243.397 30.903C240.934 30.903 238.768 30.5916 236.9 29.9687C235.059 29.3459 233.63 28.454 232.61 27.2932C231.591 26.1041 231.082 24.7452 231.082 23.2163C231.082 21.829 231.492 20.6682 232.313 19.7339C233.134 18.7997 234.238 18.0919 235.626 17.6105C237.041 17.1009 238.613 16.832 240.34 16.8036V13.3638C238.386 13.2788 236.673 13.0382 235.201 12.6418C233.729 12.2172 232.554 11.566 231.676 10.6883C230.798 9.81064 230.36 8.66399 230.36 7.2484C230.36 5.80449 230.827 4.55877 231.761 3.51123C232.695 2.43538 234.04 1.61432 235.796 1.04808C237.551 0.481843 239.589 0.19873 241.911 0.19873C244.714 0.19873 247.262 0.580946 249.555 1.34537C251.848 2.10979 254.057 3.21394 256.18 4.65785L253.25 9.45673C251.834 8.29594 250.107 7.36164 248.069 6.65384C246.059 5.94604 244.077 5.578 242.123 5.54968C240.509 5.54968 239.278 5.83279 238.428 6.39903C237.579 6.93696 237.154 7.64476 237.154 8.52243C237.154 9.14529 237.367 9.68322 237.792 10.1362C238.216 10.5609 238.811 10.929 239.575 11.2404C240.368 11.5235 241.373 11.7783 242.59 12.0048L246.115 12.8117C249.116 13.4345 251.466 14.4679 253.165 15.9118C254.892 17.3557 255.755 19.2951 255.755 21.7299C255.755 23.3437 255.26 24.8584 254.269 26.274C253.278 27.6613 251.848 28.7796 249.98 29.629C248.111 30.4783 245.917 30.903 243.397 30.903ZM243.567 26.1891C244.7 26.1891 245.676 25.9909 246.497 25.5945C247.347 25.1981 247.984 24.6744 248.408 24.0232C248.861 23.372 249.088 22.6501 249.088 21.8573C249.088 20.9797 248.847 20.2152 248.366 19.5641C247.913 18.8846 247.248 18.3608 246.37 17.9928C245.521 17.5964 244.544 17.3982 243.44 17.3982C242.392 17.3982 241.444 17.5822 240.594 17.9503C239.745 18.3184 239.08 18.8421 238.598 19.5216C238.117 20.1728 237.876 20.9372 237.876 21.8149C237.876 22.6359 238.117 23.3862 238.598 24.0657C239.08 24.7169 239.745 25.2406 240.594 25.637C241.472 26.005 242.463 26.1891 243.567 26.1891Z" fill="white"/>
<path d="M200.38 0.750793H206.92V26.6137L205.307 25H222.846V30.3509H200.38V0.750793Z" fill="white"/>
<path d="M175.493 0.750793H198.893V6.10175H180.42L182.034 4.57291V14.383L180.42 12.8966H197.577V17.9503H180.42L182.034 16.5488V26.6137L180.42 25H199.403V30.3509H175.493V0.750793Z" fill="white"/>
<path d="M167.071 0.750793H173.611V30.3509H167.071V0.750793Z" fill="white"/>
<path d="M137.913 0.750793H143.816L160.421 21.2203L163.521 19.0969C162.473 17.9361 161.61 16.8744 160.93 15.9118C160.251 14.9492 159.699 13.9158 159.274 12.8117C158.849 11.6792 158.637 10.5043 158.637 9.28685V0.750793H165.22V30.3509H159.784L143.009 9.75398L139.824 11.8349C141.013 12.9674 141.947 14.0857 142.627 15.1899C143.844 17.1434 144.453 19.2809 144.453 21.6025V30.3509H137.913V0.750793Z" fill="white"/>
<path d="M130.745 30.3509L127.56 22.2395L129.556 23.641H113.8L115.796 22.2395L112.569 30.3509H105.604L118.217 0.750793H125.097L137.752 30.3509H130.745ZM119.958 5.67708C119.986 6.78124 119.972 7.81462 119.916 8.77722C119.859 9.71151 119.732 10.6458 119.533 11.5801C119.364 12.4861 119.123 13.4204 118.811 14.383C118.443 15.4305 117.651 17.2 116.433 19.6915L115.499 18.7147H127.815L126.88 19.6915C126.286 18.4741 125.734 17.2283 125.224 15.9543C124.488 14.1706 124.007 12.5144 123.78 10.9855C123.554 9.42839 123.469 7.65891 123.525 5.67708H119.958Z" fill="white"/>
<path d="M98.8751 0.750793H105.458V30.3509H98.8751V0.750793ZM79.6372 0.750793H86.1772V30.3509H79.6372V0.750793ZM85.6252 12.6843H99.4697V18.0352H85.6252V12.6843Z" fill="white"/>
<path d="M63.0691 4.48796L64.5555 6.10175H53.259V0.750793H79.4617V6.10175H68.1652L69.6516 4.48796V30.3509H63.0691V4.48796Z" fill="white"/>
<path d="M52.6008 30.3509L49.4157 22.2395L51.4117 23.641H35.6561L37.6521 22.2395L34.4245 30.3509H27.4598L40.0727 0.750793H46.9525L59.6079 30.3509H52.6008ZM41.8139 5.67708C41.8422 6.78124 41.8281 7.81462 41.7715 8.77722C41.7148 9.71151 41.5874 10.6458 41.3893 11.5801C41.2194 12.4861 40.9787 13.4204 40.6673 14.383C40.2992 15.4305 39.5065 17.2 38.2891 19.6915L37.3548 18.7147H49.6705L48.7362 19.6915C48.1417 18.4741 47.5896 17.2283 47.08 15.9543C46.3438 14.1706 45.8625 12.5144 45.636 10.9855C45.4095 9.42839 45.3246 7.65891 45.3812 5.67708H41.8139Z" fill="white"/>
<path d="M0 0.750793H5.90306L22.508 21.2203L25.6081 19.0969C24.5606 17.9361 23.6971 16.8744 23.0176 15.9118C22.3381 14.9492 21.786 13.9158 21.3614 12.8117C20.9367 11.6792 20.7243 10.5043 20.7243 9.28685V0.750793H27.3068V30.3509H21.871L5.09616 9.75398L1.91106 11.8349C3.10016 12.9674 4.03446 14.0857 4.71394 15.1899C5.93136 17.1434 6.54007 19.2809 6.54007 21.6025V30.3509H0V0.750793Z" fill="white"/>
</svg>
