<svg width="654" height="32" viewBox="0 0 654 32" fill="none" xmlns="http://www.w3.org/2000/svg">
<path d="M629.284 0.961761H652.684V6.31268H634.211L635.825 4.78387V14.5939L634.211 13.1075H651.368V18.1613H634.211L635.825 16.7598V26.8247L634.211 25.2109H653.194V30.5619H629.284V0.961761Z" fill="white"/>
<path d="M604.585 25.6356L621.317 5.08115L618.727 2.83038C617.906 3.56649 617 4.17516 616.009 4.65646C615.018 5.13776 613.886 5.50587 612.612 5.76068C611.337 6.01549 609.639 6.18533 607.515 6.27026C606.581 6.29858 605.76 6.31268 605.052 6.31268V0.961761H628.197V5.888L611.422 26.5274L614.055 28.6933C614.876 28.0421 615.797 27.49 616.816 27.037C617.835 26.5557 619.01 26.1594 620.341 25.848C621.7 25.5365 623.483 25.3384 625.692 25.2534C626.654 25.2251 627.518 25.2109 628.282 25.2109V30.5619H604.585V25.6356Z" fill="white"/>
<path d="M598.806 30.5619L595.621 22.4505L597.617 23.8519H581.861L583.857 22.4505L580.63 30.5619H573.665L586.278 0.961761H593.158L605.813 30.5619H598.806ZM588.019 5.888C588.047 6.99216 588.033 8.02555 587.977 8.98816C587.92 9.92245 587.792 10.8568 587.594 11.791C587.424 12.697 587.184 13.6313 586.872 14.5939C586.504 15.6414 585.712 17.411 584.494 19.9024L583.56 18.9257H595.876L594.941 19.9024C594.347 18.685 593.795 17.4393 593.285 16.1653C592.549 14.3816 592.068 12.7253 591.841 11.1965C591.615 9.63935 591.53 7.86983 591.586 5.888H588.019Z" fill="white"/>
<path d="M548.901 0.961761H560.155C563.496 0.961761 566.398 1.6129 568.861 2.91525C571.324 4.18929 573.207 5.94466 574.509 8.1813C575.811 10.4179 576.462 12.9519 576.462 15.7831C576.462 18.501 575.811 20.9924 574.509 23.2574C573.207 25.494 571.324 27.2777 568.861 28.6084C566.398 29.9107 563.496 30.5619 560.155 30.5619H548.901V0.961761ZM553.827 25.2109H559.73C561.797 25.2109 563.58 24.8145 565.081 24.0218C566.61 23.2291 567.771 22.1249 568.563 20.7093C569.384 19.2654 569.795 17.6234 569.795 15.7831C569.795 13.9428 569.384 12.3148 568.563 10.8992C567.771 9.45529 566.61 8.33705 565.081 7.54431C563.58 6.72327 561.797 6.31268 559.73 6.31268H553.827L555.441 4.74142V26.8247L553.827 25.2109Z" fill="white"/>
<path d="M511.859 0.961761H517.762L534.367 21.4313L537.467 19.3079C536.42 18.1471 535.556 17.0854 534.877 16.1228C534.197 15.1602 533.645 14.1268 533.22 13.0226C532.796 11.8902 532.583 10.7152 532.583 9.4978V0.961761H539.166V30.5619H533.73L516.955 9.96494L513.77 12.0459C514.959 13.1783 515.894 14.2967 516.573 15.4008C517.791 17.3544 518.399 19.4919 518.399 21.8134V30.5619H511.859V0.961761Z" fill="white"/>
<path d="M486.972 0.961761H510.372V6.31268H491.899L493.512 4.78387V14.5939L491.899 13.1075H509.056V18.1613H491.899L493.512 16.7598V26.8247L491.899 25.2109H510.882V30.5619H486.972V0.961761Z" fill="white"/>
<path d="M462.086 0.961761H485.485V6.31268H467.012L468.626 4.78387V14.5939L467.012 13.1075H484.169V18.1613H467.012L468.626 16.7598V26.8247L467.012 25.2109H485.995V30.5619H462.086V0.961761Z" fill="white"/>
<path d="M445.517 4.69891L447.004 6.31268H435.707V0.961761H461.91V6.31268H450.614L452.1 4.69891V30.5619H445.517V4.69891Z" fill="white"/>
<path d="M389.865 0.961761H413.265V6.31268H394.792L396.405 4.78387V14.5939L394.792 13.1075H411.949V18.1613H394.792L396.405 16.7598V26.8247L394.792 25.2109H413.775V30.5619H389.865V0.961761Z" fill="white"/>
<path d="M360.707 0.961761H366.61L383.215 21.4313L386.315 19.3079C385.267 18.1471 384.404 17.0854 383.724 16.1228C383.045 15.1602 382.493 14.1268 382.068 13.0226C381.643 11.8902 381.431 10.7152 381.431 9.4978V0.961761H388.014V30.5619H382.578L365.803 9.96494L362.618 12.0459C363.807 13.1783 364.741 14.2967 365.421 15.4008C366.638 17.3544 367.247 19.4919 367.247 21.8134V30.5619H360.707V0.961761Z" fill="white"/>
<path d="M344.139 4.69891L345.625 6.31268H334.329V0.961761H360.531V6.31268H349.235L350.721 4.69891V30.5619H344.139V4.69891Z" fill="white"/>
<path d="M333.67 30.5619L330.485 22.4505L332.481 23.8519H316.726L318.722 22.4505L315.494 30.5619H308.529L321.142 0.961761H328.022L340.678 30.5619H333.67ZM322.883 5.888C322.912 6.99216 322.898 8.02555 322.841 8.98816C322.784 9.92245 322.657 10.8568 322.459 11.791C322.289 12.697 322.048 13.6313 321.737 14.5939C321.369 15.6414 320.576 17.411 319.359 19.9024L318.424 18.9257H330.74L329.806 19.9024C329.211 18.685 328.659 17.4393 328.15 16.1653C327.413 14.3816 326.932 12.7253 326.706 11.1965C326.479 9.63935 326.394 7.86983 326.451 5.888H322.883Z" fill="white"/>
<path d="M284.761 0.961761H298.52C302.286 0.961761 305.103 1.62713 306.971 2.95779C308.84 4.26014 309.774 6.2278 309.774 8.86081C309.774 10.4746 309.35 11.8194 308.5 12.8952C307.651 13.9711 306.504 14.7922 305.06 15.3584C303.616 15.9246 301.988 16.2644 300.176 16.3776V19.7751C301.479 19.8317 302.597 20.1147 303.531 20.6244C304.494 21.1057 305.386 21.8984 306.207 23.0026L306.334 23.1725L311.77 30.5619H304.084L299.412 23.8944C299.299 23.7246 299.186 23.5547 299.072 23.3848C298.251 22.224 297.586 21.4029 297.076 20.9216C296.595 20.4403 296.057 20.1148 295.463 19.9449C294.868 19.7467 294.004 19.6476 292.872 19.6476H289.687L291.301 18.0763V30.5619H284.761V0.961761ZM289.687 15.4858H297.331C298.633 15.4858 299.709 15.3159 300.559 14.9762C301.436 14.6081 302.088 14.0702 302.512 13.3624C302.965 12.6546 303.192 11.7628 303.192 10.6869C303.192 9.12977 302.71 7.96895 301.748 7.20453C300.785 6.44011 299.313 6.05795 297.331 6.05795H289.687L291.301 4.40164V17.0146L289.687 15.4858Z" fill="white"/>
<path d="M276.338 0.961761H282.878V30.5619H276.338V0.961761Z" fill="white"/>
<path d="M246.394 0.961761H253.231C253.769 2.37736 254.278 3.70801 254.76 4.95374C256.119 8.88909 257.124 11.8901 257.775 13.9569C258.426 15.9954 258.879 17.8215 259.134 19.4353C259.389 21.0491 259.516 23.0167 259.516 25.3383H263.041C263.041 23.0733 263.168 21.1481 263.423 19.5627C263.678 17.9489 264.117 16.1511 264.74 14.1693C265.391 12.1592 266.339 9.27131 267.585 5.50583C268.18 4.0053 268.774 2.49061 269.369 0.961761H276.206L265.164 30.5619H257.435L246.394 0.961761Z" fill="white"/>
<path d="M223.205 0.961761H246.605V6.31268H228.132L229.745 4.78387V14.5939L228.132 13.1075H245.289V18.1613H228.132L229.745 16.7598V26.8247L228.132 25.2109H247.115V30.5619H223.205V0.961761Z" fill="white"/>
<path d="M194.047 0.961761H199.95L216.555 21.4313L219.655 19.3079C218.608 18.1471 217.744 17.0854 217.065 16.1228C216.385 15.1602 215.833 14.1268 215.408 13.0226C214.984 11.8902 214.771 10.7152 214.771 9.4978V0.961761H221.354V30.5619H215.918L199.143 9.96494L195.958 12.0459C197.147 13.1783 198.081 14.2967 198.761 15.4008C199.978 17.3544 200.587 19.4919 200.587 21.8134V30.5619H194.047V0.961761Z" fill="white"/>
<path d="M169.16 0.961761H192.56V6.31268H174.086L175.7 4.78387V14.5939L174.086 13.1075H191.243V18.1613H174.086L175.7 16.7598V26.8247L174.086 25.2109H193.07V30.5619H169.16V0.961761Z" fill="white"/>
<path d="M155.723 31.1139C153.26 31.1139 151.094 30.8025 149.225 30.1797C147.385 29.5568 145.955 28.665 144.936 27.5042C143.917 26.3151 143.407 24.9561 143.407 23.4272C143.407 22.04 143.818 20.8792 144.639 19.9449C145.46 19.0106 146.564 18.3028 147.951 17.8215C149.367 17.3119 150.938 17.0429 152.665 17.0146V13.5748C150.712 13.4898 148.999 13.2491 147.527 12.8528C146.054 12.4281 144.88 11.7769 144.002 10.8992C143.124 10.0215 142.685 8.87495 142.685 7.45935C142.685 6.01544 143.153 4.76974 144.087 3.7222C145.021 2.64635 146.366 1.82527 148.121 1.25903C149.877 0.692796 151.915 0.409668 154.237 0.409668C157.04 0.409668 159.588 0.791883 161.881 1.5563C164.174 2.32073 166.382 3.42493 168.506 4.86884L165.576 9.66766C164.16 8.50687 162.433 7.5726 160.394 6.86481C158.384 6.15701 156.402 5.78899 154.449 5.76068C152.835 5.76068 151.604 6.04372 150.754 6.60995C149.905 7.14788 149.48 7.85573 149.48 8.7334C149.48 9.35626 149.693 9.89421 150.117 10.3472C150.542 10.7719 151.136 11.1399 151.901 11.4513C152.694 11.7344 153.699 11.9892 154.916 12.2157L158.441 13.0226C161.442 13.6455 163.792 14.6789 165.491 16.1228C167.218 17.5667 168.081 19.506 168.081 21.9409C168.081 23.5546 167.586 25.0694 166.595 26.485C165.604 27.8722 164.174 28.9906 162.306 29.8399C160.437 30.6893 158.243 31.1139 155.723 31.1139ZM155.893 26.4001C157.025 26.4001 158.002 26.2018 158.823 25.8054C159.673 25.4091 160.31 24.8853 160.734 24.2342C161.187 23.583 161.414 22.861 161.414 22.0683C161.414 21.1906 161.173 20.4262 160.692 19.7751C160.239 19.0956 159.573 18.5718 158.696 18.2037C157.846 17.8074 156.87 17.6092 155.765 17.6092C154.718 17.6092 153.769 17.7932 152.92 18.1613C152.071 18.5293 151.405 19.0531 150.924 19.7325C150.443 20.3837 150.202 21.1482 150.202 22.0258C150.202 22.8469 150.443 23.5971 150.924 24.2766C151.405 24.9278 152.071 25.4516 152.92 25.848C153.798 26.216 154.789 26.4001 155.893 26.4001Z" fill="white"/>
<path d="M106.153 0.961761H112.056L128.661 21.4313L131.762 19.3079C130.714 18.1471 129.85 17.0854 129.171 16.1228C128.492 15.1602 127.939 14.1268 127.515 13.0226C127.09 11.8902 126.878 10.7152 126.878 9.4978V0.961761H133.46V30.5619H128.024L111.25 9.96494L108.064 12.0459C109.254 13.1783 110.188 14.2967 110.867 15.4008C112.085 17.3544 112.693 19.4919 112.693 21.8134V30.5619H106.153V0.961761Z" fill="white"/>
<path d="M81.2666 0.961761H104.666V6.31268H86.1928L87.8066 4.78387V14.5939L86.1928 13.1075H103.35V18.1613H86.1928L87.8066 16.7598V26.8247L86.1928 25.2109H105.176V30.5619H81.2666V0.961761Z" fill="white"/>
<path d="M54.1402 0.961761H67.8998C71.6653 0.961761 74.4823 1.62713 76.3509 2.95779C78.2195 4.26014 79.1538 6.2278 79.1538 8.86081C79.1538 10.4746 78.7291 11.8194 77.8798 12.8952C77.0304 13.9711 75.8838 14.7922 74.4399 15.3584C72.996 15.9246 71.368 16.2644 69.5561 16.3776V19.7751C70.8584 19.8317 71.9767 20.1147 72.911 20.6244C73.8736 21.1057 74.7654 21.8984 75.5865 23.0026L75.7139 23.1725L81.1498 30.5619H73.4631L68.7916 23.8944C68.6784 23.7246 68.5651 23.5547 68.4519 23.3848C67.6308 22.224 66.9655 21.4029 66.4559 20.9216C65.9746 20.4403 65.4367 20.1148 64.8421 19.9449C64.2476 19.7467 63.3841 19.6476 62.2516 19.6476H59.0665L60.6803 18.0763V30.5619H54.1402V0.961761ZM59.0665 15.4858H66.7107C68.013 15.4858 69.0889 15.3159 69.9383 14.9762C70.8159 14.6081 71.4671 14.0702 71.8918 13.3624C72.3448 12.6546 72.5713 11.7628 72.5713 10.6869C72.5713 9.12977 72.09 7.96895 71.1274 7.20453C70.1648 6.44011 68.6925 6.05795 66.7107 6.05795H59.0665L60.6803 4.40164V17.0146L59.0665 15.4858Z" fill="white"/>
<path d="M39.385 31.1564C36.7236 31.1564 34.4021 30.6892 32.4202 29.7549C30.4384 28.7923 28.9096 27.3626 27.8337 25.4657C26.7862 23.5688 26.2624 21.2473 26.2624 18.501V0.961761H32.8024V18.3311C32.8024 19.9166 33.0572 21.2614 33.5669 22.3656C34.1048 23.4414 34.8551 24.2625 35.8177 24.8287C36.8086 25.3666 37.9977 25.6356 39.385 25.6356C41.4517 25.6356 43.0514 25.0128 44.1838 23.767C45.3446 22.493 45.925 20.681 45.925 18.3311V0.961761H52.4651V18.501C52.4651 22.6345 51.2901 25.7772 48.9402 27.9289C46.6187 30.0806 43.4336 31.1564 39.385 31.1564Z" fill="white"/>
<path d="M13.0376 31.1139C10.5745 31.1139 8.40864 30.8025 6.54005 30.1797C4.69978 29.5568 3.27003 28.665 2.2508 27.5042C1.23157 26.3151 0.721955 24.9561 0.721955 23.4272C0.721955 22.04 1.13248 20.8792 1.95352 19.9449C2.77457 19.0106 3.87873 18.3028 5.26602 17.8215C6.68161 17.3119 8.25292 17.0429 9.97995 17.0146V13.5748C8.02643 13.4898 6.31356 13.2491 4.84134 12.8528C3.36912 12.4281 2.19417 11.7769 1.3165 10.8992C0.438833 10.0215 0 8.87495 0 7.45935C0 6.01544 0.467147 4.76974 1.40144 3.7222C2.33573 2.64635 3.68055 1.82527 5.43589 1.25903C7.19122 0.692796 9.22968 0.409668 11.5513 0.409668C14.3541 0.409668 16.9022 0.791883 19.1955 1.5563C21.4887 2.32073 23.6971 3.42493 25.8205 4.86884L22.8902 9.66766C21.4746 8.50687 19.7476 7.5726 17.7091 6.86481C15.699 6.15701 13.7171 5.78899 11.7636 5.76068C10.1498 5.76068 8.91825 6.04372 8.06889 6.60995C7.21954 7.14788 6.79486 7.85573 6.79486 8.7334C6.79486 9.35626 7.0072 9.89421 7.43188 10.3472C7.85655 10.7719 8.4511 11.1399 9.21553 11.4513C10.0083 11.7344 11.0133 11.9892 12.2307 12.2157L15.7556 13.0226C18.7566 13.6455 21.1065 14.6789 22.8052 16.1228C24.5323 17.5667 25.3958 19.506 25.3958 21.9409C25.3958 23.5546 24.9003 25.0694 23.9094 26.485C22.9185 27.8722 21.4887 28.9906 19.6202 29.8399C17.7516 30.6893 15.5574 31.1139 13.0376 31.1139ZM13.2075 26.4001C14.34 26.4001 15.3167 26.2018 16.1378 25.8054C16.9871 25.4091 17.6242 24.8853 18.0488 24.2342C18.5018 23.583 18.7283 22.861 18.7283 22.0683C18.7283 21.1906 18.4877 20.4262 18.0064 19.7751C17.5534 19.0956 16.8881 18.5718 16.0104 18.2037C15.161 17.8074 14.1843 17.6092 13.0801 17.6092C12.0326 17.6092 11.0841 17.7932 10.2348 18.1613C9.3854 18.5293 8.72007 19.0531 8.23877 19.7325C7.75746 20.3837 7.51681 21.1482 7.51681 22.0258C7.51681 22.8469 7.75746 23.5971 8.23877 24.2766C8.72007 24.9278 9.3854 25.4516 10.2348 25.848C11.1124 26.216 12.1033 26.4001 13.2075 26.4001Z" fill="white"/>
</svg>
