<svg width="661" height="32" viewBox="0 0 661 32" fill="none" xmlns="http://www.w3.org/2000/svg">
<path d="M633.382 1.38364H639.285L655.89 21.8531L658.99 19.7298C657.942 18.569 657.079 17.5073 656.399 16.5447C655.72 15.5821 655.168 14.5487 654.743 13.4445C654.318 12.312 654.106 11.1371 654.106 9.91971V1.38364H660.688V30.9838H655.253L638.478 10.3868L635.293 12.4678C636.482 13.6002 637.416 14.7186 638.096 15.8227C639.313 17.7762 639.922 19.9138 639.922 22.2354V30.9838H633.382V1.38364Z" fill="white"/>
<path d="M606.255 1.38364H620.015C623.78 1.38364 626.597 2.04898 628.466 3.37964C630.335 4.68199 631.269 6.64965 631.269 9.28265C631.269 10.8964 630.844 12.2413 629.995 13.3171C629.145 14.393 627.999 15.214 626.555 15.7803C625.111 16.3465 623.483 16.6862 621.671 16.7995V20.1969C622.973 20.2535 624.092 20.5367 625.026 21.0463C625.989 21.5276 626.88 22.3203 627.702 23.4245L627.829 23.5944L633.265 30.9838H625.578L620.907 24.3163C620.793 24.1464 620.68 23.9765 620.567 23.8067C619.746 22.6459 619.081 21.8248 618.571 21.3435C618.09 20.8622 617.552 20.5367 616.957 20.3668C616.363 20.1686 615.499 20.0695 614.367 20.0695H611.182L612.795 18.4982V30.9838H606.255V1.38364ZM611.182 15.9077H618.826C620.128 15.9077 621.204 15.7378 622.053 15.398C622.931 15.03 623.582 14.4921 624.007 13.7843C624.46 13.0765 624.686 12.1846 624.686 11.1088C624.686 9.55164 624.205 8.39086 623.242 7.62643C622.28 6.86201 620.808 6.4798 618.826 6.4798H611.182L612.795 4.82355V17.4365L611.182 15.9077Z" fill="white"/>
<path d="M581.368 1.38364H604.768V6.73459H586.295L587.908 5.20578V15.0158L586.295 13.5294H603.452V18.5831H586.295L587.908 17.1817V27.2466L586.295 25.6328H605.278V30.9838H581.368V1.38364Z" fill="white"/>
<path d="M564.8 5.12082L566.287 6.73459H554.99V1.38364H581.193V6.73459H569.896L571.383 5.12082V30.9838H564.8V5.12082Z" fill="white"/>
<path d="M542.817 5.12082L544.303 6.73459H533.006V1.38364H559.209V6.73459H547.913L549.399 5.12082V30.9838H542.817V5.12082Z" fill="white"/>
<path d="M532.348 30.9838L529.163 22.8724L531.159 24.2738H515.404L517.4 22.8724L514.172 30.9838H507.207L519.82 1.38364H526.7L539.355 30.9838H532.348ZM521.561 6.30994C521.59 7.4141 521.576 8.44749 521.519 9.4101C521.462 10.3444 521.335 11.2787 521.137 12.213C520.967 13.1189 520.726 14.0532 520.415 15.0158C520.047 16.0634 519.254 17.8329 518.037 20.3243L517.102 19.3476H529.418L528.484 20.3243C527.889 19.1069 527.337 17.8612 526.827 16.5871C526.091 14.8035 525.61 13.1473 525.383 11.6184C525.157 10.0613 525.072 8.29177 525.129 6.30994H521.561Z" fill="white"/>
<path d="M486.715 1.38364H499.965C502.485 1.38364 504.636 1.78002 506.42 2.57275C508.232 3.33718 509.605 4.46965 510.539 5.97018C511.502 7.47072 511.983 9.26854 511.983 11.3636C511.983 14.5629 510.922 17.0826 508.798 18.9229C506.675 20.7632 503.73 21.6833 499.965 21.6833H491.641L493.255 20.1969V30.9838H486.715V1.38364ZM491.641 16.5871H499.158C501.196 16.5871 502.754 16.1625 503.829 15.3131C504.905 14.4354 505.443 13.1756 505.443 11.5335C505.443 9.97632 504.905 8.78723 503.829 7.96619C502.754 7.14514 501.182 6.73459 499.115 6.73459H491.641L493.255 5.24823V18.0311L491.641 16.5871Z" fill="white"/>
<path d="M445.526 1.38364H454.699C455.492 3.28053 456.2 5.03588 456.822 6.64966C457.445 8.23512 457.927 9.66487 458.266 10.9389C458.691 12.3828 459.002 13.7418 459.201 15.0158C459.399 16.2616 459.498 17.5356 459.498 18.8379H462.938C462.938 17.394 463.065 15.9501 463.32 14.5062C463.575 13.034 463.971 11.4768 464.509 9.83475C465.047 8.19266 465.797 6.18252 466.76 3.80432C466.902 3.40795 467.227 2.60105 467.737 1.38364H476.952V30.9838H470.412C470.412 28.3791 470.455 25.7885 470.54 23.2121C470.653 20.8056 470.837 18.8521 471.092 17.3516C471.375 15.8227 471.743 14.4496 472.196 13.2322C472.649 12.0148 473.286 10.585 474.107 8.94293L470.709 7.71136L463.702 25.7177H458.691L451.726 7.71136L448.371 9.07034C449.192 10.7124 449.829 12.128 450.282 13.3171C450.735 14.5062 451.089 15.8369 451.344 17.3091C451.627 18.753 451.825 20.6358 451.939 22.9573C452.024 25.6187 452.066 28.2941 452.066 30.9838H445.526V1.38364Z" fill="white"/>
<path d="M428.826 31.5359C425.853 31.5359 423.192 30.8847 420.842 29.5823C418.492 28.2517 416.652 26.4255 415.321 24.104C413.99 21.7541 413.325 19.1211 413.325 16.205C413.325 13.2888 413.99 10.67 415.321 8.34839C416.652 6.02681 418.492 4.21485 420.842 2.91251C423.192 1.58185 425.853 0.916504 428.826 0.916504C431.77 0.916504 434.417 1.58185 436.767 2.91251C439.146 4.21485 441 6.02681 442.331 8.34839C443.661 10.67 444.327 13.2888 444.327 16.205C444.327 19.1211 443.661 21.7541 442.331 24.104C441 26.4255 439.146 28.2517 436.767 29.5823C434.417 30.8847 431.77 31.5359 428.826 31.5359ZM428.826 26.1425C430.609 26.1425 432.167 25.7178 433.497 24.8684C434.828 24.0191 435.847 22.8441 436.555 21.3436C437.263 19.843 437.617 18.1302 437.617 16.205C437.617 14.2797 437.263 12.5669 436.555 11.0663C435.847 9.56581 434.828 8.39086 433.497 7.5415C432.167 6.69215 430.609 6.26749 428.826 6.26749C427.042 6.26749 425.485 6.69215 424.154 7.5415C422.824 8.39086 421.79 9.56581 421.054 11.0663C420.346 12.5669 419.993 14.2797 419.993 16.205C419.993 18.1302 420.346 19.843 421.054 21.3436C421.79 22.8441 422.824 24.0191 424.154 24.8684C425.485 25.7178 427.042 26.1425 428.826 26.1425Z" fill="white"/>
<path d="M385.384 1.38364H396.638C399.979 1.38364 402.881 2.03481 405.344 3.33716C407.807 4.61119 409.69 6.36654 410.992 8.60318C412.295 10.8398 412.946 13.3737 412.946 16.2049C412.946 18.9229 412.295 21.4143 410.992 23.6793C409.69 25.9159 407.807 27.6996 405.344 29.0302C402.881 30.3326 399.979 30.9838 396.638 30.9838H385.384V1.38364ZM390.311 25.6328H396.214C398.28 25.6328 400.064 25.2365 401.564 24.4437C403.093 23.651 404.254 22.5468 405.047 21.1312C405.868 19.6873 406.278 18.0452 406.278 16.2049C406.278 14.3647 405.868 12.7367 405.047 11.3211C404.254 9.87723 403.093 8.75892 401.564 7.96619C400.064 7.14514 398.28 6.73459 396.214 6.73459H390.311L391.924 5.1633V27.2466L390.311 25.6328Z" fill="white"/>
<path d="M356.226 1.38364H362.129L378.734 21.8531L381.834 19.7298C380.786 18.569 379.923 17.5073 379.243 16.5447C378.564 15.5821 378.012 14.5487 377.587 13.4445C377.162 12.312 376.95 11.1371 376.95 9.91971V1.38364H383.533V30.9838H378.097L361.322 10.3868L358.137 12.4678C359.326 13.6002 360.26 14.7186 360.94 15.8227C362.157 17.7762 362.766 19.9138 362.766 22.2354V30.9838H356.226V1.38364Z" fill="white"/>
<path d="M349.058 30.9838L345.873 22.8724L347.869 24.2738H332.113L334.109 22.8724L330.882 30.9838H323.917L336.53 1.38364H343.41L356.065 30.9838H349.058ZM338.271 6.30994C338.299 7.4141 338.285 8.44749 338.229 9.4101C338.172 10.3444 338.045 11.2787 337.846 12.213C337.677 13.1189 337.436 14.0532 337.124 15.0158C336.756 16.0634 335.964 17.8329 334.746 20.3243L333.812 19.3476H346.128L345.193 20.3243C344.599 19.1069 344.047 17.8612 343.537 16.5871C342.801 14.8035 342.32 13.1473 342.093 11.6184C341.867 10.0613 341.782 8.29177 341.838 6.30994H338.271Z" fill="white"/>
<path d="M300.148 1.38364H313.908C317.673 1.38364 320.49 2.04898 322.359 3.37964C324.228 4.68199 325.162 6.64965 325.162 9.28265C325.162 10.8964 324.737 12.2413 323.888 13.3171C323.038 14.393 321.892 15.214 320.448 15.7803C319.004 16.3465 317.376 16.6862 315.564 16.7995V20.1969C316.866 20.2535 317.985 20.5367 318.919 21.0463C319.882 21.5276 320.773 22.3203 321.595 23.4245L321.722 23.5944L327.158 30.9838H319.471L314.8 24.3163C314.686 24.1464 314.573 23.9765 314.46 23.8067C313.639 22.6459 312.974 21.8248 312.464 21.3435C311.983 20.8622 311.445 20.5367 310.85 20.3668C310.256 20.1686 309.392 20.0695 308.26 20.0695H305.075L306.688 18.4982V30.9838H300.148V1.38364ZM305.075 15.9077H312.719C314.021 15.9077 315.097 15.7378 315.946 15.398C316.824 15.03 317.475 14.4921 317.9 13.7843C318.353 13.0765 318.579 12.1846 318.579 11.1088C318.579 9.55164 318.098 8.39086 317.135 7.62643C316.173 6.86201 314.701 6.4798 312.719 6.4798H305.075L306.688 4.82355V17.4365L305.075 15.9077Z" fill="white"/>
<path d="M259.799 31.5359C256.826 31.5359 254.165 30.8847 251.815 29.5823C249.465 28.2517 247.625 26.4255 246.294 24.104C244.963 21.7541 244.298 19.1211 244.298 16.205C244.298 13.2888 244.963 10.67 246.294 8.34839C247.625 6.02681 249.465 4.21485 251.815 2.91251C254.165 1.58185 256.826 0.916504 259.799 0.916504C262.743 0.916504 265.39 1.58185 267.74 2.91251C270.118 4.21485 271.973 6.02681 273.304 8.34839C274.634 10.67 275.3 13.2888 275.3 16.205C275.3 19.1211 274.634 21.7541 273.304 24.104C271.973 26.4255 270.118 28.2517 267.74 29.5823C265.39 30.8847 262.743 31.5359 259.799 31.5359ZM259.799 26.1425C261.582 26.1425 263.14 25.7178 264.47 24.8684C265.801 24.0191 266.82 22.8441 267.528 21.3436C268.236 19.843 268.59 18.1302 268.59 16.205C268.59 14.2797 268.236 12.5669 267.528 11.0663C266.82 9.56581 265.801 8.39086 264.47 7.5415C263.14 6.69215 261.582 6.26749 259.799 6.26749C258.015 6.26749 256.458 6.69215 255.127 7.5415C253.797 8.39086 252.763 9.56581 252.027 11.0663C251.319 12.5669 250.965 14.2797 250.965 16.205C250.965 18.1302 251.319 19.843 252.027 21.3436C252.763 22.8441 253.797 24.0191 255.127 24.8684C256.458 25.7178 258.015 26.1425 259.799 26.1425Z" fill="white"/>
<path d="M230.308 14.8035V17.1392L219.478 1.38364H227.122C228.906 4.01664 230.095 6.08342 230.69 7.58395C231.313 9.05617 231.624 10.6983 231.624 12.5102H235.276C235.276 11.1229 235.446 9.94799 235.786 8.98538C236.069 8.02278 236.522 6.96111 237.145 5.80032C237.768 4.63954 238.688 3.16729 239.905 1.38364H247.38L236.55 17.0118V14.7186L247.804 30.9838H240.16C238.801 29.2284 237.768 27.7562 237.06 26.5671C236.38 25.378 235.899 24.288 235.616 23.2971C235.333 22.2778 235.191 21.1454 235.191 19.8996H231.539C231.539 21.117 231.398 22.2212 231.114 23.2121C230.831 24.203 230.336 25.293 229.628 26.4821C228.949 27.6712 227.929 29.1718 226.57 30.9838H219.096L230.308 14.8035Z" fill="white"/>
<path d="M180.577 5.12082L182.064 6.73459H170.767V1.38364H196.97V6.73459H185.673L187.16 5.12082V30.9838H180.577V5.12082Z" fill="white"/>
<path d="M164.044 1.38364H170.584V30.9838H164.044V1.38364Z" fill="white"/>
<path d="M156.876 30.9838L153.691 22.8724L155.687 24.2738H139.931L141.927 22.8724L138.7 30.9838H131.735L144.348 1.38364H151.228L163.883 30.9838H156.876ZM146.089 6.30994C146.117 7.4141 146.103 8.44749 146.047 9.4101C145.99 10.3444 145.863 11.2787 145.664 12.213C145.495 13.1189 145.254 14.0532 144.942 15.0158C144.574 16.0634 143.782 17.8329 142.564 20.3243L141.63 19.3476H153.946L153.011 20.3243C152.417 19.1069 151.865 17.8612 151.355 16.5871C150.619 14.8035 150.138 13.1473 149.911 11.6184C149.685 10.0613 149.6 8.29177 149.656 6.30994H146.089Z" fill="white"/>
<path d="M107.966 1.38364H121.726C125.491 1.38364 128.308 2.04898 130.177 3.37964C132.046 4.68199 132.98 6.64965 132.98 9.28265C132.98 10.8964 132.555 12.2413 131.706 13.3171C130.856 14.393 129.71 15.214 128.266 15.7803C126.822 16.3465 125.194 16.6862 123.382 16.7995V20.1969C124.684 20.2535 125.803 20.5367 126.737 21.0463C127.7 21.5276 128.591 22.3203 129.413 23.4245L129.54 23.5944L134.976 30.9838H127.289L122.618 24.3163C122.504 24.1464 122.391 23.9765 122.278 23.8067C121.457 22.6459 120.792 21.8248 120.282 21.3435C119.801 20.8622 119.263 20.5367 118.668 20.3668C118.074 20.1686 117.21 20.0695 116.078 20.0695H112.893L114.506 18.4982V30.9838H107.966V1.38364ZM112.893 15.9077H120.537C121.839 15.9077 122.915 15.7378 123.764 15.398C124.642 15.03 125.293 14.4921 125.718 13.7843C126.171 13.0765 126.397 12.1846 126.397 11.1088C126.397 9.55164 125.916 8.39086 124.953 7.62643C123.991 6.86201 122.519 6.4798 120.537 6.4798H112.893L114.506 4.82355V17.4365L112.893 15.9077Z" fill="white"/>
<path d="M91.3981 5.12082L92.8845 6.73459H81.5881V1.38364H107.791V6.73459H96.4943L97.9807 5.12082V30.9838H91.3981V5.12082Z" fill="white"/>
<path d="M57.8608 1.38364H71.6204C75.3859 1.38364 78.2029 2.04898 80.0715 3.37964C81.9401 4.68199 82.8744 6.64965 82.8744 9.28265C82.8744 10.8964 82.4497 12.2413 81.6003 13.3171C80.751 14.393 79.6044 15.214 78.1605 15.7803C76.7165 16.3465 75.0886 16.6862 73.2766 16.7995V20.1969C74.579 20.2535 75.6973 20.5367 76.6316 21.0463C77.5942 21.5276 78.486 22.3203 79.3071 23.4245L79.4345 23.5944L84.8704 30.9838H77.1837L72.5122 24.3163C72.399 24.1464 72.2857 23.9765 72.1725 23.8067C71.3514 22.6459 70.6861 21.8248 70.1765 21.3435C69.6952 20.8622 69.1573 20.5367 68.5627 20.3668C67.9682 20.1686 67.1046 20.0695 65.9722 20.0695H62.7871L64.4009 18.4982V30.9838H57.8608V1.38364ZM62.7871 15.9077H70.4313C71.7336 15.9077 72.8095 15.7378 73.6589 15.398C74.5365 15.03 75.1877 14.4921 75.6124 13.7843C76.0654 13.0765 76.2919 12.1846 76.2919 11.1088C76.2919 9.55164 75.8106 8.39086 74.848 7.62643C73.8853 6.86201 72.4131 6.4798 70.4313 6.4798H62.7871L64.4009 4.82355V17.4365L62.7871 15.9077Z" fill="white"/>
<path d="M41.1606 31.5359C38.1879 31.5359 35.5266 30.8847 33.1767 29.5823C30.8268 28.2517 28.9865 26.4255 27.6559 24.104C26.3252 21.7541 25.6599 19.1211 25.6599 16.205C25.6599 13.2888 26.3252 10.67 27.6559 8.34839C28.9865 6.02681 30.8268 4.21485 33.1767 2.91251C35.5266 1.58185 38.1879 0.916504 41.1606 0.916504C44.1051 0.916504 46.7523 1.58185 49.1021 2.91251C51.4803 4.21485 53.3348 6.02681 54.6654 8.34839C55.9961 10.67 56.6614 13.2888 56.6614 16.205C56.6614 19.1211 55.9961 21.7541 54.6654 24.104C53.3348 26.4255 51.4803 28.2517 49.1021 29.5823C46.7523 30.8847 44.1051 31.5359 41.1606 31.5359ZM41.1606 26.1425C42.9443 26.1425 44.5015 25.7178 45.8321 24.8684C47.1628 24.0191 48.182 22.8441 48.8898 21.3436C49.5976 19.843 49.9515 18.1302 49.9515 16.205C49.9515 14.2797 49.5976 12.5669 48.8898 11.0663C48.182 9.56581 47.1628 8.39086 45.8321 7.5415C44.5015 6.69215 42.9443 6.26749 41.1606 6.26749C39.377 6.26749 37.8198 6.69215 36.4892 7.5415C35.1585 8.39086 34.1251 9.56581 33.389 11.0663C32.6812 12.5669 32.3273 14.2797 32.3273 16.205C32.3273 18.1302 32.6812 19.843 33.389 21.3436C34.1251 22.8441 35.1585 24.0191 36.4892 24.8684C37.8198 25.7178 39.377 26.1425 41.1606 26.1425Z" fill="white"/>
<path d="M0 1.38364H13.25C15.7697 1.38364 17.9214 1.78002 19.7051 2.57275C21.5171 3.33718 22.8902 4.46965 23.8245 5.97018C24.7871 7.47072 25.2684 9.26854 25.2684 11.3636C25.2684 14.5629 24.2067 17.0826 22.0833 18.9229C19.9599 20.7632 17.0155 21.6833 13.25 21.6833H4.92627L6.54005 20.1969V30.9838H0V1.38364ZM4.92627 16.5871H12.4431C14.4815 16.5871 16.0387 16.1625 17.1145 15.3131C18.1904 14.4354 18.7283 13.1756 18.7283 11.5335C18.7283 9.97632 18.1904 8.78723 17.1145 7.96619C16.0387 7.14514 14.4674 6.73459 12.4006 6.73459H4.92627L6.54005 5.24823V18.0311L4.92627 16.5871Z" fill="white"/>
</svg>
