<svg width="616" height="32" viewBox="0 0 616 32" fill="none" xmlns="http://www.w3.org/2000/svg">
<path d="M453.026 0.961746H476.426V6.3127H457.952L459.566 4.78386V14.5939L457.952 13.1075H475.109V18.1612H457.952L459.566 16.7598V26.8247L457.952 25.2109H476.935V30.5619H453.026V0.961746Z" fill="white"/>
<path d="M436.458 4.69891L437.944 6.3127H426.648V0.961746H452.851V6.3127H441.554L443.041 4.69891V30.5619H436.458V4.69891Z" fill="white"/>
<path d="M425.99 30.5619L422.804 22.4505L424.801 23.8519H409.045L411.041 22.4505L407.813 30.5619H400.849L413.462 0.961746H420.341L432.997 30.5619H425.99ZM415.203 5.88803C415.231 6.99219 415.217 8.02558 415.16 8.98819C415.104 9.92248 414.976 10.8568 414.778 11.7911C414.608 12.697 414.368 13.6313 414.056 14.5939C413.688 15.6415 412.895 17.411 411.678 19.9024L410.744 18.9256H423.059L422.125 19.9024C421.53 18.685 420.978 17.4393 420.469 16.1652C419.733 14.3816 419.251 12.7254 419.025 11.1965C418.798 9.63936 418.713 7.86986 418.77 5.88803H415.203Z" fill="white"/>
<path d="M373.389 0.961746H379.292L395.897 21.4313L398.997 19.3079C397.95 18.1471 397.086 17.0854 396.406 16.1228C395.727 15.1602 395.175 14.1268 394.75 13.0226C394.326 11.8901 394.113 10.7152 394.113 9.4978V0.961746H400.696V30.5619H395.26L378.485 9.96494L375.3 12.0459C376.489 13.1783 377.423 14.2967 378.103 15.4008C379.32 17.3544 379.929 19.4919 379.929 21.8135V30.5619H373.389V0.961746Z" fill="white"/>
<path d="M320.581 0.961746H326.484L343.089 21.4313L346.189 19.3079C345.142 18.1471 344.278 17.0854 343.599 16.1228C342.919 15.1602 342.367 14.1268 341.943 13.0226C341.518 11.8901 341.305 10.7152 341.305 9.4978V0.961746H347.888V30.5619H342.452L325.677 9.96494L322.492 12.0459C323.681 13.1783 324.616 14.2967 325.295 15.4008C326.512 17.3544 327.121 19.4919 327.121 21.8135V30.5619H320.581V0.961746Z" fill="white"/>
<path d="M303.881 31.1139C300.908 31.1139 298.247 30.4628 295.897 29.1604C293.547 27.8298 291.707 26.0036 290.376 23.6821C289.045 21.3322 288.38 18.6992 288.38 15.783C288.38 12.8669 289.045 10.2481 290.376 7.92648C291.707 5.60491 293.547 3.79293 295.897 2.49059C298.247 1.15993 300.908 0.494598 303.881 0.494598C306.825 0.494598 309.472 1.15993 311.822 2.49059C314.201 3.79293 316.055 5.60491 317.386 7.92648C318.716 10.2481 319.382 12.8669 319.382 15.783C319.382 18.6992 318.716 21.3322 317.386 23.6821C316.055 26.0036 314.201 27.8298 311.822 29.1604C309.472 30.4628 306.825 31.1139 303.881 31.1139ZM303.881 25.7205C305.665 25.7205 307.222 25.2958 308.552 24.4465C309.883 23.5971 310.902 22.4222 311.61 20.9216C312.318 19.4211 312.672 17.7082 312.672 15.783C312.672 13.8578 312.318 12.145 311.61 10.6444C310.902 9.14389 309.883 7.96894 308.552 7.11958C307.222 6.27023 305.665 5.84557 303.881 5.84557C302.097 5.84557 300.54 6.27023 299.209 7.11958C297.879 7.96894 296.845 9.14389 296.109 10.6444C295.401 12.145 295.048 13.8578 295.048 15.783C295.048 17.7082 295.401 19.4211 296.109 20.9216C296.845 22.4222 297.879 23.5971 299.209 24.4465C300.54 25.2958 302.097 25.7205 303.881 25.7205Z" fill="white"/>
<path d="M276.617 31.1139C274.154 31.1139 271.988 30.8025 270.119 30.1797C268.279 29.5568 266.849 28.665 265.83 27.5042C264.811 26.3151 264.301 24.9561 264.301 23.4272C264.301 22.04 264.712 20.8792 265.533 19.9449C266.354 19.0106 267.458 18.3028 268.845 17.8215C270.261 17.3119 271.832 17.0429 273.559 17.0146V13.5747C271.606 13.4898 269.893 13.2491 268.421 12.8528C266.948 12.4281 265.773 11.7769 264.896 10.8992C264.018 10.0216 263.579 8.87493 263.579 7.45934C263.579 6.01543 264.046 4.76971 264.981 3.72217C265.915 2.64632 267.26 1.82526 269.015 1.25902C270.77 0.69278 272.809 0.409668 275.13 0.409668C277.933 0.409668 280.482 0.791883 282.775 1.5563C285.068 2.32073 287.276 3.42488 289.4 4.86879L286.469 9.66766C285.054 8.50687 283.327 7.57257 281.288 6.86478C279.278 6.15698 277.296 5.78893 275.343 5.76062C273.729 5.76062 272.498 6.04373 271.648 6.60997C270.799 7.1479 270.374 7.8557 270.374 8.73337C270.374 9.35623 270.586 9.89416 271.011 10.3472C271.436 10.7718 272.03 11.1399 272.795 11.4513C273.588 11.7344 274.593 11.9892 275.81 12.2157L279.335 13.0226C282.336 13.6455 284.686 14.6789 286.385 16.1228C288.112 17.5667 288.975 19.506 288.975 21.9409C288.975 23.5547 288.48 25.0693 287.489 26.4849C286.498 27.8722 285.068 28.9905 283.199 29.8399C281.331 30.6892 279.137 31.1139 276.617 31.1139ZM276.787 26.4C277.919 26.4 278.896 26.2018 279.717 25.8055C280.566 25.4091 281.203 24.8853 281.628 24.2341C282.081 23.583 282.308 22.861 282.308 22.0683C282.308 21.1906 282.067 20.4262 281.586 19.775C281.133 19.0955 280.467 18.5718 279.59 18.2037C278.74 17.8073 277.763 17.6092 276.659 17.6092C275.612 17.6092 274.663 17.7932 273.814 18.1612C272.965 18.5293 272.299 19.0531 271.818 19.7325C271.337 20.3837 271.096 21.1481 271.096 22.0258C271.096 22.8468 271.337 23.5971 271.818 24.2766C272.299 24.9278 272.965 25.4515 273.814 25.8479C274.692 26.216 275.683 26.4 276.787 26.4Z" fill="white"/>
<path d="M234.93 0.961746H240.833L257.438 21.4313L260.538 19.3079C259.491 18.1471 258.627 17.0854 257.948 16.1228C257.268 15.1602 256.716 14.1268 256.292 13.0226C255.867 11.8901 255.654 10.7152 255.654 9.4978V0.961746H262.237V30.5619H256.801L240.026 9.96494L236.841 12.0459C238.03 13.1783 238.965 14.2967 239.644 15.4008C240.862 17.3544 241.47 19.4919 241.47 21.8135V30.5619H234.93V0.961746Z" fill="white"/>
<path d="M218.23 31.1139C215.257 31.1139 212.596 30.4628 210.246 29.1604C207.896 27.8298 206.056 26.0036 204.725 23.6821C203.395 21.3322 202.729 18.6992 202.729 15.783C202.729 12.8669 203.395 10.2481 204.725 7.92648C206.056 5.60491 207.896 3.79293 210.246 2.49059C212.596 1.15993 215.257 0.494598 218.23 0.494598C221.175 0.494598 223.822 1.15993 226.172 2.49059C228.55 3.79293 230.404 5.60491 231.735 7.92648C233.066 10.2481 233.731 12.8669 233.731 15.783C233.731 18.6992 233.066 21.3322 231.735 23.6821C230.404 26.0036 228.55 27.8298 226.172 29.1604C223.822 30.4628 221.175 31.1139 218.23 31.1139ZM218.23 25.7205C220.014 25.7205 221.571 25.2958 222.902 24.4465C224.232 23.5971 225.251 22.4222 225.959 20.9216C226.667 19.4211 227.021 17.7082 227.021 15.783C227.021 13.8578 226.667 12.145 225.959 10.6444C225.251 9.14389 224.232 7.96894 222.902 7.11958C221.571 6.27023 220.014 5.84557 218.23 5.84557C216.446 5.84557 214.889 6.27023 213.559 7.11958C212.228 7.96894 211.195 9.14389 210.458 10.6444C209.751 12.145 209.397 13.8578 209.397 15.783C209.397 17.7082 209.751 19.4211 210.458 20.9216C211.195 22.4222 212.228 23.5971 213.559 24.4465C214.889 25.2958 216.446 25.7205 218.23 25.7205Z" fill="white"/>
<path d="M190.697 31.1564C188.318 31.1564 186.252 30.6468 184.496 29.6276C182.741 28.6083 181.368 27.1078 180.377 25.126L184.369 21.0915C184.963 22.5071 185.742 23.583 186.705 24.3191C187.667 25.0552 188.771 25.4232 190.017 25.4232C191.574 25.4232 192.82 24.9986 193.754 24.1492C194.689 23.2715 195.156 21.955 195.156 20.1997V0.961746H201.738V20.9641C201.738 23.1441 201.257 25.0127 200.294 26.5699C199.332 28.0987 198.015 29.2453 196.345 30.0098C194.674 30.7742 192.792 31.1564 190.697 31.1564Z" fill="white"/>
<path d="M134.638 0.961746H141.433C142.311 5.29347 142.891 8.80416 143.174 11.4938C143.486 14.1834 143.556 16.5616 143.387 18.6284C143.217 20.6951 142.792 22.8893 142.112 25.2109L145.765 25.6356C146.189 21.9833 146.685 18.685 147.251 15.7406C147.817 12.7678 148.822 7.84154 150.266 0.961746H158.887C160.105 6.00127 161.11 10.9134 161.903 15.6981C162.582 19.4353 163.077 22.7478 163.389 25.6356L167.084 25.2109C166.432 22.5779 166.022 20.1714 165.852 17.9914C165.71 15.8113 165.781 13.4331 166.064 10.8568C166.347 8.25205 166.9 4.95372 167.721 0.961746H174.516L168.103 30.5619H159.524C158.052 24.1634 157.09 19.2795 156.637 15.9104C156.212 12.513 156.099 8.97401 156.297 5.29346H152.857C153.083 8.80413 152.97 12.2582 152.517 15.6556C152.092 19.0248 151.13 23.9935 149.629 30.5619H141.051L134.638 0.961746Z" fill="white"/>
<path d="M111.45 0.961746H134.85V6.3127H116.376L117.99 4.78386V14.5939L116.376 13.1075H133.533V18.1612H116.376L117.99 16.7598V26.8247L116.376 25.2109H135.359V30.5619H111.45V0.961746Z" fill="white"/>
<path d="M103.022 0.961746H109.605V30.5619H103.022V0.961746ZM83.7845 0.961746H90.3246V30.5619H83.7845V0.961746ZM89.7725 12.8952H103.617V18.2462H89.7725V12.8952Z" fill="white"/>
<path d="M67.2164 4.69891L68.7028 6.3127H57.4062V0.961746H83.6089V6.3127H72.3124L73.7989 4.69891V30.5619H67.2164V4.69891Z" fill="white"/>
<path d="M56.7481 30.5619L53.563 22.4505L55.559 23.8519H39.8034L41.7994 22.4505L38.5719 30.5619H31.6071L44.2201 0.961746H51.0999L63.7552 30.5619H56.7481ZM45.9613 5.88803C45.9896 6.99219 45.9754 8.02558 45.9188 8.98819C45.8621 9.92248 45.7348 10.8568 45.5366 11.7911C45.3667 12.697 45.1261 13.6313 44.8146 14.5939C44.4466 15.6415 43.6539 17.411 42.4365 19.9024L41.5021 18.9256H53.8178L52.8835 19.9024C52.289 18.685 51.7368 17.4393 51.2272 16.1652C50.4911 14.3816 50.0099 12.7254 49.7834 11.1965C49.5569 9.63936 49.4719 7.86986 49.5286 5.88803H45.9613Z" fill="white"/>
<path d="M0 0.961746H9.17303C9.96577 2.85864 10.6736 4.61399 11.2964 6.22777C11.9193 7.81323 12.4006 9.24298 12.7404 10.517C13.165 11.9609 13.4765 13.3199 13.6747 14.5939C13.8729 15.8397 13.972 17.1137 13.972 18.416H17.4119C17.4119 16.9721 17.5393 15.5282 17.7941 14.0843C18.0489 12.6121 18.4452 11.0549 18.9832 9.41286C19.5211 7.77077 20.2713 5.76063 21.2339 3.38243C21.3755 2.98606 21.701 2.17916 22.2106 0.961746H31.4262V30.5619H24.8862C24.8862 27.9572 24.9287 25.3666 25.0136 22.7902C25.1269 20.3837 25.3108 18.4302 25.5656 16.9297C25.8487 15.4008 26.2169 14.0277 26.6699 12.8103C27.1229 11.5929 27.7599 10.1631 28.5809 8.52103L25.1835 7.28947L18.1763 25.2958H13.165L6.20032 7.28947L2.84534 8.64844C3.66638 10.2905 4.30342 11.7061 4.75641 12.8952C5.2094 14.0843 5.56325 15.415 5.81805 16.8872C6.10117 18.3311 6.29935 20.2138 6.4126 22.5354C6.49753 25.1967 6.54004 27.8722 6.54004 30.5619H0V0.961746Z" fill="white"/>
<path d="M591.747 0.750793H615.147V6.10175H596.673L598.287 4.57291V14.383L596.673 12.8966H613.83V17.9503H596.673L598.287 16.5488V26.6137L596.673 25H615.656V30.3509H591.747V0.750793Z" fill="white"/>
<path d="M579.519 30.9454C576.603 30.9454 573.984 30.3084 571.662 29.0344C569.369 27.732 567.571 25.9201 566.269 23.5985C564.966 21.2486 564.315 18.559 564.315 15.5296C564.315 12.5002 564.966 9.82475 566.269 7.50317C567.599 5.1816 569.44 3.38381 571.79 2.10977C574.168 0.807424 576.857 0.15625 579.858 0.15625C582.208 0.15625 584.289 0.53845 586.101 1.30287C587.913 2.06729 589.584 3.15731 591.112 4.57291L587.8 8.94708C586.752 7.92785 585.62 7.14928 584.403 6.61136C583.185 6.04512 581.812 5.76201 580.283 5.76201C578.471 5.76201 576.843 6.18668 575.399 7.03604C573.984 7.85709 572.88 9.01787 572.087 10.5184C571.294 12.0189 570.898 13.7318 570.898 15.657C570.898 17.5822 571.294 19.2668 572.087 20.7107C572.908 22.1546 574.026 23.2729 575.442 24.0657C576.886 24.8301 578.514 25.2123 580.326 25.2123C581.883 25.2123 583.27 24.9008 584.487 24.278C585.733 23.6551 586.88 22.7775 587.927 21.645L591.325 26.1466C589.739 27.7037 588.012 28.8928 586.144 29.7139C584.303 30.5349 582.095 30.9454 579.519 30.9454Z" fill="white"/>
<path d="M550.778 19.1818L539.694 0.750793H546.913C548.357 3.10068 549.447 5.09666 550.183 6.73875C550.948 8.35253 551.472 9.90969 551.755 11.4102C552.066 12.8824 552.222 14.6095 552.222 16.5913H555.959C555.959 14.6095 556.101 12.8683 556.384 11.3678C556.695 9.86722 557.219 8.31007 557.955 6.69629C558.691 5.08251 559.781 3.10068 561.225 0.750793H568.487L557.36 19.1818V30.3509H550.778V19.1818Z" fill="white"/>
<path d="M528.383 30.903C525.411 30.903 522.749 30.2518 520.399 28.9495C518.05 27.6188 516.209 25.7927 514.879 23.4711C513.548 21.1212 512.883 18.4882 512.883 15.5721C512.883 12.656 513.548 10.0371 514.879 7.71555C516.209 5.39397 518.05 3.582 520.399 2.27965C522.749 0.948988 525.411 0.283661 528.383 0.283661C531.328 0.283661 533.975 0.948988 536.325 2.27965C538.703 3.582 540.558 5.39397 541.888 7.71555C543.219 10.0371 543.884 12.656 543.884 15.5721C543.884 18.4882 543.219 21.1212 541.888 23.4711C540.558 25.7927 538.703 27.6188 536.325 28.9495C533.975 30.2518 531.328 30.903 528.383 30.903ZM528.383 25.5096C530.167 25.5096 531.724 25.0849 533.055 24.2355C534.386 23.3862 535.405 22.2112 536.113 20.7107C536.82 19.2102 537.174 17.4973 537.174 15.5721C537.174 13.6469 536.82 11.934 536.113 10.4335C535.405 8.93296 534.386 7.758 533.055 6.90865C531.724 6.05929 530.167 5.63463 528.383 5.63463C526.6 5.63463 525.043 6.05929 523.712 6.90865C522.381 7.758 521.348 8.93296 520.612 10.4335C519.904 11.934 519.55 13.6469 519.55 15.5721C519.55 17.4973 519.904 19.2102 520.612 20.7107C521.348 22.2112 522.381 23.3862 523.712 24.2355C525.043 25.0849 526.6 25.5096 528.383 25.5096Z" fill="white"/>
<path d="M487.388 0.750793H502.124C504.276 0.750793 506.088 0.977278 507.56 1.43027C509.06 1.85495 510.207 2.5769 511 3.59613C511.821 4.58705 512.231 5.86109 512.231 7.41824C512.231 8.72059 511.948 9.81061 511.382 10.6883C510.816 11.5376 509.995 12.1746 508.919 12.5993C507.871 13.024 506.597 13.2788 505.097 13.3637V16.8036C506.824 16.8319 508.282 17.0585 509.471 17.4831C510.688 17.9078 511.623 18.559 512.274 19.4367C512.925 20.3143 513.251 21.4609 513.251 22.8765C513.251 24.5186 512.798 25.8918 511.892 26.9959C511.014 28.1001 509.782 28.9353 508.197 29.5015C506.611 30.0678 504.771 30.3509 502.676 30.3509H487.388V0.750793ZM501.445 25.2548C502.52 25.2548 503.441 25.1273 504.205 24.8725C504.998 24.5894 505.592 24.1647 505.989 23.5985C506.413 23.0323 506.626 22.3103 506.626 21.4326C506.626 20.6116 506.413 19.9321 505.989 19.3942C505.592 18.8563 505.012 18.4599 504.247 18.2051C503.483 17.9503 502.549 17.8229 501.445 17.8229H493.97V25.2548H501.445ZM500.468 12.9815C502.195 12.9815 503.483 12.6984 504.332 12.1322C505.21 11.5376 505.649 10.6033 505.649 9.3293C505.649 8.11189 505.21 7.23422 504.332 6.69629C503.483 6.13005 502.195 5.84694 500.468 5.84694H493.97V12.9815H500.468Z" fill="white"/>
</svg>
