<svg width="616" height="32" viewBox="0 0 616 32" fill="none" xmlns="http://www.w3.org/2000/svg">
<path d="M600.255 31.5358C597.282 31.5358 594.621 30.8847 592.271 29.5823C589.921 28.2516 588.081 26.4255 586.75 24.1039C585.42 21.7541 584.754 19.1211 584.754 16.2049C584.754 13.2888 585.42 10.6699 586.75 8.34836C588.081 6.02678 589.921 4.21482 592.271 2.91248C594.621 1.58182 597.282 0.916473 600.255 0.916473C603.2 0.916473 605.847 1.58182 608.197 2.91248C610.575 4.21482 612.429 6.02678 613.76 8.34836C615.091 10.6699 615.756 13.2888 615.756 16.2049C615.756 19.1211 615.091 21.7541 613.76 24.1039C612.429 26.4255 610.575 28.2516 608.197 29.5823C605.847 30.8847 603.2 31.5358 600.255 31.5358ZM600.255 26.1424C602.039 26.1424 603.596 25.7177 604.927 24.8684C606.257 24.019 607.276 22.8441 607.984 21.3435C608.692 19.843 609.046 18.1301 609.046 16.2049C609.046 14.2797 608.692 12.5668 607.984 11.0663C607.276 9.56578 606.257 8.39083 604.927 7.54147C603.596 6.69212 602.039 6.26746 600.255 6.26746C598.471 6.26746 596.914 6.69212 595.584 7.54147C594.253 8.39083 593.22 9.56578 592.484 11.0663C591.776 12.5668 591.422 14.2797 591.422 16.2049C591.422 18.1301 591.776 19.843 592.484 21.3435C593.22 22.8441 594.253 24.019 595.584 24.8684C596.914 25.7177 598.471 26.1424 600.255 26.1424Z" fill="white"/>
<path d="M556.814 1.38361H568.068C571.408 1.38361 574.31 2.03478 576.773 3.33713C579.237 4.61116 581.119 6.36651 582.422 8.60315C583.724 10.8398 584.375 13.3737 584.375 16.2049C584.375 18.9228 583.724 21.4143 582.422 23.6793C581.119 25.9159 579.237 27.6996 576.773 29.0302C574.31 30.3326 571.408 30.9837 568.068 30.9837H556.814V1.38361ZM561.74 25.6328H567.643C569.71 25.6328 571.493 25.2364 572.994 24.4437C574.523 23.651 575.683 22.5468 576.476 21.1312C577.297 19.6873 577.708 18.0452 577.708 16.2049C577.708 14.3646 577.297 12.7367 576.476 11.3211C575.683 9.8772 574.523 8.75889 572.994 7.96616C571.493 7.14511 569.71 6.73456 567.643 6.73456H561.74L563.354 5.16327V27.2466L561.74 25.6328Z" fill="white"/>
<path d="M529.687 1.38361H543.447C547.212 1.38361 550.029 2.04895 551.898 3.37961C553.766 4.68196 554.701 6.64962 554.701 9.28262C554.701 10.8964 554.276 12.2413 553.427 13.3171C552.577 14.393 551.431 15.214 549.987 15.7802C548.543 16.3465 546.915 16.6862 545.103 16.7994V20.1969C546.405 20.2535 547.524 20.5366 548.458 21.0462C549.42 21.5275 550.312 22.3203 551.133 23.4244L551.261 23.5943L556.697 30.9837H549.01L544.339 24.3163C544.225 24.1464 544.112 23.9765 543.999 23.8066C543.178 22.6459 542.512 21.8248 542.003 21.3435C541.521 20.8622 540.983 20.5366 540.389 20.3668C539.794 20.1686 538.931 20.0695 537.798 20.0695H534.613L536.227 18.4982V30.9837H529.687V1.38361ZM534.613 15.9076H542.258C543.56 15.9076 544.636 15.7378 545.485 15.398C546.363 15.03 547.014 14.492 547.439 13.7842C547.892 13.0764 548.118 12.1846 548.118 11.1088C548.118 9.55161 547.637 8.39083 546.674 7.6264C545.712 6.86198 544.239 6.47977 542.258 6.47977H534.613L536.227 4.82352V17.4365L534.613 15.9076Z" fill="white"/>
<path d="M522.519 30.9837L519.334 22.8724L521.33 24.2738H505.575L507.571 22.8724L504.343 30.9837H497.378L509.991 1.38361H516.871L529.527 30.9837H522.519ZM511.733 6.30991C511.761 7.41407 511.747 8.44746 511.69 9.41006C511.633 10.3444 511.506 11.2786 511.308 12.2129C511.138 13.1189 510.897 14.0532 510.586 15.0158C510.218 16.0633 509.425 17.8328 508.208 20.3243L507.273 19.3475H519.589L518.655 20.3243C518.06 19.1069 517.508 17.8611 516.999 16.5871C516.262 14.8034 515.781 13.1472 515.555 11.6184C515.328 10.0612 515.243 8.29174 515.3 6.30991H511.733Z" fill="white"/>
<path d="M476.471 1.38361H483.011V27.2466L481.397 25.6328H498.937V30.9837H476.471V1.38361Z" fill="white"/>
<path d="M453.865 1.38361H460.406V27.2466L458.792 25.6328H476.331V30.9837H453.865V1.38361Z" fill="white"/>
<path d="M446.698 30.9837L443.512 22.8724L445.509 24.2738H429.753L431.749 22.8724L428.521 30.9837H421.557L434.17 1.38361H441.049L453.705 30.9837H446.698ZM435.911 6.30991C435.939 7.41407 435.925 8.44746 435.868 9.41006C435.812 10.3444 435.684 11.2786 435.486 12.2129C435.316 13.1189 435.076 14.0532 434.764 15.0158C434.396 16.0633 433.603 17.8328 432.386 20.3243L431.452 19.3475H443.767L442.833 20.3243C442.238 19.1069 441.686 17.8611 441.177 16.5871C440.441 14.8034 439.959 13.1472 439.733 11.6184C439.506 10.0612 439.421 8.29174 439.478 6.30991H435.911Z" fill="white"/>
<path d="M406.624 31.5358C404.218 31.5358 402.009 30.8846 399.999 29.5823C397.989 28.2799 396.403 26.468 395.243 24.1464C394.082 21.7965 393.501 19.1352 393.501 16.1624C393.501 13.1897 394.153 10.5425 395.455 8.22095C396.757 5.87106 398.569 4.04493 400.891 2.74258C403.212 1.44024 405.86 0.789062 408.832 0.789062C411.295 0.789062 413.603 1.25623 415.755 2.19052C417.906 3.12481 419.747 4.37052 421.275 5.92767L417.581 10.1745C416.392 8.98537 415.132 8.05107 413.801 7.37158C412.47 6.6921 410.913 6.35236 409.13 6.35236C407.289 6.35236 405.675 6.79121 404.288 7.66888C402.929 8.51824 401.882 9.69316 401.146 11.1937C400.409 12.6942 400.041 14.3505 400.041 16.1624C400.041 18.0877 400.409 19.8147 401.146 21.3435C401.882 22.844 402.943 24.019 404.331 24.8683C405.718 25.7177 407.36 26.1424 409.257 26.1424C410.729 26.1424 412.046 25.8168 413.206 25.1656C414.367 24.4861 415.259 23.4811 415.882 22.1504C416.505 20.8197 416.731 19.1918 416.561 17.2666L418.218 19.0503H408.025V14.3788H421.785V30.9837H416.264C416.717 29.9079 417.184 28.9169 417.666 28.011C418.203 26.9068 418.798 25.8734 419.449 24.9108L415.924 23.382C415.67 24.6843 415.188 25.9583 414.48 27.2041C413.773 28.4215 412.768 29.4549 411.465 30.3043C410.163 31.1253 408.549 31.5358 406.624 31.5358Z" fill="white"/>
<path d="M369.687 5.12079L371.174 6.73456H359.877V1.38361H386.08V6.73456H374.783L376.27 5.12079V30.9837H369.687V5.12079Z" fill="white"/>
<path d="M336.15 1.38361H349.909C353.675 1.38361 356.492 2.04895 358.36 3.37961C360.229 4.68196 361.163 6.64962 361.163 9.28262C361.163 10.8964 360.739 12.2413 359.889 13.3171C359.04 14.393 357.893 15.214 356.449 15.7802C355.006 16.3465 353.378 16.6862 351.566 16.7994V20.1969C352.868 20.2535 353.986 20.5366 354.921 21.0462C355.883 21.5275 356.775 22.3203 357.596 23.4244L357.723 23.5943L363.159 30.9837H355.473L350.801 24.3163C350.688 24.1464 350.575 23.9765 350.461 23.8066C349.64 22.6459 348.975 21.8248 348.465 21.3435C347.984 20.8622 347.446 20.5366 346.852 20.3668C346.257 20.1686 345.394 20.0695 344.261 20.0695H341.076L342.69 18.4982V30.9837H336.15V1.38361ZM341.076 15.9076H348.72C350.023 15.9076 351.098 15.7378 351.948 15.398C352.825 15.03 353.477 14.492 353.901 13.7842C354.354 13.0764 354.581 12.1846 354.581 11.1088C354.581 9.55161 354.099 8.39083 353.137 7.6264C352.174 6.86198 350.702 6.47977 348.72 6.47977H341.076L342.69 4.82352V17.4365L341.076 15.9076Z" fill="white"/>
<path d="M311.263 1.38361H334.663V6.73456H316.189L317.803 5.20575V15.0158L316.189 13.5294H333.346V18.5831H316.189L317.803 17.1817V27.2466L316.189 25.6328H335.172V30.9837H311.263V1.38361Z" fill="white"/>
<path d="M284.426 1.38361H299.162C301.314 1.38361 303.126 1.61012 304.598 2.06311C306.099 2.48779 307.245 3.20975 308.038 4.22897C308.859 5.21989 309.27 6.49393 309.27 8.05109C309.27 9.35343 308.986 10.4434 308.42 11.3211C307.854 12.1705 307.033 12.8075 305.957 13.2321C304.909 13.6568 303.635 13.9116 302.135 13.9966V17.4365C303.862 17.4648 305.32 17.6913 306.509 18.116C307.727 18.5406 308.661 19.1918 309.312 20.0695C309.963 20.9472 310.289 22.0938 310.289 23.5094C310.289 25.1515 309.836 26.5246 308.93 27.6288C308.052 28.7329 306.821 29.5681 305.235 30.1344C303.65 30.7006 301.809 30.9837 299.714 30.9837H284.426V1.38361ZM298.483 25.8876C299.559 25.8876 300.479 25.7602 301.243 25.5054C302.036 25.2223 302.63 24.7976 303.027 24.2313C303.451 23.6651 303.664 22.9431 303.664 22.0655C303.664 21.2444 303.451 20.5649 303.027 20.027C302.63 19.4891 302.05 19.0927 301.286 18.8379C300.521 18.5831 299.587 18.4557 298.483 18.4557H291.008V25.8876H298.483ZM297.506 13.6144C299.233 13.6144 300.521 13.3313 301.37 12.765C302.248 12.1705 302.687 11.2362 302.687 9.96213C302.687 8.74472 302.248 7.86703 301.37 7.3291C300.521 6.76286 299.233 6.47977 297.506 6.47977H291.008V13.6144H297.506Z" fill="white"/>
<path d="M267.768 31.5358C264.795 31.5358 262.134 30.8847 259.784 29.5823C257.434 28.2516 255.594 26.4255 254.263 24.1039C252.933 21.7541 252.267 19.1211 252.267 16.2049C252.267 13.2888 252.933 10.6699 254.263 8.34836C255.594 6.02678 257.434 4.21482 259.784 2.91248C262.134 1.58182 264.795 0.916473 267.768 0.916473C270.713 0.916473 273.36 1.58182 275.71 2.91248C278.088 4.21482 279.942 6.02678 281.273 8.34836C282.604 10.6699 283.269 13.2888 283.269 16.2049C283.269 19.1211 282.604 21.7541 281.273 24.1039C279.942 26.4255 278.088 28.2516 275.71 29.5823C273.36 30.8847 270.713 31.5358 267.768 31.5358ZM267.768 26.1424C269.552 26.1424 271.109 25.7177 272.44 24.8684C273.77 24.019 274.79 22.8441 275.497 21.3435C276.205 19.843 276.559 18.1301 276.559 16.2049C276.559 14.2797 276.205 12.5668 275.497 11.0663C274.79 9.56578 273.77 8.39083 272.44 7.54147C271.109 6.69212 269.552 6.26746 267.768 6.26746C265.985 6.26746 264.427 6.69212 263.097 7.54147C261.766 8.39083 260.733 9.56578 259.997 11.0663C259.289 12.5668 258.935 14.2797 258.935 16.2049C258.935 18.1301 259.289 19.843 259.997 21.3435C260.733 22.8441 261.766 24.019 263.097 24.8684C264.427 25.7177 265.985 26.1424 267.768 26.1424Z" fill="white"/>
<path d="M227.147 1.38361H240.906C244.672 1.38361 247.489 2.04895 249.357 3.37961C251.226 4.68196 252.16 6.64962 252.16 9.28262C252.16 10.8964 251.736 12.2413 250.886 13.3171C250.037 14.393 248.89 15.214 247.446 15.7802C246.002 16.3465 244.374 16.6862 242.562 16.7994V20.1969C243.865 20.2535 244.983 20.5366 245.917 21.0462C246.88 21.5275 247.772 22.3203 248.593 23.4244L248.72 23.5943L254.156 30.9837H246.469L241.798 24.3163C241.685 24.1464 241.572 23.9765 241.458 23.8066C240.637 22.6459 239.972 21.8248 239.462 21.3435C238.981 20.8622 238.443 20.5366 237.849 20.3668C237.254 20.1686 236.39 20.0695 235.258 20.0695H232.073L233.687 18.4982V30.9837H227.147V1.38361ZM232.073 15.9076H239.717C241.019 15.9076 242.095 15.7378 242.945 15.398C243.822 15.03 244.474 14.492 244.898 13.7842C245.351 13.0764 245.578 12.1846 245.578 11.1088C245.578 9.55161 245.096 8.39083 244.134 7.6264C243.171 6.86198 241.699 6.47977 239.717 6.47977H232.073L233.687 4.82352V17.4365L232.073 15.9076Z" fill="white"/>
<path d="M196.33 30.9837L193.144 22.8724L195.14 24.2738H179.385L181.381 22.8724L178.153 30.9837H171.189L183.802 1.38361H190.681L203.337 30.9837H196.33ZM185.543 6.30991C185.571 7.41407 185.557 8.44746 185.5 9.41006C185.444 10.3444 185.316 11.2786 185.118 12.2129C184.948 13.1189 184.707 14.0532 184.396 15.0158C184.028 16.0633 183.235 17.8328 182.018 20.3243L181.084 19.3475H193.399L192.465 20.3243C191.87 19.1069 191.318 17.8611 190.809 16.5871C190.073 14.8034 189.591 13.1472 189.365 11.6184C189.138 10.0612 189.053 8.29174 189.11 6.30991H185.543Z" fill="white"/>
<path d="M147.878 1.38361H154.715C155.253 2.7992 155.763 4.12986 156.244 5.37558C157.603 9.31094 158.608 12.312 159.259 14.3788C159.91 16.4172 160.363 18.2434 160.618 19.8571C160.873 21.4709 161 23.4386 161 25.7602H164.525C164.525 23.4952 164.653 21.57 164.907 19.9846C165.162 18.3708 165.601 16.573 166.224 14.5911C166.875 12.581 167.823 9.69316 169.069 5.92767C169.664 4.42714 170.258 2.91245 170.853 1.38361H177.69L166.649 30.9837H158.919L147.878 1.38361Z" fill="white"/>
<path d="M132.238 1.38361H138.778V27.2466L137.164 25.6328H154.703V30.9837H132.238V1.38361Z" fill="white"/>
<path d="M123.815 1.38361H130.355V30.9837H123.815V1.38361Z" fill="white"/>
<path d="M110.378 31.5358C107.915 31.5358 105.749 31.2244 103.881 30.6015C102.041 29.9787 100.611 29.0868 99.5916 27.9261C98.5723 26.737 98.0627 25.378 98.0627 23.8491C98.0627 22.4618 98.4733 21.3011 99.2943 20.3668C100.115 19.4325 101.219 18.7247 102.607 18.2434C104.022 17.7338 105.594 17.4648 107.321 17.4365V13.9966C105.367 13.9116 103.654 13.671 102.182 13.2747C100.71 12.85 99.5349 12.1988 98.6572 11.3211C97.7796 10.4435 97.3407 9.29682 97.3407 7.88123C97.3407 6.43732 97.8079 5.19158 98.7422 4.14404C99.6765 3.06819 101.021 2.24715 102.777 1.68091C104.532 1.11467 106.57 0.831543 108.892 0.831543C111.695 0.831543 114.243 1.21376 116.536 1.97818C118.83 2.7426 121.038 3.84677 123.161 5.29068L120.231 10.0895C118.815 8.92875 117.088 7.99448 115.05 7.28668C113.04 6.57889 111.058 6.21081 109.104 6.1825C107.491 6.1825 106.259 6.46562 105.41 7.03186C104.56 7.56979 104.136 8.2776 104.136 9.15527C104.136 9.77814 104.348 10.3161 104.773 10.769C105.197 11.1937 105.792 11.5618 106.556 11.8732C107.349 12.1563 108.354 12.4111 109.571 12.6376L113.096 13.4445C116.097 14.0674 118.447 15.1008 120.146 16.5447C121.873 17.9886 122.737 19.9279 122.737 22.3628C122.737 23.9765 122.241 25.4912 121.25 26.9068C120.259 28.2941 118.829 29.4124 116.961 30.2618C115.092 31.1111 112.898 31.5358 110.378 31.5358ZM110.548 26.8219C111.681 26.8219 112.658 26.6237 113.479 26.2274C114.328 25.831 114.965 25.3072 115.39 24.656C115.843 24.0049 116.069 23.2829 116.069 22.4902C116.069 21.6125 115.828 20.8481 115.347 20.1969C114.894 19.5174 114.229 18.9937 113.351 18.6256C112.502 18.2292 111.525 18.0311 110.421 18.0311C109.373 18.0311 108.425 18.2151 107.576 18.5831C106.726 18.9512 106.061 19.4749 105.579 20.1544C105.098 20.8056 104.858 21.57 104.858 22.4477C104.858 23.2687 105.098 24.019 105.579 24.6985C106.061 25.3497 106.726 25.8734 107.576 26.2698C108.453 26.6379 109.444 26.8219 110.548 26.8219Z" fill="white"/>
<path d="M62.3433 1.38361H68.8833V6.69211C68.8833 7.59809 68.7701 8.43327 68.5436 9.19769C68.3171 9.96211 67.8923 10.8256 67.2695 11.7882C66.6749 12.7225 65.7973 13.9258 64.6365 15.398L67.4393 17.394L81.6237 1.38361H89.5651L76.6125 15.1857L76.7823 12.8499L89.9473 30.9837H82.0908L72.4931 17.4789L74.3192 17.6488L67.6093 24.8259L68.8833 21.8956V30.9837H62.3433V1.38361Z" fill="white"/>
<path d="M50.1151 31.5783C47.199 31.5783 44.5801 30.9412 42.2585 29.6672C39.9652 28.3649 38.1675 26.5529 36.8651 24.2313C35.5628 21.8814 34.9116 19.1918 34.9116 16.1624C34.9116 13.1331 35.5628 10.4576 36.8651 8.13602C38.1958 5.81444 40.036 4.01662 42.3859 2.74258C44.7641 1.44024 47.4538 0.789062 50.4548 0.789062C52.8047 0.789062 54.8856 1.17128 56.6976 1.9357C58.5095 2.70012 60.18 3.79016 61.7088 5.20575L58.3963 9.57993C57.3488 8.5607 56.2163 7.7821 54.9989 7.24417C53.7815 6.67793 52.4084 6.39484 50.8795 6.39484C49.0676 6.39484 47.4396 6.81953 45.9957 7.66888C44.5801 8.48993 43.4759 9.65071 42.6832 11.1512C41.8904 12.6518 41.4941 14.3646 41.4941 16.2898C41.4941 18.215 41.8904 19.8996 42.6832 21.3435C43.5042 22.7874 44.6226 23.9058 46.0381 24.6985C47.4821 25.4629 49.11 25.8451 50.9219 25.8451C52.4791 25.8451 53.8664 25.5337 55.0838 24.9108C56.3295 24.288 57.4762 23.4103 58.5237 22.2778L61.9211 26.7794C60.3357 28.3366 58.6087 29.5257 56.7401 30.3467C54.8998 31.1678 52.6915 31.5783 50.1151 31.5783Z" fill="white"/>
<path d="M27.1265 1.38361H33.6664V30.9837H27.1265V1.38361Z" fill="white"/>
<path d="M0 1.38361H13.7596C17.5251 1.38361 20.342 2.04895 22.2106 3.37961C24.0792 4.68196 25.0136 6.64962 25.0136 9.28262C25.0136 10.8964 24.5889 12.2413 23.7396 13.3171C22.8902 14.393 21.7436 15.214 20.2997 15.7802C18.8558 16.3465 17.2278 16.6862 15.4158 16.7994V20.1969C16.7182 20.2535 17.8365 20.5366 18.7708 21.0462C19.7334 21.5275 20.6252 22.3203 21.4462 23.4244L21.5737 23.5943L27.0096 30.9837H19.3229L14.6514 24.3163C14.5381 24.1464 14.425 23.9765 14.3117 23.8066C13.4907 22.6459 12.8253 21.8248 12.3157 21.3435C11.8344 20.8622 11.2964 20.5366 10.7018 20.3668C10.1073 20.1686 9.24387 20.0695 8.11139 20.0695H4.92627L6.54004 18.4982V30.9837H0V1.38361ZM4.92627 15.9076H12.5705C13.8728 15.9076 14.9487 15.7378 15.798 15.398C16.6757 15.03 17.3268 14.492 17.7515 13.7842C18.2045 13.0764 18.4311 12.1846 18.4311 11.1088C18.4311 9.55161 17.9497 8.39083 16.9871 7.6264C16.0245 6.86198 14.5523 6.47977 12.5705 6.47977H4.92627L6.54004 4.82352V17.4365L4.92627 15.9076Z" fill="white"/>
</svg>
