<svg width="485" height="32" viewBox="0 0 485 32" fill="none" xmlns="http://www.w3.org/2000/svg">
<path d="M469.828 31.5358C467.421 31.5358 465.213 30.8846 463.203 29.5823C461.193 28.2799 459.607 26.468 458.447 24.1464C457.286 21.7965 456.705 19.1352 456.705 16.1624C456.705 13.1897 457.357 10.5425 458.659 8.22094C459.961 5.87105 461.773 4.04493 464.095 2.74258C466.416 1.44024 469.064 0.789062 472.036 0.789062C474.5 0.789062 476.807 1.25621 478.958 2.1905C481.11 3.12479 482.951 4.37051 484.479 5.92767L480.785 10.1745C479.596 8.98536 478.336 8.05107 477.005 7.37158C475.674 6.6921 474.117 6.35235 472.334 6.35235C470.493 6.35235 468.879 6.79118 467.492 7.66885C466.133 8.51821 465.086 9.69315 464.35 11.1937C463.613 12.6942 463.245 14.3505 463.245 16.1624C463.245 18.0876 463.613 19.8147 464.35 21.3435C465.086 22.844 466.147 24.019 467.535 24.8683C468.922 25.7177 470.564 26.1424 472.461 26.1424C473.933 26.1424 475.25 25.8168 476.41 25.1656C477.571 24.4861 478.463 23.4811 479.086 22.1504C479.709 20.8197 479.935 19.1918 479.765 17.2666L481.422 19.0502H471.229V14.3788H484.989V30.9837H479.468C479.921 29.9079 480.388 28.9169 480.87 28.011C481.407 26.9068 482.002 25.8734 482.653 24.9108L479.128 23.382C478.874 24.6843 478.392 25.9583 477.685 27.2041C476.977 28.4215 475.972 29.4549 474.669 30.3042C473.367 31.1253 471.753 31.5358 469.828 31.5358Z" fill="white"/>
<path d="M428.184 1.38361H434.087L450.692 21.8531L453.792 19.7297C452.744 18.5689 451.881 17.5072 451.202 16.5446C450.522 15.582 449.97 14.5486 449.545 13.4445C449.121 12.312 448.908 11.1371 448.908 9.91965V1.38361H455.491V30.9837H450.055L433.28 10.3868L430.095 12.4677C431.284 13.6002 432.218 14.7185 432.898 15.8227C434.115 17.7762 434.724 19.9138 434.724 22.2353V30.9837H428.184V1.38361Z" fill="white"/>
<path d="M421.016 30.9837L417.831 22.8724L419.827 24.2738H404.071L406.067 22.8724L402.84 30.9837H395.875L408.488 1.38361H415.368L428.023 30.9837H421.016ZM410.229 6.30988C410.258 7.41404 410.243 8.44743 410.187 9.41004C410.13 10.3443 410.003 11.2786 409.805 12.2129C409.635 13.1189 409.394 14.0532 409.083 15.0158C408.715 16.0633 407.922 17.8328 406.704 20.3243L405.77 19.3475H418.086L417.152 20.3243C416.557 19.1069 416.005 17.8611 415.495 16.5871C414.759 14.8035 414.278 13.1472 414.051 11.6184C413.825 10.0612 413.74 8.29171 413.797 6.30988H410.229Z" fill="white"/>
<path d="M389.146 1.38361H395.729V30.9837H389.146V1.38361ZM369.908 1.38361H376.448V30.9837H369.908V1.38361ZM375.896 13.3171H389.741V18.668H375.896V13.3171Z" fill="white"/>
<path d="M357.68 31.5783C354.764 31.5783 352.145 30.9412 349.824 29.6672C347.53 28.3649 345.733 26.5529 344.43 24.2313C343.128 21.8814 342.477 19.1918 342.477 16.1624C342.477 13.1331 343.128 10.4576 344.43 8.136C345.761 5.81442 347.601 4.01662 349.951 2.74258C352.329 1.44024 355.019 0.789062 358.02 0.789062C360.37 0.789062 362.451 1.17127 364.263 1.93569C366.075 2.70011 367.745 3.79012 369.274 5.20572L365.962 9.57991C364.914 8.56068 363.781 7.7821 362.564 7.24417C361.347 6.67794 359.974 6.39482 358.445 6.39482C356.633 6.39482 355.005 6.8195 353.561 7.66885C352.145 8.4899 351.041 9.65069 350.248 11.1512C349.456 12.6517 349.059 14.3646 349.059 16.2898C349.059 18.215 349.456 19.8996 350.248 21.3435C351.069 22.7874 352.188 23.9057 353.603 24.6985C355.047 25.4629 356.675 25.8451 358.487 25.8451C360.044 25.8451 361.432 25.5337 362.649 24.9108C363.895 24.2879 365.041 23.4103 366.089 22.2778L369.486 26.7794C367.901 28.3366 366.174 29.5256 364.305 30.3467C362.465 31.1677 360.257 31.5783 357.68 31.5783Z" fill="white"/>
<path d="M328.063 30.9837L324.878 22.8724L326.874 24.2738H311.118L313.114 22.8724L309.887 30.9837H302.922L315.535 1.38361H322.415L335.07 30.9837H328.063ZM317.276 6.30988C317.304 7.41404 317.29 8.44743 317.234 9.41004C317.177 10.3443 317.05 11.2786 316.851 12.2129C316.682 13.1189 316.441 14.0532 316.129 15.0158C315.761 16.0633 314.969 17.8328 313.751 20.3243L312.817 19.3475H325.133L324.198 20.3243C323.604 19.1069 323.052 17.8611 322.542 16.5871C321.806 14.8035 321.325 13.1472 321.098 11.6184C320.872 10.0612 320.787 8.29171 320.843 6.30988H317.276Z" fill="white"/>
<path d="M275.462 1.38361H281.365L297.97 21.8531L301.07 19.7297C300.023 18.5689 299.159 17.5072 298.48 16.5446C297.8 15.582 297.248 14.5486 296.823 13.4445C296.399 12.312 296.186 11.1371 296.186 9.91965V1.38361H302.769V30.9837H297.333L280.558 10.3868L277.373 12.4677C278.562 13.6002 279.497 14.7185 280.176 15.8227C281.394 17.7762 282.002 19.9138 282.002 22.2353V30.9837H275.462V1.38361Z" fill="white"/>
<path d="M267.04 1.38361H273.58V30.9837H267.04V1.38361Z" fill="white"/>
<path d="M238.462 1.38361H249.716C253.057 1.38361 255.959 2.03478 258.422 3.33713C260.885 4.61117 262.768 6.36651 264.07 8.60315C265.373 10.8398 266.024 13.3737 266.024 16.2049C266.024 18.9228 265.373 21.4143 264.07 23.6792C262.768 25.9159 260.885 27.6995 258.422 29.0302C255.959 30.3325 253.057 30.9837 249.716 30.9837H238.462V1.38361ZM243.388 25.6328H249.291C251.358 25.6328 253.142 25.2364 254.642 24.4437C256.171 23.6509 257.332 22.5468 258.125 21.1312C258.946 19.6873 259.356 18.0452 259.356 16.2049C259.356 14.3646 258.946 12.7367 258.125 11.3211C257.332 9.87718 256.171 8.75886 254.642 7.96613C253.142 7.14508 251.358 6.73456 249.291 6.73456H243.388L245.002 5.16325V27.2465L243.388 25.6328Z" fill="white"/>
<path d="M198.245 5.12078L199.731 6.73456H188.435V1.38361H214.637V6.73456H203.341L204.827 5.12078V30.9837H198.245V5.12078Z" fill="white"/>
<path d="M187.776 30.9837L184.591 22.8724L186.587 24.2738H170.832L172.828 22.8724L169.6 30.9837H162.635L175.248 1.38361H182.128L194.783 30.9837H187.776ZM176.989 6.30988C177.018 7.41404 177.004 8.44743 176.947 9.41004C176.89 10.3443 176.763 11.2786 176.565 12.2129C176.395 13.1189 176.154 14.0532 175.843 15.0158C175.475 16.0633 174.682 17.8328 173.465 20.3243L172.53 19.3475H184.846L183.912 20.3243C183.317 19.1069 182.765 17.8611 182.255 16.5871C181.519 14.8035 181.038 13.1472 180.812 11.6184C180.585 10.0612 180.5 8.29171 180.557 6.30988H176.989Z" fill="white"/>
<path d="M139.447 1.38361H162.847V6.73456H144.373L145.987 5.20572V15.0158L144.373 13.5294H161.531V18.5831H144.373L145.987 17.1817V27.2465L144.373 25.6328H163.357V30.9837H139.447V1.38361Z" fill="white"/>
<path d="M112.61 1.38361H127.347C129.498 1.38361 131.31 1.61011 132.782 2.0631C134.283 2.48778 135.43 3.20973 136.222 4.22895C137.043 5.21987 137.454 6.49391 137.454 8.05107C137.454 9.35342 137.171 10.4434 136.604 11.3211C136.038 12.1704 135.217 12.8075 134.141 13.2321C133.094 13.6568 131.82 13.9116 130.319 13.9966V17.4365C132.046 17.4648 133.504 17.6913 134.693 18.116C135.911 18.5406 136.845 19.1918 137.496 20.0695C138.147 20.9471 138.473 22.0938 138.473 23.5094C138.473 25.1515 138.02 26.5246 137.114 27.6288C136.236 28.7329 135.005 29.5681 133.419 30.1344C131.834 30.7006 129.994 30.9837 127.899 30.9837H112.61V1.38361ZM126.667 25.8876C127.743 25.8876 128.663 25.7602 129.427 25.5054C130.22 25.2222 130.815 24.7976 131.211 24.2313C131.636 23.6651 131.848 22.9431 131.848 22.0655C131.848 21.2444 131.636 20.5649 131.211 20.027C130.815 19.4891 130.234 19.0927 129.47 18.8379C128.705 18.5831 127.771 18.4557 126.667 18.4557H119.193V25.8876H126.667ZM125.69 13.6144C127.417 13.6144 128.705 13.3312 129.555 12.765C130.432 12.1704 130.871 11.2362 130.871 9.96212C130.871 8.74471 130.432 7.86704 129.555 7.32911C128.705 6.76287 127.417 6.47976 125.69 6.47976H119.193V13.6144H125.69Z" fill="white"/>
<path d="M84.0747 1.38361H95.3287C98.6695 1.38361 101.571 2.03478 104.035 3.33713C106.498 4.61117 108.381 6.36651 109.683 8.60315C110.985 10.8398 111.636 13.3737 111.636 16.2049C111.636 18.9228 110.985 21.4143 109.683 23.6792C108.381 25.9159 106.498 27.6995 104.035 29.0302C101.571 30.3325 98.6695 30.9837 95.3287 30.9837H84.0747V1.38361ZM89.001 25.6328H94.904C96.9708 25.6328 98.7545 25.2364 100.255 24.4437C101.784 23.6509 102.945 22.5468 103.737 21.1312C104.558 19.6873 104.969 18.0452 104.969 16.2049C104.969 14.3646 104.558 12.7367 103.737 11.3211C102.945 9.87718 101.784 8.75886 100.255 7.96613C98.7545 7.14508 96.9708 6.73456 94.904 6.73456H89.001L90.6147 5.16325V27.2465L89.001 25.6328Z" fill="white"/>
<path d="M76.907 30.9837L73.7219 22.8724L75.7178 24.2738H59.9623L61.9582 22.8724L58.7307 30.9837H51.7659L64.3789 1.38361H71.2587L83.9141 30.9837H76.907ZM66.1201 6.30988C66.1484 7.41404 66.1343 8.44743 66.0776 9.41004C66.021 10.3443 65.8936 11.2786 65.6954 12.2129C65.5256 13.1189 65.2849 14.0532 64.9735 15.0158C64.6055 16.0633 63.8127 17.8328 62.5953 20.3243L61.6609 19.3475H73.9767L73.0424 20.3243C72.4479 19.1069 71.8957 17.8611 71.3861 16.5871C70.65 14.8035 70.1688 13.1472 69.9423 11.6184C69.7158 10.0612 69.6308 8.29171 69.6874 6.30988H66.1201Z" fill="white"/>
<path d="M28.5779 1.38361H51.9777V6.73456H33.5041L35.1179 5.20572V15.0158L33.5041 13.5294H50.6612V18.5831H33.5041L35.1179 17.1817V27.2465L33.5041 25.6328H52.4872V30.9837H28.5779V1.38361Z" fill="white"/>
<path d="M0 1.38361H11.2539C14.5947 1.38361 17.4967 2.03478 19.9598 3.33713C22.423 4.61117 24.3057 6.36651 25.6081 8.60315C26.9104 10.8398 27.5616 13.3737 27.5616 16.2049C27.5616 18.9228 26.9104 21.4143 25.6081 23.6792C24.3057 25.9159 22.423 27.6995 19.9598 29.0302C17.4967 30.3325 14.5947 30.9837 11.2539 30.9837H0V1.38361ZM4.92621 25.6328H10.8292C12.896 25.6328 14.6797 25.2364 16.1802 24.4437C17.7091 23.6509 18.8698 22.5468 19.6625 21.1312C20.4836 19.6873 20.8942 18.0452 20.8942 16.2049C20.8942 14.3646 20.4836 12.7367 19.6625 11.3211C18.8698 9.87718 17.7091 8.75886 16.1802 7.96613C14.6797 7.14508 12.896 6.73456 10.8292 6.73456H4.92621L6.53998 5.16325V27.2465L4.92621 25.6328Z" fill="white"/>
</svg>
