<svg width="735" height="32" viewBox="0 0 735 32" fill="none" xmlns="http://www.w3.org/2000/svg">
<path d="M718.541 31.1139C715.568 31.1139 712.907 30.4627 710.557 29.1604C708.207 27.8297 706.367 26.0036 705.036 23.682C703.706 21.3321 703.04 18.6991 703.04 15.783C703.04 12.8669 703.706 10.248 705.036 7.92647C706.367 5.60489 708.207 3.79292 710.557 2.49057C712.907 1.15991 715.568 0.494583 718.541 0.494583C721.486 0.494583 724.133 1.15991 726.483 2.49057C728.861 3.79292 730.715 5.60489 732.046 7.92647C733.377 10.248 734.042 12.8669 734.042 15.783C734.042 18.6991 733.377 21.3321 732.046 23.682C730.715 26.0036 728.861 27.8297 726.483 29.1604C724.133 30.4627 721.486 31.1139 718.541 31.1139ZM718.541 25.7205C720.325 25.7205 721.882 25.2958 723.213 24.4465C724.543 23.5971 725.563 22.4221 726.27 20.9216C726.978 19.4211 727.332 17.7082 727.332 15.783C727.332 13.8578 726.978 12.1449 726.27 10.6444C725.563 9.14388 724.543 7.96893 723.213 7.11957C721.882 6.27021 720.325 5.84555 718.541 5.84555C716.758 5.84555 715.2 6.27021 713.87 7.11957C712.539 7.96893 711.506 9.14388 710.77 10.6444C710.062 12.1449 709.708 13.8578 709.708 15.783C709.708 17.7082 710.062 19.4211 710.77 20.9216C711.506 22.4221 712.539 23.5971 713.87 24.4465C715.2 25.2958 716.758 25.7205 718.541 25.7205Z" fill="white"/>
<path d="M688.519 4.6989L690.006 6.31268H678.709V0.961731H704.912V6.31268H693.616L695.102 4.6989V30.5618H688.519V4.6989Z" fill="white"/>
<path d="M665.118 31.1139C662.145 31.1139 659.484 30.4627 657.134 29.1604C654.784 27.8297 652.944 26.0036 651.613 23.682C650.282 21.3321 649.617 18.6991 649.617 15.783C649.617 12.8669 650.282 10.248 651.613 7.92647C652.944 5.60489 654.784 3.79292 657.134 2.49057C659.484 1.15991 662.145 0.494583 665.118 0.494583C668.062 0.494583 670.71 1.15991 673.059 2.49057C675.438 3.79292 677.292 5.60489 678.623 7.92647C679.953 10.248 680.619 12.8669 680.619 15.783C680.619 18.6991 679.953 21.3321 678.623 23.682C677.292 26.0036 675.438 27.8297 673.059 29.1604C670.71 30.4627 668.062 31.1139 665.118 31.1139ZM665.118 25.7205C666.902 25.7205 668.459 25.2958 669.789 24.4465C671.12 23.5971 672.139 22.4221 672.847 20.9216C673.555 19.4211 673.909 17.7082 673.909 15.783C673.909 13.8578 673.555 12.1449 672.847 10.6444C672.139 9.14388 671.12 7.96893 669.789 7.11957C668.459 6.27021 666.902 5.84555 665.118 5.84555C663.334 5.84555 661.777 6.27021 660.446 7.11957C659.116 7.96893 658.082 9.14388 657.346 10.6444C656.639 12.1449 656.285 13.8578 656.285 15.783C656.285 17.7082 656.639 19.4211 657.346 20.9216C658.082 22.4221 659.116 23.5971 660.446 24.4465C661.777 25.2958 663.334 25.7205 665.118 25.7205Z" fill="white"/>
<path d="M616.948 0.961731H626.122C626.914 2.85863 627.622 4.61397 628.245 6.22775C628.868 7.81322 629.349 9.24296 629.689 10.517C630.114 11.9609 630.425 13.3199 630.623 14.5939C630.821 15.8396 630.92 17.1137 630.92 18.416H634.36C634.36 16.9721 634.488 15.5282 634.743 14.0843C634.997 12.6121 635.394 11.0549 635.932 9.41284C636.47 7.77075 637.22 5.76062 638.182 3.38242C638.324 2.98605 638.65 2.17914 639.159 0.961731H648.375V30.5618H641.835C641.835 27.9571 641.877 25.3666 641.962 22.7902C642.075 20.3837 642.259 18.4302 642.514 16.9296C642.797 15.4008 643.165 14.0277 643.618 12.8103C644.071 11.5928 644.708 10.1631 645.529 8.52101L642.132 7.28946L635.125 25.2958H630.114L623.149 7.28946L619.794 8.64842C620.615 10.2905 621.252 11.7061 621.705 12.8952C622.158 14.0843 622.512 15.415 622.767 16.8872C623.05 18.3311 623.248 20.2138 623.361 22.5354C623.446 25.1967 623.489 27.8722 623.489 30.5618H616.948V0.961731Z" fill="white"/>
<path d="M609.781 30.5618L606.596 22.4505L608.592 23.8519H592.836L594.832 22.4505L591.604 30.5618H584.64L597.253 0.961731H604.133L616.788 30.5618H609.781ZM598.994 5.88802C599.022 6.99218 599.008 8.02557 598.951 8.98817C598.895 9.92247 598.767 10.8568 598.569 11.791C598.399 12.697 598.159 13.6313 597.847 14.5939C597.479 15.6415 596.686 17.411 595.469 19.9024L594.535 18.9256H606.85L605.916 19.9024C605.322 18.685 604.77 17.4393 604.26 16.1652C603.524 14.3816 603.042 12.7253 602.816 11.1965C602.589 9.63935 602.505 7.86985 602.561 5.88802H598.994Z" fill="white"/>
<path d="M560.373 0.961731H566.913V6.27022C566.913 7.1762 566.8 8.0114 566.574 8.77582C566.347 9.54024 565.922 10.4038 565.3 11.3664C564.705 12.3007 563.827 13.5039 562.667 14.9761L565.469 16.9721L579.654 0.961731H587.595L574.643 14.7638L574.812 12.4281L587.977 30.5618H580.121L570.523 17.0571L572.349 17.2269L565.639 24.404L566.913 21.4737V30.5618H560.373V0.961731Z" fill="white"/>
<path d="M553.206 30.5618L550.021 22.4505L552.016 23.8519H536.261L538.257 22.4505L535.029 30.5618H528.065L540.678 0.961731H547.557L560.213 30.5618H553.206ZM542.419 5.88802C542.447 6.99218 542.433 8.02557 542.376 8.98817C542.32 9.92247 542.192 10.8568 541.994 11.791C541.824 12.697 541.584 13.6313 541.272 14.5939C540.904 15.6415 540.111 17.411 538.894 19.9024L537.96 18.9256H550.275L549.341 19.9024C548.746 18.685 548.194 17.4393 547.685 16.1652C546.949 14.3816 546.467 12.7253 546.241 11.1965C546.014 9.63935 545.929 7.86985 545.986 5.88802H542.419Z" fill="white"/>
<path d="M518.027 31.1139C515.563 31.1139 513.398 30.8025 511.529 30.1796C509.689 29.5568 508.259 28.6649 507.24 27.5042C506.221 26.3151 505.711 24.9561 505.711 23.4272C505.711 22.0399 506.121 20.8792 506.942 19.9449C507.764 19.0106 508.868 18.3028 510.255 17.8215C511.671 17.3119 513.242 17.0429 514.969 17.0146V13.5747C513.015 13.4898 511.303 13.2491 509.83 12.8528C508.358 12.4281 507.183 11.7769 506.306 10.8992C505.428 10.0216 504.989 8.87492 504.989 7.45932C504.989 6.01541 505.456 4.76969 506.39 3.72215C507.325 2.6463 508.67 1.82524 510.425 1.259C512.18 0.692765 514.219 0.409653 516.54 0.409653C519.343 0.409653 521.891 0.791868 524.184 1.55629C526.478 2.32071 528.686 3.42487 530.809 4.86877L527.879 9.66765C526.463 8.50686 524.737 7.57256 522.698 6.86476C520.688 6.15696 518.706 5.78892 516.753 5.7606C515.139 5.7606 513.907 6.04372 513.058 6.60995C512.208 7.14788 511.784 7.85568 511.784 8.73335C511.784 9.35621 511.996 9.89415 512.421 10.3471C512.846 10.7718 513.44 11.1399 514.204 11.4513C514.997 11.7344 516.002 11.9892 517.22 12.2157L520.745 13.0226C523.746 13.6455 526.095 14.6788 527.794 16.1228C529.521 17.5667 530.385 19.506 530.385 21.9409C530.385 23.5546 529.889 25.0693 528.898 26.4849C527.907 27.8722 526.478 28.9905 524.609 29.8399C522.74 30.6892 520.546 31.1139 518.027 31.1139ZM518.196 26.4C519.329 26.4 520.306 26.2018 521.127 25.8054C521.976 25.4091 522.613 24.8853 523.038 24.2341C523.491 23.5829 523.717 22.861 523.717 22.0683C523.717 21.1906 523.477 20.4262 522.995 19.775C522.542 19.0955 521.877 18.5717 520.999 18.2037C520.15 17.8073 519.173 17.6091 518.069 17.6091C517.021 17.6091 516.073 17.7932 515.224 18.1612C514.374 18.5293 513.709 19.053 513.228 19.7325C512.746 20.3837 512.506 21.1481 512.506 22.0258C512.506 22.8468 512.746 23.5971 513.228 24.2766C513.709 24.9278 514.374 25.4515 515.224 25.8479C516.101 26.216 517.092 26.4 518.196 26.4Z" fill="white"/>
<path d="M489.193 0.961731H495.733V30.5618H489.193V0.961731Z" fill="white"/>
<path d="M455.888 0.961731H465.061C465.853 2.85863 466.561 4.61397 467.184 6.22775C467.807 7.81322 468.288 9.24296 468.628 10.517C469.053 11.9609 469.364 13.3199 469.562 14.5939C469.76 15.8396 469.859 17.1137 469.859 18.416H473.299C473.299 16.9721 473.427 15.5282 473.682 14.0843C473.936 12.6121 474.333 11.0549 474.871 9.41284C475.409 7.77075 476.159 5.76062 477.121 3.38242C477.263 2.98605 477.589 2.17914 478.098 0.961731H487.314V30.5618H480.774C480.774 27.9571 480.816 25.3666 480.901 22.7902C481.014 20.3837 481.198 18.4302 481.453 16.9296C481.736 15.4008 482.104 14.0277 482.557 12.8103C483.01 11.5928 483.647 10.1631 484.468 8.52101L481.071 7.28946L474.064 25.2958H469.053L462.088 7.28946L458.733 8.64842C459.554 10.2905 460.191 11.7061 460.644 12.8952C461.097 14.0843 461.451 15.415 461.706 16.8872C461.989 18.3311 462.187 20.2138 462.3 22.5354C462.385 25.1967 462.428 27.8722 462.428 30.5618H455.888V0.961731Z" fill="white"/>
<path d="M448.72 30.5618L445.535 22.4505L447.531 23.8519H431.775L433.771 22.4505L430.543 30.5618H423.579L436.192 0.961731H443.072L455.727 30.5618H448.72ZM437.933 5.88802C437.961 6.99218 437.947 8.02557 437.89 8.98817C437.834 9.92247 437.706 10.8568 437.508 11.791C437.338 12.697 437.098 13.6313 436.786 14.5939C436.418 15.6415 435.625 17.411 434.408 19.9024L433.474 18.9256H445.789L444.855 19.9024C444.261 18.685 443.709 17.4393 443.199 16.1652C442.463 14.3816 441.982 12.7253 441.755 11.1965C441.529 9.63935 441.444 7.86985 441.5 5.88802H437.933Z" fill="white"/>
<path d="M396.119 0.961731H402.022L418.627 21.4312L421.727 19.3079C420.68 18.1471 419.816 17.0854 419.137 16.1228C418.457 15.1602 417.905 14.1268 417.48 13.0226C417.056 11.8901 416.843 10.7152 416.843 9.49779V0.961731H423.426V30.5618H417.99L401.215 9.96492L398.03 12.0459C399.219 13.1783 400.153 14.2967 400.833 15.4008C402.05 17.3543 402.659 19.4919 402.659 21.8135V30.5618H396.119V0.961731Z" fill="white"/>
<path d="M388.951 30.5618L385.766 22.4505L387.762 23.8519H372.007L374.003 22.4505L370.775 30.5618H363.81L376.423 0.961731H383.303L395.958 30.5618H388.951ZM378.164 5.88802C378.193 6.99218 378.179 8.02557 378.122 8.98817C378.065 9.92247 377.938 10.8568 377.74 11.791C377.57 12.697 377.329 13.6313 377.018 14.5939C376.65 15.6415 375.857 17.411 374.64 19.9024L373.705 18.9256H386.021L385.087 19.9024C384.492 18.685 383.94 17.4393 383.43 16.1652C382.694 14.3816 382.213 12.7253 381.986 11.1965C381.76 9.63935 381.675 7.86985 381.732 5.88802H378.164Z" fill="white"/>
<path d="M332.203 0.961731H341.376C342.169 2.85863 342.877 4.61397 343.5 6.22775C344.122 7.81322 344.604 9.24296 344.944 10.517C345.368 11.9609 345.68 13.3199 345.878 14.5939C346.076 15.8396 346.175 17.1137 346.175 18.416H349.615C349.615 16.9721 349.742 15.5282 349.997 14.0843C350.252 12.6121 350.648 11.0549 351.186 9.41284C351.724 7.77075 352.475 5.76062 353.437 3.38242C353.579 2.98605 353.904 2.17914 354.414 0.961731H363.629V30.5618H357.089C357.089 27.9571 357.132 25.3666 357.217 22.7902C357.33 20.3837 357.514 18.4302 357.769 16.9296C358.052 15.4008 358.42 14.0277 358.873 12.8103C359.326 11.5928 359.963 10.1631 360.784 8.52101L357.387 7.28946L350.379 25.2958H345.368L338.404 7.28946L335.049 8.64842C335.87 10.2905 336.507 11.7061 336.96 12.8952C337.413 14.0843 337.766 15.415 338.021 16.8872C338.304 18.3311 338.503 20.2138 338.616 22.5354C338.701 25.1967 338.743 27.8722 338.743 30.5618H332.203V0.961731Z" fill="white"/>
<path d="M290.689 19.3928L279.604 0.961731H286.824C288.268 3.31162 289.358 5.3076 290.094 6.94969C290.858 8.56347 291.382 10.1206 291.665 11.6212C291.977 13.0934 292.132 14.8204 292.132 16.8023H295.87C295.87 14.8204 296.011 13.0792 296.294 11.5787C296.606 10.0782 297.129 8.52101 297.866 6.90723C298.602 5.29345 299.692 3.31162 301.136 0.961731H308.398L297.271 19.3928V30.5618H290.689V19.3928Z" fill="white"/>
<path d="M251.358 0.961731H258.196C258.734 2.37733 259.243 3.70798 259.724 4.9537C261.083 8.88906 262.089 11.8901 262.74 13.9569C263.391 15.9954 263.844 17.8215 264.099 19.4353C264.353 21.049 264.481 23.0167 264.481 25.3383H268.006C268.006 23.0733 268.133 21.1481 268.388 19.5627C268.643 17.9489 269.082 16.1511 269.704 14.1692C270.356 12.1591 271.304 9.27128 272.55 5.5058C273.144 4.00527 273.739 2.49057 274.333 0.961731H281.171L270.129 30.5618H262.4L251.358 0.961731Z" fill="white"/>
<path d="M228.17 0.961731H251.57V6.31268H233.096L234.71 4.78384V14.5939L233.096 13.1075H250.254V18.1612H233.096L234.71 16.7598V26.8247L233.096 25.2109H252.08V30.5618H228.17V0.961731Z" fill="white"/>
<path d="M205.564 0.961731H212.104V26.8247L210.491 25.2109H228.03V30.5618H205.564V0.961731Z" fill="white"/>
<path d="M164.376 0.961731H173.549C174.341 2.85863 175.049 4.61397 175.672 6.22775C176.295 7.81322 176.776 9.24296 177.116 10.517C177.541 11.9609 177.852 13.3199 178.05 14.5939C178.248 15.8396 178.347 17.1137 178.347 18.416H181.787C181.787 16.9721 181.915 15.5282 182.17 14.0843C182.424 12.6121 182.821 11.0549 183.359 9.41284C183.897 7.77075 184.647 5.76062 185.609 3.38242C185.751 2.98605 186.077 2.17914 186.586 0.961731H195.802V30.5618H189.262C189.262 27.9571 189.304 25.3666 189.389 22.7902C189.502 20.3837 189.686 18.4302 189.941 16.9296C190.224 15.4008 190.592 14.0277 191.045 12.8103C191.498 11.5928 192.135 10.1631 192.956 8.52101L189.559 7.28946L182.552 25.2958H177.541L170.576 7.28946L167.221 8.64842C168.042 10.2905 168.679 11.7061 169.132 12.8952C169.585 14.0843 169.939 15.415 170.194 16.8872C170.477 18.3311 170.675 20.2138 170.788 22.5354C170.873 25.1967 170.916 27.8722 170.916 30.5618H164.376V0.961731Z" fill="white"/>
<path d="M141.77 0.961731H148.31V26.8247L146.696 25.2109H164.235V30.5618H141.77V0.961731Z" fill="white"/>
<path d="M125.07 31.1139C122.097 31.1139 119.435 30.4627 117.086 29.1604C114.736 27.8297 112.895 26.0036 111.565 23.682C110.234 21.3321 109.569 18.6991 109.569 15.783C109.569 12.8669 110.234 10.248 111.565 7.92647C112.895 5.60489 114.736 3.79292 117.086 2.49057C119.435 1.15991 122.097 0.494583 125.07 0.494583C128.014 0.494583 130.661 1.15991 133.011 2.49057C135.389 3.79292 137.244 5.60489 138.574 7.92647C139.905 10.248 140.57 12.8669 140.57 15.783C140.57 18.6991 139.905 21.3321 138.574 23.682C137.244 26.0036 135.389 27.8297 133.011 29.1604C130.661 30.4627 128.014 31.1139 125.07 31.1139ZM125.07 25.7205C126.853 25.7205 128.41 25.2958 129.741 24.4465C131.072 23.5971 132.091 22.4221 132.799 20.9216C133.506 19.4211 133.86 17.7082 133.86 15.783C133.86 13.8578 133.506 12.1449 132.799 10.6444C132.091 9.14388 131.072 7.96893 129.741 7.11957C128.41 6.27021 126.853 5.84555 125.07 5.84555C123.286 5.84555 121.729 6.27021 120.398 7.11957C119.067 7.96893 118.034 9.14388 117.298 10.6444C116.59 12.1449 116.236 13.8578 116.236 15.783C116.236 17.7082 116.59 19.4211 117.298 20.9216C118.034 22.4221 119.067 23.5971 120.398 24.4465C121.729 25.2958 123.286 25.7205 125.07 25.7205Z" fill="white"/>
<path d="M99.3877 31.1564C96.4716 31.1564 93.8528 30.5194 91.5312 29.2453C89.2379 27.943 87.4401 26.131 86.1378 23.8094C84.8354 21.4596 84.1842 18.7699 84.1842 15.7406C84.1842 12.7112 84.8354 10.0357 86.1378 7.71413C87.4684 5.39255 89.3087 3.59475 91.6586 2.32071C94.0368 1.01836 96.7264 0.367188 99.7275 0.367188C102.077 0.367188 104.158 0.749403 105.97 1.51382C107.782 2.27825 109.453 3.36825 110.981 4.78384L107.669 9.15802C106.621 8.13879 105.489 7.36022 104.272 6.8223C103.054 6.25606 101.681 5.97295 100.152 5.97295C98.3402 5.97295 96.7123 6.39764 95.2684 7.24699C93.8528 8.06804 92.7486 9.22881 91.9559 10.7293C91.1631 12.2299 90.7668 13.9427 90.7668 15.868C90.7668 17.7932 91.1631 19.4777 91.9559 20.9216C92.7769 22.3655 93.8952 23.4839 95.3108 24.2766C96.7547 25.041 98.3827 25.4232 100.195 25.4232C101.752 25.4232 103.139 25.1118 104.356 24.4889C105.602 23.8661 106.749 22.9884 107.796 21.8559L111.194 26.3575C109.608 27.9147 107.881 29.1038 106.013 29.9248C104.172 30.7459 101.964 31.1564 99.3877 31.1564Z" fill="white"/>
<path d="M63.9158 0.961731H70.4559V26.8247L68.8421 25.2109H86.3813V30.5618H63.9158V0.961731Z" fill="white"/>
<path d="M56.748 30.5618L53.5629 22.4505L55.5589 23.8519H39.8033L41.7993 22.4505L38.5718 30.5618H31.607L44.22 0.961731H51.0998L63.7552 30.5618H56.748ZM45.9612 5.88802C45.9895 6.99218 45.9753 8.02557 45.9187 8.98817C45.8621 9.92247 45.7347 10.8568 45.5365 11.791C45.3666 12.697 45.126 13.6313 44.8145 14.5939C44.4465 15.6415 43.6538 17.411 42.4363 19.9024L41.5021 18.9256H53.8177L52.8834 19.9024C52.2889 18.685 51.7368 17.4393 51.2272 16.1652C50.4911 14.3816 50.0098 12.7253 49.7833 11.1965C49.5568 9.63935 49.4719 7.86985 49.5285 5.88802H45.9612Z" fill="white"/>
<path d="M0 0.961731H9.17305C9.96579 2.85863 10.6736 4.61397 11.2965 6.22775C11.9193 7.81322 12.4006 9.24296 12.7404 10.517C13.165 11.9609 13.4765 13.3199 13.6747 14.5939C13.8728 15.8396 13.9719 17.1137 13.9719 18.416H17.4118C17.4118 16.9721 17.5392 15.5282 17.794 14.0843C18.0488 12.6121 18.4452 11.0549 18.9831 9.41284C19.5211 7.77075 20.2713 5.76062 21.2339 3.38242C21.3755 2.98605 21.7011 2.17914 22.2107 0.961731H31.4262V30.5618H24.8862C24.8862 27.9571 24.9286 25.3666 25.0136 22.7902C25.1268 20.3837 25.3108 18.4302 25.5657 16.9296C25.8488 15.4008 26.2168 14.0277 26.6698 12.8103C27.1228 11.5928 27.7598 10.1631 28.5809 8.52101L25.1834 7.28946L18.1762 25.2958H13.165L6.2003 7.28946L2.84534 8.64842C3.66639 10.2905 4.30341 11.7061 4.7564 12.8952C5.20939 14.0843 5.56329 15.415 5.81809 16.8872C6.10121 18.3311 6.2994 20.2138 6.41265 22.5354C6.49758 25.1967 6.54005 27.8722 6.54005 30.5618H0V0.961731Z" fill="white"/>
</svg>
