<svg width="636" height="31" viewBox="0 0 636 31" fill="none" xmlns="http://www.w3.org/2000/svg">
<path d="M623.171 30.7467C620.708 30.7467 618.542 30.4353 616.673 29.8124C614.833 29.1896 613.404 28.2978 612.384 27.137C611.365 25.9479 610.855 24.5889 610.855 23.06C610.855 21.6728 611.266 20.512 612.087 19.5777C612.908 18.6434 614.012 17.9356 615.399 17.4543C616.815 16.9447 618.386 16.6757 620.113 16.6474V13.2075C618.16 13.1226 616.447 12.8819 614.975 12.4855C613.503 12.0609 612.328 11.4097 611.45 10.532C610.572 9.65436 610.133 8.50773 610.133 7.09213C610.133 5.64822 610.601 4.4025 611.535 3.35496C612.469 2.27911 613.814 1.45806 615.569 0.891821C617.325 0.325584 619.363 0.0424648 621.685 0.0424648C624.488 0.0424648 627.036 0.424676 629.329 1.1891C631.622 1.95352 633.831 3.05768 635.954 4.50159L633.024 9.30046C631.608 8.13967 629.881 7.20538 627.843 6.49758C625.832 5.78978 623.85 5.42173 621.897 5.39342C620.283 5.39342 619.052 5.67654 618.202 6.24277C617.353 6.7807 616.928 7.4885 616.928 8.36617C616.928 8.98903 617.141 9.52696 617.565 9.97995C617.99 10.4046 618.585 10.7727 619.349 11.0841C620.142 11.3672 621.147 11.622 622.364 11.8485L625.889 12.6554C628.89 13.2783 631.24 14.3117 632.939 15.7556C634.666 17.1995 635.529 19.1388 635.529 21.5737C635.529 23.1875 635.034 24.7021 634.043 26.1177C633.052 27.505 631.622 28.6233 629.754 29.4727C627.885 30.3221 625.691 30.7467 623.171 30.7467ZM623.341 26.0328C624.473 26.0328 625.45 25.8346 626.271 25.4382C627.121 25.0419 627.758 24.5181 628.182 23.8669C628.635 23.2158 628.862 22.4938 628.862 21.7011C628.862 20.8234 628.621 20.059 628.14 19.4078C627.687 18.7283 627.021 18.2046 626.144 17.8365C625.294 17.4401 624.318 17.242 623.214 17.242C622.166 17.242 621.218 17.426 620.368 17.794C619.519 18.1621 618.853 18.6859 618.372 19.3653C617.891 20.0165 617.65 20.7809 617.65 21.6586C617.65 22.4797 617.891 23.2299 618.372 23.9094C618.853 24.5606 619.519 25.0844 620.368 25.4807C621.246 25.8488 622.237 26.0328 623.341 26.0328Z" fill="white"/>
<path d="M586.627 0.594548H610.027V5.9455H591.553L593.167 4.41665V14.2267L591.553 12.7404H608.71V17.794H591.553L593.167 16.3926V26.4575L591.553 24.8437H610.536V30.1947H586.627V0.594548Z" fill="white"/>
<path d="M563.275 0.594548H586.08V5.9455H568.201L569.815 4.41665V14.2267L568.201 12.7828H584.551V18.1338H568.201L569.815 16.3926V30.1947H563.275V0.594548Z" fill="white"/>
<path d="M540.669 0.594548H547.209V26.4575L545.595 24.8437H563.134V30.1947H540.669V0.594548Z" fill="white"/>
<path d="M523.969 30.7467C520.996 30.7467 518.335 30.0956 515.985 28.7932C513.635 27.4626 511.795 25.6364 510.464 23.3149C509.133 20.965 508.468 18.332 508.468 15.4158C508.468 12.4997 509.133 9.88086 510.464 7.55928C511.795 5.2377 513.635 3.42574 515.985 2.12339C518.335 0.792734 520.996 0.127404 523.969 0.127404C526.913 0.127404 529.56 0.792734 531.91 2.12339C534.288 3.42574 536.143 5.2377 537.474 7.55928C538.804 9.88086 539.47 12.4997 539.47 15.4158C539.47 18.332 538.804 20.965 537.474 23.3149C536.143 25.6364 534.288 27.4626 531.91 28.7932C529.56 30.0956 526.913 30.7467 523.969 30.7467ZM523.969 25.3533C525.752 25.3533 527.31 24.9286 528.64 24.0793C529.971 23.2299 530.99 22.055 531.698 20.5544C532.406 19.0539 532.76 17.341 532.76 15.4158C532.76 13.4906 532.406 11.7778 531.698 10.2772C530.99 8.77669 529.971 7.60175 528.64 6.75239C527.31 5.90303 525.752 5.47835 523.969 5.47835C522.185 5.47835 520.628 5.90303 519.297 6.75239C517.967 7.60175 516.933 8.77669 516.197 10.2772C515.489 11.7778 515.135 13.4906 515.135 15.4158C515.135 17.341 515.489 19.0539 516.197 20.5544C516.933 22.055 517.967 23.2299 519.297 24.0793C520.628 24.9286 522.185 25.3533 523.969 25.3533Z" fill="white"/>
<path d="M483.347 0.594548H497.107C500.872 0.594548 503.689 1.25988 505.558 2.59054C507.427 3.89288 508.361 5.86056 508.361 8.49357C508.361 10.1073 507.936 11.4522 507.087 12.528C506.237 13.6039 505.091 14.4249 503.647 14.9912C502.203 15.5574 500.575 15.8971 498.763 16.0104V19.4078C500.066 19.4644 501.184 19.7476 502.118 20.2572C503.081 20.7385 503.973 21.5312 504.794 22.6354L504.921 22.8052L510.357 30.1947H502.67L497.999 23.5272C497.885 23.3573 497.772 23.1875 497.659 23.0176C496.838 21.8568 496.173 21.0357 495.663 20.5544C495.182 20.0731 494.644 19.7476 494.049 19.5777C493.455 19.3795 492.591 19.2804 491.459 19.2804H488.274L489.887 17.7091V30.1947H483.347V0.594548ZM488.274 15.1186H495.918C497.22 15.1186 498.296 14.9487 499.145 14.6089C500.023 14.2409 500.674 13.703 501.099 12.9952C501.552 12.2874 501.778 11.3955 501.778 10.3197C501.778 8.76253 501.297 7.60175 500.334 6.83732C499.372 6.0729 497.9 5.69069 495.918 5.69069H488.274L489.887 4.03444V16.6474L488.274 15.1186Z" fill="white"/>
<path d="M457.599 19.0256L446.515 0.594548H453.734C455.178 2.94444 456.268 4.94043 457.004 6.58252C457.769 8.1963 458.293 9.75345 458.576 11.254C458.887 12.7262 459.043 14.4532 459.043 16.4351H462.78C462.78 14.4532 462.922 12.712 463.205 11.2115C463.516 9.71098 464.04 8.15383 464.776 6.54005C465.512 4.92627 466.602 2.94444 468.046 0.594548H475.308L464.181 19.0256V30.1947H457.599V19.0256Z" fill="white"/>
<path d="M423.327 0.594548H434.581C437.921 0.594548 440.823 1.24572 443.286 2.54807C445.75 3.82211 447.632 5.57744 448.935 7.81409C450.237 10.0507 450.888 12.5846 450.888 15.4158C450.888 18.1338 450.237 20.6252 448.935 22.8902C447.632 25.1268 445.75 26.9105 443.286 28.2411C440.823 29.5435 437.921 30.1947 434.581 30.1947H423.327V0.594548ZM428.253 24.8437H434.156C436.223 24.8437 438.006 24.4473 439.507 23.6546C441.036 22.8619 442.196 21.7577 442.989 20.3421C443.81 18.8982 444.221 17.2561 444.221 15.4158C444.221 13.5756 443.81 11.9476 442.989 10.532C442.196 9.08812 441.036 7.9698 439.507 7.17707C438.006 6.35602 436.223 5.9455 434.156 5.9455H428.253L429.867 4.37419V26.4575L428.253 24.8437Z" fill="white"/>
<path d="M394.168 0.594548H400.071L416.676 21.0641L419.776 18.9407C418.729 17.7799 417.865 16.7182 417.186 15.7556C416.506 14.793 415.954 13.7596 415.529 12.6554C415.105 11.5229 414.892 10.348 414.892 9.13059V0.594548H421.475V30.1947H416.039L399.264 9.59774L396.079 11.6787C397.268 12.8111 398.203 13.9295 398.882 15.0336C400.099 16.9871 400.708 19.1247 400.708 21.4463V30.1947H394.168V0.594548Z" fill="white"/>
<path d="M387 30.1947L383.815 22.0833L385.811 23.4847H370.056L372.052 22.0833L368.824 30.1947H361.859L374.472 0.594548H381.352L394.008 30.1947H387ZM376.214 5.52082C376.242 6.62498 376.228 7.65837 376.171 8.62097C376.114 9.55527 375.987 10.4896 375.789 11.4239C375.619 12.3298 375.378 13.2641 375.067 14.2267C374.699 15.2743 373.906 17.0438 372.689 19.5352L371.754 18.5585H384.07L383.136 19.5352C382.541 18.3178 381.989 17.0721 381.48 15.798C380.743 14.0144 380.262 12.3581 380.036 10.8293C379.809 9.27215 379.724 7.50265 379.781 5.52082H376.214Z" fill="white"/>
<path d="M323.209 30.7467C320.236 30.7467 317.575 30.0956 315.225 28.7932C312.875 27.4626 311.034 25.6364 309.704 23.3149C308.373 20.965 307.708 18.332 307.708 15.4158C307.708 12.4997 308.373 9.88086 309.704 7.55928C311.034 5.2377 312.875 3.42574 315.225 2.12339C317.575 0.792734 320.236 0.127404 323.209 0.127404C326.153 0.127404 328.8 0.792734 331.15 2.12339C333.528 3.42574 335.383 5.2377 336.713 7.55928C338.044 9.88086 338.709 12.4997 338.709 15.4158C338.709 18.332 338.044 20.965 336.713 23.3149C335.383 25.6364 333.528 27.4626 331.15 28.7932C328.8 30.0956 326.153 30.7467 323.209 30.7467ZM323.209 25.3533C324.992 25.3533 326.549 24.9286 327.88 24.0793C329.211 23.2299 330.23 22.055 330.938 20.5544C331.646 19.0539 331.999 17.341 331.999 15.4158C331.999 13.4906 331.646 11.7778 330.938 10.2772C330.23 8.77669 329.211 7.60175 327.88 6.75239C326.549 5.90303 324.992 5.47835 323.209 5.47835C321.425 5.47835 319.868 5.90303 318.537 6.75239C317.207 7.60175 316.173 8.77669 315.437 10.2772C314.729 11.7778 314.375 13.4906 314.375 15.4158C314.375 17.341 314.729 19.0539 315.437 20.5544C316.173 22.055 317.207 23.2299 318.537 24.0793C319.868 24.9286 321.425 25.3533 323.209 25.3533Z" fill="white"/>
<path d="M282.587 0.594548H296.347C300.112 0.594548 302.929 1.25988 304.798 2.59054C306.666 3.89288 307.601 5.86056 307.601 8.49357C307.601 10.1073 307.176 11.4522 306.327 12.528C305.477 13.6039 304.331 14.4249 302.887 14.9912C301.443 15.5574 299.815 15.8971 298.003 16.0104V19.4078C299.305 19.4644 300.424 19.7476 301.358 20.2572C302.321 20.7385 303.212 21.5312 304.033 22.6354L304.161 22.8052L309.597 30.1947H301.91L297.239 23.5272C297.125 23.3573 297.012 23.1875 296.899 23.0176C296.078 21.8568 295.412 21.0357 294.903 20.5544C294.421 20.0731 293.884 19.7476 293.289 19.5777C292.694 19.3795 291.831 19.2804 290.698 19.2804H287.513L289.127 17.7091V30.1947H282.587V0.594548ZM287.513 15.1186H295.158C296.46 15.1186 297.536 14.9487 298.385 14.6089C299.263 14.2409 299.914 13.703 300.339 12.9952C300.792 12.2874 301.018 11.3955 301.018 10.3197C301.018 8.76253 300.537 7.60175 299.574 6.83732C298.612 6.0729 297.139 5.69069 295.158 5.69069H287.513L289.127 4.03444V16.6474L287.513 15.1186Z" fill="white"/>
<path d="M257.7 0.594548H281.1V5.9455H262.627L264.24 4.41665V14.2267L262.627 12.7404H279.784V17.794H262.627L264.24 16.3926V26.4575L262.627 24.8437H281.61V30.1947H257.7V0.594548Z" fill="white"/>
<path d="M235.094 0.594548H241.635V26.4575L240.021 24.8437H257.56V30.1947H235.094V0.594548Z" fill="white"/>
<path d="M212.489 0.594548H219.029V26.4575L217.415 24.8437H234.954V30.1947H212.489V0.594548Z" fill="white"/>
<path d="M205.321 30.1947L202.136 22.0833L204.132 23.4847H188.376L190.372 22.0833L187.145 30.1947H180.18L192.793 0.594548H199.673L212.328 30.1947H205.321ZM194.534 5.52082C194.562 6.62498 194.548 7.65837 194.492 8.62097C194.435 9.55527 194.307 10.4896 194.109 11.4239C193.939 12.3298 193.699 13.2641 193.387 14.2267C193.019 15.2743 192.227 17.0438 191.009 19.5352L190.075 18.5585H202.391L201.456 19.5352C200.862 18.3178 200.31 17.0721 199.8 15.798C199.064 14.0144 198.583 12.3581 198.356 10.8293C198.13 9.27215 198.045 7.50265 198.101 5.52082H194.534Z" fill="white"/>
<path d="M156.327 0.594548H171.064C173.215 0.594548 175.027 0.821042 176.499 1.27403C178 1.69871 179.147 2.42067 179.939 3.43989C180.76 4.43081 181.171 5.70485 181.171 7.262C181.171 8.56435 180.888 9.65436 180.322 10.532C179.755 11.3814 178.934 12.0184 177.858 12.4431C176.811 12.8678 175.537 13.1226 174.036 13.2075V16.6474C175.763 16.6757 177.221 16.9022 178.41 17.3269C179.628 17.7516 180.562 18.4027 181.213 19.2804C181.865 20.1581 182.19 21.3047 182.19 22.7203C182.19 24.3624 181.737 25.7355 180.831 26.8397C179.953 27.9439 178.722 28.7791 177.136 29.3453C175.551 29.9115 173.711 30.1947 171.616 30.1947H156.327V0.594548ZM170.384 25.0985C171.46 25.0985 172.38 24.9711 173.144 24.7163C173.937 24.4332 174.532 24.0085 174.928 23.4423C175.353 22.876 175.565 22.1541 175.565 21.2764C175.565 20.4554 175.353 19.7759 174.928 19.2379C174.532 18.7 173.951 18.3036 173.187 18.0488C172.423 17.794 171.488 17.6666 170.384 17.6666H162.91V25.0985H170.384ZM169.407 12.8253C171.134 12.8253 172.423 12.5422 173.272 11.9759C174.15 11.3814 174.588 10.4471 174.588 9.17306C174.588 7.95564 174.15 7.07797 173.272 6.54005C172.423 5.97381 171.134 5.69069 169.407 5.69069H162.91V12.8253H169.407Z" fill="white"/>
<path d="M149.202 30.1947L146.017 22.0833L148.013 23.4847H132.257L134.253 22.0833L131.026 30.1947H124.061L136.674 0.594548H143.554L156.209 30.1947H149.202ZM138.415 5.52082C138.443 6.62498 138.429 7.65837 138.373 8.62097C138.316 9.55527 138.189 10.4896 137.99 11.4239C137.82 12.3298 137.58 13.2641 137.268 14.2267C136.9 15.2743 136.108 17.0438 134.89 19.5352L133.956 18.5585H146.272L145.337 19.5352C144.743 18.3178 144.191 17.0721 143.681 15.798C142.945 14.0144 142.464 12.3581 142.237 10.8293C142.011 9.27215 141.926 7.50265 141.982 5.52082H138.415Z" fill="white"/>
<path d="M114.527 30.7892C111.611 30.7892 108.992 30.1522 106.67 28.8781C104.377 27.5758 102.579 25.7638 101.277 23.4423C99.9746 21.0924 99.3234 18.4027 99.3234 15.3734C99.3234 12.344 99.9746 9.66852 101.277 7.34694C102.608 5.02536 104.448 3.22756 106.798 1.95352C109.176 0.651174 111.866 0 114.867 0C117.217 0 119.297 0.382211 121.109 1.14663C122.921 1.91105 124.592 3.00106 126.121 4.41666L122.808 8.79085C121.761 7.77162 120.628 6.99304 119.411 6.45512C118.193 5.88888 116.82 5.60576 115.291 5.60576C113.479 5.60576 111.851 6.03044 110.407 6.87979C108.992 7.70084 107.888 8.86163 107.095 10.3622C106.302 11.8627 105.906 13.5756 105.906 15.5008C105.906 17.426 106.302 19.1105 107.095 20.5544C107.916 21.9984 109.034 23.1167 110.45 23.9094C111.894 24.6738 113.522 25.056 115.334 25.056C116.891 25.056 118.278 24.7446 119.496 24.1217C120.741 23.4989 121.888 22.6212 122.936 21.4887L126.333 25.9903C124.747 27.5475 123.02 28.7366 121.152 29.5576C119.312 30.3787 117.103 30.7892 114.527 30.7892Z" fill="white"/>
<path d="M84.9095 30.1947L81.7244 22.0833L83.7204 23.4847H67.9648L69.9608 22.0833L66.7333 30.1947H59.7686L72.3815 0.594548H79.2613L91.9167 30.1947H84.9095ZM74.1227 5.52082C74.151 6.62498 74.1368 7.65837 74.0802 8.62097C74.0236 9.55527 73.8962 10.4896 73.698 11.4239C73.5281 12.3298 73.2875 13.2641 72.9761 14.2267C72.608 15.2743 71.8153 17.0438 70.5979 19.5352L69.6636 18.5585H81.9792L81.0449 19.5352C80.4504 18.3178 79.8983 17.0721 79.3887 15.798C78.6526 14.0144 78.1713 12.3581 77.9448 10.8293C77.7183 9.27215 77.6334 7.50265 77.69 5.52082H74.1227Z" fill="white"/>
<path d="M32.3088 0.594548H38.2118L54.8167 21.0641L57.9169 18.9407C56.8693 17.7799 56.0058 16.7182 55.3263 15.7556C54.6469 14.793 54.0948 13.7596 53.6701 12.6554C53.2454 11.5229 53.0331 10.348 53.0331 9.13059V0.594548H59.6156V30.1947H54.1797L37.4049 9.59774L34.2198 11.6787C35.4089 12.8111 36.3432 13.9295 37.0227 15.0336C38.2401 16.9871 38.8488 19.1247 38.8488 21.4463V30.1947H32.3088V0.594548Z" fill="white"/>
<path d="M25.141 30.1947L21.9559 22.0833L23.9519 23.4847H8.1963L10.1923 22.0833L6.96473 30.1947H0L12.613 0.594548H19.4928L32.1482 30.1947H25.141ZM14.3541 5.52082C14.3824 6.62498 14.3683 7.65837 14.3117 8.62097C14.255 9.55527 14.1276 10.4896 13.9295 11.4239C13.7596 12.3298 13.5189 13.2641 13.2075 14.2267C12.8395 15.2743 12.0467 17.0438 10.8293 19.5352L9.89501 18.5585H22.2107L21.2764 19.5352C20.6819 18.3178 20.1298 17.0721 19.6202 15.798C18.884 14.0144 18.4027 12.3581 18.1763 10.8293C17.9498 9.27215 17.8648 7.50265 17.9214 5.52082H14.3541Z" fill="white"/>
</svg>
