<svg width="1224" height="31" viewBox="0 0 1224 31" fill="none" xmlns="http://www.w3.org/2000/svg">
<path d="M1199.51 0.594548H1222.91V5.9455H1204.44L1206.05 4.41665V14.2267L1204.44 12.7404H1221.59V17.794H1204.44L1206.05 16.3926V26.4575L1204.44 24.8437H1223.42V30.1947H1199.51V0.594548Z" fill="white"/>
<path d="M1176.9 0.594548H1183.44V26.4575L1181.83 24.8437H1199.37V30.1947H1176.9V0.594548Z" fill="white"/>
<path d="M1154.3 0.594548H1160.84V26.4575L1159.22 24.8437H1176.76V30.1947H1154.3V0.594548Z" fill="white"/>
<path d="M1145.88 0.594548H1152.42V30.1947H1145.88V0.594548Z" fill="white"/>
<path d="M1115.93 0.594548H1122.77C1123.31 2.01014 1123.82 3.3408 1124.3 4.58653C1125.66 8.52188 1126.66 11.5229 1127.31 13.5897C1127.96 15.6282 1128.42 17.4543 1128.67 19.0681C1128.93 20.6818 1129.05 22.6495 1129.05 24.9711H1132.58C1132.58 22.7061 1132.71 20.7809 1132.96 19.1955C1133.22 17.5817 1133.65 15.7839 1134.28 13.8021C1134.93 11.7919 1135.88 8.90409 1137.12 5.13861C1137.72 3.63808 1138.31 2.12339 1138.91 0.594548H1145.74L1134.7 30.1947H1126.97L1115.93 0.594548Z" fill="white"/>
<path d="M1115.4 30.1947L1112.21 22.0833L1114.21 23.4847H1098.45L1100.45 22.0833L1097.22 30.1947H1090.26L1102.87 0.594548H1109.75L1122.4 30.1947H1115.4ZM1104.61 5.52082C1104.64 6.62498 1104.62 7.65837 1104.57 8.62097C1104.51 9.55527 1104.38 10.4896 1104.19 11.4239C1104.02 12.3298 1103.78 13.2641 1103.46 14.2267C1103.1 15.2743 1102.3 17.0438 1101.09 19.5352L1100.15 18.5585H1112.47L1111.53 19.5352C1110.94 18.3178 1110.39 17.0721 1109.88 15.798C1109.14 14.0144 1108.66 12.3581 1108.43 10.8293C1108.21 9.27215 1108.12 7.50265 1108.18 5.52082H1104.61Z" fill="white"/>
<path d="M1080.22 30.7467C1077.76 30.7467 1075.59 30.4353 1073.72 29.8124C1071.88 29.1896 1070.45 28.2978 1069.43 27.137C1068.41 25.9479 1067.9 24.5889 1067.9 23.06C1067.9 21.6728 1068.31 20.512 1069.13 19.5777C1069.96 18.6434 1071.06 17.9356 1072.45 17.4543C1073.86 16.9447 1075.43 16.6757 1077.16 16.6474V13.2075C1075.21 13.1226 1073.49 12.8819 1072.02 12.4855C1070.55 12.0609 1069.38 11.4097 1068.5 10.532C1067.62 9.65436 1067.18 8.50773 1067.18 7.09213C1067.18 5.64822 1067.65 4.4025 1068.58 3.35496C1069.52 2.27911 1070.86 1.45806 1072.62 0.891821C1074.37 0.325584 1076.41 0.0424648 1078.73 0.0424648C1081.54 0.0424648 1084.08 0.424676 1086.38 1.1891C1088.67 1.95352 1090.88 3.05768 1093 4.50159L1090.07 9.30046C1088.66 8.13967 1086.93 7.20538 1084.89 6.49758C1082.88 5.78978 1080.9 5.42173 1078.94 5.39342C1077.33 5.39342 1076.1 5.67654 1075.25 6.24277C1074.4 6.7807 1073.98 7.4885 1073.98 8.36617C1073.98 8.98903 1074.19 9.52696 1074.61 9.97995C1075.04 10.4046 1075.63 10.7727 1076.4 11.0841C1077.19 11.3672 1078.19 11.622 1079.41 11.8485L1082.94 12.6554C1085.94 13.2783 1088.29 14.3117 1089.99 15.7556C1091.71 17.1995 1092.58 19.1388 1092.58 21.5737C1092.58 23.1875 1092.08 24.7021 1091.09 26.1177C1090.1 27.505 1088.67 28.6233 1086.8 29.4727C1084.93 30.3221 1082.74 30.7467 1080.22 30.7467ZM1080.39 26.0328C1081.52 26.0328 1082.5 25.8346 1083.32 25.4382C1084.17 25.0419 1084.81 24.5181 1085.23 23.8669C1085.68 23.2158 1085.91 22.4938 1085.91 21.7011C1085.91 20.8234 1085.67 20.059 1085.19 19.4078C1084.73 18.7283 1084.07 18.2046 1083.19 17.8365C1082.34 17.4401 1081.37 17.242 1080.26 17.242C1079.21 17.242 1078.27 17.426 1077.42 17.794C1076.57 18.1621 1075.9 18.6859 1075.42 19.3653C1074.94 20.0165 1074.7 20.7809 1074.7 21.6586C1074.7 22.4797 1074.94 23.2299 1075.42 23.9094C1075.9 24.5606 1076.57 25.0844 1077.42 25.4807C1078.29 25.8488 1079.28 26.0328 1080.39 26.0328Z" fill="white"/>
<path d="M1052.64 30.1947L1049.45 22.0833L1051.45 23.4847H1035.69L1037.69 22.0833L1034.46 30.1947H1027.5L1040.11 0.594548H1046.99L1059.65 30.1947H1052.64ZM1041.85 5.52082C1041.88 6.62498 1041.87 7.65837 1041.81 8.62097C1041.75 9.55527 1041.63 10.4896 1041.43 11.4239C1041.26 12.3298 1041.02 13.2641 1040.71 14.2267C1040.34 15.2743 1039.55 17.0438 1038.33 19.5352L1037.39 18.5585H1049.71L1048.78 19.5352C1048.18 18.3178 1047.63 17.0721 1047.12 15.798C1046.38 14.0144 1045.9 12.3581 1045.67 10.8293C1045.45 9.27215 1045.36 7.50265 1045.42 5.52082H1041.85Z" fill="white"/>
<path d="M1003.23 0.594548H1009.77V5.90303C1009.77 6.80901 1009.66 7.64421 1009.43 8.40864C1009.21 9.17306 1008.78 10.0366 1008.16 10.9992C1007.56 11.9335 1006.69 13.1367 1005.53 14.6089L1008.33 16.6049L1022.51 0.594548H1030.45L1017.5 14.3966L1017.67 12.0609L1030.84 30.1947H1022.98L1013.38 16.6899L1015.21 16.8597L1008.5 24.0368L1009.77 21.1065V30.1947H1003.23V0.594548Z" fill="white"/>
<path d="M991.004 30.7892C988.088 30.7892 985.469 30.1522 983.148 28.8781C980.854 27.5758 979.057 25.7638 977.754 23.4423C976.452 21.0924 975.801 18.4027 975.801 15.3734C975.801 12.344 976.452 9.66852 977.754 7.34694C979.085 5.02536 980.925 3.22756 983.275 1.95352C985.653 0.651174 988.343 0 991.344 0C993.694 0 995.775 0.382211 997.587 1.14663C999.399 1.91105 1001.07 3.00106 1002.6 4.41666L999.285 8.79085C998.238 7.77162 997.105 6.99304 995.888 6.45512C994.671 5.88888 993.297 5.60576 991.769 5.60576C989.957 5.60576 988.329 6.03044 986.885 6.87979C985.469 7.70084 984.365 8.86163 983.572 10.3622C982.78 11.8627 982.383 13.5756 982.383 15.5008C982.383 17.426 982.78 19.1105 983.572 20.5544C984.393 21.9984 985.512 23.1167 986.927 23.9094C988.371 24.6738 989.999 25.056 991.811 25.056C993.368 25.056 994.755 24.7446 995.973 24.1217C997.219 23.4989 998.365 22.6212 999.413 21.4887L1002.81 25.9903C1001.22 27.5475 999.498 28.7366 997.629 29.5576C995.789 30.3787 993.581 30.7892 991.004 30.7892Z" fill="white"/>
<path d="M953.085 0.594548H976.485V5.9455H958.012L959.625 4.41665V14.2267L958.012 12.7404H975.169V17.794H958.012L959.625 16.3926V26.4575L958.012 24.8437H976.995V30.1947H953.085V0.594548Z" fill="white"/>
<path d="M926.248 0.594548H940.985C943.136 0.594548 944.948 0.821042 946.421 1.27403C947.921 1.69871 949.068 2.42067 949.86 3.43989C950.682 4.43081 951.092 5.70485 951.092 7.262C951.092 8.56435 950.809 9.65436 950.243 10.532C949.676 11.3814 948.855 12.0184 947.78 12.4431C946.732 12.8678 945.458 13.1226 943.957 13.2075V16.6474C945.684 16.6757 947.142 16.9022 948.332 17.3269C949.549 17.7516 950.483 18.4027 951.134 19.2804C951.786 20.1581 952.111 21.3047 952.111 22.7203C952.111 24.3624 951.658 25.7355 950.752 26.8397C949.875 27.9439 948.643 28.7791 947.058 29.3453C945.472 29.9115 943.632 30.1947 941.537 30.1947H926.248V0.594548ZM940.305 25.0985C941.381 25.0985 942.301 24.9711 943.066 24.7163C943.858 24.4332 944.453 24.0085 944.849 23.4423C945.274 22.876 945.486 22.1541 945.486 21.2764C945.486 20.4554 945.274 19.7759 944.849 19.2379C944.453 18.7 943.872 18.3036 943.108 18.0488C942.344 17.794 941.409 17.6666 940.305 17.6666H932.831V25.0985H940.305ZM939.328 12.8253C941.055 12.8253 942.344 12.5422 943.193 11.9759C944.071 11.3814 944.509 10.4471 944.509 9.17306C944.509 7.95564 944.071 7.07797 943.193 6.54005C942.344 5.97381 941.055 5.69069 939.328 5.69069H932.831V12.8253H939.328Z" fill="white"/>
<path d="M895.474 30.1947L892.289 22.0833L894.285 23.4847H878.529L880.525 22.0833L877.297 30.1947H870.333L882.946 0.594548H889.825L902.481 30.1947H895.474ZM884.687 5.52082C884.715 6.62498 884.701 7.65837 884.644 8.62097C884.588 9.55527 884.46 10.4896 884.262 11.4239C884.092 12.3298 883.852 13.2641 883.54 14.2267C883.172 15.2743 882.379 17.0438 881.162 19.5352L880.228 18.5585H892.543L891.609 19.5352C891.015 18.3178 890.463 17.0721 889.953 15.798C889.217 14.0144 888.736 12.3581 888.509 10.8293C888.283 9.27215 888.198 7.50265 888.254 5.52082H884.687Z" fill="white"/>
<path d="M863.609 0.594548H870.149V30.1947H863.609V0.594548Z" fill="white"/>
<path d="M851.381 30.7892C848.465 30.7892 845.846 30.1522 843.525 28.8781C841.231 27.5758 839.434 25.7638 838.131 23.4423C836.829 21.0924 836.178 18.4027 836.178 15.3734C836.178 12.344 836.829 9.66852 838.131 7.34694C839.462 5.02536 841.302 3.22756 843.652 1.95352C846.03 0.651174 848.72 0 851.721 0C854.071 0 856.152 0.382211 857.964 1.14663C859.776 1.91105 861.446 3.00106 862.975 4.41666L859.662 8.79085C858.615 7.77162 857.482 6.99304 856.265 6.45512C855.048 5.88888 853.674 5.60576 852.146 5.60576C850.334 5.60576 848.706 6.03044 847.262 6.87979C845.846 7.70084 844.742 8.86163 843.949 10.3622C843.156 11.8627 842.76 13.5756 842.76 15.5008C842.76 17.426 843.156 19.1105 843.949 20.5544C844.77 21.9984 845.889 23.1167 847.304 23.9094C848.748 24.6738 850.376 25.056 852.188 25.056C853.745 25.056 855.132 24.7446 856.35 24.1217C857.596 23.4989 858.742 22.6212 859.79 21.4887L863.187 25.9903C861.602 27.5475 859.875 28.7366 858.006 29.5576C856.166 30.3787 853.958 30.7892 851.381 30.7892Z" fill="white"/>
<path d="M822.059 30.7892C819.398 30.7892 817.077 30.3221 815.095 29.3878C813.113 28.4252 811.584 26.9954 810.508 25.0985C809.461 23.2016 808.937 20.88 808.937 18.1338V0.594548H815.477V17.9639C815.477 19.5494 815.732 20.8942 816.241 21.9984C816.779 23.0742 817.529 23.8953 818.492 24.4615C819.483 24.9994 820.672 25.2684 822.059 25.2684C824.126 25.2684 825.726 24.6455 826.858 23.3998C828.019 22.1258 828.599 20.3138 828.599 17.9639V0.594548H835.14V18.1338C835.14 22.2673 833.965 25.4099 831.615 27.5616C829.293 29.7133 826.108 30.7892 822.059 30.7892Z" fill="white"/>
<path d="M787.829 0.594548H794.369V26.4575L792.755 24.8437H810.294V30.1947H787.829V0.594548Z" fill="white"/>
<path d="M772.778 30.1947L769.593 22.0833L771.589 23.4847H755.833L757.829 22.0833L754.602 30.1947H747.637L760.25 0.594548H767.13L779.785 30.1947H772.778ZM761.991 5.52082C762.02 6.62498 762.005 7.65837 761.949 8.62097C761.892 9.55527 761.765 10.4896 761.567 11.4239C761.397 12.3298 761.156 13.2641 760.845 14.2267C760.477 15.2743 759.684 17.0438 758.466 19.5352L757.532 18.5585H769.848L768.914 19.5352C768.319 18.3178 767.767 17.0721 767.257 15.798C766.521 14.0144 766.04 12.3581 765.813 10.8293C765.587 9.27215 765.502 7.50265 765.559 5.52082H761.991Z" fill="white"/>
<path d="M720.177 0.594548H726.08L742.685 21.0641L745.786 18.9407C744.738 17.7799 743.874 16.7182 743.195 15.7556C742.515 14.793 741.963 13.7596 741.539 12.6554C741.114 11.5229 740.902 10.348 740.902 9.13059V0.594548H747.484V30.1947H742.048L725.273 9.59774L722.088 11.6787C723.277 12.8111 724.212 13.9295 724.891 15.0336C726.109 16.9871 726.717 19.1247 726.717 21.4463V30.1947H720.177V0.594548Z" fill="white"/>
<path d="M691.019 0.594548H696.922L713.527 21.0641L716.627 18.9407C715.579 17.7799 714.716 16.7182 714.036 15.7556C713.357 14.793 712.805 13.7596 712.38 12.6554C711.956 11.5229 711.743 10.348 711.743 9.13059V0.594548H718.326V30.1947H712.89L696.115 9.59774L692.93 11.6787C694.119 12.8111 695.053 13.9295 695.733 15.0336C696.95 16.9871 697.559 19.1247 697.559 21.4463V30.1947H691.019V0.594548Z" fill="white"/>
<path d="M683.851 30.1947L680.666 22.0833L682.662 23.4847H666.906L668.902 22.0833L665.675 30.1947H658.71L671.323 0.594548H678.203L690.858 30.1947H683.851ZM673.064 5.52082C673.093 6.62498 673.078 7.65837 673.022 8.62097C672.965 9.55527 672.838 10.4896 672.64 11.4239C672.47 12.3298 672.229 13.2641 671.918 14.2267C671.55 15.2743 670.757 17.0438 669.539 19.5352L668.605 18.5585H680.921L679.987 19.5352C679.392 18.3178 678.84 17.0721 678.33 15.798C677.594 14.0144 677.113 12.3581 676.886 10.8293C676.66 9.27215 676.575 7.50265 676.632 5.52082H673.064Z" fill="white"/>
<path d="M623.323 30.7467C620.859 30.7467 618.693 30.4353 616.825 29.8124C614.985 29.1896 613.555 28.2978 612.536 27.137C611.516 25.9479 611.007 24.5889 611.007 23.06C611.007 21.6728 611.417 20.512 612.238 19.5777C613.059 18.6434 614.164 17.9356 615.551 17.4543C616.966 16.9447 618.538 16.6757 620.265 16.6474V13.2075C618.311 13.1226 616.598 12.8819 615.126 12.4855C613.654 12.0609 612.479 11.4097 611.601 10.532C610.724 9.65436 610.285 8.50773 610.285 7.09213C610.285 5.64822 610.752 4.4025 611.686 3.35496C612.621 2.27911 613.965 1.45806 615.721 0.891821C617.476 0.325584 619.514 0.0424648 621.836 0.0424648C624.639 0.0424648 627.187 0.424676 629.48 1.1891C631.774 1.95352 633.982 3.05768 636.105 4.50159L633.175 9.30046C631.759 8.13967 630.032 7.20538 627.994 6.49758C625.984 5.78978 624.002 5.42173 622.048 5.39342C620.435 5.39342 619.203 5.67654 618.354 6.24277C617.504 6.7807 617.08 7.4885 617.08 8.36617C617.08 8.98903 617.292 9.52696 617.717 9.97995C618.141 10.4046 618.736 10.7727 619.5 11.0841C620.293 11.3672 621.298 11.622 622.516 11.8485L626.04 12.6554C629.041 13.2783 631.391 14.3117 633.09 15.7556C634.817 17.1995 635.681 19.1388 635.681 21.5737C635.681 23.1875 635.185 24.7021 634.194 26.1177C633.203 27.505 631.773 28.6233 629.905 29.4727C628.036 30.3221 625.842 30.7467 623.323 30.7467ZM623.492 26.0328C624.625 26.0328 625.602 25.8346 626.423 25.4382C627.272 25.0419 627.909 24.5181 628.334 23.8669C628.787 23.2158 629.013 22.4938 629.013 21.7011C629.013 20.8234 628.773 20.059 628.291 19.4078C627.838 18.7283 627.173 18.2046 626.295 17.8365C625.446 17.4401 624.469 17.242 623.365 17.242C622.317 17.242 621.369 17.426 620.52 17.794C619.67 18.1621 619.005 18.6859 618.524 19.3653C618.042 20.0165 617.802 20.7809 617.802 21.6586C617.802 22.4797 618.042 23.2299 618.524 23.9094C619.005 24.5606 619.67 25.0844 620.52 25.4807C621.397 25.8488 622.388 26.0328 623.492 26.0328Z" fill="white"/>
<path d="M586.779 0.594548H610.178V5.9455H591.705L593.319 4.41665V14.2267L591.705 12.7404H608.862V17.794H591.705L593.319 16.3926V26.4575L591.705 24.8437H610.688V30.1947H586.779V0.594548Z" fill="white"/>
<path d="M563.426 0.594548H586.231V5.9455H568.352L569.966 4.41665V14.2267L568.352 12.7828H584.703V18.1338H568.352L569.966 16.3926V30.1947H563.426V0.594548Z" fill="white"/>
<path d="M540.82 0.594548H547.36V26.4575L545.747 24.8437H563.286V30.1947H540.82V0.594548Z" fill="white"/>
<path d="M524.12 30.7467C521.147 30.7467 518.486 30.0956 516.136 28.7932C513.786 27.4626 511.946 25.6364 510.615 23.3149C509.285 20.965 508.619 18.332 508.619 15.4158C508.619 12.4997 509.285 9.88086 510.615 7.55928C511.946 5.2377 513.786 3.42574 516.136 2.12339C518.486 0.792734 521.147 0.127404 524.12 0.127404C527.065 0.127404 529.712 0.792734 532.062 2.12339C534.44 3.42574 536.294 5.2377 537.625 7.55928C538.956 9.88086 539.621 12.4997 539.621 15.4158C539.621 18.332 538.956 20.965 537.625 23.3149C536.294 25.6364 534.44 27.4626 532.062 28.7932C529.712 30.0956 527.065 30.7467 524.12 30.7467ZM524.12 25.3533C525.904 25.3533 527.461 24.9286 528.792 24.0793C530.122 23.2299 531.142 22.055 531.849 20.5544C532.557 19.0539 532.911 17.341 532.911 15.4158C532.911 13.4906 532.557 11.7778 531.849 10.2772C531.142 8.77669 530.122 7.60175 528.792 6.75239C527.461 5.90303 525.904 5.47835 524.12 5.47835C522.336 5.47835 520.779 5.90303 519.449 6.75239C518.118 7.60175 517.085 8.77669 516.349 10.2772C515.641 11.7778 515.287 13.4906 515.287 15.4158C515.287 17.341 515.641 19.0539 516.349 20.5544C517.085 22.055 518.118 23.2299 519.449 24.0793C520.779 24.9286 522.336 25.3533 524.12 25.3533Z" fill="white"/>
<path d="M483.499 0.594548H497.258C501.024 0.594548 503.841 1.25988 505.709 2.59054C507.578 3.89288 508.512 5.86056 508.512 8.49357C508.512 10.1073 508.088 11.4522 507.238 12.528C506.389 13.6039 505.242 14.4249 503.798 14.9912C502.354 15.5574 500.726 15.8971 498.915 16.0104V19.4078C500.217 19.4644 501.335 19.7476 502.269 20.2572C503.232 20.7385 504.124 21.5312 504.945 22.6354L505.072 22.8052L510.508 30.1947H502.822L498.15 23.5272C498.037 23.3573 497.924 23.1875 497.81 23.0176C496.989 21.8568 496.324 21.0357 495.814 20.5544C495.333 20.0731 494.795 19.7476 494.201 19.5777C493.606 19.3795 492.742 19.2804 491.61 19.2804H488.425L490.039 17.7091V30.1947H483.499V0.594548ZM488.425 15.1186H496.069C497.371 15.1186 498.447 14.9487 499.297 14.6089C500.174 14.2409 500.826 13.703 501.25 12.9952C501.703 12.2874 501.93 11.3955 501.93 10.3197C501.93 8.76253 501.448 7.60175 500.486 6.83732C499.523 6.0729 498.051 5.69069 496.069 5.69069H488.425L490.039 4.03444V16.6474L488.425 15.1186Z" fill="white"/>
<path d="M457.75 19.0256L446.666 0.594548H453.886C455.33 2.94444 456.42 4.94043 457.156 6.58252C457.92 8.1963 458.444 9.75345 458.727 11.254C459.038 12.7262 459.194 14.4532 459.194 16.4351H462.931C462.931 14.4532 463.073 12.712 463.356 11.2115C463.667 9.71098 464.191 8.15383 464.927 6.54005C465.663 4.92627 466.753 2.94444 468.197 0.594548H475.459L464.333 19.0256V30.1947H457.75V19.0256Z" fill="white"/>
<path d="M423.478 0.594548H434.732C438.073 0.594548 440.975 1.24572 443.438 2.54807C445.901 3.82211 447.784 5.57745 449.086 7.81409C450.388 10.0507 451.04 12.5846 451.04 15.4158C451.04 18.1338 450.388 20.6252 449.086 22.8902C447.784 25.1268 445.901 26.9105 443.438 28.2411C440.975 29.5435 438.073 30.1947 434.732 30.1947H423.478V0.594548ZM428.404 24.8437H434.307C436.374 24.8437 438.158 24.4473 439.658 23.6546C441.187 22.8619 442.348 21.7577 443.141 20.3421C443.962 18.8982 444.372 17.2561 444.372 15.4158C444.372 13.5756 443.962 11.9476 443.141 10.532C442.348 9.08812 441.187 7.9698 439.658 7.17707C438.158 6.35602 436.374 5.9455 434.307 5.9455H428.404L430.018 4.37419V26.4575L428.404 24.8437Z" fill="white"/>
<path d="M394.32 0.594548H400.223L416.827 21.0641L419.928 18.9407C418.88 17.7799 418.017 16.7182 417.337 15.7556C416.658 14.793 416.105 13.7596 415.681 12.6554C415.256 11.5229 415.044 10.348 415.044 9.13059V0.594548H421.626V30.1947H416.19L399.416 9.59774L396.231 11.6787C397.42 12.8111 398.354 13.9295 399.033 15.0336C400.251 16.9871 400.86 19.1247 400.86 21.4463V30.1947H394.32V0.594548Z" fill="white"/>
<path d="M387.152 30.1947L383.967 22.0833L385.963 23.4847H370.207L372.203 22.0833L368.975 30.1947H362.011L374.624 0.594548H381.503L394.159 30.1947H387.152ZM376.365 5.52082C376.393 6.62498 376.379 7.65837 376.322 8.62097C376.266 9.55527 376.138 10.4896 375.94 11.4239C375.77 12.3298 375.53 13.2641 375.218 14.2267C374.85 15.2743 374.057 17.0438 372.84 19.5352L371.906 18.5585H384.221L383.287 19.5352C382.693 18.3178 382.141 17.0721 381.631 15.798C380.895 14.0144 380.413 12.3581 380.187 10.8293C379.96 9.27215 379.876 7.50265 379.932 5.52082H376.365Z" fill="white"/>
<path d="M323.36 30.7467C320.387 30.7467 317.726 30.0956 315.376 28.7932C313.026 27.4626 311.186 25.6364 309.855 23.3149C308.525 20.965 307.859 18.332 307.859 15.4158C307.859 12.4997 308.525 9.88086 309.855 7.55928C311.186 5.2377 313.026 3.42574 315.376 2.12339C317.726 0.792734 320.387 0.127404 323.36 0.127404C326.304 0.127404 328.952 0.792734 331.301 2.12339C333.68 3.42574 335.534 5.2377 336.865 7.55928C338.195 9.88086 338.861 12.4997 338.861 15.4158C338.861 18.332 338.195 20.965 336.865 23.3149C335.534 25.6364 333.68 27.4626 331.301 28.7932C328.952 30.0956 326.304 30.7467 323.36 30.7467ZM323.36 25.3533C325.144 25.3533 326.701 24.9286 328.031 24.0793C329.362 23.2299 330.381 22.055 331.089 20.5544C331.797 19.0539 332.151 17.341 332.151 15.4158C332.151 13.4906 331.797 11.7778 331.089 10.2772C330.381 8.77669 329.362 7.60175 328.031 6.75239C326.701 5.90303 325.144 5.47835 323.36 5.47835C321.576 5.47835 320.019 5.90303 318.689 6.75239C317.358 7.60175 316.324 8.77669 315.588 10.2772C314.881 11.7778 314.527 13.4906 314.527 15.4158C314.527 17.341 314.881 19.0539 315.588 20.5544C316.324 22.055 317.358 23.2299 318.689 24.0793C320.019 24.9286 321.576 25.3533 323.36 25.3533Z" fill="white"/>
<path d="M282.738 0.594548H296.498C300.264 0.594548 303.081 1.25988 304.949 2.59054C306.818 3.89288 307.752 5.86056 307.752 8.49357C307.752 10.1073 307.327 11.4522 306.478 12.528C305.629 13.6039 304.482 14.4249 303.038 14.9912C301.594 15.5574 299.966 15.8971 298.154 16.0104V19.4078C299.457 19.4644 300.575 19.7476 301.509 20.2572C302.472 20.7385 303.364 21.5312 304.185 22.6354L304.312 22.8052L309.748 30.1947H302.061L297.39 23.5272C297.277 23.3573 297.163 23.1875 297.05 23.0176C296.229 21.8568 295.564 21.0357 295.054 20.5544C294.573 20.0731 294.035 19.7476 293.44 19.5777C292.846 19.3795 291.982 19.2804 290.85 19.2804H287.665L289.279 17.7091V30.1947H282.738V0.594548ZM287.665 15.1186H295.309C296.611 15.1186 297.687 14.9487 298.537 14.6089C299.414 14.2409 300.065 13.703 300.49 12.9952C300.943 12.2874 301.17 11.3955 301.17 10.3197C301.17 8.76253 300.688 7.60175 299.726 6.83732C298.763 6.0729 297.291 5.69069 295.309 5.69069H287.665L289.279 4.03444V16.6474L287.665 15.1186Z" fill="white"/>
<path d="M257.852 0.594548H281.251V5.9455H262.778L264.392 4.41665V14.2267L262.778 12.7404H279.935V17.794H262.778L264.392 16.3926V26.4575L262.778 24.8437H281.761V30.1947H257.852V0.594548Z" fill="white"/>
<path d="M235.246 0.594548H241.786V26.4575L240.172 24.8437H257.711V30.1947H235.246V0.594548Z" fill="white"/>
<path d="M212.64 0.594548H219.18V26.4575L217.566 24.8437H235.105V30.1947H212.64V0.594548Z" fill="white"/>
<path d="M205.472 30.1947L202.287 22.0833L204.283 23.4847H188.528L190.524 22.0833L187.296 30.1947H180.331L192.944 0.594548H199.824L212.479 30.1947H205.472ZM194.685 5.52082C194.714 6.62498 194.7 7.65837 194.643 8.62097C194.586 9.55527 194.459 10.4896 194.261 11.4239C194.091 12.3298 193.85 13.2641 193.539 14.2267C193.171 15.2743 192.378 17.0438 191.161 19.5352L190.226 18.5585H202.542L201.608 19.5352C201.013 18.3178 200.461 17.0721 199.951 15.798C199.215 14.0144 198.734 12.3581 198.507 10.8293C198.281 9.27215 198.196 7.50265 198.253 5.52082H194.685Z" fill="white"/>
<path d="M156.479 0.594548H171.215C173.367 0.594548 175.179 0.821042 176.651 1.27403C178.151 1.69871 179.298 2.42067 180.091 3.43989C180.912 4.43081 181.322 5.70485 181.322 7.262C181.322 8.56435 181.039 9.65436 180.473 10.532C179.907 11.3814 179.086 12.0184 178.01 12.4431C176.962 12.8678 175.688 13.1226 174.188 13.2075V16.6474C175.915 16.6757 177.373 16.9022 178.562 17.3269C179.779 17.7516 180.714 18.4027 181.365 19.2804C182.016 20.1581 182.341 21.3047 182.341 22.7203C182.341 24.3624 181.888 25.7355 180.983 26.8397C180.105 27.9439 178.873 28.7791 177.288 29.3453C175.702 29.9115 173.862 30.1947 171.767 30.1947H156.479V0.594548ZM170.535 25.0985C171.611 25.0985 172.531 24.9711 173.296 24.7163C174.089 24.4332 174.683 24.0085 175.079 23.4423C175.504 22.876 175.716 22.1541 175.716 21.2764C175.716 20.4554 175.504 19.7759 175.079 19.2379C174.683 18.7 174.103 18.3036 173.338 18.0488C172.574 17.794 171.64 17.6666 170.535 17.6666H163.061V25.0985H170.535ZM169.559 12.8253C171.286 12.8253 172.574 12.5422 173.423 11.9759C174.301 11.3814 174.74 10.4471 174.74 9.17306C174.74 7.95564 174.301 7.07797 173.423 6.54005C172.574 5.97381 171.286 5.69069 169.559 5.69069H163.061V12.8253H169.559Z" fill="white"/>
<path d="M149.353 30.1947L146.168 22.0833L148.164 23.4847H132.409L134.405 22.0833L131.177 30.1947H124.212L136.825 0.594548H143.705L156.36 30.1947H149.353ZM138.566 5.52082C138.595 6.62498 138.581 7.65837 138.524 8.62097C138.467 9.55527 138.34 10.4896 138.142 11.4239C137.972 12.3298 137.731 13.2641 137.42 14.2267C137.052 15.2743 136.259 17.0438 135.042 19.5352L134.107 18.5585H146.423L145.489 19.5352C144.894 18.3178 144.342 17.0721 143.832 15.798C143.096 14.0144 142.615 12.3581 142.389 10.8293C142.162 9.27215 142.077 7.50265 142.134 5.52082H138.566Z" fill="white"/>
<path d="M114.678 30.7892C111.762 30.7892 109.143 30.1522 106.822 28.8781C104.528 27.5758 102.731 25.7638 101.428 23.4423C100.126 21.0924 99.4747 18.4027 99.4747 15.3734C99.4747 12.344 100.126 9.66852 101.428 7.34694C102.759 5.02536 104.599 3.22756 106.949 1.95352C109.327 0.651174 112.017 0 115.018 0C117.368 0 119.449 0.382211 121.261 1.14663C123.073 1.91105 124.743 3.00106 126.272 4.41666L122.959 8.79085C121.912 7.77162 120.779 6.99304 119.562 6.45512C118.345 5.88888 116.972 5.60576 115.443 5.60576C113.631 5.60576 112.003 6.03044 110.559 6.87979C109.143 7.70084 108.039 8.86163 107.246 10.3622C106.454 11.8627 106.057 13.5756 106.057 15.5008C106.057 17.426 106.454 19.1105 107.246 20.5544C108.067 21.9984 109.186 23.1167 110.601 23.9094C112.045 24.6738 113.673 25.056 115.485 25.056C117.042 25.056 118.43 24.7446 119.647 24.1217C120.893 23.4989 122.039 22.6212 123.087 21.4887L126.484 25.9903C124.899 27.5475 123.172 28.7366 121.303 29.5576C119.463 30.3787 117.255 30.7892 114.678 30.7892Z" fill="white"/>
<path d="M85.0609 30.1947L81.8758 22.0833L83.8718 23.4847H68.1162L70.1122 22.0833L66.8847 30.1947H59.9199L72.5329 0.594548H79.4127L92.0681 30.1947H85.0609ZM74.2741 5.52082C74.3024 6.62498 74.2882 7.65837 74.2316 8.62097C74.175 9.55527 74.0476 10.4896 73.8494 11.4239C73.6795 12.3298 73.4389 13.2641 73.1274 14.2267C72.7594 15.2743 71.9666 17.0438 70.7492 19.5352L69.8149 18.5585H82.1306L81.1963 19.5352C80.6018 18.3178 80.0497 17.0721 79.5401 15.798C78.804 14.0144 78.3227 12.3581 78.0962 10.8293C77.8697 9.27215 77.7847 7.50265 77.8414 5.52082H74.2741Z" fill="white"/>
<path d="M32.4601 0.594548H38.3632L54.9681 21.0641L58.0682 18.9407C57.0207 17.7799 56.1572 16.7182 55.4777 15.7556C54.7982 14.793 54.2461 13.7596 53.8215 12.6554C53.3968 11.5229 53.1844 10.348 53.1844 9.13059V0.594548H59.767V30.1947H54.3311L37.5563 9.59774L34.3712 11.6787C35.5603 12.8111 36.4946 13.9295 37.1741 15.0336C38.3915 16.9871 39.0002 19.1247 39.0002 21.4463V30.1947H32.4601V0.594548Z" fill="white"/>
<path d="M25.2924 30.1947L22.1073 22.0833L24.1032 23.4847H8.34766L10.3437 22.0833L7.1161 30.1947H0.151367L12.7643 0.594548H19.6441L32.2995 30.1947H25.2924ZM14.5055 5.52082C14.5338 6.62498 14.5197 7.65837 14.463 8.62097C14.4064 9.55527 14.279 10.4896 14.0808 11.4239C13.911 12.3298 13.6703 13.2641 13.3589 14.2267C12.9908 15.2743 12.1981 17.0438 10.9807 19.5352L10.0464 18.5585H22.3621L21.4278 19.5352C20.8332 18.3178 20.2811 17.0721 19.7715 15.798C19.0354 14.0144 18.5541 12.3581 18.3276 10.8293C18.1011 9.27215 18.0162 7.50265 18.0728 5.52082H14.5055Z" fill="white"/>
</svg>
