<svg width="711" height="31" viewBox="0 0 711 31" fill="none" xmlns="http://www.w3.org/2000/svg">
<path d="M683.484 0.594543H689.387L705.992 21.064L709.092 18.9407C708.044 17.7799 707.181 16.7182 706.501 15.7556C705.822 14.793 705.27 13.7596 704.845 12.6554C704.42 11.5229 704.208 10.348 704.208 9.1306V0.594543H710.79V30.1947H705.355L688.58 9.59773L685.395 11.6787C686.584 12.8111 687.518 13.9295 688.198 15.0336C689.415 16.9871 690.024 19.1247 690.024 21.4463V30.1947H683.484V0.594543Z" fill="white"/>
<path d="M656.357 0.594543H670.117C673.882 0.594543 676.699 1.25987 678.568 2.59053C680.437 3.89288 681.371 5.86054 681.371 8.49355C681.371 10.1073 680.946 11.4522 680.097 12.528C679.248 13.6039 678.101 14.4249 676.657 14.9912C675.213 15.5574 673.585 15.8971 671.773 16.0104V19.4078C673.076 19.4644 674.194 19.7475 675.128 20.2572C676.091 20.7385 676.983 21.5312 677.804 22.6354L677.931 22.8053L683.367 30.1947H675.68L671.009 23.5272C670.895 23.3573 670.782 23.1874 670.669 23.0176C669.848 21.8568 669.183 21.0357 668.673 20.5544C668.192 20.0731 667.654 19.7476 667.059 19.5777C666.465 19.3795 665.601 19.2804 664.469 19.2804H661.284L662.897 17.7091V30.1947H656.357V0.594543ZM661.284 15.1185H668.928C670.23 15.1185 671.306 14.9487 672.155 14.6089C673.033 14.2409 673.684 13.703 674.109 12.9952C674.562 12.2874 674.788 11.3955 674.788 10.3197C674.788 8.76253 674.307 7.60175 673.344 6.83733C672.382 6.0729 670.91 5.69069 668.928 5.69069H661.284L662.897 4.03444V16.6474L661.284 15.1185Z" fill="white"/>
<path d="M631.47 0.594543H654.87V5.94548H636.397L638.01 4.41667V14.2267L636.397 12.7403H653.554V17.794H636.397L638.01 16.3926V26.4575L636.397 24.8437H655.38V30.1947H631.47V0.594543Z" fill="white"/>
<path d="M602.893 0.594543H614.147C617.487 0.594543 620.389 1.2457 622.853 2.54805C625.316 3.82209 627.198 5.57743 628.501 7.81407C629.803 10.0507 630.454 12.5846 630.454 15.4158C630.454 18.1338 629.803 20.6252 628.501 22.8902C627.198 25.1268 625.316 26.9105 622.853 28.2411C620.389 29.5435 617.487 30.1947 614.147 30.1947H602.893V0.594543ZM607.819 24.8437H613.722C615.789 24.8437 617.572 24.4474 619.073 23.6546C620.602 22.8619 621.763 21.7577 622.555 20.3421C623.376 18.8982 623.787 17.2561 623.787 15.4158C623.787 13.5755 623.376 11.9476 622.555 10.532C621.763 9.08812 620.602 7.96981 619.073 7.17708C617.572 6.35603 615.789 5.94548 613.722 5.94548H607.819L609.433 4.37419V26.4575L607.819 24.8437Z" fill="white"/>
<path d="M586.192 30.7467C583.22 30.7467 580.558 30.0956 578.208 28.7932C575.859 27.4626 574.018 25.6364 572.688 23.3149C571.357 20.965 570.692 18.332 570.692 15.4158C570.692 12.4997 571.357 9.88086 572.688 7.55928C574.018 5.2377 575.859 3.42575 578.208 2.1234C580.558 0.792738 583.22 0.127411 586.192 0.127411C589.137 0.127411 591.784 0.792738 594.134 2.1234C596.512 3.42575 598.366 5.2377 599.697 7.55928C601.028 9.88086 601.693 12.4997 601.693 15.4158C601.693 18.332 601.028 20.965 599.697 23.3149C598.366 25.6364 596.512 27.4626 594.134 28.7932C591.784 30.0956 589.137 30.7467 586.192 30.7467ZM586.192 25.3533C587.976 25.3533 589.533 24.9287 590.864 24.0793C592.194 23.2299 593.214 22.055 593.922 20.5545C594.629 19.0539 594.983 17.3411 594.983 15.4158C594.983 13.4906 594.629 11.7778 593.922 10.2772C593.214 8.77671 592.194 7.60175 590.864 6.7524C589.533 5.90304 587.976 5.47838 586.192 5.47838C584.409 5.47838 582.852 5.90304 581.521 6.7524C580.19 7.60175 579.157 8.77671 578.421 10.2772C577.713 11.7778 577.359 13.4906 577.359 15.4158C577.359 17.3411 577.713 19.0539 578.421 20.5545C579.157 22.055 580.19 23.2299 581.521 24.0793C582.852 24.9287 584.409 25.3533 586.192 25.3533Z" fill="white"/>
<path d="M538.023 0.594543H547.196C547.989 2.49144 548.697 4.24677 549.319 5.86055C549.942 7.44602 550.424 8.87576 550.763 10.1498C551.188 11.5937 551.499 12.9527 551.698 14.2267C551.896 15.4725 551.995 16.7465 551.995 18.0488H555.435C555.435 16.6049 555.562 15.161 555.817 13.7171C556.072 12.2449 556.468 10.6877 557.006 9.04564C557.544 7.40355 558.294 5.39341 559.257 3.01521C559.398 2.61885 559.724 1.81196 560.234 0.594543H569.449V30.1947H562.909C562.909 27.59 562.952 24.9994 563.037 22.423C563.15 20.0165 563.334 18.063 563.589 16.5625C563.872 15.0336 564.24 13.6605 564.693 12.4431C565.146 11.2257 565.783 9.79592 566.604 8.15382L563.206 6.92226L556.199 24.9286H551.188L544.223 6.92226L540.868 8.28123C541.689 9.92333 542.326 11.3389 542.779 12.528C543.232 13.7171 543.586 15.0478 543.841 16.52C544.124 17.9639 544.322 19.8467 544.436 22.1682C544.521 24.8295 544.563 27.505 544.563 30.1947H538.023V0.594543Z" fill="white"/>
<path d="M503.014 0.594543H516.773C520.539 0.594543 523.356 1.25987 525.224 2.59053C527.093 3.89288 528.027 5.86054 528.027 8.49355C528.027 10.1073 527.602 11.4522 526.753 12.528C525.904 13.6039 524.757 14.4249 523.313 14.9912C521.869 15.5574 520.241 15.8971 518.429 16.0104V19.4078C519.732 19.4644 520.85 19.7475 521.784 20.2572C522.747 20.7385 523.639 21.5312 524.46 22.6354L524.587 22.8053L530.023 30.1947H522.336L517.665 23.5272C517.552 23.3573 517.438 23.1874 517.325 23.0176C516.504 21.8568 515.839 21.0357 515.329 20.5544C514.848 20.0731 514.31 19.7476 513.715 19.5777C513.121 19.3795 512.257 19.2804 511.125 19.2804H507.94L509.554 17.7091V30.1947H503.014V0.594543ZM507.94 15.1185H515.584C516.886 15.1185 517.962 14.9487 518.812 14.6089C519.689 14.2409 520.34 13.703 520.765 12.9952C521.218 12.2874 521.445 11.3955 521.445 10.3197C521.445 8.76253 520.963 7.60175 520.001 6.83733C519.038 6.0729 517.566 5.69069 515.584 5.69069H507.94L509.554 4.03444V16.6474L507.94 15.1185Z" fill="white"/>
<path d="M478.127 0.594543H501.526V5.94548H483.053L484.667 4.41667V14.2267L483.053 12.7403H500.21V17.794H483.053L484.667 16.3926V26.4575L483.053 24.8437H502.036V30.1947H478.127V0.594543Z" fill="white"/>
<path d="M469.699 0.594543H476.282V30.1947H469.699V0.594543ZM450.461 0.594543H457.001V30.1947H450.461V0.594543ZM456.449 12.528H470.294V17.879H456.449V12.528Z" fill="white"/>
<path d="M433.893 4.33171L435.379 5.94548H424.083V0.594543H450.286V5.94548H438.989L440.476 4.33171V30.1947H433.893V4.33171Z" fill="white"/>
<path d="M396.623 0.594543H402.526L419.131 21.064L422.231 18.9407C421.184 17.7799 420.32 16.7182 419.641 15.7556C418.961 14.793 418.409 13.7596 417.985 12.6554C417.56 11.5229 417.348 10.348 417.348 9.1306V0.594543H423.93V30.1947H418.494L401.719 9.59773L398.534 11.6787C399.723 12.8111 400.658 13.9295 401.337 15.0336C402.555 16.9871 403.163 19.1247 403.163 21.4463V30.1947H396.623V0.594543Z" fill="white"/>
<path d="M389.456 30.1947L386.27 22.0833L388.266 23.4847H372.511L374.507 22.0833L371.279 30.1947H364.315L376.927 0.594543H383.807L396.463 30.1947H389.456ZM378.669 5.52083C378.697 6.62499 378.683 7.65838 378.626 8.62099C378.57 9.55528 378.442 10.4896 378.244 11.4238C378.074 12.3298 377.833 13.2641 377.522 14.2267C377.154 15.2743 376.361 17.0438 375.144 19.5352L374.21 18.5585H386.525L385.591 19.5352C384.996 18.3178 384.444 17.0721 383.935 15.798C383.199 14.0144 382.717 12.3581 382.491 10.8293C382.264 9.27214 382.179 7.50266 382.236 5.52083H378.669Z" fill="white"/>
<path d="M343.822 0.594543H357.072C359.592 0.594543 361.744 0.990912 363.527 1.78365C365.339 2.54807 366.712 3.68055 367.647 5.18108C368.609 6.68161 369.09 8.47943 369.09 10.5745C369.09 13.7738 368.029 16.2935 365.905 18.1338C363.782 19.974 360.838 20.8942 357.072 20.8942H348.748L350.362 19.4078V30.1947H343.822V0.594543ZM348.748 15.798H356.265C358.304 15.798 359.861 15.3734 360.937 14.524C362.013 13.6463 362.55 12.3865 362.55 10.7444C362.55 9.18722 362.013 7.99812 360.937 7.17708C359.861 6.35603 358.289 5.94548 356.223 5.94548H348.748L350.362 4.45912V17.242L348.748 15.798Z" fill="white"/>
<path d="M286.867 0.594543H296.04C296.833 2.49144 297.541 4.24677 298.164 5.86055C298.786 7.44602 299.268 8.87576 299.607 10.1498C300.032 11.5937 300.344 12.9527 300.542 14.2267C300.74 15.4725 300.839 16.7465 300.839 18.0488H304.279C304.279 16.6049 304.406 15.161 304.661 13.7171C304.916 12.2449 305.312 10.6877 305.85 9.04564C306.388 7.40355 307.138 5.39341 308.101 3.01521C308.243 2.61885 308.568 1.81196 309.078 0.594543H318.293V30.1947H311.753C311.753 27.59 311.796 24.9994 311.881 22.423C311.994 20.0165 312.178 18.063 312.433 16.5625C312.716 15.0336 313.084 13.6605 313.537 12.4431C313.99 11.2257 314.627 9.79592 315.448 8.15382L312.05 6.92226L305.043 24.9286H300.032L293.067 6.92226L289.712 8.28123C290.533 9.92333 291.17 11.3389 291.623 12.528C292.076 13.7171 292.43 15.0478 292.685 16.52C292.968 17.9639 293.166 19.8467 293.28 22.1682C293.365 24.8295 293.407 27.505 293.407 30.1947H286.867V0.594543Z" fill="white"/>
<path d="M278.44 0.594543H285.022V30.1947H278.44V0.594543ZM259.202 0.594543H265.742V30.1947H259.202V0.594543ZM265.19 12.528H279.034V17.879H265.19V12.528Z" fill="white"/>
<path d="M242.633 4.33171L244.12 5.94548H232.823V0.594543H259.026V5.94548H247.73L249.216 4.33171V30.1947H242.633V4.33171Z" fill="white"/>
<path d="M216.657 19.0256L205.573 0.594543H212.792C214.236 2.94443 215.326 4.94041 216.062 6.5825C216.827 8.19628 217.35 9.75345 217.633 11.254C217.945 12.7262 218.101 14.4532 218.101 16.4351H221.838C221.838 14.4532 221.979 12.712 222.262 11.2115C222.574 9.71097 223.098 8.1538 223.834 6.54002C224.57 4.92625 225.66 2.94443 227.104 0.594543H234.366L223.239 19.0256V30.1947H216.657V19.0256Z" fill="white"/>
<path d="M198.844 0.594543H205.426V30.1947H198.844V0.594543ZM179.606 0.594543H186.146V30.1947H179.606V0.594543ZM185.594 12.528H199.438V17.879H185.594V12.528Z" fill="white"/>
<path d="M152.48 0.594543H166.239C170.005 0.594543 172.822 1.25987 174.69 2.59053C176.559 3.89288 177.493 5.86054 177.493 8.49355C177.493 10.1073 177.068 11.4522 176.219 12.528C175.37 13.6039 174.223 14.4249 172.779 14.9912C171.335 15.5574 169.707 15.8971 167.895 16.0104V19.4078C169.198 19.4644 170.316 19.7475 171.25 20.2572C172.213 20.7385 173.105 21.5312 173.926 22.6354L174.053 22.8053L179.489 30.1947H171.802L167.131 23.5272C167.018 23.3573 166.904 23.1874 166.791 23.0176C165.97 21.8568 165.305 21.0357 164.795 20.5544C164.314 20.0731 163.776 19.7476 163.181 19.5777C162.587 19.3795 161.723 19.2804 160.591 19.2804H157.406L159.02 17.7091V30.1947H152.48V0.594543ZM157.406 15.1185H165.05C166.352 15.1185 167.428 14.9487 168.278 14.6089C169.155 14.2409 169.806 13.703 170.231 12.9952C170.684 12.2874 170.911 11.3955 170.911 10.3197C170.911 8.76253 170.429 7.60175 169.467 6.83733C168.504 6.0729 167.032 5.69069 165.05 5.69069H157.406L159.02 4.03444V16.6474L157.406 15.1185Z" fill="white"/>
<path d="M132.368 30.7892C129.452 30.7892 126.833 30.1522 124.512 28.8781C122.219 27.5758 120.421 25.7638 119.118 23.4422C117.816 21.0924 117.165 18.4027 117.165 15.3734C117.165 12.344 117.816 9.66852 119.118 7.34694C120.449 5.02536 122.289 3.22754 124.639 1.95351C127.017 0.651158 129.707 0 132.708 0C135.058 0 137.139 0.3822 138.951 1.14662C140.763 1.91104 142.433 3.00108 143.962 4.41667L140.65 8.79085C139.602 7.77162 138.47 6.99302 137.252 6.45509C136.035 5.88885 134.662 5.60576 133.133 5.60576C131.321 5.60576 129.693 6.03045 128.249 6.87981C126.833 7.70085 125.729 8.86164 124.936 10.3622C124.144 11.8627 123.747 13.5755 123.747 15.5007C123.747 17.426 124.144 19.1105 124.936 20.5544C125.758 21.9983 126.876 23.1167 128.291 23.9094C129.735 24.6738 131.363 25.056 133.175 25.056C134.732 25.056 136.12 24.7446 137.337 24.1217C138.583 23.4989 139.729 22.6212 140.777 21.4887L144.174 25.9903C142.589 27.5475 140.862 28.7366 138.993 29.5576C137.153 30.3787 134.945 30.7892 132.368 30.7892Z" fill="white"/>
<path d="M109.38 0.594543H115.92V30.1947H109.38V0.594543Z" fill="white"/>
<path d="M86.0273 0.594543H108.833V5.94548H90.9536L92.5673 4.41667V14.2267L90.9536 12.7828H107.304V18.1338H90.9536L92.5673 16.3926V30.1947H86.0273V0.594543Z" fill="white"/>
<path d="M77.605 0.594543H84.1451V30.1947H77.605V0.594543Z" fill="white"/>
<path d="M65.377 30.7892C62.4608 30.7892 59.842 30.1522 57.5204 28.8781C55.2271 27.5758 53.4293 25.7638 52.127 23.4422C50.8246 21.0924 50.1735 18.4027 50.1735 15.3734C50.1735 12.344 50.8246 9.66852 52.127 7.34694C53.4576 5.02536 55.2979 3.22754 57.6478 1.95351C60.026 0.651158 62.7156 0 65.7167 0C68.0666 0 70.1475 0.3822 71.9595 1.14662C73.7714 1.91104 75.4418 3.00108 76.9707 4.41667L73.6582 8.79085C72.6106 7.77162 71.4782 6.99302 70.2608 6.45509C69.0433 5.88885 67.6702 5.60576 66.1414 5.60576C64.3294 5.60576 62.7015 6.03045 61.2576 6.87981C59.842 7.70085 58.7378 8.86164 57.9451 10.3622C57.1524 11.8627 56.756 13.5755 56.756 15.5007C56.756 17.426 57.1524 19.1105 57.9451 20.5544C58.7661 21.9983 59.8844 23.1167 61.3 23.9094C62.7439 24.6738 64.3719 25.056 66.1838 25.056C67.741 25.056 69.1283 24.7446 70.3457 24.1217C71.5914 23.4989 72.7381 22.6212 73.7856 21.4887L77.183 25.9903C75.5976 27.5475 73.8705 28.7366 72.0019 29.5576C70.1617 30.3787 67.9534 30.7892 65.377 30.7892Z" fill="white"/>
<path d="M45.6334 30.1947L42.4483 22.0833L44.4443 23.4847H28.6887L30.6847 22.0833L27.4571 30.1947H20.4924L33.1054 0.594543H39.9852L52.6406 30.1947H45.6334ZM34.8465 5.52083C34.8749 6.62499 34.8607 7.65838 34.8041 8.62099C34.7475 9.55528 34.62 10.4896 34.4219 11.4238C34.252 12.3298 34.0113 13.2641 33.6999 14.2267C33.3319 15.2743 32.5391 17.0438 31.3217 19.5352L30.3874 18.5585H42.7031L41.7688 19.5352C41.1742 18.3178 40.6222 17.0721 40.1125 15.798C39.3764 14.0144 38.8952 12.3581 38.6687 10.8293C38.4422 9.27214 38.3572 7.50266 38.4138 5.52083H34.8465Z" fill="white"/>
<path d="M0 0.594543H13.25C15.7697 0.594543 17.9214 0.990912 19.7051 1.78365C21.517 2.54807 22.8902 3.68055 23.8245 5.18108C24.7871 6.68161 25.2684 8.47943 25.2684 10.5745C25.2684 13.7738 24.2067 16.2935 22.0833 18.1338C19.9599 19.974 17.0155 20.8942 13.25 20.8942H4.92627L6.54005 19.4078V30.1947H0V0.594543ZM4.92627 15.798H12.4431C14.4815 15.798 16.0387 15.3734 17.1146 14.524C18.1904 13.6463 18.7283 12.3865 18.7283 10.7444C18.7283 9.18722 18.1904 7.99812 17.1146 7.17708C16.0387 6.35603 14.4674 5.94548 12.4006 5.94548H4.92627L6.54005 4.45912V17.242L4.92627 15.798Z" fill="white"/>
</svg>
