<svg width="604" height="32" viewBox="0 0 604 32" fill="none" xmlns="http://www.w3.org/2000/svg">
<path d="M590.338 31.3249C587.875 31.3249 585.709 31.0135 583.841 30.3906C582.001 29.7677 580.571 28.8759 579.552 27.7151C578.532 26.526 578.023 25.167 578.023 23.6382C578.023 22.2509 578.433 21.0901 579.254 20.1559C580.075 19.2216 581.18 18.5137 582.567 18.0324C583.982 17.5228 585.554 17.2539 587.281 17.2256V13.7857C585.327 13.7008 583.614 13.4601 582.142 13.0637C580.67 12.639 579.495 11.9878 578.617 11.1101C577.74 10.2325 577.301 9.08588 577.301 7.67029C577.301 6.22638 577.768 4.98068 578.702 3.93314C579.637 2.85728 580.981 2.03621 582.737 1.46997C584.492 0.903733 586.531 0.620605 588.852 0.620605C591.655 0.620605 594.203 1.00282 596.496 1.76724C598.79 2.53166 600.998 3.63587 603.121 5.07977L600.191 9.8786C598.775 8.71781 597.048 7.78354 595.01 7.07574C593 6.36795 591.018 5.99993 589.064 5.97162C587.451 5.97162 586.219 6.25465 585.37 6.82089C584.52 7.35882 584.096 8.06667 584.096 8.94434C584.096 9.5672 584.308 10.1051 584.733 10.5581C585.157 10.9828 585.752 11.3508 586.516 11.6623C587.309 11.9454 588.314 12.2002 589.532 12.4267L593.056 13.2336C596.057 13.8564 598.407 14.8898 600.106 16.3337C601.833 17.7776 602.697 19.717 602.697 22.1518C602.697 23.7656 602.201 25.2803 601.21 26.6959C600.219 28.0832 598.79 29.2015 596.921 30.0509C595.052 30.9002 592.858 31.3249 590.338 31.3249ZM590.508 26.611C591.641 26.611 592.618 26.4127 593.439 26.0164C594.288 25.62 594.925 25.0963 595.35 24.4451C595.803 23.7939 596.029 23.072 596.029 22.2792C596.029 21.4016 595.788 20.6372 595.307 19.986C594.854 19.3065 594.189 18.7827 593.311 18.4147C592.462 18.0183 591.485 17.8201 590.381 17.8201C589.333 17.8201 588.385 18.0042 587.536 18.3722C586.686 18.7403 586.021 19.264 585.54 19.9435C585.058 20.5947 584.818 21.3591 584.818 22.2368C584.818 23.0578 585.058 23.8081 585.54 24.4875C586.021 25.1387 586.686 25.6625 587.536 26.0589C588.413 26.427 589.404 26.611 590.508 26.611Z" fill="white"/>
<path d="M553.795 1.1727H577.194V6.52362H558.721L560.335 4.99481V14.8048L558.721 13.3185H575.878V18.3722H558.721L560.335 16.9707V27.0356L558.721 25.4218H577.704V30.7728H553.795V1.1727Z" fill="white"/>
<path d="M531.189 1.1727H537.729V27.0356L536.115 25.4218H553.654V30.7728H531.189V1.1727Z" fill="white"/>
<path d="M522.766 1.1727H529.306V30.7728H522.766V1.1727Z" fill="white"/>
<path d="M506.198 4.90985L507.685 6.52362H496.388V1.1727H522.591V6.52362H511.294L512.781 4.90985V30.7728H506.198V4.90985Z" fill="white"/>
<path d="M485.065 31.3249C482.601 31.3249 480.436 31.0135 478.567 30.3906C476.727 29.7677 475.297 28.8759 474.278 27.7151C473.259 26.526 472.749 25.167 472.749 23.6382C472.749 22.2509 473.159 21.0901 473.98 20.1559C474.802 19.2216 475.906 18.5137 477.293 18.0324C478.709 17.5228 480.28 17.2539 482.007 17.2256V13.7857C480.053 13.7008 478.341 13.4601 476.868 13.0637C475.396 12.639 474.221 11.9878 473.343 11.1101C472.466 10.2325 472.027 9.08588 472.027 7.67029C472.027 6.22638 472.494 4.98068 473.428 3.93314C474.363 2.85728 475.707 2.03621 477.463 1.46997C479.218 0.903733 481.257 0.620605 483.578 0.620605C486.381 0.620605 488.929 1.00282 491.222 1.76724C493.516 2.53166 495.724 3.63587 497.847 5.07977L494.917 9.8786C493.502 8.71781 491.774 7.78354 489.736 7.07574C487.726 6.36795 485.744 5.99993 483.791 5.97162C482.177 5.97162 480.945 6.25465 480.096 6.82089C479.246 7.35882 478.822 8.06667 478.822 8.94434C478.822 9.5672 479.034 10.1051 479.459 10.5581C479.884 10.9828 480.478 11.3508 481.242 11.6623C482.035 11.9454 483.04 12.2002 484.258 12.4267L487.783 13.2336C490.784 13.8564 493.133 14.8898 494.832 16.3337C496.559 17.7776 497.423 19.717 497.423 22.1518C497.423 23.7656 496.927 25.2803 495.936 26.6959C494.945 28.0832 493.516 29.2015 491.647 30.0509C489.779 30.9002 487.584 31.3249 485.065 31.3249ZM485.234 26.611C486.367 26.611 487.344 26.4127 488.165 26.0164C489.014 25.62 489.651 25.0963 490.076 24.4451C490.529 23.7939 490.755 23.072 490.755 22.2792C490.755 21.4016 490.515 20.6372 490.033 19.986C489.58 19.3065 488.915 18.7827 488.037 18.4147C487.188 18.0183 486.211 17.8201 485.107 17.8201C484.06 17.8201 483.111 18.0042 482.262 18.3722C481.412 18.7403 480.747 19.264 480.266 19.9435C479.784 20.5947 479.544 21.3591 479.544 22.2368C479.544 23.0578 479.784 23.8081 480.266 24.4875C480.747 25.1387 481.412 25.6625 482.262 26.0589C483.139 26.427 484.13 26.611 485.234 26.611Z" fill="white"/>
<path d="M457.486 30.7728L454.301 22.6615L456.297 24.0629H440.541L442.537 22.6615L439.309 30.7728H432.345L444.958 1.1727H451.837L464.493 30.7728H457.486ZM446.699 6.09894C446.727 7.2031 446.713 8.23649 446.656 9.1991C446.6 10.1334 446.472 11.0677 446.274 12.002C446.104 12.908 445.864 13.8422 445.552 14.8048C445.184 15.8524 444.391 17.6219 443.174 20.1133L442.24 19.1366H454.555L453.621 20.1133C453.027 18.8959 452.475 17.6502 451.965 16.3762C451.229 14.5925 450.747 12.9363 450.521 11.4074C450.295 9.85028 450.21 8.08077 450.266 6.09894H446.699Z" fill="white"/>
<path d="M425.616 1.1727H432.198V30.7728H425.616V1.1727ZM406.378 1.1727H412.918V30.7728H406.378V1.1727ZM412.366 13.1062H426.21V18.4571H412.366V13.1062Z" fill="white"/>
<path d="M392.941 31.3249C390.478 31.3249 388.312 31.0135 386.443 30.3906C384.603 29.7677 383.173 28.8759 382.154 27.7151C381.135 26.526 380.625 25.167 380.625 23.6382C380.625 22.2509 381.036 21.0901 381.857 20.1559C382.678 19.2216 383.782 18.5137 385.169 18.0324C386.585 17.5228 388.156 17.2539 389.883 17.2256V13.7857C387.93 13.7008 386.217 13.4601 384.745 13.0637C383.272 12.639 382.097 11.9878 381.22 11.1101C380.342 10.2325 379.903 9.08588 379.903 7.67029C379.903 6.22638 380.37 4.98068 381.305 3.93314C382.239 2.85728 383.584 2.03621 385.339 1.46997C387.094 0.903733 389.133 0.620605 391.454 0.620605C394.257 0.620605 396.805 1.00282 399.099 1.76724C401.392 2.53166 403.6 3.63587 405.724 5.07977L402.793 9.8786C401.378 8.71781 399.651 7.78354 397.612 7.07574C395.602 6.36795 393.62 5.99993 391.667 5.97162C390.053 5.97162 388.821 6.25465 387.972 6.82089C387.123 7.35882 386.698 8.06667 386.698 8.94434C386.698 9.5672 386.91 10.1051 387.335 10.5581C387.76 10.9828 388.354 11.3508 389.119 11.6623C389.912 11.9454 390.917 12.2002 392.134 12.4267L395.659 13.2336C398.66 13.8564 401.01 14.8898 402.708 16.3337C404.435 17.7776 405.299 19.717 405.299 22.1518C405.299 23.7656 404.804 25.2803 403.813 26.6959C402.822 28.0832 401.392 29.2015 399.523 30.0509C397.655 30.9002 395.461 31.3249 392.941 31.3249ZM393.111 26.611C394.243 26.611 395.22 26.4127 396.041 26.0164C396.89 25.62 397.527 25.0963 397.952 24.4451C398.405 23.7939 398.632 23.072 398.632 22.2792C398.632 21.4016 398.391 20.6372 397.91 19.986C397.457 19.3065 396.791 18.7827 395.914 18.4147C395.064 18.0183 394.088 17.8201 392.983 17.8201C391.936 17.8201 390.987 18.0042 390.138 18.3722C389.289 18.7403 388.623 19.264 388.142 19.9435C387.661 20.5947 387.42 21.3591 387.42 22.2368C387.42 23.0578 387.661 23.8081 388.142 24.4875C388.623 25.1387 389.289 25.6625 390.138 26.0589C391.016 26.427 392.007 26.611 393.111 26.611Z" fill="white"/>
<path d="M375.692 30.7728L372.507 22.6615L374.503 24.0629H358.747L360.743 22.6615L357.516 30.7728H350.551L363.164 1.1727H370.044L382.699 30.7728H375.692ZM364.905 6.09894C364.933 7.2031 364.919 8.23649 364.863 9.1991C364.806 10.1334 364.679 11.0677 364.48 12.002C364.311 12.908 364.07 13.8422 363.758 14.8048C363.39 15.8524 362.598 17.6219 361.38 20.1133L360.446 19.1366H372.762L371.827 20.1133C371.233 18.8959 370.681 17.6502 370.171 16.3762C369.435 14.5925 368.954 12.9363 368.727 11.4074C368.501 9.85028 368.416 8.08077 368.472 6.09894H364.905Z" fill="white"/>
<path d="M340.513 31.3249C338.05 31.3249 335.884 31.0135 334.015 30.3906C332.175 29.7677 330.745 28.8759 329.726 27.7151C328.707 26.526 328.197 25.167 328.197 23.6382C328.197 22.2509 328.608 21.0901 329.429 20.1559C330.25 19.2216 331.354 18.5137 332.741 18.0324C334.157 17.5228 335.728 17.2539 337.455 17.2256V13.7857C335.502 13.7008 333.789 13.4601 332.317 13.0637C330.844 12.639 329.67 11.9878 328.792 11.1101C327.914 10.2325 327.475 9.08588 327.475 7.67029C327.475 6.22638 327.942 4.98068 328.877 3.93314C329.811 2.85728 331.156 2.03621 332.911 1.46997C334.667 0.903733 336.705 0.620605 339.027 0.620605C341.829 0.620605 344.378 1.00282 346.671 1.76724C348.964 2.53166 351.172 3.63587 353.296 5.07977L350.366 9.8786C348.95 8.71781 347.223 7.78354 345.184 7.07574C343.174 6.36795 341.192 5.99993 339.239 5.97162C337.625 5.97162 336.394 6.25465 335.544 6.82089C334.695 7.35882 334.27 8.06667 334.27 8.94434C334.27 9.5672 334.483 10.1051 334.907 10.5581C335.332 10.9828 335.926 11.3508 336.691 11.6623C337.484 11.9454 338.489 12.2002 339.706 12.4267L343.231 13.2336C346.232 13.8564 348.582 14.8898 350.281 16.3337C352.008 17.7776 352.871 19.717 352.871 22.1518C352.871 23.7656 352.376 25.2803 351.385 26.6959C350.394 28.0832 348.964 29.2015 347.095 30.0509C345.227 30.9002 343.033 31.3249 340.513 31.3249ZM340.683 26.611C341.815 26.611 342.792 26.4127 343.613 26.0164C344.462 25.62 345.1 25.0963 345.524 24.4451C345.977 23.7939 346.204 23.072 346.204 22.2792C346.204 21.4016 345.963 20.6372 345.482 19.986C345.029 19.3065 344.363 18.7827 343.486 18.4147C342.636 18.0183 341.66 17.8201 340.555 17.8201C339.508 17.8201 338.559 18.0042 337.71 18.3722C336.861 18.7403 336.195 19.264 335.714 19.9435C335.233 20.5947 334.992 21.3591 334.992 22.2368C334.992 23.0578 335.233 23.8081 335.714 24.4875C336.195 25.1387 336.861 25.6625 337.71 26.0589C338.588 26.427 339.579 26.611 340.683 26.611Z" fill="white"/>
<path d="M295.913 1.1727H302.453V30.7728H295.913V1.1727Z" fill="white"/>
<path d="M265.969 1.1727H272.806C273.344 2.58829 273.853 3.91895 274.335 5.16467C275.694 9.10003 276.699 12.1011 277.35 14.1678C278.001 16.2063 278.454 18.0324 278.709 19.6462C278.964 21.26 279.091 23.2276 279.091 25.5492H282.616C282.616 23.2843 282.743 21.3591 282.998 19.7736C283.253 18.1598 283.692 16.3621 284.315 14.3802C284.966 12.3701 285.914 9.48225 287.16 5.71677C287.755 4.21624 288.349 2.70154 288.944 1.1727H295.781L284.739 30.7728H277.01L265.969 1.1727Z" fill="white"/>
<path d="M255.06 31.3249C252.597 31.3249 250.431 31.0135 248.562 30.3906C246.722 29.7677 245.292 28.8759 244.273 27.7151C243.254 26.526 242.744 25.167 242.744 23.6382C242.744 22.2509 243.155 21.0901 243.976 20.1559C244.797 19.2216 245.901 18.5137 247.288 18.0324C248.704 17.5228 250.275 17.2539 252.002 17.2256V13.7857C250.048 13.7008 248.336 13.4601 246.863 13.0637C245.391 12.639 244.216 11.9878 243.339 11.1101C242.461 10.2325 242.022 9.08588 242.022 7.67029C242.022 6.22638 242.489 4.98068 243.424 3.93314C244.358 2.85728 245.703 2.03621 247.458 1.46997C249.213 0.903733 251.252 0.620605 253.573 0.620605C256.376 0.620605 258.924 1.00282 261.217 1.76724C263.511 2.53166 265.719 3.63587 267.842 5.07977L264.912 9.8786C263.497 8.71781 261.77 7.78354 259.731 7.07574C257.721 6.36795 255.739 5.99993 253.786 5.97162C252.172 5.97162 250.94 6.25465 250.091 6.82089C249.242 7.35882 248.817 8.06667 248.817 8.94434C248.817 9.5672 249.029 10.1051 249.454 10.5581C249.879 10.9828 250.473 11.3508 251.238 11.6623C252.03 11.9454 253.035 12.2002 254.253 12.4267L257.778 13.2336C260.779 13.8564 263.129 14.8898 264.827 16.3337C266.554 17.7776 267.418 19.717 267.418 22.1518C267.418 23.7656 266.922 25.2803 265.931 26.6959C264.941 28.0832 263.511 29.2015 261.642 30.0509C259.774 30.9002 257.579 31.3249 255.06 31.3249ZM255.23 26.611C256.362 26.611 257.339 26.4127 258.16 26.0164C259.009 25.62 259.646 25.0963 260.071 24.4451C260.524 23.7939 260.75 23.072 260.75 22.2792C260.75 21.4016 260.51 20.6372 260.028 19.986C259.575 19.3065 258.91 18.7827 258.032 18.4147C257.183 18.0183 256.206 17.8201 255.102 17.8201C254.055 17.8201 253.106 18.0042 252.257 18.3722C251.407 18.7403 250.742 19.264 250.261 19.9435C249.78 20.5947 249.539 21.3591 249.539 22.2368C249.539 23.0578 249.78 23.8081 250.261 24.4875C250.742 25.1387 251.407 25.6625 252.257 26.0589C253.134 26.427 254.125 26.611 255.23 26.611Z" fill="white"/>
<path d="M226.744 31.3249C223.771 31.3249 221.11 30.6737 218.76 29.3713C216.41 28.0407 214.57 26.2146 213.239 23.893C211.908 21.5431 211.243 18.9101 211.243 15.994C211.243 13.0779 211.908 10.459 213.239 8.13742C214.57 5.81585 216.41 4.00386 218.76 2.70151C221.11 1.37085 223.771 0.705566 226.744 0.705566C229.688 0.705566 232.335 1.37085 234.685 2.70151C237.064 4.00386 238.918 5.81585 240.249 8.13742C241.579 10.459 242.245 13.0779 242.245 15.994C242.245 18.9101 241.579 21.5431 240.249 23.893C238.918 26.2146 237.064 28.0407 234.685 29.3713C232.335 30.6737 229.688 31.3249 226.744 31.3249ZM226.744 25.9315C228.528 25.9315 230.085 25.5068 231.415 24.6574C232.746 23.8081 233.765 22.6331 234.473 21.1326C235.181 19.632 235.535 17.9192 235.535 15.994C235.535 14.0688 235.181 12.3559 234.473 10.8554C233.765 9.35488 232.746 8.17992 231.415 7.33057C230.085 6.48121 228.528 6.05649 226.744 6.05649C224.96 6.05649 223.403 6.48121 222.072 7.33057C220.742 8.17992 219.708 9.35488 218.972 10.8554C218.264 12.3559 217.911 14.0688 217.911 15.994C217.911 17.9192 218.264 19.632 218.972 21.1326C219.708 22.6331 220.742 23.8081 222.072 24.6574C223.403 25.5068 224.96 25.9315 226.744 25.9315Z" fill="white"/>
<path d="M195.18 31.3249C192.207 31.3249 189.546 30.6737 187.196 29.3713C184.846 28.0407 183.006 26.2146 181.675 23.893C180.345 21.5431 179.679 18.9101 179.679 15.994C179.679 13.0779 180.345 10.459 181.675 8.13742C183.006 5.81585 184.846 4.00386 187.196 2.70151C189.546 1.37085 192.207 0.705566 195.18 0.705566C198.124 0.705566 200.772 1.37085 203.121 2.70151C205.5 4.00386 207.354 5.81585 208.685 8.13742C210.015 10.459 210.681 13.0779 210.681 15.994C210.681 18.9101 210.015 21.5431 208.685 23.893C207.354 26.2146 205.5 28.0407 203.121 29.3713C200.772 30.6737 198.124 31.3249 195.18 31.3249ZM195.18 25.9315C196.964 25.9315 198.521 25.5068 199.851 24.6574C201.182 23.8081 202.201 22.6331 202.909 21.1326C203.617 19.632 203.971 17.9192 203.971 15.994C203.971 14.0688 203.617 12.3559 202.909 10.8554C202.201 9.35488 201.182 8.17992 199.851 7.33057C198.521 6.48121 196.964 6.05649 195.18 6.05649C193.396 6.05649 191.839 6.48121 190.509 7.33057C189.178 8.17992 188.144 9.35488 187.408 10.8554C186.701 12.3559 186.347 14.0688 186.347 15.994C186.347 17.9192 186.701 19.632 187.408 21.1326C188.144 22.6331 189.178 23.8081 190.509 24.6574C191.839 25.5068 193.396 25.9315 195.18 25.9315Z" fill="white"/>
<path d="M147.01 1.1727H156.184C156.976 3.0696 157.684 4.82497 158.307 6.43875C158.93 8.02422 159.411 9.45396 159.751 10.728C160.176 12.1719 160.487 13.5308 160.685 14.8048C160.883 16.0506 160.982 17.3246 160.982 18.627H164.422C164.422 17.183 164.55 15.7392 164.805 14.2953C165.059 12.8231 165.456 11.2659 165.994 9.62378C166.532 7.98169 167.282 5.97152 168.244 3.59332C168.386 3.19696 168.712 2.39011 169.221 1.1727H178.437V30.7728H171.897C171.897 28.1681 171.939 25.5776 172.024 23.0012C172.137 20.5947 172.321 18.6411 172.576 17.1406C172.859 15.6118 173.227 14.2386 173.68 13.0212C174.133 11.8038 174.77 10.3741 175.591 8.73196L172.194 7.50043L165.187 25.5068H160.176L153.211 7.50043L149.856 8.85938C150.677 10.5015 151.314 11.9171 151.767 13.1062C152.22 14.2953 152.574 15.6259 152.829 17.0981C153.112 18.5421 153.31 20.4248 153.423 22.7464C153.508 25.4077 153.551 28.0832 153.551 30.7728H147.01V1.1727Z" fill="white"/>
<path d="M130.7 1.1727H137.282V30.7728H130.7V1.1727ZM111.462 1.1727H118.002V30.7728H111.462V1.1727ZM117.45 13.1062H131.294V18.4571H117.45V13.1062Z" fill="white"/>
<path d="M104.294 30.7728L101.109 22.6615L103.105 24.0629H87.3494L89.3454 22.6615L86.1179 30.7728H79.1531L91.7661 1.1727H98.6459L111.301 30.7728H104.294ZM93.5073 6.09894C93.5356 7.2031 93.5214 8.23649 93.4648 9.1991C93.4082 10.1334 93.2808 11.0677 93.0826 12.002C92.9127 12.908 92.6721 13.8422 92.3606 14.8048C91.9926 15.8524 91.1998 17.6219 89.9824 20.1133L89.0481 19.1366H101.364L100.43 20.1133C99.835 18.8959 99.2829 17.6502 98.7733 16.3762C98.0372 14.5925 97.5559 12.9363 97.3294 11.4074C97.1029 9.85028 97.0179 8.08077 97.0746 6.09894H93.5073Z" fill="white"/>
<path d="M55.3844 1.1727H69.144C72.9095 1.1727 75.7265 1.83807 77.5951 3.16873C79.4637 4.47108 80.398 6.43874 80.398 9.07175C80.398 10.6855 79.9733 12.0303 79.1239 13.1062C78.2746 14.182 77.1279 15.0031 75.684 15.5693C74.2401 16.1356 72.6122 16.4753 70.8002 16.5886V19.986C72.1026 20.0426 73.2209 20.3257 74.1552 20.8353C75.1178 21.3166 76.0096 22.1093 76.8307 23.2135L76.9581 23.3834L82.394 30.7728H74.7073L70.0358 24.1054C69.9226 23.9355 69.8093 23.7656 69.6961 23.5957C68.875 22.4349 68.2097 21.6139 67.7001 21.1326C67.2188 20.6513 66.6809 20.3257 66.0863 20.1559C65.4918 19.9577 64.6282 19.8586 63.4958 19.8586H60.3107L61.9245 18.2873V30.7728H55.3844V1.1727ZM60.3107 15.6967H67.9549C69.2572 15.6967 70.3331 15.5268 71.1824 15.1871C72.0601 14.819 72.7113 14.2811 73.136 13.5733C73.589 12.8655 73.8155 11.9737 73.8155 10.8979C73.8155 9.3407 73.3341 8.17989 72.3715 7.41547C71.4089 6.65104 69.9367 6.26889 67.9549 6.26889H60.3107L61.9245 4.61258V17.2256L60.3107 15.6967Z" fill="white"/>
<path d="M48.2166 30.7728L45.0315 22.6615L47.0275 24.0629H31.2719L33.2679 22.6615L30.0404 30.7728H23.0756L35.6886 1.1727H42.5684L55.2238 30.7728H48.2166ZM37.4298 6.09894C37.4581 7.2031 37.4439 8.23649 37.3873 9.1991C37.3307 10.1334 37.2033 11.0677 37.0051 12.002C36.8352 12.908 36.5946 13.8422 36.2831 14.8048C35.9151 15.8524 35.1224 17.6219 33.9049 20.1133L32.9706 19.1366H45.2863L44.352 20.1133C43.7575 18.8959 43.2054 17.6502 42.6958 16.3762C41.9597 14.5925 41.4784 12.9363 41.2519 11.4074C41.0254 9.85028 40.9405 8.08077 40.9971 6.09894H37.4298Z" fill="white"/>
<path d="M13.0376 31.3249C10.5745 31.3249 8.40864 31.0135 6.54006 30.3906C4.69978 29.7677 3.27003 28.8759 2.2508 27.7151C1.23157 26.526 0.721958 25.167 0.721958 23.6382C0.721958 22.2509 1.13248 21.0901 1.95352 20.1559C2.77457 19.2216 3.87873 18.5137 5.26602 18.0324C6.68161 17.5228 8.25292 17.2539 9.97995 17.2256V13.7857C8.02643 13.7008 6.31356 13.4601 4.84134 13.0637C3.36912 12.639 2.19417 11.9878 1.31651 11.1101C0.438836 10.2325 0 9.08588 0 7.67029C0 6.22638 0.467147 4.98068 1.40144 3.93314C2.33573 2.85728 3.68055 2.03621 5.43588 1.46997C7.19122 0.903733 9.22969 0.620605 11.5513 0.620605C14.3541 0.620605 16.9022 1.00282 19.1955 1.76724C21.4887 2.53166 23.6971 3.63587 25.8205 5.07977L22.8902 9.8786C21.4746 8.71781 19.7476 7.78354 17.7091 7.07574C15.699 6.36795 13.7171 5.99993 11.7636 5.97162C10.1498 5.97162 8.91825 6.25465 8.0689 6.82089C7.21954 7.35882 6.79486 8.06667 6.79486 8.94434C6.79486 9.5672 7.0072 10.1051 7.43188 10.5581C7.85656 10.9828 8.45111 11.3508 9.21553 11.6623C10.0083 11.9454 11.0133 12.2002 12.2308 12.4267L15.7556 13.2336C18.7566 13.8564 21.1065 14.8898 22.8052 16.3337C24.5323 17.7776 25.3958 19.717 25.3958 22.1518C25.3958 23.7656 24.9003 25.2803 23.9094 26.6959C22.9185 28.0832 21.4887 29.2015 19.6202 30.0509C17.7516 30.9002 15.5574 31.3249 13.0376 31.3249ZM13.2075 26.611C14.34 26.611 15.3168 26.4127 16.1378 26.0164C16.9872 25.62 17.6242 25.0963 18.0488 24.4451C18.5018 23.7939 18.7283 23.072 18.7283 22.2792C18.7283 21.4016 18.4877 20.6372 18.0064 19.986C17.5534 19.3065 16.8881 18.7827 16.0104 18.4147C15.161 18.0183 14.1843 17.8201 13.0801 17.8201C12.0326 17.8201 11.0841 18.0042 10.2348 18.3722C9.38539 18.7403 8.72007 19.264 8.23877 19.9435C7.75747 20.5947 7.51682 21.3591 7.51682 22.2368C7.51682 23.0578 7.75747 23.8081 8.23877 24.4875C8.72007 25.1387 9.38539 25.6625 10.2348 26.0589C11.1124 26.427 12.1033 26.611 13.2075 26.611Z" fill="white"/>
</svg>
