<svg width="796" height="32" viewBox="0 0 796 32" fill="none" xmlns="http://www.w3.org/2000/svg">
<path d="M768.375 1.38361H782.134C785.9 1.38361 788.717 2.04894 790.585 3.3796C792.454 4.68194 793.388 6.64962 793.388 9.28263C793.388 10.8964 792.964 12.2412 792.114 13.3171C791.265 14.3929 790.118 15.214 788.674 15.7802C787.23 16.3465 785.602 16.6862 783.79 16.7994V20.1969C785.093 20.2535 786.211 20.5366 787.145 21.0462C788.108 21.5275 789 22.3203 789.821 23.4244L789.948 23.5943L795.384 30.9837H787.698L783.026 24.3163C782.913 24.1464 782.8 23.9765 782.686 23.8066C781.865 22.6459 781.2 21.8248 780.69 21.3435C780.209 20.8622 779.671 20.5366 779.077 20.3667C778.482 20.1686 777.618 20.0695 776.486 20.0695H773.301L774.915 18.4982V30.9837H768.375V1.38361ZM773.301 15.9076H780.945C782.247 15.9076 783.323 15.7377 784.173 15.398C785.05 15.03 785.702 14.492 786.126 13.7842C786.579 13.0764 786.806 12.1846 786.806 11.1087C786.806 9.5516 786.324 8.39081 785.362 7.62639C784.399 6.86197 782.927 6.47976 780.945 6.47976H773.301L774.915 4.82351V17.4365L773.301 15.9076Z" fill="white"/>
<path d="M743.488 1.38361H766.888V6.73456H748.414L750.028 5.20572V15.0158L748.414 13.5294H765.571V18.5831H748.414L750.028 17.1817V27.2465L748.414 25.6328H767.397V30.9837H743.488V1.38361Z" fill="white"/>
<path d="M713.543 1.38361H720.38C720.918 2.79921 721.428 4.12986 721.909 5.37559C723.268 9.31094 724.273 12.312 724.924 14.3788C725.576 16.4172 726.029 18.2433 726.283 19.8571C726.538 21.4709 726.666 23.4386 726.666 25.7602H730.19C730.19 23.4952 730.318 21.57 730.573 19.9845C730.827 18.3708 731.266 16.5729 731.889 14.5911C732.54 12.581 733.489 9.69315 734.734 5.92767C735.329 4.42714 735.924 2.91245 736.518 1.38361H743.355L732.314 30.9837H724.585L713.543 1.38361Z" fill="white"/>
<path d="M697.903 1.38361H704.443V27.2465L702.829 25.6328H720.368V30.9837H697.903V1.38361Z" fill="white"/>
<path d="M689.481 1.38361H696.021V30.9837H689.481V1.38361Z" fill="white"/>
<path d="M676.044 31.5358C673.58 31.5358 671.415 31.2244 669.546 30.6015C667.706 29.9786 666.276 29.0868 665.257 27.926C664.238 26.7369 663.728 25.378 663.728 23.8491C663.728 22.4618 664.138 21.301 664.959 20.3667C665.781 19.4325 666.885 18.7247 668.272 18.2434C669.688 17.7337 671.259 17.4648 672.986 17.4365V13.9966C671.032 13.9116 669.32 13.671 667.847 13.2746C666.375 12.8499 665.2 12.1988 664.322 11.3211C663.445 10.4434 663.006 9.29679 663.006 7.8812C663.006 6.43729 663.473 5.19156 664.407 4.14402C665.342 3.06817 666.686 2.24712 668.442 1.68089C670.197 1.11465 672.236 0.831528 674.557 0.831528C677.36 0.831528 679.908 1.21374 682.201 1.97816C684.495 2.74258 686.703 3.84675 688.826 5.29065L685.896 10.0895C684.481 8.92873 682.753 7.99444 680.715 7.28664C678.705 6.57884 676.723 6.21079 674.77 6.18248C673.156 6.18248 671.924 6.4656 671.075 7.03184C670.225 7.56976 669.801 8.27756 669.801 9.15523C669.801 9.77809 670.013 10.316 670.438 10.769C670.863 11.1937 671.457 11.5617 672.221 11.8732C673.014 12.1563 674.019 12.4111 675.237 12.6376L678.762 13.4445C681.763 14.0673 684.112 15.1007 685.811 16.5446C687.538 17.9885 688.402 19.9279 688.402 22.3627C688.402 23.9765 687.906 25.4912 686.915 26.9068C685.924 28.2941 684.495 29.4124 682.626 30.2618C680.757 31.1111 678.563 31.5358 676.044 31.5358ZM676.213 26.8219C677.346 26.8219 678.323 26.6237 679.144 26.2273C679.993 25.8309 680.63 25.3072 681.055 24.656C681.508 24.0048 681.734 23.2829 681.734 22.4901C681.734 21.6125 681.494 20.8481 681.012 20.1969C680.559 19.5174 679.894 18.9936 679.016 18.6256C678.167 18.2292 677.19 18.031 676.086 18.031C675.039 18.031 674.09 18.215 673.241 18.5831C672.391 18.9512 671.726 19.4749 671.245 20.1544C670.763 20.8056 670.523 21.57 670.523 22.4477C670.523 23.2687 670.763 24.019 671.245 24.6985C671.726 25.3496 672.391 25.8734 673.241 26.2698C674.118 26.6378 675.109 26.8219 676.213 26.8219Z" fill="white"/>
<path d="M630.746 1.38361H654.145V6.73456H635.672L637.286 5.20572V15.0158L635.672 13.5294H652.829V18.5831H635.672L637.286 17.1817V27.2465L635.672 25.6328H654.655V30.9837H630.746V1.38361Z" fill="white"/>
<path d="M603.619 1.38361H617.379C621.144 1.38361 623.961 2.04894 625.83 3.3796C627.699 4.68194 628.633 6.64962 628.633 9.28263C628.633 10.8964 628.208 12.2412 627.359 13.3171C626.509 14.3929 625.363 15.214 623.919 15.7802C622.475 16.3465 620.847 16.6862 619.035 16.7994V20.1969C620.337 20.2535 621.456 20.5366 622.39 21.0462C623.353 21.5275 624.245 22.3203 625.066 23.4244L625.193 23.5943L630.629 30.9837H622.942L618.271 24.3163C618.157 24.1464 618.044 23.9765 617.931 23.8066C617.11 22.6459 616.445 21.8248 615.935 21.3435C615.454 20.8622 614.916 20.5366 614.321 20.3667C613.727 20.1686 612.863 20.0695 611.731 20.0695H608.546L610.159 18.4982V30.9837H603.619V1.38361ZM608.546 15.9076H616.19C617.492 15.9076 618.568 15.7377 619.417 15.398C620.295 15.03 620.946 14.492 621.371 13.7842C621.824 13.0764 622.05 12.1846 622.05 11.1087C622.05 9.5516 621.569 8.39081 620.606 7.62639C619.644 6.86197 618.172 6.47976 616.19 6.47976H608.546L610.159 4.82351V17.4365L608.546 15.9076Z" fill="white"/>
<path d="M595.197 1.38361H601.737V30.9837H595.197V1.38361Z" fill="white"/>
<path d="M588.029 30.9837L584.844 22.8724L586.84 24.2738H571.085L573.081 22.8724L569.853 30.9837H562.888L575.501 1.38361H582.381L595.036 30.9837H588.029ZM577.242 6.30988C577.271 7.41404 577.257 8.44743 577.2 9.41004C577.143 10.3443 577.016 11.2786 576.818 12.2129C576.648 13.1189 576.407 14.0532 576.096 15.0158C575.728 16.0633 574.935 17.8328 573.718 20.3243L572.783 19.3475H585.099L584.165 20.3243C583.57 19.1069 583.018 17.8611 582.508 16.5871C581.772 14.8035 581.291 13.1472 581.065 11.6184C580.838 10.0612 580.753 8.29171 580.81 6.30988H577.242Z" fill="white"/>
<path d="M541.981 1.38361H548.521V27.2465L546.907 25.6328H564.447V30.9837H541.981V1.38361Z" fill="white"/>
<path d="M529.753 31.5783C526.837 31.5783 524.218 30.9412 521.897 29.6672C519.603 28.3649 517.805 26.5529 516.503 24.2313C515.201 21.8814 514.55 19.1918 514.55 16.1624C514.55 13.1331 515.201 10.4576 516.503 8.136C517.834 5.81442 519.674 4.01662 522.024 2.74258C524.402 1.44024 527.092 0.789062 530.093 0.789062C532.443 0.789062 534.524 1.17127 536.336 1.93569C538.148 2.70011 539.818 3.79012 541.347 5.20572L538.034 9.57991C536.987 8.56068 535.854 7.7821 534.637 7.24417C533.419 6.67794 532.046 6.39482 530.518 6.39482C528.706 6.39482 527.078 6.8195 525.634 7.66885C524.218 8.4899 523.114 9.65069 522.321 11.1512C521.528 12.6517 521.132 14.3646 521.132 16.2898C521.132 18.215 521.528 19.8996 522.321 21.3435C523.142 22.7874 524.261 23.9057 525.676 24.6985C527.12 25.4629 528.748 25.8451 530.56 25.8451C532.117 25.8451 533.504 25.5337 534.722 24.9108C535.968 24.2879 537.114 23.4103 538.162 22.2778L541.559 26.7794C539.974 28.3366 538.247 29.5256 536.378 30.3467C534.538 31.1677 532.329 31.5783 529.753 31.5783Z" fill="white"/>
<path d="M478.1 31.5358C475.637 31.5358 473.471 31.2244 471.603 30.6015C469.762 29.9786 468.333 29.0868 467.313 27.926C466.294 26.7369 465.785 25.378 465.785 23.8491C465.785 22.4618 466.195 21.301 467.016 20.3667C467.837 19.4325 468.941 18.7247 470.329 18.2434C471.744 17.7337 473.315 17.4648 475.042 17.4365V13.9966C473.089 13.9116 471.376 13.671 469.904 13.2746C468.432 12.8499 467.257 12.1988 466.379 11.3211C465.501 10.4434 465.063 9.29679 465.063 7.8812C465.063 6.43729 465.53 5.19156 466.464 4.14402C467.398 3.06817 468.743 2.24712 470.498 1.68089C472.254 1.11465 474.292 0.831528 476.614 0.831528C479.417 0.831528 481.965 1.21374 484.258 1.97816C486.551 2.74258 488.76 3.84675 490.883 5.29065L487.953 10.0895C486.537 8.92873 484.81 7.99444 482.772 7.28664C480.761 6.57884 478.78 6.21079 476.826 6.18248C475.212 6.18248 473.981 6.4656 473.131 7.03184C472.282 7.56976 471.857 8.27756 471.857 9.15523C471.857 9.77809 472.07 10.316 472.494 10.769C472.919 11.1937 473.514 11.5617 474.278 11.8732C475.071 12.1563 476.076 12.4111 477.293 12.6376L480.818 13.4445C483.819 14.0673 486.169 15.1007 487.868 16.5446C489.595 17.9885 490.458 19.9279 490.458 22.3627C490.458 23.9765 489.963 25.4912 488.972 26.9068C487.981 28.2941 486.551 29.4124 484.683 30.2618C482.814 31.1111 480.62 31.5358 478.1 31.5358ZM478.27 26.8219C479.403 26.8219 480.379 26.6237 481.2 26.2273C482.05 25.8309 482.687 25.3072 483.111 24.656C483.564 24.0048 483.791 23.2829 483.791 22.4901C483.791 21.6125 483.55 20.8481 483.069 20.1969C482.616 19.5174 481.951 18.9936 481.073 18.6256C480.224 18.2292 479.247 18.031 478.143 18.031C477.095 18.031 476.147 18.215 475.297 18.5831C474.448 18.9512 473.783 19.4749 473.301 20.1544C472.82 20.8056 472.579 21.57 472.579 22.4477C472.579 23.2687 472.82 24.019 473.301 24.6985C473.783 25.3496 474.448 25.8734 475.297 26.2698C476.175 26.6378 477.166 26.8219 478.27 26.8219Z" fill="white"/>
<path d="M449.784 31.5358C446.812 31.5358 444.15 30.8846 441.8 29.5823C439.451 28.2516 437.61 26.4255 436.28 24.1039C434.949 21.754 434.284 19.121 434.284 16.2049C434.284 13.2888 434.949 10.6699 436.28 8.34833C437.61 6.02676 439.451 4.21479 441.8 2.91245C444.15 1.58179 446.812 0.916458 449.784 0.916458C452.729 0.916458 455.376 1.58179 457.726 2.91245C460.104 4.21479 461.958 6.02676 463.289 8.34833C464.62 10.6699 465.285 13.2888 465.285 16.2049C465.285 19.121 464.62 21.754 463.289 24.1039C461.958 26.4255 460.104 28.2516 457.726 29.5823C455.376 30.8846 452.729 31.5358 449.784 31.5358ZM449.784 26.1424C451.568 26.1424 453.125 25.7177 454.456 24.8683C455.787 24.019 456.806 22.844 457.514 21.3435C458.221 19.843 458.575 18.1301 458.575 16.2049C458.575 14.2797 458.221 12.5668 457.514 11.0663C456.806 9.56575 455.787 8.3908 454.456 7.54144C453.125 6.69208 451.568 6.26741 449.784 6.26741C448.001 6.26741 446.444 6.69208 445.113 7.54144C443.782 8.3908 442.749 9.56575 442.013 11.0663C441.305 12.5668 440.951 14.2797 440.951 16.2049C440.951 18.1301 441.305 19.843 442.013 21.3435C442.749 22.844 443.782 24.019 445.113 24.8683C446.444 25.7177 448.001 26.1424 449.784 26.1424Z" fill="white"/>
<path d="M419.763 5.12078L421.249 6.73456H409.953V1.38361H436.155V6.73456H424.859L426.345 5.12078V30.9837H419.763V5.12078Z" fill="white"/>
<path d="M398.629 31.5358C396.166 31.5358 394 31.2244 392.131 30.6015C390.291 29.9786 388.861 29.0868 387.842 27.926C386.823 26.7369 386.313 25.378 386.313 23.8491C386.313 22.4618 386.724 21.301 387.545 20.3667C388.366 19.4325 389.47 18.7247 390.857 18.2434C392.273 17.7337 393.844 17.4648 395.571 17.4365V13.9966C393.618 13.9116 391.905 13.671 390.433 13.2746C388.96 12.8499 387.785 12.1988 386.908 11.3211C386.03 10.4434 385.591 9.29679 385.591 7.8812C385.591 6.43729 386.058 5.19156 386.993 4.14402C387.927 3.06817 389.272 2.24712 391.027 1.68089C392.783 1.11465 394.821 0.831528 397.143 0.831528C399.945 0.831528 402.493 1.21374 404.787 1.97816C407.08 2.74258 409.288 3.84675 411.412 5.29065L408.481 10.0895C407.066 8.92873 405.339 7.99444 403.3 7.28664C401.29 6.57884 399.308 6.21079 397.355 6.18248C395.741 6.18248 394.51 6.4656 393.66 7.03184C392.811 7.56976 392.386 8.27756 392.386 9.15523C392.386 9.77809 392.598 10.316 393.023 10.769C393.448 11.1937 394.042 11.5617 394.807 11.8732C395.6 12.1563 396.605 12.4111 397.822 12.6376L401.347 13.4445C404.348 14.0673 406.698 15.1007 408.397 16.5446C410.124 17.9885 410.987 19.9279 410.987 22.3627C410.987 23.9765 410.492 25.4912 409.501 26.9068C408.51 28.2941 407.08 29.4124 405.211 30.2618C403.343 31.1111 401.149 31.5358 398.629 31.5358ZM398.799 26.8219C399.931 26.8219 400.908 26.6237 401.729 26.2273C402.578 25.8309 403.215 25.3072 403.64 24.656C404.093 24.0048 404.32 23.2829 404.32 22.4901C404.32 21.6125 404.079 20.8481 403.598 20.1969C403.145 19.5174 402.479 18.9936 401.602 18.6256C400.752 18.2292 399.776 18.031 398.671 18.031C397.624 18.031 396.675 18.215 395.826 18.5831C394.977 18.9512 394.311 19.4749 393.83 20.1544C393.349 20.8056 393.108 21.57 393.108 22.4477C393.108 23.2687 393.349 24.019 393.83 24.6985C394.311 25.3496 394.977 25.8734 395.826 26.2698C396.704 26.6378 397.695 26.8219 398.799 26.8219Z" fill="white"/>
<path d="M381.38 30.9837L378.195 22.8724L380.191 24.2738H364.435L366.431 22.8724L363.204 30.9837H356.239L368.852 1.38361H375.732L388.387 30.9837H381.38ZM370.593 6.30988C370.621 7.41404 370.607 8.44743 370.551 9.41004C370.494 10.3443 370.367 11.2786 370.168 12.2129C369.999 13.1189 369.758 14.0532 369.447 15.0158C369.078 16.0633 368.286 17.8328 367.068 20.3243L366.134 19.3475H378.45L377.515 20.3243C376.921 19.1069 376.369 17.8611 375.859 16.5871C375.123 14.8035 374.642 13.1472 374.415 11.6184C374.189 10.0612 374.104 8.29171 374.16 6.30988H370.593Z" fill="white"/>
<path d="M332.386 1.38361H347.123C349.274 1.38361 351.086 1.61011 352.559 2.0631C354.059 2.48778 355.206 3.20973 355.998 4.22895C356.819 5.21987 357.23 6.49391 357.23 8.05107C357.23 9.35342 356.947 10.4434 356.381 11.3211C355.814 12.1704 354.993 12.8075 353.918 13.2321C352.87 13.6568 351.596 13.9116 350.095 13.9966V17.4365C351.822 17.4648 353.281 17.6913 354.47 18.116C355.687 18.5406 356.621 19.1918 357.273 20.0695C357.924 20.9471 358.249 22.0938 358.249 23.5094C358.249 25.1515 357.796 26.5246 356.89 27.6288C356.013 28.7329 354.781 29.5681 353.196 30.1344C351.61 30.7006 349.77 30.9837 347.675 30.9837H332.386V1.38361ZM346.443 25.8876C347.519 25.8876 348.439 25.7602 349.204 25.5054C349.996 25.2222 350.591 24.7976 350.987 24.2313C351.412 23.6651 351.624 22.9431 351.624 22.0655C351.624 21.2444 351.412 20.5649 350.987 20.027C350.591 19.4891 350.011 19.0927 349.246 18.8379C348.482 18.5831 347.547 18.4557 346.443 18.4557H338.969V25.8876H346.443ZM345.466 13.6144C347.193 13.6144 348.482 13.3312 349.331 12.765C350.209 12.1704 350.648 11.2362 350.648 9.96212C350.648 8.74471 350.209 7.86704 349.331 7.32911C348.482 6.76287 347.193 6.47976 345.466 6.47976H338.969V13.6144H345.466Z" fill="white"/>
<path d="M316.123 1.38361H322.664V30.9837H316.123V1.38361Z" fill="white"/>
<path d="M293.518 1.38361H300.058V27.2465L298.444 25.6328H315.983V30.9837H293.518V1.38361Z" fill="white"/>
<path d="M270.912 1.38361H277.452V27.2465L275.838 25.6328H293.377V30.9837H270.912V1.38361Z" fill="white"/>
<path d="M263.744 30.9837L260.559 22.8724L262.555 24.2738H246.799L248.795 22.8724L245.568 30.9837H238.603L251.216 1.38361H258.096L270.751 30.9837H263.744ZM252.957 6.30988C252.985 7.41404 252.971 8.44743 252.915 9.41004C252.858 10.3443 252.731 11.2786 252.532 12.2129C252.363 13.1189 252.122 14.0532 251.811 15.0158C251.442 16.0633 250.65 17.8328 249.432 20.3243L248.498 19.3475H260.814L259.879 20.3243C259.285 19.1069 258.733 17.8611 258.223 16.5871C257.487 14.8035 257.006 13.1472 256.779 11.6184C256.553 10.0612 256.468 8.29171 256.524 6.30988H252.957Z" fill="white"/>
<path d="M215.292 1.38361H222.129C222.667 2.79921 223.177 4.12986 223.658 5.37559C225.017 9.31094 226.022 12.312 226.674 14.3788C227.325 16.4172 227.778 18.2433 228.033 19.8571C228.287 21.4709 228.415 23.4386 228.415 25.7602H231.94C231.94 23.4952 232.067 21.57 232.322 19.9845C232.577 18.3708 233.015 16.5729 233.638 14.5911C234.289 12.581 235.238 9.69315 236.484 5.92767C237.078 4.42714 237.673 2.91245 238.267 1.38361H245.105L234.063 30.9837H226.334L215.292 1.38361Z" fill="white"/>
<path d="M214.758 30.9837L211.573 22.8724L213.569 24.2738H197.814L199.81 22.8724L196.582 30.9837H189.617L202.23 1.38361H209.11L221.766 30.9837H214.758ZM203.971 6.30988C204 7.41404 203.986 8.44743 203.929 9.41004C203.872 10.3443 203.745 11.2786 203.547 12.2129C203.377 13.1189 203.136 14.0532 202.825 15.0158C202.457 16.0633 201.664 17.8328 200.447 20.3243L199.512 19.3475H211.828L210.894 20.3243C210.299 19.1069 209.747 17.8611 209.238 16.5871C208.501 14.8035 208.02 13.1472 207.794 11.6184C207.567 10.0612 207.482 8.29171 207.539 6.30988H203.971Z" fill="white"/>
<path d="M180.083 31.5783C177.167 31.5783 174.548 30.9412 172.227 29.6672C169.933 28.3649 168.136 26.5529 166.833 24.2313C165.531 21.8814 164.88 19.1918 164.88 16.1624C164.88 13.1331 165.531 10.4576 166.833 8.136C168.164 5.81442 170.004 4.01662 172.354 2.74258C174.732 1.44024 177.422 0.789062 180.423 0.789062C182.773 0.789062 184.854 1.17127 186.666 1.93569C188.478 2.70011 190.148 3.79012 191.677 5.20572L188.365 9.57991C187.317 8.56068 186.185 7.7821 184.967 7.24417C183.75 6.67794 182.377 6.39482 180.848 6.39482C179.036 6.39482 177.408 6.8195 175.964 7.66885C174.548 8.4899 173.444 9.65069 172.651 11.1512C171.859 12.6517 171.462 14.3646 171.462 16.2898C171.462 18.215 171.859 19.8996 172.651 21.3435C173.472 22.7874 174.591 23.9057 176.006 24.6985C177.45 25.4629 179.078 25.8451 180.89 25.8451C182.447 25.8451 183.835 25.5337 185.052 24.9108C186.298 24.2879 187.444 23.4103 188.492 22.2778L191.889 26.7794C190.304 28.3366 188.577 29.5256 186.708 30.3467C184.868 31.1677 182.66 31.5783 180.083 31.5783Z" fill="white"/>
<path d="M132.747 1.38361H156.147V6.73456H137.673L139.287 5.20572V15.0158L137.673 13.5294H154.83V18.5831H137.673L139.287 17.1817V27.2465L137.673 25.6328H156.656V30.9837H132.747V1.38361Z" fill="white"/>
<path d="M110.141 1.38361H116.681V27.2465L115.067 25.6328H132.607V30.9837H110.141V1.38361Z" fill="white"/>
<path d="M87.5352 1.38361H94.0753V27.2465L92.4615 25.6328H110.001V30.9837H87.5352V1.38361Z" fill="white"/>
<path d="M62.6484 1.38361H86.0482V6.73456H67.5747L69.1884 5.20572V15.0158L67.5747 13.5294H84.7317V18.5831H67.5747L69.1884 17.1817V27.2465L67.5747 25.6328H86.5578V30.9837H62.6484V1.38361Z" fill="white"/>
<path d="M35.8114 1.38361H50.5477C52.6994 1.38361 54.5114 1.61011 55.9836 2.0631C57.4841 2.48778 58.6308 3.20973 59.4235 4.22895C60.2445 5.21987 60.6551 6.49391 60.6551 8.05107C60.6551 9.35342 60.3719 10.4434 59.8057 11.3211C59.2395 12.1704 58.4184 12.8075 57.3426 13.2321C56.295 13.6568 55.021 13.9116 53.5205 13.9966V17.4365C55.2475 17.4648 56.7055 17.6913 57.8946 18.116C59.1121 18.5406 60.0464 19.1918 60.6975 20.0695C61.3487 20.9471 61.6743 22.0938 61.6743 23.5094C61.6743 25.1515 61.2213 26.5246 60.3153 27.6288C59.4376 28.7329 58.2061 29.5681 56.6206 30.1344C55.0351 30.7006 53.1949 30.9837 51.0998 30.9837H35.8114V1.38361ZM49.8682 25.8876C50.9441 25.8876 51.8642 25.7602 52.6286 25.5054C53.4214 25.2222 54.0159 24.7976 54.4123 24.2313C54.837 23.6651 55.0493 22.9431 55.0493 22.0655C55.0493 21.2444 54.837 20.5649 54.4123 20.027C54.0159 19.4891 53.4355 19.0927 52.6711 18.8379C51.9067 18.5831 50.9724 18.4557 49.8682 18.4557H42.3939V25.8876H49.8682ZM48.8915 13.6144C50.6185 13.6144 51.9067 13.3312 52.756 12.765C53.6337 12.1704 54.0725 11.2362 54.0725 9.96212C54.0725 8.74471 53.6337 7.86704 52.756 7.32911C51.9067 6.76287 50.6185 6.47976 48.8915 6.47976H42.3939V13.6144H48.8915Z" fill="white"/>
<path d="M27.4316 1.38361H33.9716V30.9837H27.4316V1.38361Z" fill="white"/>
<path d="M15.2035 31.5783C12.2874 31.5783 9.66852 30.9412 7.34694 29.6672C5.05368 28.3649 3.25587 26.5529 1.95352 24.2313C0.651174 21.8814 0 19.1918 0 16.1624C0 13.1331 0.651174 10.4576 1.95352 8.136C3.28418 5.81442 5.12445 4.01662 7.47434 2.74258C9.85254 1.44024 12.5422 0.789062 15.5432 0.789062C17.8931 0.789062 19.9741 1.17127 21.786 1.93569C23.598 2.70011 25.2684 3.79012 26.7972 5.20572L23.4847 9.57991C22.4372 8.56068 21.3047 7.7821 20.0873 7.24417C18.8699 6.67794 17.4968 6.39482 15.9679 6.39482C14.156 6.39482 12.528 6.8195 11.0841 7.66885C9.66852 8.4899 8.56435 9.65069 7.77162 11.1512C6.97889 12.6517 6.58252 14.3646 6.58252 16.2898C6.58252 18.215 6.97889 19.8996 7.77162 21.3435C8.59267 22.7874 9.71098 23.9057 11.1266 24.6985C12.5705 25.4629 14.1984 25.8451 16.0104 25.8451C17.5675 25.8451 18.9548 25.5337 20.1722 24.9108C21.418 24.2879 22.5646 23.4103 23.6121 22.2778L27.0096 26.7794C25.4241 28.3366 23.6971 29.5256 21.8285 30.3467C19.9882 31.1677 17.7799 31.5783 15.2035 31.5783Z" fill="white"/>
</svg>
