<svg width="605" height="32" viewBox="0 0 605 32" fill="none" xmlns="http://www.w3.org/2000/svg">
<path d="M591.544 31.3249C589.081 31.3249 586.916 31.0135 585.047 30.3906C583.207 29.7677 581.777 28.8759 580.758 27.7151C579.738 26.526 579.229 25.167 579.229 23.6382C579.229 22.2509 579.639 21.0901 580.46 20.1559C581.281 19.2216 582.385 18.5137 583.773 18.0324C585.188 17.5228 586.76 17.2539 588.487 17.2256V13.7857C586.533 13.7008 584.82 13.4601 583.348 13.0637C581.876 12.639 580.701 11.9878 579.823 11.1101C578.946 10.2325 578.507 9.08588 578.507 7.67029C578.507 6.22638 578.974 4.98068 579.908 3.93314C580.843 2.85728 582.187 2.03621 583.943 1.46997C585.698 0.903733 587.736 0.620605 590.058 0.620605C592.861 0.620605 595.409 1.00282 597.702 1.76724C599.996 2.53166 602.204 3.63587 604.327 5.07977L601.397 9.8786C599.981 8.71781 598.254 7.78354 596.216 7.07574C594.206 6.36795 592.224 5.99993 590.27 5.97162C588.657 5.97162 587.425 6.25465 586.576 6.82089C585.726 7.35882 585.302 8.06667 585.302 8.94434C585.302 9.5672 585.514 10.1051 585.939 10.5581C586.363 10.9828 586.958 11.3508 587.722 11.6623C588.515 11.9454 589.52 12.2002 590.737 12.4267L594.262 13.2336C597.263 13.8564 599.613 14.8898 601.312 16.3337C603.039 17.7776 603.903 19.717 603.903 22.1518C603.903 23.7656 603.407 25.2803 602.416 26.6959C601.425 28.0832 599.995 29.2015 598.127 30.0509C596.258 30.9002 594.064 31.3249 591.544 31.3249ZM591.714 26.611C592.847 26.611 593.824 26.4127 594.645 26.0164C595.494 25.62 596.131 25.0963 596.556 24.4451C597.009 23.7939 597.235 23.072 597.235 22.2792C597.235 21.4016 596.995 20.6372 596.513 19.986C596.06 19.3065 595.395 18.7827 594.517 18.4147C593.668 18.0183 592.691 17.8201 591.587 17.8201C590.539 17.8201 589.591 18.0042 588.742 18.3722C587.892 18.7403 587.227 19.264 586.746 19.9435C586.264 20.5947 586.024 21.3591 586.024 22.2368C586.024 23.0578 586.264 23.8081 586.746 24.4875C587.227 25.1387 587.892 25.6625 588.742 26.0589C589.619 26.427 590.61 26.611 591.714 26.611Z" fill="white"/>
<path d="M574.295 30.7728L571.11 22.6615L573.106 24.0629H557.351L559.347 22.6615L556.119 30.7728H549.154L561.768 1.1727H568.647L581.303 30.7728H574.295ZM563.509 6.09894C563.537 7.2031 563.523 8.23649 563.466 9.1991C563.41 10.1334 563.282 11.0677 563.084 12.002C562.914 12.908 562.673 13.8422 562.362 14.8048C561.994 15.8524 561.201 17.6219 559.984 20.1133L559.049 19.1366H571.365L570.431 20.1133C569.836 18.8959 569.284 17.6502 568.775 16.3762C568.039 14.5925 567.557 12.9363 567.331 11.4074C567.104 9.85028 567.019 8.08077 567.076 6.09894H563.509Z" fill="white"/>
<path d="M528.247 1.1727H534.787V27.0356L533.174 25.4218H550.713V30.7728H528.247V1.1727Z" fill="white"/>
<path d="M511.547 31.3249C508.575 31.3249 505.913 30.6737 503.563 29.3713C501.213 28.0407 499.373 26.2146 498.042 23.893C496.712 21.5431 496.047 18.9101 496.047 15.994C496.047 13.0779 496.712 10.459 498.042 8.13742C499.373 5.81585 501.213 4.00386 503.563 2.70151C505.913 1.37085 508.575 0.705566 511.547 0.705566C514.492 0.705566 517.139 1.37085 519.489 2.70151C521.867 4.00386 523.721 5.81585 525.052 8.13742C526.383 10.459 527.048 13.0779 527.048 15.994C527.048 18.9101 526.383 21.5431 525.052 23.893C523.721 26.2146 521.867 28.0407 519.489 29.3713C517.139 30.6737 514.492 31.3249 511.547 31.3249ZM511.547 25.9315C513.331 25.9315 514.888 25.5068 516.219 24.6574C517.549 23.8081 518.569 22.6331 519.276 21.1326C519.984 19.632 520.338 17.9192 520.338 15.994C520.338 14.0688 519.984 12.3559 519.276 10.8554C518.569 9.35488 517.549 8.17992 516.219 7.33057C514.888 6.48121 513.331 6.05649 511.547 6.05649C509.764 6.05649 508.206 6.48121 506.876 7.33057C505.545 8.17992 504.512 9.35488 503.776 10.8554C503.068 12.3559 502.714 14.0688 502.714 15.994C502.714 17.9192 503.068 19.632 503.776 21.1326C504.512 22.6331 505.545 23.8081 506.876 24.6574C508.206 25.5068 509.764 25.9315 511.547 25.9315Z" fill="white"/>
<path d="M485.866 31.3674C482.949 31.3674 480.33 30.7304 478.009 29.4563C475.716 28.154 473.918 26.342 472.616 24.0204C471.313 21.6705 470.662 18.9809 470.662 15.9515C470.662 12.9221 471.313 10.2467 472.616 7.92511C473.946 5.60353 475.786 3.80568 478.136 2.53165C480.514 1.2293 483.204 0.578125 486.205 0.578125C488.555 0.578125 490.636 0.960371 492.448 1.72479C494.26 2.48921 495.93 3.57922 497.459 4.99481L494.147 9.36905C493.099 8.34982 491.967 7.57122 490.749 7.03329C489.532 6.46706 488.159 6.1839 486.63 6.1839C484.818 6.1839 483.19 6.60862 481.746 7.45798C480.331 8.27902 479.226 9.43978 478.434 10.9403C477.641 12.4408 477.244 14.1537 477.244 16.0789C477.244 18.0041 477.641 19.6887 478.434 21.1326C479.255 22.5765 480.373 23.6948 481.789 24.4875C483.232 25.252 484.86 25.6342 486.672 25.6342C488.229 25.6342 489.617 25.3228 490.834 24.7C492.08 24.0771 493.227 23.1994 494.274 22.0669L497.672 26.5685C496.086 28.1256 494.359 29.3147 492.491 30.1357C490.65 30.9568 488.442 31.3674 485.866 31.3674Z" fill="white"/>
<path d="M462.877 1.1727H469.417V30.7728H462.877V1.1727Z" fill="white"/>
<path d="M433.718 1.1727H439.621L456.226 21.6422L459.326 19.5188C458.279 18.358 457.415 17.2963 456.736 16.3337C456.056 15.3711 455.504 14.3377 455.08 13.2336C454.655 12.1011 454.443 10.9262 454.443 9.70874V1.1727H461.025V30.7728H455.589L438.814 10.1759L435.629 12.2568C436.818 13.3893 437.753 14.5076 438.432 15.6118C439.65 17.5653 440.258 19.7028 440.258 22.0244V30.7728H433.718V1.1727Z" fill="white"/>
<path d="M400.948 1.1727H424.348V6.52362H405.875L407.488 4.99481V14.8048L405.875 13.3185H423.032V18.3722H405.875L407.488 16.9707V27.0356L405.875 25.4218H424.858V30.7728H400.948V1.1727Z" fill="white"/>
<path d="M383.083 19.6038L371.999 1.1727H379.218C380.662 3.52259 381.752 5.51862 382.488 7.16071C383.253 8.77449 383.777 10.3316 384.06 11.8321C384.371 13.3043 384.527 15.0313 384.527 17.0132H388.264C388.264 15.0313 388.406 13.2902 388.689 11.7897C389 10.2891 389.524 8.73194 390.26 7.11816C390.996 5.50439 392.086 3.52259 393.53 1.1727H400.792L389.665 19.6038V30.7728H383.083V19.6038Z" fill="white"/>
<path d="M346.074 1.1727H352.614V6.4812C352.614 7.38718 352.5 8.22236 352.274 8.98679C352.047 9.75121 351.623 10.6148 351 11.5774C350.405 12.5117 349.528 13.7149 348.367 15.1871L351.17 17.1831L365.354 1.1727H373.295L360.343 14.9748L360.513 12.639L373.678 30.7728H365.821L356.223 17.268L358.049 17.4379L351.34 24.615L352.614 21.6847V30.7728H346.074V1.1727Z" fill="white"/>
<path d="M332.636 31.3249C330.173 31.3249 328.007 31.0135 326.139 30.3906C324.299 29.7677 322.869 28.8759 321.85 27.7151C320.83 26.526 320.321 25.167 320.321 23.6382C320.321 22.2509 320.731 21.0901 321.552 20.1559C322.373 19.2216 323.478 18.5137 324.865 18.0324C326.28 17.5228 327.852 17.2539 329.579 17.2256V13.7857C327.625 13.7008 325.912 13.4601 324.44 13.0637C322.968 12.639 321.793 11.9878 320.915 11.1101C320.038 10.2325 319.599 9.08588 319.599 7.67029C319.599 6.22638 320.066 4.98068 321 3.93314C321.935 2.85728 323.279 2.03621 325.035 1.46997C326.79 0.903733 328.829 0.620605 331.15 0.620605C333.953 0.620605 336.501 1.00282 338.794 1.76724C341.088 2.53166 343.296 3.63587 345.419 5.07977L342.489 9.8786C341.073 8.71781 339.346 7.78354 337.308 7.07574C335.298 6.36795 333.316 5.99993 331.362 5.97162C329.749 5.97162 328.517 6.25465 327.668 6.82089C326.818 7.35882 326.394 8.06667 326.394 8.94434C326.394 9.5672 326.606 10.1051 327.031 10.5581C327.455 10.9828 328.05 11.3508 328.814 11.6623C329.607 11.9454 330.612 12.2002 331.83 12.4267L335.354 13.2336C338.355 13.8564 340.705 14.8898 342.404 16.3337C344.131 17.7776 344.995 19.717 344.995 22.1518C344.995 23.7656 344.499 25.2803 343.508 26.6959C342.517 28.0832 341.088 29.2015 339.219 30.0509C337.35 30.9002 335.156 31.3249 332.636 31.3249ZM332.806 26.611C333.939 26.611 334.916 26.4127 335.737 26.0164C336.586 25.62 337.223 25.0963 337.648 24.4451C338.101 23.7939 338.327 23.072 338.327 22.2792C338.327 21.4016 338.087 20.6372 337.605 19.986C337.152 19.3065 336.487 18.7827 335.609 18.4147C334.76 18.0183 333.783 17.8201 332.679 17.8201C331.631 17.8201 330.683 18.0042 329.834 18.3722C328.984 18.7403 328.319 19.264 327.838 19.9435C327.356 20.5947 327.116 21.3591 327.116 22.2368C327.116 23.0578 327.356 23.8081 327.838 24.4875C328.319 25.1387 328.984 25.6625 329.834 26.0589C330.711 26.427 331.702 26.611 332.806 26.611Z" fill="white"/>
<path d="M273.853 1.1727H280.393V27.0356L278.78 25.4218H296.319V30.7728H273.853V1.1727Z" fill="white"/>
<path d="M251.247 1.1727H257.787V27.0356L256.174 25.4218H273.713V30.7728H251.247V1.1727Z" fill="white"/>
<path d="M244.08 30.7728L240.895 22.6615L242.891 24.0629H227.135L229.131 22.6615L225.903 30.7728H218.939L231.552 1.1727H238.431L251.087 30.7728H244.08ZM233.293 6.09894C233.321 7.2031 233.307 8.23649 233.25 9.1991C233.194 10.1334 233.066 11.0677 232.868 12.002C232.698 12.908 232.458 13.8422 232.146 14.8048C231.778 15.8524 230.985 17.6219 229.768 20.1133L228.834 19.1366H241.149L240.215 20.1133C239.621 18.8959 239.068 17.6502 238.559 16.3762C237.823 14.5925 237.341 12.9363 237.115 11.4074C236.888 9.85028 236.803 8.08077 236.86 6.09894H233.293Z" fill="white"/>
<path d="M194.175 1.1727H205.429C208.769 1.1727 211.671 1.82384 214.134 3.12619C216.598 4.40023 218.48 6.1556 219.783 8.39224C221.085 10.6289 221.736 13.1628 221.736 15.994C221.736 18.712 221.085 21.2034 219.783 23.4683C218.48 25.705 216.598 27.4887 214.134 28.8193C211.671 30.1217 208.769 30.7728 205.429 30.7728H194.175V1.1727ZM199.101 25.4218H205.004C207.071 25.4218 208.854 25.0255 210.355 24.2327C211.884 23.44 213.044 22.3359 213.837 20.9203C214.658 19.4763 215.069 17.8343 215.069 15.994C215.069 14.1537 214.658 12.5257 213.837 11.1101C213.044 9.66623 211.884 8.54798 210.355 7.75525C208.854 6.9342 207.071 6.52362 205.004 6.52362H199.101L200.715 4.95236V27.0356L199.101 25.4218Z" fill="white"/>
<path d="M171.569 1.1727H178.109V27.0356L176.495 25.4218H194.034V30.7728H171.569V1.1727Z" fill="white"/>
<path d="M163.147 1.1727H169.687V30.7728H163.147V1.1727Z" fill="white"/>
<path d="M135.523 1.1727H142.063V6.4812C142.063 7.38718 141.949 8.22236 141.723 8.98679C141.496 9.75121 141.072 10.6148 140.449 11.5774C139.854 12.5117 138.977 13.7149 137.816 15.1871L140.619 17.1831L154.803 1.1727H162.744L149.792 14.9748L149.962 12.639L163.127 30.7728H155.27L145.672 17.268L147.498 17.4379L140.789 24.615L142.063 21.6847V30.7728H135.523V1.1727Z" fill="white"/>
<path d="M111.071 4.90985L112.558 6.52362H101.261V1.1727H127.464V6.52362H116.167L117.654 4.90985V30.7728H111.071V4.90985Z" fill="white"/>
<path d="M89.0876 4.90985L90.574 6.52362H79.2775V1.1727H105.48V6.52362H94.1837L95.6702 4.90985V30.7728H89.0876V4.90985Z" fill="white"/>
<path d="M65.6862 31.3249C62.7134 31.3249 60.0521 30.6737 57.7022 29.3713C55.3523 28.0407 53.512 26.2146 52.1813 23.893C50.8507 21.5431 50.1854 18.9101 50.1854 15.994C50.1854 13.0779 50.8507 10.459 52.1813 8.13742C53.512 5.81585 55.3523 4.00386 57.7022 2.70151C60.0521 1.37085 62.7134 0.705566 65.6862 0.705566C68.6306 0.705566 71.2778 1.37085 73.6277 2.70151C76.0059 4.00386 77.8603 5.81585 79.1909 8.13742C80.5216 10.459 81.187 13.0779 81.187 15.994C81.187 18.9101 80.5216 21.5431 79.1909 23.893C77.8603 26.2146 76.0059 28.0407 73.6277 29.3713C71.2778 30.6737 68.6306 31.3249 65.6862 31.3249ZM65.6862 25.9315C67.4698 25.9315 69.0269 25.5068 70.3576 24.6574C71.6883 23.8081 72.7075 22.6331 73.4153 21.1326C74.1231 19.632 74.477 17.9192 74.477 15.994C74.477 14.0688 74.1231 12.3559 73.4153 10.8554C72.7075 9.35488 71.6883 8.17992 70.3576 7.33057C69.0269 6.48121 67.4698 6.05649 65.6862 6.05649C63.9025 6.05649 62.3454 6.48121 61.0147 7.33057C59.6841 8.17992 58.6507 9.35488 57.9146 10.8554C57.2068 12.3559 56.8528 14.0688 56.8528 15.994C56.8528 17.9192 57.2068 19.632 57.9146 21.1326C58.6507 22.6331 59.6841 23.8081 61.0147 24.6574C62.3454 25.5068 63.9025 25.9315 65.6862 25.9315Z" fill="white"/>
<path d="M40.0044 31.3674C37.0883 31.3674 34.4693 30.7304 32.1478 29.4563C29.8545 28.154 28.0567 26.342 26.7544 24.0204C25.452 21.6705 24.8009 18.9809 24.8009 15.9515C24.8009 12.9221 25.452 10.2467 26.7544 7.92511C28.0851 5.60353 29.9253 3.80568 32.2752 2.53165C34.6534 1.2293 37.3431 0.578125 40.3441 0.578125C42.694 0.578125 44.7749 0.960371 46.5869 1.72479C48.3988 2.48921 50.0692 3.57922 51.5981 4.99481L48.2856 9.36905C47.2381 8.34982 46.1056 7.57122 44.8882 7.03329C43.6708 6.46706 42.2976 6.1839 40.7688 6.1839C38.9568 6.1839 37.3289 6.60862 35.885 7.45798C34.4694 8.27902 33.3652 9.43978 32.5724 10.9403C31.7797 12.4408 31.3834 14.1537 31.3834 16.0789C31.3834 18.0041 31.7797 19.6887 32.5724 21.1326C33.3935 22.5765 34.5118 23.6948 35.9274 24.4875C37.3713 25.252 38.9993 25.6342 40.8113 25.6342C42.3684 25.6342 43.7557 25.3228 44.9731 24.7C46.2188 24.0771 47.3655 23.1994 48.413 22.0669L51.8105 26.5685C50.225 28.1256 48.498 29.3147 46.6294 30.1357C44.7891 30.9568 42.5808 31.3674 40.0044 31.3674Z" fill="white"/>
<path d="M13.0377 31.3249C10.5745 31.3249 8.40869 31.0135 6.5401 30.3906C4.69983 29.7677 3.27008 28.8759 2.25085 27.7151C1.23163 26.526 0.721985 25.167 0.721985 23.6382C0.721985 22.2509 1.13251 21.0901 1.95355 20.1559C2.7746 19.2216 3.87871 18.5137 5.26599 18.0324C6.68159 17.5228 8.25295 17.2539 9.97998 17.2256V13.7857C8.02646 13.7008 6.31353 13.4601 4.84131 13.0637C3.36909 12.639 2.19414 11.9878 1.31647 11.1101C0.438798 10.2325 0 9.08588 0 7.67029C0 6.22638 0.467196 4.98068 1.40149 3.93314C2.33578 2.85728 3.68051 2.03621 5.43585 1.46997C7.19119 0.903733 9.22969 0.620605 11.5513 0.620605C14.3541 0.620605 16.9022 1.00282 19.1955 1.76724C21.4888 2.53166 23.6971 3.63587 25.8205 5.07977L22.8902 9.8786C21.4746 8.71781 19.7476 7.78354 17.7091 7.07574C15.699 6.36795 13.7171 5.99993 11.7636 5.97162C10.1498 5.97162 8.91827 6.25465 8.06891 6.82089C7.21955 7.35882 6.79486 8.06667 6.79486 8.94434C6.79486 9.5672 7.00721 10.1051 7.43188 10.5581C7.85656 10.9828 8.45115 11.3508 9.21558 11.6623C10.0083 11.9454 11.0133 12.2002 12.2307 12.4267L15.7556 13.2336C18.7566 13.8564 21.1065 14.8898 22.8052 16.3337C24.5323 17.7776 25.3958 19.717 25.3958 22.1518C25.3958 23.7656 24.9003 25.2803 23.9094 26.6959C22.9185 28.0832 21.4887 29.2015 19.6201 30.0509C17.7515 30.9002 15.5574 31.3249 13.0377 31.3249ZM13.2075 26.611C14.34 26.611 15.3167 26.4127 16.1378 26.0164C16.9871 25.62 17.6241 25.0963 18.0488 24.4451C18.5018 23.7939 18.7283 23.072 18.7283 22.2792C18.7283 21.4016 18.4877 20.6372 18.0064 19.986C17.5534 19.3065 16.888 18.7827 16.0104 18.4147C15.161 18.0183 14.1842 17.8201 13.0801 17.8201C12.0325 17.8201 11.0842 18.0042 10.2348 18.3722C9.38544 18.7403 8.72007 19.264 8.23877 19.9435C7.75747 20.5947 7.51678 21.3591 7.51678 22.2368C7.51678 23.0578 7.75747 23.8081 8.23877 24.4875C8.72007 25.1387 9.38544 25.6625 10.2348 26.0589C11.1125 26.427 12.1034 26.611 13.2075 26.611Z" fill="white"/>
</svg>
