<svg width="620" height="31" viewBox="0 0 620 31" fill="none" xmlns="http://www.w3.org/2000/svg">
<path d="M361.199 30.7467C358.736 30.7467 356.57 30.4353 354.702 29.8125C352.861 29.1896 351.432 28.2978 350.412 27.137C349.393 25.9479 348.884 24.5889 348.884 23.06C348.884 21.6728 349.294 20.512 350.115 19.5777C350.936 18.6434 352.04 17.9356 353.428 17.4543C354.843 16.9447 356.415 16.6757 358.142 16.6474V13.2075C356.188 13.1226 354.475 12.8819 353.003 12.4856C351.531 12.0609 350.356 11.4097 349.478 10.5321C348.6 9.65439 348.162 8.50774 348.162 7.09215C348.162 5.64824 348.629 4.40251 349.563 3.35497C350.497 2.27911 351.842 1.45807 353.597 0.89183C355.353 0.325593 357.391 0.0424805 359.713 0.0424805C362.516 0.0424805 365.064 0.424696 367.357 1.18912C369.65 1.95354 371.859 3.05769 373.982 4.5016L371.052 9.30046C369.636 8.13967 367.909 7.2054 365.871 6.4976C363.861 5.78981 361.879 5.42173 359.925 5.39342C358.311 5.39342 357.08 5.67654 356.231 6.24278C355.381 6.78071 354.956 7.48853 354.956 8.3662C354.956 8.98906 355.169 9.52697 355.594 9.97997C356.018 10.4046 356.613 10.7727 357.377 11.0841C358.17 11.3672 359.175 11.6221 360.392 11.8486L363.917 12.6554C366.918 13.2783 369.268 14.3117 370.967 15.7556C372.694 17.1995 373.557 19.1389 373.557 21.5737C373.557 23.1875 373.062 24.7022 372.071 26.1178C371.08 27.505 369.65 28.6233 367.782 29.4727C365.913 30.3221 363.719 30.7467 361.199 30.7467ZM361.369 26.0328C362.502 26.0328 363.478 25.8346 364.299 25.4383C365.149 25.0419 365.786 24.5181 366.211 23.867C366.664 23.2158 366.89 22.4938 366.89 21.7011C366.89 20.8234 366.649 20.059 366.168 19.4078C365.715 18.7283 365.05 18.2046 364.172 17.8365C363.323 17.4402 362.346 17.242 361.242 17.242C360.194 17.242 359.246 17.426 358.396 17.7941C357.547 18.1621 356.882 18.6859 356.4 19.3653C355.919 20.0165 355.678 20.7809 355.678 21.6586C355.678 22.4797 355.919 23.23 356.4 23.9094C356.882 24.5606 357.547 25.0844 358.396 25.4807C359.274 25.8488 360.265 26.0328 361.369 26.0328Z" fill="white"/>
<path d="M319.513 0.594543H325.416L342.021 21.064L345.121 18.9407C344.073 17.7799 343.21 16.7182 342.53 15.7556C341.851 14.793 341.299 13.7596 340.874 12.6554C340.449 11.5229 340.237 10.348 340.237 9.1306V0.594543H346.82V30.1947H341.384L324.609 9.59773L321.424 11.6787C322.613 12.8111 323.547 13.9295 324.227 15.0336C325.444 16.9871 326.053 19.1247 326.053 21.4463V30.1947H319.513V0.594543Z" fill="white"/>
<path d="M292.386 0.594543H306.146C309.911 0.594543 312.729 1.25987 314.597 2.59053C316.466 3.89288 317.4 5.86054 317.4 8.49355C317.4 10.1073 316.975 11.4522 316.126 12.528C315.277 13.6039 314.13 14.4249 312.686 14.9912C311.242 15.5574 309.614 15.8971 307.802 16.0104V19.4078C309.105 19.4644 310.223 19.7475 311.157 20.2572C312.12 20.7385 313.012 21.5312 313.833 22.6354L313.96 22.8053L319.396 30.1947H311.709L307.038 23.5272C306.925 23.3573 306.811 23.1874 306.698 23.0176C305.877 21.8568 305.212 21.0357 304.702 20.5544C304.221 20.0731 303.683 19.7476 303.088 19.5777C302.494 19.3795 301.63 19.2804 300.498 19.2804H297.313L298.926 17.7091V30.1947H292.386V0.594543ZM297.313 15.1185H304.957C306.259 15.1185 307.335 14.9487 308.185 14.6089C309.062 14.2409 309.713 13.703 310.138 12.9952C310.591 12.2874 310.817 11.3955 310.817 10.3197C310.817 8.76253 310.336 7.60175 309.374 6.83733C308.411 6.0729 306.939 5.69069 304.957 5.69069H297.313L298.926 4.03444V16.6474L297.313 15.1185Z" fill="white"/>
<path d="M285.219 30.1947L282.033 22.0833L284.029 23.4847H268.274L270.27 22.0833L267.042 30.1947H260.078L272.69 0.594543H279.57L292.226 30.1947H285.219ZM274.432 5.52083C274.46 6.62499 274.446 7.65838 274.389 8.62099C274.333 9.55528 274.205 10.4896 274.007 11.4238C273.837 12.3298 273.596 13.2641 273.285 14.2267C272.917 15.2743 272.124 17.0438 270.907 19.5352L269.973 18.5585H282.288L281.354 19.5352C280.759 18.3178 280.207 17.0721 279.698 15.798C278.962 14.0144 278.48 12.3581 278.254 10.8293C278.027 9.27214 277.942 7.50266 277.999 5.52083H274.432Z" fill="white"/>
<path d="M236.89 0.594543H260.289V5.94548H241.816L243.43 4.41667V14.2267L241.816 12.7403H258.973V17.794H241.816L243.43 16.3926V26.4575L241.816 24.8437H260.799V30.1947H236.89V0.594543Z" fill="white"/>
<path d="M220.321 4.33171L221.808 5.94548H210.511V0.594543H236.714V5.94548H225.417L226.904 4.33171V30.1947H220.321V4.33171Z" fill="white"/>
<path d="M199.188 30.7467C196.724 30.7467 194.559 30.4353 192.69 29.8125C190.85 29.1896 189.42 28.2978 188.401 27.137C187.382 25.9479 186.872 24.5889 186.872 23.06C186.872 21.6728 187.282 20.512 188.103 19.5777C188.924 18.6434 190.029 17.9356 191.416 17.4543C192.832 16.9447 194.403 16.6757 196.13 16.6474V13.2075C194.176 13.1226 192.463 12.8819 190.991 12.4856C189.519 12.0609 188.344 11.4097 187.466 10.5321C186.589 9.65439 186.15 8.50774 186.15 7.09215C186.15 5.64824 186.617 4.40251 187.551 3.35497C188.486 2.27911 189.83 1.45807 191.586 0.89183C193.341 0.325593 195.38 0.0424805 197.701 0.0424805C200.504 0.0424805 203.052 0.424696 205.345 1.18912C207.639 1.95354 209.847 3.05769 211.97 4.5016L209.04 9.30046C207.625 8.13967 205.897 7.2054 203.859 6.4976C201.849 5.78981 199.867 5.42173 197.914 5.39342C196.3 5.39342 195.068 5.67654 194.219 6.24278C193.37 6.78071 192.945 7.48853 192.945 8.3662C192.945 8.98906 193.157 9.52697 193.582 9.97997C194.007 10.4046 194.601 10.7727 195.365 11.0841C196.158 11.3672 197.163 11.6221 198.381 11.8486L201.906 12.6554C204.907 13.2783 207.256 14.3117 208.955 15.7556C210.682 17.1995 211.546 19.1389 211.546 21.5737C211.546 23.1875 211.05 24.7022 210.059 26.1178C209.069 27.505 207.639 28.6233 205.77 29.4727C203.902 30.3221 201.707 30.7467 199.188 30.7467ZM199.358 26.0328C200.49 26.0328 201.467 25.8346 202.288 25.4383C203.137 25.0419 203.774 24.5181 204.199 23.867C204.652 23.2158 204.878 22.4938 204.878 21.7011C204.878 20.8234 204.638 20.059 204.156 19.4078C203.703 18.7283 203.038 18.2046 202.16 17.8365C201.311 17.4402 200.334 17.242 199.23 17.242C198.183 17.242 197.234 17.426 196.385 17.7941C195.535 18.1621 194.87 18.6859 194.389 19.3653C193.907 20.0165 193.667 20.7809 193.667 21.6586C193.667 22.4797 193.907 23.23 194.389 23.9094C194.87 24.5606 195.535 25.0844 196.385 25.4807C197.262 25.8488 198.253 26.0328 199.358 26.0328Z" fill="white"/>
<path d="M150.199 0.594543H161.453C164.793 0.594543 167.695 1.2457 170.158 2.54805C172.622 3.82209 174.504 5.57743 175.807 7.81407C177.109 10.0507 177.76 12.5846 177.76 15.4158C177.76 18.1338 177.109 20.6252 175.807 22.8902C174.504 25.1268 172.622 26.9105 170.158 28.2411C167.695 29.5435 164.793 30.1947 161.453 30.1947H150.199V0.594543ZM155.125 24.8437H161.028C163.095 24.8437 164.878 24.4474 166.379 23.6546C167.908 22.8619 169.068 21.7577 169.861 20.3421C170.682 18.8982 171.093 17.2561 171.093 15.4158C171.093 13.5755 170.682 11.9476 169.861 10.532C169.068 9.08812 167.908 7.96981 166.379 7.17708C164.878 6.35603 163.095 5.94548 161.028 5.94548H155.125L156.739 4.37419V26.4575L155.125 24.8437Z" fill="white"/>
<path d="M116.019 0.594543H129.269C131.788 0.594543 133.94 0.990912 135.724 1.78365C137.536 2.54807 138.909 3.68055 139.843 5.18108C140.806 6.68161 141.287 8.47943 141.287 10.5745C141.287 13.7738 140.225 16.2935 138.102 18.1338C135.978 19.974 133.034 20.8942 129.269 20.8942H120.945L122.559 19.4078V30.1947H116.019V0.594543ZM120.945 15.798H128.462C130.5 15.798 132.057 15.3734 133.133 14.524C134.209 13.6463 134.747 12.3865 134.747 10.7444C134.747 9.18722 134.209 7.99812 133.133 7.17708C132.057 6.35603 130.486 5.94548 128.419 5.94548H120.945L122.559 4.45912V17.242L120.945 15.798Z" fill="white"/>
<path d="M107.596 0.594543H114.136V30.1947H107.596V0.594543Z" fill="white"/>
<path d="M84.9905 0.594543H91.5305V26.4575L89.9167 24.8437H107.456V30.1947H84.9905V0.594543Z" fill="white"/>
<path d="M62.3847 0.594543H68.9247V26.4575L67.311 24.8437H84.8502V30.1947H62.3847V0.594543Z" fill="white"/>
<path d="M53.9624 0.594543H60.5024V30.1947H53.9624V0.594543Z" fill="white"/>
<path d="M45.5349 0.594543H52.1174V30.1947H45.5349V0.594543ZM26.297 0.594543H32.837V30.1947H26.297V0.594543ZM32.2849 12.528H46.1295V17.879H32.2849V12.528Z" fill="white"/>
<path d="M0 0.594543H13.25C15.7698 0.594543 17.9215 0.990912 19.7051 1.78365C21.5171 2.54807 22.8901 3.68055 23.8244 5.18108C24.787 6.68161 25.2684 8.47943 25.2684 10.5745C25.2684 13.7738 24.2067 16.2935 22.0833 18.1338C19.9599 19.974 17.0155 20.8942 13.25 20.8942H4.92627L6.54004 19.4078V30.1947H0V0.594543ZM4.92627 15.798H12.4431C14.4815 15.798 16.0387 15.3734 17.1146 14.524C18.1904 13.6463 18.7283 12.3865 18.7283 10.7444C18.7283 9.18722 18.1904 7.99812 17.1146 7.17708C16.0387 6.35603 14.4674 5.94548 12.4006 5.94548H4.92627L6.54004 4.45912V17.242L4.92627 15.798Z" fill="white"/>
<path d="M597.469 0.805511H604.009V26.6684L602.395 25.0547H619.934V30.4056H597.469V0.805511Z" fill="white"/>
<path d="M580.769 30.9577C577.796 30.9577 575.135 30.3065 572.785 29.0042C570.435 27.6735 568.595 25.8474 567.264 23.5258C565.933 21.1759 565.268 18.5429 565.268 15.6268C565.268 12.7107 565.933 10.0918 567.264 7.77026C568.595 5.44869 570.435 3.63671 572.785 2.33437C575.135 1.00371 577.796 0.338379 580.769 0.338379C583.713 0.338379 586.36 1.00371 588.71 2.33437C591.088 3.63671 592.943 5.44869 594.273 7.77026C595.604 10.0918 596.269 12.7107 596.269 15.6268C596.269 18.5429 595.604 21.1759 594.273 23.5258C592.943 25.8474 591.088 27.6735 588.71 29.0042C586.36 30.3065 583.713 30.9577 580.769 30.9577ZM580.769 25.5643C582.552 25.5643 584.109 25.1396 585.44 24.2903C586.771 23.4409 587.79 22.2659 588.498 20.7654C589.206 19.2649 589.56 17.552 589.56 15.6268C589.56 13.7016 589.206 11.9887 588.498 10.4882C587.79 8.98767 586.771 7.81272 585.44 6.96336C584.109 6.11401 582.552 5.68935 580.769 5.68935C578.985 5.68935 577.428 6.11401 576.097 6.96336C574.766 7.81272 573.733 8.98767 572.997 10.4882C572.289 11.9887 571.935 13.7016 571.935 15.6268C571.935 17.552 572.289 19.2649 572.997 20.7654C573.733 22.2659 574.766 23.4409 576.097 24.2903C577.428 25.1396 578.985 25.5643 580.769 25.5643Z" fill="white"/>
<path d="M549.205 30.9577C546.232 30.9577 543.571 30.3065 541.221 29.0042C538.871 27.6735 537.031 25.8474 535.7 23.5258C534.369 21.1759 533.704 18.5429 533.704 15.6268C533.704 12.7107 534.369 10.0918 535.7 7.77026C537.031 5.44869 538.871 3.63671 541.221 2.33437C543.571 1.00371 546.232 0.338379 549.205 0.338379C552.149 0.338379 554.796 1.00371 557.146 2.33437C559.524 3.63671 561.379 5.44869 562.709 7.77026C564.04 10.0918 564.706 12.7107 564.706 15.6268C564.706 18.5429 564.04 21.1759 562.709 23.5258C561.379 25.8474 559.524 27.6735 557.146 29.0042C554.796 30.3065 552.149 30.9577 549.205 30.9577ZM549.205 25.5643C550.988 25.5643 552.546 25.1396 553.876 24.2903C555.207 23.4409 556.226 22.2659 556.934 20.7654C557.642 19.2649 557.996 17.552 557.996 15.6268C557.996 13.7016 557.642 11.9887 556.934 10.4882C556.226 8.98767 555.207 7.81272 553.876 6.96336C552.546 6.11401 550.988 5.68935 549.205 5.68935C547.421 5.68935 545.864 6.11401 544.533 6.96336C543.202 7.81272 542.169 8.98767 541.433 10.4882C540.725 11.9887 540.371 13.7016 540.371 15.6268C540.371 17.552 540.725 19.2649 541.433 20.7654C542.169 22.2659 543.202 23.4409 544.533 24.2903C545.864 25.1396 547.421 25.5643 549.205 25.5643Z" fill="white"/>
<path d="M511.984 0.805511H534.789V6.15646H516.91L518.524 4.62762V14.4377L516.91 12.9938H533.26V18.3447H516.91L518.524 16.6036V30.4056H511.984V0.805511Z" fill="white"/>
<path d="M489.378 0.805511H495.918V26.6684L494.304 25.0547H511.843V30.4056H489.378V0.805511Z" fill="white"/>
<path d="M464.491 0.805511H487.891V6.15646H469.418L471.031 4.62762V14.4377L469.418 12.9513H486.575V18.005H469.418L471.031 16.6036V26.6684L469.418 25.0547H488.401V30.4056H464.491V0.805511Z" fill="white"/>
<path d="M446.878 14.2254V16.5611L436.048 0.805511H443.693C445.476 3.43852 446.665 5.50528 447.26 7.00581C447.883 8.47803 448.194 10.1201 448.194 11.9321H451.846C451.846 10.5448 452.016 9.36986 452.356 8.40726C452.639 7.44465 453.092 6.38296 453.715 5.22217C454.338 4.06138 455.258 2.58916 456.475 0.805511H463.95L453.12 16.4337V14.1404L464.374 30.4056H456.73C455.371 28.6503 454.338 27.1781 453.63 25.989C452.951 24.7999 452.469 23.7098 452.186 22.7189C451.903 21.6997 451.762 20.5672 451.762 19.3215H448.109C448.109 20.5389 447.968 21.6431 447.685 22.634C447.402 23.6249 446.906 24.7149 446.198 25.904C445.519 27.0931 444.499 28.5936 443.14 30.4056H435.666L446.878 14.2254Z" fill="white"/>
<path d="M427.595 16.5611C427.595 14.4094 427.949 12.5691 428.657 11.0403C429.365 9.48311 430.426 8.02505 431.842 6.66608L428.996 4.62762C428.6 5.78841 427.949 6.8784 427.043 7.89763C426.137 8.88855 425.103 9.75208 423.943 10.4882C422.782 11.196 421.607 11.7056 420.418 12.017L419.908 6.79347C421.494 6.48204 422.881 6.08567 424.07 5.60437C425.259 5.12307 426.293 4.57098 427.17 3.94812C428.076 3.29695 428.94 2.54668 429.761 1.69733H434.178V30.4056H427.595V16.5611Z" fill="white"/>
<path d="M395.098 0.805511H408.348C410.867 0.805511 413.019 1.20187 414.803 1.9946C416.615 2.75902 417.988 3.8915 418.922 5.39203C419.885 6.89256 420.366 8.69038 420.366 10.7855C420.366 13.9847 419.304 16.5045 417.181 18.3447C415.058 20.185 412.113 21.1052 408.348 21.1052H400.024L401.638 19.6188V30.4056H395.098V0.805511ZM400.024 16.009H407.541C409.579 16.009 411.136 15.5843 412.212 14.735C413.288 13.8573 413.826 12.5974 413.826 10.9553C413.826 9.39817 413.288 8.20908 412.212 7.38803C411.136 6.56699 409.565 6.15646 407.498 6.15646H400.024L401.638 4.67009V17.4529L400.024 16.009Z" fill="white"/>
</svg>
