<svg width="593" height="254" viewBox="0 0 593 254" fill="none" xmlns="http://www.w3.org/2000/svg">
<path d="M526.299 254C456.279 254 399.299 197.02 399.299 127C399.299 93.0752 412.504 61.1896 436.496 37.1972C460.488 13.2048 492.374 0 526.299 0C596.319 0 653.299 56.9633 653.299 127C653.299 197.037 596.335 254 526.299 254ZM526.299 2.03909C492.917 2.03909 461.541 15.0302 437.927 38.6443C414.329 62.242 401.322 93.6343 401.322 127.016C401.322 195.918 457.38 251.977 526.282 251.977C595.184 251.977 651.243 195.918 651.243 127.016C651.243 58.1145 595.184 2.05555 526.282 2.05555" fill="#FFF7AD"/>
<path d="M559.533 254C489.513 254 432.533 197.02 432.533 127C432.533 93.0752 445.738 61.1896 469.73 37.1972C493.722 13.2048 525.608 0 559.533 0C629.553 0 686.533 56.9633 686.533 127C686.533 197.037 629.569 254 559.533 254ZM559.533 2.03909C526.151 2.03909 494.775 15.0302 471.161 38.6443C447.546 62.2585 434.555 93.6343 434.555 127.016C434.555 195.918 490.614 251.977 559.516 251.977C628.418 251.977 684.477 195.918 684.477 127.016C684.477 58.1145 628.418 2.05555 559.516 2.05555" fill="#FFF7AD"/>
<path d="M592.766 254C522.746 254 465.766 197.02 465.766 127C465.766 93.0752 478.971 61.1896 502.963 37.1972C526.956 13.2048 558.841 0 592.766 0C662.786 0 719.766 56.9633 719.766 127C719.766 197.037 662.803 254 592.766 254ZM592.766 2.03909C559.384 2.03909 528.008 15.0302 504.394 38.6443C480.78 62.2585 467.789 93.6343 467.789 127.016C467.789 195.918 523.848 251.977 592.75 251.977C661.652 251.977 717.711 195.918 717.711 127.016C717.711 58.1145 661.652 2.05555 592.75 2.05555" fill="#FFF7AD"/>
<path d="M626 254C555.98 254 499 197.02 499 127C499 56.9798 555.963 0 626 0C696.037 0 753 56.9633 753 127C753 197.037 696.037 254 626 254ZM626 2.03909C557.098 2.03909 501.039 58.098 501.039 127C501.039 195.902 557.098 251.961 626 251.961C694.902 251.961 750.961 195.902 750.961 127C750.961 58.098 694.902 2.03909 626 2.03909Z" fill="#FFF7AD"/>
<path d="M393.364 254C323.344 254 266.364 197.037 266.364 127C266.364 56.9633 323.328 0 393.364 0C463.384 0 520.364 56.9798 520.364 127C520.364 197.02 463.401 254 393.364 254ZM393.364 2.03909C324.462 2.03909 268.403 58.098 268.403 127C268.403 195.902 324.462 251.961 393.364 251.961C462.266 251.961 518.325 195.902 518.325 127C518.325 58.098 462.266 2.03909 393.364 2.03909Z" fill="#FFF7AD"/>
<path d="M426.598 254C356.578 254 299.598 197.037 299.598 127C299.598 56.9633 356.561 0 426.598 0C496.618 0 553.598 56.9798 553.598 127C553.598 197.02 496.635 254 426.598 254ZM426.598 2.03909C357.696 2.03909 301.637 58.098 301.637 127C301.637 195.902 357.696 251.961 426.598 251.961C495.5 251.961 551.559 195.902 551.559 127C551.559 58.098 495.5 2.03909 426.598 2.03909Z" fill="#FFF7AD"/>
<path d="M459.832 254C389.811 254 332.832 197.037 332.832 127C332.832 56.9633 389.795 0 459.832 0C529.852 0 586.832 56.9798 586.832 127C586.832 197.02 529.868 254 459.832 254ZM459.832 2.03909C390.93 2.03909 334.871 58.098 334.871 127C334.871 195.902 390.93 251.961 459.832 251.961C528.734 251.961 584.792 195.902 584.792 127C584.792 58.098 528.734 2.03909 459.832 2.03909Z" fill="#FFF7AD"/>
<path d="M493.065 254C423.045 254 366.065 197.037 366.065 127C366.065 56.9633 423.029 0 493.065 0C563.086 0 620.065 56.9798 620.065 127C620.065 197.02 563.102 254 493.065 254ZM493.065 2.03909C424.163 2.03909 368.105 58.098 368.105 127C368.105 195.902 424.163 251.961 493.065 251.961C561.967 251.961 618.026 195.902 618.026 127C618.026 58.098 561.967 2.03909 493.065 2.03909Z" fill="#FFF7AD"/>
<path d="M260.43 254C190.41 254 133.43 197.037 133.43 127C133.43 56.9633 190.393 0 260.43 0C330.466 0 387.43 56.9633 387.43 127C387.43 197.037 330.466 254 260.43 254ZM260.43 2.03909C191.528 2.03909 135.469 58.098 135.469 127C135.469 195.902 191.528 251.961 260.43 251.961C329.332 251.961 385.391 195.902 385.391 127C385.391 58.098 329.332 2.03909 260.43 2.03909Z" fill="#FFF7AD"/>
<path d="M293.664 254C223.643 254 166.664 197.037 166.664 127C166.664 56.9633 223.627 0 293.664 0C363.7 0 420.664 56.9633 420.664 127C420.664 197.037 363.7 254 293.664 254ZM293.664 2.03909C224.762 2.03909 168.703 58.098 168.703 127C168.703 195.902 224.762 251.961 293.664 251.961C362.566 251.961 418.624 195.902 418.624 127C418.624 58.098 362.566 2.03909 293.664 2.03909Z" fill="#FFF7AD"/>
<path d="M326.897 254C256.877 254 199.897 197.037 199.897 127C199.897 56.9633 256.86 0 326.897 0C396.934 0 453.897 56.9633 453.897 127C453.897 197.037 396.934 254 326.897 254ZM326.897 2.03909C257.995 2.03909 201.936 58.098 201.936 127C201.936 195.902 257.995 251.961 326.897 251.961C395.799 251.961 451.858 195.902 451.858 127C451.858 58.098 395.799 2.03909 326.897 2.03909Z" fill="#FFF7AD"/>
<path d="M360.131 254C290.111 254 233.131 197.037 233.131 127C233.131 56.9633 290.094 0 360.131 0C430.168 0 487.131 56.9633 487.131 127C487.131 197.037 430.168 254 360.131 254ZM360.131 2.03909C291.229 2.03909 235.17 58.098 235.17 127C235.17 195.902 291.229 251.961 360.131 251.961C429.033 251.961 485.092 195.902 485.092 127C485.092 58.098 429.033 2.03909 360.131 2.03909Z" fill="#FFF7AD"/>
<path d="M127.495 254C57.4749 254 0.495117 197.037 0.495117 127C0.495117 56.9633 57.4585 0 127.495 0C197.532 0 254.495 56.9633 254.495 127C254.495 197.037 197.532 254 127.495 254ZM127.495 2.03909C58.5931 2.03909 2.53422 58.098 2.53422 127C2.53422 195.902 58.5931 251.961 127.495 251.961C196.397 251.961 252.456 195.902 252.456 127C252.456 58.098 196.397 2.03909 127.495 2.03909Z" fill="#FFF7AD"/>
<path d="M160.729 254C126.804 254 94.9186 240.795 70.9262 216.803C46.9338 192.81 33.729 160.925 33.729 127C33.729 56.9798 90.6924 0 160.729 0C230.766 0 287.729 56.9633 287.729 127C287.729 197.037 230.766 254 160.729 254ZM160.729 2.03909C91.827 2.03909 35.7681 58.098 35.7681 127C35.7681 160.382 48.7592 191.758 72.3733 215.372C95.971 238.97 127.363 251.977 160.745 251.977C229.647 251.977 285.706 195.918 285.706 127.016C285.706 58.1145 229.647 2.05555 160.745 2.05555" fill="#FFF7AD"/>
<path d="M193.962 254C123.942 254 66.9624 197.037 66.9624 127C66.9624 56.9633 123.926 0 193.962 0C263.999 0 320.962 56.9633 320.962 127C320.962 197.037 263.999 254 193.962 254ZM193.962 2.03909C125.06 2.03909 69.0015 58.098 69.0015 127C69.0015 195.902 125.06 251.961 193.962 251.961C262.864 251.961 318.923 195.902 318.923 127C318.923 58.098 262.864 2.03909 193.962 2.03909Z" fill="#FFF7AD"/>
<path d="M227.196 254C157.176 254 100.196 197.037 100.196 127C100.196 56.9633 157.16 0 227.196 0C297.233 0 354.196 56.9633 354.196 127C354.196 197.037 297.233 254 227.196 254ZM227.196 2.03909C158.294 2.03909 102.235 58.098 102.235 127C102.235 195.902 158.294 251.961 227.196 251.961C296.098 251.961 352.157 195.902 352.157 127C352.157 58.098 296.098 2.03909 227.196 2.03909Z" fill="#FFF7AD"/>
</svg>
