<svg width="16" height="16" viewBox="0 0 16 16" fill="none" xmlns="http://www.w3.org/2000/svg">
<path d="M2.12988 7.79785C2.12999 4.48469 3.5764 1.7985 5.36035 1.79785C5.70927 1.79785 6.04454 1.90273 6.35937 2.09277C6.77362 1.80282 7.2435 1.62613 7.75391 1.62598C8.20059 1.62598 8.61259 1.75865 8.98535 1.98437C9.3747 1.76175 9.80329 1.63193 10.2607 1.63184C11.4191 1.63184 12.3734 2.43992 13.0098 3.54102C13.6537 4.65521 14.0361 6.16139 14.0361 7.79785C14.0361 9.43448 13.6537 10.9414 13.0098 12.0557C12.3734 13.1567 11.419 13.9648 10.2607 13.9648C9.80352 13.9648 9.37459 13.8357 8.98535 13.6133C8.61271 13.8388 8.2004 13.9697 7.75391 13.9697C7.2437 13.9696 6.7735 13.7946 6.35937 13.5049C6.04473 13.6947 5.70909 13.7979 5.36035 13.7979C3.57634 13.7972 2.12989 11.1112 2.12988 7.79785ZM9.81152 2.70508C10.0256 2.95704 10.2192 3.24072 10.3867 3.54687C10.9957 4.65997 11.3574 6.16436 11.3574 7.79785C11.3574 9.43142 10.9957 10.9357 10.3867 12.0488C10.219 12.3554 10.0259 12.6403 9.81152 12.8926C9.96091 12.9407 10.1109 12.9648 10.2607 12.9648C10.9111 12.9648 11.5947 12.5043 12.1436 11.5547C12.6848 10.618 13.0361 9.29075 13.0361 7.79785C13.0361 6.30501 12.6848 4.9776 12.1436 4.04102C11.5947 3.09162 10.911 2.63184 10.2607 2.63184C10.1108 2.63189 9.96105 2.65706 9.81152 2.70508ZM7.16699 2.82324C8.0265 3.90143 8.59173 5.72697 8.5918 7.79785L8.58691 8.10645C8.53322 10.0743 7.96841 11.7916 7.13477 12.8115C7.34202 12.9191 7.54963 12.9696 7.75391 12.9697C8.3428 12.9697 8.98555 12.5266 9.50977 11.5684C10.0237 10.6288 10.3574 9.29652 10.3574 7.79785C10.3574 6.29929 10.0237 4.96687 9.50977 4.02734C8.9856 3.0695 8.34269 2.62598 7.75391 2.62598C7.54961 2.62609 7.34203 2.67755 7.13477 2.78516L7.16699 2.82324ZM3.12988 7.79785C3.12989 9.32211 3.46529 10.653 3.95703 11.5664C4.47048 12.5199 5.01234 12.7975 5.36035 12.7979C5.70835 12.7979 6.25086 12.5206 6.76465 11.5664C7.25647 10.653 7.59179 9.32226 7.5918 7.79785C7.59174 6.2735 7.25647 4.94269 6.76465 4.0293C6.25092 3.07543 5.70831 2.79785 5.36035 2.79785C5.01235 2.79819 4.47047 3.07591 3.95703 4.0293C3.4652 4.94269 3.12993 6.2735 3.12988 7.79785Z" fill="#EDEDED"/>
</svg>
