<svg width="1726" height="244" viewBox="0 0 1726 244" fill="none" xmlns="http://www.w3.org/2000/svg">
<rect width="1726" height="244" rx="4" fill="url(#paint0_linear_4236_2377)"/>
<path d="M52.0168 168.483H85.6278V176.169H61.4108V185.929H83.7368V193.188H61.4108V203.314H86.3598V211H52.0168V168.483ZM84.2133 178.792H93.7293L94.6443 181.171C96.1897 185.116 97.3487 188.715 98.1213 191.968C98.9347 195.221 99.3617 198.495 99.4023 201.789H103.611C103.652 198.983 103.957 196.197 104.526 193.432C105.136 190.626 106.031 187.637 107.21 184.465C107.576 183.204 108.288 181.313 109.345 178.792H118.861L106.051 210.939H96.9623L84.2133 178.792ZM117.739 194.957C117.739 191.785 118.471 188.918 119.935 186.356C121.399 183.753 123.392 181.72 125.913 180.256C128.475 178.792 131.322 178.06 134.453 178.06C137.869 178.06 140.797 178.812 143.237 180.317C145.718 181.781 147.609 183.814 148.911 186.417C150.212 189.02 150.863 191.968 150.863 195.262V197.397H126.767C126.93 198.414 127.255 199.349 127.743 200.203C128.557 201.708 129.675 202.867 131.098 203.68C132.522 204.453 134.108 204.839 135.856 204.839C137.849 204.839 139.679 204.432 141.346 203.619C143.014 202.806 144.458 201.748 145.678 200.447L149.765 205.571C148.057 207.442 145.901 208.967 143.299 210.146C140.736 211.285 138.113 211.854 135.429 211.854C131.973 211.854 128.902 211.142 126.218 209.719C123.534 208.296 121.44 206.323 119.935 203.802C118.471 201.24 117.739 198.292 117.739 194.957ZM126.828 191.602H142.2C142.078 190.707 141.895 189.894 141.651 189.162C141.041 187.657 140.126 186.519 138.906 185.746C137.727 184.933 136.344 184.526 134.758 184.526C133.172 184.526 131.749 184.933 130.488 185.746C129.268 186.519 128.313 187.678 127.621 189.223C127.296 189.955 127.032 190.748 126.828 191.602ZM152.345 178.792H161.068C160.539 180.378 159.868 181.761 159.055 182.94C158.282 184.079 157.571 185.075 156.92 185.929L161.556 188.552C161.922 186.6 162.573 184.831 163.508 183.245C164.443 181.659 165.724 180.398 167.351 179.463C168.978 178.528 170.95 178.06 173.268 178.06C175.667 178.06 177.701 178.507 179.368 179.402C181.076 180.297 182.337 181.639 183.15 183.428C184.004 185.177 184.431 187.312 184.431 189.833V211H175.037V192.883C175.037 190.524 174.468 188.735 173.329 187.515C172.231 186.254 170.665 185.624 168.632 185.624C167.331 185.624 166.151 185.929 165.094 186.539C164.037 187.149 163.203 188.064 162.593 189.284C162.024 190.463 161.739 191.866 161.739 193.493V211H152.345V178.792ZM190.534 202.094V185.441H184.861V178.792C186.61 178.792 188.236 179.219 189.741 180.073C191.246 180.927 192.608 181.964 193.828 183.184L196.207 179.646C194.54 178.955 193.177 177.755 192.12 176.047C191.063 174.339 190.534 172.489 190.534 170.496H199.928V178.792H208.651V185.441H199.928V200.874C199.928 202.175 200.172 203.131 200.66 203.741C201.189 204.31 201.982 204.595 203.039 204.595C203.69 204.595 204.3 204.473 204.869 204.229C205.479 203.985 206.089 203.639 206.699 203.192L209.2 209.353C207.98 210.126 206.658 210.736 205.235 211.183C203.812 211.63 202.327 211.854 200.782 211.854C197.529 211.854 195.007 211.061 193.218 209.475C191.429 207.889 190.534 205.429 190.534 202.094ZM223.798 211.854C220.951 211.854 218.41 211.549 216.173 210.939C213.977 210.288 212.228 209.353 210.927 208.133C209.666 206.913 209.036 205.469 209.036 203.802C209.036 202.175 209.524 200.833 210.5 199.776C211.476 198.678 212.777 197.885 214.404 197.397C216.031 196.868 217.861 196.604 219.894 196.604V192.456C218.064 192.456 216.254 192.273 214.465 191.907C212.676 191.5 211.13 190.809 209.829 189.833C208.568 188.857 207.938 187.515 207.938 185.807C207.938 184.099 208.487 182.655 209.585 181.476C210.724 180.297 212.31 179.422 214.343 178.853C216.376 178.243 218.735 177.938 221.419 177.938C224.591 177.938 227.58 178.406 230.386 179.341C233.192 180.276 235.774 181.598 238.133 183.306L234.351 190.016C232.643 188.715 230.691 187.657 228.495 186.844C226.34 185.99 224.144 185.563 221.907 185.563C221.297 185.563 220.748 185.665 220.26 185.868C219.772 186.071 219.365 186.376 219.04 186.783C218.755 187.149 218.613 187.596 218.613 188.125C218.613 188.613 218.755 189.06 219.04 189.467C219.325 189.833 219.752 190.158 220.321 190.443C220.89 190.687 221.602 190.89 222.456 191.053C222.578 191.053 222.68 191.073 222.761 191.114L226.543 191.785C230.244 192.436 233.09 193.595 235.083 195.262C237.116 196.929 238.133 199.085 238.133 201.728C238.133 203.599 237.523 205.307 236.303 206.852C235.124 208.397 233.436 209.617 231.24 210.512C229.085 211.407 226.604 211.854 223.798 211.854ZM224.225 206.242C225.282 206.242 226.218 206.059 227.031 205.693C227.885 205.327 228.536 204.819 228.983 204.168C229.43 203.477 229.654 202.684 229.654 201.789C229.654 200.366 229.146 199.227 228.129 198.373C227.112 197.519 225.77 197.092 224.103 197.092C223.046 197.092 222.09 197.295 221.236 197.702C220.423 198.068 219.792 198.597 219.345 199.288C218.898 199.979 218.674 200.793 218.674 201.728C218.674 202.623 218.898 203.416 219.345 204.107C219.833 204.798 220.484 205.327 221.297 205.693C222.151 206.059 223.127 206.242 224.225 206.242Z" fill="black"/>
<defs>
<linearGradient id="paint0_linear_4236_2377" x1="863" y1="244" x2="863" y2="0" gradientUnits="userSpaceOnUse">
<stop stop-color="#63C3D8"/>
<stop offset="1" stop-color="white"/>
</linearGradient>
</defs>
</svg>
