<svg width="16" height="16" viewBox="0 0 16 16" fill="none" xmlns="http://www.w3.org/2000/svg">
<path d="M14 8C14 6.4087 13.3679 4.88258 12.2426 3.75736C11.1174 2.63214 9.5913 2 8 2M14 8C14 8.78793 13.8448 9.56815 13.5433 10.2961C13.2417 11.0241 12.7998 11.6855 12.2426 12.2426C11.6855 12.7998 11.0241 13.2417 10.2961 13.5433C9.56815 13.8448 8.78793 14 8 14M14 8C13.3333 8.66667 11.3333 9.33333 8 9.33333C4.66667 9.33333 2.66667 8.66667 2 8M8 2C6.4087 2 4.88258 2.63214 3.75736 3.75736C2.63214 4.88258 2 6.4087 2 8M8 2C9.288 2 10.3333 4.68667 10.3333 8C10.3333 11.3133 9.288 14 8 14M8 2C6.712 2 5.66667 4.68667 5.66667 8C5.66667 11.3133 6.712 14 8 14M8 14C6.4087 14 4.88258 13.3679 3.75736 12.2426C3.20021 11.6855 2.75825 11.0241 2.45672 10.2961C2.15519 9.56815 2 8.78793 2 8" stroke="#7D7D7D"/>
</svg>
