<svg width="46" height="47" viewBox="0 0 46 47" fill="none" xmlns="http://www.w3.org/2000/svg">
<g clip-path="url(#clip0_6192_98386)" filter="url(#filter0_d_6192_98386)">
<g filter="url(#filter1_d_6192_98386)">
<path d="M37.7656 22.375C37.1224 22.375 36.244 22.7039 35.2334 23.2783C34.2409 23.8424 33.1895 24.6031 32.2188 25.377C29.8888 27.2347 27.8396 29.4249 26.2324 31.918L25.917 32.4209C25.2949 33.4397 24.6919 34.5584 24.2451 35.6621C23.7961 36.7713 23.5186 37.8338 23.5186 38.75H22.4814C22.4814 37.8338 22.2039 36.7713 21.7549 35.6621C21.4198 34.8344 20.997 33.9981 20.5439 33.2021L20.083 32.4209C18.4322 29.7187 16.2665 27.3586 13.7812 25.377C12.8105 24.6031 11.7591 23.8424 10.7666 23.2783C9.75602 22.7039 8.87762 22.375 8.23438 22.375V21.375C9.15207 21.375 10.2228 21.8192 11.2607 22.4092C12.3167 23.0094 13.4135 23.8049 14.4043 24.5947C16.9701 26.6405 19.218 29.0864 20.9365 31.8994C21.5757 32.9463 22.2077 34.1154 22.6816 35.2861C22.7972 35.5717 22.9044 35.8598 23 36.1475C23.0956 35.8598 23.2028 35.5717 23.3184 35.2861C23.7923 34.1154 24.4243 32.9463 25.0635 31.8994C26.782 29.0864 29.0299 26.6405 31.5957 24.5947C32.5865 23.8049 33.6833 23.0094 34.7393 22.4092C35.7772 21.8192 36.8479 21.375 37.7656 21.375V22.375ZM37.7656 8C37.1224 8 36.244 8.32892 35.2334 8.90332C34.2409 9.46745 33.1895 10.2281 32.2188 11.002C29.8888 12.8597 27.8396 15.0499 26.2324 17.543L25.917 18.0459C25.2949 19.0647 24.6919 20.1834 24.2451 21.2871C23.7961 22.3963 23.5186 23.4588 23.5186 24.375H22.4814C22.4814 23.4588 22.2039 22.3963 21.7549 21.2871C21.4198 20.4594 20.997 19.6231 20.5439 18.8271L20.083 18.0459C18.4322 15.3437 16.2665 12.9836 13.7812 11.002C12.8105 10.2281 11.7591 9.46745 10.7666 8.90332C9.75602 8.32892 8.87762 8 8.23438 8V7C9.15207 7 10.2228 7.44421 11.2607 8.03418C12.3167 8.63438 13.4135 9.42991 14.4043 10.2197C16.9701 12.2655 19.218 14.7114 20.9365 17.5244C21.5757 18.5713 22.2077 19.7404 22.6816 20.9111C22.7972 21.1967 22.9044 21.4848 23 21.7725C23.0956 21.4848 23.2028 21.1967 23.3184 20.9111C23.7923 19.7404 24.4243 18.5713 25.0635 17.5244C26.782 14.7114 29.0299 12.2655 31.5957 10.2197C32.5865 9.42991 33.6833 8.63438 34.7393 8.03418C35.7772 7.44421 36.8479 7 37.7656 7V8Z" fill="white"/>
</g>
</g>
<defs>
<filter id="filter0_d_6192_98386" x="-3.5" y="0" width="53" height="53" filterUnits="userSpaceOnUse" color-interpolation-filters="sRGB">
<feFlood flood-opacity="0" result="BackgroundImageFix"/>
<feColorMatrix in="SourceAlpha" type="matrix" values="0 0 0 0 0 0 0 0 0 0 0 0 0 0 0 0 0 0 127 0" result="hardAlpha"/>
<feOffset dy="4"/>
<feGaussianBlur stdDeviation="2"/>
<feComposite in2="hardAlpha" operator="out"/>
<feColorMatrix type="matrix" values="0 0 0 0 1 0 0 0 0 1 0 0 0 0 1 0 0 0 0.25 0"/>
<feBlend mode="normal" in2="BackgroundImageFix" result="effect1_dropShadow_6192_98386"/>
<feBlend mode="normal" in="SourceGraphic" in2="effect1_dropShadow_6192_98386" result="shape"/>
</filter>
<filter id="filter1_d_6192_98386" x="-7.76562" y="-9" width="61.5312" height="63.75" filterUnits="userSpaceOnUse" color-interpolation-filters="sRGB">
<feFlood flood-opacity="0" result="BackgroundImageFix"/>
<feColorMatrix in="SourceAlpha" type="matrix" values="0 0 0 0 0 0 0 0 0 0 0 0 0 0 0 0 0 0 127 0" result="hardAlpha"/>
<feOffset/>
<feGaussianBlur stdDeviation="8"/>
<feComposite in2="hardAlpha" operator="out"/>
<feColorMatrix type="matrix" values="0 0 0 0 1 0 0 0 0 1 0 0 0 0 1 0 0 0 1 0"/>
<feBlend mode="normal" in2="BackgroundImageFix" result="effect1_dropShadow_6192_98386"/>
<feBlend mode="normal" in="SourceGraphic" in2="effect1_dropShadow_6192_98386" result="shape"/>
</filter>
<clipPath id="clip0_6192_98386">
<rect width="45" height="45" fill="white" transform="translate(0.5)"/>
</clipPath>
</defs>
</svg>
