<svg width="16" height="16" viewBox="0 0 16 16" fill="none" xmlns="http://www.w3.org/2000/svg">
<path d="M11.25 12.1235V10C11.25 10 10 9.25 8 9.25C6 9.25 4.75 10 4.75 10V12.1235M2.75 8C2.75 5.1005 5.1005 2.75 8 2.75C10.8995 2.75 13.25 5.1005 13.25 8C13.25 10.8995 10.8995 13.25 8 13.25C5.1005 13.25 2.75 10.8995 2.75 8ZM7.963 8.25C7.963 8.25 6.25 7.34 6.25 6C6.25 5.0335 7.0345 4.25 8.002 4.25C8.23174 4.24993 8.45923 4.29517 8.67147 4.38312C8.88371 4.47106 9.07652 4.6 9.23888 4.76254C9.40123 4.92508 9.52995 5.11804 9.61765 5.33038C9.70535 5.54272 9.75033 5.77026 9.75 6C9.75 7.34 8.037 8.25 8.037 8.25H7.963Z" stroke="#7D7D7D"/>
</svg>
