<svg width="16" height="16" viewBox="0 0 16 16" fill="none" xmlns="http://www.w3.org/2000/svg">
<path d="M3.43503 8.86752H3.15135M3.43503 8.86752C3.43503 9.44447 3.22582 9.99779 2.8534 10.4058C2.48099 10.8137 1.97589 11.0429 1.44922 11.0429M3.43503 8.86752H9.67617V9.17829C9.67617 9.67282 9.49684 10.1471 9.17763 10.4968C8.85842 10.8465 8.42547 11.0429 7.97404 11.0429H5.98823H9.95986L12.1295 10.0528C12.495 9.88611 12.887 9.80014 13.283 9.79983H13.3641C13.7403 9.79983 14.1011 9.96354 14.3671 10.2549C14.6331 10.5463 14.7826 10.9416 14.7826 11.3537L9.39248 13.8398H1.44922M7.12298 4.51673H8.25773M8.25773 4.51673H9.39248M8.25773 4.51673V3.27365M8.25773 4.51673V5.75982M5.9173 4.52357C5.9173 6.02024 6.96525 7.00289 8.25773 7.00289C9.55021 7.00289 10.5982 6.02086 10.5982 4.52357C10.5982 3.90016 10.5272 3.58429 10.2435 2.96322C9.67617 2.03043 7.83867 1.0904 6.51191 2.75155C6.1312 3.19285 5.9173 3.90079 5.9173 4.52419V4.52357Z" stroke="#7D7D7D" stroke-width="0.75"/>
</svg>
