<svg width="17" height="16" viewBox="0 0 17 16" fill="none" xmlns="http://www.w3.org/2000/svg">
<g clip-path="url(#clip0_6280_1454)">
<path d="M8.50004 5V11.3333M8.50004 5C8.50004 4.46957 8.28933 3.96086 7.91425 3.58579C7.53918 3.21071 7.03047 3 6.50004 3H1.83337V3.72333C1.83334 6.78739 1.49801 9.84223 0.833374 12.8333V13H6.50004C7.03047 13 7.53918 13.2107 7.91425 13.5858C8.28933 13.9609 8.50004 14.4696 8.50004 15M8.50004 5C8.50004 4.46957 8.71075 3.96086 9.08583 3.58579C9.4609 3.21071 9.96961 3 10.5 3H15.1667V3.72333C15.1667 6.78733 15.502 9.84267 16.1667 12.8333V13H10.5C9.96961 13 9.4609 13.2107 9.08583 13.5858C8.71075 13.9609 8.50004 14.4696 8.50004 15M8.50004 15V15.3333" stroke="#7D7D7D"/>
</g>
<defs>
<clipPath id="clip0_6280_1454">
<rect width="16" height="16" fill="white" transform="translate(0.5)"/>
</clipPath>
</defs>
</svg>
