<svg width="377" height="183" viewBox="0 0 377 183" fill="none" xmlns="http://www.w3.org/2000/svg">
<path d="M246.334 182.812C195.938 182.812 154.928 141.802 154.928 91.4061C154.928 66.9893 164.432 44.0402 181.7 26.7721C198.968 9.50396 221.918 0 246.334 0C296.73 0 337.74 40.9984 337.74 91.4061C337.74 141.814 296.742 182.812 246.334 182.812ZM246.334 1.4676C222.308 1.4676 199.726 10.8177 182.73 27.8136C165.746 44.7976 156.384 67.3917 156.384 91.4179C156.384 141.009 196.731 181.356 246.323 181.356C295.914 181.356 336.261 141.009 336.261 91.4179C336.261 41.8269 295.914 1.47945 246.323 1.47945" fill="white"/>
<path d="M259.283 182.812C208.887 182.812 167.876 141.802 167.876 91.4061C167.876 66.9893 177.38 44.0402 194.649 26.7721C211.917 9.50396 234.866 0 259.283 0C309.678 0 350.689 40.9984 350.689 91.4061C350.689 141.814 309.69 182.812 259.283 182.812ZM259.283 1.4676C235.256 1.4676 212.674 10.8177 195.678 27.8136C178.682 44.8095 169.332 67.3917 169.332 91.4179C169.332 141.009 209.68 181.356 259.271 181.356C308.862 181.356 349.209 141.009 349.209 91.4179C349.209 41.8269 308.862 1.47945 259.271 1.47945" fill="white"/>
<path d="M272.231 182.812C221.835 182.812 180.825 141.802 180.825 91.4061C180.825 66.9893 190.329 44.0402 207.597 26.7721C224.865 9.50396 247.814 0 272.231 0C322.627 0 363.637 40.9984 363.637 91.4061C363.637 141.814 322.638 182.812 272.231 182.812ZM272.231 1.4676C248.205 1.4676 225.622 10.8177 208.626 27.8136C191.631 44.8095 182.28 67.3917 182.28 91.4179C182.28 141.009 222.628 181.356 272.219 181.356C321.81 181.356 362.157 141.009 362.157 91.4179C362.157 41.8269 321.81 1.47945 272.219 1.47945" fill="white"/>
<path d="M285.179 182.812C234.783 182.812 193.773 141.802 193.773 91.4061C193.773 41.0102 234.771 0 285.179 0C335.587 0 376.585 40.9984 376.585 91.4061C376.585 141.814 335.587 182.812 285.179 182.812ZM285.179 1.4676C235.588 1.4676 195.241 41.815 195.241 91.4061C195.241 140.997 235.588 181.345 285.179 181.345C334.77 181.345 375.118 140.997 375.118 91.4061C375.118 41.815 334.77 1.4676 285.179 1.4676Z" fill="white"/>
<path d="M195.441 182.812C145.045 182.812 104.035 141.814 104.035 91.4061C104.035 40.9984 145.034 0 195.441 0C245.837 0 286.847 41.0102 286.847 91.4061C286.847 141.802 245.849 182.812 195.441 182.812ZM195.441 1.4676C145.85 1.4676 105.503 41.815 105.503 91.4061C105.503 140.997 145.85 181.345 195.441 181.345C245.032 181.345 285.38 140.997 285.38 91.4061C285.38 41.815 245.032 1.4676 195.441 1.4676Z" fill="white"/>
<path d="M208.389 182.812C157.993 182.812 116.983 141.814 116.983 91.4061C116.983 40.9984 157.981 0 208.389 0C258.785 0 299.795 41.0102 299.795 91.4061C299.795 141.802 258.797 182.812 208.389 182.812ZM208.389 1.4676C158.798 1.4676 118.451 41.815 118.451 91.4061C118.451 140.997 158.798 181.345 208.389 181.345C257.98 181.345 298.328 140.997 298.328 91.4061C298.328 41.815 257.98 1.4676 208.389 1.4676Z" fill="white"/>
<path d="M221.338 182.812C170.942 182.812 129.932 141.814 129.932 91.4061C129.932 40.9984 170.93 0 221.338 0C271.734 0 312.744 41.0102 312.744 91.4061C312.744 141.802 271.745 182.812 221.338 182.812ZM221.338 1.4676C171.747 1.4676 131.399 41.815 131.399 91.4061C131.399 140.997 171.747 181.345 221.338 181.345C270.929 181.345 311.276 140.997 311.276 91.4061C311.276 41.815 270.929 1.4676 221.338 1.4676Z" fill="white"/>
<path d="M234.286 182.812C183.89 182.812 142.88 141.814 142.88 91.4061C142.88 40.9984 183.878 0 234.286 0C284.682 0 325.692 41.0102 325.692 91.4061C325.692 141.802 284.694 182.812 234.286 182.812ZM234.286 1.4676C184.695 1.4676 144.347 41.815 144.347 91.4061C144.347 140.997 184.695 181.345 234.286 181.345C283.877 181.345 324.224 140.997 324.224 91.4061C324.224 41.815 283.877 1.4676 234.286 1.4676Z" fill="white"/>
<path d="M143.163 182.812C92.7676 182.812 51.7573 141.814 51.7573 91.4061C51.7573 40.9984 92.7557 0 143.163 0C193.571 0 234.57 40.9984 234.57 91.4061C234.57 141.814 193.571 182.812 143.163 182.812ZM143.163 1.4676C93.5724 1.4676 53.2249 41.815 53.2249 91.4061C53.2249 140.997 93.5724 181.345 143.163 181.345C192.754 181.345 233.102 140.997 233.102 91.4061C233.102 41.815 192.754 1.4676 143.163 1.4676Z" fill="white"/>
<path d="M156.112 182.812C105.716 182.812 64.7056 141.814 64.7056 91.4061C64.7056 40.9984 105.704 0 156.112 0C206.519 0 247.518 40.9984 247.518 91.4061C247.518 141.814 206.519 182.812 156.112 182.812ZM156.112 1.4676C106.521 1.4676 66.1732 41.815 66.1732 91.4061C66.1732 140.997 106.521 181.345 156.112 181.345C205.703 181.345 246.05 140.997 246.05 91.4061C246.05 41.815 205.703 1.4676 156.112 1.4676Z" fill="white"/>
<path d="M169.06 182.812C118.664 182.812 77.6538 141.814 77.6538 91.4061C77.6538 40.9984 118.652 0 169.06 0C219.468 0 260.466 40.9984 260.466 91.4061C260.466 141.814 219.468 182.812 169.06 182.812ZM169.06 1.4676C119.469 1.4676 79.1214 41.815 79.1214 91.4061C79.1214 140.997 119.469 181.345 169.06 181.345C218.651 181.345 258.998 140.997 258.998 91.4061C258.998 41.815 218.651 1.4676 169.06 1.4676Z" fill="white"/>
<path d="M182.009 182.812C131.613 182.812 90.6025 141.814 90.6025 91.4061C90.6025 40.9984 131.601 0 182.009 0C232.416 0 273.415 40.9984 273.415 91.4061C273.415 141.814 232.416 182.812 182.009 182.812ZM182.009 1.4676C132.418 1.4676 92.0701 41.815 92.0701 91.4061C92.0701 140.997 132.418 181.345 182.009 181.345C231.6 181.345 271.947 140.997 271.947 91.4061C271.947 41.815 231.6 1.4676 182.009 1.4676Z" fill="white"/>
<path d="M91.8211 182.812C41.4253 182.812 0.415039 141.814 0.415039 91.4061C0.415039 40.9984 41.4135 0 91.8211 0C142.229 0 183.227 40.9984 183.227 91.4061C183.227 141.814 142.229 182.812 91.8211 182.812ZM91.8211 1.4676C42.2301 1.4676 1.88265 41.815 1.88265 91.4061C1.88265 140.997 42.2301 181.345 91.8211 181.345C141.412 181.345 181.76 140.997 181.76 91.4061C181.76 41.815 141.412 1.4676 91.8211 1.4676Z" fill="white"/>
<path d="M104.769 182.812C80.3526 182.812 57.4034 173.308 40.1353 156.04C22.8672 138.772 13.3633 115.823 13.3633 91.4061C13.3633 41.0102 54.3617 0 104.769 0C155.177 0 196.175 40.9984 196.175 91.4061C196.175 141.814 155.177 182.812 104.769 182.812ZM104.769 1.4676C55.1783 1.4676 14.8309 41.815 14.8309 91.4061C14.8309 115.432 24.181 138.015 41.1769 155.01C58.1609 171.994 80.755 181.356 104.781 181.356C154.372 181.356 194.72 141.009 194.72 91.4179C194.72 41.8269 154.372 1.47945 104.781 1.47945" fill="white"/>
<path d="M117.717 182.812C67.3213 182.812 26.311 141.814 26.311 91.4061C26.311 40.9984 67.3095 0 117.717 0C168.125 0 209.123 40.9984 209.123 91.4061C209.123 141.814 168.125 182.812 117.717 182.812ZM117.717 1.4676C68.1261 1.4676 27.7787 41.815 27.7787 91.4061C27.7787 140.997 68.1261 181.345 117.717 181.345C167.308 181.345 207.656 140.997 207.656 91.4061C207.656 41.815 167.308 1.4676 117.717 1.4676Z" fill="white"/>
<path d="M130.665 182.812C80.269 182.812 39.2588 141.814 39.2588 91.4061C39.2588 40.9984 80.2572 0 130.665 0C181.073 0 222.071 40.9984 222.071 91.4061C222.071 141.814 181.073 182.812 130.665 182.812ZM130.665 1.4676C81.0738 1.4676 40.7264 41.815 40.7264 91.4061C40.7264 140.997 81.0738 181.345 130.665 181.345C180.256 181.345 220.603 140.997 220.603 91.4061C220.603 41.815 180.256 1.4676 130.665 1.4676Z" fill="white"/>
</svg>
