<svg width="1610" height="208" viewBox="0 0 1610 208" fill="none" xmlns="http://www.w3.org/2000/svg">
<path d="M101 208H0V178.353H33.2343V29.6469H0V0H101V29.6469H66.6324V178.353H101V208Z" fill="#6DFFA3"/>
<path d="M267.986 208H225.536L170.772 123.842H155.538V208H122V0H191.668C214.895 0 232.926 5.2337 245.787 15.7011C258.635 26.1686 265.066 41.6539 265.066 62.1572C265.066 71.2892 263.626 79.3421 260.774 86.3024C257.908 93.2628 253.863 99.2384 248.626 104.229C243.388 109.22 237.286 113.186 230.321 116.1C223.355 119.027 215.814 121.01 207.724 122.075L268 207.987L267.986 208ZM231.527 61.5097C231.527 50.8804 227.99 42.9084 220.915 37.6072C213.84 32.2926 204.091 29.6353 191.668 29.6353H155.538V93.8698H191.668C204.091 93.8698 213.84 91.2125 220.915 85.8978C227.99 80.5831 231.527 72.4493 231.527 61.5097Z" fill="#6DFFA3"/>
<path d="M412 207.987H277V0H310.507V178.353H412V208V207.987Z" fill="#6DFFA3"/>
<path d="M1308 208C1250.66 208 1204 161.339 1204 104C1204 76.2191 1214.81 50.108 1234.46 30.4607C1254.11 10.8134 1280.22 0 1308 0C1365.34 0 1412 46.6471 1412 104C1412 161.353 1365.35 208 1308 208ZM1308 1.6698C1280.66 1.6698 1254.97 12.3082 1235.63 31.6457C1216.31 50.9698 1205.66 76.6769 1205.66 104.013C1205.66 160.437 1251.56 206.344 1307.99 206.344C1364.41 206.344 1410.32 160.437 1410.32 104.013C1410.32 47.5898 1364.41 1.68328 1307.99 1.68328" fill="#6DFFA3"/>
<path d="M1374 208C1316.66 208 1270 161.339 1270 104C1270 76.2191 1280.81 50.108 1300.46 30.4607C1320.11 10.8134 1346.22 0 1374 0C1431.34 0 1478 46.6471 1478 104C1478 161.353 1431.35 208 1374 208ZM1374 1.6698C1346.66 1.6698 1320.97 12.3082 1301.63 31.6457C1282.29 50.9833 1271.66 76.6769 1271.66 104.013C1271.66 160.437 1317.56 206.344 1373.99 206.344C1430.41 206.344 1476.32 160.437 1476.32 104.013C1476.32 47.5898 1430.41 1.68328 1373.99 1.68328" fill="#6DFFA3"/>
<path d="M1440 208C1382.66 208 1336 161.339 1336 104C1336 76.2191 1346.81 50.108 1366.46 30.4607C1386.11 10.8134 1412.22 0 1440 0C1497.34 0 1544 46.6471 1544 104C1544 161.353 1497.35 208 1440 208ZM1440 1.6698C1412.66 1.6698 1386.97 12.3082 1367.63 31.6457C1348.29 50.9833 1337.66 76.6769 1337.66 104.013C1337.66 160.437 1383.56 206.344 1439.99 206.344C1496.41 206.344 1542.32 160.437 1542.32 104.013C1542.32 47.5898 1496.41 1.68328 1439.99 1.68328" fill="#6DFFA3"/>
<path d="M1506 208C1448.66 208 1402 161.339 1402 104C1402 46.6606 1448.65 0 1506 0C1563.35 0 1610 46.6471 1610 104C1610 161.353 1563.35 208 1506 208ZM1506 1.6698C1449.58 1.6698 1403.67 47.5763 1403.67 104C1403.67 160.424 1449.58 206.33 1506 206.33C1562.42 206.33 1608.33 160.424 1608.33 104C1608.33 47.5763 1562.42 1.6698 1506 1.6698Z" fill="#6DFFA3"/>
<path d="M1044 208C986.661 208 940 161.353 940 104C940 46.6471 986.647 0 1044 0C1101.34 0 1148 46.6606 1148 104C1148 161.339 1101.35 208 1044 208ZM1044 1.6698C987.576 1.6698 941.67 47.5763 941.67 104C941.67 160.424 987.576 206.33 1044 206.33C1100.42 206.33 1146.33 160.424 1146.33 104C1146.33 47.5763 1100.42 1.6698 1044 1.6698Z" fill="#6DFFA3"/>
<path d="M1110 208C1052.66 208 1006 161.353 1006 104C1006 46.6471 1052.65 0 1110 0C1167.34 0 1214 46.6606 1214 104C1214 161.339 1167.35 208 1110 208ZM1110 1.6698C1053.58 1.6698 1007.67 47.5763 1007.67 104C1007.67 160.424 1053.58 206.33 1110 206.33C1166.42 206.33 1212.33 160.424 1212.33 104C1212.33 47.5763 1166.42 1.6698 1110 1.6698Z" fill="#6DFFA3"/>
<path d="M1176 208C1118.66 208 1072 161.353 1072 104C1072 46.6471 1118.65 0 1176 0C1233.34 0 1280 46.6606 1280 104C1280 161.339 1233.35 208 1176 208ZM1176 1.6698C1119.58 1.6698 1073.67 47.5763 1073.67 104C1073.67 160.424 1119.58 206.33 1176 206.33C1232.42 206.33 1278.33 160.424 1278.33 104C1278.33 47.5763 1232.42 1.6698 1176 1.6698Z" fill="#6DFFA3"/>
<path d="M1242 208C1184.66 208 1138 161.353 1138 104C1138 46.6471 1184.65 0 1242 0C1299.34 0 1346 46.6606 1346 104C1346 161.339 1299.35 208 1242 208ZM1242 1.6698C1185.58 1.6698 1139.67 47.5763 1139.67 104C1139.67 160.424 1185.58 206.33 1242 206.33C1298.42 206.33 1344.33 160.424 1344.33 104C1344.33 47.5763 1298.42 1.6698 1242 1.6698Z" fill="#6DFFA3"/>
<path d="M780 208C722.661 208 676 161.353 676 104C676 46.6471 722.647 0 780 0C837.353 0 884 46.6471 884 104C884 161.353 837.353 208 780 208ZM780 1.6698C723.576 1.6698 677.67 47.5763 677.67 104C677.67 160.424 723.576 206.33 780 206.33C836.424 206.33 882.33 160.424 882.33 104C882.33 47.5763 836.424 1.6698 780 1.6698Z" fill="#6DFFA3"/>
<path d="M846 208C788.661 208 742 161.353 742 104C742 46.6471 788.647 0 846 0C903.353 0 950 46.6471 950 104C950 161.353 903.353 208 846 208ZM846 1.6698C789.576 1.6698 743.67 47.5763 743.67 104C743.67 160.424 789.576 206.33 846 206.33C902.424 206.33 948.33 160.424 948.33 104C948.33 47.5763 902.424 1.6698 846 1.6698Z" fill="#6DFFA3"/>
<path d="M912 208C854.661 208 808 161.353 808 104C808 46.6471 854.647 0 912 0C969.353 0 1016 46.6471 1016 104C1016 161.353 969.353 208 912 208ZM912 1.6698C855.576 1.6698 809.67 47.5763 809.67 104C809.67 160.424 855.576 206.33 912 206.33C968.424 206.33 1014.33 160.424 1014.33 104C1014.33 47.5763 968.424 1.6698 912 1.6698Z" fill="#6DFFA3"/>
<path d="M978 208C920.661 208 874 161.353 874 104C874 46.6471 920.647 0 978 0C1035.35 0 1082 46.6471 1082 104C1082 161.353 1035.35 208 978 208ZM978 1.6698C921.576 1.6698 875.67 47.5763 875.67 104C875.67 160.424 921.576 206.33 978 206.33C1034.42 206.33 1080.33 160.424 1080.33 104C1080.33 47.5763 1034.42 1.6698 978 1.6698Z" fill="#6DFFA3"/>
<path d="M516 208C458.661 208 412 161.353 412 104C412 46.6471 458.647 0 516 0C573.353 0 620 46.6471 620 104C620 161.353 573.353 208 516 208ZM516 1.6698C459.576 1.6698 413.67 47.5763 413.67 104C413.67 160.424 459.576 206.33 516 206.33C572.424 206.33 618.33 160.424 618.33 104C618.33 47.5763 572.424 1.6698 516 1.6698Z" fill="#6DFFA3"/>
<path d="M582 208C554.219 208 528.108 197.187 508.461 177.539C488.813 157.892 478 131.781 478 104C478 46.6606 524.647 0 582 0C639.353 0 686 46.6471 686 104C686 161.353 639.353 208 582 208ZM582 1.6698C525.576 1.6698 479.67 47.5763 479.67 104C479.67 131.337 490.308 157.03 509.646 176.368C528.97 195.692 554.677 206.344 582.013 206.344C638.437 206.344 684.344 160.437 684.344 104.013C684.344 47.5898 638.437 1.68328 582.013 1.68328" fill="#6DFFA3"/>
<path d="M648 208C590.661 208 544 161.353 544 104C544 46.6471 590.647 0 648 0C705.353 0 752 46.6471 752 104C752 161.353 705.353 208 648 208ZM648 1.6698C591.576 1.6698 545.67 47.5763 545.67 104C545.67 160.424 591.576 206.33 648 206.33C704.424 206.33 750.33 160.424 750.33 104C750.33 47.5763 704.424 1.6698 648 1.6698Z" fill="#6DFFA3"/>
<path d="M714 208C656.661 208 610 161.353 610 104C610 46.6471 656.647 0 714 0C771.353 0 818 46.6471 818 104C818 161.353 771.353 208 714 208ZM714 1.6698C657.576 1.6698 611.67 47.5763 611.67 104C611.67 160.424 657.576 206.33 714 206.33C770.424 206.33 816.33 160.424 816.33 104C816.33 47.5763 770.424 1.6698 714 1.6698Z" fill="#6DFFA3"/>
</svg>
