<svg width="49" height="26" viewBox="0 0 49 26" fill="none" xmlns="http://www.w3.org/2000/svg">
<path d="M12.046 25.5583H0V21.9777H3.96417V4.02229H0V0.44165H12.046V4.02229H7.94678V21.9777H12.046V25.5583Z" fill="white"/>
<path d="M31.8611 25.5583H26.82L20.3153 15.3963H18.505V25.5583H14.5225V0.44165H22.7975C25.5559 0.44165 27.6975 1.07371 29.2255 2.33783C30.7535 3.60195 31.5144 5.47051 31.5144 7.94659C31.5144 9.05116 31.3426 10.0207 31.0051 10.8614C30.6645 11.7021 30.1828 12.4232 29.56 13.0276C28.9371 13.6321 28.213 14.1076 27.3846 14.4605C26.5561 14.8133 25.6633 15.0527 24.6998 15.1815L31.8581 25.5553L31.8611 25.5583ZM27.5288 7.86988C27.5288 6.58735 27.1084 5.62392 26.2677 4.98266C25.427 4.34139 24.2672 4.01923 22.7945 4.01923H18.502V11.7758H22.7945C24.2703 11.7758 25.427 11.4536 26.2677 10.8123C27.1084 10.1711 27.5288 9.18923 27.5288 7.86681" fill="white"/>
<path d="M49.0004 25.5583H32.9473V0.44165H36.9329V21.9777H49.0004V25.5583Z" fill="white"/>
</svg>
