<svg width="376" height="216" viewBox="0 0 376 216" fill="none" xmlns="http://www.w3.org/2000/svg">
<path d="M375 207.2C375 321.064 291.189 413.2 188 413.2C84.8112 413.2 1 321.064 1 207.2C1 93.3368 84.8112 1.2002 188 1.2002C291.189 1.2002 375 93.3368 375 207.2Z" stroke="#FDFFFF" stroke-width="2"/>
<path d="M375 228.7C375 342.285 291.191 434.2 188 434.2C84.809 434.2 1 342.285 1 228.7C1 115.115 84.809 23.2002 188 23.2002C291.191 23.2002 375 115.115 375 228.7Z" stroke="#FDFFFF" stroke-width="2"/>
<path d="M375 251.7C375 365.285 291.191 457.2 188 457.2C84.809 457.2 1 365.285 1 251.7C1 138.115 84.809 46.2002 188 46.2002C291.191 46.2002 375 138.115 375 251.7Z" stroke="#FDFFFF" stroke-width="2"/>
<path d="M375 272.7C375 386.285 291.191 478.2 188 478.2C84.809 478.2 1 386.285 1 272.7C1 159.115 84.809 67.2002 188 67.2002C291.191 67.2002 375 159.115 375 272.7Z" stroke="#FDFFFF" stroke-width="2"/>
<path d="M375 294.2C375 408.064 291.189 500.2 188 500.2C84.8112 500.2 1 408.064 1 294.2C1 180.337 84.8112 88.2002 188 88.2002C291.189 88.2002 375 180.337 375 294.2Z" stroke="#FDFFFF" stroke-width="2"/>
<path d="M173.076 178.401H158V173.925H162.962V151.476H158V147H173.076V151.476H167.941V173.925H173.076V178.401Z" fill="#FDFFFF"/>
<path d="M197.831 178.401H191.533L183.397 165.702H181.141V178.401H176.162V147H186.502C189.954 147 192.626 147.798 194.534 149.377C196.443 150.956 197.397 153.298 197.397 156.386C197.397 157.774 197.189 158.988 196.755 160.029C196.339 161.087 195.732 161.989 194.951 162.735C194.17 163.481 193.268 164.088 192.227 164.522C191.186 164.973 190.076 165.268 188.879 165.424L197.831 178.401ZM192.418 156.282C192.418 154.685 191.897 153.471 190.839 152.673C189.781 151.875 188.341 151.476 186.502 151.476H181.141V161.174H186.502C188.341 161.174 189.798 160.775 190.839 159.977C191.88 159.179 192.418 157.947 192.418 156.299" fill="#FDFFFF"/>
<path d="M219.258 178.401H199.203V147H204.165V173.925H219.258V178.401Z" fill="#FDFFFF"/>
</svg>
