<svg width="16" height="16" viewBox="0 0 16 16" fill="none" xmlns="http://www.w3.org/2000/svg">
<path d="M7.625 13.25V10.4345C6.9355 10.3835 6.33575 10.1337 5.82575 9.68525C5.31575 9.23675 4.99625 8.67225 4.86725 7.99175C4.07375 7.89825 3.3975 7.573 2.8385 7.016C2.2795 6.459 2 5.787 2 5V4.71125C2 4.37825 2.11875 4.09325 2.35625 3.85625C2.59375 3.61925 2.87875 3.5005 3.21125 3.5H4.7405V3.21125C4.7405 2.87825 4.859 2.59325 5.096 2.35625C5.3335 2.11875 5.619 2 5.9525 2H10.049C10.382 2 10.667 2.11875 10.904 2.35625C11.1415 2.59325 11.2603 2.87825 11.2603 3.21125V3.5H12.7895C13.1225 3.5 13.4075 3.61875 13.6445 3.85625C13.8815 4.09375 14 4.37875 14 4.71125V5C14 5.7865 13.7205 6.4585 13.1615 7.016C12.6025 7.5735 11.9263 7.8985 11.1328 7.991C11.0038 8.672 10.6843 9.23675 10.1743 9.68525C9.66425 10.1337 9.0645 10.3837 8.375 10.4353V13.25H10.337C10.443 13.25 10.532 13.286 10.604 13.358C10.676 13.43 10.712 13.5193 10.712 13.6258C10.712 13.7323 10.676 13.8212 10.604 13.8927C10.532 13.9643 10.443 14 10.337 14H5.66375C5.55725 14 5.468 13.964 5.396 13.892C5.324 13.82 5.28825 13.7308 5.28875 13.6243C5.28925 13.5177 5.325 13.4288 5.396 13.3573C5.467 13.2858 5.55625 13.25 5.66375 13.25H7.625ZM4.7405 7.187V4.25H3.21125C3.07675 4.25 2.96625 4.29325 2.87975 4.37975C2.79325 4.46625 2.75 4.577 2.75 4.712V5C2.75 5.5615 2.9405 6.04975 3.3215 6.46475C3.702 6.87975 4.175 7.1205 4.7405 7.187ZM8.003 9.70175C8.693 9.70175 9.2785 9.4605 9.7595 8.978C10.2405 8.496 10.481 7.91025 10.481 7.22075V3.212C10.481 3.077 10.4375 2.96625 10.3505 2.87975C10.2645 2.79325 10.154 2.75 10.019 2.75H5.981C5.846 2.75 5.7355 2.79325 5.6495 2.87975C5.5625 2.96625 5.519 3.077 5.519 3.212V7.2215C5.519 7.9105 5.7605 8.49625 6.2435 8.97875C6.727 9.46075 7.31375 9.70175 8.00375 9.70175M11.2595 7.187C11.825 7.1205 12.2983 6.87975 12.6793 6.46475C13.0598 6.04975 13.25 5.5615 13.25 5V4.71125C13.25 4.57675 13.2067 4.46625 13.1202 4.37975C13.0337 4.29325 12.9233 4.25 12.7887 4.25H11.2595V7.187Z" fill="#7D7D7D"/>
<path d="M5.66375 13.25L5.58659 13.2565C5.51278 13.2699 5.44927 13.3036 5.396 13.3573L5.34961 13.4141C5.3095 13.4743 5.28913 13.5443 5.28875 13.6243L5.29492 13.7012C5.30816 13.7744 5.34213 13.8381 5.396 13.892C5.45004 13.946 5.51376 13.98 5.58724 13.9935L5.66375 14H10.337L10.4134 13.9935C10.4622 13.9845 10.5066 13.9663 10.5469 13.9395L10.604 13.8927C10.6579 13.8392 10.6916 13.7756 10.7051 13.7025L10.712 13.6258C10.712 13.5459 10.6915 13.4758 10.651 13.4154L10.604 13.358C10.55 13.304 10.4865 13.27 10.4134 13.2565L10.337 13.25L10.3372 13.1836C10.4599 13.1836 10.5661 13.2257 10.651 13.3105C10.7361 13.3957 10.7786 13.5024 10.7786 13.6257C10.7786 13.7489 10.7363 13.8554 10.651 13.9401C10.566 14.0246 10.4599 14.0664 10.3372 14.0664H5.66406C5.54089 14.0664 5.43405 14.0244 5.34896 13.9395C5.26375 13.8542 5.22143 13.7471 5.22201 13.6237C5.22264 13.5009 5.26493 13.3952 5.34896 13.3105C5.43337 13.2255 5.54012 13.1836 5.66406 13.1836L5.66375 13.25ZM14 5V4.71125C13.9999 4.42038 13.9093 4.16542 13.7279 3.94727L13.6445 3.85625C13.4371 3.64847 13.193 3.53184 12.9121 3.50586L12.7895 3.5L12.7897 3.43359C13.1404 3.43364 13.4421 3.55944 13.6914 3.80924C13.9407 4.05904 14.0663 4.36073 14.0664 4.71094V5C14.0664 5.80429 13.7798 6.4932 13.2083 7.06315C12.6499 7.62007 11.9757 7.94858 11.1882 8.05013C11.0508 8.72452 10.7277 9.28686 10.2181 9.73503C9.71227 10.1799 9.11934 10.4322 8.44141 10.4948V13.1836H10.3372L10.337 13.25H8.375V10.4353C8.97818 10.3902 9.5127 10.1933 9.97852 9.8444L10.1743 9.68525C10.6843 9.23675 11.0038 8.672 11.1328 7.991C11.8766 7.90427 12.5176 7.61323 13.0553 7.11784L13.1615 7.016C13.7205 6.4585 14 5.7865 14 5ZM1.93359 5V4.71094C1.93367 4.36024 2.05943 4.05856 2.30924 3.80924C2.55904 3.55997 2.86073 3.43417 3.21094 3.43359H4.67383V3.21094C4.6739 2.8603 4.79955 2.55857 5.04883 2.30924C5.29872 2.05935 5.60116 1.9336 5.95247 1.93359L5.9525 2C5.619 2 5.3335 2.11875 5.096 2.35625C4.859 2.59325 4.7405 2.87825 4.7405 3.21125V3.5H3.21125C2.87875 3.5005 2.59375 3.61925 2.35625 3.85625C2.11875 4.09325 2 4.37825 2 4.71125V5C2 5.787 2.2795 6.459 2.8385 7.016C3.3975 7.573 4.07375 7.89825 4.86725 7.99175C4.99625 8.67225 5.31575 9.23675 5.82575 9.68525C6.33575 10.1337 6.9355 10.3835 7.625 10.4345V13.25H5.66375L5.66406 13.1836H7.55859V10.4941C6.88066 10.432 6.28774 10.1799 5.7819 9.73503C5.27226 9.28682 4.94852 8.72478 4.8112 8.05078C4.02391 7.94818 3.34997 7.61943 2.79167 7.06315C2.22015 6.49368 1.93359 5.80478 1.93359 5ZM10.4141 7.2207V3.21224C10.4141 3.09303 10.3765 2.99975 10.3034 2.92708C10.2313 2.85462 10.1382 2.81641 10.0189 2.81641H5.98112C5.86183 2.81641 5.7687 2.85397 5.69661 2.92643C5.62352 2.9991 5.58594 3.09303 5.58594 3.21224V7.22135C5.58594 7.8928 5.82008 8.46179 6.29036 8.93164C6.7611 9.40092 7.3309 9.634 8.00326 9.63411C8.67566 9.63406 9.244 9.40067 9.71224 8.93099C10.1806 8.46166 10.4141 7.8928 10.4141 7.2207ZM3.21125 4.25H4.7405V7.187C4.24581 7.12877 3.82185 6.93692 3.46875 6.61198L3.3215 6.46475C2.9405 6.04975 2.75 5.5615 2.75 5V4.712C2.75 4.577 2.79325 4.46625 2.87975 4.37975C2.96625 4.29325 3.07675 4.25 3.21125 4.25ZM13.1836 4.71094C13.1835 4.59234 13.1455 4.49971 13.0729 4.42708C13.0003 4.35445 12.9077 4.31647 12.7891 4.31641H11.3262V7.10872C11.8429 7.03232 12.2771 6.80454 12.6302 6.41992C12.9995 6.01718 13.1836 5.54477 13.1836 5V4.71094ZM11.2603 3.21125C11.2602 2.92001 11.1694 2.66506 10.9876 2.44727L10.904 2.35625C10.667 2.11875 10.382 2 10.049 2L10.0488 1.93359C10.3997 1.93359 10.7018 2.05932 10.9512 2.30924L11.0391 2.40495C11.2305 2.63454 11.3268 2.90406 11.3268 3.21094V3.43359H12.7897L12.7895 3.5H11.2603V3.21125ZM10.0488 1.93359L10.049 2H5.9525L5.95247 1.93359H10.0488ZM2.81641 5C2.81641 5.54474 3.00069 6.01718 3.37044 6.41992C3.72312 6.80457 4.15711 7.03231 4.67383 7.10872V4.31641H3.21094C3.09234 4.31647 2.99971 4.35445 2.92708 4.42708C2.85444 4.49973 2.81641 4.59291 2.81641 4.71224V5ZM13.25 5C13.25 5.5615 13.0598 6.04975 12.6793 6.46475L12.5319 6.61198C12.1784 6.93694 11.7542 7.12877 11.2595 7.187V4.25H12.7887C12.9233 4.25 13.0337 4.29325 13.1202 4.37975C13.2067 4.46625 13.25 4.57675 13.25 4.71125V5ZM10.481 7.22075L10.4779 7.34896C10.4497 7.98305 10.2103 8.5262 9.7595 8.978L9.66797 9.06576C9.23562 9.46155 8.72325 9.67289 8.13086 9.69922L8.00375 9.70175C7.31375 9.70175 6.727 9.46075 6.2435 8.97875C5.7605 8.49625 5.519 7.9105 5.519 7.2215V3.212C5.519 3.11076 5.54352 3.02318 5.59245 2.94922L5.6495 2.87975C5.71392 2.81504 5.79223 2.77403 5.88411 2.75781L5.981 2.75H10.019C10.154 2.75 10.2645 2.79325 10.3505 2.87975C10.4375 2.96625 10.481 3.077 10.481 3.212V7.22075Z" fill="#7D7D7D"/>
</svg>
