<svg width="24" height="24" viewBox="0 0 24 24" fill="none" xmlns="http://www.w3.org/2000/svg">
<path d="M15.6512 12H3M11.3023 8.08696C11.3023 8.53852 11.8281 9.30939 12.2733 9.88226C12.6593 10.3867 13.1253 10.8259 13.6531 11.183C14.2279 11.5657 15.0186 12 15.6433 12C15.0186 12 14.2279 12.4351 13.6531 12.817C13.1253 13.1741 12.6593 13.6133 12.2733 14.1177C11.8281 14.6906 11.3023 15.4615 11.3023 15.913M8.93023 8.08696V4.56522H9.19037C12.6888 4.56529 16.1689 4.06579 19.5232 3.08217L19.8023 3H20V21H19.8023L19.5232 20.9178C16.1689 19.9342 12.6888 19.4347 9.19037 19.4348H8.93023V15.913" stroke="#4F4F4F"/>
</svg>
