<svg width="35" height="18" viewBox="0 0 35 18" fill="none" xmlns="http://www.w3.org/2000/svg">
<path d="M8.60397 17.97H0V15.4124H2.83146V2.58758H0V0.0300598H8.60397V2.58758H5.67608V15.4124H8.60397V17.97Z" fill="#14A64A"/>
<path d="M22.7564 17.97H19.1557L14.5097 10.7116H13.2167V17.97H10.3721V0.0300598H16.2826C18.2528 0.0300598 19.7825 0.481515 20.8739 1.38443C21.9653 2.28734 22.5088 3.62198 22.5088 5.39055C22.5088 6.17951 22.3861 6.87203 22.145 7.47251C21.9017 8.07299 21.5577 8.588 21.1128 9.01974C20.6679 9.45147 20.1507 9.79116 19.559 10.0432C18.9673 10.2952 18.3295 10.4661 17.6414 10.5582L22.7542 17.9678L22.7564 17.97ZM19.662 5.33576C19.662 4.4197 19.3617 3.73156 18.7613 3.27353C18.1608 2.8155 17.3324 2.58539 16.2805 2.58539H13.2145V8.12559H16.2805C17.3346 8.12559 18.1608 7.89548 18.7613 7.43745C19.3617 6.97942 19.662 6.27812 19.662 5.33357" fill="#14A64A"/>
<path d="M34.9993 17.97H23.5332V0.0300598H26.38V15.4124H34.9993V17.97Z" fill="#14A64A"/>
</svg>
