<svg width="294" height="36" viewBox="0 0 294 36" fill="none" xmlns="http://www.w3.org/2000/svg">
<path d="M87.0151 1.71193V3.90924H72.5575L59.8372 16.6653H87.0151V18.8626H59.8372L74.7559 33.816H71.6499L55.6429 17.7639L71.6499 1.71193H87.0151Z" fill="#302E42"/>
<path fill-rule="evenodd" clip-rule="evenodd" d="M151.492 6.41345C154.495 3.40311 158.569 1.71193 162.816 1.71193H177.735V3.90924H162.816C159.15 3.90924 155.634 5.36893 153.042 7.96719C147.644 13.3778 147.644 22.1501 153.042 27.5607C155.634 30.159 159.15 31.6186 162.816 31.6186H177.735V33.816H162.816C158.569 33.816 154.495 32.1248 151.492 29.1144C145.238 22.8457 145.238 12.6822 151.492 6.41345Z" fill="#302E42"/>
<path d="M206.666 18.8039V33.816H204.396V17.8615L220.508 1.71193H223.718L206.666 18.8039Z" fill="#302E42"/>
<path fill-rule="evenodd" clip-rule="evenodd" d="M44.149 1.71193H59.5142V3.90924H45.0566L32.3364 16.6653H59.5142V18.8626H32.3364L45.0566 31.6186H59.5142V33.816H44.149L28.1421 17.7639L44.149 1.71193Z" fill="#302E42"/>
<path fill-rule="evenodd" clip-rule="evenodd" d="M1.04293 1.71193H34.716L18.6567 17.7676L34.7038 33.816H31.5989L3.24125 5.46384V33.816H1.04293V1.71193ZM4.79569 3.90975H29.4088L17.1022 16.2135L4.79569 3.90975Z" fill="#302E42"/>
<path fill-rule="evenodd" clip-rule="evenodd" d="M92.1646 1.71193H125.838L109.778 17.7676L125.826 33.816H122.721L94.3629 5.46384V33.816H92.1646V1.71193ZM95.9174 3.90975H120.53L108.224 16.2135L95.9174 3.90975Z" fill="#302E42"/>
<path fill-rule="evenodd" clip-rule="evenodd" d="M183.876 18.8039V33.816H181.606V17.8615L195.449 3.98711H182.741V1.71193H213.636V3.98711H198.659L183.876 18.8039Z" fill="#302E42"/>
<path fill-rule="evenodd" clip-rule="evenodd" d="M237.649 3.4985C229.789 3.4985 223.417 9.88536 223.417 17.7639C223.417 25.6425 229.789 32.0294 237.649 32.0294C245.509 32.0294 251.881 25.6425 251.881 17.7639C251.881 9.88536 245.509 3.4985 237.649 3.4985ZM221.159 17.7639C221.159 8.63583 228.542 1.23604 237.649 1.23604C246.756 1.23604 254.138 8.63583 254.138 17.7639C254.138 26.892 246.756 34.2918 237.649 34.2918C228.542 34.2918 221.159 26.892 221.159 17.7639Z" fill="#302E42"/>
<path d="M258.01 1.71193L258.01 33.8153H260.566L260.566 4.26979L290.043 33.8159H293.253L293.252 33.8153H293.253L293.253 1.71193H290.697L290.697 31.2541L261.224 1.71199H260.566L258.01 1.71193Z" fill="#302E42"/>
<path fill-rule="evenodd" clip-rule="evenodd" d="M143.405 33.8153H140.849L140.849 18.8804H126.272L111.371 33.8159H108.162L140.191 1.71199H140.848L143.405 1.71193L143.405 33.8153ZM140.849 16.6474L140.848 4.26979L128.5 16.6474H140.849Z" fill="#302E42"/>
<path fill-rule="evenodd" clip-rule="evenodd" d="M293.251 33.8159L293.252 33.8159L293.253 33.8159L293.252 33.8156L293.252 33.8153H293.253L293.253 1.71193H290.697L290.697 31.2541L261.224 1.71199H260.566L258.01 1.71193L258.01 33.8153H260.566L260.566 4.26979L290.043 33.8159H293.251ZM261.296 6.03732L289.741 34.548H293.983V33.5128L293.983 0.979793H289.966L289.966 29.4865L261.526 0.979855H261.296L257.279 0.979793L257.279 34.5475H261.296L261.296 6.03732ZM87.7455 4.64138H72.8601L61.6001 15.9331H87.7455V19.5947H61.6007L76.5193 34.5481H71.3472L56.4358 19.5947H34.0992L45.3593 30.8865H60.2447V34.5481H43.8464L27.1093 17.7639L43.8464 0.979793H60.2447V4.64138H45.3593L34.0992 15.9331H56.4358L71.3472 0.979793H87.7455V4.64138ZM56.7385 16.6653H32.3364L45.0566 3.90924H59.5142V1.71193H44.149L28.1421 17.7639L44.149 33.816H59.5142V31.6186H45.0566L32.3364 18.8626H56.7385L71.6499 33.816H74.7559L59.8372 18.8626H87.0151V16.6653H59.8372L72.5575 3.90924H87.0151V1.71193H71.6499L56.7385 16.6653ZM178.465 0.979793V4.64138H162.816C159.344 4.64138 156.014 6.02393 153.558 8.48489C148.446 13.6096 148.446 21.9183 153.558 27.043C156.014 29.504 159.344 30.8865 162.816 30.8865H178.465V34.5481H162.816C158.375 34.5481 154.116 32.7798 150.975 29.6321C144.436 23.0775 144.436 12.4504 150.975 5.89575C154.116 2.74811 158.375 0.979793 162.816 0.979793H178.465ZM207.396 34.5481H203.665V17.5583L220.205 0.979793H225.481L207.396 19.1072V34.5481ZM206.666 18.8039L223.718 1.71193H220.508L204.396 17.8615V33.816H206.666V18.8039ZM0.3125 0.979793H36.4826L19.6909 17.7677L36.47 34.5481H31.2969L3.97168 7.22823V34.5481H0.3125V0.979793ZM3.24125 5.46384L31.5989 33.816H34.7038L18.6567 17.7676L34.716 1.71193H1.04293V33.816H3.24125V5.46384ZM91.4342 0.979793H127.604L110.813 17.7677L116.983 23.9386L139.888 0.979855H140.118L144.135 0.979793L144.135 34.5475H140.118L140.118 19.6126H126.574L119.624 26.5795L127.592 34.5481H122.419L117.039 29.1699L111.674 34.548H106.398L114.398 26.5294L95.0934 7.22823V34.5481H91.4342V0.979793ZM94.3629 5.46384L115.432 26.5287L108.162 33.8159H111.371L117.039 28.1352L122.721 33.816H125.826L118.59 26.5801L126.272 18.8804H140.849L140.849 33.8153H143.405L143.405 1.71193L140.848 1.71199H140.191L116.984 24.9734L109.778 17.7676L125.838 1.71193H92.1646V33.816H94.3629V5.46384ZM184.607 34.5481H180.876V17.5583L193.685 4.71924H182.011V0.979793H214.366V4.71924H198.961L184.607 19.1072V34.5481ZM183.876 18.8039L198.659 3.98711H213.636V1.71193H182.741V3.98711H195.449L181.606 17.8615V33.816H183.876V18.8039ZM162.816 1.71193C158.569 1.71193 154.495 3.40311 151.492 6.41345C145.238 12.6822 145.238 22.8457 151.492 29.1144C154.495 32.1248 158.569 33.816 162.816 33.816H177.735V31.6186H162.816C159.15 31.6186 155.634 30.159 153.042 27.5607C147.644 22.1501 147.644 13.3778 153.042 7.96719C155.634 5.36893 159.15 3.90924 162.816 3.90924H177.735V1.71193H162.816ZM4.79569 3.90975L17.1022 16.2135L29.4088 3.90975H4.79569ZM6.5623 4.64188L17.1022 15.1794L27.6422 4.64188H6.5623ZM95.9174 3.90975L108.224 16.2135L120.53 3.90975H95.9174ZM97.684 4.64188L108.224 15.1795L118.764 4.64188H97.684ZM237.649 4.23063C230.192 4.23063 224.147 10.2897 224.147 17.7639C224.147 25.2382 230.192 31.2973 237.649 31.2973C245.106 31.2973 251.151 25.2382 251.151 17.7639C251.151 10.2897 245.106 4.23063 237.649 4.23063ZM220.429 17.7639C220.429 8.23149 228.139 0.503906 237.649 0.503906C247.159 0.503906 254.869 8.23149 254.869 17.7639C254.869 27.2964 247.159 35.024 237.649 35.024C228.139 35.024 220.429 27.2964 220.429 17.7639ZM140.848 4.26979L128.5 16.6474H140.849L140.848 4.26979ZM140.118 6.03733L140.118 15.9153H130.263L140.118 6.03733ZM223.417 17.7639C223.417 9.88536 229.789 3.4985 237.649 3.4985C245.509 3.4985 251.881 9.88536 251.881 17.7639C251.881 25.6425 245.509 32.0294 237.649 32.0294C229.789 32.0294 223.417 25.6425 223.417 17.7639ZM237.649 1.23604C228.542 1.23604 221.159 8.63583 221.159 17.7639C221.159 26.892 228.542 34.2918 237.649 34.2918C246.756 34.2918 254.138 26.892 254.138 17.7639C254.138 8.63583 246.756 1.23604 237.649 1.23604Z" fill="#302E42"/>
</svg>
