<svg width="77" height="87" viewBox="0 0 77 87" fill="none" xmlns="http://www.w3.org/2000/svg">
<g filter="url(#filter0_d_6455_126061)">
<path d="M52 18.5C52 25.9558 39.1388 41.5 38.5 41.5C37.8612 41.5 25 25.9558 25 18.5C25 11.0442 31.0442 5 38.5 5C45.9558 5 52 11.0442 52 18.5Z" fill="#3B82F6"/>
<path d="M38.5 6.5C45.1274 6.5 50.5 11.8726 50.5 18.5C50.5 20.0088 49.8252 22.1222 48.6309 24.584C47.459 26.9993 45.8748 29.5749 44.251 31.9492C42.63 34.3193 40.9896 36.4596 39.7207 38.001C39.2512 38.5712 38.838 39.0528 38.5 39.4297C38.162 39.0528 37.7488 38.5712 37.2793 38.001C36.0104 36.4596 34.37 34.3193 32.749 31.9492C31.1252 29.5749 29.541 26.9993 28.3691 24.584C27.1748 22.1222 26.5 20.0088 26.5 18.5C26.5 11.8726 31.8726 6.5 38.5 6.5Z" stroke="white" stroke-width="3"/>
</g>
<defs>
<filter id="filter0_d_6455_126061" x="0.200001" y="0.200001" width="76.6" height="86.1" filterUnits="userSpaceOnUse" color-interpolation-filters="sRGB">
<feFlood flood-opacity="0" result="BackgroundImageFix"/>
<feColorMatrix in="SourceAlpha" type="matrix" values="0 0 0 0 0 0 0 0 0 0 0 0 0 0 0 0 0 0 127 0" result="hardAlpha"/>
<feOffset dy="20"/>
<feGaussianBlur stdDeviation="12.4"/>
<feComposite in2="hardAlpha" operator="out"/>
<feColorMatrix type="matrix" values="0 0 0 0 0.216667 0 0 0 0 0 0 0 0 0 1 0 0 0 0.66 0"/>
<feBlend mode="normal" in2="BackgroundImageFix" result="effect1_dropShadow_6455_126061"/>
<feBlend mode="normal" in="SourceGraphic" in2="effect1_dropShadow_6455_126061" result="shape"/>
</filter>
</defs>
</svg>
