<svg width="1726" height="244" viewBox="0 0 1726 244" fill="none" xmlns="http://www.w3.org/2000/svg">
<rect width="1726" height="244" rx="4" fill="url(#paint0_linear_4236_2360)"/>
<path d="M52.1514 168.483H68.3164C73.1151 168.483 77.2834 169.418 80.8214 171.289C84.3594 173.119 87.0637 175.64 88.9344 178.853C90.8051 182.066 91.7404 185.705 91.7404 189.772C91.7404 193.676 90.8051 197.255 88.9344 200.508C87.0637 203.721 84.3594 206.283 80.8214 208.194C77.2834 210.065 73.1151 211 68.3164 211H52.1514V168.483ZM61.5454 203.314H67.7064C70.6751 203.314 73.2371 202.745 75.3924 201.606C77.5884 200.467 79.2557 198.881 80.3944 196.848C81.5738 194.774 82.1634 192.415 82.1634 189.772C82.1634 187.129 81.5738 184.79 80.3944 182.757C79.2557 180.683 77.5884 179.077 75.3924 177.938C73.2371 176.759 70.6751 176.169 67.7064 176.169H61.5454V203.314ZM94.1151 168.483H103.509V211H94.1151V168.483ZM106.213 189.711C106.213 185.441 107.148 181.639 109.019 178.304C110.889 174.929 113.492 172.306 116.827 170.435C120.161 168.564 123.964 167.629 128.234 167.629C131.772 167.629 135.086 168.3 138.177 169.642C141.267 170.984 143.911 172.773 146.107 175.01L140.8 181.11C139.092 179.402 137.282 178.06 135.371 177.084C133.459 176.108 131.223 175.62 128.661 175.62C126.017 175.62 123.699 176.25 121.707 177.511C119.755 178.731 118.25 180.419 117.193 182.574C116.135 184.729 115.607 187.108 115.607 189.711C115.607 192.476 116.135 194.957 117.193 197.153C118.25 199.308 119.775 200.996 121.768 202.216C123.76 203.436 126.119 204.046 128.844 204.046C130.958 204.046 132.849 203.578 134.517 202.643C136.184 201.667 137.465 200.223 138.36 198.312C138.97 197.011 139.315 195.526 139.397 193.859H127.075V187.149H146.839V211H138.909C139.559 209.455 140.23 208.031 140.922 206.73C141.694 205.144 142.548 203.66 143.484 202.277L138.421 200.081C138.055 201.952 137.363 203.782 136.347 205.571C135.33 207.32 133.886 208.804 132.016 210.024C130.145 211.203 127.827 211.793 125.062 211.793C121.605 211.793 118.433 210.858 115.546 208.987C112.658 207.116 110.381 204.514 108.714 201.179C107.046 197.804 106.213 193.981 106.213 189.711ZM180.039 211.793C176.501 211.793 173.39 211.346 170.706 210.451C168.063 209.556 166.009 208.275 164.545 206.608C163.081 204.9 162.349 202.948 162.349 200.752C162.349 198.759 162.939 197.092 164.118 195.75C165.298 194.408 166.884 193.391 168.876 192.7C170.91 191.968 173.167 191.582 175.647 191.541V186.6C172.841 186.478 170.381 186.132 168.266 185.563C166.152 184.953 164.464 184.018 163.203 182.757C161.943 181.496 161.312 179.849 161.312 177.816C161.312 175.742 161.983 173.953 163.325 172.448C164.667 170.903 166.599 169.723 169.12 168.91C171.642 168.097 174.57 167.69 177.904 167.69C181.93 167.69 185.59 168.239 188.884 169.337C192.178 170.435 195.35 172.021 198.4 174.095L194.191 180.988C192.158 179.321 189.677 177.979 186.749 176.962C183.862 175.945 181.015 175.417 178.209 175.376C175.891 175.376 174.122 175.783 172.902 176.596C171.682 177.369 171.072 178.385 171.072 179.646C171.072 180.541 171.377 181.313 171.987 181.964C172.597 182.574 173.451 183.103 174.549 183.55C175.688 183.957 177.132 184.323 178.88 184.648L183.943 185.807C188.254 186.702 191.629 188.186 194.069 190.26C196.55 192.334 197.79 195.12 197.79 198.617C197.79 200.935 197.079 203.111 195.655 205.144C194.232 207.137 192.178 208.743 189.494 209.963C186.81 211.183 183.659 211.793 180.039 211.793ZM180.283 205.022C181.91 205.022 183.313 204.737 184.492 204.168C185.712 203.599 186.627 202.846 187.237 201.911C187.888 200.976 188.213 199.939 188.213 198.8C188.213 197.539 187.868 196.441 187.176 195.506C186.526 194.53 185.57 193.778 184.309 193.249C183.089 192.68 181.686 192.395 180.1 192.395C178.596 192.395 177.233 192.659 176.013 193.188C174.793 193.717 173.838 194.469 173.146 195.445C172.455 196.38 172.109 197.478 172.109 198.739C172.109 199.918 172.455 200.996 173.146 201.972C173.838 202.907 174.793 203.66 176.013 204.229C177.274 204.758 178.697 205.022 180.283 205.022ZM199.533 167.629H208.927V173.058C208.927 175.295 208.541 177.531 207.768 179.768C207.036 182.005 205.979 184.18 204.596 186.295L208.866 188.918C209.232 186.966 209.862 185.177 210.757 183.55C211.692 181.883 212.953 180.561 214.539 179.585C216.166 178.568 218.138 178.06 220.456 178.06C222.855 178.06 224.889 178.507 226.556 179.402C228.264 180.297 229.525 181.639 230.338 183.428C231.192 185.177 231.619 187.312 231.619 189.833V211H222.225V192.883C222.225 190.524 221.656 188.735 220.517 187.515C219.419 186.254 217.853 185.624 215.82 185.624C214.519 185.624 213.339 185.929 212.282 186.539C211.265 187.149 210.452 188.064 209.842 189.284C209.232 190.463 208.927 191.866 208.927 193.493V211H199.533V167.629ZM234.235 178.792H243.629V211H234.235V178.792ZM233.991 166.714H243.873V173.973H233.991V166.714ZM256.097 204.351C256.056 205.124 256.015 205.774 255.975 206.303C255.853 207.36 255.71 208.926 255.548 211H246.825V167.629H256.219V170.496C256.219 171.025 256.198 171.675 256.158 172.448C255.995 174.888 255.527 177.328 254.755 179.768C254.023 182.208 253.047 184.485 251.827 186.6L256.219 189.345C256.381 187.434 256.991 185.604 258.049 183.855C259.106 182.106 260.468 180.703 262.136 179.646C263.803 178.548 265.653 177.999 267.687 177.999C270.655 177.999 273.278 178.772 275.556 180.317C277.833 181.822 279.582 183.875 280.802 186.478C282.062 189.04 282.693 191.866 282.693 194.957C282.693 198.048 282.062 200.894 280.802 203.497C279.582 206.059 277.833 208.092 275.556 209.597C273.278 211.102 270.655 211.854 267.687 211.854C264.637 211.854 262.054 211 259.94 209.292C258.313 207.95 257.032 206.303 256.097 204.351ZM273.177 194.957C273.177 193.127 272.831 191.48 272.14 190.016C271.489 188.552 270.513 187.413 269.212 186.6C267.951 185.746 266.446 185.319 264.698 185.319C263.03 185.319 261.546 185.746 260.245 186.6C258.984 187.454 257.988 188.613 257.256 190.077C256.564 191.5 256.219 193.127 256.219 194.957C256.219 196.746 256.564 198.373 257.256 199.837C257.988 201.301 258.984 202.46 260.245 203.314C261.546 204.127 263.03 204.534 264.698 204.534C266.446 204.534 267.951 204.127 269.212 203.314C270.513 202.46 271.489 201.321 272.14 199.898C272.831 198.434 273.177 196.787 273.177 194.957ZM295.299 211.732C292.9 211.732 290.867 211.285 289.199 210.39C287.573 209.455 286.353 208.113 285.539 206.364C284.767 204.615 284.38 202.48 284.38 199.959V178.792H293.774V196.848C293.774 199.247 294.303 201.077 295.36 202.338C296.418 203.558 297.943 204.168 299.935 204.168C301.277 204.168 302.436 203.863 303.412 203.253C304.429 202.643 305.222 201.748 305.791 200.569C306.361 199.349 306.645 197.905 306.645 196.238V178.792H316.039V211H307.316C307.845 209.414 308.496 208.052 309.268 206.913C310.082 205.734 310.814 204.717 311.464 203.863L306.828 201.179C306.462 203.172 305.832 204.961 304.937 206.547C304.043 208.092 302.782 209.353 301.155 210.329C299.569 211.264 297.617 211.732 295.299 211.732ZM318.529 215.27H325.91C327.211 215.27 328.248 214.985 329.021 214.416C329.834 213.887 330.444 213.033 330.851 211.854C331.136 211.122 331.38 210.227 331.583 209.17L317.126 178.792H327.13C328.431 181.883 329.489 184.587 330.302 186.905C331.156 189.223 331.786 191.317 332.193 193.188C332.6 195.018 332.823 196.767 332.864 198.434C332.945 200.061 332.884 201.83 332.681 203.741H338.11C337.541 200.284 337.48 196.889 337.927 193.554C338.415 190.219 339.635 185.299 341.587 178.792H351.53L338.293 213.684C337.48 215.839 336.443 217.588 335.182 218.93C333.962 220.272 332.579 221.248 331.034 221.858C329.529 222.468 327.943 222.773 326.276 222.773H318.529V215.27ZM350.051 201.667C350.051 199.715 350.579 197.926 351.637 196.299C352.735 194.672 354.219 193.412 356.09 192.517C357.96 191.582 360.055 191.114 362.373 191.114C364.121 191.114 365.809 191.378 367.436 191.907C369.103 192.436 370.709 193.391 372.255 194.774C373.149 195.628 373.983 196.624 374.756 197.763V193.737C374.756 191.826 374.349 190.179 373.536 188.796C372.763 187.413 371.685 186.376 370.303 185.685C368.961 184.953 367.436 184.587 365.728 184.587C363.857 184.587 362.088 184.953 360.421 185.685C358.794 186.376 357.432 187.332 356.334 188.552L352.247 183.367C353.914 181.74 356.069 180.439 358.713 179.463C361.356 178.446 363.979 177.938 366.582 177.938C369.916 177.938 372.865 178.528 375.427 179.707C377.989 180.846 380.002 182.615 381.466 185.014C382.97 187.413 383.723 190.382 383.723 193.92V211H376.403C376.403 210.756 376.382 210.512 376.342 210.268C376.098 207.421 375.772 205.225 375.366 203.68C375 202.094 374.247 200.63 373.109 199.288L370.12 200.935C370.852 202.846 370.913 204.636 370.303 206.303C369.733 207.97 368.615 209.312 366.948 210.329C365.321 211.346 363.369 211.854 361.092 211.854C358.896 211.854 356.944 211.386 355.236 210.451C353.568 209.516 352.287 208.275 351.393 206.73C350.498 205.185 350.051 203.497 350.051 201.667ZM368.534 201.667C368.534 200.081 368.086 198.82 367.192 197.885C366.338 196.909 365.199 196.421 363.776 196.421C362.84 196.421 361.986 196.645 361.214 197.092C360.482 197.499 359.892 198.109 359.445 198.922C359.038 199.695 358.835 200.589 358.835 201.606C358.835 203.192 359.282 204.473 360.177 205.449C361.071 206.384 362.23 206.852 363.654 206.852C364.589 206.852 365.423 206.649 366.155 206.242C366.927 205.795 367.517 205.185 367.924 204.412C368.33 203.599 368.534 202.684 368.534 201.667ZM398.927 168.483H412.103C413.242 171.208 414.258 173.729 415.153 176.047C416.048 178.324 416.739 180.378 417.227 182.208C417.837 184.282 418.284 186.234 418.569 188.064C418.854 189.853 418.996 191.683 418.996 193.554H423.937C423.937 191.48 424.12 189.406 424.486 187.332C424.852 185.217 425.421 182.981 426.194 180.622C426.967 178.263 428.044 175.376 429.427 171.96C429.63 171.391 430.098 170.232 430.83 168.483H444.067V211H434.673C434.673 207.259 434.734 203.538 434.856 199.837C435.019 196.38 435.283 193.574 435.649 191.419C436.056 189.223 436.584 187.251 437.235 185.502C437.886 183.753 438.801 181.7 439.98 179.341L435.1 177.572L425.035 203.436H417.837L407.833 177.572L403.014 179.524C404.193 181.883 405.108 183.916 405.759 185.624C406.41 187.332 406.918 189.243 407.284 191.358C407.691 193.432 407.975 196.136 408.138 199.471C408.26 203.294 408.321 207.137 408.321 211H398.927V168.483ZM447.621 178.792H457.015V211H447.621V178.792ZM447.377 166.714H457.259V173.973H447.377V166.714ZM460.21 178.792H468.933C468.405 180.378 467.734 181.761 466.92 182.94C466.148 184.079 465.436 185.075 464.785 185.929L469.421 188.552C469.787 186.6 470.438 184.831 471.373 183.245C472.309 181.659 473.59 180.398 475.216 179.463C476.843 178.528 478.815 178.06 481.133 178.06C483.533 178.06 485.566 178.507 487.233 179.402C488.941 180.297 490.202 181.639 491.015 183.428C491.869 185.177 492.296 187.312 492.296 189.833V211H482.902V192.883C482.902 190.524 482.333 188.735 481.194 187.515C480.096 186.254 478.531 185.624 476.497 185.624C475.196 185.624 474.017 185.929 472.959 186.539C471.902 187.149 471.068 188.064 470.458 189.284C469.889 190.463 469.604 191.866 469.604 193.493V211H460.21V178.792ZM498.399 202.094V185.441H492.726V178.792C494.475 178.792 496.102 179.219 497.606 180.073C499.111 180.927 500.473 181.964 501.693 183.184L504.072 179.646C502.405 178.955 501.043 177.755 499.985 176.047C498.928 174.339 498.399 172.489 498.399 170.496H507.793V178.792H516.516V185.441H507.793V200.874C507.793 202.175 508.037 203.131 508.525 203.741C509.054 204.31 509.847 204.595 510.904 204.595C511.555 204.595 512.165 204.473 512.734 204.229C513.344 203.985 513.954 203.639 514.564 203.192L517.065 209.353C515.845 210.126 514.524 210.736 513.1 211.183C511.677 211.63 510.193 211.854 508.647 211.854C505.394 211.854 502.873 211.061 501.083 209.475C499.294 207.889 498.399 205.429 498.399 202.094ZM531.663 211.854C528.817 211.854 526.275 211.549 524.038 210.939C521.842 210.288 520.094 209.353 518.792 208.133C517.532 206.913 516.901 205.469 516.901 203.802C516.901 202.175 517.389 200.833 518.365 199.776C519.341 198.678 520.643 197.885 522.269 197.397C523.896 196.868 525.726 196.604 527.759 196.604V192.456C525.929 192.456 524.12 192.273 522.33 191.907C520.541 191.5 518.996 190.809 517.694 189.833C516.434 188.857 515.803 187.515 515.803 185.807C515.803 184.099 516.352 182.655 517.45 181.476C518.589 180.297 520.175 179.422 522.208 178.853C524.242 178.243 526.6 177.938 529.284 177.938C532.456 177.938 535.445 178.406 538.251 179.341C541.057 180.276 543.64 181.598 545.998 183.306L542.216 190.016C540.508 188.715 538.556 187.657 536.36 186.844C534.205 185.99 532.009 185.563 529.772 185.563C529.162 185.563 528.613 185.665 528.125 185.868C527.637 186.071 527.231 186.376 526.905 186.783C526.621 187.149 526.478 187.596 526.478 188.125C526.478 188.613 526.621 189.06 526.905 189.467C527.19 189.833 527.617 190.158 528.186 190.443C528.756 190.687 529.467 190.89 530.321 191.053C530.443 191.053 530.545 191.073 530.626 191.114L534.408 191.785C538.109 192.436 540.956 193.595 542.948 195.262C544.982 196.929 545.998 199.085 545.998 201.728C545.998 203.599 545.388 205.307 544.168 206.852C542.989 208.397 541.301 209.617 539.105 210.512C536.95 211.407 534.469 211.854 531.663 211.854ZM532.09 206.242C533.148 206.242 534.083 206.059 534.896 205.693C535.75 205.327 536.401 204.819 536.848 204.168C537.296 203.477 537.519 202.684 537.519 201.789C537.519 200.366 537.011 199.227 535.994 198.373C534.978 197.519 533.636 197.092 531.968 197.092C530.911 197.092 529.955 197.295 529.101 197.702C528.288 198.068 527.658 198.597 527.21 199.288C526.763 199.979 526.539 200.793 526.539 201.728C526.539 202.623 526.763 203.416 527.21 204.107C527.698 204.798 528.349 205.327 529.162 205.693C530.016 206.059 530.992 206.242 532.09 206.242Z" fill="#E04220"/>
<defs>
<linearGradient id="paint0_linear_4236_2360" x1="863" y1="0" x2="863" y2="244" gradientUnits="userSpaceOnUse">
<stop stop-color="#26AD57"/>
<stop offset="1" stop-color="white"/>
</linearGradient>
</defs>
</svg>
