<svg width="39" height="18" viewBox="0 0 39 18" fill="none" xmlns="http://www.w3.org/2000/svg">
<path d="M30 0C34.9706 0 39 4.02944 39 9C39 13.9706 34.9706 18 30 18H9C4.02944 18 0 13.9706 0 9C0 4.02944 4.02944 2.41596e-08 9 0H30ZM25.0576 5.56543C23.3197 5.56562 22.2247 6.77997 22.2246 8.84961C22.2246 11.0276 23.3366 12.1348 25.0498 12.1348C26.3535 12.1347 27.2898 11.3879 27.6826 10.1279L26.002 9.70508C25.8766 10.3259 25.5846 10.7401 25.0332 10.7402C24.6657 10.7402 24.4064 10.6141 24.2393 10.3623C24.047 10.0563 23.9795 9.56061 23.9795 8.84961C23.9795 8.15708 24.0467 7.62633 24.2471 7.32031C24.4226 7.05931 24.6738 6.95117 25.0332 6.95117C25.5845 6.95128 25.8684 7.32895 25.9688 8.05762L27.6406 7.75195C27.3398 6.29395 26.3446 5.56543 25.0576 5.56543ZM6.49414 5.7002V12H8.15625V9.93945H8.86719C9.98697 9.93944 11.3075 9.68716 11.3076 7.81543C11.3076 5.92562 9.93707 5.70024 8.83398 5.7002H6.49414ZM11.9287 12H16.2578V10.4883H13.6172V5.7002H11.9287V12ZM16.584 12H18.2969L18.5645 10.7676H20.1523L20.4277 12H22.1582L20.4609 5.7002H18.2803L16.584 12ZM28.2617 12H32.6152V10.6416H29.9414V9.48926H32.3232V8.15723H29.9414V7.05957H32.6152V5.7002H28.2617V12ZM19.375 7.19434C19.4502 7.59033 19.5675 8.16663 19.626 8.3916L19.835 9.33594H18.8818L19.0908 8.3916C19.1744 8.04962 19.2416 7.62631 19.3252 7.19434H19.375ZM8.7168 7.02344C9.15133 7.02344 9.61914 7.05072 9.61914 7.80664C9.61897 8.54415 9.18465 8.62498 8.7168 8.625H8.15625V7.02344H8.7168Z" fill="url(#paint0_linear_8490_38874)" fill-opacity="0.45"/>
<defs>
<linearGradient id="paint0_linear_8490_38874" x1="19.5" y1="0" x2="19.5" y2="18" gradientUnits="userSpaceOnUse">
<stop stop-color="white" stop-opacity="0.35"/>
<stop offset="1" stop-color="white"/>
</linearGradient>
</defs>
</svg>
