<svg width="357" height="254" viewBox="0 0 357 254" fill="none" xmlns="http://www.w3.org/2000/svg">
<mask id="mask0_5118_13736" style="mask-type:alpha" maskUnits="userSpaceOnUse" x="0" y="0" width="357" height="254">
<path d="M357 155.84H346.496V139.934H323.103V155.84H306.728V179.115H323.103V195.02H346.496V179.115H357V253.273H0V141.756H11.2842V157.663H34.6777V141.756H50.2725V118.479H34.6777V102.576H11.2842V118.479H0V0H357V155.84ZM89.5566 196.996H73.1816V220.271H89.5566V236.177H112.949V220.271H128.545V196.996H112.949V181.09H89.5566V196.996ZM274.103 50.0234V65.9268H257.728V89.2031H274.103V105.11H297.495V89.2031H313.091V65.9268H297.495V50.0234H274.103ZM56.4658 28.5674H40.0908V51.8428H56.4658V67.749H79.8594V51.8428H95.4541V28.5674H79.8594V12.6621H56.4658V28.5674Z" fill="#D9D9D9"/>
</mask>
<g mask="url(#mask0_5118_13736)">
<path d="M142.977 167.261H103.926V155.678H116.777V97.5939H103.926V86.0107H142.977V97.5939H129.688V155.678H142.977V167.261Z" fill="white"/>
<path d="M205.332 167.261H189.034L168.004 134.388H162.151V167.261H149.275V86.0107H176.029C184.947 86.0107 191.871 88.0554 196.811 92.1447C201.751 96.2341 204.211 102.279 204.211 110.289C204.211 113.862 203.656 116.998 202.564 119.718C201.463 122.438 199.906 124.77 197.892 126.725C195.879 128.681 193.537 130.219 190.859 131.361C188.181 132.502 185.294 133.276 182.179 133.693L205.322 167.251L205.332 167.261ZM191.325 110.041C191.325 105.892 189.966 102.775 187.248 100.701C184.53 98.6261 180.781 97.5839 176.019 97.5839H162.141V122.676H176.019C180.791 122.676 184.53 121.634 187.248 119.559C189.966 117.485 191.325 114.308 191.325 110.031" fill="white"/>
<path d="M262.649 167.261H210.371V86.0107H223.351V155.678H262.649V167.261Z" fill="white"/>
<rect x="56.1987" y="1.47216" width="263.692" height="250.328" rx="125.164" stroke="white" stroke-width="2.94433"/>
<rect x="75.2895" y="1.47216" width="264.328" height="250.328" rx="125.164" stroke="white" stroke-width="2.94433"/>
<rect x="46.6538" y="1.47216" width="263.692" height="250.328" rx="125.164" stroke="white" stroke-width="2.94433"/>
<rect x="37.1079" y="1.47216" width="263.692" height="250.328" rx="125.164" stroke="white" stroke-width="2.94433"/>
<rect x="26.9263" y="1.47216" width="264.328" height="250.328" rx="125.164" stroke="white" stroke-width="2.94433"/>
<rect x="65.7446" y="1.47216" width="263.692" height="250.328" rx="125.164" stroke="white" stroke-width="2.94433"/>
</g>
<path d="M290.818 72.1816H304.182V82.3125H290.818V94.3428H280.637V82.3125H267.909V72.1816H280.637V59.5176H290.818V72.1816Z" fill="white"/>
<path d="M339.182 162.729H352.545V172.859H339.182V184.89H329V172.859H316.272V162.729H329V150.064H339.182V162.729Z" fill="white"/>
<path d="M105.637 204.52H119V214.65H105.637V226.681H95.4551V214.65H82.7275V204.52H95.4551V191.855H105.637V204.52Z" fill="white"/>
<path d="M26.7275 125.37H40.0918V135.501H26.7275V147.531H16.5459V135.501H3.81836V125.37H16.5459V112.706H26.7275V125.37Z" fill="white"/>
<path d="M72.5459 34.8257H85.9092V44.9565H72.5459V56.9858H62.3643V44.9565H49.6367V34.8257H62.3643V22.1606H72.5459V34.8257Z" fill="white"/>
</svg>
