<svg width="32" height="18" viewBox="0 0 32 18" fill="none" xmlns="http://www.w3.org/2000/svg">
<path d="M23 0C27.9706 0 32 4.02944 32 9C32 13.9706 27.9706 18 23 18H9C4.02944 18 0 13.9706 0 9C0 4.02944 4.02944 0 9 0H23ZM21.8164 6C20.3944 6 19.2061 6.648 19.2061 7.91699C19.2061 9.20397 20.1329 9.63617 21.5459 9.95117C22.4369 10.1582 22.9053 10.2395 22.9053 10.6895C22.905 11.1301 22.536 11.3368 21.9873 11.3369C21.3664 11.3369 20.916 11.0221 20.9248 10.2305L19.0625 10.4014C19.1257 11.913 20.3579 12.5702 21.9326 12.5703C23.5164 12.5703 24.7048 11.9311 24.7051 10.5635C24.7051 9.14159 23.5711 8.75444 22.1133 8.43945C21.3756 8.27752 20.9974 8.14211 20.9971 7.77344C20.9971 7.42248 21.3029 7.2061 21.7979 7.20605C22.3469 7.20605 22.6978 7.47608 22.7158 8.20508L24.5254 7.98926C24.3724 6.52239 23.3012 6.00009 21.8164 6ZM8 6.13574V12.4355H9.79102V10.374H10.5557C11.7617 10.374 13.1836 10.122 13.1836 8.25C13.1835 6.36023 11.7075 6.13574 10.5195 6.13574H8ZM13.4756 7.64746H15.2568V12.4355H17.0664V7.64746H18.8477V6.13574H13.4756V7.64746ZM10.3936 7.45801C10.8615 7.45801 11.3662 7.48525 11.3662 8.24121C11.3662 8.97921 10.8976 9.06055 10.3936 9.06055H9.79102V7.45801H10.3936Z" fill="white"/>
</svg>
