<svg width="360" height="46" viewBox="0 0 360 46" fill="none" xmlns="http://www.w3.org/2000/svg">
<path d="M152.773 3.19189C152.773 4.02132 152.521 4.63916 152.017 5.04541C151.514 5.44743 150.811 5.64844 149.91 5.64844H148.482V9H147.168V0.716309H149.897C150.807 0.716309 151.514 0.925781 152.017 1.34473C152.521 1.75944 152.773 2.37516 152.773 3.19189ZM151.459 3.17285C151.459 2.74967 151.319 2.43229 151.04 2.2207C150.765 2.00911 150.388 1.90332 149.91 1.90332H148.482V4.46143H149.91C150.388 4.46143 150.765 4.35563 151.04 4.14404C151.319 3.93245 151.459 3.60872 151.459 3.17285ZM153.224 4.85498C153.224 4.30062 153.283 3.7653 153.402 3.24902C153.52 2.73275 153.704 2.27783 153.954 1.88428C154.203 1.49072 154.529 1.17546 154.931 0.938477C155.338 0.697266 155.826 0.57666 156.398 0.57666C156.969 0.57666 157.456 0.697266 157.858 0.938477C158.264 1.17546 158.594 1.49072 158.848 1.88428C159.102 2.27783 159.286 2.73275 159.4 3.24902C159.514 3.7653 159.571 4.30062 159.571 4.85498C159.571 5.40934 159.514 5.94466 159.4 6.46094C159.286 6.97298 159.104 7.43001 158.854 7.83203C158.604 8.22982 158.277 8.54932 157.87 8.79053C157.468 9.02751 156.977 9.146 156.398 9.146C155.818 9.146 155.325 9.02751 154.919 8.79053C154.517 8.54932 154.189 8.22982 153.935 7.83203C153.685 7.43001 153.505 6.97298 153.395 6.46094C153.281 5.94466 153.224 5.40934 153.224 4.85498ZM154.538 4.85498C154.538 5.22738 154.565 5.59977 154.62 5.97217C154.68 6.34456 154.777 6.67887 154.912 6.9751C155.052 7.26709 155.24 7.50407 155.477 7.68604C155.718 7.868 156.025 7.95898 156.398 7.95898C156.77 7.95898 157.075 7.868 157.312 7.68604C157.553 7.50407 157.741 7.26709 157.877 6.9751C158.016 6.67887 158.114 6.34456 158.169 5.97217C158.228 5.59977 158.257 5.22738 158.257 4.85498C158.257 4.48258 158.228 4.1123 158.169 3.74414C158.114 3.37598 158.016 3.04378 157.877 2.74756C157.741 2.45133 157.551 2.21224 157.305 2.03027C157.064 1.84831 156.762 1.75732 156.398 1.75732C155.792 1.75732 155.331 2.03027 155.014 2.57617C154.696 3.12207 154.538 3.88167 154.538 4.85498ZM166.326 0.716309L165.044 9H163.692L162.962 5.42627L162.244 9H160.892L159.61 0.716309H160.975L161.737 6.2959L162.34 3.08398H163.596L164.18 6.2959L164.961 0.716309H166.326ZM172.192 9H166.898V0.716309H172.192V1.90332H168.212V4.18848H171.316V5.37549H168.212V7.81934H172.192V9ZM179.194 9H177.531L175.385 5.64844H174.788V9H173.474V0.716309H176.204C177.114 0.716309 177.82 0.925781 178.324 1.34473C178.828 1.75944 179.079 2.37516 179.079 3.19189C179.079 3.55583 179.022 3.87744 178.908 4.15674C178.798 4.4318 178.639 4.66878 178.432 4.86768C178.229 5.06657 177.99 5.22526 177.715 5.34375C177.444 5.45801 177.15 5.5363 176.832 5.57861L179.194 9ZM177.765 3.17285C177.765 2.74967 177.626 2.43229 177.346 2.2207C177.071 2.00911 176.69 1.90332 176.204 1.90332H174.788V4.46143H176.204C176.69 4.46143 177.071 4.35563 177.346 4.14404C177.626 3.93245 177.765 3.60872 177.765 3.17285ZM185.345 9H180.051V0.716309H185.345V1.90332H181.365V4.18848H184.469V5.37549H181.365V7.81934H185.345V9ZM192.506 4.85498C192.506 5.40934 192.446 5.93831 192.328 6.44189C192.214 6.94124 192.027 7.38135 191.769 7.76221C191.515 8.13883 191.185 8.43929 190.779 8.66357C190.377 8.88786 189.89 9 189.319 9H186.628V0.716309H189.319C189.882 0.716309 190.364 0.830566 190.766 1.05908C191.173 1.28337 191.503 1.58382 191.757 1.96045C192.015 2.33708 192.203 2.77507 192.322 3.27441C192.444 3.77376 192.506 4.30062 192.506 4.85498ZM191.192 4.85498C191.192 3.8986 191.029 3.16862 190.703 2.66504C190.377 2.15723 189.916 1.90332 189.319 1.90332H187.942V7.81934H189.319C189.916 7.81934 190.377 7.5612 190.703 7.04492C191.029 6.52865 191.192 5.79867 191.192 4.85498ZM205.373 6.72754C205.373 7.48079 205.117 8.04785 204.605 8.42871C204.093 8.80957 203.365 9 202.422 9H199.781V0.716309H202.276C202.623 0.716309 202.963 0.745931 203.298 0.805176C203.632 0.860189 203.93 0.965983 204.193 1.12256C204.459 1.27913 204.675 1.49919 204.84 1.78271C205.005 2.06201 205.088 2.42594 205.088 2.87451C205.088 3.29346 204.98 3.67643 204.764 4.02344C204.552 4.37044 204.231 4.62012 203.799 4.77246C204.328 4.9375 204.722 5.16813 204.98 5.46436C205.242 5.76058 205.373 6.18164 205.373 6.72754ZM203.786 3.0459C203.786 2.80469 203.74 2.60791 203.647 2.45557C203.558 2.30322 203.442 2.18685 203.298 2.10645C203.154 2.02181 202.993 1.9668 202.815 1.94141C202.638 1.91602 202.458 1.90332 202.276 1.90332H201.095V4.18848H202.276C202.458 4.18848 202.638 4.17578 202.815 4.15039C202.993 4.125 203.154 4.0721 203.298 3.9917C203.442 3.90706 203.558 3.78857 203.647 3.63623C203.74 3.48389 203.786 3.28711 203.786 3.0459ZM204.072 6.59424C204.072 6.17952 203.926 5.87272 203.634 5.67383C203.346 5.47493 202.942 5.37549 202.422 5.37549H201.095V7.81934H202.422C202.942 7.81934 203.346 7.71989 203.634 7.521C203.926 7.31787 204.072 7.00895 204.072 6.59424ZM212.09 1.90332H211.493L209.659 5.62305V7.81934H210.985V9H207.024V7.81934H208.345V5.62305L206.516 1.90332H205.92V0.716309H208.529V1.90332H207.957L209.011 4.33447L210.052 1.90332H209.481V0.716309H212.09V1.90332Z" fill="#FDFFFF"/>
<path d="M147.221 24.9118V26.023H139.34L132.406 32.4736H147.221V33.5848H132.406L140.538 41.1466H138.845L130.119 33.0292L138.845 24.9118H147.221Z" fill="#FDFFFF"/>
<path fill-rule="evenodd" clip-rule="evenodd" d="M182.368 27.2893C184.005 25.767 186.225 24.9118 188.541 24.9118H196.673V26.023H188.541C186.542 26.023 184.626 26.7611 183.213 28.075C180.27 30.8111 180.27 35.2472 183.213 37.9833C184.626 39.2973 186.542 40.0354 188.541 40.0354H196.673V41.1466H188.541C186.225 41.1466 184.005 40.2914 182.368 38.7691C178.958 35.599 178.958 30.4594 182.368 27.2893Z" fill="#FDFFFF"/>
<path d="M212.443 33.5551V41.1466H211.206V33.0785L219.989 24.9118H221.739L212.443 33.5551Z" fill="#FDFFFF"/>
<path fill-rule="evenodd" clip-rule="evenodd" d="M123.854 24.9118H132.23V26.023H124.349L117.415 32.4736H132.23V33.5848H117.415L124.349 40.0354H132.23V41.1466H123.854L115.128 33.0292L123.854 24.9118Z" fill="#FDFFFF"/>
<path fill-rule="evenodd" clip-rule="evenodd" d="M100.356 24.9118H118.712L109.958 33.031L118.705 41.1466H117.013L101.555 26.8091V41.1466H100.356V24.9118ZM102.402 26.0232H115.819L109.11 32.2452L102.402 26.0232Z" fill="#FDFFFF"/>
<path fill-rule="evenodd" clip-rule="evenodd" d="M150.028 24.9118H168.383L159.629 33.031L168.377 41.1466H166.684L151.226 26.8091V41.1466H150.028V24.9118ZM152.073 26.0232H165.49L158.782 32.2452L152.073 26.0232Z" fill="#FDFFFF"/>
<path fill-rule="evenodd" clip-rule="evenodd" d="M200.021 33.5551V41.1466H198.783V33.0785L206.329 26.0623H199.402V24.9118H216.243V26.0623H208.079L200.021 33.5551Z" fill="#FDFFFF"/>
<path fill-rule="evenodd" clip-rule="evenodd" d="M229.333 25.8153C225.048 25.8153 221.574 29.045 221.574 33.0292C221.574 37.0133 225.048 40.2431 229.333 40.2431C233.617 40.2431 237.091 37.0133 237.091 33.0292C237.091 29.045 233.617 25.8153 229.333 25.8153ZM220.344 33.0292C220.344 28.4132 224.368 24.6711 229.333 24.6711C234.297 24.6711 238.321 28.4132 238.321 33.0292C238.321 37.6452 234.297 41.3872 229.333 41.3872C224.368 41.3872 220.344 37.6452 220.344 33.0292Z" fill="#FDFFFF"/>
<path d="M240.432 24.9118L240.432 41.1463H241.825L241.825 26.2053L257.893 41.1466H259.643L259.643 41.1463H259.643L259.643 24.9118H258.25L258.25 39.8511L242.184 24.9118H241.825L240.432 24.9118Z" fill="#FDFFFF"/>
<path fill-rule="evenodd" clip-rule="evenodd" d="M177.959 41.1463H176.566L176.566 33.5938H168.62L160.497 41.1466H158.748L176.207 24.9118H176.566L177.959 24.9118L177.959 41.1463ZM176.566 32.4646L176.566 26.2053L169.834 32.4646H176.566Z" fill="#FDFFFF"/>
<path fill-rule="evenodd" clip-rule="evenodd" d="M259.642 41.1466L259.643 41.1466L259.643 41.1466L259.643 41.1464L259.643 41.1463H259.643L259.643 24.9118H258.25L258.25 39.8511L242.184 24.9118H241.825L240.432 24.9118L240.432 41.1463H241.825L241.825 26.2053L257.893 41.1466H259.642ZM242.223 27.0991L257.728 41.5168H260.041V40.9933L260.041 24.5416H257.851L257.851 38.9572L242.348 24.5416H242.223L240.033 24.5416L240.033 41.5165H242.223L242.223 27.0991ZM147.619 26.3932H139.505L133.367 32.1034H147.619V33.955H133.367L141.499 41.5168H138.68L130.551 33.955H118.376L124.514 39.6652H132.628V41.5168H123.689L114.565 33.0292L123.689 24.5416H132.628V26.3932H124.514L118.376 32.1034H130.551L138.68 24.5416H147.619V26.3932ZM130.716 32.4736H117.415L124.349 26.023H132.23V24.9118H123.854L115.128 33.0292L123.854 41.1466H132.23V40.0354H124.349L117.415 33.5848H130.716L138.845 41.1466H140.538L132.406 33.5848H147.221V32.4736H132.406L139.34 26.023H147.221V24.9118H138.845L130.716 32.4736ZM197.071 24.5416V26.3932H188.541C186.648 26.3932 184.832 27.0923 183.494 28.3368C180.707 30.9284 180.707 35.13 183.494 37.7215C184.832 38.966 186.648 39.6652 188.541 39.6652H197.071V41.5168H188.541C186.12 41.5168 183.798 40.6226 182.086 39.0309C178.521 35.7162 178.521 30.3422 182.086 27.0275C183.798 25.4358 186.12 24.5416 188.541 24.5416H197.071ZM212.842 41.5168H210.808V32.9252L219.824 24.5416H222.7L212.842 33.7085V41.5168ZM212.443 33.5551L221.739 24.9118H219.989L211.206 33.0785V41.1466H212.443V33.5551ZM99.958 24.5416H119.675L110.521 33.0311L119.668 41.5168H116.848L101.953 27.7013V41.5168H99.958V24.5416ZM101.555 26.8091L117.013 41.1466H118.705L109.958 33.031L118.712 24.9118H100.356V41.1466H101.555V26.8091ZM149.629 24.5416H169.346L160.193 33.0311L163.556 36.1517L176.042 24.5416H176.168L178.357 24.5416L178.357 41.5165H176.168L176.168 33.964H168.785L164.996 37.4872L169.339 41.5168H166.519L163.587 38.7971L160.662 41.5168H157.787L162.147 37.4618L151.624 27.7013V41.5168H149.629V24.5416ZM151.226 26.8091L162.711 37.4615L158.748 41.1466H160.497L163.587 38.2739L166.684 41.1466H168.377L164.432 37.4875L168.62 33.5938H176.566L176.566 41.1463H177.959L177.959 24.9118L176.566 24.9118H176.207L163.557 36.675L159.629 33.031L168.383 24.9118H150.028V41.1466H151.226V26.8091ZM200.419 41.5168H198.385V32.9252L205.368 26.4326H199.004V24.5416H216.641V26.4326H208.244L200.419 33.7085V41.5168ZM200.021 33.5551L208.079 26.0623H216.243V24.9118H199.402V26.0623H206.329L198.783 33.0785V41.1466H200.021V33.5551ZM188.541 24.9118C186.225 24.9118 184.005 25.767 182.368 27.2893C178.958 30.4594 178.958 35.599 182.368 38.7691C184.005 40.2914 186.225 41.1466 188.541 41.1466H196.673V40.0354H188.541C186.542 40.0354 184.626 39.2973 183.213 37.9833C180.27 35.2472 180.27 30.8111 183.213 28.075C184.626 26.7611 186.542 26.023 188.541 26.023H196.673V24.9118H188.541ZM102.402 26.0232L109.11 32.2452L115.819 26.0232H102.402ZM103.365 26.3934L109.11 31.7222L114.856 26.3934H103.365ZM152.073 26.0232L158.782 32.2452L165.49 26.0232H152.073ZM153.036 26.3934L158.782 31.7222L164.527 26.3934H153.036ZM229.333 26.1855C225.268 26.1855 221.973 29.2495 221.973 33.0292C221.973 36.8089 225.268 39.8729 229.333 39.8729C233.398 39.8729 236.693 36.8089 236.693 33.0292C236.693 29.2495 233.398 26.1855 229.333 26.1855ZM219.946 33.0292C219.946 28.2087 224.148 24.3009 229.333 24.3009C234.517 24.3009 238.719 28.2087 238.719 33.0292C238.719 37.8497 234.517 41.7575 229.333 41.7575C224.148 41.7575 219.946 37.8497 219.946 33.0292ZM176.566 26.2053L169.834 32.4646H176.566L176.566 26.2053ZM176.168 27.0991L176.168 32.0943H170.796L176.168 27.0991ZM221.574 33.0292C221.574 29.045 225.048 25.8153 229.333 25.8153C233.617 25.8153 237.091 29.045 237.091 33.0292C237.091 37.0133 233.617 40.2431 229.333 40.2431C225.048 40.2431 221.574 37.0133 221.574 33.0292ZM229.333 24.6711C224.368 24.6711 220.344 28.4132 220.344 33.0292C220.344 37.6452 224.368 41.3872 229.333 41.3872C234.297 41.3872 238.321 37.6452 238.321 33.0292C238.321 28.4132 234.297 24.6711 229.333 24.6711Z" fill="#FDFFFF"/>
</svg>
