<svg width="33" height="18" viewBox="0 0 33 18" fill="none" xmlns="http://www.w3.org/2000/svg">
<path d="M24 0C28.9706 0 33 4.02944 33 9C33 13.9706 28.9706 18 24 18H9C4.02944 18 0 13.9706 0 9C0 4.02944 4.02944 1.44958e-07 9 0H24ZM22.498 6C21.0316 6 19.8066 6.648 19.8066 7.91699C19.8066 9.20399 20.7626 9.63617 22.2197 9.95117C23.1383 10.1581 23.6211 10.2395 23.6211 10.6895C23.6208 11.1301 23.2398 11.3369 22.6738 11.3369C22.0337 11.3368 21.57 11.022 21.5791 10.2305L19.6572 10.4014C19.7224 11.913 20.9942 12.5702 22.6182 12.5703C24.2515 12.5703 25.4763 11.9311 25.4766 10.5635C25.4766 9.14148 24.3073 8.75445 22.8037 8.43945C22.0431 8.27754 21.6536 8.14207 21.6533 7.77344C21.6533 7.42244 21.969 7.20605 22.4795 7.20605C23.0455 7.20615 23.4072 7.4762 23.4258 8.20508L25.291 7.98926C25.1332 6.52235 24.0293 6.00006 22.498 6ZM8.25 6.13574V12.4355H10.0967V10.374H10.8857C12.1294 10.374 13.5957 10.122 13.5957 8.25C13.5956 6.36023 12.0737 6.13574 10.8486 6.13574H8.25ZM13.8965 7.64746H15.7334V12.4355H17.5996V7.64746H19.4375V6.13574H13.8965V7.64746ZM10.7188 7.45801C11.2014 7.45801 11.7207 7.48525 11.7207 8.24121C11.7207 8.97921 11.2385 9.06055 10.7188 9.06055H10.0967V7.45801H10.7188Z" fill="#4F4F4F"/>
</svg>
