<svg width="173" height="28" viewBox="0 0 173 28" fill="none" xmlns="http://www.w3.org/2000/svg">
<path d="M50.8072 5.28971V6.48636H42.3351L34.8812 13.4332H50.8072V14.6298H34.8812L43.6234 22.7733H41.8033L32.4233 14.0315L41.8033 5.28971H50.8072Z" fill="#131313"/>
<path fill-rule="evenodd" clip-rule="evenodd" d="M88.5902 7.85013C90.3502 6.21072 92.7372 5.28971 95.2262 5.28971H103.969V6.48636H95.2262C93.0779 6.48636 91.0177 7.28129 89.4986 8.69629C86.3353 11.6429 86.3353 16.4202 89.4986 19.3668C91.0177 20.7818 93.0779 21.5767 95.2262 21.5767H103.969V22.7733H95.2262C92.7372 22.7733 90.3502 21.8523 88.5902 20.2129C84.9253 16.799 84.9253 11.264 88.5902 7.85013Z" fill="#131313"/>
<path d="M120.922 14.5979V22.7733H119.592V14.0847L129.033 5.28971H130.914L120.922 14.5979Z" fill="#131313"/>
<path fill-rule="evenodd" clip-rule="evenodd" d="M25.688 5.28971H34.6919V6.48636H26.2198L18.7658 13.4332H34.6919V14.6298H18.7658L26.2198 21.5767H34.6919V22.7733H25.688L16.308 14.0315L25.688 5.28971Z" fill="#131313"/>
<path fill-rule="evenodd" clip-rule="evenodd" d="M0.42803 5.28971H20.1602L10.7496 14.0335L20.1531 22.7733H18.3336L1.71623 7.33298V22.7733H0.42803V5.28971ZM2.62713 6.48663H17.0502L9.83868 13.1872L2.62713 6.48663Z" fill="#131313"/>
<path fill-rule="evenodd" clip-rule="evenodd" d="M53.8248 5.28971H73.557L64.1464 14.0335L73.5499 22.7733H71.7304L55.113 7.33298V22.7733H53.8248V5.28971ZM56.0239 6.48663H70.447L63.2355 13.1872L56.0239 6.48663Z" fill="#131313"/>
<path fill-rule="evenodd" clip-rule="evenodd" d="M107.567 14.5979V22.7733H106.237V14.0847L114.349 6.52876H106.902V5.28971H125.006V6.52876H116.23L107.567 14.5979Z" fill="#131313"/>
<path fill-rule="evenodd" clip-rule="evenodd" d="M139.078 6.26267C134.472 6.26267 130.738 9.74091 130.738 14.0315C130.738 18.3221 134.472 21.8004 139.078 21.8004C143.684 21.8004 147.418 18.3221 147.418 14.0315C147.418 9.74091 143.684 6.26267 139.078 6.26267ZM129.415 14.0315C129.415 9.06043 133.741 5.03055 139.078 5.03055C144.414 5.03055 148.741 9.06043 148.741 14.0315C148.741 19.0026 144.414 23.0325 139.078 23.0325C133.741 23.0325 129.415 19.0026 129.415 14.0315Z" fill="#131313"/>
<path d="M151.009 5.28971L151.009 22.773H152.507L152.507 6.68271L169.78 22.7733H171.661L171.661 22.773H171.661L171.661 5.28971H170.164L170.163 21.3782L152.892 5.28975H152.507L151.009 5.28971Z" fill="#131313"/>
<path fill-rule="evenodd" clip-rule="evenodd" d="M83.8511 22.773H82.3533L82.3533 14.6396H73.8115L65.0798 22.7733H63.1991L81.9678 5.28975H82.3533L83.8511 5.28971L83.8511 22.773ZM82.3533 13.4235L82.3533 6.68271L75.117 13.4235H82.3533Z" fill="#131313"/>
<path fill-rule="evenodd" clip-rule="evenodd" d="M171.661 22.7733L171.661 22.7733L171.661 22.7733L171.661 22.7732L171.661 22.773H171.661L171.661 5.28971H170.164L170.163 21.3782L152.892 5.28975H152.507L151.009 5.28971L151.009 22.773H152.507L152.507 6.68271L169.78 22.7733H171.661ZM152.935 7.64529L169.603 23.172H172.089V22.6082L172.089 4.891H169.735L169.735 20.4156L153.07 4.89103H152.935L150.581 4.891L150.581 23.1717H152.935L152.935 7.64529ZM51.2352 6.88507H42.5125L35.9142 13.0345H51.2352V15.0286H35.9145L44.6568 23.1721H41.6259L32.8879 15.0286H19.7988L26.3972 21.178H35.1199V23.1721H25.5106L15.7028 14.0315L25.5106 4.891H35.1199V6.88507H26.3972L19.7988 13.0345H32.8879L41.6259 4.891H51.2352V6.88507ZM33.0653 13.4332H18.7658L26.2198 6.48636H34.6919V5.28971H25.688L16.308 14.0315L25.688 22.7733H34.6919V21.5767H26.2198L18.7658 14.6298H33.0653L41.8033 22.7733H43.6234L34.8812 14.6298H50.8072V13.4332H34.8812L42.3351 6.48636H50.8072V5.28971H41.8033L33.0653 13.4332ZM104.397 4.891V6.88507H95.2262C93.1915 6.88507 91.24 7.638 89.8013 8.97822C86.8052 11.7691 86.8052 16.294 89.8013 19.0848C91.24 20.4251 93.1915 21.178 95.2262 21.178H104.397V23.1721H95.2262C92.6237 23.1721 90.1278 22.209 88.2876 20.4949C84.4554 16.9253 84.4554 11.1378 88.2876 7.5682C90.1278 5.85402 92.6237 4.891 95.2262 4.891H104.397ZM121.35 23.1721H119.164V13.9195L128.856 4.891H131.947L121.35 14.7631V23.1721ZM120.922 14.5979L130.914 5.28971H129.033L119.592 14.0847V22.7733H120.922V14.5979ZM0 4.891H21.1955L11.3556 14.0336L21.1881 23.1721H18.1567L2.14426 8.29385V23.1721H0V4.891ZM1.71623 7.33298L18.3336 22.7733H20.1531L10.7496 14.0335L20.1602 5.28971H0.42803V22.7733H1.71623V7.33298ZM53.3968 4.891H74.5922L64.7524 14.0336L68.3683 17.3942L81.7905 4.89103H81.9252L84.2791 4.891L84.2792 23.1717H81.9253L81.9253 15.0383H73.9888L69.9157 18.8324L74.5849 23.1721H71.5535L68.4013 20.2432L65.2571 23.172H62.1657L66.8536 18.8051L55.5411 8.29385V23.1721H53.3968V4.891ZM55.113 7.33298L67.4593 18.8048L63.1991 22.7733H65.0798L68.4009 19.6796L71.7304 22.7733H73.5499L69.3101 18.8327L73.8115 14.6396H82.3533L82.3533 22.773H83.8511L83.8511 5.28971L82.3533 5.28975H81.9678L68.3686 17.9578L64.1464 14.0335L73.557 5.28971H53.8248V22.7733H55.113V7.33298ZM107.995 23.1721H105.809V13.9195L113.315 6.92748H106.474V4.891H125.434V6.92748H116.407L107.995 14.7631V23.1721ZM107.567 14.5979L116.23 6.52876H125.006V5.28971H106.902V6.52876H114.349L106.237 14.0847V22.7733H107.567V14.5979ZM95.2262 5.28971C92.7372 5.28971 90.3502 6.21072 88.5902 7.85013C84.9253 11.264 84.9253 16.799 88.5902 20.2129C90.3502 21.8523 92.7372 22.7733 95.2262 22.7733H103.969V21.5767H95.2262C93.0779 21.5767 91.0177 20.7818 89.4986 19.3668C86.3353 16.4202 86.3353 11.6429 89.4986 8.69629C91.0177 7.28129 93.0779 6.48636 95.2262 6.48636H103.969V5.28971H95.2262ZM2.62713 6.48663L9.83868 13.1872L17.0502 6.48663H2.62713ZM3.66235 6.88535L9.83868 12.624L16.015 6.88535H3.66235ZM56.0239 6.48663L63.2355 13.1872L70.447 6.48663H56.0239ZM57.0591 6.88535L63.2355 12.624L69.4118 6.88535H57.0591ZM139.078 6.66139C134.708 6.66139 131.166 9.96111 131.166 14.0315C131.166 18.1019 134.708 21.4017 139.078 21.4017C143.447 21.4017 146.99 18.1019 146.99 14.0315C146.99 9.96111 143.447 6.66139 139.078 6.66139ZM128.987 14.0315C128.987 8.84022 133.505 4.63184 139.078 4.63184C144.651 4.63184 149.169 8.84022 149.169 14.0315C149.169 19.2228 144.651 23.4312 139.078 23.4312C133.505 23.4312 128.987 19.2228 128.987 14.0315ZM82.3533 6.68271L75.117 13.4235H82.3533L82.3533 6.68271ZM81.9252 7.6453L81.9253 13.0248H76.1503L81.9252 7.6453ZM130.738 14.0315C130.738 9.74091 134.472 6.26267 139.078 6.26267C143.684 6.26267 147.418 9.74091 147.418 14.0315C147.418 18.3221 143.684 21.8004 139.078 21.8004C134.472 21.8004 130.738 18.3221 130.738 14.0315ZM139.078 5.03055C133.741 5.03055 129.415 9.06043 129.415 14.0315C129.415 19.0026 133.741 23.0325 139.078 23.0325C144.414 23.0325 148.741 19.0026 148.741 14.0315C148.741 9.06043 144.414 5.03055 139.078 5.03055Z" fill="#131313"/>
</svg>
