<svg width="377" height="184" viewBox="0 0 377 184" fill="none" xmlns="http://www.w3.org/2000/svg">
<path d="M246.75 183.242C196.354 183.242 155.344 142.232 155.344 91.8361C155.344 67.4194 164.848 44.4702 182.116 27.2021C199.384 9.93401 222.333 0.430054 246.75 0.430054C297.146 0.430054 338.156 41.4284 338.156 91.8361C338.156 142.244 297.158 183.242 246.75 183.242ZM246.75 1.89765C222.724 1.89765 200.141 11.2478 183.146 28.2436C166.161 45.2277 156.8 67.8218 156.8 91.848C156.8 141.439 197.147 181.786 246.738 181.786C296.329 181.786 336.677 141.439 336.677 91.848C336.677 42.2569 296.329 1.9095 246.738 1.9095" fill="white"/>
<path d="M259.697 183.242C209.301 183.242 168.291 142.232 168.291 91.8361C168.291 67.4194 177.795 44.4702 195.063 27.2021C212.331 9.93401 235.28 0.430054 259.697 0.430054C310.093 0.430054 351.103 41.4284 351.103 91.8361C351.103 142.244 310.105 183.242 259.697 183.242ZM259.697 1.89765C235.671 1.89765 213.089 11.2478 196.093 28.2436C179.097 45.2395 169.747 67.8218 169.747 91.848C169.747 141.439 210.094 181.786 259.685 181.786C309.276 181.786 349.624 141.439 349.624 91.848C349.624 42.2569 309.276 1.9095 259.685 1.9095" fill="white"/>
<path d="M272.646 183.242C222.25 183.242 181.24 142.232 181.24 91.8361C181.24 67.4194 190.744 44.4702 208.012 27.2021C225.28 9.93401 248.23 0.430054 272.646 0.430054C323.042 0.430054 364.052 41.4284 364.052 91.8361C364.052 142.244 323.054 183.242 272.646 183.242ZM272.646 1.89765C248.62 1.89765 226.038 11.2478 209.042 28.2436C192.046 45.2395 182.696 67.8218 182.696 91.848C182.696 141.439 223.043 181.786 272.634 181.786C322.226 181.786 362.573 141.439 362.573 91.848C362.573 42.2569 322.226 1.9095 272.634 1.9095" fill="white"/>
<path d="M285.594 183.242C235.198 183.242 194.188 142.232 194.188 91.8361C194.188 41.4403 235.186 0.430054 285.594 0.430054C336.001 0.430054 377 41.4284 377 91.8361C377 142.244 336.001 183.242 285.594 183.242ZM285.594 1.89765C236.003 1.89765 195.655 42.2451 195.655 91.8361C195.655 141.427 236.003 181.775 285.594 181.775C335.185 181.775 375.532 141.427 375.532 91.8361C375.532 42.2451 335.185 1.89765 285.594 1.89765Z" fill="white"/>
<path d="M195.856 183.242C145.46 183.242 104.45 142.244 104.45 91.8361C104.45 41.4284 145.449 0.430054 195.856 0.430054C246.252 0.430054 287.262 41.4403 287.262 91.8361C287.262 142.232 246.264 183.242 195.856 183.242ZM195.856 1.89765C146.265 1.89765 105.918 42.2451 105.918 91.8361C105.918 141.427 146.265 181.775 195.856 181.775C245.447 181.775 285.795 141.427 285.795 91.8361C285.795 42.2451 245.447 1.89765 195.856 1.89765Z" fill="white"/>
<path d="M208.805 183.242C158.409 183.242 117.398 142.244 117.398 91.8361C117.398 41.4284 158.397 0.430054 208.805 0.430054C259.2 0.430054 300.211 41.4403 300.211 91.8361C300.211 142.232 259.212 183.242 208.805 183.242ZM208.805 1.89765C159.213 1.89765 118.866 42.2451 118.866 91.8361C118.866 141.427 159.213 181.775 208.805 181.775C258.396 181.775 298.743 141.427 298.743 91.8361C298.743 42.2451 258.396 1.89765 208.805 1.89765Z" fill="white"/>
<path d="M221.753 183.242C171.357 183.242 130.347 142.244 130.347 91.8361C130.347 41.4284 171.345 0.430054 221.753 0.430054C272.149 0.430054 313.159 41.4403 313.159 91.8361C313.159 142.232 272.16 183.242 221.753 183.242ZM221.753 1.89765C172.162 1.89765 131.814 42.2451 131.814 91.8361C131.814 141.427 172.162 181.775 221.753 181.775C271.344 181.775 311.691 141.427 311.691 91.8361C311.691 42.2451 271.344 1.89765 221.753 1.89765Z" fill="white"/>
<path d="M234.701 183.242C184.305 183.242 143.295 142.244 143.295 91.8361C143.295 41.4284 184.293 0.430054 234.701 0.430054C285.097 0.430054 326.107 41.4403 326.107 91.8361C326.107 142.232 285.109 183.242 234.701 183.242ZM234.701 1.89765C185.11 1.89765 144.763 42.2451 144.763 91.8361C144.763 141.427 185.11 181.775 234.701 181.775C284.292 181.775 324.639 141.427 324.639 91.8361C324.639 42.2451 284.292 1.89765 234.701 1.89765Z" fill="white"/>
<path d="M143.579 183.242C93.1831 183.242 52.1729 142.244 52.1729 91.8361C52.1729 41.4284 93.1713 0.430054 143.579 0.430054C193.987 0.430054 234.985 41.4284 234.985 91.8361C234.985 142.244 193.987 183.242 143.579 183.242ZM143.579 1.89765C93.9879 1.89765 53.6405 42.2451 53.6405 91.8361C53.6405 141.427 93.9879 181.775 143.579 181.775C193.17 181.775 233.517 141.427 233.517 91.8361C233.517 42.2451 193.17 1.89765 143.579 1.89765Z" fill="white"/>
<path d="M156.527 183.242C106.131 183.242 65.1211 142.244 65.1211 91.8361C65.1211 41.4284 106.119 0.430054 156.527 0.430054C206.935 0.430054 247.933 41.4284 247.933 91.8361C247.933 142.244 206.935 183.242 156.527 183.242ZM156.527 1.89765C106.936 1.89765 66.5887 42.2451 66.5887 91.8361C66.5887 141.427 106.936 181.775 156.527 181.775C206.118 181.775 246.466 141.427 246.466 91.8361C246.466 42.2451 206.118 1.89765 156.527 1.89765Z" fill="white"/>
<path d="M169.474 183.242C119.079 183.242 78.0684 142.244 78.0684 91.8361C78.0684 41.4284 119.067 0.430054 169.474 0.430054C219.882 0.430054 260.881 41.4284 260.881 91.8361C260.881 142.244 219.882 183.242 169.474 183.242ZM169.474 1.89765C119.883 1.89765 79.536 42.2451 79.536 91.8361C79.536 141.427 119.883 181.775 169.474 181.775C219.065 181.775 259.413 141.427 259.413 91.8361C259.413 42.2451 219.065 1.89765 169.474 1.89765Z" fill="white"/>
<path d="M182.424 183.242C132.028 183.242 91.0176 142.244 91.0176 91.8361C91.0176 41.4284 132.016 0.430054 182.424 0.430054C232.831 0.430054 273.83 41.4284 273.83 91.8361C273.83 142.244 232.831 183.242 182.424 183.242ZM182.424 1.89765C132.833 1.89765 92.4852 42.2451 92.4852 91.8361C92.4852 141.427 132.833 181.775 182.424 181.775C232.015 181.775 272.362 141.427 272.362 91.8361C272.362 42.2451 232.015 1.89765 182.424 1.89765Z" fill="white"/>
<path d="M92.2362 183.242C41.8403 183.242 0.830078 142.244 0.830078 91.8361C0.830078 41.4284 41.8285 0.430054 92.2362 0.430054C142.644 0.430054 183.642 41.4284 183.642 91.8361C183.642 142.244 142.644 183.242 92.2362 183.242ZM92.2362 1.89765C42.6451 1.89765 2.29769 42.2451 2.29769 91.8361C2.29769 141.427 42.6451 181.775 92.2362 181.775C141.827 181.775 182.175 141.427 182.175 91.8361C182.175 42.2451 141.827 1.89765 92.2362 1.89765Z" fill="white"/>
<path d="M105.184 183.242C80.7676 183.242 57.8185 173.738 40.5504 156.47C23.2823 139.202 13.7783 116.253 13.7783 91.8361C13.7783 41.4403 54.7767 0.430054 105.184 0.430054C155.592 0.430054 196.591 41.4284 196.591 91.8361C196.591 142.244 155.592 183.242 105.184 183.242ZM105.184 1.89765C55.5934 1.89765 15.2459 42.2451 15.2459 91.8361C15.2459 115.862 24.596 138.445 41.5919 155.44C58.576 172.425 81.1701 181.786 105.196 181.786C154.787 181.786 195.135 141.439 195.135 91.848C195.135 42.2569 154.787 1.9095 105.196 1.9095" fill="white"/>
<path d="M118.133 183.242C67.7368 183.242 26.7266 142.244 26.7266 91.8361C26.7266 41.4284 67.725 0.430054 118.133 0.430054C168.54 0.430054 209.539 41.4284 209.539 91.8361C209.539 142.244 168.54 183.242 118.133 183.242ZM118.133 1.89765C68.5416 1.89765 28.1942 42.2451 28.1942 91.8361C28.1942 141.427 68.5416 181.775 118.133 181.775C167.724 181.775 208.071 141.427 208.071 91.8361C208.071 42.2451 167.724 1.89765 118.133 1.89765Z" fill="white"/>
<path d="M131.08 183.242C80.6841 183.242 39.6738 142.244 39.6738 91.8361C39.6738 41.4284 80.6722 0.430054 131.08 0.430054C181.488 0.430054 222.486 41.4284 222.486 91.8361C222.486 142.244 181.488 183.242 131.08 183.242ZM131.08 1.89765C81.4889 1.89765 41.1414 42.2451 41.1414 91.8361C41.1414 141.427 81.4889 181.775 131.08 181.775C180.671 181.775 221.018 141.427 221.018 91.8361C221.018 42.2451 180.671 1.89765 131.08 1.89765Z" fill="white"/>
</svg>
