<svg width="440" height="996" viewBox="0 0 440 996" fill="none" xmlns="http://www.w3.org/2000/svg">
<path d="M440 996H0V0H440V996ZM227.58 607.2C225.687 607.2 224.02 607.667 222.58 608.601C221.167 609.507 220.073 610.747 219.3 612.32C218.553 613.867 218.18 615.56 218.18 617.4C218.18 619.267 218.58 620.974 219.38 622.521C220.18 624.067 221.313 625.294 222.779 626.2C224.273 627.107 225.966 627.56 227.859 627.561C229.859 627.561 231.513 626.973 232.819 625.8C233.772 624.945 234.518 623.905 235.06 622.682V625.601C235.06 627.867 234.526 629.627 233.46 630.88C232.42 632.16 230.82 632.8 228.66 632.8C227.353 632.8 226.126 632.533 224.979 632C223.86 631.493 222.913 630.827 222.14 630L220.1 632.521C221.193 633.614 222.473 634.453 223.939 635.04C225.406 635.653 227.006 635.96 228.739 635.96C232.153 635.96 234.7 635.027 236.38 633.16C238.086 631.293 238.939 628.533 238.939 624.88V607.681H235.34C235.447 608.427 235.646 609.24 235.939 610.12C236.099 610.573 236.287 611.027 236.5 611.48C236.713 611.907 236.94 612.307 237.18 612.681L235.1 613.84C234.833 612.533 234.379 611.387 233.739 610.4C233.099 609.387 232.26 608.6 231.22 608.04C230.206 607.48 228.993 607.2 227.58 607.2ZM117.467 607.24C115.52 607.24 113.76 607.707 112.187 608.641C110.64 609.574 109.427 610.867 108.547 612.521C107.667 614.147 107.227 616 107.227 618.08C107.227 620.24 107.68 622.147 108.587 623.8C109.52 625.426 110.8 626.694 112.427 627.601C114.053 628.48 115.88 628.92 117.906 628.92C119.693 628.92 121.346 628.546 122.866 627.8C124.413 627.053 125.694 626.053 126.707 624.8L124.786 622.48C123.96 623.494 122.973 624.293 121.826 624.88C120.706 625.466 119.453 625.76 118.066 625.76C116.76 625.76 115.573 625.467 114.507 624.88C113.44 624.267 112.6 623.387 111.986 622.24C111.515 621.339 111.227 620.313 111.117 619.16H127.267V617.96C127.267 615.853 126.853 613.987 126.026 612.36C125.226 610.734 124.093 609.481 122.627 608.601C121.16 607.694 119.44 607.24 117.467 607.24ZM153.57 602.28C153.57 603.4 153.77 604.534 154.17 605.681C154.57 606.827 155.104 607.6 155.771 608L154.811 609.4C154.037 608.92 153.223 608.52 152.37 608.2C151.543 607.88 150.61 607.721 149.57 607.721V610.641H153.57V623.36C153.57 625.227 154.051 626.627 155.011 627.561C155.997 628.467 157.41 628.92 159.25 628.92C160.21 628.92 161.131 628.76 162.011 628.44C162.891 628.12 163.637 627.72 164.25 627.24L163.13 624.641C162.65 624.987 162.157 625.267 161.65 625.48C161.144 625.694 160.597 625.8 160.011 625.8C159.184 625.8 158.543 625.573 158.09 625.12C157.663 624.667 157.45 623.92 157.45 622.88V610.641H163.811V607.721H157.45V602.28H153.57ZM189.019 600.08C186.272 600.08 183.818 600.707 181.658 601.96C179.525 603.187 177.858 604.893 176.658 607.08C175.485 609.267 174.898 611.734 174.898 614.48C174.898 617.227 175.485 619.707 176.658 621.92C177.858 624.107 179.525 625.827 181.658 627.08C183.818 628.307 186.272 628.92 189.019 628.92C191.792 628.92 194.246 628.307 196.379 627.08C198.512 625.827 200.166 624.106 201.339 621.92C202.539 619.707 203.139 617.227 203.139 614.48C203.139 611.734 202.539 609.267 201.339 607.08C200.166 604.894 198.512 603.187 196.379 601.96C194.246 600.707 191.792 600.08 189.019 600.08ZM251.491 607.2C249.785 607.2 248.118 607.547 246.491 608.24C244.865 608.934 243.518 609.853 242.451 611L244.531 613.32C245.331 612.387 246.305 611.653 247.451 611.12C248.624 610.587 249.864 610.32 251.171 610.32C252.451 610.32 253.585 610.587 254.571 611.12C255.558 611.627 256.317 612.374 256.851 613.36C257.411 614.347 257.691 615.533 257.691 616.92V621.36C257.691 621.526 257.696 621.701 257.704 621.887C257.124 620.709 256.481 619.719 255.771 618.92C254.704 617.694 253.571 616.827 252.371 616.32C251.198 615.814 249.958 615.561 248.651 615.561C247.238 615.561 245.971 615.867 244.851 616.48C243.731 617.067 242.837 617.88 242.171 618.92C241.531 619.96 241.211 621.094 241.211 622.32C241.211 623.52 241.491 624.627 242.051 625.641C242.611 626.654 243.398 627.453 244.411 628.04C245.451 628.627 246.664 628.92 248.051 628.92C249.651 628.92 251.011 628.521 252.131 627.721C253.251 626.921 253.944 625.854 254.211 624.521C254.478 623.187 254.211 621.8 253.411 620.36L254.811 619.561C255.61 620.44 256.277 621.6 256.811 623.04C257.371 624.453 257.797 626.067 258.091 627.88C258.144 628.04 258.171 628.214 258.171 628.4H261.491V616.88C261.491 614.827 261.064 613.08 260.211 611.641C259.384 610.174 258.211 609.067 256.691 608.32C255.198 607.574 253.464 607.2 251.491 607.2ZM321.264 607.24C319.317 607.24 317.557 607.707 315.983 608.641C314.437 609.574 313.224 610.867 312.344 612.521C311.464 614.147 311.023 616 311.023 618.08C311.023 620.24 311.477 622.147 312.384 623.8C313.317 625.426 314.597 626.694 316.224 627.601C317.85 628.48 319.677 628.92 321.703 628.92C323.49 628.92 325.143 628.546 326.663 627.8C328.21 627.053 329.491 626.053 330.504 624.8L328.583 622.48C327.756 623.494 326.77 624.293 325.623 624.88C324.503 625.467 323.25 625.76 321.863 625.76C320.557 625.76 319.37 625.467 318.304 624.88C317.237 624.267 316.397 623.387 315.783 622.24C315.312 621.339 315.023 620.313 314.914 619.16H331.063V617.96C331.063 615.853 330.65 613.987 329.823 612.36C329.023 610.734 327.89 609.481 326.424 608.601C324.957 607.694 323.237 607.24 321.264 607.24ZM353.754 607.2C352.127 607.2 350.7 607.4 349.474 607.8C348.247 608.173 347.287 608.734 346.594 609.48C345.927 610.2 345.594 611.067 345.594 612.08C345.594 613.173 346.021 614.054 346.874 614.721C347.727 615.387 348.768 615.853 349.994 616.12C351.221 616.387 352.487 616.521 353.794 616.521V618.36C352.487 618.36 351.273 618.547 350.153 618.92C349.033 619.267 348.127 619.814 347.434 620.561C346.767 621.281 346.434 622.2 346.434 623.32C346.434 624.387 346.78 625.347 347.474 626.2C348.194 627.054 349.207 627.72 350.514 628.2C351.847 628.68 353.407 628.92 355.193 628.92C356.9 628.92 358.394 628.64 359.674 628.08C360.98 627.493 361.981 626.72 362.674 625.76C363.367 624.8 363.714 623.76 363.714 622.641C363.714 620.934 363.087 619.534 361.834 618.44C360.607 617.32 358.847 616.56 356.554 616.16L354.594 615.8C354.514 615.773 354.42 615.76 354.313 615.76C353.274 615.546 352.461 615.347 351.874 615.16C351.287 614.973 350.807 614.707 350.434 614.36C350.06 614.014 349.874 613.573 349.874 613.04C349.874 612.534 350.047 612.094 350.394 611.721C350.74 611.321 351.207 611.027 351.794 610.84C352.407 610.627 353.114 610.521 353.914 610.521C355.487 610.521 356.967 610.814 358.354 611.4C359.74 611.96 360.927 612.681 361.914 613.561L363.714 610.721C362.434 609.654 360.94 608.8 359.233 608.16C357.554 607.52 355.727 607.2 353.754 607.2ZM66.2656 600.561V628.4H87.2656V625.08H70.1855V615.841H85.4658V612.641H70.1855V603.841H86.7852V600.561H66.2656ZM86.4844 607.721L94.6846 628.4H98.6445L106.805 607.721H102.765C101.938 609.747 101.377 611.161 101.084 611.961C100.044 614.654 99.191 617.094 98.5244 619.28C97.8844 621.44 97.5511 623.241 97.5244 624.681H95.8047C95.7247 622.974 95.271 620.827 94.4443 618.24C93.6444 615.627 92.5774 612.707 91.2441 609.48L90.5645 607.721H86.4844ZM140.777 607.24C139.311 607.24 138.057 607.52 137.017 608.08C135.977 608.64 135.15 609.4 134.537 610.36C133.924 611.32 133.457 612.441 133.137 613.721L131.337 612.641C131.657 611.894 131.964 611.147 132.257 610.4C132.577 609.654 132.817 608.76 132.977 607.721H129.297V628.4H133.177V617.16C133.177 615.747 133.443 614.534 133.977 613.521C134.51 612.507 135.217 611.747 136.097 611.24C137.003 610.734 138.017 610.48 139.137 610.48C140.843 610.48 142.137 610.973 143.017 611.96C143.923 612.92 144.377 614.387 144.377 616.36V628.4H148.257V615.12C148.257 613.467 147.977 612.053 147.417 610.88C146.857 609.707 146.016 608.813 144.896 608.2C143.777 607.56 142.404 607.24 140.777 607.24ZM218.149 607.24C216.389 607.24 214.909 607.627 213.709 608.4C212.509 609.147 211.576 610.147 210.909 611.4C210.269 612.627 209.829 614.001 209.589 615.521L207.829 614.44C208.709 612.521 209.255 610.281 209.469 607.721H205.789V628.4H209.709V619.721C209.709 617.961 210.029 616.427 210.669 615.12C211.309 613.814 212.256 612.8 213.509 612.08C214.789 611.36 216.336 611 218.149 611V607.24ZM275.816 607.24C274.35 607.24 273.096 607.52 272.056 608.08C271.016 608.64 270.189 609.4 269.576 610.36C268.963 611.32 268.496 612.441 268.176 613.721L266.376 612.641C266.696 611.894 267.003 611.147 267.296 610.4C267.616 609.654 267.856 608.76 268.016 607.721H264.336V628.4H268.216V617.16C268.216 615.747 268.482 614.534 269.016 613.521C269.549 612.507 270.256 611.747 271.136 611.24C272.042 610.734 273.056 610.48 274.176 610.48C275.882 610.48 277.176 610.973 278.056 611.96C278.962 612.92 279.416 614.387 279.416 616.36V628.4H283.296V615.12C283.296 613.467 283.016 612.053 282.456 610.88C281.896 609.707 281.055 608.813 279.936 608.2C278.816 607.56 277.443 607.24 275.816 607.24ZM286.121 607.72V628.4H290.001V607.72H286.121ZM293.009 607.681V610.641H295.409C297.409 610.641 299.143 610.494 300.609 610.2C302.102 609.907 303.103 609.494 303.609 608.961L305.489 610.121L292.289 625.601V628.4H310.009V625.44H306.929C304.902 625.44 303.089 625.588 301.489 625.881C299.889 626.148 298.849 626.534 298.369 627.041L296.689 625.881L309.889 610.4V607.681H293.009ZM345.454 607.24C343.694 607.24 342.214 607.627 341.014 608.4C339.814 609.147 338.881 610.147 338.214 611.4C337.574 612.627 337.134 614.001 336.894 615.521L335.134 614.44C336.014 612.521 336.56 610.281 336.773 607.721H333.094V628.4H337.014V619.721C337.014 617.961 337.334 616.427 337.974 615.12C338.614 613.814 339.56 612.8 340.813 612.08C342.093 611.36 343.641 611 345.454 611V607.24ZM365.797 624.36V628.4H370.437V624.36H365.797ZM249.011 618C250.211 618 251.131 618.4 251.771 619.2C252.437 619.974 252.771 621.027 252.771 622.36C252.77 623.187 252.611 623.921 252.291 624.561C251.971 625.2 251.504 625.693 250.891 626.04C250.304 626.36 249.61 626.521 248.811 626.521C247.637 626.52 246.704 626.134 246.011 625.36C245.317 624.587 244.971 623.56 244.971 622.28C244.971 621.427 245.131 620.68 245.451 620.04C245.798 619.4 246.278 618.907 246.891 618.561C247.504 618.187 248.211 618 249.011 618ZM355.233 618.92C356.647 618.92 357.78 619.267 358.634 619.96C359.514 620.653 359.954 621.561 359.954 622.681C359.954 623.374 359.753 623.987 359.354 624.521C358.98 625.027 358.434 625.427 357.714 625.721C357.021 626.014 356.22 626.16 355.313 626.16C354.38 626.16 353.554 626.014 352.834 625.721C352.114 625.427 351.553 625.027 351.153 624.521C350.753 623.987 350.554 623.374 350.554 622.681C350.554 621.908 350.754 621.241 351.153 620.681C351.553 620.121 352.101 619.694 352.794 619.4C353.514 619.08 354.327 618.92 355.233 618.92ZM189.019 603.4C191.098 603.4 192.898 603.88 194.418 604.84C195.938 605.8 197.098 607.12 197.898 608.8C198.725 610.48 199.139 612.374 199.139 614.48C199.139 616.587 198.725 618.494 197.898 620.2C197.098 621.88 195.938 623.214 194.418 624.2C192.898 625.16 191.098 625.64 189.019 625.64C186.939 625.64 185.138 625.16 183.618 624.2C182.098 623.214 180.939 621.88 180.139 620.2C179.339 618.494 178.939 616.587 178.938 614.48C178.938 612.374 179.339 610.48 180.139 608.8C180.939 607.12 182.098 605.8 183.618 604.84C185.138 603.88 186.939 603.4 189.019 603.4ZM228.66 610.28C229.913 610.28 231.02 610.574 231.979 611.16C232.966 611.747 233.713 612.561 234.22 613.601C234.753 614.614 235.02 615.814 235.02 617.2C235.02 618.56 234.753 619.8 234.22 620.92C233.713 622.013 232.966 622.881 231.979 623.521C231.02 624.134 229.913 624.44 228.66 624.44C227.38 624.44 226.246 624.147 225.26 623.561C224.273 622.947 223.499 622.107 222.939 621.04C222.406 619.947 222.14 618.72 222.14 617.36C222.14 615.974 222.406 614.747 222.939 613.681C223.499 612.614 224.273 611.787 225.26 611.2C226.246 610.587 227.38 610.28 228.66 610.28ZM117.547 610.28C118.8 610.28 119.906 610.6 120.866 611.24C121.826 611.854 122.546 612.747 123.026 613.92C123.349 614.668 123.537 615.508 123.589 616.44H111.168C111.29 615.492 111.521 614.638 111.866 613.88C112.426 612.707 113.187 611.813 114.146 611.2C115.133 610.587 116.267 610.28 117.547 610.28ZM321.344 610.28C322.597 610.28 323.703 610.6 324.663 611.24C325.623 611.854 326.343 612.747 326.823 613.92C327.146 614.668 327.334 615.508 327.386 616.44H314.965C315.087 615.492 315.318 614.638 315.663 613.88C316.223 612.707 316.983 611.813 317.943 611.2C318.93 610.587 320.064 610.28 321.344 610.28ZM285.961 600V603.92H290.161V600H285.961ZM251.85 584.36V588.4H254.203C254.177 589.186 253.994 589.813 253.649 590.28C253.303 590.787 252.623 591.08 251.609 591.16L252.09 592.841C253.53 592.734 254.623 592.28 255.369 591.48C256.142 590.681 256.529 589.454 256.529 587.801V584.36H251.85ZM113.671 560.04C110.871 560.04 108.39 560.64 106.23 561.84C104.07 563.04 102.39 564.733 101.19 566.92C99.9904 569.107 99.3906 571.614 99.3906 574.44C99.3907 577.32 99.9905 579.867 101.19 582.08C102.39 584.267 104.057 585.96 106.19 587.16C108.324 588.36 110.751 588.96 113.471 588.96C115.897 588.96 118.004 588.533 119.791 587.68C121.577 586.8 123.097 585.573 124.351 584L122.19 581.32C121.23 582.6 120.057 583.614 118.671 584.36C117.284 585.08 115.684 585.44 113.871 585.44C111.818 585.44 109.991 585 108.391 584.12C106.817 583.214 105.591 581.933 104.711 580.28C103.831 578.627 103.391 576.694 103.391 574.48C103.391 572.32 103.831 570.413 104.711 568.76C105.591 567.08 106.817 565.786 108.391 564.88C109.991 563.947 111.818 563.48 113.871 563.48C115.471 563.481 116.937 563.787 118.271 564.4C119.63 565.014 120.818 565.867 121.831 566.96L123.91 564.28C122.63 562.92 121.124 561.88 119.391 561.16C117.684 560.414 115.777 560.04 113.671 560.04ZM206.106 567.28C203.973 567.28 202.107 567.747 200.507 568.681C198.907 569.587 197.68 570.867 196.827 572.521C195.974 574.147 195.547 576.014 195.547 578.12C195.547 580.2 195.974 582.067 196.827 583.721C197.68 585.347 198.907 586.627 200.507 587.561C202.107 588.494 203.973 588.96 206.106 588.96C208.266 588.96 210.134 588.494 211.707 587.561C213.307 586.627 214.533 585.347 215.387 583.721C216.24 582.067 216.667 580.2 216.667 578.12C216.667 576.014 216.24 574.147 215.387 572.521C214.533 570.867 213.307 569.587 211.707 568.681C210.134 567.747 208.266 567.28 206.106 567.28ZM168.554 567.2C166.847 567.2 165.18 567.547 163.554 568.24C161.927 568.934 160.58 569.853 159.514 571L161.594 573.32C162.394 572.387 163.367 571.653 164.514 571.12C165.687 570.587 166.927 570.32 168.233 570.32C169.513 570.32 170.647 570.587 171.634 571.12C172.62 571.627 173.38 572.374 173.913 573.36C174.473 574.347 174.754 575.533 174.754 576.92V581.36C174.754 581.526 174.759 581.701 174.767 581.887C174.186 580.709 173.543 579.719 172.833 578.92C171.766 577.694 170.633 576.827 169.434 576.32C168.26 575.814 167.02 575.561 165.714 575.561C164.301 575.561 163.033 575.867 161.913 576.48C160.793 577.067 159.9 577.88 159.233 578.92C158.593 579.96 158.273 581.094 158.273 582.32C158.273 583.52 158.553 584.627 159.113 585.641C159.673 586.654 160.46 587.453 161.474 588.04C162.514 588.627 163.727 588.92 165.113 588.92C166.713 588.92 168.073 588.521 169.193 587.721C170.313 586.921 171.007 585.854 171.273 584.521C171.54 583.187 171.274 581.8 170.474 580.36L171.873 579.561C172.673 580.44 173.34 581.6 173.873 583.04C174.433 584.453 174.86 586.067 175.153 587.88C175.207 588.04 175.233 588.214 175.233 588.4H178.554V576.88C178.554 574.827 178.127 573.08 177.273 571.641C176.447 570.174 175.274 569.067 173.754 568.32C172.261 567.574 170.527 567.2 168.554 567.2ZM184.055 562.28C184.055 563.4 184.254 564.534 184.654 565.681C185.054 566.827 185.588 567.6 186.255 568L185.295 569.4C184.522 568.92 183.708 568.52 182.854 568.2C182.028 567.88 181.095 567.721 180.055 567.721V570.641H184.055V583.36C184.055 585.227 184.535 586.627 185.495 587.561C186.482 588.467 187.895 588.92 189.734 588.92C190.694 588.92 191.615 588.76 192.495 588.44C193.375 588.12 194.121 587.72 194.734 587.24L193.614 584.641C193.134 584.987 192.641 585.267 192.135 585.48C191.628 585.694 191.082 585.8 190.495 585.8C189.668 585.8 189.028 585.573 188.574 585.12C188.148 584.667 187.935 583.92 187.935 582.88V570.641H194.295V567.721H187.935V562.28H184.055ZM239.566 567.2C237.94 567.2 236.513 567.4 235.286 567.8C234.059 568.173 233.1 568.734 232.406 569.48C231.74 570.2 231.406 571.067 231.406 572.08C231.406 573.173 231.833 574.054 232.687 574.721C233.54 575.387 234.58 575.853 235.807 576.12C237.033 576.387 238.3 576.521 239.606 576.521V578.36C238.3 578.36 237.086 578.547 235.966 578.92C234.846 579.267 233.939 579.814 233.246 580.561C232.58 581.281 232.246 582.2 232.246 583.32C232.246 584.387 232.593 585.347 233.286 586.2C234.006 587.054 235.02 587.72 236.326 588.2C237.659 588.68 239.219 588.92 241.006 588.92C242.713 588.92 244.206 588.64 245.486 588.08C246.793 587.493 247.793 586.72 248.486 585.76C249.179 584.8 249.526 583.76 249.526 582.641C249.526 580.934 248.9 579.534 247.646 578.44C246.42 577.32 244.66 576.56 242.366 576.16L240.406 575.8C240.326 575.773 240.233 575.76 240.126 575.76C239.086 575.546 238.273 575.347 237.687 575.16C237.1 574.973 236.619 574.707 236.246 574.36C235.873 574.014 235.687 573.573 235.687 573.04C235.687 572.534 235.86 572.094 236.206 571.721C236.553 571.321 237.02 571.027 237.606 570.84C238.22 570.627 238.927 570.521 239.727 570.521C241.3 570.521 242.779 570.814 244.166 571.4C245.553 571.96 246.74 572.681 247.727 573.561L249.526 570.721C248.246 569.654 246.753 568.8 245.046 568.16C243.366 567.52 241.54 567.2 239.566 567.2ZM335.449 560V563.96C335.529 565.693 335.715 567.347 336.009 568.92C336.302 570.467 336.729 571.894 337.289 573.2L335.449 574.36C335.209 573.054 334.715 571.853 333.969 570.76C333.249 569.667 332.329 568.8 331.209 568.16C330.089 567.52 328.848 567.2 327.488 567.2C325.595 567.2 323.928 567.693 322.488 568.68C321.048 569.64 319.929 570.947 319.129 572.6C318.356 574.253 317.969 576.08 317.969 578.08C317.969 580.053 318.356 581.88 319.129 583.56C319.929 585.213 321.048 586.52 322.488 587.48C323.928 588.44 325.595 588.92 327.488 588.92C328.875 588.92 330.129 588.653 331.249 588.12C332.369 587.56 333.316 586.8 334.089 585.84C334.62 585.202 335.067 584.498 335.434 583.73C335.456 584.311 335.474 584.788 335.488 585.16C335.542 585.853 335.595 586.934 335.648 588.4H339.329V560H335.449ZM125.477 567.721V581.001C125.477 582.681 125.73 584.107 126.236 585.28C126.77 586.454 127.57 587.348 128.637 587.961C129.73 588.574 131.09 588.881 132.717 588.881C134.157 588.881 135.37 588.614 136.356 588.081C137.37 587.521 138.157 586.774 138.717 585.841C139.303 584.881 139.756 583.747 140.076 582.44L141.877 583.48C141.557 584.227 141.237 584.974 140.917 585.721C140.624 586.467 140.396 587.361 140.236 588.4H143.917V567.721H140.036V579.001C140.036 580.414 139.796 581.627 139.316 582.641C138.836 583.627 138.156 584.374 137.276 584.881C136.423 585.387 135.45 585.641 134.356 585.641C132.65 585.641 131.383 585.161 130.557 584.201C129.757 583.241 129.356 581.774 129.356 579.801V567.721H125.477ZM159.306 567.24C157.546 567.24 156.065 567.627 154.865 568.4C153.665 569.147 152.732 570.147 152.065 571.4C151.425 572.627 150.985 574.001 150.745 575.521L148.985 574.44C149.865 572.521 150.412 570.281 150.625 567.721H146.945V588.4H150.865V579.721C150.865 577.961 151.185 576.427 151.825 575.12C152.465 573.814 153.412 572.8 154.665 572.08C155.945 571.36 157.492 571 159.306 571V567.24ZM231.267 567.24C229.507 567.24 228.026 567.627 226.826 568.4C225.626 569.147 224.693 570.147 224.026 571.4C223.386 572.627 222.946 574.001 222.706 575.521L220.946 574.44C221.826 572.521 222.373 570.281 222.586 567.721H218.906V588.4H222.826V579.721C222.826 577.961 223.146 576.427 223.786 575.12C224.426 573.814 225.373 572.8 226.626 572.08C227.906 571.36 229.453 571 231.267 571V567.24ZM279.472 560.561L267.672 588.4H271.912L275.067 580.601H288.116L291.271 588.4H295.472L283.712 560.561H279.472ZM308.621 567.24C307.154 567.24 305.9 567.52 304.86 568.08C303.82 568.64 302.994 569.4 302.381 570.36C301.768 571.32 301.3 572.441 300.98 573.721L299.181 572.641C299.501 571.894 299.807 571.147 300.101 570.4C300.421 569.654 300.66 568.76 300.82 567.721H297.141V588.4H301.021V577.16C301.021 575.747 301.287 574.534 301.82 573.521C302.354 572.507 303.06 571.747 303.94 571.24C304.847 570.734 305.861 570.48 306.98 570.48C308.687 570.48 309.98 570.973 310.86 571.96C311.767 572.92 312.221 574.387 312.221 576.36V588.4H316.101V575.12C316.101 573.467 315.821 572.053 315.261 570.88C314.701 569.707 313.86 568.813 312.74 568.2C311.62 567.56 310.247 567.24 308.621 567.24ZM166.073 578C167.273 578 168.193 578.4 168.833 579.2C169.5 579.974 169.833 581.027 169.833 582.36C169.833 583.187 169.673 583.921 169.354 584.561C169.034 585.2 168.566 585.693 167.953 586.04C167.366 586.36 166.673 586.521 165.873 586.521C164.7 586.52 163.766 586.134 163.073 585.36C162.38 584.587 162.033 583.56 162.033 582.28C162.033 581.427 162.194 580.68 162.514 580.04C162.86 579.4 163.34 578.907 163.953 578.561C164.566 578.187 165.273 578 166.073 578ZM241.046 578.92C242.459 578.92 243.593 579.267 244.446 579.96C245.326 580.653 245.767 581.561 245.767 582.681C245.767 583.374 245.566 583.987 245.166 584.521C244.793 585.027 244.246 585.427 243.526 585.721C242.833 586.014 242.033 586.16 241.126 586.16C240.193 586.16 239.366 586.014 238.646 585.721C237.926 585.427 237.366 585.027 236.966 584.521C236.566 583.987 236.366 583.374 236.366 582.681C236.366 581.908 236.566 581.241 236.966 580.681C237.366 580.121 237.913 579.694 238.606 579.4C239.326 579.08 240.139 578.92 241.046 578.92ZM206.106 570.4C208.16 570.4 209.761 571.107 210.907 572.521C212.08 573.934 212.667 575.8 212.667 578.12C212.667 579.613 212.414 580.947 211.907 582.12C211.401 583.293 210.64 584.213 209.627 584.88C208.64 585.52 207.466 585.84 206.106 585.84C204.053 585.84 202.44 585.134 201.267 583.721C200.12 582.307 199.547 580.44 199.547 578.12C199.547 576.6 199.8 575.267 200.307 574.12C200.84 572.947 201.6 572.04 202.587 571.4C203.573 570.734 204.747 570.4 206.106 570.4ZM328.688 570.4C329.995 570.4 331.156 570.747 332.169 571.44C333.182 572.134 333.968 573.067 334.528 574.24C335.115 575.387 335.409 576.667 335.409 578.08C335.409 579.467 335.115 580.747 334.528 581.92C333.968 583.093 333.182 584.026 332.169 584.72C331.156 585.413 329.995 585.76 328.688 585.76C327.302 585.76 326.102 585.426 325.089 584.76C324.076 584.066 323.302 583.133 322.769 581.96C322.235 580.787 321.969 579.493 321.969 578.08C321.969 576.667 322.235 575.373 322.769 574.2C323.302 573.027 324.076 572.107 325.089 571.44C326.102 570.747 327.302 570.4 328.688 570.4ZM282.672 563.601C282.725 565.041 282.911 566.414 283.231 567.721C283.551 569.001 284.192 570.8 285.152 573.12C285.74 574.578 286.346 576.018 286.969 577.44H276.207C277.688 574.016 278.563 571.95 278.832 571.24C279.232 570.12 279.552 569.147 279.792 568.32C280.059 567.467 280.245 566.681 280.352 565.961C280.458 565.214 280.525 564.427 280.552 563.601H282.672ZM198.102 527.721L206.874 547.45C206.662 548.547 206.406 549.451 206.102 550.161C205.728 551.094 205.261 551.761 204.701 552.161C204.168 552.561 203.501 552.761 202.701 552.761H198.302V556.041H202.781C203.768 556.041 204.662 555.854 205.462 555.48C206.288 555.134 207.008 554.601 207.621 553.881C208.261 553.161 208.795 552.28 209.222 551.24L218.302 527.721H214.102C212.235 532.947 211.009 536.721 210.422 539.041C209.862 541.361 209.635 543.427 209.741 545.24H207.542C207.595 544.334 207.555 543.414 207.422 542.48C207.289 541.521 207.034 540.401 206.661 539.121C206.234 537.761 205.661 536.16 204.941 534.32C204.248 532.48 203.368 530.28 202.302 527.721H198.102ZM345.17 544.36V548.4H347.523C347.497 549.186 347.314 549.813 346.97 550.28C346.623 550.787 345.943 551.08 344.93 551.16L345.41 552.841C346.85 552.734 347.943 552.28 348.689 551.48C349.463 550.681 349.85 549.454 349.85 547.801V544.36H345.17ZM152.977 522.28C152.977 523.4 153.176 524.534 153.576 525.681C153.976 526.827 154.51 527.6 155.177 528L154.217 529.4C153.443 528.92 152.63 528.52 151.776 528.2C150.95 527.88 150.016 527.721 148.977 527.721V530.641H152.977V543.36C152.977 545.227 153.457 546.627 154.417 547.561C155.404 548.467 156.817 548.92 158.656 548.92C159.616 548.92 160.537 548.76 161.417 548.44C162.297 548.12 163.043 547.72 163.656 547.24L162.536 544.641C162.056 544.987 161.563 545.267 161.057 545.48C160.55 545.694 160.003 545.8 159.417 545.8C158.59 545.8 157.949 545.573 157.496 545.12C157.07 544.667 156.856 543.92 156.856 542.88V530.641H163.217V527.721H156.856V522.28H152.977ZM273.828 522.28C273.828 523.4 274.028 524.534 274.428 525.681C274.828 526.827 275.362 527.6 276.028 528L275.068 529.4C274.295 528.92 273.481 528.52 272.628 528.2C271.801 527.88 270.868 527.721 269.828 527.721V530.641H273.828V543.36C273.828 545.227 274.309 546.627 275.269 547.561C276.255 548.467 277.668 548.92 279.508 548.92C280.468 548.92 281.389 548.76 282.269 548.44C283.148 548.12 283.895 547.72 284.508 547.24L283.388 544.641C282.908 544.987 282.415 545.267 281.908 545.48C281.402 545.694 280.855 545.8 280.269 545.8C279.442 545.8 278.801 545.573 278.348 545.12C277.921 544.667 277.708 543.92 277.708 542.88V530.641H284.068V527.721H277.708V522.28H273.828ZM314.25 522.28C314.25 523.4 314.45 524.534 314.85 525.681C315.25 526.827 315.784 527.6 316.45 528L315.49 529.4C314.717 528.92 313.903 528.52 313.05 528.2C312.223 527.88 311.29 527.721 310.25 527.721V530.462C309.043 529.516 307.658 528.747 306.093 528.16C304.413 527.52 302.586 527.2 300.613 527.2C298.987 527.2 297.56 527.4 296.333 527.8C295.106 528.173 294.146 528.734 293.453 529.48C292.787 530.2 292.453 531.067 292.453 532.08C292.453 533.173 292.88 534.053 293.733 534.72C294.587 535.386 295.627 535.853 296.854 536.12C298.08 536.387 299.347 536.521 300.653 536.521V538.36C299.347 538.36 298.133 538.547 297.013 538.92C295.893 539.267 294.986 539.814 294.293 540.561C293.626 541.281 293.293 542.2 293.293 543.32C293.293 544.387 293.64 545.347 294.333 546.2C295.053 547.054 296.066 547.72 297.373 548.2C298.706 548.68 300.266 548.92 302.053 548.92C303.759 548.92 305.253 548.64 306.533 548.08C307.84 547.493 308.84 546.72 309.533 545.76C310.226 544.8 310.573 543.76 310.573 542.641C310.573 540.934 309.947 539.534 308.693 538.44C307.467 537.32 305.706 536.56 303.413 536.16L301.453 535.8C301.373 535.773 301.279 535.76 301.173 535.76C300.133 535.546 299.32 535.347 298.733 535.16C298.147 534.973 297.666 534.707 297.293 534.36C296.92 534.014 296.733 533.573 296.733 533.04C296.733 532.533 296.906 532.093 297.253 531.72C297.6 531.32 298.067 531.026 298.653 530.84C299.267 530.627 299.974 530.521 300.773 530.521C302.347 530.521 303.826 530.814 305.213 531.4C306.6 531.96 307.787 532.681 308.773 533.561L310.573 530.72C310.541 530.693 310.506 530.667 310.474 530.641H314.25V543.36C314.25 545.227 314.73 546.627 315.69 547.561C316.677 548.467 318.09 548.92 319.93 548.92C320.89 548.92 321.81 548.76 322.69 548.44C323.57 548.12 324.316 547.72 324.93 547.24L323.81 544.641C323.33 544.987 322.837 545.267 322.33 545.48C321.824 545.694 321.277 545.8 320.69 545.8C319.864 545.8 319.223 545.573 318.77 545.12C318.343 544.667 318.13 543.92 318.13 542.88V530.641H324.49V527.721H318.13V522.28H314.25ZM332.879 527.2C331.252 527.2 329.825 527.4 328.599 527.8C327.372 528.173 326.412 528.734 325.719 529.48C325.052 530.2 324.719 531.067 324.719 532.08C324.719 533.173 325.146 534.053 325.999 534.72C326.852 535.386 327.892 535.853 329.119 536.12C330.346 536.387 331.612 536.521 332.919 536.521V538.36C331.612 538.36 330.398 538.547 329.278 538.92C328.158 539.267 327.252 539.814 326.559 540.561C325.892 541.281 325.559 542.2 325.559 543.32C325.559 544.387 325.905 545.347 326.599 546.2C327.319 547.054 328.332 547.72 329.639 548.2C330.972 548.68 332.532 548.92 334.318 548.92C336.025 548.92 337.519 548.64 338.799 548.08C340.105 547.493 341.106 546.72 341.799 545.76C342.492 544.8 342.839 543.76 342.839 542.641C342.839 540.934 342.212 539.534 340.959 538.44C339.732 537.32 337.972 536.56 335.679 536.16L333.719 535.8C333.639 535.773 333.545 535.76 333.438 535.76C332.399 535.546 331.586 535.347 330.999 535.16C330.412 534.973 329.932 534.707 329.559 534.36C329.185 534.014 328.999 533.573 328.999 533.04C328.999 532.533 329.172 532.093 329.519 531.72C329.865 531.32 330.332 531.026 330.919 530.84C331.532 530.627 332.239 530.521 333.039 530.521C334.612 530.521 336.092 530.814 337.479 531.4C338.865 531.96 340.052 532.681 341.039 533.561L342.839 530.72C341.559 529.653 340.065 528.8 338.358 528.16C336.679 527.52 334.852 527.2 332.879 527.2ZM114.32 527.721V541.001C114.32 542.681 114.574 544.107 115.08 545.28C115.613 546.454 116.414 547.348 117.48 547.961C118.574 548.574 119.934 548.881 121.561 548.881C123 548.881 124.214 548.614 125.2 548.081C126.214 547.521 127.001 546.774 127.561 545.841C128.147 544.881 128.6 543.747 128.92 542.44L130.721 543.48C130.401 544.227 130.081 544.974 129.761 545.721C129.467 546.467 129.24 547.361 129.08 548.4H132.761V527.721H128.88V539.001C128.88 540.414 128.64 541.627 128.16 542.641C127.68 543.627 127 544.374 126.12 544.881C125.267 545.387 124.293 545.641 123.2 545.641C121.494 545.641 120.227 545.161 119.4 544.201C118.6 543.241 118.2 541.774 118.2 539.801V527.721H114.32ZM89.2656 520.561V548.4H102.785C104.705 548.4 106.372 548.107 107.785 547.521C109.225 546.934 110.332 546.094 111.105 545.001C111.905 543.881 112.306 542.547 112.306 541.001C112.306 539.694 111.999 538.614 111.386 537.761C110.799 536.881 109.972 536.227 108.905 535.801C107.839 535.348 106.585 535.081 105.146 535.001V532.921C106.399 532.814 107.466 532.56 108.346 532.16C109.252 531.733 109.959 531.12 110.466 530.32C110.972 529.52 111.226 528.493 111.226 527.24C111.226 525.774 110.839 524.547 110.065 523.561C109.319 522.547 108.252 521.8 106.865 521.32C105.505 520.814 103.852 520.561 101.905 520.561H89.2656ZM135.949 527.72V548.4H139.829V527.72H135.949ZM143.039 520.04V548.4H146.919V520.04H143.039ZM174.906 520.561V548.4H188.426C190.346 548.4 192.013 548.107 193.426 547.521C194.866 546.934 195.973 546.094 196.746 545.001C197.546 543.881 197.946 542.547 197.946 541.001C197.946 539.694 197.64 538.614 197.026 537.761C196.44 536.881 195.613 536.227 194.546 535.801C193.479 535.348 192.226 535.081 190.786 535.001V532.921C192.039 532.814 193.106 532.56 193.986 532.16C194.893 531.733 195.6 531.12 196.106 530.32C196.613 529.52 196.866 528.493 196.866 527.24C196.866 525.774 196.479 524.547 195.706 523.561C194.959 522.547 193.892 521.8 192.506 521.32C191.146 520.814 189.492 520.561 187.546 520.561H174.906ZM239.659 520.561L227.859 548.4H232.1L235.255 540.601H248.304L251.459 548.4H255.659L243.899 520.561H239.659ZM269.688 527.24C267.928 527.24 266.448 527.627 265.248 528.4C264.048 529.147 263.115 530.147 262.448 531.4C261.808 532.627 261.368 534.001 261.128 535.521L259.368 534.44C260.248 532.521 260.794 530.28 261.008 527.721H257.328V548.4H261.248V539.721C261.248 537.961 261.568 536.427 262.208 535.12C262.848 533.814 263.795 532.8 265.048 532.08C266.328 531.36 267.875 531 269.688 531V527.24ZM286.441 527.72V548.4H290.321V527.72H286.441ZM302.093 538.92C303.506 538.92 304.64 539.267 305.493 539.96C306.373 540.653 306.813 541.561 306.813 542.681C306.813 543.374 306.613 543.987 306.213 544.521C305.84 545.027 305.293 545.426 304.573 545.72C303.88 546.013 303.08 546.16 302.173 546.16C301.24 546.16 300.413 546.013 299.693 545.72C298.973 545.426 298.413 545.027 298.013 544.521C297.613 543.987 297.413 543.374 297.413 542.681C297.413 541.908 297.613 541.241 298.013 540.681C298.413 540.121 298.96 539.694 299.653 539.4C300.373 539.08 301.186 538.92 302.093 538.92ZM334.358 538.92C335.772 538.92 336.905 539.267 337.759 539.96C338.639 540.653 339.079 541.561 339.079 542.681C339.079 543.374 338.878 543.987 338.479 544.521C338.105 545.027 337.559 545.426 336.839 545.72C336.146 546.013 335.345 546.16 334.438 546.16C333.505 546.16 332.679 546.013 331.959 545.72C331.239 545.426 330.678 545.027 330.278 544.521C329.878 543.987 329.679 543.374 329.679 542.681C329.679 541.908 329.879 541.241 330.278 540.681C330.678 540.121 331.226 539.694 331.919 539.4C332.639 539.08 333.452 538.92 334.358 538.92ZM102.065 535.841C103.345 535.841 104.439 536 105.346 536.32C106.279 536.64 106.999 537.134 107.506 537.801C108.039 538.467 108.306 539.307 108.306 540.32C108.306 541.387 108.039 542.281 107.506 543.001C106.999 543.721 106.279 544.254 105.346 544.601C104.412 544.947 103.319 545.12 102.065 545.12H93.2256V535.841H102.065ZM187.706 535.841C188.986 535.841 190.08 536 190.986 536.32C191.92 536.64 192.64 537.134 193.146 537.801C193.68 538.467 193.946 539.307 193.946 540.32C193.946 541.387 193.68 542.281 193.146 543.001C192.64 543.721 191.92 544.254 190.986 544.601C190.053 544.947 188.959 545.12 187.706 545.12H178.866V535.841H187.706ZM242.859 523.601C242.913 525.041 243.099 526.414 243.419 527.721C243.739 529.001 244.38 530.8 245.34 533.12C245.927 534.578 246.533 536.018 247.156 537.44H236.395C237.875 534.016 238.75 531.95 239.02 531.24C239.419 530.12 239.74 529.147 239.979 528.32C240.246 527.467 240.432 526.681 240.539 525.961C240.646 525.214 240.713 524.427 240.739 523.601H242.859ZM101.065 523.841C103.065 523.841 104.599 524.174 105.666 524.841C106.732 525.481 107.266 526.548 107.266 528.041C107.266 529.614 106.732 530.761 105.666 531.48C104.599 532.2 103.065 532.561 101.065 532.561H93.2256V523.841H101.065ZM186.706 523.841C188.706 523.841 190.24 524.174 191.307 524.841C192.373 525.481 192.906 526.548 192.906 528.041C192.906 529.614 192.373 530.761 191.307 531.48C190.24 532.2 188.706 532.561 186.706 532.561H178.866V523.841H186.706ZM135.789 520V523.92H139.989V520H135.789ZM286.281 520V523.92H290.481V520H286.281ZM157.658 447.2C155.765 447.2 154.098 447.667 152.658 448.601C151.245 449.507 150.151 450.747 149.378 452.32C148.631 453.867 148.258 455.56 148.258 457.4C148.258 459.267 148.658 460.974 149.458 462.521C150.258 464.067 151.391 465.294 152.857 466.2C154.351 467.107 156.044 467.56 157.938 467.561C159.937 467.561 161.591 466.973 162.897 465.8C163.85 464.945 164.596 463.905 165.138 462.682V465.601C165.138 467.867 164.605 469.627 163.538 470.88C162.498 472.16 160.898 472.8 158.738 472.8C157.432 472.8 156.204 472.533 155.058 472C153.938 471.493 152.991 470.827 152.218 470L150.178 472.521C151.271 473.614 152.551 474.453 154.018 475.04C155.484 475.653 157.084 475.96 158.817 475.96C162.231 475.96 164.778 475.027 166.458 473.16C168.165 471.293 169.018 468.533 169.018 464.88V447.681H165.418C165.525 448.427 165.724 449.24 166.018 450.12C166.178 450.573 166.365 451.027 166.578 451.48C166.791 451.907 167.018 452.307 167.258 452.681L165.178 453.84C164.911 452.533 164.457 451.387 163.817 450.4C163.177 449.387 162.338 448.6 161.298 448.04C160.285 447.48 159.071 447.2 157.658 447.2ZM229.763 447.28C227.63 447.28 225.763 447.747 224.163 448.681C222.563 449.587 221.337 450.867 220.483 452.521C219.63 454.147 219.203 456.014 219.203 458.12C219.203 460.2 219.63 462.067 220.483 463.721C221.337 465.347 222.563 466.627 224.163 467.561C225.763 468.494 227.63 468.96 229.763 468.96C231.923 468.96 233.79 468.494 235.363 467.561C236.963 466.627 238.19 465.347 239.043 463.721C239.896 462.067 240.323 460.2 240.323 458.12C240.323 456.014 239.896 454.147 239.043 452.521C238.19 450.867 236.963 449.587 235.363 448.681C233.79 447.747 231.923 447.28 229.763 447.28ZM303.833 447.28C301.7 447.28 299.833 447.747 298.233 448.681C296.633 449.587 295.407 450.867 294.554 452.521C293.7 454.147 293.273 456.014 293.273 458.12C293.273 460.2 293.7 462.067 294.554 463.721C295.407 465.347 296.634 466.627 298.233 467.561C299.833 468.494 301.7 468.96 303.833 468.96C305.993 468.96 307.86 468.494 309.434 467.561C311.033 466.627 312.26 465.347 313.113 463.721C313.967 462.067 314.394 460.2 314.394 458.12C314.394 456.014 313.967 454.147 313.113 452.521C312.26 450.867 311.033 449.587 309.434 448.681C307.86 447.747 305.993 447.28 303.833 447.28ZM178.699 447.2C177.073 447.2 175.646 447.4 174.419 447.8C173.192 448.173 172.232 448.734 171.539 449.48C170.873 450.2 170.539 451.067 170.539 452.08C170.539 453.173 170.966 454.053 171.819 454.72C172.673 455.386 173.713 455.853 174.939 456.12C176.166 456.387 177.433 456.521 178.739 456.521V458.36C177.433 458.36 176.219 458.547 175.099 458.92C173.979 459.267 173.072 459.814 172.379 460.561C171.712 461.281 171.379 462.2 171.379 463.32C171.379 464.387 171.726 465.347 172.419 466.2C173.139 467.054 174.152 467.72 175.459 468.2C176.792 468.68 178.352 468.92 180.139 468.92C181.845 468.92 183.339 468.64 184.619 468.08C185.926 467.493 186.926 466.72 187.619 465.76C188.312 464.8 188.659 463.76 188.659 462.641C188.659 460.934 188.032 459.534 186.779 458.44C185.553 457.32 183.792 456.56 181.499 456.16L179.539 455.8C179.459 455.773 179.365 455.76 179.259 455.76C178.219 455.546 177.406 455.347 176.819 455.16C176.233 454.973 175.752 454.707 175.379 454.36C175.006 454.014 174.819 453.573 174.819 453.04C174.819 452.533 174.992 452.093 175.339 451.72C175.686 451.32 176.153 451.026 176.739 450.84C177.353 450.627 178.059 450.521 178.859 450.521C180.433 450.521 181.912 450.814 183.299 451.4C184.685 451.96 185.873 452.681 186.859 453.561L188.659 450.72C187.379 449.653 185.885 448.8 184.179 448.16C182.499 447.52 180.672 447.2 178.699 447.2ZM345.787 447.24C343.84 447.24 342.08 447.707 340.507 448.641C338.96 449.574 337.747 450.867 336.867 452.521C335.987 454.147 335.547 456 335.547 458.08C335.547 460.24 336.001 462.147 336.907 463.8C337.841 465.426 339.12 466.694 340.747 467.601C342.374 468.48 344.2 468.92 346.227 468.92C348.013 468.92 349.667 468.546 351.187 467.8C352.733 467.053 354.014 466.053 355.027 464.8L353.106 462.48C352.28 463.494 351.293 464.293 350.146 464.88C349.027 465.466 347.773 465.76 346.387 465.76C345.08 465.76 343.894 465.467 342.827 464.88C341.76 464.267 340.92 463.387 340.307 462.24C339.836 461.339 339.547 460.313 339.438 459.16H355.587V457.96C355.587 455.853 355.173 453.987 354.347 452.36C353.547 450.734 352.414 449.481 350.947 448.601C349.481 447.694 347.76 447.24 345.787 447.24ZM242.562 447.721V461.001C242.563 462.681 242.816 464.107 243.322 465.28C243.856 466.454 244.656 467.348 245.723 467.961C246.816 468.574 248.176 468.881 249.803 468.881C251.243 468.881 252.456 468.614 253.442 468.081C254.456 467.521 255.243 466.774 255.803 465.841C256.389 464.881 256.842 463.747 257.162 462.44L258.963 463.48C258.643 464.227 258.323 464.974 258.003 465.721C257.71 466.467 257.482 467.361 257.322 468.4H261.003V447.721H257.122V459.001C257.122 460.414 256.882 461.627 256.402 462.641C255.922 463.627 255.242 464.374 254.362 464.881C253.509 465.387 252.536 465.641 251.442 465.641C249.736 465.641 248.469 465.161 247.643 464.201C246.843 463.241 246.442 461.774 246.442 459.801V447.721H242.562ZM72.6484 440.561V443.881H82.8486V468.44H86.7686V443.881H96.9287V440.561H72.6484ZM98.5625 440V468.4H102.442V457.16C102.442 455.747 102.709 454.533 103.242 453.52C103.775 452.506 104.482 451.747 105.362 451.24C106.269 450.734 107.282 450.48 108.402 450.48C110.109 450.48 111.402 450.973 112.282 451.96C113.189 452.92 113.643 454.387 113.643 456.36V468.4H117.522V455.12C117.522 453.467 117.243 452.053 116.683 450.88C116.123 449.707 115.282 448.814 114.162 448.2C113.042 447.56 111.669 447.24 110.043 447.24C108.576 447.24 107.322 447.533 106.282 448.12C105.269 448.68 104.456 449.454 103.843 450.44C103.23 451.4 102.762 452.533 102.442 453.84L100.763 452.76C101.296 451.587 101.71 450.467 102.003 449.4C102.296 448.307 102.442 447.133 102.442 445.88V440H98.5625ZM120.348 447.72V468.4H124.228V447.72H120.348ZM138.918 447.24C137.451 447.24 136.197 447.52 135.157 448.08C134.117 448.64 133.291 449.4 132.678 450.36C132.064 451.32 131.597 452.441 131.277 453.721L129.478 452.641C129.798 451.894 130.104 451.147 130.397 450.4C130.717 449.654 130.957 448.76 131.117 447.721H127.438V468.4H131.317V457.16C131.317 455.747 131.584 454.534 132.117 453.521C132.65 452.507 133.357 451.747 134.237 451.24C135.144 450.734 136.157 450.48 137.277 450.48C138.984 450.48 140.277 450.973 141.157 451.96C142.064 452.92 142.518 454.387 142.518 456.36V468.4H146.397V455.12C146.397 453.467 146.118 452.053 145.558 450.88C144.998 449.707 144.157 448.813 143.037 448.2C141.917 447.56 140.544 447.24 138.918 447.24ZM196.945 440.561L207.625 457.761V468.4H211.545V457.761L222.226 440.561H217.825C215.879 443.681 214.399 446.148 213.386 447.961C212.399 449.774 211.706 451.281 211.306 452.48C210.906 453.68 210.692 454.841 210.665 455.961H208.505C208.478 454.841 208.265 453.68 207.865 452.48C207.465 451.281 206.758 449.761 205.745 447.921C204.732 446.081 203.266 443.627 201.346 440.561H196.945ZM273.516 440.561V468.4H293.476V465.08H277.476V440.561H273.516ZM314.805 447.721L323.005 468.4H326.965L335.125 447.721H331.085C330.258 449.747 329.698 451.161 329.404 451.961C328.364 454.654 327.511 457.094 326.845 459.28C326.205 461.44 325.871 463.241 325.845 464.681H324.125C324.045 462.974 323.591 460.827 322.765 458.24C321.965 455.627 320.898 452.707 319.564 449.48L318.885 447.721H314.805ZM357.82 464.36V468.4H362.46V464.36H357.82ZM180.179 458.92C181.592 458.92 182.726 459.267 183.579 459.96C184.459 460.653 184.899 461.561 184.899 462.681C184.899 463.374 184.699 463.987 184.299 464.521C183.926 465.027 183.379 465.426 182.659 465.72C181.966 466.013 181.165 466.16 180.259 466.16C179.326 466.16 178.499 466.013 177.779 465.72C177.059 465.426 176.499 465.027 176.099 464.521C175.699 463.987 175.499 463.374 175.499 462.681C175.499 461.908 175.699 461.241 176.099 460.681C176.499 460.121 177.046 459.694 177.739 459.4C178.459 459.08 179.272 458.92 180.179 458.92ZM229.763 450.4C231.816 450.4 233.417 451.107 234.563 452.521C235.737 453.934 236.323 455.8 236.323 458.12C236.323 459.613 236.07 460.947 235.563 462.12C235.057 463.293 234.296 464.213 233.283 464.88C232.297 465.52 231.123 465.84 229.763 465.84C227.71 465.84 226.096 465.134 224.923 463.721C223.776 462.307 223.203 460.44 223.203 458.12C223.203 456.6 223.456 455.267 223.963 454.12C224.496 452.947 225.257 452.04 226.243 451.4C227.23 450.734 228.403 450.4 229.763 450.4ZM303.833 450.4C305.886 450.4 307.487 451.107 308.634 452.521C309.807 453.934 310.394 455.8 310.394 458.12C310.394 459.613 310.14 460.947 309.634 462.12C309.127 463.293 308.367 464.213 307.354 464.88C306.367 465.52 305.193 465.84 303.833 465.84C301.78 465.84 300.166 465.134 298.993 463.721C297.846 462.307 297.273 460.44 297.273 458.12C297.273 456.6 297.527 455.267 298.033 454.12C298.567 452.947 299.327 452.04 300.313 451.4C301.3 450.734 302.473 450.4 303.833 450.4ZM158.738 450.28C159.991 450.28 161.098 450.574 162.058 451.16C163.044 451.747 163.791 452.561 164.298 453.601C164.831 454.614 165.098 455.814 165.098 457.2C165.098 458.56 164.831 459.8 164.298 460.92C163.791 462.013 163.044 462.881 162.058 463.521C161.098 464.134 159.991 464.44 158.738 464.44C157.458 464.44 156.325 464.147 155.338 463.561C154.351 462.947 153.578 462.107 153.018 461.04C152.484 459.947 152.218 458.72 152.218 457.36C152.218 455.974 152.484 454.747 153.018 453.681C153.578 452.614 154.351 451.787 155.338 451.2C156.325 450.587 157.458 450.28 158.738 450.28ZM345.867 450.28C347.12 450.28 348.227 450.6 349.187 451.24C350.146 451.854 350.867 452.747 351.347 453.92C351.67 454.668 351.857 455.508 351.909 456.44H339.488C339.61 455.492 339.842 454.638 340.187 453.88C340.747 452.707 341.507 451.814 342.467 451.2C343.453 450.587 344.587 450.28 345.867 450.28ZM120.188 440V443.92H124.388V440H120.188ZM190.666 407.2C188.773 407.2 187.106 407.667 185.666 408.601C184.253 409.507 183.159 410.747 182.386 412.32C181.639 413.867 181.266 415.56 181.266 417.4C181.266 419.267 181.666 420.974 182.466 422.521C183.266 424.067 184.399 425.294 185.865 426.2C187.358 427.107 189.052 427.56 190.945 427.561C192.945 427.561 194.599 426.973 195.905 425.8C196.858 424.945 197.604 423.905 198.146 422.682V425.601C198.145 427.867 197.612 429.627 196.546 430.88C195.506 432.16 193.906 432.8 191.746 432.8C190.439 432.8 189.212 432.533 188.065 432C186.946 431.493 185.999 430.827 185.226 430L183.186 432.521C184.279 433.614 185.559 434.453 187.025 435.04C188.492 435.653 190.092 435.96 191.825 435.96C195.239 435.96 197.786 435.027 199.466 433.16C201.172 431.293 202.025 428.533 202.025 424.88V407.681H198.426C198.532 408.427 198.732 409.24 199.025 410.12C199.185 410.573 199.373 411.027 199.586 411.48C199.799 411.907 200.026 412.307 200.266 412.681L198.186 413.84C197.919 412.533 197.465 411.387 196.825 410.4C196.185 409.387 195.346 408.6 194.306 408.04C193.292 407.48 192.079 407.2 190.666 407.2ZM251.622 407.2C250.209 407.2 248.969 407.48 247.902 408.04C246.836 408.573 245.969 409.36 245.303 410.4C244.636 411.44 244.182 412.707 243.942 414.2L242.022 413.04C242.396 412.32 242.702 411.613 242.942 410.92C243.129 410.44 243.29 409.934 243.423 409.4C243.583 408.841 243.689 408.267 243.742 407.681H240.062V435.681H243.942V423.973C244.456 425.367 245.255 426.484 246.343 427.32C247.756 428.387 249.502 428.92 251.582 428.92C253.555 428.92 255.289 428.44 256.782 427.48C258.275 426.521 259.423 425.214 260.223 423.561C261.023 421.907 261.423 420.08 261.423 418.08C261.423 416.054 261.023 414.227 260.223 412.601C259.423 410.947 258.276 409.641 256.782 408.681C255.316 407.694 253.595 407.2 251.622 407.2ZM214.375 400.561V417.921C214.375 420.267 214.829 422.281 215.735 423.961C216.669 425.614 217.975 426.867 219.655 427.721C221.362 428.574 223.375 429.001 225.695 429.001C229.215 429.001 231.975 428.04 233.975 426.12C236.001 424.174 237.015 421.441 237.015 417.921V400.561H233.055V417.721C233.055 420.227 232.415 422.174 231.135 423.561C229.855 424.92 228.042 425.601 225.695 425.601C224.175 425.601 222.855 425.294 221.735 424.681C220.615 424.067 219.761 423.174 219.175 422.001C218.615 420.801 218.335 419.374 218.335 417.721V400.561H214.375ZM110.021 407.28C107.887 407.28 106.021 407.747 104.421 408.681C102.821 409.587 101.595 410.867 100.741 412.521C99.8879 414.147 99.461 416.014 99.4609 418.12C99.4609 420.2 99.8879 422.067 100.741 423.721C101.595 425.347 102.821 426.627 104.421 427.561C106.021 428.494 107.887 428.96 110.021 428.96C112.181 428.96 114.048 428.494 115.621 427.561C117.221 426.627 118.447 425.347 119.301 423.721C120.154 422.067 120.581 420.2 120.581 418.12C120.581 416.014 120.154 414.147 119.301 412.521C118.447 410.867 117.221 409.587 115.621 408.681C114.048 407.747 112.181 407.28 110.021 407.28ZM300.278 407.28C298.145 407.28 296.279 407.747 294.679 408.681C293.079 409.587 291.852 410.867 290.999 412.521C290.146 414.147 289.719 416.014 289.719 418.12C289.719 420.2 290.146 422.067 290.999 423.721C291.852 425.347 293.079 426.627 294.679 427.561C296.279 428.494 298.145 428.96 300.278 428.96C302.438 428.96 304.306 428.494 305.879 427.561C307.479 426.627 308.705 425.347 309.559 423.721C310.412 422.067 310.839 420.2 310.839 418.12C310.839 416.014 310.412 414.147 309.559 412.521C308.705 410.867 307.479 409.587 305.879 408.681C304.306 407.747 302.438 407.28 300.278 407.28ZM376.061 407.24C374.114 407.24 372.354 407.707 370.78 408.641C369.234 409.574 368.021 410.867 367.141 412.521C366.261 414.147 365.82 416 365.82 418.08C365.82 420.24 366.274 422.147 367.181 423.8C368.114 425.426 369.394 426.694 371.021 427.601C372.647 428.48 374.474 428.92 376.5 428.92C378.287 428.92 379.94 428.546 381.46 427.8C383.007 427.053 384.287 426.053 385.301 424.8L383.38 422.48C382.553 423.494 381.566 424.293 380.42 424.88C379.3 425.467 378.047 425.76 376.66 425.76C375.354 425.76 374.167 425.467 373.101 424.88C372.034 424.267 371.193 423.387 370.58 422.24C370.109 421.339 369.82 420.313 369.711 419.16H385.86V417.96C385.86 415.853 385.447 413.987 384.62 412.36C383.82 410.734 382.687 409.481 381.221 408.601C379.754 407.694 378.034 407.24 376.061 407.24ZM64.3604 400.12C62.2804 400.12 60.4532 400.4 58.8799 400.96C57.3333 401.493 56.1336 402.254 55.2803 403.24C54.427 404.227 54.0001 405.387 54 406.72C54 408.08 54.4269 409.173 55.2803 410C56.1335 410.827 57.2666 411.453 58.6797 411.88C60.0929 412.28 61.7064 412.533 63.5195 412.64V414.64C61.9731 414.693 60.5334 414.974 59.2002 415.48C57.8937 415.96 56.84 416.693 56.04 417.68C55.24 418.666 54.8398 419.854 54.8398 421.24C54.8399 422.68 55.2802 423.973 56.1602 425.12C57.0401 426.267 58.3067 427.173 59.96 427.84C61.6132 428.506 63.5465 428.84 65.7598 428.84C68.0797 428.84 70.053 428.453 71.6797 427.68C73.333 426.906 74.5871 425.893 75.4404 424.64C76.2934 423.36 76.7196 422 76.7197 420.561C76.7197 418.321 75.9068 416.507 74.2803 415.12C72.6536 413.733 70.3995 412.76 67.5195 412.2L65.4805 411.76C63.854 411.466 62.5204 411.16 61.4805 410.84C60.4672 410.493 59.6533 410.04 59.04 409.48C58.4268 408.921 58.1202 408.2 58.1201 407.32C58.1201 406.147 58.68 405.2 59.7998 404.48C60.9198 403.76 62.4805 403.414 64.4805 403.44C66.507 403.44 68.4538 403.787 70.3203 404.48C72.1868 405.174 73.7735 406.067 75.0801 407.16L77 404.28C75.3201 403 73.4268 402 71.3203 401.28C69.2137 400.534 66.8935 400.147 64.3604 400.12ZM269.68 400.561V403.881H279.88V428.44H283.8V403.881H293.96V400.561H269.68ZM319.086 400.561V403.881H329.286V428.44H333.206V403.881H343.366V400.561H319.086ZM78.6406 400V428.4H82.5205V417.16C82.5205 415.747 82.787 414.533 83.3203 413.52C83.8536 412.506 84.5606 411.747 85.4404 411.24C86.3471 410.734 87.3605 410.48 88.4805 410.48C90.187 410.48 91.4804 410.973 92.3604 411.96C93.267 412.92 93.7207 414.387 93.7207 416.36V428.4H97.6006V415.12C97.6006 413.467 97.3207 412.053 96.7607 410.88C96.2007 409.707 95.3602 408.814 94.2402 408.2C93.1204 407.56 91.7475 407.24 90.1211 407.24C88.6544 407.24 87.4004 407.533 86.3604 408.12C85.3471 408.68 84.5342 409.454 83.9209 410.44C83.3076 411.4 82.8405 412.533 82.5205 413.84L80.8408 412.76C81.3741 411.587 81.7877 410.467 82.0811 409.4C82.3744 408.307 82.5205 407.133 82.5205 405.88V400H78.6406ZM121.227 407.721L126.826 428.4H131.986C133.426 423.307 134.359 419.534 134.786 417.081C135.266 414.681 135.48 412.827 135.427 411.521H137.387C137.36 412.214 137.387 413.014 137.467 413.921C137.573 414.801 137.76 415.895 138.026 417.201C138.453 419.548 139.386 423.281 140.826 428.4H145.986L151.547 407.721H147.707C146.374 412.601 145.547 415.921 145.227 417.681C144.933 419.174 144.747 420.454 144.667 421.521C144.587 422.587 144.6 423.614 144.707 424.601L142.866 425.001C142.866 423.561 142.613 421.694 142.106 419.4C141.6 417.107 140.56 413.214 138.986 407.721H133.826C132.386 412.76 131.347 416.64 130.707 419.36C130.2 421.707 129.946 423.588 129.946 425.001L128.146 424.601C128.253 423.427 128.24 422.281 128.106 421.161C128 419.828 127.72 418.161 127.267 416.161C126.813 414.161 126.106 411.347 125.146 407.721H121.227ZM153.355 407.72V428.4H157.235V407.72H153.355ZM171.926 407.24C170.459 407.24 169.205 407.52 168.165 408.08C167.125 408.64 166.299 409.4 165.686 410.36C165.072 411.32 164.605 412.441 164.285 413.721L162.485 412.641C162.805 411.894 163.112 411.147 163.405 410.4C163.725 409.654 163.965 408.76 164.125 407.721H160.445V428.4H164.325V417.16C164.325 415.747 164.592 414.534 165.125 413.521C165.658 412.507 166.365 411.747 167.245 411.24C168.152 410.734 169.165 410.48 170.285 410.48C171.992 410.48 173.285 410.973 174.165 411.96C175.072 412.92 175.525 414.387 175.525 416.36V428.4H179.405V415.12C179.405 413.467 179.125 412.053 178.565 410.88C178.005 409.707 177.165 408.813 176.045 408.2C174.925 407.56 173.552 407.24 171.926 407.24ZM345 400V428.4H348.88V417.16C348.88 415.747 349.146 414.533 349.68 413.52C350.213 412.506 350.92 411.747 351.8 411.24C352.706 410.734 353.72 410.48 354.84 410.48C356.546 410.48 357.84 410.973 358.72 411.96C359.626 412.92 360.08 414.387 360.08 416.36V428.4H363.96V415.12C363.96 413.467 363.68 412.053 363.12 410.88C362.56 409.707 361.72 408.814 360.6 408.2C359.48 407.56 358.107 407.24 356.48 407.24C355.014 407.24 353.76 407.533 352.72 408.12C351.707 408.68 350.894 409.454 350.28 410.44C349.667 411.4 349.2 412.533 348.88 413.84L347.2 412.76C347.733 411.587 348.147 410.467 348.44 409.4C348.734 408.307 348.88 407.133 348.88 405.88V400H345ZM65.8398 415.28C67.1465 415.28 68.3204 415.507 69.3604 415.96C70.4001 416.413 71.2132 417.053 71.7998 417.88C72.413 418.68 72.7196 419.6 72.7197 420.64C72.7197 421.546 72.4533 422.4 71.9199 423.2C71.3866 424 70.5995 424.64 69.5596 425.12C68.5463 425.6 67.3063 425.84 65.8398 425.84C64.5333 425.84 63.3468 425.613 62.2803 425.16C61.2403 424.68 60.4265 424.054 59.8398 423.28C59.2533 422.48 58.9601 421.587 58.96 420.601C58.96 419.561 59.2532 418.64 59.8398 417.84C60.4265 417.013 61.2403 416.387 62.2803 415.96C63.3202 415.507 64.5067 415.28 65.8398 415.28ZM110.021 410.4C112.074 410.4 113.675 411.107 114.821 412.521C115.994 413.934 116.581 415.8 116.581 418.12C116.581 419.613 116.328 420.947 115.821 422.12C115.315 423.293 114.554 424.213 113.541 424.88C112.554 425.52 111.381 425.84 110.021 425.84C107.967 425.84 106.354 425.134 105.181 423.721C104.034 422.307 103.461 420.44 103.461 418.12C103.461 416.6 103.714 415.267 104.221 414.12C104.754 412.947 105.514 412.04 106.501 411.4C107.488 410.734 108.661 410.4 110.021 410.4ZM300.278 410.4C302.332 410.4 303.932 411.107 305.079 412.521C306.252 413.934 306.839 415.8 306.839 418.12C306.839 419.613 306.586 420.947 306.079 422.12C305.572 423.293 304.812 424.213 303.799 424.88C302.812 425.52 301.638 425.84 300.278 425.84C298.225 425.84 296.612 425.134 295.438 423.721C294.292 422.307 293.719 420.44 293.719 418.12C293.719 416.6 293.972 415.267 294.479 414.12C295.012 412.947 295.772 412.04 296.759 411.4C297.745 410.734 298.919 410.4 300.278 410.4ZM250.543 410.4C251.983 410.4 253.223 410.747 254.263 411.44C255.303 412.107 256.089 413.027 256.622 414.2C257.155 415.347 257.423 416.64 257.423 418.08C257.423 419.493 257.155 420.787 256.622 421.96C256.089 423.133 255.303 424.066 254.263 424.76C253.223 425.426 251.983 425.76 250.543 425.76C249.236 425.76 248.076 425.44 247.062 424.8C246.076 424.133 245.302 423.227 244.742 422.08C244.209 420.907 243.942 419.573 243.942 418.08C243.942 416.56 244.209 415.227 244.742 414.08C245.302 412.907 246.076 412 247.062 411.36C248.076 410.72 249.236 410.4 250.543 410.4ZM191.746 410.28C192.999 410.28 194.106 410.574 195.065 411.16C196.052 411.747 196.799 412.561 197.306 413.601C197.839 414.614 198.105 415.814 198.105 417.2C198.105 418.56 197.839 419.8 197.306 420.92C196.799 422.013 196.052 422.881 195.065 423.521C194.106 424.134 192.999 424.44 191.746 424.44C190.466 424.44 189.332 424.147 188.346 423.561C187.359 422.947 186.585 422.107 186.025 421.04C185.492 419.947 185.226 418.72 185.226 417.36C185.226 415.974 185.492 414.747 186.025 413.681C186.585 412.614 187.359 411.787 188.346 411.2C189.332 410.587 190.466 410.28 191.746 410.28ZM376.141 410.28C377.394 410.28 378.5 410.6 379.46 411.24C380.42 411.854 381.14 412.747 381.62 413.92C381.943 414.668 382.131 415.508 382.183 416.44H369.762C369.884 415.492 370.115 414.638 370.46 413.88C371.02 412.707 371.78 411.814 372.74 411.2C373.727 410.587 374.861 410.28 376.141 410.28ZM153.195 400V403.92H157.396V400H153.195ZM348.888 367.28C346.755 367.28 344.888 367.747 343.288 368.681C341.688 369.587 340.462 370.867 339.608 372.521C338.755 374.147 338.328 376.014 338.328 378.12C338.328 380.2 338.755 382.067 339.608 383.721C340.462 385.347 341.688 386.627 343.288 387.561C344.888 388.494 346.755 388.96 348.888 388.96C351.048 388.96 352.915 388.494 354.488 387.561C356.088 386.627 357.315 385.347 358.168 383.721C359.021 382.067 359.448 380.2 359.448 378.12C359.448 376.014 359.021 374.147 358.168 372.521C357.315 370.867 356.088 369.587 354.488 368.681C352.915 367.747 351.048 367.28 348.888 367.28ZM99.0693 367.2C97.3627 367.2 95.6959 367.547 94.0693 368.24C92.4428 368.934 91.0959 369.853 90.0293 371L92.1094 373.32C92.9094 372.387 93.8827 371.653 95.0293 371.12C96.2026 370.587 97.4425 370.32 98.749 370.32C100.029 370.32 101.163 370.587 102.149 371.12C103.136 371.627 103.895 372.374 104.429 373.36C104.989 374.347 105.269 375.533 105.27 376.92V381.36C105.27 381.526 105.274 381.701 105.282 381.887C104.702 380.709 104.059 379.719 103.349 378.92C102.282 377.694 101.149 376.827 99.9492 376.32C98.776 375.814 97.536 375.561 96.2295 375.561C94.8162 375.561 93.5487 375.867 92.4287 376.48C91.309 377.067 90.4156 377.88 89.749 378.92C89.109 379.96 88.7891 381.094 88.7891 382.32C88.7891 383.52 89.0689 384.627 89.6289 385.641C90.1889 386.654 90.976 387.453 91.9893 388.04C93.0292 388.627 94.2423 388.92 95.6289 388.92C97.2289 388.92 98.589 388.52 99.709 387.72C100.829 386.92 101.522 385.854 101.789 384.521C102.056 383.187 101.789 381.8 100.989 380.36L102.389 379.561C103.189 380.44 103.855 381.6 104.389 383.04C104.949 384.453 105.376 386.067 105.669 387.88C105.722 388.04 105.749 388.214 105.749 388.4H109.069V376.88C109.069 374.827 108.642 373.08 107.789 371.641C106.962 370.174 105.789 369.067 104.27 368.32C102.776 367.574 101.043 367.2 99.0693 367.2ZM189.373 367.24C187.426 367.24 185.666 367.707 184.093 368.641C182.546 369.574 181.333 370.867 180.453 372.521C179.573 374.147 179.133 376 179.133 378.08C179.133 380.24 179.587 382.147 180.493 383.8C181.426 385.426 182.706 386.694 184.333 387.601C185.96 388.48 187.786 388.92 189.812 388.92C191.599 388.92 193.252 388.546 194.772 387.8C196.319 387.053 197.6 386.053 198.613 384.8L196.692 382.48C195.866 383.494 194.879 384.293 193.732 384.88C192.612 385.466 191.359 385.76 189.973 385.76C188.666 385.76 187.48 385.467 186.413 384.88C185.346 384.267 184.506 383.387 183.893 382.24C183.422 381.339 183.133 380.313 183.023 379.16H199.173V377.96C199.173 375.853 198.759 373.987 197.933 372.36C197.133 370.734 196 369.481 194.533 368.601C193.067 367.694 191.346 367.24 189.373 367.24ZM240.39 367.2C238.683 367.2 237.016 367.547 235.39 368.24C233.763 368.934 232.416 369.853 231.35 371L233.43 373.32C234.23 372.387 235.203 371.653 236.35 371.12C237.523 370.587 238.763 370.32 240.069 370.32C241.349 370.32 242.483 370.587 243.47 371.12C244.456 371.627 245.216 372.374 245.749 373.36C246.309 374.347 246.59 375.533 246.59 376.92V381.36C246.59 381.526 246.595 381.701 246.603 381.887C246.022 380.709 245.379 379.719 244.669 378.92C243.602 377.694 242.469 376.827 241.27 376.32C240.096 375.814 238.856 375.561 237.55 375.561C236.136 375.561 234.869 375.867 233.749 376.48C232.629 377.067 231.736 377.88 231.069 378.92C230.429 379.96 230.109 381.094 230.109 382.32C230.109 383.52 230.389 384.627 230.949 385.641C231.509 386.654 232.296 387.453 233.31 388.04C234.35 388.627 235.563 388.92 236.949 388.92C238.549 388.92 239.909 388.52 241.029 387.72C242.149 386.92 242.843 385.854 243.109 384.521C243.376 383.187 243.109 381.8 242.31 380.36L243.709 379.561C244.509 380.44 245.176 381.6 245.709 383.04C246.269 384.453 246.696 386.067 246.989 387.88C247.043 388.04 247.069 388.214 247.069 388.4H250.39V376.88C250.39 374.827 249.963 373.08 249.109 371.641C248.283 370.174 247.11 369.067 245.59 368.32C244.097 367.574 242.363 367.2 240.39 367.2ZM283.105 360V363.96C283.185 365.693 283.372 367.347 283.665 368.92C283.958 370.467 284.385 371.894 284.945 373.2L283.105 374.36C282.865 373.054 282.372 371.853 281.625 370.76C280.905 369.667 279.985 368.8 278.865 368.16C277.745 367.52 276.505 367.2 275.145 367.2C273.251 367.2 271.584 367.693 270.145 368.68C268.705 369.64 267.585 370.947 266.785 372.6C266.012 374.253 265.625 376.08 265.625 378.08C265.625 380.053 266.012 381.88 266.785 383.56C267.585 385.213 268.705 386.52 270.145 387.48C271.584 388.44 273.251 388.92 275.145 388.92C276.531 388.92 277.785 388.653 278.905 388.12C280.025 387.56 280.972 386.8 281.745 385.84C282.277 385.202 282.723 384.498 283.09 383.73C283.112 384.311 283.13 384.788 283.145 385.16C283.198 385.853 283.251 386.934 283.305 388.4H286.985V360H283.105ZM297.121 367.2C295.494 367.2 294.067 367.4 292.841 367.8C291.614 368.173 290.654 368.734 289.961 369.48C289.294 370.2 288.961 371.067 288.961 372.08C288.961 373.173 289.388 374.053 290.241 374.72C291.095 375.386 292.135 375.853 293.361 376.12C294.588 376.387 295.855 376.521 297.161 376.521V378.36C295.854 378.36 294.641 378.547 293.521 378.92C292.401 379.267 291.494 379.814 290.801 380.561C290.134 381.281 289.801 382.2 289.801 383.32C289.801 384.387 290.148 385.347 290.841 386.2C291.561 387.054 292.574 387.72 293.881 388.2C295.214 388.68 296.774 388.92 298.561 388.92C300.267 388.92 301.761 388.64 303.041 388.08C304.348 387.493 305.348 386.72 306.041 385.76C306.734 384.8 307.081 383.76 307.081 382.641C307.081 380.934 306.454 379.534 305.201 378.44C303.975 377.32 302.214 376.56 299.921 376.16L297.961 375.8C297.881 375.773 297.787 375.76 297.681 375.76C296.641 375.546 295.828 375.347 295.241 375.16C294.655 374.973 294.174 374.707 293.801 374.36C293.427 374.014 293.241 373.573 293.241 373.04C293.241 372.533 293.414 372.093 293.761 371.72C294.107 371.32 294.575 371.026 295.161 370.84C295.774 370.627 296.481 370.521 297.281 370.521C298.854 370.521 300.334 370.814 301.721 371.4C303.107 371.96 304.295 372.681 305.281 373.561L307.081 370.72C305.801 369.653 304.307 368.8 302.601 368.16C300.921 367.52 299.094 367.2 297.121 367.2ZM67.0703 360.561V388.4H88.0703V385.08H70.9902V375.841H86.2705V372.641H70.9902V363.841H87.5898V360.561H67.0703ZM124.274 367.24C122.514 367.24 121.034 367.627 119.834 368.4C118.634 369.147 117.701 370.147 117.034 371.4C116.394 372.627 115.954 374.001 115.714 375.521L113.954 374.44C114.834 372.521 115.38 370.28 115.594 367.721H111.914V388.4H115.834V379.721C115.834 377.961 116.154 376.427 116.794 375.12C117.434 373.814 118.381 372.8 119.634 372.08C120.914 371.36 122.461 371 124.274 371V367.24ZM137.012 367.24C135.545 367.24 134.291 367.52 133.251 368.08C132.211 368.64 131.385 369.4 130.771 370.36C130.158 371.32 129.691 372.441 129.371 373.721L127.571 372.641C127.891 371.894 128.198 371.147 128.491 370.4C128.811 369.654 129.051 368.76 129.211 367.721H125.531V388.4H129.411V377.16C129.411 375.747 129.678 374.534 130.211 373.521C130.744 372.507 131.451 371.747 132.331 371.24C133.238 370.734 134.251 370.48 135.371 370.48C137.078 370.48 138.371 370.973 139.251 371.96C140.158 372.92 140.611 374.387 140.611 376.36V388.4H144.491V375.12C144.491 373.467 144.211 372.053 143.651 370.88C143.091 369.707 142.251 368.813 141.131 368.2C140.011 367.56 138.638 367.24 137.012 367.24ZM156.633 360.561V388.4H160.553V377.2H163.312C164.646 377.2 165.646 377.28 166.312 377.44C166.979 377.574 167.567 377.854 168.073 378.28C168.607 378.707 169.233 379.441 169.953 380.48C170.113 380.72 170.273 380.96 170.433 381.2L175.312 388.4H180.073L174.713 380.841L174.593 380.681C173.713 379.427 172.899 378.56 172.152 378.08C171.406 377.574 170.553 377.267 169.593 377.16V375.12C171.219 375.067 172.686 374.8 173.993 374.32C175.299 373.814 176.352 373.041 177.152 372.001C177.952 370.961 178.352 369.627 178.353 368.001C178.353 365.494 177.526 363.627 175.873 362.4C174.22 361.174 171.646 360.561 168.152 360.561H156.633ZM199.609 367.721L205.209 388.4H210.369C211.809 383.307 212.742 379.534 213.169 377.081C213.649 374.681 213.863 372.827 213.81 371.521H215.77C215.743 372.214 215.77 373.014 215.85 373.921C215.956 374.801 216.143 375.895 216.409 377.201C216.836 379.548 217.769 383.281 219.209 388.4H224.369L229.93 367.721H226.09C224.757 372.601 223.929 375.921 223.609 377.681C223.316 379.174 223.13 380.454 223.05 381.521C222.97 382.587 222.983 383.614 223.09 384.601L221.249 385.001C221.249 383.561 220.996 381.694 220.489 379.4C219.983 377.107 218.942 373.214 217.369 367.721H212.209C210.769 372.76 209.73 376.64 209.09 379.36C208.583 381.707 208.329 383.588 208.329 385.001L206.529 384.601C206.636 383.427 206.623 382.281 206.489 381.161C206.383 379.828 206.103 378.161 205.649 376.161C205.196 374.161 204.489 371.347 203.529 367.721H199.609ZM265.595 367.24C263.835 367.24 262.354 367.627 261.154 368.4C259.954 369.147 259.021 370.147 258.354 371.4C257.715 372.627 257.274 374.001 257.034 375.521L255.274 374.44C256.154 372.521 256.701 370.28 256.914 367.721H253.234V388.4H257.154V379.721C257.154 377.961 257.474 376.427 258.114 375.12C258.754 373.814 259.701 372.8 260.954 372.08C262.234 371.36 263.781 371 265.595 371V367.24ZM318.445 360.561V388.4H322.405V376.001H337.445V372.681H322.405V363.881H338.886V360.561H318.445ZM374.048 367.24C372.288 367.24 370.807 367.627 369.607 368.4C368.407 369.147 367.474 370.147 366.808 371.4C366.168 372.627 365.727 374.001 365.487 375.521L363.728 374.44C364.607 372.521 365.154 370.28 365.367 367.721H361.688V388.4H365.607V379.721C365.607 377.961 365.927 376.427 366.567 375.12C367.207 373.814 368.154 372.8 369.407 372.08C370.687 371.36 372.235 371 374.048 371V367.24ZM96.5889 378C97.7888 378 98.7086 378.4 99.3486 379.2C100.015 379.974 100.349 381.027 100.349 382.36C100.349 383.187 100.189 383.921 99.8691 384.561C99.5491 385.2 99.082 385.693 98.4688 386.04C97.8821 386.36 97.1886 386.521 96.3887 386.521C95.2155 386.52 94.2821 386.134 93.5889 385.36C92.8956 384.587 92.5488 383.56 92.5488 382.28C92.5488 381.427 92.7093 380.68 93.0293 380.04C93.3759 379.4 93.8557 378.907 94.4688 378.561C95.082 378.187 95.7889 378 96.5889 378ZM237.909 378C239.109 378 240.029 378.4 240.669 379.2C241.336 379.974 241.669 381.027 241.669 382.36C241.669 383.187 241.509 383.921 241.189 384.561C240.869 385.2 240.402 385.693 239.789 386.04C239.202 386.36 238.509 386.521 237.709 386.521C236.536 386.52 235.602 386.134 234.909 385.36C234.216 384.587 233.869 383.56 233.869 382.28C233.869 381.427 234.03 380.68 234.35 380.04C234.696 379.4 235.176 378.907 235.789 378.561C236.402 378.187 237.109 378 237.909 378ZM298.601 378.92C300.014 378.92 301.148 379.267 302.001 379.96C302.881 380.653 303.321 381.561 303.321 382.681C303.321 383.374 303.121 383.987 302.721 384.521C302.347 385.027 301.801 385.426 301.081 385.72C300.388 386.013 299.587 386.16 298.681 386.16C297.747 386.16 296.921 386.013 296.201 385.72C295.481 385.426 294.921 385.027 294.521 384.521C294.121 383.987 293.921 383.374 293.921 382.681C293.921 381.908 294.121 381.241 294.521 380.681C294.921 380.121 295.468 379.694 296.161 379.4C296.881 379.08 297.694 378.92 298.601 378.92ZM348.888 370.4C350.941 370.4 352.542 371.107 353.688 372.521C354.862 373.934 355.448 375.8 355.448 378.12C355.448 379.613 355.195 380.947 354.688 382.12C354.182 383.293 353.421 384.213 352.408 384.88C351.422 385.52 350.248 385.84 348.888 385.84C346.835 385.84 345.221 385.134 344.048 383.721C342.901 382.307 342.328 380.44 342.328 378.12C342.328 376.6 342.581 375.267 343.088 374.12C343.621 372.947 344.382 372.04 345.368 371.4C346.355 370.734 347.528 370.4 348.888 370.4ZM276.345 370.4C277.651 370.4 278.812 370.747 279.825 371.44C280.838 372.134 281.625 373.067 282.185 374.24C282.771 375.387 283.065 376.667 283.065 378.08C283.065 379.467 282.771 380.747 282.185 381.92C281.625 383.093 280.838 384.026 279.825 384.72C278.812 385.413 277.651 385.76 276.345 385.76C274.958 385.76 273.758 385.426 272.745 384.76C271.732 384.066 270.958 383.133 270.425 381.96C269.892 380.787 269.625 379.493 269.625 378.08C269.625 376.667 269.892 375.373 270.425 374.2C270.958 373.027 271.732 372.107 272.745 371.44C273.758 370.747 274.958 370.4 276.345 370.4ZM189.453 370.28C190.706 370.28 191.813 370.6 192.772 371.24C193.732 371.854 194.453 372.747 194.933 373.92C195.256 374.668 195.443 375.508 195.495 376.44H183.074C183.196 375.492 183.428 374.638 183.772 373.88C184.332 372.707 185.093 371.814 186.053 371.2C187.039 370.587 188.173 370.28 189.453 370.28ZM167.473 363.761C169.846 363.761 171.58 364.188 172.673 365.041C173.793 365.868 174.353 367.148 174.353 368.881C174.352 370.081 174.099 371.081 173.593 371.881C173.086 372.681 172.312 373.281 171.272 373.681C170.259 374.054 168.979 374.24 167.433 374.24H160.553V363.761H167.473Z" fill="#222222"/>
</svg>
