<svg width="348" height="80" viewBox="0 0 348 80" fill="none" xmlns="http://www.w3.org/2000/svg">
<rect width="348" height="80" rx="16" fill="#313131"/>
<rect width="348" height="80" rx="16" fill="url(#paint0_radial_5964_81036)" fill-opacity="0.54"/>
<rect width="348" height="80" rx="16" fill="url(#paint1_radial_5964_81036)" fill-opacity="0.2"/>
<g clip-path="url(#clip0_5964_81036)">
<path d="M187.402 26.8374L159.052 37.8265C157.911 38.3383 157.525 39.3631 158.776 39.9193L166.049 42.2426L183.635 31.3182C184.595 30.6324 185.578 30.8153 184.732 31.5697L169.628 45.3156L169.154 51.1329C169.593 52.0311 170.398 52.0353 170.911 51.5888L175.09 47.6145L182.246 53.0012C183.909 53.9903 184.813 53.352 185.171 51.5391L189.865 29.1972C190.352 26.9656 189.521 25.9824 187.402 26.8374Z" fill="white"/>
</g>
<defs>
<radialGradient id="paint0_radial_5964_81036" cx="0" cy="0" r="1" gradientTransform="matrix(-32.5403 118.98 -284.263 0.471885 104.4 -21.4286)" gradientUnits="userSpaceOnUse">
<stop offset="0.286124" stop-opacity="0"/>
<stop offset="1" stop-color="#0385FF"/>
</radialGradient>
<radialGradient id="paint1_radial_5964_81036" cx="0" cy="0" r="1" gradientTransform="matrix(184.959 12.0035 0.0261434 176.436 37.9636 23.2653)" gradientUnits="userSpaceOnUse">
<stop stop-opacity="0"/>
<stop offset="1" stop-color="#EF8B9F"/>
</radialGradient>
<clipPath id="clip0_5964_81036">
<rect width="32" height="32" fill="white" transform="translate(158 24)"/>
</clipPath>
</defs>
</svg>
