<svg width="69" height="274" viewBox="0 0 69 274" fill="none" xmlns="http://www.w3.org/2000/svg">
<rect x="29" y="117.939" width="40" height="40" rx="20" fill="#313131"/>
<path d="M44.2373 143.939C44.4773 140.599 46.2773 139.079 48.1573 137.899C49.4573 137.059 51.5773 136.079 51.5773 134.079C51.5773 132.419 50.7573 131.499 49.1973 131.499C46.8173 131.499 46.5573 133.479 46.5573 134.519L44.7773 134.239C44.7573 132.519 45.7173 129.999 49.2773 129.999C51.7573 129.999 53.3573 131.599 53.3573 134.099C53.3573 136.459 51.5373 137.699 49.9373 138.699C48.3373 139.679 46.5973 140.739 46.2573 142.359H53.3773V143.939H44.2373Z" fill="white"/>
</svg>
