<svg width="69" height="275" viewBox="0 0 69 275" fill="none" xmlns="http://www.w3.org/2000/svg">
<rect x="29" y="117.939" width="40" height="40" rx="20" fill="#313131"/>
<path d="M48.9001 144.179C45.9601 144.179 44.3201 142.299 44.3601 139.739L46.1001 139.479C46.0801 141.239 46.9601 142.679 48.9001 142.679C50.7401 142.679 51.7801 141.719 51.7801 139.999C51.7801 138.219 50.5601 137.579 49.0201 137.579H47.9001V135.979H48.7801C50.1001 135.979 51.2401 135.219 51.2401 133.819C51.2401 132.379 50.3801 131.479 48.8801 131.479C46.6001 131.479 46.3001 133.639 46.3401 134.439L44.5401 134.159C44.5801 131.719 46.3601 129.999 48.8801 129.999C51.0801 129.999 53.0001 131.179 53.0001 133.839C53.0001 134.939 52.3801 135.999 51.3401 136.559C52.8801 136.999 53.5601 138.539 53.5601 139.979C53.5601 142.779 51.4401 144.179 48.9001 144.179Z" fill="white"/>
</svg>
