<svg width="641" height="18" viewBox="0 0 641 18" fill="none" xmlns="http://www.w3.org/2000/svg">
<path d="M34.5662 0.435547H38.2879V15.1534L37.3696 14.235H47.3506V17.2801H34.5662V0.435547Z" fill="#FFBA72"/>
<path d="M20.4036 0.435547H33.7197V3.48061H23.207L24.1253 2.61059V8.19321L23.207 7.34736H32.9705V10.2233H23.207L24.1253 9.42574V15.1534L23.207 14.235H34.0097V17.2801H20.4036V0.435547Z" fill="#FFBA72"/>
<path d="M15.6106 0.435547H19.3323V17.2801H15.6106V0.435547Z" fill="#FFBA72"/>
<path d="M8.65185 17.6189C6.99237 17.6189 5.50206 17.2564 4.18092 16.5313C2.8759 15.7902 1.85282 14.7591 1.11169 13.4379C0.370564 12.1007 0 10.5701 0 8.84618C0 7.12225 0.370564 5.59972 1.11169 4.27858C1.86893 2.95744 2.91617 1.93436 4.25342 1.20935C5.60679 0.46822 7.13737 0.0976562 8.84519 0.0976562C10.1824 0.0976562 11.3666 0.315161 12.3978 0.750171C13.4289 1.18518 14.3795 1.80547 15.2495 2.61104L13.3645 5.10026C12.7683 4.52025 12.1239 4.07719 11.4311 3.77107C10.7383 3.44884 9.95688 3.28772 9.08686 3.28772C8.05573 3.28772 7.12932 3.5294 6.30764 4.01274C5.50206 4.47997 4.87372 5.14054 4.42259 5.99445C3.97147 6.84836 3.74591 7.8231 3.74591 8.91868C3.74591 10.0143 3.97147 10.9729 4.42259 11.7946C4.88983 12.6163 5.52623 13.2527 6.3318 13.7038C7.15349 14.1388 8.07989 14.3563 9.11103 14.3563C9.99716 14.3563 10.7866 14.1791 11.4794 13.8246C12.1883 13.4702 12.8408 12.9707 13.437 12.3263L15.3703 14.888C14.4681 15.7741 13.4853 16.4508 12.4219 16.918C11.3747 17.3852 10.118 17.6189 8.65185 17.6189Z" fill="#FFBA72"/>
<path d="M344.246 17.692C342.861 17.692 341.59 17.3173 340.434 16.5679C339.277 15.8185 338.365 14.7759 337.697 13.44C337.029 12.0879 336.695 10.5565 336.695 8.84598C336.695 7.13543 337.07 5.61222 337.819 4.27637C338.568 2.92422 339.611 1.87346 340.947 1.12407C342.283 0.374691 343.806 0 345.516 0C346.934 0 348.261 0.268801 349.499 0.806401C350.738 1.344 351.797 2.0608 352.676 2.9568L350.55 5.40044C349.866 4.71622 349.141 4.17863 348.375 3.78764C347.61 3.39666 346.714 3.20117 345.687 3.20117C344.629 3.20117 343.7 3.45368 342.902 3.9587C342.12 4.44742 341.517 5.12349 341.093 5.98691C340.67 6.85033 340.458 7.80336 340.458 8.84598C340.458 9.95376 340.67 10.9475 341.093 11.8272C341.517 12.6906 342.128 13.3667 342.926 13.8554C343.724 14.3442 344.669 14.5885 345.761 14.5885C346.608 14.5885 347.365 14.4012 348.033 14.0265C348.701 13.6355 349.214 13.0572 349.573 12.2915C349.931 11.5258 350.061 10.5891 349.964 9.48132L350.917 10.5077H345.052V7.81965H352.969V17.3743H349.793C350.053 16.7552 350.322 16.185 350.599 15.6637C350.909 15.0284 351.251 14.4338 351.625 13.8799L349.597 13.0002C349.451 13.7495 349.174 14.4826 348.766 15.1994C348.359 15.8999 347.781 16.4946 347.031 16.9833C346.282 17.4557 345.353 17.692 344.246 17.692Z" fill="#FFBA72"/>
<path d="M320.283 0.342108H323.68L333.235 12.1205L335.018 10.8986C334.416 10.2307 333.919 9.61979 333.528 9.0659C333.137 8.51201 332.819 7.91739 332.575 7.28205C332.33 6.63041 332.208 5.95433 332.208 5.25382V0.342108H335.996V17.3743H332.868L323.216 5.52263L321.383 6.72001C322.067 7.37165 322.605 8.01514 322.996 8.65048C323.696 9.77456 324.046 11.0045 324.046 12.3404V17.3743H320.283V0.342108Z" fill="#FFBA72"/>
<path d="M316.159 17.3743L314.326 12.7069L315.475 13.5133H306.409L307.557 12.7069L305.7 17.3743H301.693L308.95 0.342108H312.909L320.191 17.3743H316.159ZM309.952 3.17673C309.968 3.81207 309.96 4.4067 309.928 4.96059C309.895 5.49819 309.822 6.03579 309.708 6.57339C309.61 7.0947 309.471 7.6323 309.292 8.18619C309.08 8.78896 308.624 9.80714 307.924 11.2407L307.386 10.6787H314.473L313.935 11.2407C313.593 10.5402 313.275 9.82343 312.982 9.09034C312.559 8.06401 312.282 7.11099 312.151 6.23128C312.021 5.33528 311.972 4.31709 312.005 3.17673H309.952Z" fill="#FFBA72"/>
<path d="M297.821 0.342108H301.608V17.3743H297.821V0.342108ZM286.751 0.342108H290.514V17.3743H286.751V0.342108ZM290.196 7.20874H298.163V10.2877H290.196V7.20874Z" fill="#FFBA72"/>
<path d="M279.715 17.7164C278.037 17.7164 276.53 17.3498 275.194 16.6167C273.875 15.8674 272.84 14.8247 272.091 13.4889C271.341 12.1367 270.967 10.5891 270.967 8.84598C270.967 7.10285 271.341 5.56335 272.091 4.22749C272.856 2.89164 273.915 1.85717 275.267 1.12407C276.636 0.374691 278.184 0 279.91 0C281.262 0 282.46 0.219926 283.503 0.659781C284.545 1.09964 285.506 1.72684 286.386 2.54138L284.48 5.05833C283.877 4.47186 283.226 4.02386 282.525 3.71433C281.825 3.38851 281.034 3.2256 280.155 3.2256C279.112 3.2256 278.175 3.46997 277.345 3.9587C276.53 4.43113 275.895 5.09906 275.438 5.96248C274.982 6.8259 274.754 7.8115 274.754 8.91929C274.754 10.0271 274.982 10.9964 275.438 11.8272C275.911 12.6581 276.554 13.3015 277.369 13.7577C278.2 14.1975 279.137 14.4175 280.179 14.4175C281.075 14.4175 281.873 14.2383 282.574 13.8799C283.291 13.5215 283.951 13.0165 284.553 12.3648L286.508 14.9551C285.596 15.8511 284.602 16.5353 283.527 17.0077C282.468 17.4802 281.197 17.7164 279.715 17.7164Z" fill="#FFBA72"/>
<path d="M262.673 17.3743L260.84 12.7069L261.989 13.5133H252.923L254.071 12.7069L252.214 17.3743H248.206L255.464 0.342108H259.423L266.705 17.3743H262.673ZM256.466 3.17673C256.482 3.81207 256.474 4.4067 256.441 4.96059C256.409 5.49819 256.336 6.03579 256.222 6.57339C256.124 7.0947 255.985 7.6323 255.806 8.18619C255.594 8.78896 255.138 9.80714 254.438 11.2407L253.9 10.6787H260.987L260.449 11.2407C260.107 10.5402 259.789 9.82343 259.496 9.09034C259.072 8.06401 258.796 7.11099 258.665 6.23128C258.535 5.33528 258.486 4.31709 258.519 3.17673H256.466Z" fill="#FFBA72"/>
<path d="M232.406 0.342108H235.802L245.357 12.1205L247.141 10.8986C246.538 10.2307 246.041 9.61979 245.65 9.0659C245.259 8.51201 244.942 7.91739 244.697 7.28205C244.453 6.63041 244.331 5.95433 244.331 5.25382V0.342108H248.118V17.3743H244.991L235.338 5.52263L233.505 6.72001C234.19 7.37165 234.727 8.01514 235.118 8.65048C235.819 9.77456 236.169 11.0045 236.169 12.3404V17.3743H232.406V0.342108Z" fill="#FFBA72"/>
<path d="M227.56 0.342108H231.323V17.3743H227.56V0.342108Z" fill="#FFBA72"/>
<path d="M211.116 0.342108H217.591C219.514 0.342108 221.183 0.716799 222.601 1.46618C224.018 2.19927 225.101 3.20931 225.851 4.4963C226.6 5.78328 226.975 7.24132 226.975 8.87041C226.975 10.4343 226.6 11.8679 225.851 13.1712C225.101 14.4582 224.018 15.4845 222.601 16.2502C221.183 16.9996 219.514 17.3743 217.591 17.3743H211.116V0.342108ZM213.95 14.2953H217.347C218.536 14.2953 219.562 14.0672 220.426 13.6111C221.306 13.1549 221.973 12.5196 222.43 11.705C222.902 10.8742 223.138 9.92932 223.138 8.87041C223.138 7.8115 222.902 6.87477 222.43 6.06023C221.973 5.22939 221.306 4.5859 220.426 4.12975C219.562 3.65731 218.536 3.42109 217.347 3.42109H213.95L214.879 2.51695V15.2239L213.95 14.2953Z" fill="#FFBA72"/>
<path d="M187.974 2.49251L188.829 3.42109H182.329V0.342108H197.407V3.42109H190.906L191.762 2.49251V17.3743H187.974V2.49251Z" fill="#FFBA72"/>
<path d="M181.951 17.3743L180.118 12.7069L181.266 13.5133H172.2L173.349 12.7069L171.492 17.3743H167.484L174.742 0.342108H178.701L185.983 17.3743H181.951ZM175.744 3.17673C175.76 3.81207 175.752 4.4067 175.719 4.96059C175.687 5.49819 175.613 6.03579 175.499 6.57339C175.402 7.0947 175.263 7.6323 175.084 8.18619C174.872 8.78896 174.416 9.80714 173.715 11.2407L173.178 10.6787H180.264L179.727 11.2407C179.385 10.5402 179.067 9.82343 178.774 9.09034C178.35 8.06401 178.073 7.11099 177.943 6.23128C177.813 5.33528 177.764 4.31709 177.796 3.17673H175.744Z" fill="#FFBA72"/>
<path d="M154.142 0.342108H167.606V3.42109H156.976L157.905 2.54138V8.18619L156.976 7.33092H166.848V10.2388H156.976L157.905 9.43245V15.2239L156.976 14.2953H167.899V17.3743H154.142V0.342108Z" fill="#FFBA72"/>
<path d="M138.699 0.342108H147.179C148.417 0.342108 149.459 0.472438 150.307 0.733092C151.17 0.977457 151.83 1.39287 152.286 1.97935C152.758 2.54953 152.995 3.28262 152.995 4.17862C152.995 4.92801 152.832 5.55521 152.506 6.06023C152.18 6.54895 151.708 6.9155 151.089 7.15987C150.486 7.40423 149.753 7.55085 148.889 7.59972V9.57907C149.883 9.59536 150.722 9.72569 151.406 9.97005C152.107 10.2144 152.644 10.5891 153.019 11.0941C153.394 11.5991 153.581 12.2589 153.581 13.0735C153.581 14.0183 153.32 14.8085 152.799 15.4438C152.294 16.0792 151.585 16.5597 150.673 16.8855C149.761 17.2114 148.702 17.3743 147.496 17.3743H138.699V0.342108ZM146.788 14.4419C147.407 14.4419 147.936 14.3686 148.376 14.222C148.832 14.0591 149.174 13.8147 149.402 13.4889C149.647 13.1631 149.769 12.7477 149.769 12.2426C149.769 11.7702 149.647 11.3792 149.402 11.0697C149.174 10.7602 148.84 10.5321 148.401 10.3855C147.961 10.2388 147.423 10.1655 146.788 10.1655H142.487V14.4419H146.788ZM146.226 7.37979C147.219 7.37979 147.961 7.21688 148.449 6.89106C148.954 6.54895 149.207 6.01135 149.207 5.27826C149.207 4.57775 148.954 4.07273 148.449 3.7632C147.961 3.43738 147.219 3.27448 146.226 3.27448H142.487V7.37979H146.226Z" fill="#FFBA72"/>
<path d="M122.28 0.342108H128.755C130.678 0.342108 132.348 0.716799 133.765 1.46618C135.182 2.19927 136.265 3.20931 137.015 4.4963C137.764 5.78328 138.139 7.24132 138.139 8.87041C138.139 10.4343 137.764 11.8679 137.015 13.1712C136.265 14.4582 135.182 15.4845 133.765 16.2502C132.348 16.9996 130.678 17.3743 128.755 17.3743H122.28V0.342108ZM125.114 14.2953H128.511C129.7 14.2953 130.727 14.0672 131.59 13.6111C132.47 13.1549 133.138 12.5196 133.594 11.705C134.066 10.8742 134.302 9.92932 134.302 8.87041C134.302 7.8115 134.066 6.87477 133.594 6.06023C133.138 5.22939 132.47 4.5859 131.59 4.12975C130.727 3.65731 129.7 3.42109 128.511 3.42109H125.114L126.043 2.51695V15.2239L125.114 14.2953Z" fill="#FFBA72"/>
<path d="M118.155 17.3743L116.323 12.7069L117.471 13.5133H108.405L109.554 12.7069L107.697 17.3743H103.689L110.947 0.342108H114.905L122.187 17.3743H118.155ZM111.948 3.17673C111.965 3.81207 111.957 4.4067 111.924 4.96059C111.891 5.49819 111.818 6.03579 111.704 6.57339C111.606 7.0947 111.468 7.6323 111.289 8.18619C111.077 8.78896 110.621 9.80714 109.92 11.2407L109.383 10.6787H116.469L115.932 11.2407C115.59 10.5402 115.272 9.82343 114.979 9.09034C114.555 8.06401 114.278 7.11099 114.148 6.23128C114.017 5.33528 113.969 4.31709 114.001 3.17673H111.948Z" fill="#FFBA72"/>
<path d="M90.3463 0.342108H103.811V3.42109H93.1809L94.1095 2.54138V8.18619L93.1809 7.33092H103.053V10.2388H93.1809L94.1095 9.43245V15.2239L93.1809 14.2953H104.104V17.3743H90.3463V0.342108Z" fill="#FFBA72"/>
<path d="M73.9023 0.342108H80.3779C82.3003 0.342108 83.9701 0.716799 85.3874 1.46618C86.8047 2.19927 87.8881 3.20931 88.6375 4.4963C89.3869 5.78328 89.7616 7.24132 89.7616 8.87041C89.7616 10.4343 89.3869 11.8679 88.6375 13.1712C87.8881 14.4582 86.8047 15.4845 85.3874 16.2502C83.9701 16.9996 82.3003 17.3743 80.3779 17.3743H73.9023V0.342108ZM76.7369 14.2953H80.1336C81.3228 14.2953 82.3492 14.0672 83.2126 13.6111C84.0923 13.1549 84.7602 12.5196 85.2163 11.705C85.6888 10.8742 85.925 9.92932 85.925 8.87041C85.925 7.8115 85.6888 6.87477 85.2163 6.06023C84.7602 5.22939 84.0923 4.5859 83.2126 4.12975C82.3492 3.65731 81.3228 3.42109 80.1336 3.42109H76.7369L77.6655 2.51695V15.2239L76.7369 14.2953Z" fill="#FFBA72"/>
<path d="M510.924 0.436035H524.24V3.4811H513.727L514.646 2.61108V8.1937L513.727 7.34785H523.491V10.2237H513.727L514.646 9.42623V15.1539L513.727 14.2355H524.53V17.2806H510.924V0.436035Z" fill="#FFBA72"/>
<path d="M496.868 14.4772L506.39 2.78025L504.916 1.49939C504.448 1.91829 503.933 2.26469 503.369 2.53858C502.805 2.81247 502.161 3.02192 501.436 3.16693C500.71 3.31193 499.744 3.4086 498.535 3.45693C498.004 3.47304 497.537 3.4811 497.134 3.4811V0.436035H510.305V3.23943L500.759 14.9847L502.257 16.2172C502.724 15.8466 503.248 15.5325 503.828 15.2747C504.408 15.0008 505.077 14.7752 505.834 14.598C506.607 14.4208 507.622 14.308 508.879 14.2597C509.427 14.2436 509.918 14.2355 510.353 14.2355V17.2806H496.868V14.4772Z" fill="#FFBA72"/>
<path d="M493.579 17.2806L491.767 12.6646L492.903 13.4621H483.937L485.073 12.6646L483.236 17.2806H479.272L486.45 0.436035H490.365L497.567 17.2806H493.579ZM487.441 3.23943C487.457 3.86777 487.449 4.45584 487.417 5.00363C487.385 5.53531 487.312 6.06699 487.199 6.59867C487.103 7.11423 486.966 7.64591 486.788 8.1937C486.579 8.78983 486.128 9.79679 485.435 11.2146L484.903 10.6588H491.912L491.38 11.2146C491.042 10.5218 490.728 9.8129 490.438 9.08789C490.019 8.07287 489.745 7.13035 489.616 6.26033C489.487 5.3742 489.439 4.36723 489.471 3.23943H487.441Z" fill="#FFBA72"/>
<path d="M465.18 0.436035H471.584C473.485 0.436035 475.137 0.806599 476.539 1.54773C477.94 2.27274 479.012 3.27165 479.753 4.54446C480.494 5.81726 480.864 7.25924 480.864 8.87038C480.864 10.4171 480.494 11.8349 479.753 13.1238C479.012 14.3966 477.94 15.4116 476.539 16.1689C475.137 16.91 473.485 17.2806 471.584 17.2806H465.18V0.436035ZM467.983 14.2355H471.343C472.519 14.2355 473.534 14.0099 474.388 13.5588C475.258 13.1077 475.918 12.4793 476.369 11.6738C476.837 10.8521 477.07 9.91763 477.07 8.87038C477.07 7.82314 476.837 6.89673 476.369 6.09116C475.918 5.26947 475.258 4.63307 474.388 4.18195C473.534 3.71472 472.519 3.4811 471.343 3.4811H467.983L468.902 2.58691V15.1539L467.983 14.2355Z" fill="#FFBA72"/>
<path d="M450.527 10.9246L444.22 0.436035H448.328C449.15 1.77329 449.77 2.90914 450.189 3.84361C450.624 4.76196 450.922 5.64809 451.083 6.502C451.26 7.33979 451.349 8.32259 451.349 9.4504H453.476C453.476 8.32259 453.556 7.33174 453.717 6.47783C453.895 5.62392 454.193 4.73779 454.612 3.81944C455.031 2.90109 455.651 1.77329 456.472 0.436035H460.605L454.273 10.9246V17.2806H450.527V10.9246Z" fill="#FFBA72"/>
<path d="M428.593 0.436035H431.952L441.402 12.0846L443.166 10.8763C442.57 10.2157 442.079 9.61151 441.692 9.06372C441.305 8.51593 440.991 7.92786 440.749 7.29952C440.508 6.65506 440.387 5.98643 440.387 5.29364V0.436035H444.133V17.2806H441.039L431.493 5.55948L429.681 6.74367C430.357 7.38813 430.889 8.02453 431.276 8.65288C431.969 9.76457 432.315 10.981 432.315 12.3021V17.2806H428.593V0.436035Z" fill="#FFBA72"/>
<path d="M412 0.436035H415.359L424.808 12.0846L426.572 10.8763C425.976 10.2157 425.485 9.61151 425.098 9.06372C424.711 8.51593 424.397 7.92786 424.156 7.29952C423.914 6.65506 423.793 5.98643 423.793 5.29364V0.436035H427.539V17.2806H424.446L414.9 5.55948L413.087 6.74367C413.764 7.38813 414.295 8.02453 414.682 8.65288C415.375 9.76457 415.721 10.981 415.721 12.3021V17.2806H412V0.436035Z" fill="#FFBA72"/>
<path d="M407.921 17.2806L406.108 12.6646L407.244 13.4621H398.278L399.414 12.6646L397.577 17.2806H393.614L400.792 0.436035H404.707L411.909 17.2806H407.921ZM401.783 3.23943C401.799 3.86777 401.791 4.45584 401.758 5.00363C401.726 5.53531 401.654 6.06699 401.541 6.59867C401.444 7.11423 401.307 7.64591 401.13 8.1937C400.921 8.78983 400.469 9.79679 399.777 11.2146L399.245 10.6588H406.253L405.722 11.2146C405.383 10.5218 405.069 9.8129 404.779 9.08789C404.36 8.07287 404.086 7.13035 403.958 6.26033C403.829 5.3742 403.78 4.36723 403.813 3.23943H401.783Z" fill="#FFBA72"/>
<path d="M379.521 0.436035H385.925C387.826 0.436035 389.478 0.806599 390.88 1.54773C392.281 2.27274 393.353 3.27165 394.094 4.54446C394.835 5.81726 395.205 7.25924 395.205 8.87038C395.205 10.4171 394.835 11.8349 394.094 13.1238C393.353 14.3966 392.281 15.4116 390.88 16.1689C389.478 16.91 387.826 17.2806 385.925 17.2806H379.521V0.436035ZM382.324 14.2355H385.684C386.86 14.2355 387.875 14.0099 388.729 13.5588C389.599 13.1077 390.259 12.4793 390.71 11.6738C391.178 10.8521 391.411 9.91763 391.411 8.87038C391.411 7.82314 391.178 6.89673 390.71 6.09116C390.259 5.26947 389.599 4.63307 388.729 4.18195C387.875 3.71472 386.86 3.4811 385.684 3.4811H382.324L383.243 2.58691V15.1539L382.324 14.2355Z" fill="#FFBA72"/>
<path d="M624.891 0.436035H628.25L637.699 12.0846L639.464 10.8763C638.868 10.2157 638.376 9.61151 637.989 9.06372C637.603 8.51593 637.289 7.92786 637.047 7.29952C636.805 6.65506 636.684 5.98643 636.684 5.29364V0.436035H640.43V17.2806H637.337L627.791 5.55948L625.978 6.74367C626.655 7.38813 627.187 8.02453 627.573 8.65288C628.266 9.76457 628.613 10.981 628.613 12.3021V17.2806H624.891V0.436035Z" fill="#FFBA72"/>
<path d="M620.098 0.436035H623.82V17.2806H620.098V0.436035Z" fill="#FFBA72"/>
<path d="M597.299 0.436035H601.165C601.665 2.90109 601.995 4.89891 602.156 6.4295C602.333 7.96008 602.374 9.31345 602.277 10.4896C602.18 11.6657 601.939 12.9144 601.552 14.2355L603.63 14.4772C603.872 12.3988 604.154 10.5218 604.476 8.84621C604.798 7.15451 605.37 4.35112 606.192 0.436035H611.098C611.791 3.30387 612.363 6.09921 612.814 8.82205C613.201 10.9488 613.483 12.8338 613.66 14.4772L615.762 14.2355C615.392 12.7371 615.158 11.3677 615.061 10.1271C614.981 8.88649 615.021 7.53313 615.182 6.06699C615.343 4.58473 615.658 2.70775 616.125 0.436035H619.992L616.342 17.2806H611.461C610.623 13.6394 610.075 10.8601 609.817 8.94288C609.576 7.00951 609.511 4.99558 609.624 2.90109H607.666C607.795 4.89891 607.731 6.86451 607.473 8.79788C607.231 10.7151 606.684 13.5427 605.83 17.2806H600.948L597.299 0.436035Z" fill="#FFBA72"/>
<path d="M583.56 0.436035H591.39C593.533 0.436035 595.136 0.814654 596.2 1.57189C597.263 2.31302 597.795 3.43277 597.795 4.93113C597.795 5.84948 597.553 6.61478 597.07 7.22701C596.586 7.83925 595.934 8.30648 595.112 8.62871C594.291 8.95094 593.364 9.14428 592.333 9.20872V11.1421C593.074 11.1743 593.711 11.3354 594.242 11.6254C594.79 11.8993 595.297 12.3505 595.765 12.9788L595.837 13.0755L598.931 17.2806H594.556L591.898 13.4863C591.834 13.3896 591.769 13.293 591.705 13.1963C591.237 12.5357 590.859 12.0685 590.569 11.7946C590.295 11.5207 589.989 11.3354 589.65 11.2388C589.312 11.126 588.821 11.0696 588.176 11.0696H586.364L587.282 10.1754V17.2806H583.56V0.436035ZM586.364 8.70121H590.714C591.455 8.70121 592.067 8.60454 592.55 8.41121C593.05 8.20176 593.421 7.89564 593.662 7.49285C593.92 7.09007 594.049 6.58256 594.049 5.97032C594.049 5.08419 593.775 4.42362 593.227 3.98861C592.679 3.5536 591.842 3.3361 590.714 3.3361H586.364L587.282 2.39358V9.57123L586.364 8.70121Z" fill="#FFBA72"/>
<path d="M579.482 17.2806L577.669 12.6646L578.805 13.4621H569.839L570.975 12.6646L569.138 17.2806H565.175L572.352 0.436035H576.267L583.469 17.2806H579.482ZM573.343 3.23943C573.359 3.86777 573.351 4.45584 573.319 5.00363C573.287 5.53531 573.214 6.06699 573.101 6.59867C573.005 7.11423 572.868 7.64591 572.691 8.1937C572.481 8.78983 572.03 9.79679 571.337 11.2146L570.806 10.6588H577.814L577.282 11.2146C576.944 10.5218 576.63 9.8129 576.34 9.08789C575.921 8.07287 575.647 7.13035 575.518 6.26033C575.389 5.3742 575.341 4.36723 575.373 3.23943H573.343Z" fill="#FFBA72"/>
<path d="M551.082 0.436035H557.486C559.387 0.436035 561.039 0.806599 562.44 1.54773C563.842 2.27274 564.913 3.27165 565.655 4.54446C566.396 5.81726 566.766 7.25924 566.766 8.87038C566.766 10.4171 566.396 11.8349 565.655 13.1238C564.913 14.3966 563.842 15.4116 562.44 16.1689C561.039 16.91 559.387 17.2806 557.486 17.2806H551.082V0.436035ZM553.885 14.2355H557.244C558.421 14.2355 559.436 14.0099 560.289 13.5588C561.16 13.1077 561.82 12.4793 562.271 11.6738C562.738 10.8521 562.972 9.91763 562.972 8.87038C562.972 7.82314 562.738 6.89673 562.271 6.09116C561.82 5.26947 561.16 4.63307 560.289 4.18195C559.436 3.71472 558.421 3.4811 557.244 3.4811H553.885L554.804 2.58691V15.1539L553.885 14.2355Z" fill="#FFBA72"/>
</svg>
