<svg width="641" height="18" viewBox="0 0 641 18" fill="none" xmlns="http://www.w3.org/2000/svg">
<path d="M161.319 17.5705C159.627 17.5705 158.112 17.2 156.775 16.4588C155.438 15.7016 154.391 14.6624 153.633 13.3413C152.876 12.004 152.498 10.5057 152.498 8.84618C152.498 7.1867 152.876 5.69639 153.633 4.37525C154.391 3.05411 155.438 2.02298 156.775 1.28185C158.112 0.524615 159.627 0.145996 161.319 0.145996C162.994 0.145996 164.501 0.524615 165.838 1.28185C167.191 2.02298 168.247 3.05411 169.004 4.37525C169.761 5.69639 170.14 7.1867 170.14 8.84618C170.14 10.5057 169.761 12.004 169.004 13.3413C168.247 14.6624 167.191 15.7016 165.838 16.4588C164.501 17.2 162.994 17.5705 161.319 17.5705ZM161.319 14.5013C162.334 14.5013 163.22 14.2596 163.977 13.7763C164.734 13.2929 165.314 12.6243 165.717 11.7704C166.12 10.9165 166.321 9.94176 166.321 8.84618C166.321 7.7506 166.12 6.77586 165.717 5.92195C165.314 5.06805 164.734 4.39942 163.977 3.91608C163.22 3.43273 162.334 3.19106 161.319 3.19106C160.304 3.19106 159.417 3.43273 158.66 3.91608C157.903 4.39942 157.315 5.06805 156.896 5.92195C156.493 6.77586 156.292 7.7506 156.292 8.84618C156.292 9.94176 156.493 10.9165 156.896 11.7704C157.315 12.6243 157.903 13.2929 158.66 13.7763C159.417 14.2596 160.304 14.5013 161.319 14.5013Z" fill="#FFBA72"/>
<path d="M138.202 0.411133H146.032C148.175 0.411133 149.778 0.789752 150.842 1.54699C151.905 2.28812 152.437 3.40786 152.437 4.90623C152.437 5.82458 152.195 6.58988 151.712 7.20211C151.228 7.81435 150.576 8.28158 149.754 8.60381C148.932 8.92604 148.006 9.11937 146.975 9.18382V11.1172C147.716 11.1494 148.352 11.3105 148.884 11.6005C149.432 11.8744 149.939 12.3256 150.407 12.9539L150.479 13.0506L153.572 17.2557H149.198L146.54 13.4614C146.475 13.3647 146.411 13.2681 146.346 13.1714C145.879 12.5108 145.501 12.0436 145.211 11.7697C144.937 11.4958 144.631 11.3105 144.292 11.2139C143.954 11.1011 143.463 11.0447 142.818 11.0447H141.006L141.924 10.1505V17.2557H138.202V0.411133ZM141.006 8.67631H145.356C146.097 8.67631 146.709 8.57964 147.192 8.3863C147.692 8.17685 148.062 7.87074 148.304 7.46795C148.562 7.06516 148.691 6.55765 148.691 5.94542C148.691 5.05929 148.417 4.39872 147.869 3.96371C147.321 3.5287 146.483 3.31119 145.356 3.31119H141.006L141.924 2.36867V9.54633L141.006 8.67631Z" fill="#FFBA72"/>
<path d="M124.04 0.411133H137.356V3.4562H126.843L127.762 2.58618V8.1688L126.843 7.32295H136.607V10.1988H126.843L127.762 9.40132V15.1289L126.843 14.2106H137.646V17.2557H124.04V0.411133Z" fill="#FFBA72"/>
<path d="M109.984 14.4523L119.506 2.75535L118.032 1.47449C117.565 1.89339 117.049 2.23978 116.485 2.51368C115.921 2.78757 115.277 2.99702 114.552 3.14202C113.827 3.28703 112.86 3.3837 111.652 3.43203C111.12 3.44814 110.653 3.4562 110.25 3.4562V0.411133H123.421V3.21453L113.875 14.9598L115.373 16.1923C115.841 15.8217 116.364 15.5076 116.944 15.2498C117.524 14.9759 118.193 14.7503 118.95 14.5731C119.724 14.3959 120.739 14.2831 121.995 14.2348C122.543 14.2187 123.034 14.2106 123.469 14.2106V17.2557H109.984V14.4523Z" fill="#FFBA72"/>
<path d="M95.8147 10.8997L89.5071 0.411133H93.6155C94.4372 1.74838 95.0575 2.88424 95.4764 3.8187C95.9114 4.73706 96.2095 5.62319 96.3706 6.4771C96.5478 7.31489 96.6364 8.29769 96.6364 9.42549H98.7631C98.7631 8.29769 98.8437 7.30684 99.0048 6.45293C99.182 5.59902 99.4801 4.71289 99.899 3.79454C100.318 2.87619 100.938 1.74838 101.76 0.411133H105.892L99.5606 10.8997V17.2557H95.8147V10.8997Z" fill="#FFBA72"/>
<path d="M76.3113 0.411133H89.6274V3.4562H79.1147L80.033 2.58618V8.1688L79.1147 7.32295H88.8782V10.1988H79.1147L80.033 9.40132V15.1289L79.1147 14.2106H89.9174V17.2557H76.3113V0.411133Z" fill="#FFBA72"/>
<path d="M63.4473 0.411133H67.169V15.1289L66.2507 14.2106H76.2317V17.2557H63.4473V0.411133Z" fill="#FFBA72"/>
<path d="M47.1846 0.411133H53.5889C55.49 0.411133 57.1414 0.781696 58.5431 1.52282C59.9448 2.24784 61.0163 3.24675 61.7574 4.51955C62.4985 5.79236 62.8691 7.23433 62.8691 8.84548C62.8691 10.3922 62.4985 11.81 61.7574 13.0989C61.0163 14.3717 59.9448 15.3867 58.5431 16.144C57.1414 16.8851 55.49 17.2557 53.5889 17.2557H47.1846V0.411133ZM49.988 14.2106H53.3472C54.5233 14.2106 55.5384 13.985 56.3923 13.5339C57.2623 13.0828 57.9229 12.4544 58.374 11.6489C58.8412 10.8272 59.0748 9.89272 59.0748 8.84548C59.0748 7.79824 58.8412 6.87183 58.374 6.06625C57.9229 5.24457 57.2623 4.60817 56.3923 4.15705C55.5384 3.68981 54.5233 3.4562 53.3472 3.4562H49.988L50.9063 2.56201V15.1289L49.988 14.2106Z" fill="#FFBA72"/>
<path d="M43.1056 17.2557L41.293 12.6397L42.4289 13.4372H33.4629L34.5987 12.6397L32.762 17.2557H28.7986L35.9762 0.411133H39.8913L47.0931 17.2557H43.1056ZM36.9671 3.21453C36.9832 3.84287 36.9752 4.43094 36.9429 4.97873C36.9107 5.51041 36.8382 6.04209 36.7254 6.57376C36.6288 7.08933 36.4918 7.62101 36.3146 8.1688C36.1051 8.76492 35.654 9.77189 34.9612 11.1897L34.4295 10.6339H41.438L40.9063 11.1897C40.568 10.4969 40.2538 9.788 39.9638 9.06298C39.5449 8.04796 39.271 7.10544 39.1421 6.23542C39.0132 5.34929 38.9649 4.34233 38.9971 3.21453H36.9671Z" fill="#FFBA72"/>
<path d="M15.2725 0.411133H23.1026C25.2455 0.411133 26.8485 0.789752 27.9119 1.54699C28.9753 2.28812 29.5069 3.40786 29.5069 4.90623C29.5069 5.82458 29.2653 6.58988 28.7819 7.20211C28.2986 7.81435 27.6461 8.28158 26.8244 8.60381C26.0027 8.92604 25.0763 9.11937 24.0451 9.18382V11.1172C24.7863 11.1494 25.4227 11.3105 25.9544 11.6005C26.5021 11.8744 27.0097 12.3256 27.4769 12.9539L27.5494 13.0506L30.6428 17.2557H26.2685L23.6101 13.4614C23.5457 13.3647 23.4812 13.2681 23.4168 13.1714C22.9496 12.5108 22.5709 12.0436 22.2809 11.7697C22.007 11.4958 21.7009 11.3105 21.3626 11.2139C21.0243 11.1011 20.5329 11.0447 19.8884 11.0447H18.0759L18.9942 10.1505V17.2557H15.2725V0.411133ZM18.0759 8.67631H22.4259C23.1671 8.67631 23.7793 8.57964 24.2627 8.3863C24.7621 8.17685 25.1327 7.87074 25.3743 7.46795C25.6321 7.06516 25.761 6.55765 25.761 5.94542C25.761 5.05929 25.4871 4.39872 24.9393 3.96371C24.3915 3.5287 23.5537 3.31119 22.4259 3.31119H18.0759L18.9942 2.36867V9.54633L18.0759 8.67631Z" fill="#FFBA72"/>
<path d="M0 0.411133H8.38601C9.61048 0.411133 10.6416 0.540024 11.4794 0.797807C12.3333 1.03948 12.9858 1.45032 13.437 2.03033C13.9042 2.59423 14.1378 3.31925 14.1378 4.20538C14.1378 4.94651 13.9767 5.5668 13.6545 6.06625C13.3322 6.5496 12.865 6.91211 12.2528 7.15378C11.6566 7.39545 10.9316 7.54045 10.0777 7.58879V9.54633C11.0605 9.56244 11.8903 9.69133 12.5669 9.933C13.2597 10.1747 13.7914 10.5452 14.162 11.0447C14.5325 11.5441 14.7178 12.1967 14.7178 13.0022C14.7178 13.9367 14.46 14.7181 13.9445 15.3465C13.445 15.9748 12.7442 16.4501 11.8419 16.7723C10.9397 17.0945 9.89244 17.2557 8.70019 17.2557H0V0.411133ZM7.99934 14.3556C8.61157 14.3556 9.1352 14.2831 9.57021 14.1381C10.0213 13.977 10.3597 13.7353 10.5852 13.4131C10.8269 13.0908 10.9477 12.68 10.9477 12.1806C10.9477 11.7133 10.8269 11.3266 10.5852 11.0205C10.3597 10.7144 10.0294 10.4888 9.59437 10.3438C9.15936 10.1988 8.62769 10.1263 7.99934 10.1263H3.74591V14.3556H7.99934ZM7.44349 7.37128C8.42629 7.37128 9.15936 7.21017 9.64271 6.88794C10.1422 6.5496 10.3919 6.01792 10.3919 5.2929C10.3919 4.60011 10.1422 4.10066 9.64271 3.79454C9.15936 3.47231 8.42629 3.31119 7.44349 3.31119H3.74591V7.37128H7.44349Z" fill="#FFBA72"/>
<path d="M624.889 0.342108H632.806C634.973 0.342108 636.594 0.724943 637.669 1.49062C638.744 2.24 639.282 3.37222 639.282 4.88728C639.282 5.81586 639.037 6.58968 638.549 7.20874C638.06 7.82779 637.4 8.30023 636.569 8.62605C635.738 8.95187 634.802 9.14736 633.759 9.21252V11.1674C634.508 11.2 635.152 11.3629 635.69 11.6562C636.243 11.9331 636.757 12.3893 637.229 13.0246L637.302 13.1223L640.43 17.3743H636.007L633.319 13.5378C633.254 13.44 633.189 13.3423 633.124 13.2445C632.651 12.5766 632.268 12.1042 631.975 11.8272C631.698 11.5503 631.389 11.3629 631.047 11.2652C630.704 11.1511 630.208 11.0941 629.556 11.0941H627.723L628.652 10.19V17.3743H624.889V0.342108ZM627.723 8.69936H632.122C632.871 8.69936 633.49 8.60161 633.979 8.40612C634.484 8.19434 634.859 7.88481 635.103 7.47754C635.364 7.07027 635.494 6.5571 635.494 5.93804C635.494 5.04204 635.217 4.37412 634.663 3.93426C634.109 3.4944 633.262 3.27448 632.122 3.27448H627.723L628.652 2.32146V9.57907L627.723 8.69936Z" fill="#FFBA72"/>
<path d="M610.569 0.342108H624.033V3.42109H613.403L614.332 2.54138V8.18619L613.403 7.33092H623.275V10.2388H613.403L614.332 9.43245V15.2239L613.403 14.2953H624.326V17.3743H610.569V0.342108Z" fill="#FFBA72"/>
<path d="M593.338 0.342108H597.272C597.582 1.15665 597.875 1.92233 598.152 2.63913C598.934 4.90357 599.512 6.63041 599.887 7.81965C600.262 8.99259 600.522 10.0434 600.669 10.9719C600.816 11.9005 600.889 13.0327 600.889 14.3686H602.917C602.917 13.0653 602.99 11.9575 603.137 11.0453C603.284 10.1167 603.536 9.08219 603.895 7.94183C604.269 6.78517 604.815 5.1235 605.532 2.9568C605.874 2.09338 606.216 1.22182 606.558 0.342108H610.492L604.139 17.3743H599.691L593.338 0.342108Z" fill="#FFBA72"/>
<path d="M584.339 0.342108H588.102V15.2239L587.173 14.2953H597.265V17.3743H584.339V0.342108Z" fill="#FFBA72"/>
<path d="M579.492 0.342108H583.255V17.3743H579.492V0.342108Z" fill="#FFBA72"/>
<path d="M571.76 17.692C570.343 17.692 569.097 17.5128 568.022 17.1544C566.963 16.796 566.14 16.2828 565.554 15.6149C564.967 14.9306 564.674 14.1487 564.674 13.269C564.674 12.4707 564.91 11.8028 565.383 11.2652C565.855 10.7276 566.49 10.3203 567.289 10.0434C568.103 9.75012 569.007 9.59536 570.001 9.57907V7.59972C568.877 7.55085 567.891 7.41237 567.044 7.1843C566.197 6.93994 565.521 6.56524 565.016 6.06023C564.511 5.55521 564.259 4.89543 564.259 4.08088C564.259 3.25004 564.527 2.53324 565.065 1.93048C565.603 1.31142 566.376 0.838982 567.386 0.513163C568.396 0.187345 569.569 0.0244349 570.905 0.0244349C572.518 0.0244349 573.984 0.244361 575.304 0.684216C576.623 1.12407 577.894 1.75942 579.116 2.59026L577.43 5.35157C576.615 4.68364 575.621 4.14604 574.448 3.73877C573.292 3.33149 572.151 3.11971 571.027 3.10342C570.099 3.10342 569.39 3.26633 568.901 3.59215C568.413 3.90168 568.168 4.30895 568.168 4.81397C568.168 5.17237 568.291 5.4819 568.535 5.74255C568.779 5.98691 569.121 6.1987 569.561 6.3779C570.017 6.54081 570.596 6.68743 571.296 6.81775L573.324 7.28205C575.051 7.64045 576.403 8.23506 577.381 9.0659C578.375 9.89674 578.871 11.0127 578.871 12.4137C578.871 13.3423 578.586 14.2138 578.016 15.0284C577.446 15.8266 576.623 16.4701 575.548 16.9589C574.473 17.4476 573.21 17.692 571.76 17.692ZM571.858 14.9795C572.51 14.9795 573.072 14.8655 573.544 14.6374C574.033 14.4093 574.4 14.1079 574.644 13.7333C574.905 13.3586 575.035 12.9431 575.035 12.487C575.035 11.982 574.896 11.5421 574.62 11.1674C574.359 10.7765 573.976 10.4751 573.471 10.2633C572.982 10.0352 572.42 9.92117 571.785 9.92117C571.182 9.92117 570.636 10.0271 570.148 10.2388C569.659 10.4506 569.276 10.752 568.999 11.143C568.722 11.5177 568.584 11.9575 568.584 12.4626C568.584 12.935 568.722 13.3667 568.999 13.7577C569.276 14.1324 569.659 14.4338 570.148 14.6618C570.653 14.8736 571.223 14.9795 571.858 14.9795Z" fill="#FFBA72"/>
<path d="M545.696 0.342108H559.16V3.42109H548.53L549.459 2.54138V8.18619L548.53 7.33092H558.403V10.2388H548.53L549.459 9.43245V15.2239L548.53 14.2953H559.453V17.3743H545.696V0.342108Z" fill="#FFBA72"/>
<path d="M530.087 0.342108H538.004C540.171 0.342108 541.792 0.724943 542.867 1.49062C543.942 2.24 544.48 3.37222 544.48 4.88728C544.48 5.81586 544.236 6.58968 543.747 7.20874C543.258 7.82779 542.598 8.30023 541.767 8.62605C540.937 8.95187 540 9.14736 538.957 9.21252V11.1674C539.707 11.2 540.35 11.3629 540.888 11.6562C541.442 11.9331 541.955 12.3893 542.427 13.0246L542.501 13.1223L545.628 17.3743H541.205L538.517 13.5378C538.452 13.44 538.387 13.3423 538.322 13.2445C537.85 12.5766 537.467 12.1042 537.173 11.8272C536.896 11.5503 536.587 11.3629 536.245 11.2652C535.903 11.1511 535.406 11.0941 534.754 11.0941H532.922L533.85 10.19V17.3743H530.087V0.342108ZM532.922 8.69936H537.32C538.069 8.69936 538.688 8.60161 539.177 8.40612C539.682 8.19434 540.057 7.88481 540.301 7.47754C540.562 7.07027 540.692 6.5571 540.692 5.93804C540.692 5.04204 540.415 4.37412 539.861 3.93426C539.308 3.4944 538.46 3.27448 537.32 3.27448H532.922L533.85 2.32146V9.57907L532.922 8.69936Z" fill="#FFBA72"/>
<path d="M525.241 0.342108H529.004V17.3743H525.241V0.342108Z" fill="#FFBA72"/>
<path d="M521.116 17.3743L519.283 12.7069L520.432 13.5133H511.366L512.515 12.7069L510.657 17.3743H506.65L513.907 0.342108H517.866L525.148 17.3743H521.116ZM514.909 3.17673C514.926 3.81207 514.918 4.4067 514.885 4.96059C514.852 5.49819 514.779 6.03579 514.665 6.57339C514.567 7.0947 514.429 7.6323 514.25 8.18619C514.038 8.78896 513.582 9.80714 512.881 11.2407L512.344 10.6787H519.43L518.893 11.2407C518.55 10.5402 518.233 9.82343 517.939 9.09034C517.516 8.06401 517.239 7.11099 517.109 6.23128C516.978 5.33528 516.929 4.31709 516.962 3.17673H514.909Z" fill="#FFBA72"/>
<path d="M494.62 0.342108H498.383V15.2239L497.454 14.2953H507.547V17.3743H494.62V0.342108Z" fill="#FFBA72"/>
<path d="M487.584 17.7164C485.906 17.7164 484.399 17.3498 483.063 16.6167C481.743 15.8674 480.709 14.8247 479.959 13.4889C479.21 12.1367 478.835 10.5891 478.835 8.84598C478.835 7.10285 479.21 5.56335 479.959 4.22749C480.725 2.89164 481.784 1.85717 483.136 1.12407C484.505 0.374691 486.052 0 487.779 0C489.131 0 490.329 0.219926 491.371 0.659781C492.414 1.09964 493.375 1.72684 494.255 2.54138L492.349 5.05833C491.746 4.47186 491.094 4.02386 490.394 3.71433C489.693 3.38851 488.903 3.2256 488.023 3.2256C486.981 3.2256 486.044 3.46997 485.213 3.9587C484.399 4.43113 483.763 5.09906 483.307 5.96248C482.851 6.8259 482.623 7.8115 482.623 8.91929C482.623 10.0271 482.851 10.9964 483.307 11.8272C483.78 12.6581 484.423 13.3015 485.238 13.7577C486.069 14.1975 487.005 14.4175 488.048 14.4175C488.944 14.4175 489.742 14.2383 490.443 13.8799C491.159 13.5215 491.819 13.0165 492.422 12.3648L494.377 14.9551C493.465 15.8511 492.471 16.5353 491.396 17.0077C490.337 17.4802 489.066 17.7164 487.584 17.7164Z" fill="#FFBA72"/>
<path d="M457.862 17.692C456.445 17.692 455.198 17.5128 454.123 17.1544C453.064 16.796 452.242 16.2828 451.655 15.6149C451.069 14.9306 450.775 14.1487 450.775 13.269C450.775 12.4707 451.012 11.8028 451.484 11.2652C451.957 10.7276 452.592 10.3203 453.39 10.0434C454.205 9.75012 455.109 9.59536 456.103 9.57907V7.59972C454.979 7.55085 453.993 7.41237 453.146 7.1843C452.299 6.93994 451.623 6.56524 451.118 6.06023C450.613 5.55521 450.36 4.89543 450.36 4.08088C450.36 3.25004 450.629 2.53324 451.166 1.93048C451.704 1.31142 452.478 0.838982 453.488 0.513163C454.498 0.187345 455.671 0.0244349 457.007 0.0244349C458.62 0.0244349 460.086 0.244361 461.405 0.684216C462.725 1.12407 463.996 1.75942 465.217 2.59026L463.531 5.35157C462.717 4.68364 461.723 4.14604 460.55 3.73877C459.393 3.33149 458.253 3.11971 457.129 3.10342C456.2 3.10342 455.492 3.26633 455.003 3.59215C454.514 3.90168 454.27 4.30895 454.27 4.81397C454.27 5.17237 454.392 5.4819 454.636 5.74255C454.881 5.98691 455.223 6.1987 455.663 6.3779C456.119 6.54081 456.697 6.68743 457.398 6.81775L459.426 7.28205C461.153 7.64045 462.505 8.23506 463.482 9.0659C464.476 9.89674 464.973 11.0127 464.973 12.4137C464.973 13.3423 464.688 14.2138 464.118 15.0284C463.548 15.8266 462.725 16.4701 461.65 16.9589C460.574 17.4476 459.312 17.692 457.862 17.692ZM457.96 14.9795C458.611 14.9795 459.173 14.8655 459.646 14.6374C460.135 14.4093 460.501 14.1079 460.746 13.7333C461.006 13.3586 461.137 12.9431 461.137 12.487C461.137 11.982 460.998 11.5421 460.721 11.1674C460.46 10.7765 460.078 10.4751 459.573 10.2633C459.084 10.0352 458.522 9.92117 457.886 9.92117C457.284 9.92117 456.738 10.0271 456.249 10.2388C455.761 10.4506 455.378 10.752 455.101 11.143C454.824 11.5177 454.685 11.9575 454.685 12.4626C454.685 12.935 454.824 13.3667 455.101 13.7577C455.378 14.1324 455.761 14.4338 456.249 14.6618C456.754 14.8736 457.324 14.9795 457.96 14.9795Z" fill="#FFBA72"/>
<path d="M441.569 17.6919C439.858 17.6919 438.327 17.3173 436.975 16.5679C435.623 15.8022 434.564 14.7514 433.798 13.4156C433.032 12.0634 432.65 10.5484 432.65 8.8704C432.65 7.19244 433.032 5.68553 433.798 4.34967C434.564 3.01382 435.623 1.9712 436.975 1.22181C438.327 0.45614 439.858 0.0733046 441.569 0.0733046C443.263 0.0733046 444.786 0.45614 446.138 1.22181C447.507 1.9712 448.574 3.01382 449.34 4.34967C450.105 5.68553 450.488 7.19244 450.488 8.8704C450.488 10.5484 450.105 12.0634 449.34 13.4156C448.574 14.7514 447.507 15.8022 446.138 16.5679C444.786 17.3173 443.263 17.6919 441.569 17.6919ZM441.569 14.5885C442.595 14.5885 443.491 14.3442 444.257 13.8554C445.023 13.3667 445.609 12.6906 446.016 11.8272C446.424 10.9638 446.627 9.97819 446.627 8.8704C446.627 7.76262 446.424 6.77702 446.016 5.9136C445.609 5.05018 445.023 4.37411 444.257 3.88538C443.491 3.39665 442.595 3.15229 441.569 3.15229C440.543 3.15229 439.647 3.39665 438.881 3.88538C438.115 4.37411 437.521 5.05018 437.097 5.9136C436.69 6.77702 436.486 7.76262 436.486 8.8704C436.486 9.97819 436.69 10.9638 437.097 11.8272C437.521 12.6906 438.115 13.3667 438.881 13.8554C439.647 14.3442 440.543 14.5885 441.569 14.5885Z" fill="#FFBA72"/>
<path d="M424.294 2.49251L425.149 3.42109H418.649V0.342108H433.727V3.42109H427.226L428.082 2.49251V17.3743H424.294V2.49251Z" fill="#FFBA72"/>
<path d="M412.134 17.692C410.716 17.692 409.47 17.5128 408.395 17.1544C407.336 16.796 406.513 16.2828 405.927 15.6149C405.34 14.9306 405.047 14.1487 405.047 13.269C405.047 12.4707 405.283 11.8028 405.756 11.2652C406.228 10.7276 406.863 10.3203 407.662 10.0434C408.476 9.75012 409.38 9.59536 410.374 9.57907V7.59972C409.25 7.55085 408.264 7.41237 407.417 7.1843C406.57 6.93994 405.894 6.56524 405.389 6.06023C404.884 5.55521 404.632 4.89543 404.632 4.08088C404.632 3.25004 404.9 2.53324 405.438 1.93048C405.976 1.31142 406.749 0.838982 407.759 0.513163C408.769 0.187345 409.942 0.0244349 411.278 0.0244349C412.891 0.0244349 414.357 0.244361 415.677 0.684216C416.996 1.12407 418.267 1.75942 419.489 2.59026L417.803 5.35157C416.988 4.68364 415.994 4.14604 414.822 3.73877C413.665 3.33149 412.524 3.11971 411.4 3.10342C410.472 3.10342 409.763 3.26633 409.274 3.59215C408.786 3.90168 408.541 4.30895 408.541 4.81397C408.541 5.17237 408.664 5.4819 408.908 5.74255C409.152 5.98691 409.494 6.1987 409.934 6.3779C410.39 6.54081 410.969 6.68743 411.669 6.81775L413.697 7.28205C415.424 7.64045 416.776 8.23506 417.754 9.0659C418.748 9.89674 419.245 11.0127 419.245 12.4137C419.245 13.3423 418.959 14.2138 418.389 15.0284C417.819 15.8266 416.996 16.4701 415.921 16.9589C414.846 17.4476 413.583 17.692 412.134 17.692ZM412.231 14.9795C412.883 14.9795 413.445 14.8655 413.917 14.6374C414.406 14.4093 414.773 14.1079 415.017 13.7333C415.278 13.3586 415.408 12.9431 415.408 12.487C415.408 11.982 415.27 11.5421 414.993 11.1674C414.732 10.7765 414.349 10.4751 413.844 10.2633C413.355 10.0352 412.793 9.92117 412.158 9.92117C411.555 9.92117 411.009 10.0271 410.521 10.2388C410.032 10.4506 409.649 10.752 409.372 11.143C409.095 11.5177 408.957 11.9575 408.957 12.4626C408.957 12.935 409.095 13.3667 409.372 13.7577C409.649 14.1324 410.032 14.4338 410.521 14.6618C411.026 14.8736 411.596 14.9795 412.231 14.9795Z" fill="#FFBA72"/>
<path d="M402.208 17.3743L400.376 12.7069L401.524 13.5133H392.458L393.607 12.7069L391.75 17.3743H387.742L395 0.342108H398.958L406.24 17.3743H402.208ZM396.001 3.17673C396.018 3.81207 396.01 4.4067 395.977 4.96059C395.944 5.49819 395.871 6.03579 395.757 6.57339C395.659 7.0947 395.521 7.6323 395.342 8.18619C395.13 8.78896 394.674 9.80714 393.973 11.2407L393.436 10.6787H400.522L399.985 11.2407C399.643 10.5402 399.325 9.82343 399.032 9.09034C398.608 8.06401 398.331 7.11099 398.201 6.23128C398.07 5.33528 398.022 4.31709 398.054 3.17673H396.001Z" fill="#FFBA72"/>
<path d="M374.017 0.342108H382.496C383.734 0.342108 384.777 0.472438 385.624 0.733092C386.488 0.977457 387.147 1.39287 387.604 1.97935C388.076 2.54953 388.312 3.28262 388.312 4.17862C388.312 4.92801 388.149 5.55521 387.824 6.06023C387.498 6.54895 387.025 6.9155 386.406 7.15987C385.803 7.40423 385.07 7.55085 384.207 7.59972V9.57907C385.201 9.59536 386.04 9.72569 386.724 9.97005C387.424 10.2144 387.962 10.5891 388.337 11.0941C388.711 11.5991 388.899 12.2589 388.899 13.0735C388.899 14.0183 388.638 14.8085 388.117 15.4438C387.612 16.0792 386.903 16.5597 385.991 16.8855C385.078 17.2114 384.02 17.3743 382.814 17.3743H374.017V0.342108ZM382.105 14.4419C382.724 14.4419 383.254 14.3686 383.694 14.222C384.15 14.0591 384.492 13.8147 384.72 13.4889C384.964 13.1631 385.087 12.7477 385.087 12.2426C385.087 11.7702 384.964 11.3792 384.72 11.0697C384.492 10.7602 384.158 10.5321 383.718 10.3855C383.278 10.2388 382.741 10.1655 382.105 10.1655H377.805V14.4419H382.105ZM381.543 7.37979C382.537 7.37979 383.278 7.21688 383.767 6.89106C384.272 6.54895 384.525 6.01135 384.525 5.27826C384.525 4.57775 384.272 4.07273 383.767 3.7632C383.278 3.43738 382.537 3.27448 381.543 3.27448H377.805V7.37979H381.543Z" fill="#FFBA72"/>
<path d="M364.659 0.342108H368.422V17.3743H364.659V0.342108Z" fill="#FFBA72"/>
<path d="M351.652 0.342108H355.415V15.2239L354.486 14.2953H364.578V17.3743H351.652V0.342108Z" fill="#FFBA72"/>
<path d="M338.644 0.342108H342.407V15.2239L341.479 14.2953H351.571V17.3743H338.644V0.342108Z" fill="#FFBA72"/>
<path d="M334.519 17.3743L332.687 12.7069L333.835 13.5133H324.769L325.918 12.7069L324.061 17.3743H320.053L327.311 0.342108H331.269L338.552 17.3743H334.519ZM328.313 3.17673C328.329 3.81207 328.321 4.4067 328.288 4.96059C328.256 5.49819 328.182 6.03579 328.068 6.57339C327.971 7.0947 327.832 7.6323 327.653 8.18619C327.441 8.78896 326.985 9.80714 326.284 11.2407L325.747 10.6787H332.833L332.296 11.2407C331.954 10.5402 331.636 9.82343 331.343 9.09034C330.919 8.06401 330.642 7.11099 330.512 6.23128C330.382 5.33528 330.333 4.31709 330.365 3.17673H328.313Z" fill="#FFBA72"/>
<path d="M306.64 0.342108H310.574C310.884 1.15665 311.177 1.92233 311.454 2.63913C312.236 4.90357 312.814 6.63041 313.189 7.81965C313.564 8.99259 313.824 10.0434 313.971 10.9719C314.117 11.9005 314.191 13.0327 314.191 14.3686H316.219C316.219 13.0653 316.292 11.9575 316.439 11.0453C316.585 10.1167 316.838 9.08219 317.196 7.94183C317.571 6.78517 318.117 5.1235 318.834 2.9568C319.176 2.09338 319.518 1.22182 319.86 0.342108H323.794L317.441 17.3743H312.993L306.64 0.342108Z" fill="#FFBA72"/>
<path d="M306.333 17.3743L304.5 12.7069L305.648 13.5133H296.583L297.731 12.7069L295.874 17.3743H291.866L299.124 0.342108H303.083L310.365 17.3743H306.333ZM300.126 3.17673C300.142 3.81207 300.134 4.4067 300.101 4.96059C300.069 5.49819 299.996 6.03579 299.881 6.57339C299.784 7.0947 299.645 7.6323 299.466 8.18619C299.254 8.78896 298.798 9.80714 298.098 11.2407L297.56 10.6787H304.647L304.109 11.2407C303.767 10.5402 303.449 9.82343 303.156 9.09034C302.732 8.06401 302.455 7.11099 302.325 6.23128C302.195 5.33528 302.146 4.31709 302.179 3.17673H300.126Z" fill="#FFBA72"/>
<path d="M286.38 17.7164C284.702 17.7164 283.195 17.3498 281.86 16.6167C280.54 15.8674 279.506 14.8247 278.756 13.4889C278.007 12.1367 277.632 10.5891 277.632 8.84598C277.632 7.10285 278.007 5.56335 278.756 4.22749C279.522 2.89164 280.581 1.85717 281.933 1.12407C283.301 0.374691 284.849 0 286.576 0C287.928 0 289.125 0.219926 290.168 0.659781C291.211 1.09964 292.172 1.72684 293.052 2.54138L291.145 5.05833C290.543 4.47186 289.891 4.02386 289.191 3.71433C288.49 3.38851 287.7 3.2256 286.82 3.2256C285.778 3.2256 284.841 3.46997 284.01 3.9587C283.196 4.43113 282.56 5.09906 282.104 5.96248C281.648 6.8259 281.42 7.8115 281.42 8.91929C281.42 10.0271 281.648 10.9964 282.104 11.8272C282.576 12.6581 283.22 13.3015 284.034 13.7577C284.865 14.1975 285.802 14.4175 286.845 14.4175C287.741 14.4175 288.539 14.2383 289.239 13.8799C289.956 13.5215 290.616 13.0165 291.219 12.3648L293.174 14.9551C292.261 15.8511 291.268 16.5353 290.192 17.0077C289.134 17.4802 287.863 17.7164 286.38 17.7164Z" fill="#FFBA72"/>
<path d="M259.143 0.342108H272.607V3.42109H261.977L262.906 2.54138V8.18619L261.977 7.33092H271.85V10.2388H261.977L262.906 9.43245V15.2239L261.977 14.2953H272.9V17.3743H259.143V0.342108Z" fill="#FFBA72"/>
<path d="M246.135 0.342108H249.898V15.2239L248.97 14.2953H259.062V17.3743H246.135V0.342108Z" fill="#FFBA72"/>
<path d="M233.127 0.342108H236.891V15.2239L235.962 14.2953H246.054V17.3743H233.127V0.342108Z" fill="#FFBA72"/>
<path d="M218.807 0.342108H232.272V3.42109H221.642L222.57 2.54138V8.18619L221.642 7.33092H231.514V10.2388H221.642L222.57 9.43245V15.2239L221.642 14.2953H232.565V17.3743H218.807V0.342108Z" fill="#FFBA72"/>
<path d="M203.365 0.342108H211.844C213.083 0.342108 214.125 0.472438 214.972 0.733092C215.836 0.977457 216.495 1.39287 216.952 1.97935C217.424 2.54953 217.66 3.28262 217.66 4.17862C217.66 4.92801 217.497 5.55521 217.172 6.06023C216.846 6.54895 216.373 6.9155 215.754 7.15987C215.151 7.40423 214.418 7.55085 213.555 7.59972V9.57907C214.549 9.59536 215.388 9.72569 216.072 9.97005C216.772 10.2144 217.31 10.5891 217.685 11.0941C218.059 11.5991 218.247 12.2589 218.247 13.0735C218.247 14.0183 217.986 14.8085 217.465 15.4438C216.96 16.0792 216.251 16.5597 215.339 16.8855C214.427 17.2114 213.368 17.3743 212.162 17.3743H203.365V0.342108ZM211.453 14.4419C212.072 14.4419 212.602 14.3686 213.042 14.222C213.498 14.0591 213.84 13.8147 214.068 13.4889C214.312 13.1631 214.435 12.7477 214.435 12.2426C214.435 11.7702 214.312 11.3792 214.068 11.0697C213.84 10.7602 213.506 10.5321 213.066 10.3855C212.626 10.2388 212.089 10.1655 211.453 10.1655H207.153V14.4419H211.453ZM210.891 7.37979C211.885 7.37979 212.626 7.21688 213.115 6.89106C213.62 6.54895 213.873 6.01135 213.873 5.27826C213.873 4.57775 213.62 4.07273 213.115 3.7632C212.626 3.43738 211.885 3.27448 210.891 3.27448H207.153V7.37979H210.891Z" fill="#FFBA72"/>
<path d="M198.543 0.342108H202.306V17.3743H198.543V0.342108Z" fill="#FFBA72"/>
<path d="M191.507 17.7164C189.829 17.7164 188.322 17.3498 186.986 16.6167C185.667 15.8674 184.632 14.8247 183.883 13.4889C183.133 12.1367 182.759 10.5891 182.759 8.84598C182.759 7.10285 183.133 5.56335 183.883 4.22749C184.649 2.89164 185.707 1.85717 187.06 1.12407C188.428 0.374691 189.976 0 191.703 0C193.055 0 194.252 0.219926 195.295 0.659781C196.337 1.09964 197.298 1.72684 198.178 2.54138L196.272 5.05833C195.669 4.47186 195.018 4.02386 194.317 3.71433C193.617 3.38851 192.827 3.2256 191.947 3.2256C190.904 3.2256 189.968 3.46997 189.137 3.9587C188.322 4.43113 187.687 5.09906 187.231 5.96248C186.775 6.8259 186.546 7.8115 186.546 8.91929C186.546 10.0271 186.775 10.9964 187.231 11.8272C187.703 12.6581 188.347 13.3015 189.161 13.7577C189.992 14.1975 190.929 14.4175 191.971 14.4175C192.867 14.4175 193.666 14.2383 194.366 13.8799C195.083 13.5215 195.743 13.0165 196.345 12.3648L198.3 14.9551C197.388 15.8511 196.394 16.5353 195.319 17.0077C194.26 17.4802 192.989 17.7164 191.507 17.7164Z" fill="#FFBA72"/>
</svg>
