<svg width="641" height="18" viewBox="0 0 641 18" fill="none" xmlns="http://www.w3.org/2000/svg">
<path d="M185.977 17.692C184.267 17.692 182.735 17.3173 181.383 16.5679C180.031 15.8022 178.972 14.7514 178.206 13.4156C177.441 12.0634 177.058 10.5484 177.058 8.87041C177.058 7.19245 177.441 5.68554 178.206 4.34968C178.972 3.01382 180.031 1.9712 181.383 1.22182C182.735 0.456147 184.267 0.0733097 185.977 0.0733097C187.671 0.0733097 189.195 0.456147 190.547 1.22182C191.915 1.9712 192.982 3.01382 193.748 4.34968C194.514 5.68554 194.897 7.19245 194.897 8.87041C194.897 10.5484 194.514 12.0634 193.748 13.4156C192.982 14.7514 191.915 15.8022 190.547 16.5679C189.195 17.3173 187.671 17.692 185.977 17.692ZM185.977 14.5885C187.004 14.5885 187.9 14.3442 188.665 13.8554C189.431 13.3667 190.017 12.6906 190.425 11.8272C190.832 10.9638 191.036 9.9782 191.036 8.87041C191.036 7.76263 190.832 6.77703 190.425 5.91361C190.017 5.05019 189.431 4.37412 188.665 3.88539C187.9 3.39666 187.004 3.1523 185.977 3.1523C184.951 3.1523 184.055 3.39666 183.289 3.88539C182.524 4.37412 181.929 5.05019 181.505 5.91361C181.098 6.77703 180.894 7.76263 180.894 8.87041C180.894 9.9782 181.098 10.9638 181.505 11.8272C181.929 12.6906 182.524 13.3667 183.289 13.8554C184.055 14.3442 184.951 14.5885 185.977 14.5885Z" fill="#FFBA72"/>
<path d="M162.603 0.342108H170.521C172.687 0.342108 174.308 0.724945 175.383 1.49062C176.459 2.24 176.996 3.37222 176.996 4.88728C176.996 5.81586 176.752 6.58968 176.263 7.20874C175.774 7.82779 175.115 8.30023 174.284 8.62605C173.453 8.95187 172.516 9.14736 171.474 9.21252V11.1674C172.223 11.2 172.867 11.3629 173.404 11.6562C173.958 11.9331 174.471 12.3893 174.944 13.0246L175.017 13.1223L178.145 17.3743H173.722L171.034 13.5378C170.969 13.44 170.903 13.3423 170.838 13.2445C170.366 12.5766 169.983 12.1042 169.69 11.8272C169.413 11.5503 169.103 11.3629 168.761 11.2652C168.419 11.1511 167.922 11.0941 167.271 11.0941H165.438L166.366 10.19V17.3743H162.603V0.342108ZM165.438 8.69936H169.836C170.586 8.69936 171.205 8.60161 171.694 8.40612C172.199 8.19434 172.573 7.88481 172.818 7.47754C173.078 7.07026 173.209 6.5571 173.209 5.93804C173.209 5.04204 172.932 4.37411 172.378 3.93426C171.824 3.4944 170.977 3.27448 169.836 3.27448H165.438L166.366 2.32146V9.57907L165.438 8.69936Z" fill="#FFBA72"/>
<path d="M148.283 0.342108H161.748V3.42109H151.118L152.046 2.54138V8.18619L151.118 7.33092H160.99V10.2388H151.118L152.046 9.43245V15.2239L151.118 14.2953H162.041V17.3743H148.283V0.342108Z" fill="#FFBA72"/>
<path d="M135.276 0.342108H139.039V15.2239L138.11 14.2953H148.202V17.3743H135.276V0.342108Z" fill="#FFBA72"/>
<path d="M122.268 0.342108H126.031V15.2239L125.103 14.2953H135.195V17.3743H122.268V0.342108Z" fill="#FFBA72"/>
<path d="M118.143 17.3743L116.311 12.7069L117.459 13.5133H108.393L109.542 12.7069L107.685 17.3743H103.677L110.935 0.342108H114.893L122.175 17.3743H118.143ZM111.937 3.17673C111.953 3.81208 111.945 4.4067 111.912 4.96059C111.88 5.49819 111.806 6.03579 111.692 6.57339C111.595 7.0947 111.456 7.6323 111.277 8.18619C111.065 8.78896 110.609 9.80714 109.908 11.2407L109.371 10.6787H116.457L115.92 11.2407C115.578 10.5402 115.26 9.82343 114.967 9.09034C114.543 8.06401 114.266 7.11099 114.136 6.23128C114.006 5.33528 113.957 4.3171 113.989 3.17673H111.937Z" fill="#FFBA72"/>
<path d="M89.9521 0.342108H98.4315C99.6696 0.342108 100.712 0.472435 101.559 0.73309C102.423 0.977455 103.083 1.39287 103.539 1.97935C104.011 2.54953 104.247 3.28262 104.247 4.17862C104.247 4.92801 104.084 5.55521 103.759 6.06023C103.433 6.54895 102.96 6.9155 102.341 7.15986C101.739 7.40423 101.005 7.55085 100.142 7.59972V9.57907C101.136 9.59536 101.975 9.72569 102.659 9.97005C103.36 10.2144 103.897 10.5891 104.272 11.0941C104.647 11.5991 104.834 12.2589 104.834 13.0735C104.834 14.0183 104.573 14.8085 104.052 15.4438C103.547 16.0791 102.838 16.5597 101.926 16.8856C101.014 17.2114 99.9547 17.3743 98.7492 17.3743H89.9521V0.342108ZM98.0406 14.4419C98.6596 14.4419 99.1891 14.3686 99.6289 14.222C100.085 14.0591 100.427 13.8147 100.655 13.4889C100.9 13.1631 101.022 12.7477 101.022 12.2426C101.022 11.7702 100.9 11.3792 100.655 11.0697C100.427 10.7602 100.093 10.5321 99.6534 10.3855C99.2135 10.2389 98.6759 10.1655 98.0406 10.1655H93.7397V14.4419H98.0406ZM97.4785 7.37979C98.4723 7.37979 99.2135 7.21688 99.7022 6.89106C100.207 6.54895 100.46 6.01135 100.46 5.27826C100.46 4.57775 100.207 4.07273 99.7022 3.7632C99.2135 3.43739 98.4723 3.27448 97.4785 3.27448H93.7397V7.37979H97.4785Z" fill="#FFBA72"/>
<path d="M85.8521 17.3743L84.0194 12.7069L85.1679 13.5133H76.102L77.2505 12.7069L75.3933 17.3743H71.3858L78.6434 0.342108H82.6021L89.8841 17.3743H85.8521ZM79.6453 3.17673C79.6616 3.81208 79.6534 4.4067 79.6208 4.96059C79.5883 5.49819 79.515 6.03579 79.4009 6.57339C79.3032 7.0947 79.1647 7.6323 78.9855 8.18619C78.7737 8.78896 78.3176 9.80714 77.6171 11.2407L77.0795 10.6787H84.166L83.6284 11.2407C83.2863 10.5402 82.9686 9.82343 82.6754 9.09034C82.2518 8.06401 81.9749 7.11099 81.8446 6.23128C81.7142 5.33528 81.6654 4.3171 81.6979 3.17673H79.6453Z" fill="#FFBA72"/>
<path d="M65.8998 17.7164C64.2218 17.7164 62.7149 17.3498 61.3791 16.6168C60.0595 15.8674 59.025 14.8247 58.2757 13.4889C57.5263 12.1367 57.1516 10.5891 57.1516 8.84598C57.1516 7.10285 57.5263 5.56335 58.2757 4.2275C59.0413 2.89164 60.1002 1.85717 61.4524 1.12407C62.8208 0.374691 64.3685 0 66.0953 0C67.4475 0 68.6448 0.219928 69.6875 0.659783C70.7301 1.09964 71.6912 1.72684 72.571 2.54138L70.6649 5.05834C70.0621 4.47186 69.4105 4.02386 68.71 3.71433C68.0095 3.38851 67.2194 3.2256 66.3397 3.2256C65.297 3.2256 64.3603 3.46997 63.5295 3.9587C62.7149 4.43113 62.0796 5.09906 61.6234 5.96248C61.1673 6.8259 60.9392 7.8115 60.9392 8.91929C60.9392 10.0271 61.1673 10.9964 61.6234 11.8272C62.0959 12.6581 62.7394 13.3015 63.5539 13.7577C64.3848 14.1975 65.3215 14.4175 66.3641 14.4175C67.2601 14.4175 68.0584 14.2383 68.7589 13.8799C69.4757 13.5215 70.1355 13.0165 70.7382 12.3648L72.6931 14.9551C71.7808 15.8511 70.7871 16.5353 69.7119 17.0077C68.653 17.4802 67.3823 17.7164 65.8998 17.7164Z" fill="#FFBA72"/>
<path d="M48.8577 17.3743L47.025 12.7069L48.1735 13.5133H39.1076L40.2561 12.7069L38.3989 17.3743H34.3914L41.649 0.342108H45.6077L52.8897 17.3743H48.8577ZM42.6509 3.17673C42.6672 3.81208 42.659 4.4067 42.6264 4.96059C42.5939 5.49819 42.5205 6.03579 42.4065 6.57339C42.3088 7.0947 42.1703 7.6323 41.9911 8.18619C41.7793 8.78896 41.3232 9.80714 40.6227 11.2407L40.0851 10.6787H47.1716L46.634 11.2407C46.2919 10.5402 45.9742 9.82343 45.681 9.09034C45.2574 8.06401 44.9805 7.11099 44.8501 6.23128C44.7198 5.33528 44.6709 4.3171 44.7035 3.17673H42.6509Z" fill="#FFBA72"/>
<path d="M18.5908 0.342108H21.9874L31.542 12.1205L33.3259 10.8986C32.7231 10.2307 32.2263 9.61979 31.8353 9.0659C31.4443 8.51201 31.1266 7.91739 30.8823 7.28205C30.6379 6.63041 30.5157 5.95433 30.5157 5.25382V0.342108H34.3034V17.3743H31.1755L21.5231 5.52263L19.6904 6.72001C20.3746 7.37165 20.9122 8.01514 21.3032 8.65048C22.0037 9.77456 22.354 11.0045 22.354 12.3404V17.3743H18.5908V0.342108Z" fill="#FFBA72"/>
<path d="M14.4664 17.3743L12.6336 12.7069L13.7821 13.5133H4.71622L5.86474 12.7069L4.00757 17.3743H0L7.25761 0.342108H11.2163L18.4984 17.3743H14.4664ZM8.2595 3.17673C8.27579 3.81208 8.26765 4.4067 8.23507 4.96059C8.20249 5.49819 8.12917 6.03579 8.01514 6.57339C7.91739 7.0947 7.77892 7.6323 7.59972 8.18619C7.38794 8.78896 6.93179 9.80714 6.23128 11.2407L5.69368 10.6787H12.7802L12.2426 11.2407C11.9005 10.5402 11.5829 9.82343 11.2896 9.09034C10.8661 8.06401 10.5891 7.11099 10.4588 6.23128C10.3285 5.33528 10.2796 4.3171 10.3122 3.17673H8.2595Z" fill="#FFBA72"/>
<path d="M406.57 17.6919C405.153 17.6919 403.907 17.5127 402.831 17.1543C401.772 16.7959 400.95 16.2828 400.363 15.6148C399.777 14.9306 399.484 14.1487 399.484 13.2689C399.484 12.4707 399.72 11.8028 400.192 11.2652C400.665 10.7276 401.3 10.3203 402.098 10.0433C402.913 9.7501 403.817 9.59534 404.811 9.57905V7.5997C403.687 7.55083 402.701 7.41235 401.854 7.18428C401.007 6.93992 400.331 6.56522 399.826 6.0602C399.321 5.55519 399.068 4.8954 399.068 4.08086C399.068 3.25002 399.337 2.53322 399.875 1.93045C400.412 1.3114 401.186 0.838961 402.196 0.513142C403.206 0.187323 404.379 0.0244141 405.715 0.0244141C407.328 0.0244141 408.794 0.244342 410.113 0.684197C411.433 1.12405 412.704 1.7594 413.926 2.59024L412.239 5.35155C411.425 4.68362 410.431 4.14602 409.258 3.73875C408.101 3.33147 406.961 3.11969 405.837 3.1034C404.908 3.1034 404.2 3.26631 403.711 3.59213C403.222 3.90166 402.978 4.30893 402.978 4.81395C402.978 5.17235 403.1 5.48188 403.345 5.74253C403.589 5.9869 403.931 6.19868 404.371 6.37788C404.827 6.54079 405.405 6.68741 406.106 6.81773L408.134 7.28202C409.861 7.64042 411.213 8.23504 412.191 9.06588C413.184 9.89672 413.681 11.0126 413.681 12.4137C413.681 13.3423 413.396 14.2138 412.826 15.0284C412.256 15.8266 411.433 16.4701 410.358 16.9588C409.283 17.4476 408.02 17.6919 406.57 17.6919ZM406.668 14.9795C407.319 14.9795 407.882 14.8655 408.354 14.6374C408.843 14.4093 409.209 14.1079 409.454 13.7332C409.714 13.3585 409.845 12.9431 409.845 12.487C409.845 11.982 409.706 11.5421 409.429 11.1674C409.169 10.7764 408.786 10.475 408.281 10.2633C407.792 10.0352 407.23 9.92116 406.595 9.92116C405.992 9.92116 405.446 10.027 404.957 10.2388C404.469 10.4506 404.086 10.752 403.809 11.143C403.532 11.5177 403.393 11.9575 403.393 12.4625C403.393 12.935 403.532 13.3667 403.809 13.7577C404.086 14.1324 404.469 14.4337 404.957 14.6618C405.462 14.8736 406.033 14.9795 406.668 14.9795Z" fill="#FFBA72"/>
<path d="M385.542 0.342088H399.007V3.42107H388.377L389.306 2.54136V8.18617L388.377 7.3309H398.249V10.2388H388.377L389.306 9.43243V15.2239L388.377 14.2953H399.3V17.3743H385.542V0.342088Z" fill="#FFBA72"/>
<path d="M372.105 0.342088H385.228V3.42107H374.94L375.868 2.54136V8.18617L374.94 7.35533H384.348V10.4343H374.94L375.868 9.43243V17.3743H372.105V0.342088Z" fill="#FFBA72"/>
<path d="M359.098 0.342088H362.861V15.2239L361.932 14.2953H372.024V17.3743H359.098V0.342088Z" fill="#FFBA72"/>
<path d="M349.488 17.6919C347.778 17.6919 346.246 17.3172 344.894 16.5679C343.542 15.8022 342.483 14.7514 341.717 13.4156C340.952 12.0634 340.569 10.5484 340.569 8.87039C340.569 7.19243 340.952 5.68551 341.717 4.34966C342.483 3.0138 343.542 1.97118 344.894 1.2218C346.246 0.456126 347.778 0.0732891 349.488 0.0732891C351.182 0.0732891 352.706 0.456126 354.058 1.2218C355.426 1.97118 356.493 3.0138 357.259 4.34966C358.025 5.68551 358.408 7.19243 358.408 8.87039C358.408 10.5484 358.025 12.0634 357.259 13.4156C356.493 14.7514 355.426 15.8022 354.058 16.5679C352.706 17.3172 351.182 17.6919 349.488 17.6919ZM349.488 14.5885C350.515 14.5885 351.411 14.3441 352.176 13.8554C352.942 13.3667 353.528 12.6906 353.936 11.8272C354.343 10.9638 354.547 9.97818 354.547 8.87039C354.547 7.76261 354.343 6.77701 353.936 5.91359C353.528 5.05017 352.942 4.37409 352.176 3.88537C351.411 3.39664 350.515 3.15228 349.488 3.15228C348.462 3.15228 347.566 3.39664 346.8 3.88537C346.035 4.37409 345.44 5.05017 345.016 5.91359C344.609 6.77701 344.405 7.76261 344.405 8.87039C344.405 9.97818 344.609 10.9638 345.016 11.8272C345.44 12.6906 346.035 13.3667 346.8 13.8554C347.566 14.3441 348.462 14.5885 349.488 14.5885Z" fill="#FFBA72"/>
<path d="M326.114 0.342088H334.032C336.198 0.342088 337.819 0.724924 338.894 1.4906C339.97 2.23998 340.507 3.3722 340.507 4.88726C340.507 5.81584 340.263 6.58966 339.774 7.20872C339.285 7.82777 338.626 8.30021 337.795 8.62603C336.964 8.95185 336.027 9.14734 334.985 9.2125V11.1674C335.734 11.2 336.378 11.3629 336.915 11.6561C337.469 11.9331 337.982 12.3892 338.455 13.0246L338.528 13.1223L341.656 17.3743H337.233L334.545 13.5377C334.48 13.44 334.414 13.3423 334.349 13.2445C333.877 12.5766 333.494 12.1041 333.201 11.8272C332.924 11.5502 332.614 11.3629 332.272 11.2652C331.93 11.1511 331.433 11.0941 330.782 11.0941H328.949L329.877 10.19V17.3743H326.114V0.342088ZM328.949 8.69934H333.347C334.097 8.69934 334.716 8.60159 335.205 8.4061C335.71 8.19432 336.084 7.88479 336.329 7.47752C336.589 7.07024 336.72 6.55708 336.72 5.93802C336.72 5.04202 336.443 4.37409 335.889 3.93424C335.335 3.49438 334.488 3.27446 333.347 3.27446H328.949L329.877 2.32144V9.57905L328.949 8.69934Z" fill="#FFBA72"/>
<path d="M311.298 10.9475L304.92 0.342088H309.075C309.905 1.69423 310.533 2.84275 310.956 3.78762C311.396 4.7162 311.697 5.6122 311.86 6.47562C312.04 7.32275 312.129 8.3165 312.129 9.45686H314.28C314.28 8.3165 314.361 7.31461 314.524 6.45119C314.703 5.58777 315.005 4.69177 315.428 3.76318C315.852 2.8346 316.479 1.69423 317.31 0.342088H321.488L315.086 10.9475V17.3743H311.298V10.9475Z" fill="#FFBA72"/>
<path d="M291.578 0.342088H298.053C299.976 0.342088 301.646 0.716779 303.063 1.46616C304.48 2.19925 305.564 3.20929 306.313 4.49628C307.062 5.78326 307.437 7.2413 307.437 8.87039C307.437 10.4343 307.062 11.8679 306.313 13.1712C305.564 14.4582 304.48 15.4845 303.063 16.2502C301.646 16.9996 299.976 17.3743 298.053 17.3743H291.578V0.342088ZM294.412 14.2953H297.809C298.998 14.2953 300.025 14.0672 300.888 13.6111C301.768 13.1549 302.436 12.5196 302.892 11.705C303.364 10.8742 303.601 9.9293 303.601 8.87039C303.601 7.81148 303.364 6.87475 302.892 6.0602C302.436 5.22937 301.768 4.58588 300.888 4.12973C300.025 3.65729 298.998 3.42107 297.809 3.42107H294.412L295.341 2.51693V15.2239L294.412 14.2953Z" fill="#FFBA72"/>
<path d="M274.8 0.342088H278.196L287.751 12.1204L289.535 10.8986C288.932 10.2307 288.435 9.61977 288.044 9.06588C287.653 8.51199 287.336 7.91737 287.091 7.28202C286.847 6.63039 286.725 5.95431 286.725 5.2538V0.342088H290.512V17.3743H287.384L277.732 5.5226L275.899 6.71999C276.584 7.37162 277.121 8.01512 277.512 8.65046C278.213 9.77454 278.563 11.0045 278.563 12.3404V17.3743H274.8V0.342088Z" fill="#FFBA72"/>
<path d="M270.675 17.3743L268.843 12.7069L269.991 13.5133H260.925L262.074 12.7069L260.217 17.3743H256.209L263.467 0.342088H267.425L274.707 17.3743H270.675ZM264.468 3.17671C264.485 3.81206 264.477 4.40667 264.444 4.96057C264.411 5.49817 264.338 6.03577 264.224 6.57337C264.126 7.09468 263.988 7.63228 263.809 8.18617C263.597 8.78894 263.141 9.80712 262.44 11.2407L261.903 10.6787H268.989L268.452 11.2407C268.11 10.5402 267.792 9.82341 267.499 9.09032C267.075 8.06399 266.798 7.11097 266.668 6.23126C266.537 5.33526 266.489 4.31707 266.521 3.17671H264.468Z" fill="#FFBA72"/>
<path d="M622.547 0.436035H627.767C628.218 1.5155 628.621 2.51441 628.975 3.43277C629.33 4.33501 629.603 5.14864 629.797 5.87365C630.038 6.69534 630.216 7.46869 630.328 8.1937C630.441 8.90261 630.498 9.62762 630.498 10.3687H632.455C632.455 9.54706 632.528 8.72538 632.673 7.90369C632.818 7.0659 633.043 6.17977 633.349 5.2453C633.655 4.31084 634.082 3.16693 634.63 1.81356C634.711 1.588 634.896 1.12883 635.186 0.436035H640.43V17.2806H636.709C636.709 15.7983 636.733 14.3241 636.781 12.858C636.846 11.4885 636.95 10.3768 637.095 9.5229C637.256 8.65288 637.466 7.87147 637.724 7.17868C637.981 6.48589 638.344 5.67226 638.811 4.73779L636.878 4.03695L632.89 14.2838H630.038L626.075 4.03695L624.166 4.8103C624.633 5.74476 624.996 6.55033 625.253 7.22701C625.511 7.9037 625.713 8.66093 625.858 9.49873C626.019 10.3204 626.131 11.3918 626.196 12.713C626.244 14.2274 626.268 15.75 626.268 17.2806H622.547V0.436035Z" fill="#FFBA72"/>
<path d="M618.467 17.2806L616.655 12.6646L617.791 13.4621H608.825L609.961 12.6646L608.124 17.2806H604.16L611.338 0.436035H615.253L622.455 17.2806H618.467ZM612.329 3.23943C612.345 3.86777 612.337 4.45584 612.305 5.00363C612.273 5.53531 612.2 6.06699 612.087 6.59867C611.991 7.11423 611.854 7.64591 611.676 8.1937C611.467 8.78983 611.016 9.79679 610.323 11.2146L609.791 10.6588H616.8L616.268 11.2146C615.93 10.5218 615.616 9.8129 615.326 9.08789C614.907 8.07287 614.633 7.13035 614.504 6.26033C614.375 5.3742 614.327 4.36723 614.359 3.23943H612.329Z" fill="#FFBA72"/>
<path d="M590.965 0.436035H604.281V3.4811H593.768L594.687 2.61108V8.1937L593.768 7.34785H603.532V10.2237H593.768L594.687 9.42623V15.1539L593.768 14.2355H604.571V17.2806H590.965V0.436035Z" fill="#FFBA72"/>
<path d="M575.528 0.436035H583.358C585.501 0.436035 587.104 0.814654 588.168 1.57189C589.231 2.31302 589.763 3.43277 589.763 4.93113C589.763 5.84948 589.521 6.61478 589.038 7.22701C588.554 7.83925 587.902 8.30648 587.08 8.62871C586.259 8.95094 585.332 9.14428 584.301 9.20872V11.1421C585.042 11.1743 585.679 11.3354 586.21 11.6254C586.758 11.8993 587.266 12.3505 587.733 12.9788L587.805 13.0755L590.899 17.2806H586.524L583.866 13.4863C583.802 13.3896 583.737 13.293 583.673 13.1963C583.205 12.5357 582.827 12.0685 582.537 11.7946C582.263 11.5207 581.957 11.3354 581.618 11.2388C581.28 11.126 580.789 11.0696 580.144 11.0696H578.332L579.25 10.1754V17.2806H575.528V0.436035ZM578.332 8.70121H582.682C583.423 8.70121 584.035 8.60454 584.519 8.41121C585.018 8.20176 585.389 7.89564 585.63 7.49285C585.888 7.09007 586.017 6.58256 586.017 5.97032C586.017 5.08419 585.743 4.42362 585.195 3.98861C584.647 3.5536 583.81 3.3361 582.682 3.3361H578.332L579.25 2.39358V9.57123L578.332 8.70121Z" fill="#FFBA72"/>
<path d="M559.265 0.436035H565.669C567.57 0.436035 569.222 0.806599 570.623 1.54773C572.025 2.27274 573.097 3.27165 573.838 4.54446C574.579 5.81726 574.949 7.25924 574.949 8.87038C574.949 10.4171 574.579 11.8349 573.838 13.1238C573.097 14.3966 572.025 15.4116 570.623 16.1689C569.222 16.91 567.57 17.2806 565.669 17.2806H559.265V0.436035ZM562.068 14.2355H565.428C566.604 14.2355 567.619 14.0099 568.473 13.5588C569.343 13.1077 570.003 12.4793 570.454 11.6738C570.922 10.8521 571.155 9.91763 571.155 8.87038C571.155 7.82314 570.922 6.89673 570.454 6.09116C570.003 5.26947 569.343 4.63307 568.473 4.18195C567.619 3.71472 566.604 3.4811 565.428 3.4811H562.068L562.987 2.58691V15.1539L562.068 14.2355Z" fill="#FFBA72"/>
<path d="M555.187 17.2806L553.374 12.6646L554.51 13.4621H545.544L546.68 12.6646L544.843 17.2806H540.88L548.057 0.436035H551.972L559.174 17.2806H555.187ZM549.048 3.23943C549.064 3.86777 549.056 4.45584 549.024 5.00363C548.992 5.53531 548.919 6.06699 548.806 6.59867C548.71 7.11423 548.573 7.64591 548.396 8.1937C548.186 8.78983 547.735 9.79679 547.042 11.2146L546.511 10.6588H553.519L552.987 11.2146C552.649 10.5218 552.335 9.8129 552.045 9.08789C551.626 8.07287 551.352 7.13035 551.223 6.26033C551.094 5.3742 551.046 4.36723 551.078 3.23943H549.048Z" fill="#FFBA72"/>
<path d="M526.787 0.436035H533.191C535.093 0.436035 536.744 0.806599 538.146 1.54773C539.547 2.27274 540.619 3.27165 541.36 4.54446C542.101 5.81726 542.472 7.25924 542.472 8.87038C542.472 10.4171 542.101 11.8349 541.36 13.1238C540.619 14.3966 539.547 15.4116 538.146 16.1689C536.744 16.91 535.093 17.2806 533.191 17.2806H526.787V0.436035ZM529.59 14.2355H532.95C534.126 14.2355 535.141 14.0099 535.995 13.5588C536.865 13.1077 537.525 12.4793 537.977 11.6738C538.444 10.8521 538.677 9.91763 538.677 8.87038C538.677 7.82314 538.444 6.89673 537.977 6.09116C537.525 5.26947 536.865 4.63307 535.995 4.18195C535.141 3.71472 534.126 3.4811 532.95 3.4811H529.59L530.509 2.58691V15.1539L529.59 14.2355Z" fill="#FFBA72"/>
<path d="M522.708 17.2806L520.896 12.6646L522.031 13.4621H513.065L514.201 12.6646L512.365 17.2806H508.401L515.579 0.436035H519.494L526.696 17.2806H522.708ZM516.57 3.23943C516.586 3.86777 516.578 4.45584 516.545 5.00363C516.513 5.53531 516.441 6.06699 516.328 6.59867C516.231 7.11423 516.094 7.64591 515.917 8.1937C515.708 8.78983 515.257 9.79679 514.564 11.2146L514.032 10.6588H521.041L520.509 11.2146C520.171 10.5218 519.856 9.8129 519.566 9.08789C519.147 8.07287 518.874 7.13035 518.745 6.26033C518.616 5.3742 518.567 4.36723 518.6 3.23943H516.57Z" fill="#FFBA72"/>
<path d="M504.572 0.436035H508.318V17.2806H504.572V0.436035ZM493.624 0.436035H497.346V17.2806H493.624V0.436035ZM497.032 7.22701H504.91V10.2721H497.032V7.22701Z" fill="#FFBA72"/>
<path d="M489.545 17.2806L487.732 12.6646L488.868 13.4621H479.902L481.038 12.6646L479.201 17.2806H475.238L482.415 0.436035H486.331L493.532 17.2806H489.545ZM483.406 3.23943C483.422 3.86777 483.414 4.45584 483.382 5.00363C483.35 5.53531 483.277 6.06699 483.165 6.59867C483.068 7.11423 482.931 7.64591 482.754 8.1937C482.544 8.78983 482.093 9.79679 481.4 11.2146L480.869 10.6588H487.877L487.346 11.2146C487.007 10.5218 486.693 9.8129 486.403 9.08789C485.984 8.07287 485.71 7.13035 485.581 6.26033C485.452 5.3742 485.404 4.36723 485.436 3.23943H483.406Z" fill="#FFBA72"/>
</svg>
