<svg width="641" height="18" viewBox="0 0 641 18" fill="none" xmlns="http://www.w3.org/2000/svg">
<path d="M98.7393 17.1834L96.9268 12.5675L98.0627 13.365H89.0966L90.2325 12.5675L88.3958 17.1834H84.4324L91.61 0.338867H95.5251L102.727 17.1834H98.7393ZM92.6009 3.14226C92.617 3.77061 92.6089 4.35868 92.5767 4.90647C92.5445 5.43814 92.472 5.96982 92.3592 6.5015C92.2625 7.01707 92.1256 7.54874 91.9484 8.09653C91.7389 8.69266 91.2878 9.69962 90.595 11.1174L90.0633 10.5616H97.0718L96.5401 11.1174C96.2018 10.4246 95.8876 9.71573 95.5976 8.99072C95.1787 7.9757 94.9048 7.03318 94.7759 6.16316C94.647 5.27703 94.5987 4.27006 94.6309 3.14226H92.6009Z" fill="#FFBA72"/>
<path d="M80.603 0.338867H84.3489V17.1834H80.603V0.338867ZM69.6553 0.338867H73.377V17.1834H69.6553V0.338867ZM73.0628 7.12985H80.9413V10.1749H73.0628V7.12985Z" fill="#FFBA72"/>
<path d="M62.0089 17.4973C60.6072 17.4973 59.3747 17.3201 58.3113 16.9656C57.2641 16.6112 56.4505 16.1036 55.8705 15.4431C55.2905 14.7664 55.0004 13.993 55.0004 13.123C55.0004 12.3336 55.2341 11.673 55.7013 11.1413C56.1685 10.6096 56.7969 10.2069 57.5863 9.93296C58.3919 9.64295 59.2861 9.4899 60.2689 9.47378V7.51624C59.1572 7.46791 58.1825 7.33096 57.3447 7.1054C56.5069 6.86373 55.8382 6.49316 55.3388 5.99371C54.8393 5.49425 54.5896 4.84174 54.5896 4.03617C54.5896 3.21448 54.8554 2.50558 55.3871 1.90945C55.9188 1.29722 56.6841 0.829987 57.683 0.507757C58.6819 0.185528 59.8419 0.0244141 61.1631 0.0244141C62.7581 0.0244141 64.2081 0.241919 65.5132 0.676929C66.8182 1.11194 68.0749 1.74028 69.2833 2.56197L67.6157 5.29286C66.8101 4.63229 65.8273 4.10061 64.6673 3.69783C63.5234 3.29504 62.3956 3.08559 61.2839 3.06948C60.3656 3.06948 59.6647 3.23059 59.1814 3.55282C58.698 3.85894 58.4563 4.26173 58.4563 4.76118C58.4563 5.11564 58.5772 5.42175 58.8189 5.67954C59.0605 5.92121 59.3989 6.13066 59.8339 6.30788C60.285 6.469 60.857 6.614 61.5497 6.74289L63.5556 7.20207C65.2634 7.55652 66.6007 8.14459 67.5674 8.96627C68.5502 9.78796 69.0416 10.8916 69.0416 12.2772C69.0416 13.1955 68.7596 14.0575 68.1957 14.8631C67.6318 15.6525 66.8182 16.2889 65.7548 16.7723C64.6915 17.2556 63.4428 17.4973 62.0089 17.4973ZM62.1056 14.8147C62.7501 14.8147 63.3059 14.702 63.7731 14.4764C64.2565 14.2508 64.619 13.9528 64.8607 13.5822C65.1184 13.2116 65.2473 12.8008 65.2473 12.3497C65.2473 11.8502 65.1104 11.4152 64.8365 11.0447C64.5787 10.658 64.2001 10.3599 63.7006 10.1505C63.2173 9.92491 62.6614 9.81213 62.0331 9.81213C61.437 9.81213 60.8972 9.91685 60.4139 10.1263C59.9305 10.3357 59.5519 10.6338 59.278 11.0205C59.0041 11.391 58.8672 11.8261 58.8672 12.3255C58.8672 12.7927 59.0041 13.2197 59.278 13.6064C59.5519 13.9769 59.9305 14.275 60.4139 14.5006C60.9133 14.71 61.4772 14.8147 62.1056 14.8147Z" fill="#FFBA72"/>
<path d="M52.193 17.1834L50.3804 12.5675L51.5163 13.365H42.5503L43.6861 12.5675L41.8494 17.1834H37.886L45.0636 0.338867H48.9787L56.1805 17.1834H52.193ZM46.0545 3.14226C46.0706 3.77061 46.0626 4.35868 46.0303 4.90647C45.9981 5.43814 45.9256 5.96982 45.8128 6.5015C45.7162 7.01707 45.5792 7.54874 45.402 8.09653C45.1925 8.69266 44.7414 9.69962 44.0486 11.1174L43.5169 10.5616H50.5254L49.9937 11.1174C49.6554 10.4246 49.3412 9.71573 49.0512 8.99072C48.6323 7.9757 48.3584 7.03318 48.2295 6.16316C48.1006 5.27703 48.0523 4.27006 48.0845 3.14226H46.0545Z" fill="#FFBA72"/>
<path d="M32.1622 2.46558L33.0081 3.38393H26.5796V0.338867H41.4907V3.38393H35.0623L35.9081 2.46558V17.1834H32.1622V2.46558Z" fill="#FFBA72"/>
<path d="M26.2052 17.1834L24.3926 12.5675L25.5285 13.365H16.5625L17.6983 12.5675L15.8616 17.1834H11.8982L19.0758 0.338867H22.9909L30.1928 17.1834H26.2052ZM20.0667 3.14226C20.0828 3.77061 20.0748 4.35868 20.0425 4.90647C20.0103 5.43814 19.9378 5.96982 19.825 6.5015C19.7284 7.01707 19.5914 7.54874 19.4142 8.09653C19.2047 8.69266 18.7536 9.69962 18.0608 11.1174L17.5291 10.5616H24.5376L24.006 11.1174C23.6676 10.4246 23.3534 9.71573 23.0634 8.99072C22.6445 7.9757 22.3706 7.03318 22.2417 6.16316C22.1129 5.27703 22.0645 4.27006 22.0967 3.14226H20.0667Z" fill="#FFBA72"/>
<path d="M0 0.338867H3.72175V15.0567L2.80339 14.1383H12.7844V17.1834H0V0.338867Z" fill="#FFBA72"/>
<path d="M368.23 17.497C366.86 17.497 365.603 17.1265 364.46 16.3854C363.316 15.6442 362.413 14.6131 361.753 13.292C361.092 11.9547 360.762 10.4402 360.762 8.74852C360.762 7.05682 361.133 5.5504 361.874 4.22926C362.615 2.89201 363.646 1.85282 364.967 1.11169C366.288 0.370564 367.795 0 369.486 0C370.888 0 372.201 0.265839 373.426 0.797517C374.65 1.32919 375.697 2.0381 376.567 2.92423L374.465 5.34095C373.788 4.66427 373.071 4.13259 372.314 3.74591C371.557 3.35924 370.671 3.1659 369.655 3.1659C368.608 3.1659 367.69 3.41563 366.9 3.91508C366.127 4.39843 365.531 5.06705 365.112 5.92096C364.693 6.77487 364.484 7.71739 364.484 8.74852C364.484 9.8441 364.693 10.8269 365.112 11.6969C365.531 12.5508 366.135 13.2195 366.925 13.7028C367.714 14.1861 368.649 14.4278 369.728 14.4278C370.566 14.4278 371.315 14.2425 371.976 13.872C372.636 13.4853 373.144 12.9133 373.498 12.1561C373.853 11.3989 373.981 10.4724 373.885 9.37687L374.827 10.3919H369.027V7.7335H376.857V17.1829H373.716C373.973 16.5706 374.239 16.0067 374.513 15.4912C374.819 14.8628 375.158 14.2748 375.528 13.727L373.522 12.8569C373.377 13.5981 373.103 14.3231 372.701 15.032C372.298 15.7248 371.726 16.3129 370.985 16.7962C370.244 17.2634 369.325 17.497 368.23 17.497Z" fill="#FFBA72"/>
<path d="M351.621 17.4973C349.929 17.4973 348.415 17.1267 347.078 16.3856C345.74 15.6284 344.693 14.5892 343.936 13.268C343.179 11.9308 342.8 10.4324 342.8 8.77294C342.8 7.11346 343.179 5.62315 343.936 4.30201C344.693 2.98087 345.74 1.94974 347.078 1.20861C348.415 0.451373 349.929 0.0727539 351.621 0.0727539C353.297 0.0727539 354.803 0.451373 356.14 1.20861C357.494 1.94974 358.549 2.98087 359.306 4.30201C360.063 5.62315 360.442 7.11346 360.442 8.77294C360.442 10.4324 360.063 11.9308 359.306 13.268C358.549 14.5892 357.494 15.6284 356.14 16.3856C354.803 17.1267 353.297 17.4973 351.621 17.4973ZM351.621 14.4281C352.636 14.4281 353.522 14.1864 354.279 13.703C355.037 13.2197 355.617 12.5511 356.019 11.6972C356.422 10.8433 356.624 9.86852 356.624 8.77294C356.624 7.67736 356.422 6.70262 356.019 5.84871C355.617 4.9948 355.037 4.32618 354.279 3.84283C353.522 3.35949 352.636 3.11782 351.621 3.11782C350.606 3.11782 349.72 3.35949 348.963 3.84283C348.205 4.32618 347.617 4.9948 347.198 5.84871C346.796 6.70262 346.594 7.67736 346.594 8.77294C346.594 9.86852 346.796 10.8433 347.198 11.6972C347.617 12.5511 348.205 13.2197 348.963 13.703C349.72 14.1864 350.606 14.4281 351.621 14.4281Z" fill="#FFBA72"/>
<path d="M329.98 14.3795L339.502 2.6826L338.027 1.40173C337.56 1.82063 337.045 2.16703 336.481 2.44092C335.917 2.71482 335.272 2.92427 334.547 3.06927C333.822 3.21427 332.856 3.31094 331.647 3.35928C331.116 3.37539 330.648 3.38344 330.246 3.38344V0.338379H343.417V3.14177L333.871 14.887L335.369 16.1196C335.836 15.749 336.36 15.4348 336.94 15.177C337.52 14.9031 338.189 14.6776 338.946 14.5003C339.719 14.3231 340.734 14.2103 341.991 14.162C342.539 14.1459 343.03 14.1378 343.465 14.1378V17.1829H329.98V14.3795Z" fill="#FFBA72"/>
<path d="M315.026 0.338379H322.857C324.999 0.338379 326.602 0.716998 327.666 1.47424C328.729 2.21536 329.261 3.33511 329.261 4.83347C329.261 5.75183 329.019 6.51712 328.536 7.12936C328.052 7.74159 327.4 8.20882 326.578 8.53105C325.757 8.85328 324.83 9.04662 323.799 9.11107V11.0444C324.54 11.0767 325.177 11.2378 325.708 11.5278C326.256 11.8017 326.764 12.2528 327.231 12.8811L327.303 12.9778L330.397 17.1829H326.022L323.364 13.3887C323.3 13.292 323.235 13.1953 323.171 13.0987C322.703 12.4381 322.325 11.9709 322.035 11.697C321.761 11.4231 321.455 11.2378 321.116 11.1411C320.778 11.0283 320.287 10.9719 319.642 10.9719H317.83L318.748 10.0778V17.1829H315.026V0.338379ZM317.83 8.60356H322.18C322.921 8.60356 323.533 8.50689 324.017 8.31355C324.516 8.1041 324.887 7.79798 325.128 7.3952C325.386 6.99241 325.515 6.4849 325.515 5.87266C325.515 4.98653 325.241 4.32596 324.693 3.89096C324.145 3.45595 323.308 3.23844 322.18 3.23844H317.83L318.748 2.29592V9.47357L317.83 8.60356Z" fill="#FFBA72"/>
<path d="M300.864 0.338379H314.18V3.38344H303.668L304.586 2.51342V8.09605L303.668 7.25019H313.431V10.1261H303.668L304.586 9.32857V15.0562L303.668 14.1378H314.47V17.1829H300.864V0.338379Z" fill="#FFBA72"/>
<path d="M296.068 0.338379H299.814V17.1829H296.068V0.338379ZM285.12 0.338379H288.842V17.1829H285.12V0.338379ZM288.528 7.12936H296.406V10.1744H288.528V7.12936Z" fill="#FFBA72"/>
<path d="M265.198 0.338379H273.028C275.171 0.338379 276.774 0.716998 277.837 1.47424C278.901 2.21536 279.432 3.33511 279.432 4.83347C279.432 5.75183 279.191 6.51712 278.707 7.12936C278.224 7.74159 277.571 8.20882 276.75 8.53105C275.928 8.85328 275.002 9.04662 273.97 9.11107V11.0444C274.712 11.0767 275.348 11.2378 275.88 11.5278C276.427 11.8017 276.935 12.2528 277.402 12.8811L277.475 12.9778L280.568 17.1829H276.194L273.535 13.3887C273.471 13.292 273.407 13.1953 273.342 13.0987C272.875 12.4381 272.496 11.9709 272.206 11.697C271.932 11.4231 271.626 11.2378 271.288 11.1411C270.95 11.0283 270.458 10.9719 269.814 10.9719H268.001L268.92 10.0778V17.1829H265.198V0.338379ZM268.001 8.60356H272.351C273.092 8.60356 273.705 8.50689 274.188 8.31355C274.687 8.1041 275.058 7.79798 275.3 7.3952C275.557 6.99241 275.686 6.4849 275.686 5.87266C275.686 4.98653 275.412 4.32596 274.865 3.89096C274.317 3.45595 273.479 3.23844 272.351 3.23844H268.001L268.92 2.29592V9.47357L268.001 8.60356Z" fill="#FFBA72"/>
<path d="M251.035 0.338379H264.351V3.38344H253.839L254.757 2.51342V8.09605L253.839 7.25019H263.602V10.1261H253.839L254.757 9.32857V15.0562L253.839 14.1378H264.641V17.1829H251.035V0.338379Z" fill="#FFBA72"/>
<path d="M234.773 0.338379H241.177C243.078 0.338379 244.73 0.708942 246.131 1.45007C247.533 2.17509 248.604 3.174 249.346 4.4468C250.087 5.71961 250.457 7.16158 250.457 8.77273C250.457 10.3194 250.087 11.7372 249.346 13.0261C248.604 14.299 247.533 15.314 246.131 16.0712C244.73 16.8123 243.078 17.1829 241.177 17.1829H234.773V0.338379ZM237.576 14.1378H240.935C242.111 14.1378 243.126 13.9123 243.98 13.4612C244.85 13.01 245.511 12.3817 245.962 11.5761C246.429 10.7544 246.663 9.81997 246.663 8.77273C246.663 7.72548 246.429 6.79907 245.962 5.9935C245.511 5.17182 244.85 4.53541 243.98 4.08429C243.126 3.61706 242.111 3.38344 240.935 3.38344H237.576L238.494 2.48926V15.0562L237.576 14.1378Z" fill="#FFBA72"/>
<path d="M218.18 0.338379H221.539L230.988 11.987L232.752 10.7786C232.156 10.118 231.665 9.51385 231.278 8.96606C230.892 8.41827 230.577 7.83021 230.336 7.20186C230.094 6.5574 229.973 5.88878 229.973 5.19598V0.338379H233.719V17.1829H230.626L221.08 5.46182L219.267 6.64601C219.944 7.29047 220.476 7.92687 220.862 8.55522C221.555 9.66691 221.901 10.8833 221.901 12.2045V17.1829H218.18V0.338379Z" fill="#FFBA72"/>
<path d="M214.1 17.1829L212.288 12.567L213.424 13.3645H204.458L205.594 12.567L203.757 17.1829H199.793L206.971 0.338379H210.886L218.088 17.1829H214.1ZM207.962 3.14177C207.978 3.77012 207.97 4.35819 207.938 4.90598C207.906 5.43765 207.833 5.96933 207.72 6.50101C207.624 7.01658 207.487 7.54826 207.309 8.09605C207.1 8.69217 206.649 9.69914 205.956 11.1169L205.424 10.5611H212.433L211.901 11.1169C211.563 10.4242 211.249 9.71525 210.959 8.99023C210.54 7.97521 210.266 7.03269 210.137 6.16267C210.008 5.27654 209.96 4.26957 209.992 3.14177H207.962Z" fill="#FFBA72"/>
<path d="M186.598 0.338379H199.914V3.38344H189.401L190.319 2.51342V8.09605L189.401 7.25019H199.165V10.1261H189.401L190.319 9.32857V15.0562L189.401 14.1378H200.204V17.1829H186.598V0.338379Z" fill="#FFBA72"/>
<path d="M173.733 0.338379H177.455V15.0562L176.536 14.1378H186.517V17.1829H173.733V0.338379Z" fill="#FFBA72"/>
<path d="M633.156 17.4729C631.754 17.4729 630.522 17.2957 629.459 16.9412C628.411 16.5867 627.598 16.0792 627.018 15.4187C626.438 14.742 626.148 13.9686 626.148 13.0986C626.148 12.3092 626.381 11.6486 626.849 11.1169C627.316 10.5852 627.944 10.1824 628.734 9.90855C629.539 9.61854 630.433 9.46548 631.416 9.44937V7.49183C630.304 7.44349 629.33 7.30655 628.492 7.08099C627.654 6.83931 626.985 6.46875 626.486 5.9693C625.987 5.46984 625.737 4.81733 625.737 4.01175C625.737 3.19007 626.003 2.48116 626.534 1.88504C627.066 1.27281 627.831 0.805573 628.83 0.483343C629.829 0.161114 630.989 0 632.31 0C633.905 0 635.355 0.217505 636.66 0.652514C637.965 1.08752 639.222 1.71587 640.43 2.53755L638.763 5.26845C637.957 4.60788 636.975 4.0762 635.815 3.67341C634.671 3.27063 633.543 3.06118 632.431 3.04507C631.513 3.04507 630.812 3.20618 630.329 3.52841C629.845 3.83453 629.604 4.23731 629.604 4.73677C629.604 5.09122 629.724 5.39734 629.966 5.65512C630.208 5.89679 630.546 6.10624 630.981 6.28347C631.432 6.44458 632.004 6.58959 632.697 6.71848L634.703 7.17765C636.411 7.53211 637.748 8.12017 638.715 8.94186C639.697 9.76354 640.189 10.8672 640.189 12.2528C640.189 13.1711 639.907 14.0331 639.343 14.8387C638.779 15.6281 637.965 16.2645 636.902 16.7479C635.839 17.2312 634.59 17.4729 633.156 17.4729ZM633.253 14.7903C633.897 14.7903 634.453 14.6775 634.92 14.452C635.404 14.2264 635.766 13.9284 636.008 13.5578C636.266 13.1872 636.395 12.7764 636.395 12.3253C636.395 11.8258 636.258 11.3908 635.984 11.0202C635.726 10.6336 635.347 10.3355 634.848 10.1261C634.364 9.90049 633.809 9.78771 633.18 9.78771C632.584 9.78771 632.044 9.89243 631.561 10.1019C631.078 10.3113 630.699 10.6094 630.425 10.9961C630.151 11.3666 630.014 11.8016 630.014 12.3011C630.014 12.7683 630.151 13.1953 630.425 13.582C630.699 13.9525 631.078 14.2506 631.561 14.4761C632.061 14.6856 632.624 14.7903 633.253 14.7903Z" fill="#FFBA72"/>
<path d="M612.36 0.314453H625.676V3.35952H615.164L616.082 2.4895V8.07212L615.164 7.22627H624.927V10.1022H615.164L616.082 9.30464V15.0323L615.164 14.1139H625.966V17.159H612.36V0.314453Z" fill="#FFBA72"/>
<path d="M593.406 0.314453H598.627C599.078 1.39392 599.481 2.39283 599.835 3.31118C600.189 4.21343 600.463 5.02705 600.657 5.75207C600.898 6.57375 601.076 7.3471 601.188 8.07212C601.301 8.78102 601.357 9.50604 601.357 10.2472H603.315C603.315 9.42548 603.388 8.6038 603.533 7.78211C603.678 6.94432 603.903 6.05819 604.209 5.12372C604.515 4.18926 604.942 3.04534 605.49 1.69198C605.571 1.46642 605.756 1.00725 606.046 0.314453H611.29V17.159H607.568C607.568 15.6767 607.593 14.2025 607.641 12.7364C607.705 11.3669 607.81 10.2552 607.955 9.40131C608.116 8.5313 608.326 7.74989 608.583 7.0571C608.841 6.36431 609.204 5.55068 609.671 4.61621L607.738 3.91536L603.75 14.1622H600.898L596.935 3.91536L595.026 4.68871C595.493 5.62318 595.855 6.42875 596.113 7.10543C596.371 7.78211 596.572 8.53935 596.717 9.37715C596.879 10.1988 596.991 11.2702 597.056 12.5914C597.104 14.1059 597.128 15.6284 597.128 17.159H593.406V0.314453Z" fill="#FFBA72"/>
<path d="M589.328 17.159L587.515 12.543L588.651 13.3406H579.685L580.821 12.543L578.984 17.159H575.021L582.199 0.314453H586.114L593.316 17.159H589.328ZM583.19 3.11785C583.206 3.74619 583.198 4.33426 583.165 4.88205C583.133 5.41373 583.061 5.94541 582.948 6.47708C582.851 6.99265 582.714 7.52433 582.537 8.07212C582.328 8.66824 581.876 9.67521 581.184 11.093L580.652 10.5372H587.66L587.129 11.093C586.79 10.4002 586.476 9.69132 586.186 8.9663C585.767 7.95128 585.493 7.00876 585.365 6.13874C585.236 5.25261 585.187 4.24565 585.22 3.11785H583.19Z" fill="#FFBA72"/>
<path d="M569.721 17.4973C568.368 17.4973 567.192 17.2073 566.193 16.6273C565.194 16.0473 564.413 15.1934 563.849 14.0656L566.12 11.7697C566.459 12.5753 566.902 13.1875 567.45 13.6064C567.997 14.0253 568.626 14.2348 569.335 14.2348C570.221 14.2348 570.93 13.9931 571.461 13.5097C571.993 13.0103 572.259 12.2611 572.259 11.2622V0.314453H576.005V11.6972C576.005 12.9378 575.731 14.0011 575.183 14.8873C574.635 15.7573 573.886 16.4098 572.935 16.8448C571.985 17.2798 570.914 17.4973 569.721 17.4973Z" fill="#FFBA72"/>
<path d="M546.457 0.314453H559.773V3.35952H549.261L550.179 2.4895V8.07212L549.261 7.22627H559.024V10.1022H549.261L550.179 9.30464V15.0323L549.261 14.1139H560.063V17.159H546.457V0.314453Z" fill="#FFBA72"/>
<path d="M529.864 0.314453H533.223L542.673 11.963L544.437 10.7547C543.841 10.0941 543.35 9.48993 542.963 8.94214C542.576 8.39435 542.262 7.80628 542.02 7.17793C541.779 6.53348 541.658 5.86485 541.658 5.17206V0.314453H545.404V17.159H542.31L532.764 5.4379L530.952 6.62209C531.628 7.26655 532.16 7.90295 532.547 8.5313C533.24 9.64299 533.586 10.8594 533.586 12.1805V17.159H529.864V0.314453Z" fill="#FFBA72"/>
<path d="M525.071 0.314453H528.793V17.159H525.071V0.314453Z" fill="#FFBA72"/>
<path d="M520.993 17.159L519.18 12.543L520.316 13.3406H511.35L512.486 12.543L510.649 17.159H506.686L513.863 0.314453H517.778L524.98 17.159H520.993ZM514.854 3.11785C514.87 3.74619 514.862 4.33426 514.83 4.88205C514.798 5.41373 514.725 5.94541 514.612 6.47708C514.516 6.99265 514.379 7.52433 514.202 8.07212C513.992 8.66824 513.541 9.67521 512.848 11.093L512.316 10.5372H519.325L518.793 11.093C518.455 10.4002 518.141 9.69132 517.851 8.9663C517.432 7.95128 517.158 7.00876 517.029 6.13874C516.9 5.25261 516.852 4.24565 516.884 3.11785H514.854Z" fill="#FFBA72"/>
<path d="M493.159 0.314453H500.99C503.132 0.314453 504.736 0.693072 505.799 1.45031C506.862 2.19144 507.394 3.31118 507.394 4.80955C507.394 5.7279 507.152 6.4932 506.669 7.10543C506.186 7.71767 505.533 8.1849 504.711 8.50713C503.89 8.82936 502.963 9.02269 501.932 9.08714V11.0205C502.673 11.0527 503.31 11.2139 503.841 11.5039C504.389 11.7778 504.897 12.2289 505.364 12.8572L505.436 12.9539L508.53 17.159H504.155L501.497 13.3647C501.433 13.2681 501.368 13.1714 501.304 13.0747C500.837 12.4142 500.458 11.9469 500.168 11.673C499.894 11.3991 499.588 11.2139 499.25 11.1172C498.911 11.0044 498.42 10.948 497.775 10.948H495.963L496.881 10.0538V17.159H493.159V0.314453ZM495.963 8.57963H500.313C501.054 8.57963 501.666 8.48296 502.15 8.28962C502.649 8.08017 503.02 7.77406 503.261 7.37127C503.519 6.96848 503.648 6.46097 503.648 5.84874C503.648 4.96261 503.374 4.30204 502.826 3.86703C502.279 3.43202 501.441 3.21452 500.313 3.21452H495.963L496.881 2.27199V9.44965L495.963 8.57963Z" fill="#FFBA72"/>
<path d="M477.722 0.314453H485.553C487.695 0.314453 489.298 0.693072 490.362 1.45031C491.425 2.19144 491.957 3.31118 491.957 4.80955C491.957 5.7279 491.715 6.4932 491.232 7.10543C490.749 7.71767 490.096 8.1849 489.274 8.50713C488.453 8.82936 487.526 9.02269 486.495 9.08714V11.0205C487.236 11.0527 487.873 11.2139 488.404 11.5039C488.952 11.7778 489.46 12.2289 489.927 12.8572L489.999 12.9539L493.093 17.159H488.718L486.06 13.3647C485.996 13.2681 485.931 13.1714 485.867 13.0747C485.4 12.4142 485.021 11.9469 484.731 11.673C484.457 11.3991 484.151 11.2139 483.813 11.1172C483.474 11.0044 482.983 10.948 482.338 10.948H480.526L481.444 10.0538V17.159H477.722V0.314453ZM480.526 8.57963H484.876C485.617 8.57963 486.229 8.48296 486.713 8.28962C487.212 8.08017 487.583 7.77406 487.824 7.37127C488.082 6.96848 488.211 6.46097 488.211 5.84874C488.211 4.96261 487.937 4.30204 487.389 3.86703C486.841 3.43202 486.004 3.21452 484.876 3.21452H480.526L481.444 2.27199V9.44965L480.526 8.57963Z" fill="#FFBA72"/>
<path d="M468.219 17.4724C466.527 17.4724 465.013 17.1018 463.676 16.3607C462.338 15.6035 461.291 14.5643 460.534 13.2431C459.777 11.9059 459.398 10.4075 459.398 8.74804C459.398 7.08856 459.777 5.59825 460.534 4.27711C461.291 2.95597 462.338 1.92484 463.676 1.18371C465.013 0.42647 466.527 0.0478516 468.219 0.0478516C469.895 0.0478516 471.401 0.42647 472.738 1.18371C474.092 1.92484 475.147 2.95597 475.904 4.27711C476.661 5.59825 477.04 7.08856 477.04 8.74804C477.04 10.4075 476.661 11.9059 475.904 13.2431C475.147 14.5643 474.092 15.6035 472.738 16.3607C471.401 17.1018 469.895 17.4724 468.219 17.4724ZM468.219 14.4032C469.234 14.4032 470.12 14.1615 470.877 13.6781C471.635 13.1948 472.215 12.5262 472.617 11.6723C473.02 10.8184 473.222 9.84362 473.222 8.74804C473.222 7.65246 473.02 6.67772 472.617 5.82381C472.215 4.9699 471.635 4.30128 470.877 3.81793C470.12 3.33459 469.234 3.09292 468.219 3.09292C467.204 3.09292 466.318 3.33459 465.561 3.81793C464.803 4.30128 464.215 4.9699 463.796 5.82381C463.394 6.67772 463.192 7.65246 463.192 8.74804C463.192 9.84362 463.394 10.8184 463.796 11.6723C464.215 12.5262 464.803 13.1948 465.561 13.6781C466.318 14.1615 467.204 14.4032 468.219 14.4032Z" fill="#FFBA72"/>
<path d="M447.864 0.314453H451.585V15.0323L450.667 14.1139H460.648V17.159H447.864V0.314453Z" fill="#FFBA72"/>
</svg>
