<svg width="641" height="18" viewBox="0 0 641 18" fill="none" xmlns="http://www.w3.org/2000/svg">
<path d="M42.0763 2.80347L42.9221 3.72182H36.4937V0.676758H51.4048V3.72182H44.9763L45.8222 2.80347V17.5213H42.0763V2.80347Z" fill="#FFBA72"/>
<path d="M20.4197 0.676758H24.3106C24.6167 1.48233 24.9067 2.23957 25.1806 2.94847C25.954 5.18797 26.5259 6.89578 26.8965 8.07192C27.267 9.23194 27.5248 10.2711 27.6698 11.1895C27.8148 12.1078 27.8873 13.2276 27.8873 14.5487H29.8932C29.8932 13.2598 29.9657 12.1642 30.1107 11.262C30.2557 10.3436 30.5055 9.32055 30.8599 8.19275C31.2305 7.04884 31.7702 5.40547 32.4791 3.26265C32.8174 2.40874 33.1558 1.54678 33.4941 0.676758H37.385L31.1016 17.5213H26.7031L20.4197 0.676758Z" fill="#FFBA72"/>
<path d="M4.79297 0.676758H8.15221L17.6016 12.3253L19.3658 11.117C18.7697 10.4564 18.2783 9.85223 17.8916 9.30444C17.5049 8.75665 17.1907 8.16858 16.9491 7.54024C16.7074 6.89578 16.5866 6.22715 16.5866 5.53436V0.676758H20.3325V17.5213H17.2391L7.69303 5.8002L5.88049 6.98439C6.55717 7.62885 7.08885 8.26525 7.47553 8.8936C8.16832 10.0053 8.51472 11.2217 8.51472 12.5428V17.5213H4.79297V0.676758Z" fill="#FFBA72"/>
<path d="M0 0.676758H3.72175V17.5213H0V0.676758Z" fill="#FFBA72"/>
<path d="M206.761 17.5212C205.359 17.5212 204.126 17.344 203.063 16.9895C202.016 16.6351 201.202 16.1276 200.622 15.467C200.042 14.7903 199.752 14.017 199.752 13.147C199.752 12.3575 199.986 11.6969 200.453 11.1652C200.92 10.6336 201.549 10.2308 202.338 9.95689C203.144 9.66688 204.038 9.51382 205.021 9.49771V7.54017C203.909 7.49183 202.934 7.35489 202.096 7.12932C201.259 6.88765 200.59 6.51709 200.09 6.01763C199.591 5.51818 199.341 4.86567 199.341 4.06009C199.341 3.23841 199.607 2.5295 200.139 1.93338C200.671 1.32115 201.436 0.853913 202.435 0.531683C203.434 0.209454 204.594 0.0483398 205.915 0.0483398C207.51 0.0483398 208.96 0.265845 210.265 0.700854C211.57 1.13586 212.827 1.76421 214.035 2.58589L212.367 5.31679C211.562 4.65622 210.579 4.12454 209.419 3.72175C208.275 3.31897 207.147 3.10952 206.036 3.09341C205.117 3.09341 204.416 3.25452 203.933 3.57675C203.45 3.88287 203.208 4.28565 203.208 4.78511C203.208 5.13956 203.329 5.44568 203.571 5.70346C203.812 5.94513 204.151 6.15458 204.586 6.33181C205.037 6.49292 205.609 6.63793 206.301 6.76682L208.307 7.22599C210.015 7.58045 211.352 8.16851 212.319 8.9902C213.302 9.81188 213.793 10.9155 213.793 12.3011C213.793 13.2195 213.511 14.0814 212.947 14.887C212.384 15.6765 211.57 16.3129 210.507 16.7962C209.443 17.2795 208.195 17.5212 206.761 17.5212ZM206.857 14.8387C207.502 14.8387 208.058 14.7259 208.525 14.5003C209.008 14.2748 209.371 13.9767 209.612 13.6061C209.87 13.2356 209.999 12.8247 209.999 12.3736C209.999 11.8742 209.862 11.4391 209.588 11.0686C209.33 10.6819 208.952 10.3838 208.452 10.1744C207.969 9.94883 207.413 9.83605 206.785 9.83605C206.189 9.83605 205.649 9.94077 205.166 10.1502C204.682 10.3597 204.304 10.6577 204.03 11.0444C203.756 11.415 203.619 11.85 203.619 12.3494C203.619 12.8167 203.756 13.2436 204.03 13.6303C204.304 14.0009 204.682 14.2989 205.166 14.5245C205.665 14.7339 206.229 14.8387 206.857 14.8387Z" fill="#FFBA72"/>
<path d="M187.64 0.362305H191.362V15.0801L190.444 14.1618H200.425V17.2068H187.64V0.362305Z" fill="#FFBA72"/>
<path d="M174.776 0.362305H178.498V15.0801L177.58 14.1618H187.561V17.2068H174.776V0.362305Z" fill="#FFBA72"/>
<path d="M160.614 0.362305H173.93V3.40737H163.417L164.335 2.53735V8.11997L163.417 7.27412H173.18V10.15H163.417L164.335 9.3525V15.0801L163.417 14.1618H174.22V17.2068H160.614V0.362305Z" fill="#FFBA72"/>
<path d="M155.818 0.362305H159.564V17.2068H155.818V0.362305ZM144.87 0.362305H148.592V17.2068H144.87V0.362305ZM148.278 7.15328H156.156V10.1983H148.278V7.15328Z" fill="#FFBA72"/>
<path d="M137.223 17.5212C135.822 17.5212 134.589 17.344 133.526 16.9895C132.478 16.6351 131.665 16.1276 131.085 15.467C130.505 14.7903 130.215 14.017 130.215 13.147C130.215 12.3575 130.448 11.6969 130.916 11.1652C131.383 10.6336 132.011 10.2308 132.801 9.95689C133.606 9.66688 134.5 9.51382 135.483 9.49771V7.54017C134.372 7.49183 133.397 7.35489 132.559 7.12932C131.721 6.88765 131.053 6.51709 130.553 6.01763C130.054 5.51818 129.804 4.86567 129.804 4.06009C129.804 3.23841 130.07 2.5295 130.601 1.93338C131.133 1.32115 131.898 0.853913 132.897 0.531683C133.896 0.209454 135.056 0.0483398 136.377 0.0483398C137.972 0.0483398 139.422 0.265845 140.728 0.700854C142.033 1.13586 143.289 1.76421 144.498 2.58589L142.83 5.31679C142.024 4.65622 141.042 4.12454 139.882 3.72175C138.738 3.31897 137.61 3.10952 136.498 3.09341C135.58 3.09341 134.879 3.25452 134.396 3.57675C133.912 3.88287 133.671 4.28565 133.671 4.78511C133.671 5.13956 133.792 5.44568 134.033 5.70346C134.275 5.94513 134.613 6.15458 135.048 6.33181C135.499 6.49292 136.071 6.63793 136.764 6.76682L138.77 7.22599C140.478 7.58045 141.815 8.16851 142.782 8.9902C143.765 9.81188 144.256 10.9155 144.256 12.3011C144.256 13.2195 143.974 14.0814 143.41 14.887C142.846 15.6765 142.033 16.3129 140.969 16.7962C139.906 17.2795 138.657 17.5212 137.223 17.5212ZM137.32 14.8387C137.964 14.8387 138.52 14.7259 138.987 14.5003C139.471 14.2748 139.833 13.9767 140.075 13.6061C140.333 13.2356 140.462 12.8247 140.462 12.3736C140.462 11.8742 140.325 11.4391 140.051 11.0686C139.793 10.6819 139.414 10.3838 138.915 10.1744C138.432 9.94883 137.876 9.83605 137.247 9.83605C136.651 9.83605 136.112 9.94077 135.628 10.1502C135.145 10.3597 134.766 10.6577 134.492 11.0444C134.218 11.415 134.082 11.85 134.082 12.3494C134.082 12.8167 134.218 13.2436 134.492 13.6303C134.766 14.0009 135.145 14.2989 135.628 14.5245C136.128 14.7339 136.692 14.8387 137.32 14.8387Z" fill="#FFBA72"/>
<path d="M115.585 7.99913V9.32833L109.423 0.362305H113.773C114.788 1.86067 115.464 3.03681 115.803 3.89071C116.157 4.72851 116.334 5.66297 116.334 6.69411H118.413C118.413 5.90465 118.509 5.23602 118.703 4.68823C118.864 4.14044 119.122 3.53626 119.476 2.87569C119.831 2.21512 120.354 1.37733 121.047 0.362305H125.3L119.138 9.25583V7.9508L125.542 17.2068H121.192C120.419 16.2079 119.831 15.3701 119.428 14.6934C119.041 14.0168 118.767 13.3965 118.606 12.8326C118.445 12.2526 118.364 11.6081 118.364 10.8992H116.286C116.286 11.592 116.206 12.2203 116.044 12.7842C115.883 13.3481 115.601 13.9684 115.199 14.6451C114.812 15.3218 114.232 16.1757 113.459 17.2068H109.205L115.585 7.99913Z" fill="#FFBA72"/>
<path d="M105.378 0.362305H109.1V17.2068H105.378V0.362305Z" fill="#FFBA72"/>
<path d="M427.175 0.338379H430.897V17.1829H427.175V0.338379Z" fill="#FFBA72"/>
<path d="M411.455 0.338379H415.177V3.35928C415.177 3.87484 415.112 4.35013 414.983 4.78514C414.854 5.22015 414.613 5.71155 414.258 6.25934C413.92 6.79102 413.42 7.47575 412.76 8.31355L414.355 9.44941L422.427 0.338379H426.946L419.575 8.19271L419.672 6.86352L427.163 17.1829H422.693L417.231 9.49774L418.27 9.59441L414.452 13.6787L415.177 12.0111V17.1829H411.455V0.338379Z" fill="#FFBA72"/>
<path d="M407.376 17.1829L405.564 12.567L406.699 13.3645H397.733L398.869 12.567L397.033 17.1829H393.069L400.247 0.338379H404.162L411.364 17.1829H407.376ZM401.238 3.14177C401.254 3.77012 401.246 4.35819 401.213 4.90598C401.181 5.43765 401.109 5.96933 400.996 6.50101C400.899 7.01658 400.762 7.54826 400.585 8.09605C400.376 8.69217 399.925 9.69914 399.232 11.1169L398.7 10.5611H405.709L405.177 11.1169C404.839 10.4242 404.524 9.71525 404.234 8.99023C403.815 7.97521 403.542 7.03269 403.413 6.16267C403.284 5.27654 403.235 4.26957 403.268 3.14177H401.238Z" fill="#FFBA72"/>
<path d="M379.26 0.338379H382.982V3.35928C382.982 3.87484 382.917 4.35013 382.788 4.78514C382.659 5.22015 382.418 5.71155 382.063 6.25934C381.725 6.79102 381.225 7.47575 380.565 8.31355L382.16 9.44941L390.232 0.338379H394.751L387.38 8.19271L387.477 6.86352L394.968 17.1829H390.498L385.036 9.49774L386.075 9.59441L382.256 13.6787L382.982 12.0111V17.1829H379.26V0.338379Z" fill="#FFBA72"/>
<path d="M358.181 0.338379H361.54L370.99 11.987L372.754 10.7786C372.158 10.118 371.666 9.51385 371.28 8.96606C370.893 8.41827 370.579 7.83021 370.337 7.20186C370.095 6.5574 369.974 5.88878 369.974 5.19598V0.338379H373.72V17.1829H370.627L361.081 5.46182L359.268 6.64601C359.945 7.29047 360.477 7.92687 360.863 8.55522C361.556 9.66691 361.903 10.8833 361.903 12.2045V17.1829H358.181V0.338379Z" fill="#FFBA72"/>
<path d="M348.677 17.4968C346.985 17.4968 345.471 17.1262 344.134 16.3851C342.796 15.6279 341.749 14.5887 340.992 13.2675C340.235 11.9303 339.856 10.4319 339.856 8.77245C339.856 7.11297 340.235 5.62266 340.992 4.30152C341.749 2.98038 342.796 1.94925 344.134 1.20812C345.471 0.450884 346.985 0.0722656 348.677 0.0722656C350.353 0.0722656 351.859 0.450884 353.196 1.20812C354.55 1.94925 355.605 2.98038 356.362 4.30152C357.119 5.62266 357.498 7.11297 357.498 8.77245C357.498 10.4319 357.119 11.9303 356.362 13.2675C355.605 14.5887 354.55 15.6279 353.196 16.3851C351.859 17.1262 350.353 17.4968 348.677 17.4968ZM348.677 14.4276C349.692 14.4276 350.578 14.1859 351.335 13.7026C352.093 13.2192 352.673 12.5506 353.075 11.6967C353.478 10.8428 353.68 9.86803 353.68 8.77245C353.68 7.67687 353.478 6.70213 353.075 5.84822C352.673 4.99432 352.093 4.32569 351.335 3.84235C350.578 3.359 349.692 3.11733 348.677 3.11733C347.662 3.11733 346.776 3.359 346.019 3.84235C345.261 4.32569 344.673 4.99432 344.254 5.84822C343.852 6.70213 343.65 7.67687 343.65 8.77245C343.65 9.86803 343.852 10.8428 344.254 11.6967C344.673 12.5506 345.261 13.2192 346.019 13.7026C346.776 14.1859 347.662 14.4276 348.677 14.4276Z" fill="#FFBA72"/>
<path d="M333.162 17.4968C331.76 17.4968 330.528 17.3196 329.464 16.9651C328.417 16.6107 327.604 16.1032 327.024 15.4426C326.444 14.7659 326.154 13.9926 326.154 13.1225C326.154 12.3331 326.387 11.6725 326.854 11.1408C327.322 10.6092 327.95 10.2064 328.739 9.93247C329.545 9.64247 330.439 9.48941 331.422 9.4733V7.51575C330.31 7.46742 329.336 7.33047 328.498 7.10491C327.66 6.86324 326.991 6.49268 326.492 5.99322C325.992 5.49377 325.743 4.84125 325.743 4.03568C325.743 3.21399 326.009 2.50509 326.54 1.90897C327.072 1.29673 327.837 0.829499 328.836 0.507269C329.835 0.18504 330.995 0.0239258 332.316 0.0239258C333.911 0.0239258 335.361 0.241431 336.666 0.67644C337.971 1.11145 339.228 1.7398 340.436 2.56148L338.769 5.29237C337.963 4.6318 336.98 4.10012 335.82 3.69734C334.676 3.29455 333.549 3.0851 332.437 3.06899C331.519 3.06899 330.818 3.23011 330.334 3.55234C329.851 3.85845 329.609 4.26124 329.609 4.7607C329.609 5.11515 329.73 5.42126 329.972 5.67905C330.214 5.92072 330.552 6.13017 330.987 6.30739C331.438 6.46851 332.01 6.61351 332.703 6.7424L334.709 7.20158C336.417 7.55603 337.754 8.1441 338.72 8.96578C339.703 9.78747 340.195 10.8911 340.195 12.2767C340.195 13.195 339.913 14.057 339.349 14.8626C338.785 15.652 337.971 16.2884 336.908 16.7718C335.845 17.2551 334.596 17.4968 333.162 17.4968ZM333.259 14.8142C333.903 14.8142 334.459 14.7015 334.926 14.4759C335.41 14.2503 335.772 13.9523 336.014 13.5817C336.272 13.2112 336.4 12.8003 336.4 12.3492C336.4 11.8497 336.263 11.4147 335.99 11.0442C335.732 10.6575 335.353 10.3594 334.854 10.15C334.37 9.92442 333.815 9.81164 333.186 9.81164C332.59 9.81164 332.05 9.91636 331.567 10.1258C331.084 10.3353 330.705 10.6333 330.431 11.02C330.157 11.3906 330.02 11.8256 330.02 12.325C330.02 12.7923 330.157 13.2192 330.431 13.6059C330.705 13.9764 331.084 14.2745 331.567 14.5001C332.066 14.7095 332.63 14.8142 333.259 14.8142Z" fill="#FFBA72"/>
<path d="M311.682 0.338379H315.403V3.35928C315.403 3.87484 315.339 4.35013 315.21 4.78514C315.081 5.22015 314.839 5.71155 314.485 6.25934C314.147 6.79102 313.647 7.47575 312.987 8.31355L314.582 9.44941L322.654 0.338379H327.173L319.802 8.19271L319.898 6.86352L327.39 17.1829H322.919L317.458 9.49774L318.497 9.59441L314.678 13.6787L315.403 12.0111V17.1829H311.682V0.338379Z" fill="#FFBA72"/>
<path d="M304.723 17.5212C303.063 17.5212 301.573 17.1587 300.252 16.4337C298.947 15.6926 297.924 14.6614 297.182 13.3403C296.441 12.003 296.071 10.4724 296.071 8.74852C296.071 7.0246 296.441 5.50206 297.182 4.18092C297.94 2.85978 298.987 1.83671 300.324 1.11169C301.678 0.370564 303.208 0 304.916 0C306.253 0 307.437 0.217505 308.469 0.652514C309.5 1.08752 310.45 1.70781 311.32 2.51339L309.435 5.00261C308.839 4.42259 308.195 3.97953 307.502 3.67341C306.809 3.35118 306.028 3.19007 305.158 3.19007C304.127 3.19007 303.2 3.43174 302.378 3.91508C301.573 4.38232 300.945 5.04289 300.493 5.89679C300.042 6.7507 299.817 7.72544 299.817 8.82102C299.817 9.9166 300.042 10.8752 300.493 11.6969C300.961 12.5186 301.597 13.155 302.403 13.6061C303.224 14.0411 304.151 14.2586 305.182 14.2586C306.068 14.2586 306.857 14.0814 307.55 13.727C308.259 13.3725 308.912 12.8731 309.508 12.2286L311.441 14.7903C310.539 15.6764 309.556 16.3531 308.493 16.8204C307.445 17.2876 306.189 17.5212 304.723 17.5212Z" fill="#FFBA72"/>
<path d="M293.488 17.1829L291.675 12.567L292.811 13.3645H283.845L284.981 12.567L283.144 17.1829H279.181L286.358 0.338379H290.273L297.475 17.1829H293.488ZM287.349 3.14177C287.365 3.77012 287.357 4.35819 287.325 4.90598C287.293 5.43765 287.22 5.96933 287.108 6.50101C287.011 7.01658 286.874 7.54826 286.697 8.09605C286.487 8.69217 286.036 9.69914 285.343 11.1169L284.812 10.5611H291.82L291.288 11.1169C290.95 10.4242 290.636 9.71525 290.346 8.99023C289.927 7.97521 289.653 7.03269 289.524 6.16267C289.395 5.27654 289.347 4.26957 289.379 3.14177H287.349Z" fill="#FFBA72"/>
<path d="M273.881 17.5212C272.528 17.5212 271.352 17.2312 270.353 16.6512C269.354 16.0712 268.572 15.2173 268.009 14.0895L270.28 11.7936C270.619 12.5992 271.062 13.2114 271.609 13.6303C272.157 14.0492 272.786 14.2587 273.494 14.2587C274.381 14.2587 275.09 14.017 275.621 13.5337C276.153 13.0342 276.419 12.285 276.419 11.2861V0.338379H280.165V11.7211C280.165 12.9617 279.891 14.0251 279.343 14.9112C278.795 15.7812 278.046 16.4337 277.095 16.8687C276.145 17.3037 275.073 17.5212 273.881 17.5212Z" fill="#FFBA72"/>
<path d="M625.06 0.338379H632.89C635.033 0.338379 636.636 0.716998 637.699 1.47424C638.763 2.21536 639.294 3.33511 639.294 4.83347C639.294 5.75183 639.053 6.51712 638.569 7.12936C638.086 7.74159 637.433 8.20882 636.612 8.53105C635.79 8.85328 634.864 9.04662 633.833 9.11107V11.0444C634.574 11.0767 635.21 11.2378 635.742 11.5278C636.289 11.8017 636.797 12.2528 637.264 12.8811L637.337 12.9778L640.43 17.1829H636.056L633.397 13.3887C633.333 13.292 633.269 13.1953 633.204 13.0987C632.737 12.4381 632.358 11.9709 632.068 11.697C631.794 11.4231 631.488 11.2378 631.15 11.1411C630.812 11.0283 630.32 10.9719 629.676 10.9719H627.863L628.782 10.0778V17.1829H625.06V0.338379ZM627.863 8.60356H632.213C632.954 8.60356 633.567 8.50689 634.05 8.31355C634.549 8.1041 634.92 7.79798 635.162 7.3952C635.419 6.99241 635.548 6.4849 635.548 5.87266C635.548 4.98653 635.274 4.32596 634.727 3.89096C634.179 3.45595 633.341 3.23844 632.213 3.23844H627.863L628.782 2.29592V9.47357L627.863 8.60356Z" fill="#FFBA72"/>
<path d="M620.981 17.1829L619.168 12.567L620.304 13.3645H611.338L612.474 12.567L610.637 17.1829H606.674L613.851 0.338379H617.767L624.968 17.1829H620.981ZM614.842 3.14177C614.858 3.77012 614.85 4.35819 614.818 4.90598C614.786 5.43765 614.713 5.96933 614.601 6.50101C614.504 7.01658 614.367 7.54826 614.19 8.09605C613.98 8.69217 613.529 9.69914 612.836 11.1169L612.305 10.5611H619.313L618.782 11.1169C618.443 10.4242 618.129 9.71525 617.839 8.99023C617.42 7.97521 617.146 7.03269 617.017 6.16267C616.888 5.27654 616.84 4.26957 616.872 3.14177H614.842Z" fill="#FFBA72"/>
<path d="M598.176 17.497C596.807 17.497 595.55 17.1265 594.406 16.3854C593.262 15.6442 592.36 14.6131 591.699 13.292C591.039 11.9547 590.708 10.4402 590.708 8.74852C590.708 7.05682 591.079 5.5504 591.82 4.22926C592.561 2.89201 593.592 1.85282 594.914 1.11169C596.235 0.370564 597.741 0 599.433 0C600.835 0 602.148 0.265839 603.372 0.797517C604.597 1.32919 605.644 2.0381 606.514 2.92423L604.411 5.34095C603.735 4.66427 603.018 4.13259 602.26 3.74591C601.503 3.35924 600.617 3.1659 599.602 3.1659C598.555 3.1659 597.636 3.41563 596.847 3.91508C596.074 4.39843 595.477 5.06705 595.059 5.92096C594.64 6.77487 594.43 7.71739 594.43 8.74852C594.43 9.8441 594.64 10.8269 595.059 11.6969C595.477 12.5508 596.082 13.2195 596.871 13.7028C597.661 14.1861 598.595 14.4278 599.675 14.4278C600.512 14.4278 601.262 14.2425 601.922 13.872C602.583 13.4853 603.09 12.9133 603.445 12.1561C603.799 11.3989 603.928 10.4724 603.831 9.37687L604.774 10.3919H598.974V7.7335H606.804V17.1829H603.662C603.92 16.5706 604.186 16.0067 604.46 15.4912C604.766 14.8628 605.104 14.2748 605.475 13.727L603.469 12.8569C603.324 13.5981 603.05 14.3231 602.647 15.032C602.244 15.7248 601.672 16.3129 600.931 16.7962C600.19 17.2634 599.272 17.497 598.176 17.497Z" fill="#FFBA72"/>
<path d="M574.808 0.338379H581.213C583.114 0.338379 584.765 0.708942 586.167 1.45007C587.569 2.17509 588.64 3.174 589.381 4.4468C590.122 5.71961 590.493 7.16158 590.493 8.77273C590.493 10.3194 590.122 11.7372 589.381 13.0261C588.64 14.299 587.569 15.314 586.167 16.0712C584.765 16.8123 583.114 17.1829 581.213 17.1829H574.808V0.338379ZM577.612 14.1378H580.971C582.147 14.1378 583.162 13.9123 584.016 13.4612C584.886 13.01 585.547 12.3817 585.998 11.5761C586.465 10.7544 586.699 9.81997 586.699 8.77273C586.699 7.72548 586.465 6.79907 585.998 5.9935C585.547 5.17182 584.886 4.53541 584.016 4.08429C583.162 3.61706 582.147 3.38344 580.971 3.38344H577.612L578.53 2.48926V15.0562L577.612 14.1378Z" fill="#FFBA72"/>
<path d="M560.646 0.338379H573.962V3.38344H563.449L564.368 2.51342V8.09605L563.449 7.25019H573.213V10.1261H563.449L564.368 9.32857V15.0562L563.449 14.1378H574.252V17.1829H560.646V0.338379Z" fill="#FFBA72"/>
<path d="M545.994 10.8269L539.686 0.338379H543.794C544.616 1.67563 545.236 2.81149 545.655 3.74595C546.09 4.6643 546.388 5.55044 546.55 6.40434C546.727 7.24214 546.815 8.22494 546.815 9.35274H548.942C548.942 8.22494 549.023 7.23408 549.184 6.38017C549.361 5.52627 549.659 4.64014 550.078 3.72178C550.497 2.80343 551.117 1.67563 551.939 0.338379H556.071L549.74 10.8269V17.1829H545.994V10.8269Z" fill="#FFBA72"/>
<path d="M521.699 0.338379H526.92C527.371 1.41785 527.773 2.41676 528.128 3.33511C528.482 4.23735 528.756 5.05098 528.95 5.77599C529.191 6.59768 529.369 7.37103 529.481 8.09605C529.594 8.80495 529.65 9.52996 529.65 10.2711H531.608C531.608 9.44941 531.681 8.62772 531.826 7.80604C531.971 6.96824 532.196 6.08211 532.502 5.14765C532.808 4.21318 533.235 3.06927 533.783 1.71591C533.864 1.49035 534.049 1.03117 534.339 0.338379H539.583V17.1829H535.861C535.861 15.7007 535.886 14.2265 535.934 12.7603C535.998 11.3908 536.103 10.2791 536.248 9.42524C536.409 8.55522 536.619 7.77382 536.876 7.08102C537.134 6.38823 537.497 5.5746 537.964 4.64014L536.031 3.93929L532.043 14.1862H529.191L525.228 3.93929L523.319 4.71264C523.786 5.6471 524.148 6.45268 524.406 7.12936C524.664 7.80604 524.865 8.56328 525.01 9.40107C525.171 10.2228 525.284 11.2942 525.349 12.6153C525.397 14.1298 525.421 15.6523 525.421 17.1829H521.699V0.338379Z" fill="#FFBA72"/>
<path d="M502.746 0.338379H507.966C508.417 1.41785 508.82 2.41676 509.174 3.33511C509.529 4.23735 509.802 5.05098 509.996 5.77599C510.237 6.59768 510.415 7.37103 510.527 8.09605C510.64 8.80495 510.697 9.52996 510.697 10.2711H512.654C512.654 9.44941 512.727 8.62772 512.872 7.80604C513.017 6.96824 513.242 6.08211 513.548 5.14765C513.854 4.21318 514.281 3.06927 514.829 1.71591C514.91 1.49035 515.095 1.03117 515.385 0.338379H520.629V17.1829H516.908C516.908 15.7007 516.932 14.2265 516.98 12.7603C517.045 11.3908 517.149 10.2791 517.294 9.42524C517.455 8.55522 517.665 7.77382 517.923 7.08102C518.18 6.38823 518.543 5.5746 519.01 4.64014L517.077 3.93929L513.089 14.1862H510.237L506.274 3.93929L504.365 4.71264C504.832 5.6471 505.195 6.45268 505.452 7.12936C505.71 7.80604 505.912 8.56328 506.057 9.40107C506.218 10.2228 506.33 11.2942 506.395 12.6153C506.443 14.1298 506.467 15.6523 506.467 17.1829H502.746V0.338379Z" fill="#FFBA72"/>
<path d="M497.953 0.338379H501.675V17.1829H497.953V0.338379Z" fill="#FFBA72"/>
<path d="M490.743 17.5212C489.389 17.5212 488.213 17.2312 487.214 16.6512C486.215 16.0712 485.434 15.2173 484.87 14.0895L487.142 11.7936C487.48 12.5992 487.923 13.2114 488.471 13.6303C489.019 14.0492 489.647 14.2587 490.356 14.2587C491.242 14.2587 491.951 14.017 492.483 13.5337C493.014 13.0342 493.28 12.285 493.28 11.2861V0.338379H497.026V11.7211C497.026 12.9617 496.752 14.0251 496.205 14.9112C495.657 15.7812 494.908 16.4337 493.957 16.8687C493.006 17.3037 491.935 17.5212 490.743 17.5212Z" fill="#FFBA72"/>
</svg>
