<svg width="641" height="18" viewBox="0 0 641 18" fill="none" xmlns="http://www.w3.org/2000/svg">
<path d="M190.485 0.412109H196.889C198.791 0.412109 200.442 0.782673 201.844 1.5238C203.245 2.24882 204.317 3.24773 205.058 4.52053C205.799 5.79334 206.17 7.23531 206.17 8.84646C206.17 10.3932 205.799 11.811 205.058 13.0999C204.317 14.3727 203.245 15.3877 201.844 16.1449C200.442 16.8861 198.791 17.2566 196.889 17.2566H190.485V0.412109ZM193.289 14.2116H196.648C197.824 14.2116 198.839 13.986 199.693 13.5349C200.563 13.0838 201.223 12.4554 201.675 11.6499C202.142 10.8282 202.375 9.8937 202.375 8.84646C202.375 7.79921 202.142 6.8728 201.675 6.06723C201.223 5.24555 200.563 4.60914 199.693 4.15802C198.839 3.69079 197.824 3.45717 196.648 3.45717H193.289L194.207 2.56299V15.1299L193.289 14.2116Z" fill="#FFBA72"/>
<path d="M173.892 0.412109H177.251L186.7 12.0607L188.464 10.8523C187.868 10.1918 187.377 9.58758 186.99 9.03979C186.604 8.492 186.289 7.90394 186.048 7.27559C185.806 6.63113 185.685 5.96251 185.685 5.26971V0.412109H189.431V17.2566H186.338L176.792 5.53555L174.979 6.71974C175.656 7.3642 176.187 8.0006 176.574 8.62895C177.267 9.74064 177.613 10.9571 177.613 12.2782V17.2566H173.892V0.412109Z" fill="#FFBA72"/>
<path d="M169.812 17.2566L168 12.6407L169.136 13.4382H160.17L161.305 12.6407L159.469 17.2566H155.505L162.683 0.412109H166.598L173.8 17.2566H169.812ZM163.674 3.2155C163.69 3.84385 163.682 4.43192 163.65 4.97971C163.617 5.51139 163.545 6.04306 163.432 6.57474C163.336 7.09031 163.199 7.62199 163.021 8.16978C162.812 8.7659 162.361 9.77287 161.668 11.1907L161.136 10.6348H168.145L167.613 11.1907C167.275 10.4979 166.961 9.78898 166.671 9.06396C166.252 8.04894 165.978 7.10642 165.849 6.2364C165.72 5.35027 165.672 4.3433 165.704 3.2155H163.674Z" fill="#FFBA72"/>
<path d="M143.608 0.412109H147.33V15.1299L146.411 14.2116H156.392V17.2566H143.608V0.412109Z" fill="#FFBA72"/>
<path d="M130.744 0.412109H134.465V15.1299L133.547 14.2116H143.528V17.2566H130.744V0.412109Z" fill="#FFBA72"/>
<path d="M121.24 17.57C119.549 17.57 118.034 17.1995 116.697 16.4584C115.36 15.7011 114.313 14.6619 113.555 13.3408C112.798 12.0035 112.419 10.5052 112.419 8.84569C112.419 7.18621 112.798 5.6959 113.555 4.37476C114.313 3.05363 115.36 2.02249 116.697 1.28136C118.034 0.524127 119.549 0.145508 121.24 0.145508C122.916 0.145508 124.422 0.524127 125.76 1.28136C127.113 2.02249 128.168 3.05363 128.926 4.37476C129.683 5.6959 130.061 7.18621 130.061 8.84569C130.061 10.5052 129.683 12.0035 128.926 13.3408C128.168 14.6619 127.113 15.7011 125.76 16.4584C124.422 17.1995 122.916 17.57 121.24 17.57ZM121.24 14.5008C122.255 14.5008 123.142 14.2591 123.899 13.7758C124.656 13.2925 125.236 12.6238 125.639 11.7699C126.042 10.916 126.243 9.94127 126.243 8.84569C126.243 7.75012 126.042 6.77537 125.639 5.92147C125.236 5.06756 124.656 4.39893 123.899 3.91559C123.142 3.43224 122.255 3.19057 121.24 3.19057C120.225 3.19057 119.339 3.43224 118.582 3.91559C117.825 4.39893 117.237 5.06756 116.818 5.92147C116.415 6.77537 116.214 7.75012 116.214 8.84569C116.214 9.94127 116.415 10.916 116.818 11.7699C117.237 12.6238 117.825 13.2925 118.582 13.7758C119.339 14.2591 120.225 14.5008 121.24 14.5008Z" fill="#FFBA72"/>
<path d="M107.986 0.412109H111.731V17.2566H107.986V0.412109ZM97.0378 0.412109H100.76V17.2566H97.0378V0.412109ZM100.445 7.20309H108.324V10.2482H100.445V7.20309Z" fill="#FFBA72"/>
<path d="M76.8323 0.412109H80.554V3.43301C80.554 3.94857 80.4896 4.42386 80.3607 4.85887C80.2318 5.29388 79.9901 5.78528 79.6357 6.33307C79.2973 6.86475 78.7979 7.54948 78.1373 8.38728L79.7323 9.52314L87.8042 0.412109H92.3234L84.9524 8.26644L85.0491 6.93725L92.5409 17.2566H88.07L82.6082 9.57147L83.6474 9.66814L79.829 13.7524L80.554 12.0849V17.2566H76.8323V0.412109Z" fill="#FFBA72"/>
<path d="M69.8733 17.5945C68.2138 17.5945 66.7235 17.2319 65.4024 16.5069C64.0973 15.7658 63.0743 14.7347 62.3331 13.4135C61.592 12.0763 61.2214 10.5457 61.2214 8.82176C61.2214 7.09784 61.592 5.5753 62.3331 4.25416C63.0904 2.93303 64.1376 1.90995 65.4749 1.18493C66.8282 0.443806 68.3588 0.0732422 70.0666 0.0732422C71.4039 0.0732422 72.5881 0.290747 73.6192 0.725757C74.6503 1.16077 75.6009 1.78106 76.4709 2.58663L74.5859 5.07585C73.9898 4.49584 73.3453 4.05277 72.6525 3.74665C71.9597 3.42443 71.1783 3.26331 70.3083 3.26331C69.2772 3.26331 68.3508 3.50498 67.5291 3.98833C66.7235 4.45556 66.0952 5.11613 65.644 5.97004C65.1929 6.82394 64.9674 7.79869 64.9674 8.89426C64.9674 9.98984 65.1929 10.9485 65.644 11.7702C66.1113 12.5918 66.7477 13.2282 67.5532 13.6794C68.3749 14.1144 69.3013 14.3319 70.3325 14.3319C71.2186 14.3319 72.0081 14.1547 72.7008 13.8002C73.4098 13.4458 74.0623 12.9463 74.6584 12.3018L76.5918 14.8636C75.6895 15.7497 74.7067 16.4264 73.6434 16.8936C72.5961 17.3608 71.3394 17.5945 69.8733 17.5945Z" fill="#FFBA72"/>
<path d="M56.7913 0.412109H60.513V17.2566H56.7913V0.412109Z" fill="#FFBA72"/>
<path d="M41.3547 0.412109H49.1849C51.3277 0.412109 52.9308 0.790729 53.9942 1.54797C55.0575 2.28909 55.5892 3.40884 55.5892 4.9072C55.5892 5.82556 55.3475 6.59085 54.8642 7.20309C54.3808 7.81532 53.7283 8.28256 52.9066 8.60478C52.085 8.92701 51.1586 9.12035 50.1274 9.1848V11.1182C50.8685 11.1504 51.505 11.3115 52.0366 11.6015C52.5844 11.8754 53.0919 12.3265 53.5592 12.9549L53.6317 13.0515L56.7251 17.2566H52.3508L49.6924 13.4624C49.628 13.3657 49.5635 13.2691 49.4991 13.1724C49.0318 12.5118 48.6532 12.0446 48.3632 11.7707C48.0893 11.4968 47.7832 11.3115 47.4449 11.2148C47.1065 11.1021 46.6151 11.0457 45.9707 11.0457H44.1581L45.0765 10.1515V17.2566H41.3547V0.412109ZM44.1581 8.67729H48.5082C49.2493 8.67729 49.8616 8.58062 50.3449 8.38728C50.8444 8.17783 51.2149 7.87171 51.4566 7.46893C51.7144 7.06614 51.8433 6.55863 51.8433 5.94639C51.8433 5.06027 51.5694 4.3997 51.0216 3.96469C50.4738 3.52968 49.636 3.31217 48.5082 3.31217H44.1581L45.0765 2.36965V9.5473L44.1581 8.67729Z" fill="#FFBA72"/>
<path d="M31.9261 2.53882L32.772 3.45717H26.3435V0.412109H41.2547V3.45717H34.8262L35.672 2.53882V17.2566H31.9261V2.53882Z" fill="#FFBA72"/>
<path d="M25.9691 17.2566L24.1565 12.6407L25.2924 13.4382H16.3264L17.4622 12.6407L15.6255 17.2566H11.6621L18.8398 0.412109H22.7548L29.9567 17.2566H25.9691ZM19.8306 3.2155C19.8467 3.84385 19.8387 4.43192 19.8065 4.97971C19.7742 5.51139 19.7017 6.04306 19.5889 6.57474C19.4923 7.09031 19.3553 7.62199 19.1781 8.16978C18.9687 8.7659 18.5175 9.77287 17.8247 11.1907L17.2931 10.6348H24.3015L23.7699 11.1907C23.4315 10.4979 23.1174 9.78898 22.8274 9.06396C22.4085 8.04894 22.1346 7.10642 22.0057 6.2364C21.8768 5.35027 21.8284 4.3433 21.8607 3.2155H19.8306Z" fill="#FFBA72"/>
<path d="M0 0.412109H7.54016C8.97408 0.412109 10.1986 0.63767 11.2136 1.08879C12.2447 1.5238 13.0261 2.16826 13.5578 3.02216C14.1056 3.87607 14.3795 4.89915 14.3795 6.0914C14.3795 7.91199 13.7753 9.34591 12.5669 10.3932C11.3586 11.4404 9.68299 11.964 7.54016 11.964H2.80339L3.72175 11.1182V17.2566H0V0.412109ZM2.80339 9.06396H7.08099C8.24101 9.06396 9.12714 8.82229 9.73938 8.33895C10.3516 7.83949 10.6577 7.12253 10.6577 6.18807C10.6577 5.30194 10.3516 4.62526 9.73938 4.15802C9.12714 3.69079 8.23295 3.45717 7.05682 3.45717H2.80339L3.72175 2.61132V9.88565L2.80339 9.06396Z" fill="#FFBA72"/>
<path d="M458.855 17.6675C457.437 17.6675 456.191 17.4883 455.116 17.1299C454.057 16.7715 453.234 16.2584 452.648 15.5904C452.061 14.9062 451.768 14.1242 451.768 13.2445C451.768 12.4463 452.004 11.7784 452.477 11.2408C452.949 10.7032 453.585 10.2959 454.383 10.0189C455.197 9.72568 456.101 9.57092 457.095 9.55463V7.57528C455.971 7.5264 454.986 7.38795 454.138 7.15987C453.291 6.91551 452.615 6.54082 452.11 6.0358C451.605 5.53078 451.353 4.87099 451.353 4.05644C451.353 3.22561 451.621 2.5088 452.159 1.90603C452.697 1.28698 453.471 0.814543 454.481 0.488724C455.491 0.162905 456.664 0 457.999 0C459.612 0 461.078 0.21993 462.398 0.659785C463.718 1.09964 464.988 1.73498 466.21 2.56582L464.524 5.32713C463.709 4.6592 462.716 4.12161 461.543 3.71434C460.386 3.30706 459.246 3.09527 458.122 3.07898C457.193 3.07898 456.484 3.24189 455.996 3.56771C455.507 3.87724 455.263 4.28452 455.263 4.78954C455.263 5.14794 455.385 5.45746 455.629 5.71812C455.873 5.96248 456.216 6.17426 456.655 6.35346C457.112 6.51637 457.69 6.663 458.39 6.79332L460.419 7.25761C462.145 7.61601 463.498 8.21064 464.475 9.04147C465.469 9.87231 465.966 10.9882 465.966 12.3893C465.966 13.3178 465.681 14.1894 465.11 15.004C464.54 15.8022 463.718 16.4457 462.642 16.9344C461.567 17.4231 460.305 17.6675 458.855 17.6675ZM458.952 14.9551C459.604 14.9551 460.166 14.841 460.639 14.613C461.127 14.3849 461.494 14.0835 461.738 13.7088C461.999 13.3341 462.129 12.9187 462.129 12.4626C462.129 11.9575 461.991 11.5177 461.714 11.143C461.453 10.752 461.07 10.4506 460.565 10.2389C460.077 10.0108 459.514 9.89676 458.879 9.89676C458.276 9.89676 457.731 10.0026 457.242 10.2144C456.753 10.4262 456.37 10.7276 456.093 11.1186C455.816 11.4932 455.678 11.9331 455.678 12.4381C455.678 12.9106 455.816 13.3423 456.093 13.7333C456.37 14.108 456.753 14.4093 457.242 14.6374C457.747 14.8492 458.317 14.9551 458.952 14.9551Z" fill="#FFBA72"/>
<path d="M434.868 0.317662H438.264L447.819 12.096L449.603 10.8742C449 10.2063 448.503 9.59535 448.112 9.04146C447.721 8.48756 447.404 7.89294 447.159 7.2576C446.915 6.60596 446.793 5.9299 446.793 5.22939V0.317662H450.58V17.3498H447.453L437.8 5.49818L435.967 6.69557C436.652 7.3472 437.189 7.99069 437.58 8.62604C438.281 9.75011 438.631 10.9801 438.631 12.3159V17.3498H434.868V0.317662Z" fill="#FFBA72"/>
<path d="M419.259 0.317662H427.176C429.343 0.317662 430.964 0.700498 432.039 1.46617C433.115 2.21555 433.652 3.34776 433.652 4.86282C433.652 5.7914 433.408 6.56524 432.919 7.1843C432.43 7.80336 431.771 8.27579 430.94 8.60161C430.109 8.92743 429.172 9.1229 428.13 9.18806V11.143C428.879 11.1756 429.522 11.3385 430.06 11.6317C430.614 11.9087 431.127 12.3648 431.6 13.0002L431.673 13.0979L434.801 17.3498H430.378L427.69 13.5133C427.625 13.4156 427.559 13.3178 427.494 13.2201C427.022 12.5521 426.639 12.0797 426.346 11.8028C426.069 11.5258 425.759 11.3385 425.417 11.2407C425.075 11.1267 424.578 11.0697 423.926 11.0697H422.094L423.022 10.1655V17.3498H419.259V0.317662ZM422.094 8.67491H426.492C427.242 8.67491 427.861 8.57716 428.35 8.38167C428.855 8.16989 429.229 7.86037 429.474 7.45309C429.734 7.04582 429.865 6.53265 429.865 5.9136C429.865 5.0176 429.588 4.34967 429.034 3.90982C428.48 3.46996 427.633 3.25003 426.492 3.25003H422.094L423.022 2.29701V9.55461L422.094 8.67491Z" fill="#FFBA72"/>
<path d="M415.135 17.3498L413.302 12.6825L414.45 13.4889H405.385L406.533 12.6825L404.676 17.3498H400.668L407.926 0.317662H411.885L419.167 17.3498H415.135ZM408.928 3.15229C408.944 3.78764 408.936 4.38226 408.903 4.93615C408.871 5.47375 408.797 6.01134 408.683 6.54894C408.586 7.07025 408.447 7.60786 408.268 8.16175C408.056 8.76451 407.6 9.78269 406.9 11.2163L406.362 10.6543H413.449L412.911 11.2163C412.569 10.5158 412.251 9.79897 411.958 9.06588C411.534 8.03955 411.257 7.08655 411.127 6.20683C410.997 5.31083 410.948 4.29266 410.98 3.15229H408.928Z" fill="#FFBA72"/>
<path d="M387.326 0.317662H400.79V3.39664H390.16L391.089 2.51695V8.16175L390.16 7.30647H400.033V10.2144H390.16L391.089 9.408V15.1994L390.16 14.2709H401.083V17.3498H387.326V0.317662Z" fill="#FFBA72"/>
<path d="M377.792 2.46806L378.647 3.39664H372.147V0.317662H387.225V3.39664H380.725L381.58 2.46806V17.3498H377.792V2.46806Z" fill="#FFBA72"/>
<path d="M365.632 17.6675C364.214 17.6675 362.968 17.4883 361.893 17.1299C360.834 16.7715 360.011 16.2584 359.425 15.5904C358.838 14.9062 358.545 14.1242 358.545 13.2445C358.545 12.4463 358.781 11.7784 359.254 11.2408C359.726 10.7032 360.362 10.2959 361.16 10.0189C361.974 9.72568 362.879 9.57092 363.872 9.55463V7.57528C362.748 7.5264 361.763 7.38795 360.915 7.15987C360.068 6.91551 359.392 6.54082 358.887 6.0358C358.382 5.53078 358.13 4.87099 358.13 4.05644C358.13 3.22561 358.399 2.5088 358.936 1.90603C359.474 1.28698 360.247 0.814543 361.258 0.488724C362.268 0.162905 363.441 0 364.776 0C366.389 0 367.855 0.21993 369.175 0.659785C370.495 1.09964 371.765 1.73498 372.987 2.56582L371.301 5.32713C370.486 4.6592 369.493 4.12161 368.32 3.71434C367.163 3.30706 366.023 3.09527 364.899 3.07898C363.97 3.07898 363.261 3.24189 362.773 3.56771C362.284 3.87724 362.04 4.28452 362.04 4.78954C362.04 5.14794 362.162 5.45746 362.406 5.71812C362.65 5.96248 362.993 6.17426 363.432 6.35346C363.889 6.51637 364.467 6.663 365.167 6.79332L367.196 7.25761C368.922 7.61601 370.275 8.21064 371.252 9.04147C372.246 9.87231 372.743 10.9882 372.743 12.3893C372.743 13.3178 372.458 14.1894 371.887 15.004C371.317 15.8022 370.495 16.4457 369.419 16.9344C368.344 17.4231 367.082 17.6675 365.632 17.6675ZM365.729 14.9551C366.381 14.9551 366.943 14.841 367.416 14.613C367.904 14.3849 368.271 14.0835 368.515 13.7088C368.776 13.3341 368.906 12.9187 368.906 12.4626C368.906 11.9575 368.768 11.5177 368.491 11.143C368.23 10.752 367.847 10.4506 367.342 10.2389C366.854 10.0108 366.291 9.89676 365.656 9.89676C365.053 9.89676 364.508 10.0026 364.019 10.2144C363.53 10.4262 363.147 10.7276 362.87 11.1186C362.593 11.4932 362.455 11.9331 362.455 12.4381C362.455 12.9106 362.593 13.3423 362.87 13.7333C363.147 14.108 363.53 14.4093 364.019 14.6374C364.524 14.8492 365.094 14.9551 365.729 14.9551Z" fill="#FFBA72"/>
<path d="M337.443 0.317662H343.919C345.841 0.317662 347.511 0.692345 348.928 1.44173C350.345 2.17482 351.429 3.18486 352.178 4.47184C352.927 5.75883 353.302 7.21687 353.302 8.84596C353.302 10.4099 352.927 11.8435 352.178 13.1468C351.429 14.4338 350.345 15.4601 348.928 16.2258C347.511 16.9751 345.841 17.3498 343.919 17.3498H337.443V0.317662ZM340.278 14.2709H343.674C344.863 14.2709 345.89 14.0428 346.753 13.5866C347.633 13.1305 348.301 12.4951 348.757 11.6806C349.229 10.8498 349.466 9.90487 349.466 8.84596C349.466 7.78705 349.229 6.85033 348.757 6.03578C348.301 5.20494 347.633 4.56146 346.753 4.10531C345.89 3.63288 344.863 3.39664 343.674 3.39664H340.278L341.206 2.49251V15.1994L340.278 14.2709Z" fill="#FFBA72"/>
<path d="M317.775 0.317662H325.4C326.85 0.317662 328.088 0.545736 329.114 1.00188C330.157 1.44174 330.947 2.09338 331.484 2.9568C332.038 3.82022 332.315 4.8547 332.315 6.06023C332.315 7.9011 331.704 9.35099 330.482 10.4099C329.261 11.4688 327.566 11.9983 325.4 11.9983H320.61L321.539 11.143V17.3498H317.775V0.317662ZM320.61 9.06588H324.935C326.108 9.06588 327.004 8.82153 327.623 8.3328C328.242 7.82778 328.552 7.10284 328.552 6.15797C328.552 5.26196 328.242 4.57775 327.623 4.10531C327.004 3.63288 326.1 3.39664 324.911 3.39664H320.61L321.539 2.54138V9.89674L320.61 9.06588Z" fill="#FFBA72"/>
<path d="M312.929 0.317662H316.692V17.3498H312.929V0.317662Z" fill="#FFBA72"/>
<path d="M299.922 0.317662H303.685V15.1994L302.756 14.2709H312.848V17.3498H299.922V0.317662Z" fill="#FFBA72"/>
<path d="M286.914 0.317662H290.677V15.1994L289.749 14.2709H299.841V17.3498H286.914V0.317662Z" fill="#FFBA72"/>
<path d="M282.068 0.317662H285.831V17.3498H282.068V0.317662Z" fill="#FFBA72"/>
<path d="M277.219 0.317662H281.006V17.3498H277.219V0.317662ZM266.149 0.317662H269.912V17.3498H266.149V0.317662ZM269.594 7.1843H277.561V10.2633H269.594V7.1843Z" fill="#FFBA72"/>
<path d="M251.017 0.317662H258.642C260.091 0.317662 261.33 0.545736 262.356 1.00188C263.398 1.44174 264.189 2.09338 264.726 2.9568C265.28 3.82022 265.557 4.8547 265.557 6.06023C265.557 7.9011 264.946 9.35099 263.724 10.4099C262.502 11.4688 260.808 11.9983 258.642 11.9983H253.852L254.781 11.143V17.3498H251.017V0.317662ZM253.852 9.06588H258.177C259.35 9.06588 260.246 8.82153 260.865 8.3328C261.484 7.82778 261.794 7.10284 261.794 6.15797C261.794 5.26196 261.484 4.57775 260.865 4.10531C260.246 3.63288 259.342 3.39664 258.153 3.39664H253.852L254.781 2.54138V9.89674L253.852 9.06588Z" fill="#FFBA72"/>
<path d="M627.503 0.293206H631.267V15.175L630.338 14.2464H640.43V17.3254H627.503V0.293206Z" fill="#FFBA72"/>
<path d="M617.894 17.6431C616.184 17.6431 614.652 17.2684 613.3 16.519C611.948 15.7533 610.889 14.7025 610.123 13.3667C609.358 12.0145 608.975 10.4995 608.975 8.82152C608.975 7.14356 609.358 5.63665 610.123 4.30079C610.889 2.96493 611.948 1.92231 613.3 1.17292C614.652 0.40725 616.184 0.0244141 617.894 0.0244141C619.588 0.0244141 621.112 0.40725 622.464 1.17292C623.832 1.92231 624.899 2.96493 625.665 4.30079C626.431 5.63665 626.813 7.14356 626.813 8.82152C626.813 10.4995 626.431 12.0145 625.665 13.3667C624.899 14.7025 623.832 15.7533 622.464 16.519C621.112 17.2684 619.588 17.6431 617.894 17.6431ZM617.894 14.5396C618.921 14.5396 619.816 14.2953 620.582 13.8065C621.348 13.3178 621.934 12.6417 622.342 11.7783C622.749 10.9149 622.952 9.92931 622.952 8.82152C622.952 7.71374 622.749 6.72814 622.342 5.86472C621.934 5.0013 621.348 4.32522 620.582 3.83649C619.816 3.34776 618.921 3.10341 617.894 3.10341C616.868 3.10341 615.972 3.34776 615.206 3.83649C614.44 4.32522 613.846 5.0013 613.422 5.86472C613.015 6.72814 612.811 7.71374 612.811 8.82152C612.811 9.92931 613.015 10.9149 613.422 11.7783C613.846 12.6417 614.44 13.3178 615.206 13.8065C615.972 14.2953 616.868 14.5396 617.894 14.5396Z" fill="#FFBA72"/>
<path d="M599.732 17.6431C598.021 17.6431 596.49 17.2684 595.138 16.519C593.786 15.7533 592.727 14.7025 591.961 13.3667C591.195 12.0145 590.813 10.4995 590.813 8.82152C590.813 7.14356 591.195 5.63665 591.961 4.30079C592.727 2.96493 593.786 1.92231 595.138 1.17292C596.49 0.40725 598.021 0.0244141 599.732 0.0244141C601.426 0.0244141 602.949 0.40725 604.302 1.17292C605.67 1.92231 606.737 2.96493 607.503 4.30079C608.268 5.63665 608.651 7.14356 608.651 8.82152C608.651 10.4995 608.268 12.0145 607.503 13.3667C606.737 14.7025 605.67 15.7533 604.302 16.519C602.949 17.2684 601.426 17.6431 599.732 17.6431ZM599.732 14.5396C600.758 14.5396 601.654 14.2953 602.42 13.8065C603.186 13.3178 603.772 12.6417 604.179 11.7783C604.587 10.9149 604.79 9.92931 604.79 8.82152C604.79 7.71374 604.587 6.72814 604.179 5.86472C603.772 5.0013 603.186 4.32522 602.42 3.83649C601.654 3.34776 600.758 3.10341 599.732 3.10341C598.706 3.10341 597.81 3.34776 597.044 3.83649C596.278 4.32522 595.684 5.0013 595.26 5.86472C594.853 6.72814 594.649 7.71374 594.649 8.82152C594.649 9.92931 594.853 10.9149 595.26 11.7783C595.684 12.6417 596.278 13.3178 597.044 13.8065C597.81 14.2953 598.706 14.5396 599.732 14.5396Z" fill="#FFBA72"/>
<path d="M578.315 0.293206H591.437V3.37219H581.149L582.078 2.49249V8.13729L581.149 7.30645H590.557V10.3854H581.149L582.078 9.38355V17.3254H578.315V0.293206Z" fill="#FFBA72"/>
<path d="M565.307 0.293206H569.07V15.175L568.142 14.2464H578.234V17.3254H565.307V0.293206Z" fill="#FFBA72"/>
<path d="M550.987 0.293206H564.452V3.37219H553.822L554.75 2.49249V8.13729L553.822 7.28201H563.694V10.19H553.822L554.75 9.38355V15.175L553.822 14.2464H564.745V17.3254H550.987V0.293206Z" fill="#FFBA72"/>
<path d="M540.852 8.01511V9.35911L534.621 0.293206H539.019C540.046 1.80826 540.73 2.9975 541.072 3.86092C541.43 4.70805 541.61 5.65293 541.61 6.69555H543.711C543.711 5.89729 543.809 5.22121 544.004 4.66732C544.167 4.11343 544.428 3.50252 544.786 2.83459C545.145 2.16666 545.674 1.31954 546.375 0.293206H550.675L544.444 9.2858V7.96624L550.92 17.3254H546.521C545.739 16.3153 545.145 15.4682 544.737 14.784C544.347 14.0998 544.069 13.4726 543.907 12.9024C543.744 12.3159 543.662 11.6643 543.662 10.9475H541.561C541.561 11.648 541.479 12.2833 541.316 12.8535C541.153 13.4237 540.868 14.0509 540.461 14.7351C540.07 15.4193 539.484 16.2828 538.702 17.3254H534.401L540.852 8.01511Z" fill="#FFBA72"/>
<path d="M529.757 9.35911C529.757 8.121 529.96 7.06209 530.368 6.18238C530.775 5.28638 531.386 4.44739 532.2 3.66543L530.563 2.49249C530.335 3.16041 529.96 3.7876 529.439 4.37408C528.918 4.94426 528.323 5.44114 527.655 5.86471C526.987 6.27198 526.311 6.56522 525.627 6.74442L525.334 3.73873C526.246 3.55953 527.044 3.33146 527.728 3.05451C528.413 2.77757 529.007 2.45989 529.512 2.10149C530.034 1.7268 530.531 1.29509 531.003 0.806365H533.544V17.3254H529.757V9.35911Z" fill="#FFBA72"/>
<path d="M511.057 0.293206H518.682C520.131 0.293206 521.37 0.521272 522.396 0.977418C523.438 1.41727 524.229 2.06891 524.766 2.93233C525.32 3.79575 525.597 4.83023 525.597 6.03576C525.597 7.87664 524.986 9.32653 523.764 10.3854C522.542 11.4444 520.848 11.9738 518.682 11.9738H513.892L514.821 11.1185V17.3254H511.057V0.293206ZM513.892 9.04144H518.217C519.39 9.04144 520.286 8.79707 520.905 8.30835C521.524 7.80333 521.834 7.07838 521.834 6.1335C521.834 5.2375 521.524 4.55329 520.905 4.08085C520.286 3.60841 519.382 3.37219 518.193 3.37219H513.892L514.821 2.51692V9.87228L513.892 9.04144Z" fill="#FFBA72"/>
</svg>
