<svg width="641" height="18" viewBox="0 0 641 18" fill="none" xmlns="http://www.w3.org/2000/svg">
<path d="M170.271 0.31768H174.034V17.3499H170.271V0.31768Z" fill="#FFBA72"/>
<path d="M153.041 0.31768H156.975C157.285 1.13223 157.578 1.8979 157.855 2.6147C158.637 4.87914 159.215 6.60597 159.59 7.79521C159.964 8.96815 160.225 10.0189 160.372 10.9475C160.518 11.8761 160.592 13.0083 160.592 14.3442H162.62C162.62 13.0409 162.693 11.9331 162.84 11.0208C162.986 10.0922 163.239 9.05779 163.597 7.91743C163.972 6.76077 164.518 5.09907 165.235 2.93238C165.577 2.06896 165.919 1.19739 166.261 0.31768H170.195L163.842 17.3499H159.394L153.041 0.31768Z" fill="#FFBA72"/>
<path d="M146.764 17.6675C145.346 17.6675 144.1 17.4883 143.025 17.1299C141.966 16.7715 141.143 16.2584 140.557 15.5904C139.97 14.9062 139.677 14.1242 139.677 13.2445C139.677 12.4463 139.913 11.7784 140.386 11.2408C140.858 10.7032 141.494 10.2959 142.292 10.0189C143.106 9.72567 144.011 9.57093 145.004 9.55464V7.57532C143.88 7.52645 142.895 7.38796 142.047 7.15988C141.2 6.91552 140.524 6.54079 140.019 6.03577C139.514 5.53075 139.262 4.871 139.262 4.05645C139.262 3.22561 139.531 2.50882 140.068 1.90606C140.606 1.28701 141.38 0.814552 142.39 0.488733C143.4 0.162914 144.573 0 145.908 0C147.521 0 148.987 0.21993 150.307 0.659785C151.627 1.09964 152.897 1.73501 154.119 2.56585L152.433 5.32714C151.618 4.65921 150.625 4.12162 149.452 3.71435C148.295 3.30707 147.155 3.09531 146.031 3.07902C145.102 3.07902 144.393 3.24188 143.905 3.5677C143.416 3.87723 143.172 4.28453 143.172 4.78955C143.172 5.14795 143.294 5.45749 143.538 5.71815C143.782 5.96251 144.125 6.17427 144.564 6.35347C145.021 6.51638 145.599 6.66299 146.299 6.79332L148.328 7.25762C150.054 7.61602 151.407 8.21064 152.384 9.04148C153.378 9.87232 153.875 10.9882 153.875 12.3892C153.875 13.3178 153.59 14.1894 153.019 15.004C152.449 15.8022 151.627 16.4457 150.551 16.9344C149.476 17.4232 148.214 17.6675 146.764 17.6675ZM146.861 14.9551C147.513 14.9551 148.075 14.841 148.548 14.6129C149.036 14.3849 149.403 14.0835 149.647 13.7088C149.908 13.3341 150.038 12.9187 150.038 12.4626C150.038 11.9576 149.9 11.5177 149.623 11.143C149.362 10.752 148.979 10.4507 148.474 10.2389C147.985 10.0108 147.423 9.89676 146.788 9.89676C146.185 9.89676 145.64 10.0027 145.151 10.2144C144.662 10.4262 144.279 10.7276 144.002 11.1186C143.725 11.4933 143.587 11.9331 143.587 12.4381C143.587 12.9106 143.725 13.3423 144.002 13.7333C144.279 14.1079 144.662 14.4094 145.151 14.6374C145.656 14.8492 146.226 14.9551 146.861 14.9551Z" fill="#FFBA72"/>
<path d="M130.471 17.6675C128.76 17.6675 127.229 17.2928 125.876 16.5434C124.524 15.7778 123.465 14.727 122.7 13.3912C121.934 12.039 121.551 10.524 121.551 8.846C121.551 7.16804 121.934 5.6611 122.7 4.32524C123.465 2.98939 124.524 1.94675 125.876 1.19737C127.229 0.431696 128.76 0.0488873 130.471 0.0488873C132.165 0.0488873 133.688 0.431696 135.04 1.19737C136.409 1.94675 137.476 2.98939 138.241 4.32524C139.007 5.6611 139.39 7.16804 139.39 8.846C139.39 10.524 139.007 12.039 138.241 13.3912C137.476 14.727 136.409 15.7778 135.04 16.5434C133.688 17.2928 132.165 17.6675 130.471 17.6675ZM130.471 14.5641C131.497 14.5641 132.393 14.3197 133.159 13.831C133.924 13.3423 134.511 12.6662 134.918 11.8028C135.325 10.9394 135.529 9.95379 135.529 8.846C135.529 7.73822 135.325 6.75262 134.918 5.8892C134.511 5.02578 133.924 4.3497 133.159 3.86097C132.393 3.37225 131.497 3.12786 130.471 3.12786C129.444 3.12786 128.548 3.37225 127.783 3.86097C127.017 4.3497 126.422 5.02578 125.999 5.8892C125.591 6.75262 125.388 7.73822 125.388 8.846C125.388 9.95379 125.591 10.9394 125.999 11.8028C126.422 12.6662 127.017 13.3423 127.783 13.831C128.548 14.3197 129.444 14.5641 130.471 14.5641Z" fill="#FFBA72"/>
<path d="M112.308 17.6675C110.598 17.6675 109.066 17.2928 107.714 16.5434C106.362 15.7778 105.303 14.727 104.538 13.3912C103.772 12.039 103.389 10.524 103.389 8.846C103.389 7.16804 103.772 5.6611 104.538 4.32524C105.303 2.98939 106.362 1.94675 107.714 1.19737C109.066 0.431696 110.598 0.0488873 112.308 0.0488873C114.003 0.0488873 115.526 0.431696 116.878 1.19737C118.246 1.94675 119.313 2.98939 120.079 4.32524C120.845 5.6611 121.228 7.16804 121.228 8.846C121.228 10.524 120.845 12.039 120.079 13.3912C119.313 14.727 118.246 15.7778 116.878 16.5434C115.526 17.2928 114.003 17.6675 112.308 17.6675ZM112.308 14.5641C113.335 14.5641 114.231 14.3197 114.996 13.831C115.762 13.3423 116.348 12.6662 116.756 11.8028C117.163 10.9394 117.367 9.95379 117.367 8.846C117.367 7.73822 117.163 6.75262 116.756 5.8892C116.348 5.02578 115.762 4.3497 114.996 3.86097C114.231 3.37225 113.335 3.12786 112.308 3.12786C111.282 3.12786 110.386 3.37225 109.62 3.86097C108.855 4.3497 108.26 5.02578 107.836 5.8892C107.429 6.75262 107.226 7.73822 107.226 8.846C107.226 9.95379 107.429 10.9394 107.836 11.8028C108.26 12.6662 108.855 13.3423 109.62 13.831C110.386 14.3197 111.282 14.5641 112.308 14.5641Z" fill="#FFBA72"/>
<path d="M84.5912 0.31768H89.8694C90.3256 1.40917 90.7329 2.41923 91.0913 3.34781C91.4497 4.26011 91.7266 5.08279 91.9221 5.81589C92.1665 6.64672 92.3457 7.42865 92.4597 8.16174C92.5737 8.87854 92.6308 9.61163 92.6308 10.361H94.6101C94.6101 9.53018 94.6834 8.69938 94.83 7.86854C94.9766 7.02141 95.2047 6.12538 95.5142 5.18051C95.8238 4.23563 96.2555 3.07897 96.8094 1.71053C96.8908 1.48246 97.0782 1.01819 97.3714 0.31768H102.674V17.3499H98.9109C98.9109 15.8511 98.9353 14.3605 98.9842 12.878C99.0494 11.4933 99.1553 10.3692 99.3019 9.50575C99.4648 8.62604 99.6766 7.83593 99.9372 7.13542C100.198 6.43491 100.564 5.61222 101.037 4.66735L99.082 3.95871L95.05 14.3197H92.1665L88.1589 3.95871L86.2284 4.74066C86.7009 5.68554 87.0674 6.50009 87.328 7.18431C87.5887 7.86853 87.7923 8.6342 87.939 9.48133C88.1019 10.3122 88.2159 11.3955 88.2811 12.7314C88.3299 14.2627 88.3544 15.8022 88.3544 17.3499H84.5912V0.31768Z" fill="#FFBA72"/>
<path d="M75.2059 0.31768H78.9935V17.3499H75.2059V0.31768ZM64.1362 0.31768H67.8994V17.3499H64.1362V0.31768ZM67.5817 7.18431H75.548V10.2633H67.5817V7.18431Z" fill="#FFBA72"/>
<path d="M60.0118 17.3499L58.1791 12.6825L59.3276 13.4889H50.2617L51.4102 12.6825L49.553 17.3499H45.5454L52.803 0.31768H56.7617L64.0438 17.3499H60.0118ZM53.8049 3.15228C53.8212 3.78763 53.8131 4.38225 53.7805 4.93614C53.7479 5.47374 53.6746 6.01135 53.5606 6.54895C53.4628 7.07026 53.3244 7.60785 53.1452 8.16174C52.9334 8.7645 52.4772 9.7827 51.7767 11.2163L51.2391 10.6543H58.3257L57.7881 11.2163C57.446 10.5158 57.1283 9.799 56.835 9.06591C56.4115 8.03958 56.1345 7.08655 56.0042 6.20684C55.8739 5.31084 55.825 4.29265 55.8576 3.15228H53.8049Z" fill="#FFBA72"/>
<path d="M31.8687 0.31768H39.7861C41.9528 0.31768 43.5737 0.700542 44.6489 1.46622C45.7241 2.2156 46.2617 3.34781 46.2617 4.86286C46.2617 5.79145 46.0174 6.56525 45.5286 7.18431C45.0399 7.80336 44.3801 8.27582 43.5493 8.60164C42.7185 8.92746 41.7817 9.12294 40.7391 9.18811V11.143C41.4885 11.1756 42.132 11.3385 42.6696 11.6317C43.2235 11.9087 43.7366 12.3648 44.2091 13.0002L44.2824 13.0979L47.4102 17.3499H42.9873L40.2993 13.5134C40.2341 13.4156 40.1689 13.3178 40.1038 13.2201C39.6313 12.5522 39.2485 12.0797 38.9552 11.8028C38.6783 11.5258 38.3688 11.3385 38.0267 11.2408C37.6846 11.1267 37.1877 11.0697 36.536 11.0697H34.7033L35.6319 10.1656V17.3499H31.8687V0.31768ZM34.7033 8.67495H39.1019C39.8512 8.67495 40.4703 8.57719 40.959 8.3817C41.4641 8.16991 41.8387 7.86037 42.0831 7.4531C42.3438 7.04583 42.4741 6.53268 42.4741 5.91363C42.4741 5.01762 42.1971 4.34968 41.6433 3.90983C41.0894 3.46997 40.2422 3.25007 39.1019 3.25007H34.7033L35.6319 2.29702V9.55464L34.7033 8.67495Z" fill="#FFBA72"/>
<path d="M27.7443 17.3499L25.9116 12.6825L27.0601 13.4889H17.9942L19.1427 12.6825L17.2855 17.3499H13.2779L20.5355 0.31768H24.4942L31.7763 17.3499H27.7443ZM21.5374 3.15228C21.5537 3.78763 21.5456 4.38225 21.513 4.93614C21.4804 5.47374 21.4071 6.01135 21.2931 6.54895C21.1953 7.07026 21.0569 7.60785 20.8777 8.16174C20.6659 8.7645 20.2097 9.7827 19.5092 11.2163L18.9716 10.6543H26.0582L25.5206 11.2163C25.1785 10.5158 24.8608 9.799 24.5676 9.06591C24.144 8.03958 23.867 7.08655 23.7367 6.20684C23.6064 5.31084 23.5575 4.29265 23.5901 3.15228H21.5374Z" fill="#FFBA72"/>
<path d="M7.50197 17.6675C6.08466 17.6675 4.83841 17.4883 3.76321 17.1299C2.7043 16.7715 1.88161 16.2584 1.29513 15.5904C0.708658 14.9062 0.415421 14.1242 0.415421 13.2445C0.415421 12.4463 0.651637 11.7784 1.12407 11.2408C1.59651 10.7032 2.23186 10.2959 3.03011 10.0189C3.84466 9.72567 4.74881 9.57093 5.74256 9.55464V7.57532C4.61848 7.52645 3.63288 7.38796 2.78575 7.15988C1.93862 6.91552 1.26255 6.54079 0.757529 6.03577C0.25251 5.53075 0 4.871 0 4.05645C0 3.22561 0.2688 2.50882 0.806401 1.90606C1.344 1.28701 2.11782 0.814552 3.12786 0.488733C4.1379 0.162914 5.31085 0 6.6467 0C8.25951 0 9.72569 0.21993 11.0453 0.659785C12.3648 1.09964 13.6355 1.73501 14.8573 2.56585L13.1712 5.32714C12.3567 4.65921 11.3629 4.12162 10.19 3.71435C9.03332 3.30707 7.89296 3.09531 6.76888 3.07902C5.8403 3.07902 5.13164 3.24188 4.64292 3.5677C4.15419 3.87723 3.90983 4.28453 3.90983 4.78955C3.90983 5.14795 4.03201 5.45749 4.27637 5.71815C4.52074 5.96251 4.86285 6.17427 5.3027 6.35347C5.75885 6.51638 6.33718 6.66299 7.03769 6.79332L9.0659 7.25762C10.7927 7.61602 12.1449 8.21064 13.1223 9.04148C14.1161 9.87232 14.613 10.9882 14.613 12.3892C14.613 13.3178 14.3279 14.1894 13.7577 15.004C13.1875 15.8022 12.3648 16.4457 11.2896 16.9344C10.2144 17.4232 8.95186 17.6675 7.50197 17.6675ZM7.59972 14.9551C8.25136 14.9551 8.8134 14.841 9.28584 14.6129C9.77456 14.3849 10.1411 14.0835 10.3855 13.7088C10.6461 13.3341 10.7765 12.9187 10.7765 12.4626C10.7765 11.9576 10.638 11.5177 10.361 11.143C10.1004 10.752 9.71755 10.4507 9.21253 10.2389C8.7238 10.0108 8.16176 9.89676 7.52642 9.89676C6.92365 9.89676 6.3779 10.0027 5.88917 10.2144C5.40044 10.4262 5.01761 10.7276 4.74066 11.1186C4.46372 11.4933 4.32525 11.9331 4.32525 12.4381C4.32525 12.9106 4.46372 13.3423 4.74066 13.7333C5.01761 14.1079 5.40044 14.4094 5.88917 14.6374C6.39419 14.8492 6.96438 14.9551 7.59972 14.9551Z" fill="#FFBA72"/>
<path d="M386.067 17.6675C384.65 17.6675 383.404 17.4883 382.329 17.1299C381.27 16.7715 380.447 16.2584 379.86 15.5904C379.274 14.9062 378.981 14.1242 378.981 13.2445C378.981 12.4463 379.217 11.7784 379.689 11.2408C380.162 10.7032 380.797 10.2959 381.595 10.0189C382.41 9.72567 383.314 9.57093 384.308 9.55464V7.57532C383.184 7.52645 382.198 7.38796 381.351 7.15988C380.504 6.91552 379.828 6.54079 379.323 6.03577C378.818 5.53075 378.565 4.871 378.565 4.05645C378.565 3.22561 378.834 2.50882 379.372 1.90606C379.909 1.28701 380.683 0.814552 381.693 0.488733C382.703 0.162914 383.876 0 385.212 0C386.825 0 388.291 0.21993 389.611 0.659785C390.93 1.09964 392.201 1.73501 393.423 2.56585L391.737 5.32714C390.922 4.65921 389.928 4.12162 388.755 3.71435C387.599 3.30707 386.458 3.09531 385.334 3.07902C384.406 3.07902 383.697 3.24188 383.208 3.5677C382.72 3.87723 382.475 4.28453 382.475 4.78955C382.475 5.14795 382.597 5.45749 382.842 5.71815C383.086 5.96251 383.428 6.17427 383.868 6.35347C384.324 6.51638 384.903 6.66299 385.603 6.79332L387.631 7.25762C389.358 7.61602 390.71 8.21064 391.688 9.04148C392.681 9.87232 393.178 10.9882 393.178 12.3892C393.178 13.3178 392.893 14.1894 392.323 15.004C391.753 15.8022 390.93 16.4457 389.855 16.9344C388.78 17.4232 387.517 17.6675 386.067 17.6675ZM386.165 14.9551C386.817 14.9551 387.379 14.841 387.851 14.6129C388.34 14.3849 388.706 14.0835 388.951 13.7088C389.211 13.3341 389.342 12.9187 389.342 12.4626C389.342 11.9576 389.203 11.5177 388.926 11.143C388.666 10.752 388.283 10.4507 387.778 10.2389C387.289 10.0108 386.727 9.89676 386.092 9.89676C385.489 9.89676 384.943 10.0027 384.455 10.2144C383.966 10.4262 383.583 10.7276 383.306 11.1186C383.029 11.4933 382.891 11.9331 382.891 12.4381C382.891 12.9106 383.029 13.3423 383.306 13.7333C383.583 14.1079 383.966 14.4094 384.455 14.6374C384.96 14.8492 385.53 14.9551 386.165 14.9551Z" fill="#FFBA72"/>
<path d="M365.04 0.31768H378.504V3.39665H367.874L368.803 2.51696V8.16174L367.874 7.30647H377.747V10.2144H367.874L368.803 9.40801V15.1994L367.874 14.2708H378.797V17.3499H365.04V0.31768Z" fill="#FFBA72"/>
<path d="M352.032 0.31768H355.795V15.1994L354.867 14.2708H364.959V17.3499H352.032V0.31768Z" fill="#FFBA72"/>
<path d="M347.186 0.31768H350.949V17.3499H347.186V0.31768Z" fill="#FFBA72"/>
<path d="M337.652 2.46807L338.508 3.39665H332.008V0.31768H347.085V3.39665H340.585L341.44 2.46807V17.3499H337.652V2.46807Z" fill="#FFBA72"/>
<path d="M325.492 17.6675C324.074 17.6675 322.828 17.4883 321.753 17.1299C320.694 16.7715 319.871 16.2584 319.285 15.5904C318.698 14.9062 318.405 14.1242 318.405 13.2445C318.405 12.4463 318.641 11.7784 319.114 11.2408C319.586 10.7032 320.222 10.2959 321.02 10.0189C321.834 9.72567 322.739 9.57093 323.732 9.55464V7.57532C322.608 7.52645 321.623 7.38796 320.776 7.15988C319.928 6.91552 319.252 6.54079 318.747 6.03577C318.242 5.53075 317.99 4.871 317.99 4.05645C317.99 3.22561 318.259 2.50882 318.796 1.90606C319.334 1.28701 320.108 0.814552 321.118 0.488733C322.128 0.162914 323.301 0 324.637 0C326.249 0 327.715 0.21993 329.035 0.659785C330.355 1.09964 331.625 1.73501 332.847 2.56585L331.161 5.32714C330.346 4.65921 329.353 4.12162 328.18 3.71435C327.023 3.30707 325.883 3.09531 324.759 3.07902C323.83 3.07902 323.121 3.24188 322.633 3.5677C322.144 3.87723 321.9 4.28453 321.9 4.78955C321.9 5.14795 322.022 5.45749 322.266 5.71815C322.511 5.96251 322.853 6.17427 323.293 6.35347C323.749 6.51638 324.327 6.66299 325.027 6.79332L327.056 7.25762C328.783 7.61602 330.135 8.21064 331.112 9.04148C332.106 9.87232 332.603 10.9882 332.603 12.3892C332.603 13.3178 332.318 14.1894 331.747 15.004C331.177 15.8022 330.355 16.4457 329.279 16.9344C328.204 17.4232 326.942 17.6675 325.492 17.6675ZM325.59 14.9551C326.241 14.9551 326.803 14.841 327.276 14.6129C327.764 14.3849 328.131 14.0835 328.375 13.7088C328.636 13.3341 328.766 12.9187 328.766 12.4626C328.766 11.9576 328.628 11.5177 328.351 11.143C328.09 10.752 327.707 10.4507 327.202 10.2389C326.714 10.0108 326.152 9.89676 325.516 9.89676C324.913 9.89676 324.368 10.0027 323.879 10.2144C323.39 10.4262 323.007 10.7276 322.73 11.1186C322.454 11.4933 322.315 11.9331 322.315 12.4381C322.315 12.9106 322.454 13.3423 322.73 13.7333C323.007 14.1079 323.39 14.4094 323.879 14.6374C324.384 14.8492 324.954 14.9551 325.59 14.9551Z" fill="#FFBA72"/>
<path d="M309.623 17.3499L307.79 12.6825L308.938 13.4889H299.873L301.021 12.6825L299.164 17.3499H295.156L302.414 0.31768H306.373L313.655 17.3499H309.623ZM303.416 3.15228C303.432 3.78763 303.424 4.38225 303.391 4.93614C303.359 5.47374 303.285 6.01135 303.171 6.54895C303.074 7.07026 302.935 7.60785 302.756 8.16174C302.544 8.7645 302.088 9.7827 301.388 11.2163L300.85 10.6543H307.937L307.399 11.2163C307.057 10.5158 306.739 9.799 306.446 9.06591C306.022 8.03958 305.745 7.08655 305.615 6.20684C305.485 5.31084 305.436 4.29265 305.468 3.15228H303.416Z" fill="#FFBA72"/>
<path d="M291.284 0.31768H295.072V17.3499H291.284V0.31768ZM280.215 0.31768H283.978V17.3499H280.215V0.31768ZM283.66 7.18431H291.627V10.2633H283.66V7.18431Z" fill="#FFBA72"/>
<path d="M272.483 17.6675C271.066 17.6675 269.819 17.4883 268.744 17.1299C267.685 16.7715 266.863 16.2584 266.276 15.5904C265.69 14.9062 265.396 14.1242 265.396 13.2445C265.396 12.4463 265.633 11.7784 266.105 11.2408C266.577 10.7032 267.213 10.2959 268.011 10.0189C268.826 9.72567 269.73 9.57093 270.724 9.55464V7.57532C269.599 7.52645 268.614 7.38796 267.767 7.15988C266.92 6.91552 266.244 6.54079 265.739 6.03577C265.233 5.53075 264.981 4.871 264.981 4.05645C264.981 3.22561 265.25 2.50882 265.787 1.90606C266.325 1.28701 267.099 0.814552 268.109 0.488733C269.119 0.162914 270.292 0 271.628 0C273.24 0 274.707 0.21993 276.026 0.659785C277.346 1.09964 278.616 1.73501 279.838 2.56585L278.152 5.32714C277.338 4.65921 276.344 4.12162 275.171 3.71435C274.014 3.30707 272.874 3.09531 271.75 3.07902C270.821 3.07902 270.113 3.24188 269.624 3.5677C269.135 3.87723 268.891 4.28453 268.891 4.78955C268.891 5.14795 269.013 5.45749 269.257 5.71815C269.502 5.96251 269.844 6.17427 270.284 6.35347C270.74 6.51638 271.318 6.66299 272.019 6.79332L274.047 7.25762C275.774 7.61602 277.126 8.21064 278.103 9.04148C279.097 9.87232 279.594 10.9882 279.594 12.3892C279.594 13.3178 279.309 14.1894 278.739 15.004C278.168 15.8022 277.346 16.4457 276.271 16.9344C275.195 17.4232 273.933 17.6675 272.483 17.6675ZM272.581 14.9551C273.232 14.9551 273.794 14.841 274.267 14.6129C274.756 14.3849 275.122 14.0835 275.366 13.7088C275.627 13.3341 275.757 12.9187 275.757 12.4626C275.757 11.9576 275.619 11.5177 275.342 11.143C275.081 10.752 274.699 10.4507 274.193 10.2389C273.705 10.0108 273.143 9.89676 272.507 9.89676C271.905 9.89676 271.359 10.0027 270.87 10.2144C270.381 10.4262 269.999 10.7276 269.722 11.1186C269.445 11.4933 269.306 11.9331 269.306 12.4381C269.306 12.9106 269.445 13.3423 269.722 13.7333C269.999 14.1079 270.381 14.4094 270.87 14.6374C271.375 14.8492 271.945 14.9551 272.581 14.9551Z" fill="#FFBA72"/>
<path d="M262.558 17.3499L260.725 12.6825L261.874 13.4889H252.808L253.956 12.6825L252.099 17.3499H248.091L255.349 0.31768H259.308L266.59 17.3499H262.558ZM256.351 3.15228C256.367 3.78763 256.359 4.38225 256.326 4.93614C256.294 5.47374 256.221 6.01135 256.107 6.54895C256.009 7.07026 255.87 7.60785 255.691 8.16174C255.479 8.7645 255.023 9.7827 254.323 11.2163L253.785 10.6543H260.872L260.334 11.2163C259.992 10.5158 259.674 9.799 259.381 9.06591C258.957 8.03958 258.681 7.08655 258.55 6.20684C258.42 5.31084 258.371 4.29265 258.404 3.15228H256.351Z" fill="#FFBA72"/>
<path d="M242.315 17.6675C240.898 17.6675 239.652 17.4883 238.577 17.1299C237.518 16.7715 236.695 16.2584 236.109 15.5904C235.522 14.9062 235.229 14.1242 235.229 13.2445C235.229 12.4463 235.465 11.7784 235.938 11.2408C236.41 10.7032 237.045 10.2959 237.844 10.0189C238.658 9.72567 239.562 9.57093 240.556 9.55464V7.57532C239.432 7.52645 238.446 7.38796 237.599 7.15988C236.752 6.91552 236.076 6.54079 235.571 6.03577C235.066 5.53075 234.813 4.871 234.813 4.05645C234.813 3.22561 235.082 2.50882 235.62 1.90606C236.157 1.28701 236.931 0.814552 237.941 0.488733C238.951 0.162914 240.124 0 241.46 0C243.073 0 244.539 0.21993 245.859 0.659785C247.178 1.09964 248.449 1.73501 249.671 2.56585L247.985 5.32714C247.17 4.65921 246.176 4.12162 245.003 3.71435C243.847 3.30707 242.706 3.09531 241.582 3.07902C240.654 3.07902 239.945 3.24188 239.456 3.5677C238.968 3.87723 238.723 4.28453 238.723 4.78955C238.723 5.14795 238.845 5.45749 239.09 5.71815C239.334 5.96251 239.676 6.17427 240.116 6.35347C240.572 6.51638 241.151 6.66299 241.851 6.79332L243.879 7.25762C245.606 7.61602 246.958 8.21064 247.936 9.04148C248.93 9.87232 249.426 10.9882 249.426 12.3892C249.426 13.3178 249.141 14.1894 248.571 15.004C248.001 15.8022 247.178 16.4457 246.103 16.9344C245.028 17.4232 243.765 17.6675 242.315 17.6675ZM242.413 14.9551C243.065 14.9551 243.627 14.841 244.099 14.6129C244.588 14.3849 244.955 14.0835 245.199 13.7088C245.46 13.3341 245.59 12.9187 245.59 12.4626C245.59 11.9576 245.451 11.5177 245.175 11.143C244.914 10.752 244.531 10.4507 244.026 10.2389C243.537 10.0108 242.975 9.89676 242.34 9.89676C241.737 9.89676 241.191 10.0027 240.703 10.2144C240.214 10.4262 239.831 10.7276 239.554 11.1186C239.277 11.4933 239.139 11.9331 239.139 12.4381C239.139 12.9106 239.277 13.3423 239.554 13.7333C239.831 14.1079 240.214 14.4094 240.703 14.6374C241.208 14.8492 241.778 14.9551 242.413 14.9551Z" fill="#FFBA72"/>
<path d="M626.824 0.411621H640.14V3.45669H629.627L630.546 2.58667V8.16929L629.627 7.32344H639.391V10.1993H629.627L630.546 9.40181V15.1294L629.627 14.2111H640.43V17.2561H626.824V0.411621Z" fill="#FFBA72"/>
<path d="M611.387 0.411621H619.217C621.36 0.411621 622.963 0.79024 624.026 1.54748C625.09 2.28861 625.621 3.40835 625.621 4.90672C625.621 5.82507 625.38 6.59036 624.896 7.2026C624.413 7.81484 623.761 8.28207 622.939 8.6043C622.117 8.92652 621.191 9.11986 620.16 9.18431V11.1177C620.901 11.1499 621.537 11.311 622.069 11.601C622.617 11.8749 623.124 12.326 623.591 12.9544L623.664 13.0511L626.757 17.2561H622.383L619.725 13.4619C619.66 13.3652 619.596 13.2686 619.531 13.1719C619.064 12.5113 618.685 12.0441 618.395 11.7702C618.122 11.4963 617.815 11.311 617.477 11.2144C617.139 11.1016 616.647 11.0452 616.003 11.0452H614.19L615.109 10.151V17.2561H611.387V0.411621ZM614.19 8.6768H618.54C619.282 8.6768 619.894 8.58013 620.377 8.38679C620.877 8.17734 621.247 7.87122 621.489 7.46844C621.747 7.06565 621.876 6.55814 621.876 5.94591C621.876 5.05978 621.602 4.39921 621.054 3.9642C620.506 3.52919 619.668 3.31168 618.54 3.31168H614.19L615.109 2.36916V9.54682L614.19 8.6768Z" fill="#FFBA72"/>
<path d="M601.959 2.53833L602.805 3.45669H596.376V0.411621H611.288V3.45669H604.859L605.705 2.53833V17.2561H601.959V2.53833Z" fill="#FFBA72"/>
<path d="M580.75 0.411621H584.109L593.558 12.0602L595.323 10.8518C594.726 10.1913 594.235 9.58709 593.848 9.03931C593.462 8.49152 593.148 7.90345 592.906 7.2751C592.664 6.63064 592.543 5.96202 592.543 5.26923V0.411621H596.289V17.2561H593.196L583.65 5.53506L581.837 6.71926C582.514 7.36371 583.046 8.00012 583.432 8.62846C584.125 9.74015 584.472 10.9566 584.472 12.2777V17.2561H580.75V0.411621Z" fill="#FFBA72"/>
<path d="M566.587 0.411621H579.903V3.45669H569.391L570.309 2.58667V8.16929L569.391 7.32344H579.154V10.1993H569.391L570.309 9.40181V15.1294L569.391 14.2111H580.193V17.2561H566.587V0.411621Z" fill="#FFBA72"/>
<path d="M559.629 17.5945C557.969 17.5945 556.479 17.2319 555.158 16.5069C553.853 15.7658 552.83 14.7347 552.089 13.4135C551.348 12.0763 550.977 10.5457 550.977 8.82176C550.977 7.09784 551.348 5.5753 552.089 4.25416C552.846 2.93303 553.893 1.90995 555.23 1.18493C556.584 0.443806 558.114 0.0732422 559.822 0.0732422C561.159 0.0732422 562.344 0.290747 563.375 0.725757C564.406 1.16077 565.357 1.78106 566.227 2.58663L564.342 5.07585C563.745 4.49584 563.101 4.05277 562.408 3.74665C561.715 3.42443 560.934 3.26331 560.064 3.26331C559.033 3.26331 558.106 3.50498 557.285 3.98833C556.479 4.45556 555.851 5.11613 555.4 5.97004C554.949 6.82394 554.723 7.79869 554.723 8.89426C554.723 9.98984 554.949 10.9485 555.4 11.7702C555.867 12.5918 556.503 13.2282 557.309 13.6794C558.131 14.1144 559.057 14.3319 560.088 14.3319C560.974 14.3319 561.764 14.1547 562.456 13.8002C563.165 13.4458 563.818 12.9463 564.414 12.3018L566.347 14.8636C565.445 15.7497 564.462 16.4264 563.399 16.8936C562.352 17.3608 561.095 17.5945 559.629 17.5945Z" fill="#FFBA72"/>
<path d="M532.691 0.411621H546.007V3.45669H535.494L536.412 2.58667V8.16929L535.494 7.32344H545.258V10.1993H535.494L536.412 9.40181V15.1294L535.494 14.2111H546.297V17.2561H532.691V0.411621Z" fill="#FFBA72"/>
<path d="M525.732 17.5945C524.073 17.5945 522.583 17.2319 521.261 16.5069C519.956 15.7658 518.933 14.7347 518.192 13.4135C517.451 12.0763 517.081 10.5457 517.081 8.82176C517.081 7.09784 517.451 5.5753 518.192 4.25416C518.949 2.93303 519.997 1.90995 521.334 1.18493C522.687 0.443806 524.218 0.0732422 525.926 0.0732422C527.263 0.0732422 528.447 0.290747 529.478 0.725757C530.509 1.16077 531.46 1.78106 532.33 2.58663L530.445 5.07585C529.849 4.49584 529.204 4.05277 528.512 3.74665C527.819 3.42443 527.037 3.26331 526.167 3.26331C525.136 3.26331 524.21 3.50498 523.388 3.98833C522.583 4.45556 521.954 5.11613 521.503 5.97004C521.052 6.82394 520.826 7.79869 520.826 8.89426C520.826 9.98984 521.052 10.9485 521.503 11.7702C521.97 12.5918 522.607 13.2282 523.412 13.6794C524.234 14.1144 525.16 14.3319 526.192 14.3319C527.078 14.3319 527.867 14.1547 528.56 13.8002C529.269 13.4458 529.921 12.9463 530.518 12.3018L532.451 14.8636C531.549 15.7497 530.566 16.4264 529.502 16.8936C528.455 17.3608 527.199 17.5945 525.732 17.5945Z" fill="#FFBA72"/>
<path d="M500.85 0.411621H504.209L513.659 12.0602L515.423 10.8518C514.827 10.1913 514.335 9.58709 513.949 9.03931C513.562 8.49152 513.248 7.90345 513.006 7.2751C512.765 6.63064 512.644 5.96202 512.644 5.26923V0.411621H516.39V17.2561H513.296L503.75 5.53506L501.938 6.71926C502.614 7.36371 503.146 8.00012 503.533 8.62846C504.225 9.74015 504.572 10.9566 504.572 12.2777V17.2561H500.85V0.411621Z" fill="#FFBA72"/>
<path d="M496.771 17.2561L494.958 12.6402L496.094 13.4377H487.128L488.264 12.6402L486.427 17.2561H482.464L489.642 0.411621H493.557L500.758 17.2561H496.771ZM490.632 3.21501C490.648 3.84336 490.64 4.43143 490.608 4.97922C490.576 5.5109 490.503 6.04257 490.391 6.57425C490.294 7.08982 490.157 7.6215 489.98 8.16929C489.77 8.76541 489.319 9.77238 488.626 11.1902L488.095 10.6343H495.103L494.572 11.1902C494.233 10.4974 493.919 9.78849 493.629 9.06347C493.21 8.04845 492.936 7.10593 492.807 6.23591C492.679 5.34978 492.63 4.34282 492.662 3.21501H490.632Z" fill="#FFBA72"/>
<path d="M469.268 0.411621H482.584V3.45669H472.072L472.99 2.58667V8.16929L472.072 7.32344H481.835V10.1993H472.072L472.99 9.40181V15.1294L472.072 14.2111H482.874V17.2561H469.268V0.411621Z" fill="#FFBA72"/>
<path d="M461.621 17.5705C460.22 17.5705 458.987 17.3933 457.924 17.0389C456.877 16.6844 456.063 16.1769 455.483 15.5163C454.903 14.8396 454.613 14.0663 454.613 13.1963C454.613 12.4068 454.847 11.7462 455.314 11.2146C455.781 10.6829 456.409 10.2801 457.199 10.0062C458.004 9.7162 458.899 9.56314 459.881 9.54703V7.58948C458.77 7.54115 457.795 7.4042 456.957 7.17864C456.119 6.93697 455.451 6.56641 454.951 6.06695C454.452 5.5675 454.202 4.91498 454.202 4.10941C454.202 3.28772 454.468 2.57882 455 1.9827C455.531 1.37046 456.297 0.903229 457.296 0.580999C458.294 0.258771 459.454 0.0976562 460.776 0.0976562C462.371 0.0976562 463.821 0.315161 465.126 0.750171C466.431 1.18518 467.687 1.81353 468.896 2.63521L467.228 5.3661C466.423 4.70553 465.44 4.17385 464.28 3.77107C463.136 3.36828 462.008 3.15883 460.896 3.14272C459.978 3.14272 459.277 3.30384 458.794 3.62607C458.311 3.93218 458.069 4.33497 458.069 4.83443C458.069 5.18888 458.19 5.49499 458.431 5.75278C458.673 5.99445 459.011 6.2039 459.446 6.38112C459.898 6.54224 460.47 6.68724 461.162 6.81613L463.168 7.27531C464.876 7.62976 466.213 8.21783 467.18 9.03952C468.163 9.8612 468.654 10.9648 468.654 12.3504C468.654 13.2688 468.372 14.1307 467.808 14.9363C467.244 15.7258 466.431 16.3622 465.367 16.8455C464.304 17.3289 463.055 17.5705 461.621 17.5705ZM461.718 14.888C462.363 14.888 462.918 14.7752 463.386 14.5496C463.869 14.3241 464.232 14.026 464.473 13.6554C464.731 13.2849 464.86 12.874 464.86 12.4229C464.86 11.9235 464.723 11.4885 464.449 11.1179C464.191 10.7312 463.813 10.4332 463.313 10.2237C462.83 9.99815 462.274 9.88537 461.646 9.88537C461.05 9.88537 460.51 9.99009 460.026 10.1995C459.543 10.409 459.164 10.7071 458.891 11.0937C458.617 11.4643 458.48 11.8993 458.48 12.3988C458.48 12.866 458.617 13.2929 458.891 13.6796C459.164 14.0502 459.543 14.3482 460.026 14.5738C460.526 14.7833 461.09 14.888 461.718 14.888Z" fill="#FFBA72"/>
</svg>
