<svg width="641" height="18" viewBox="0 0 641 18" fill="none" xmlns="http://www.w3.org/2000/svg">
<path d="M108.752 0.399414H113.972C114.423 1.47888 114.826 2.47779 115.181 3.39614C115.535 4.29839 115.809 5.11201 116.002 5.83703C116.244 6.65871 116.421 7.43206 116.534 8.15708C116.647 8.86598 116.703 9.591 116.703 10.3321H118.661C118.661 9.51044 118.733 8.68876 118.878 7.86707C119.023 7.02928 119.249 6.14315 119.555 5.20868C119.861 4.27422 120.288 3.13031 120.836 1.77694C120.916 1.55138 121.102 1.09221 121.392 0.399414H126.636V17.2439H122.914C122.914 15.7617 122.938 14.2875 122.987 12.8213C123.051 11.4519 123.156 10.3402 123.301 9.48628C123.462 8.61626 123.671 7.83485 123.929 7.14206C124.187 6.44927 124.549 5.63564 125.017 4.70117L123.083 4.00032L119.096 14.2472H116.244L112.281 4.00032L110.371 4.77367C110.839 5.70814 111.201 6.51371 111.459 7.19039C111.717 7.86707 111.918 8.62431 112.063 9.46211C112.224 10.2838 112.337 11.3552 112.401 12.6763C112.45 14.1908 112.474 15.7134 112.474 17.2439H108.752V0.399414Z" fill="#FFBA72"/>
<path d="M100.356 17.5823C98.8414 17.5823 97.5202 17.3164 96.3924 16.7848C95.2646 16.237 94.3946 15.4233 93.7824 14.3439C93.1862 13.2644 92.8882 11.9433 92.8882 10.3805V0.399414H96.6099V10.2838C96.6099 11.186 96.7549 11.9513 97.0449 12.5797C97.3511 13.1919 97.778 13.6591 98.3258 13.9814C98.8897 14.2875 99.5664 14.4405 100.356 14.4405C101.532 14.4405 102.442 14.0861 103.087 13.3772C103.747 12.6522 104.078 11.621 104.078 10.2838V0.399414H107.799V10.3805C107.799 12.7327 107.131 14.5211 105.793 15.7456C104.472 16.97 102.66 17.5823 100.356 17.5823Z" fill="#FFBA72"/>
<path d="M88.2134 0.399414H91.9593V17.2439H88.2134V0.399414ZM77.2656 0.399414H80.9874V17.2439H77.2656V0.399414ZM80.6732 7.19039H88.5517V10.2355H80.6732V7.19039Z" fill="#FFBA72"/>
<path d="M53.8262 0.399414H59.0463C59.4974 1.47888 59.9002 2.47779 60.2546 3.39614C60.6091 4.29839 60.883 5.11201 61.0763 5.83703C61.318 6.65871 61.4952 7.43206 61.608 8.15708C61.7208 8.86598 61.7772 9.591 61.7772 10.3321H63.7347C63.7347 9.51044 63.8072 8.68876 63.9522 7.86707C64.0972 7.02928 64.3228 6.14315 64.6289 5.20868C64.935 4.27422 65.362 3.13031 65.9098 1.77694C65.9903 1.55138 66.1756 1.09221 66.4656 0.399414H71.7099V17.2439H67.9881C67.9881 15.7617 68.0123 14.2875 68.0606 12.8213C68.1251 11.4519 68.2298 10.3402 68.3748 9.48628C68.5359 8.61626 68.7454 7.83485 69.0032 7.14206C69.2609 6.44927 69.6235 5.63564 70.0907 4.70117L68.1573 4.00032L64.1697 14.2472H61.318L57.3546 4.00032L55.4454 4.77367C55.9126 5.70814 56.2751 6.51371 56.5329 7.19039C56.7907 7.86707 56.9921 8.62431 57.1371 9.46211C57.2982 10.2838 57.411 11.3552 57.4754 12.6763C57.5237 14.1908 57.5479 15.7134 57.5479 17.2439H53.8262V0.399414Z" fill="#FFBA72"/>
<path d="M45.4293 17.5823C43.9149 17.5823 42.5937 17.3164 41.4659 16.7848C40.3381 16.237 39.4681 15.4233 38.8559 14.3439C38.2597 13.2644 37.9617 11.9433 37.9617 10.3805V0.399414H41.6834V10.2838C41.6834 11.186 41.8284 11.9513 42.1184 12.5797C42.4245 13.1919 42.8515 13.6591 43.3993 13.9814C43.9632 14.2875 44.6399 14.4405 45.4293 14.4405C46.6055 14.4405 47.5158 14.0861 48.1602 13.3772C48.8208 12.6522 49.1511 11.621 49.1511 10.2838V0.399414H52.8728V10.3805C52.8728 12.7327 52.2042 14.5211 50.8669 15.7456C49.5458 16.97 47.7333 17.5823 45.4293 17.5823Z" fill="#FFBA72"/>
<path d="M33.2893 0.399414H37.0111V17.2439H33.2893V0.399414Z" fill="#FFBA72"/>
<path d="M18.3247 0.399414H25.8649C27.2988 0.399414 28.5233 0.624974 29.5383 1.07609C30.5694 1.5111 31.3508 2.15556 31.8825 3.00947C32.4303 3.86338 32.7042 4.88645 32.7042 6.0787C32.7042 7.8993 32.1 9.33322 30.8916 10.3805C29.6833 11.4277 28.0077 11.9513 25.8649 11.9513H21.1281L22.0465 11.1055V17.2439H18.3247V0.399414ZM21.1281 9.05127H25.4057C26.5657 9.05127 27.4518 8.80959 28.0641 8.32625C28.6763 7.8268 28.9824 7.10984 28.9824 6.17537C28.9824 5.28924 28.6763 4.61256 28.0641 4.14533C27.4518 3.6781 26.5577 3.44448 25.3815 3.44448H21.1281L22.0465 2.59863V9.87295L21.1281 9.05127Z" fill="#FFBA72"/>
<path d="M8.82102 17.5588C7.12932 17.5588 5.61484 17.1883 4.27759 16.4471C2.94034 15.6899 1.8931 14.6507 1.13586 13.3296C0.378619 11.9923 0 10.4939 0 8.83446C0 7.17498 0.378619 5.68467 1.13586 4.36353C1.8931 3.0424 2.94034 2.01126 4.27759 1.27013C5.61484 0.512896 7.12932 0.134277 8.82102 0.134277C10.4966 0.134277 12.003 0.512896 13.3403 1.27013C14.6936 2.01126 15.7489 3.0424 16.5062 4.36353C17.2634 5.68467 17.642 7.17498 17.642 8.83446C17.642 10.4939 17.2634 11.9923 16.5062 13.3296C15.7489 14.6507 14.6936 15.6899 13.3403 16.4471C12.003 17.1883 10.4966 17.5588 8.82102 17.5588ZM8.82102 14.4896C9.83604 14.4896 10.7222 14.2479 11.4794 13.7646C12.2367 13.2812 12.8167 12.6126 13.2195 11.7587C13.6222 10.9048 13.8236 9.93004 13.8236 8.83446C13.8236 7.73888 13.6222 6.76414 13.2195 5.91023C12.8167 5.05633 12.2367 4.3877 11.4794 3.90436C10.7222 3.42101 9.83604 3.17934 8.82102 3.17934C7.806 3.17934 6.91987 3.42101 6.16263 3.90436C5.40539 4.3877 4.81733 5.05633 4.39843 5.91023C3.99564 6.76414 3.79425 7.73888 3.79425 8.83446C3.79425 9.93004 3.99564 10.9048 4.39843 11.7587C4.81733 12.6126 5.40539 13.2812 6.16263 13.7646C6.91987 14.2479 7.806 14.4896 8.82102 14.4896Z" fill="#FFBA72"/>
<path d="M351.446 0.342106H356.725C357.181 1.4336 357.588 2.44363 357.946 3.37221C358.305 4.28451 358.582 5.10719 358.777 5.84029C359.022 6.67112 359.201 7.4531 359.315 8.18619C359.429 8.90299 359.486 9.63607 359.486 10.3855H361.465C361.465 9.55461 361.539 8.72379 361.685 7.89296C361.832 7.04583 362.06 6.14982 362.369 5.20494C362.679 4.26007 363.111 3.10342 363.665 1.73498C363.746 1.50691 363.933 1.04262 364.227 0.342106H369.529V17.3743H365.766C365.766 15.8755 365.79 14.3849 365.839 12.9024C365.904 11.5177 366.01 10.3936 366.157 9.53019C366.32 8.65048 366.532 7.86037 366.792 7.15986C367.053 6.45935 367.42 5.63666 367.892 4.69179L365.937 3.98313L361.905 14.3442H359.022L355.014 3.98313L353.084 4.7651C353.556 5.70997 353.923 6.52452 354.183 7.20874C354.444 7.89296 354.647 8.65863 354.794 9.50576C354.957 10.3366 355.071 11.4199 355.136 12.7558C355.185 14.2871 355.209 15.8266 355.209 17.3743H351.446V0.342106Z" fill="#FFBA72"/>
<path d="M346.597 0.342106H350.385V17.3743H346.597V0.342106ZM335.527 0.342106H339.291V17.3743H335.527V0.342106ZM338.973 7.20874H346.939V10.2877H338.973V7.20874Z" fill="#FFBA72"/>
<path d="M325.994 2.49251L326.849 3.42108H320.349V0.342106H335.426V3.42108H328.926L329.782 2.49251V17.3743H325.994V2.49251Z" fill="#FFBA72"/>
<path d="M311.047 10.9475L304.669 0.342106H308.823C309.654 1.69425 310.281 2.84276 310.705 3.78763C311.144 4.71622 311.446 5.61223 311.609 6.47564C311.788 7.32277 311.877 8.31653 311.877 9.45689H314.028C314.028 8.31653 314.109 7.31462 314.272 6.4512C314.451 5.58778 314.753 4.69177 315.176 3.76319C315.6 2.83461 316.227 1.69425 317.058 0.342106H321.237L314.834 10.9475V17.3743H311.047V10.9475Z" fill="#FFBA72"/>
<path d="M300.797 0.342106H304.585V17.3743H300.797V0.342106ZM289.727 0.342106H293.49V17.3743H289.727V0.342106ZM293.173 7.20874H301.139V10.2877H293.173V7.20874Z" fill="#FFBA72"/>
<path d="M274.118 0.342106H282.036C284.203 0.342106 285.824 0.724941 286.899 1.49061C287.974 2.24 288.512 3.37221 288.512 4.88726C288.512 5.81585 288.267 6.58969 287.778 7.20874C287.29 7.8278 286.63 8.30024 285.799 8.62605C284.968 8.95187 284.032 9.14734 282.989 9.21251V11.1674C283.738 11.2 284.382 11.3629 284.919 11.6562C285.473 11.9331 285.986 12.3892 286.459 13.0246L286.532 13.1224L289.66 17.3743H285.237L282.549 13.5378C282.484 13.44 282.419 13.3423 282.354 13.2445C281.881 12.5766 281.498 12.1042 281.205 11.8272C280.928 11.5503 280.619 11.3629 280.276 11.2652C279.934 11.1511 279.437 11.0941 278.786 11.0941H276.953L277.882 10.19V17.3743H274.118V0.342106ZM276.953 8.69935H281.352C282.101 8.69935 282.72 8.6016 283.209 8.40611C283.714 8.19433 284.089 7.88481 284.333 7.47754C284.594 7.07026 284.724 6.5571 284.724 5.93804C284.724 5.04204 284.447 4.37412 283.893 3.93426C283.339 3.4944 282.492 3.27447 281.352 3.27447H276.953L277.882 2.32145V9.57906L276.953 8.69935Z" fill="#FFBA72"/>
<path d="M262.546 17.7164C260.868 17.7164 259.361 17.3498 258.026 16.6167C256.706 15.8674 255.672 14.8247 254.922 13.4889C254.173 12.1367 253.798 10.5891 253.798 8.84598C253.798 7.10285 254.173 5.56335 254.922 4.2275C255.688 2.89164 256.747 1.85716 258.099 1.12407C259.467 0.374683 261.015 0 262.742 0C264.094 0 265.291 0.219921 266.334 0.659777C267.377 1.09963 268.338 1.72685 269.217 2.54139L267.311 5.05833C266.709 4.47186 266.057 4.02385 265.357 3.71432C264.656 3.3885 263.866 3.2256 262.986 3.2256C261.944 3.2256 261.007 3.46998 260.176 3.9587C259.361 4.43114 258.726 5.09907 258.27 5.96249C257.814 6.82591 257.586 7.81149 257.586 8.91927C257.586 10.0271 257.814 10.9964 258.27 11.8272C258.742 12.658 259.386 13.3015 260.2 13.7577C261.031 14.1975 261.968 14.4175 263.011 14.4175C263.907 14.4175 264.705 14.2383 265.405 13.8799C266.122 13.5215 266.782 13.0164 267.385 12.3648L269.34 14.9551C268.427 15.8511 267.434 16.5353 266.358 17.0077C265.299 17.4802 264.029 17.7164 262.546 17.7164Z" fill="#FFBA72"/>
<path d="M249.318 0.342106H253.082V17.3743H249.318V0.342106Z" fill="#FFBA72"/>
<path d="M235.881 0.342106H249.004V3.42108H238.716L239.644 2.54139V8.18619L238.716 7.35535H248.124V10.4343H238.716L239.644 9.43245V17.3743H235.881V0.342106Z" fill="#FFBA72"/>
<path d="M231.035 0.342106H234.798V17.3743H231.035V0.342106Z" fill="#FFBA72"/>
<path d="M223.999 17.7164C222.321 17.7164 220.814 17.3498 219.478 16.6167C218.159 15.8674 217.124 14.8247 216.375 13.4889C215.625 12.1367 215.251 10.5891 215.251 8.84598C215.251 7.10285 215.625 5.56335 216.375 4.2275C217.14 2.89164 218.199 1.85716 219.551 1.12407C220.92 0.374683 222.468 0 224.194 0C225.547 0 226.744 0.219921 227.787 0.659777C228.829 1.09963 229.79 1.72685 230.67 2.54139L228.764 5.05833C228.161 4.47186 227.51 4.02385 226.809 3.71432C226.109 3.3885 225.318 3.2256 224.439 3.2256C223.396 3.2256 222.459 3.46998 221.629 3.9587C220.814 4.43114 220.179 5.09907 219.723 5.96249C219.266 6.82591 219.038 7.81149 219.038 8.91927C219.038 10.0271 219.266 10.9964 219.723 11.8272C220.195 12.658 220.838 13.3015 221.653 13.7577C222.484 14.1975 223.421 14.4175 224.463 14.4175C225.359 14.4175 226.157 14.2383 226.858 13.8799C227.575 13.5215 228.235 13.0164 228.837 12.3648L230.792 14.9551C229.88 15.8511 228.886 16.5353 227.811 17.0077C226.752 17.4802 225.481 17.7164 223.999 17.7164Z" fill="#FFBA72"/>
<path d="M212.638 17.3743L210.806 12.7069L211.954 13.5133H202.888L204.037 12.7069L202.179 17.3743H198.172L205.429 0.342106H209.388L216.67 17.3743H212.638ZM206.431 3.17674C206.448 3.81208 206.44 4.4067 206.407 4.96059C206.374 5.4982 206.301 6.03578 206.187 6.57338C206.089 7.09469 205.951 7.6323 205.772 8.18619C205.56 8.78896 205.104 9.80713 204.403 11.2407L203.866 10.6787H210.952L210.415 11.2407C210.072 10.5402 209.755 9.82342 209.461 9.09033C209.038 8.064 208.761 7.11099 208.631 6.23128C208.5 5.33528 208.451 4.3171 208.484 3.17674H206.431Z" fill="#FFBA72"/>
<path d="M186.38 0.342106H194.005C195.454 0.342106 196.693 0.57018 197.719 1.02633C198.761 1.46618 199.552 2.11782 200.089 2.98124C200.643 3.84466 200.92 4.87914 200.92 6.08467C200.92 7.92554 200.309 9.37543 199.087 10.4343C197.865 11.4933 196.171 12.0227 194.005 12.0227H189.215L190.144 11.1674V17.3743H186.38V0.342106ZM189.215 9.09033H193.54C194.713 9.09033 195.609 8.84597 196.228 8.35724C196.847 7.85223 197.157 7.12728 197.157 6.18241C197.157 5.28641 196.847 4.60219 196.228 4.12976C195.609 3.65732 194.705 3.42108 193.516 3.42108H189.215L190.144 2.56582V9.92118L189.215 9.09033Z" fill="#FFBA72"/>
<path d="M624.718 0.317621H628.114L637.669 12.096L639.453 10.8741C638.85 10.2062 638.353 9.59531 637.962 9.04141C637.571 8.48752 637.254 7.8929 637.009 7.25755C636.765 6.60592 636.643 5.92986 636.643 5.22935V0.317621H640.43V17.3498H637.303L627.65 5.49814L625.817 6.69553C626.502 7.34716 627.039 7.99065 627.43 8.626C628.131 9.75007 628.481 10.98 628.481 12.3159V17.3498H624.718V0.317621Z" fill="#FFBA72"/>
<path d="M609.109 0.317621H617.026C619.193 0.317621 620.814 0.700456 621.889 1.46613C622.964 2.21551 623.502 3.34772 623.502 4.86278C623.502 5.79136 623.258 6.5652 622.769 7.18426C622.28 7.80331 621.621 8.27575 620.79 8.60157C619.959 8.92739 619.022 9.12286 617.979 9.18802V11.1429C618.729 11.1755 619.372 11.3384 619.91 11.6317C620.464 11.9086 620.977 12.3648 621.449 13.0001L621.523 13.0979L624.651 17.3498H620.228L617.54 13.5133C617.474 13.4155 617.409 13.3178 617.344 13.22C616.872 12.5521 616.489 12.0797 616.196 11.8027C615.919 11.5258 615.609 11.3384 615.267 11.2407C614.925 11.1267 614.428 11.0696 613.776 11.0696H611.944L612.872 10.1655V17.3498H609.109V0.317621ZM611.944 8.67487H616.342C617.092 8.67487 617.711 8.57712 618.199 8.38163C618.704 8.16985 619.079 7.86032 619.323 7.45305C619.584 7.04578 619.714 6.53261 619.714 5.91356C619.714 5.01756 619.438 4.34963 618.884 3.90978C618.33 3.46992 617.483 3.24999 616.342 3.24999H611.944L612.872 2.29697V9.55457L611.944 8.67487Z" fill="#FFBA72"/>
<path d="M594.789 0.317621H608.253V3.3966H597.624L598.552 2.51691V8.16171L597.624 7.30642H607.496V10.2144H597.624L598.552 9.40796V15.1994L597.624 14.2708H608.547V17.3498H594.789V0.317621Z" fill="#FFBA72"/>
<path d="M578.345 0.317621H584.821C586.743 0.317621 588.413 0.692303 589.83 1.44169C591.247 2.17478 592.331 3.18482 593.08 4.4718C593.83 5.75879 594.204 7.21682 594.204 8.84592C594.204 10.4098 593.83 11.8435 593.08 13.1467C592.331 14.4337 591.247 15.4601 589.83 16.2257C588.413 16.9751 586.743 17.3498 584.821 17.3498H578.345V0.317621ZM581.18 14.2708H584.576C585.765 14.2708 586.792 14.0427 587.655 13.5866C588.535 13.1305 589.203 12.4951 589.659 11.6806C590.131 10.8497 590.368 9.90483 590.368 8.84592C590.368 7.78701 590.131 6.85029 589.659 6.03574C589.203 5.2049 588.535 4.56142 587.655 4.10527C586.792 3.63283 585.765 3.3966 584.576 3.3966H581.18L582.108 2.49246V15.1994L581.18 14.2708Z" fill="#FFBA72"/>
<path d="M568.736 17.6675C567.025 17.6675 565.494 17.2928 564.141 16.5434C562.789 15.7777 561.73 14.727 560.965 13.3911C560.199 12.039 559.816 10.5239 559.816 8.84594C559.816 7.16797 560.199 5.66105 560.965 4.32519C561.73 2.98934 562.789 1.94672 564.141 1.19734C565.494 0.431664 567.025 0.0488281 568.736 0.0488281C570.43 0.0488281 571.953 0.431664 573.305 1.19734C574.674 1.94672 575.741 2.98934 576.506 4.32519C577.272 5.66105 577.655 7.16797 577.655 8.84594C577.655 10.5239 577.272 12.039 576.506 13.3911C575.741 14.727 574.674 15.7777 573.305 16.5434C571.953 17.2928 570.43 17.6675 568.736 17.6675ZM568.736 14.5641C569.762 14.5641 570.658 14.3197 571.423 13.831C572.189 13.3422 572.776 12.6662 573.183 11.8027C573.59 10.9393 573.794 9.95372 573.794 8.84594C573.794 7.73815 573.59 6.75255 573.183 5.88913C572.776 5.02571 572.189 4.34963 571.423 3.86091C570.658 3.37218 569.762 3.12782 568.736 3.12782C567.709 3.12782 566.813 3.37218 566.048 3.86091C565.282 4.34963 564.687 5.02571 564.264 5.88913C563.856 6.75255 563.653 7.73815 563.653 8.84594C563.653 9.95372 563.856 10.9393 564.264 11.8027C564.687 12.6662 565.282 13.3422 566.048 13.831C566.813 14.3197 567.709 14.5641 568.736 14.5641Z" fill="#FFBA72"/>
<path d="M541.018 0.317621H546.297C546.753 1.40911 547.16 2.41915 547.518 3.34773C547.877 4.26002 548.154 5.08271 548.349 5.8158C548.594 6.64664 548.773 7.42861 548.887 8.16171C549.001 8.87851 549.058 9.61159 549.058 10.361H551.037C551.037 9.53013 551.111 8.69931 551.257 7.86847C551.404 7.02134 551.632 6.12533 551.941 5.18046C552.251 4.23558 552.683 3.07893 553.237 1.7105C553.318 1.48242 553.505 1.01813 553.799 0.317621H559.101V17.3498H555.338C555.338 15.851 555.363 14.3604 555.411 12.8779C555.477 11.4932 555.582 10.3691 555.729 9.5057C555.892 8.62599 556.104 7.83588 556.364 7.13537C556.625 6.43486 556.992 5.61217 557.464 4.6673L555.509 3.95865L551.477 14.3197H548.594L544.586 3.95865L542.656 4.74061C543.128 5.68549 543.495 6.50004 543.755 7.18426C544.016 7.86848 544.22 8.63415 544.366 9.48128C544.529 10.3121 544.643 11.3955 544.708 12.7313C544.757 14.2627 544.782 15.8022 544.782 17.3498H541.018V0.317621Z" fill="#FFBA72"/>
<path d="M520.874 0.317621H528.791C530.958 0.317621 532.579 0.700456 533.654 1.46613C534.729 2.21551 535.267 3.34772 535.267 4.86278C535.267 5.79136 535.022 6.5652 534.534 7.18426C534.045 7.80331 533.385 8.27575 532.554 8.60157C531.723 8.92739 530.787 9.12286 529.744 9.18802V11.1429C530.493 11.1755 531.137 11.3384 531.674 11.6317C532.228 11.9086 532.742 12.3648 533.214 13.0001L533.287 13.0979L536.415 17.3498H531.992L529.304 13.5133C529.239 13.4155 529.174 13.3178 529.109 13.22C528.636 12.5521 528.253 12.0797 527.96 11.8027C527.683 11.5258 527.374 11.3384 527.032 11.2407C526.689 11.1267 526.193 11.0696 525.541 11.0696H523.708L524.637 10.1655V17.3498H520.874V0.317621ZM523.708 8.67487H528.107C528.856 8.67487 529.475 8.57712 529.964 8.38163C530.469 8.16985 530.844 7.86032 531.088 7.45305C531.349 7.04578 531.479 6.53261 531.479 5.91356C531.479 5.01756 531.202 4.34963 530.648 3.90978C530.094 3.46992 529.247 3.24999 528.107 3.24999H523.708L524.637 2.29697V9.55457L523.708 8.67487Z" fill="#FFBA72"/>
<path d="M506.554 0.317621H520.018V3.3966H509.388L510.317 2.51691V8.16171L509.388 7.30642H519.26V10.2144H509.388L510.317 9.40796V15.1994L509.388 14.2708H520.311V17.3498H506.554V0.317621Z" fill="#FFBA72"/>
<path d="M501.704 0.317621H505.492V17.3498H501.704V0.317621ZM490.635 0.317621H494.398V17.3498H490.635V0.317621ZM494.08 7.18426H502.046V10.2632H494.08V7.18426Z" fill="#FFBA72"/>
<path d="M481.101 2.46802L481.956 3.3966H475.456V0.317621H490.534V3.3966H484.033L484.889 2.46802V17.3498H481.101V2.46802Z" fill="#FFBA72"/>
<path d="M459.656 0.317621H463.052L472.607 12.096L474.391 10.8741C473.788 10.2062 473.291 9.59531 472.9 9.04141C472.509 8.48752 472.192 7.8929 471.947 7.25755C471.703 6.60592 471.581 5.92986 471.581 5.22935V0.317621H475.368V17.3498H472.24L462.588 5.49814L460.755 6.69553C461.44 7.34716 461.977 7.99065 462.368 8.626C463.069 9.75007 463.419 10.98 463.419 12.3159V17.3498H459.656V0.317621Z" fill="#FFBA72"/>
<path d="M455.531 17.3498L453.699 12.6824L454.847 13.4888H445.781L446.93 12.6824L445.073 17.3498H441.065L448.323 0.317621H452.281L459.563 17.3498H455.531ZM449.324 3.15225C449.341 3.7876 449.333 4.38222 449.3 4.93611C449.267 5.47371 449.194 6.0113 449.08 6.5489C448.982 7.07021 448.844 7.60781 448.665 8.16171C448.453 8.76447 447.997 9.78265 447.296 11.2163L446.759 10.6542H453.845L453.308 11.2163C452.965 10.5157 452.648 9.79893 452.355 9.06584C451.931 8.03951 451.654 7.0865 451.524 6.20679C451.393 5.31079 451.345 4.29262 451.377 3.15225H449.324Z" fill="#FFBA72"/>
<path d="M429.273 0.317621H436.898C438.347 0.317621 439.586 0.545695 440.612 1.00184C441.655 1.4417 442.445 2.09333 442.982 2.95675C443.536 3.82017 443.813 4.85466 443.813 6.06018C443.813 7.90106 443.202 9.35094 441.98 10.4099C440.759 11.4688 439.064 11.9982 436.898 11.9982H432.108L433.037 11.1429V17.3498H429.273V0.317621ZM432.108 9.06584H436.433C437.606 9.06584 438.502 8.82149 439.121 8.33276C439.74 7.82774 440.05 7.1028 440.05 6.15792C440.05 5.26192 439.74 4.57771 439.121 4.10527C438.502 3.63283 437.598 3.3966 436.409 3.3966H432.108L433.037 2.54133V9.8967L432.108 9.06584Z" fill="#FFBA72"/>
</svg>
