<svg width="641" height="18" viewBox="0 0 641 18" fill="none" xmlns="http://www.w3.org/2000/svg">
<path d="M199.692 17.4026L197.879 12.7867L199.015 13.5842H190.049L191.185 12.7867L189.348 17.4026H185.385L192.563 0.558105H196.478L203.68 17.4026H199.692ZM193.554 3.3615C193.57 3.98984 193.562 4.57791 193.529 5.1257C193.497 5.65738 193.425 6.18906 193.312 6.72074C193.215 7.2363 193.078 7.76798 192.901 8.31577C192.692 8.9119 192.24 9.91886 191.548 11.3367L191.016 10.7808H198.024L197.493 11.3367C197.154 10.6439 196.84 9.93497 196.55 9.20996C196.131 8.19494 195.857 7.25242 195.729 6.3824C195.6 5.49627 195.551 4.4893 195.584 3.3615H193.554Z" fill="#FFBA72"/>
<path d="M167.398 0.558105H172.619C173.07 1.63757 173.472 2.63648 173.827 3.55484C174.181 4.45708 174.455 5.27071 174.649 5.99572C174.89 6.81741 175.067 7.59076 175.18 8.31577C175.293 9.02468 175.349 9.74969 175.349 10.4908H177.307C177.307 9.66913 177.379 8.84745 177.524 8.02576C177.669 7.18797 177.895 6.30184 178.201 5.36738C178.507 4.43291 178.934 3.289 179.482 1.93563C179.563 1.71007 179.748 1.2509 180.038 0.558105H185.282V17.4026H181.56C181.56 15.9204 181.585 14.4462 181.633 12.98C181.697 11.6106 181.802 10.4989 181.947 9.64497C182.108 8.77495 182.318 7.99354 182.575 7.30075C182.833 6.60796 183.196 5.79433 183.663 4.85986L181.73 4.15902L177.742 14.4059H174.89L170.927 4.15902L169.018 4.93237C169.485 5.86683 169.847 6.6724 170.105 7.34908C170.363 8.02577 170.564 8.783 170.709 9.6208C170.87 10.4425 170.983 11.5139 171.048 12.835C171.096 14.3495 171.12 15.872 171.12 17.4026H167.398V0.558105Z" fill="#FFBA72"/>
<path d="M163.319 17.4026L161.507 12.7867L162.643 13.5842H153.677L154.813 12.7867L152.976 17.4026H149.012L156.19 0.558105H160.105L167.307 17.4026H163.319ZM157.181 3.3615C157.197 3.98984 157.189 4.57791 157.157 5.1257C157.125 5.65738 157.052 6.18906 156.939 6.72074C156.843 7.2363 156.706 7.76798 156.528 8.31577C156.319 8.9119 155.868 9.91886 155.175 11.3367L154.643 10.7808H161.652L161.12 11.3367C160.782 10.6439 160.468 9.93497 160.178 9.20996C159.759 8.19494 159.485 7.25242 159.356 6.3824C159.227 5.49627 159.179 4.4893 159.211 3.3615H157.181Z" fill="#FFBA72"/>
<path d="M143.282 11.0467L136.974 0.558105H141.083C141.904 1.89536 142.525 3.03121 142.944 3.96568C143.379 4.88403 143.677 5.77016 143.838 6.62407C144.015 7.46186 144.104 8.44466 144.104 9.57247H146.23C146.23 8.44466 146.311 7.45381 146.472 6.5999C146.649 5.74599 146.947 4.85986 147.366 3.94151C147.785 3.02316 148.405 1.89536 149.227 0.558105H153.36L147.028 11.0467V17.4026H143.282V11.0467Z" fill="#FFBA72"/>
<path d="M137.331 17.4026L135.519 12.7867L136.654 13.5842H127.688L128.824 12.7867L126.988 17.4026H123.024L130.202 0.558105H134.117L141.319 17.4026H137.331ZM131.193 3.3615C131.209 3.98984 131.201 4.57791 131.169 5.1257C131.136 5.65738 131.064 6.18906 130.951 6.72074C130.854 7.2363 130.717 7.76798 130.54 8.31577C130.331 8.9119 129.88 9.91886 129.187 11.3367L128.655 10.7808H135.664L135.132 11.3367C134.794 10.6439 134.479 9.93497 134.189 9.20996C133.771 8.19494 133.497 7.25242 133.368 6.3824C133.239 5.49627 133.19 4.4893 133.223 3.3615H131.193Z" fill="#FFBA72"/>
<path d="M109.215 0.558105H112.937V3.579C112.937 4.09457 112.872 4.56986 112.743 5.00487C112.614 5.43988 112.373 5.93128 112.018 6.47907C111.68 7.01074 111.18 7.69548 110.52 8.53328L112.115 9.66913L120.187 0.558105H124.706L117.335 8.41244L117.432 7.08325L124.924 17.4026H120.453L114.991 9.71747L116.03 9.81414L112.212 13.8984L112.937 12.2309V17.4026H109.215V0.558105Z" fill="#FFBA72"/>
<path d="M105.136 17.4026L103.324 12.7867L104.46 13.5842H95.4936L96.6295 12.7867L94.7928 17.4026H90.8293L98.007 0.558105H101.922L109.124 17.4026H105.136ZM98.9979 3.3615C99.014 3.98984 99.0059 4.57791 98.9737 5.1257C98.9415 5.65738 98.869 6.18906 98.7562 6.72074C98.6595 7.2363 98.5226 7.76798 98.3453 8.31577C98.1359 8.9119 97.6848 9.91886 96.992 11.3367L96.4603 10.7808H103.469L102.937 11.3367C102.599 10.6439 102.285 9.93497 101.995 9.20996C101.576 8.19494 101.302 7.25242 101.173 6.3824C101.044 5.49627 100.996 4.4893 101.028 3.3615H98.9979Z" fill="#FFBA72"/>
<path d="M75.2026 0.558105H78.5619L88.0112 12.2067L89.7755 10.9983C89.1793 10.3378 88.6879 9.73358 88.3012 9.18579C87.9146 8.638 87.6004 8.04993 87.3587 7.42159C87.1171 6.77713 86.9962 6.1085 86.9962 5.41571V0.558105H90.7421V17.4026H87.6487L78.1027 5.68155L76.2902 6.86574C76.9668 7.5102 77.4985 8.1466 77.8852 8.77495C78.578 9.88664 78.9244 11.1031 78.9244 12.4242V17.4026H75.2026V0.558105Z" fill="#FFBA72"/>
<path d="M61.2129 17.716C59.5212 17.716 58.0067 17.3455 56.6694 16.6044C55.3322 15.8471 54.2849 14.8079 53.5277 13.4868C52.7705 12.1495 52.3918 10.6512 52.3918 8.99169C52.3918 7.33221 52.7705 5.8419 53.5277 4.52076C54.2849 3.19962 55.3322 2.16849 56.6694 1.42736C58.0067 0.670123 59.5212 0.291504 61.2129 0.291504C62.8885 0.291504 64.3949 0.670123 65.7321 1.42736C67.0855 2.16849 68.1408 3.19962 68.898 4.52076C69.6553 5.8419 70.0339 7.33221 70.0339 8.99169C70.0339 10.6512 69.6553 12.1495 68.898 13.4868C68.1408 14.8079 67.0855 15.8471 65.7321 16.6044C64.3949 17.3455 62.8885 17.716 61.2129 17.716ZM61.2129 14.6468C62.2279 14.6468 63.114 14.4051 63.8713 13.9218C64.6285 13.4385 65.2085 12.7698 65.6113 11.9159C66.0141 11.062 66.2155 10.0873 66.2155 8.99169C66.2155 7.89611 66.0141 6.92137 65.6113 6.06746C65.2085 5.21355 64.6285 4.54493 63.8713 4.06158C63.114 3.57824 62.2279 3.33657 61.2129 3.33657C60.1978 3.33657 59.3117 3.57824 58.5545 4.06158C57.7972 4.54493 57.2092 5.21355 56.7903 6.06746C56.3875 6.92137 56.1861 7.89611 56.1861 8.99169C56.1861 10.0873 56.3875 11.062 56.7903 11.9159C57.2092 12.7698 57.7972 13.4385 58.5545 13.9218C59.3117 14.4051 60.1978 14.6468 61.2129 14.6468Z" fill="#FFBA72"/>
<path d="M38.8989 0.558105H42.6207V3.579C42.6207 4.09457 42.5562 4.56986 42.4273 5.00487C42.2984 5.43988 42.0568 5.93128 41.7023 6.47907C41.364 7.01074 40.8645 7.69548 40.204 8.53328L41.799 9.66913L49.8708 0.558105H54.3901L47.0191 8.41244L47.1158 7.08325L54.6076 17.4026H50.1367L44.6749 9.71747L45.7141 9.81414L41.8957 13.8984L42.6207 12.2309V17.4026H38.8989V0.558105Z" fill="#FFBA72"/>
<path d="M34.106 0.558105H37.8277V17.4026H34.106V0.558105Z" fill="#FFBA72"/>
<path d="M18.386 0.558105H22.1077V3.579C22.1077 4.09457 22.0433 4.56986 21.9144 5.00487C21.7855 5.43988 21.5438 5.93128 21.1894 6.47907C20.851 7.01074 20.3516 7.69548 19.691 8.53328L21.286 9.66913L29.3579 0.558105H33.8772L26.5062 8.41244L26.6028 7.08325L34.0947 17.4026H29.6237L24.1619 9.71747L25.2011 9.81414L21.3827 13.8984L22.1077 12.2309V17.4026H18.386V0.558105Z" fill="#FFBA72"/>
<path d="M14.307 17.4026L12.4944 12.7867L13.6303 13.5842H4.66427L5.80012 12.7867L3.96342 17.4026H0L7.17765 0.558105H11.0927L18.2946 17.4026H14.307ZM8.16851 3.3615C8.18462 3.98984 8.17657 4.57791 8.14434 5.1257C8.11212 5.65738 8.03962 6.18906 7.92684 6.72074C7.83017 7.2363 7.69322 7.76798 7.51599 8.31577C7.30655 8.9119 6.85543 9.91886 6.16263 11.3367L5.63095 10.7808H12.6394L12.1078 11.3367C11.7694 10.6439 11.4552 9.93497 11.1652 9.20996C10.7463 8.19494 10.4724 7.25242 10.3436 6.3824C10.2147 5.49627 10.1663 4.4893 10.1986 3.3615H8.16851Z" fill="#FFBA72"/>
<path d="M402.66 17.3743L400.827 12.7069L401.975 13.5133H392.909L394.058 12.7069L392.201 17.3743H388.193L395.451 0.342108H399.409L406.692 17.3743H402.66ZM396.453 3.17673C396.469 3.81208 396.461 4.4067 396.428 4.96059C396.396 5.49819 396.322 6.03579 396.208 6.57339C396.111 7.0947 395.972 7.6323 395.793 8.18619C395.581 8.78896 395.125 9.80714 394.424 11.2407L393.887 10.6787H400.973L400.436 11.2407C400.094 10.5402 399.776 9.82343 399.483 9.09034C399.059 8.06401 398.782 7.11099 398.652 6.23128C398.522 5.33528 398.473 4.3171 398.505 3.17673H396.453Z" fill="#FFBA72"/>
<path d="M384.324 0.342108H388.088V17.3743H384.324V0.342108Z" fill="#FFBA72"/>
<path d="M377.288 17.7164C375.61 17.7164 374.103 17.3498 372.768 16.6168C371.448 15.8674 370.414 14.8247 369.664 13.4889C368.915 12.1367 368.54 10.5891 368.54 8.84598C368.54 7.10285 368.915 5.56335 369.664 4.2275C370.43 2.89164 371.489 1.85717 372.841 1.12407C374.209 0.374691 375.757 0 377.484 0C378.836 0 380.033 0.219928 381.076 0.659783C382.119 1.09964 383.08 1.72684 383.959 2.54138L382.053 5.05834C381.451 4.47186 380.799 4.02386 380.099 3.71433C379.398 3.38851 378.608 3.2256 377.728 3.2256C376.686 3.2256 375.749 3.46997 374.918 3.9587C374.103 4.43113 373.468 5.09906 373.012 5.96248C372.556 6.8259 372.328 7.8115 372.328 8.91929C372.328 10.0271 372.556 10.9964 373.012 11.8272C373.484 12.6581 374.128 13.3015 374.942 13.7577C375.773 14.1975 376.71 14.4175 377.753 14.4175C378.649 14.4175 379.447 14.2383 380.147 13.8799C380.864 13.5215 381.524 13.0165 382.127 12.3648L384.082 14.9551C383.169 15.8511 382.176 16.5353 381.1 17.0077C380.042 17.4802 378.771 17.7164 377.288 17.7164Z" fill="#FFBA72"/>
<path d="M360.416 17.7164C358.885 17.7164 357.549 17.4476 356.409 16.91C355.268 16.3561 354.389 15.5334 353.77 14.4419C353.167 13.3504 352.865 12.0146 352.865 10.4343V0.342108H356.629V10.3366C356.629 11.2489 356.775 12.0227 357.069 12.6581C357.378 13.2771 357.81 13.7495 358.364 14.0754C358.934 14.3849 359.618 14.5397 360.416 14.5397C361.606 14.5397 362.526 14.1813 363.178 13.4645C363.846 12.7314 364.18 11.6887 364.18 10.3366V0.342108H367.943V10.4343C367.943 12.8128 367.267 14.6211 365.914 15.8592C364.579 17.0973 362.746 17.7164 360.416 17.7164Z" fill="#FFBA72"/>
<path d="M340.72 0.342108H344.483V15.2239L343.554 14.2953H353.647V17.3743H340.72V0.342108Z" fill="#FFBA72"/>
<path d="M332.059 17.3743L330.227 12.7069L331.375 13.5133H322.309L323.458 12.7069L321.601 17.3743H317.593L324.851 0.342108H328.809L336.091 17.3743H332.059ZM325.853 3.17673C325.869 3.81208 325.861 4.4067 325.828 4.96059C325.795 5.49819 325.722 6.03579 325.608 6.57339C325.51 7.0947 325.372 7.6323 325.193 8.18619C324.981 8.78896 324.525 9.80714 323.824 11.2407L323.287 10.6787H330.373L329.836 11.2407C329.494 10.5402 329.176 9.82343 328.883 9.09034C328.459 8.06401 328.182 7.11099 328.052 6.23128C327.922 5.33528 327.873 4.3171 327.905 3.17673H325.853Z" fill="#FFBA72"/>
<path d="M301.792 0.342108H305.189L314.744 12.1205L316.528 10.8986C315.925 10.2307 315.428 9.61979 315.037 9.0659C314.646 8.51201 314.328 7.91739 314.084 7.28205C313.84 6.63041 313.717 5.95433 313.717 5.25382V0.342108H317.505V17.3743H314.377L304.725 5.52263L302.892 6.72001C303.576 7.37165 304.114 8.01514 304.505 8.65048C305.205 9.77456 305.556 11.0045 305.556 12.3404V17.3743H301.792V0.342108Z" fill="#FFBA72"/>
<path d="M285.014 0.342108H288.411L297.966 12.1205L299.749 10.8986C299.147 10.2307 298.65 9.61979 298.259 9.0659C297.868 8.51201 297.55 7.91739 297.306 7.28205C297.062 6.63041 296.939 5.95433 296.939 5.25382V0.342108H300.727V17.3743H297.599L287.947 5.52263L286.114 6.72001C286.798 7.37165 287.336 8.01514 287.727 8.65048C288.427 9.77456 288.778 11.0045 288.778 12.3404V17.3743H285.014V0.342108Z" fill="#FFBA72"/>
<path d="M280.89 17.3743L279.057 12.7069L280.206 13.5133H271.14L272.288 12.7069L270.431 17.3743H266.424L273.681 0.342108H277.64L284.922 17.3743H280.89ZM274.683 3.17673C274.699 3.81208 274.691 4.4067 274.659 4.96059C274.626 5.49819 274.553 6.03579 274.439 6.57339C274.341 7.0947 274.203 7.6323 274.023 8.18619C273.812 8.78896 273.355 9.80714 272.655 11.2407L272.117 10.6787H279.204L278.666 11.2407C278.324 10.5402 278.006 9.82343 277.713 9.09034C277.29 8.06401 277.013 7.11099 276.882 6.23128C276.752 5.33528 276.703 4.3171 276.736 3.17673H274.683Z" fill="#FFBA72"/>
<path d="M626.673 0.342108H640.137V3.42109H629.507L630.436 2.54138V8.18619L629.507 7.33092H639.38V10.2388H629.507L630.436 9.43245V15.2239L629.507 14.2953H640.43V17.3743H626.673V0.342108Z" fill="#FFBA72"/>
<path d="M613.665 0.342108H617.428V15.2239L616.5 14.2953H626.592V17.3743H613.665V0.342108Z" fill="#FFBA72"/>
<path d="M600.657 0.342108H604.421V15.2239L603.492 14.2953H613.584V17.3743H600.657V0.342108Z" fill="#FFBA72"/>
<path d="M595.811 0.342108H599.574V17.3743H595.811V0.342108Z" fill="#FFBA72"/>
<path d="M578.581 0.342108H582.515C582.824 1.15665 583.118 1.92233 583.395 2.63913C584.177 4.90357 584.755 6.63041 585.13 7.81965C585.504 8.99259 585.765 10.0434 585.912 10.9719C586.058 11.9005 586.131 13.0327 586.131 14.3686H588.16C588.16 13.0653 588.233 11.9575 588.38 11.0453C588.526 10.1167 588.779 9.08219 589.137 7.94183C589.512 6.78517 590.058 5.1235 590.774 2.9568C591.117 2.09338 591.459 1.22182 591.801 0.342108H595.735L589.382 17.3743H584.934L578.581 0.342108Z" fill="#FFBA72"/>
<path d="M578.273 17.3743L576.441 12.7069L577.589 13.5133H568.523L569.672 12.7069L567.815 17.3743H563.807L571.065 0.342108H575.023L582.305 17.3743H578.273ZM572.067 3.17673C572.083 3.81208 572.075 4.4067 572.042 4.96059C572.01 5.49819 571.936 6.03579 571.822 6.57339C571.725 7.0947 571.586 7.6323 571.407 8.18619C571.195 8.78896 570.739 9.80714 570.038 11.2407L569.501 10.6787H576.587L576.05 11.2407C575.708 10.5402 575.39 9.82343 575.097 9.09034C574.673 8.06401 574.396 7.11099 574.266 6.23128C574.136 5.33528 574.087 4.3171 574.119 3.17673H572.067Z" fill="#FFBA72"/>
<path d="M558.031 17.692C556.614 17.692 555.368 17.5128 554.292 17.1544C553.234 16.796 552.411 16.2828 551.824 15.6149C551.238 14.9306 550.945 14.1487 550.945 13.269C550.945 12.4707 551.181 11.8028 551.653 11.2652C552.126 10.7276 552.761 10.3203 553.559 10.0434C554.374 9.75012 555.278 9.59536 556.272 9.57907V7.59972C555.148 7.55085 554.162 7.41237 553.315 7.1843C552.468 6.93994 551.792 6.56524 551.287 6.06023C550.782 5.55521 550.529 4.89542 550.529 4.08088C550.529 3.25004 550.798 2.53324 551.336 1.93047C551.873 1.31142 552.647 0.838981 553.657 0.513162C554.667 0.187344 555.84 0.0244346 557.176 0.0244346C558.789 0.0244346 560.255 0.244362 561.574 0.684218C562.894 1.12407 564.165 1.75942 565.387 2.59026L563.7 5.35157C562.886 4.68364 561.892 4.14604 560.719 3.73877C559.562 3.33149 558.422 3.11971 557.298 3.10342C556.369 3.10342 555.661 3.26633 555.172 3.59215C554.683 3.90168 554.439 4.30895 554.439 4.81397C554.439 5.17237 554.561 5.4819 554.806 5.74255C555.05 5.98692 555.392 6.1987 555.832 6.3779C556.288 6.54081 556.866 6.68743 557.567 6.81775L559.595 7.28205C561.322 7.64045 562.674 8.23506 563.652 9.0659C564.645 9.89674 565.142 11.0127 565.142 12.4137C565.142 13.3423 564.857 14.2138 564.287 15.0284C563.717 15.8266 562.894 16.4701 561.819 16.9589C560.744 17.4476 559.481 17.692 558.031 17.692ZM558.129 14.9795C558.781 14.9795 559.343 14.8655 559.815 14.6374C560.304 14.4093 560.67 14.1079 560.915 13.7333C561.175 13.3586 561.306 12.9431 561.306 12.487C561.306 11.982 561.167 11.5421 560.89 11.1674C560.63 10.7765 560.247 10.4751 559.742 10.2633C559.253 10.0352 558.691 9.92118 558.056 9.92118C557.453 9.92118 556.907 10.0271 556.418 10.2388C555.93 10.4506 555.547 10.752 555.27 11.143C554.993 11.5177 554.854 11.9575 554.854 12.4626C554.854 12.935 554.993 13.3667 555.27 13.7577C555.547 14.1324 555.93 14.4338 556.418 14.6618C556.923 14.8736 557.494 14.9795 558.129 14.9795Z" fill="#FFBA72"/>
<path d="M542.162 17.3743L540.329 12.7069L541.478 13.5133H532.412L533.56 12.7069L531.703 17.3743H527.696L534.953 0.342108H538.912L546.194 17.3743H542.162ZM535.955 3.17673C535.971 3.81208 535.963 4.4067 535.931 4.96059C535.898 5.49819 535.825 6.03579 535.711 6.57339C535.613 7.0947 535.475 7.6323 535.295 8.18619C535.084 8.78896 534.628 9.80714 533.927 11.2407L533.389 10.6787H540.476L539.938 11.2407C539.596 10.5402 539.279 9.82343 538.985 9.09034C538.562 8.06401 538.285 7.11099 538.154 6.23128C538.024 5.33528 537.975 4.3171 538.008 3.17673H535.955Z" fill="#FFBA72"/>
<path d="M513.733 0.342108H517.496V3.39666C517.496 3.91797 517.431 4.39855 517.3 4.83841C517.17 5.27826 516.926 5.77513 516.567 6.32903C516.225 6.86663 515.72 7.55899 515.052 8.40612L516.665 9.55463L524.827 0.342108H529.396L521.943 8.28394L522.041 6.93994L529.616 17.3743H525.095L519.573 9.6035L520.624 9.70125L516.763 13.831L517.496 12.1449V17.3743H513.733V0.342108Z" fill="#FFBA72"/>
<path d="M506.696 17.7164C505.018 17.7164 503.512 17.3498 502.176 16.6168C500.856 15.8674 499.822 14.8247 499.072 13.4889C498.323 12.1367 497.948 10.5891 497.948 8.84598C497.948 7.10285 498.323 5.56335 499.072 4.2275C499.838 2.89164 500.897 1.85717 502.249 1.12407C503.617 0.374691 505.165 0 506.892 0C508.244 0 509.441 0.219928 510.484 0.659783C511.527 1.09964 512.488 1.72684 513.367 2.54138L511.462 5.05834C510.859 4.47186 510.207 4.02386 509.507 3.71433C508.806 3.38851 508.016 3.2256 507.136 3.2256C506.094 3.2256 505.157 3.46997 504.326 3.9587C503.512 4.43113 502.876 5.09906 502.42 5.96248C501.964 6.8259 501.736 7.8115 501.736 8.91929C501.736 10.0271 501.964 10.9964 502.42 11.8272C502.892 12.6581 503.536 13.3015 504.351 13.7577C505.181 14.1975 506.118 14.4175 507.161 14.4175C508.057 14.4175 508.855 14.2383 509.555 13.8799C510.272 13.5215 510.932 13.0165 511.535 12.3648L513.49 14.9551C512.577 15.8511 511.584 16.5353 510.509 17.0077C509.45 17.4802 508.179 17.7164 506.696 17.7164Z" fill="#FFBA72"/>
<path d="M484.878 0.342108H498.342V3.42109H487.712L488.641 2.54138V8.18619L487.712 7.33092H497.585V10.2388H487.712L488.641 9.43245V15.2239L487.712 14.2953H498.635V17.3743H484.878V0.342108Z" fill="#FFBA72"/>
<path d="M469.435 0.342108H477.915C479.153 0.342108 480.195 0.472435 481.043 0.73309C481.906 0.977455 482.566 1.39287 483.022 1.97935C483.494 2.54953 483.731 3.28262 483.731 4.17862C483.731 4.92801 483.568 5.55521 483.242 6.06023C482.916 6.54895 482.444 6.9155 481.825 7.15986C481.222 7.40423 480.489 7.55085 479.625 7.59972V9.57907C480.619 9.59536 481.458 9.72569 482.142 9.97005C482.843 10.2144 483.38 10.5891 483.755 11.0941C484.13 11.5991 484.317 12.2589 484.317 13.0735C484.317 14.0183 484.056 14.8085 483.535 15.4438C483.03 16.0791 482.321 16.5597 481.409 16.8856C480.497 17.2114 479.438 17.3743 478.232 17.3743H469.435V0.342108ZM477.524 14.4419C478.143 14.4419 478.672 14.3686 479.112 14.222C479.568 14.0591 479.91 13.8147 480.138 13.4889C480.383 13.1631 480.505 12.7477 480.505 12.2426C480.505 11.7702 480.383 11.3792 480.138 11.0697C479.91 10.7602 479.576 10.5321 479.137 10.3855C478.697 10.2389 478.159 10.1655 477.524 10.1655H473.223V14.4419H477.524ZM476.962 7.37979C477.955 7.37979 478.697 7.21688 479.185 6.89106C479.69 6.54895 479.943 6.01135 479.943 5.27826C479.943 4.57775 479.69 4.07273 479.185 3.7632C478.697 3.43739 477.955 3.27448 476.962 3.27448H473.223V7.37979H476.962Z" fill="#FFBA72"/>
</svg>
