<svg width="641" height="18" viewBox="0 0 641 18" fill="none" xmlns="http://www.w3.org/2000/svg">
<path d="M260.675 0.46349H274.14V3.54248H263.51L264.439 2.66277V8.30758L263.51 7.45229H273.382V10.3602H263.51L264.439 9.55384V15.3453L263.51 14.4167H274.433V17.4957H260.675V0.46349Z" fill="#FFBA72"/>
<path d="M251.142 2.61389L251.997 3.54248H245.497V0.46349H260.574V3.54248H254.074L254.93 2.61389V17.4957H251.142V2.61389Z" fill="#FFBA72"/>
<path d="M245.118 17.4957L243.286 12.8283L244.434 13.6347H235.368L236.517 12.8283L234.66 17.4957H230.652L237.91 0.46349H241.868L249.15 17.4957H245.118ZM238.911 3.29812C238.928 3.93347 238.92 4.52809 238.887 5.08198C238.854 5.61958 238.781 6.15718 238.667 6.69478C238.569 7.21609 238.431 7.75368 238.252 8.30758C238.04 8.91034 237.584 9.92853 236.883 11.3621L236.346 10.8001H243.432L242.895 11.3621C242.552 10.6616 242.235 9.94481 241.942 9.21172C241.518 8.18539 241.241 7.23238 241.111 6.35267C240.98 5.45667 240.932 4.43848 240.964 3.29812H238.911Z" fill="#FFBA72"/>
<path d="M214.851 0.46349H218.248L227.803 12.2418L229.587 11.02C228.984 10.3521 228.487 9.74117 228.096 9.18728C227.705 8.63339 227.387 8.03877 227.143 7.40342C226.899 6.75179 226.776 6.07573 226.776 5.37522V0.46349H230.564V17.4957H227.436L217.784 5.64401L215.951 6.8414C216.635 7.49303 217.173 8.13653 217.564 8.77187C218.264 9.89595 218.615 11.1259 218.615 12.4618V17.4957H214.851V0.46349Z" fill="#FFBA72"/>
<path d="M184.465 0.46349H187.862L197.417 12.2418L199.2 11.02C198.598 10.3521 198.101 9.74117 197.71 9.18728C197.319 8.63339 197.001 8.03877 196.757 7.40342C196.512 6.75179 196.39 6.07573 196.39 5.37522V0.46349H200.178V17.4957H197.05L187.398 5.64401L185.565 6.8414C186.249 7.49303 186.787 8.13653 187.178 8.77187C187.878 9.89595 188.228 11.1259 188.228 12.4618V17.4957H184.465V0.46349Z" fill="#FFBA72"/>
<path d="M174.856 17.8133C173.145 17.8133 171.614 17.4386 170.262 16.6893C168.91 15.9236 167.851 14.8728 167.085 13.537C166.319 12.1848 165.937 10.6698 165.937 8.9918C165.937 7.31383 166.319 5.80692 167.085 4.47106C167.851 3.13521 168.91 2.09258 170.262 1.3432C171.614 0.577524 173.145 0.194689 174.856 0.194689C176.55 0.194689 178.073 0.577524 179.425 1.3432C180.794 2.09258 181.861 3.13521 182.627 4.47106C183.392 5.80692 183.775 7.31383 183.775 8.9918C183.775 10.6698 183.392 12.1848 182.627 13.537C181.861 14.8728 180.794 15.9236 179.425 16.6893C178.073 17.4386 176.55 17.8133 174.856 17.8133ZM174.856 14.7099C175.882 14.7099 176.778 14.4655 177.544 13.9768C178.309 13.4881 178.896 12.812 179.303 11.9486C179.711 11.0852 179.914 10.0996 179.914 8.9918C179.914 7.88401 179.711 6.89841 179.303 6.03499C178.896 5.17157 178.309 4.49549 177.544 4.00677C176.778 3.51804 175.882 3.27368 174.856 3.27368C173.83 3.27368 172.933 3.51804 172.168 4.00677C171.402 4.49549 170.808 5.17157 170.384 6.03499C169.977 6.89841 169.773 7.88401 169.773 8.9918C169.773 10.0996 169.977 11.0852 170.384 11.9486C170.808 12.812 171.402 13.4881 172.168 13.9768C172.933 14.4655 173.83 14.7099 174.856 14.7099Z" fill="#FFBA72"/>
<path d="M159.168 17.8133C157.751 17.8133 156.504 17.6341 155.429 17.2757C154.37 16.9173 153.548 16.4042 152.961 15.7362C152.375 15.052 152.081 14.2701 152.081 13.3903C152.081 12.5921 152.318 11.9242 152.79 11.3866C153.262 10.849 153.898 10.4417 154.696 10.1647C155.511 9.8715 156.415 9.71673 157.408 9.70044V7.7211C156.284 7.67223 155.299 7.53377 154.452 7.30569C153.605 7.06133 152.928 6.68664 152.423 6.18162C151.918 5.6766 151.666 5.01681 151.666 4.20226C151.666 3.37142 151.935 2.65463 152.472 2.05186C153.01 1.43281 153.784 0.960362 154.794 0.634543C155.804 0.308724 156.977 0.145819 158.313 0.145819C159.925 0.145819 161.392 0.365749 162.711 0.805604C164.031 1.24546 165.301 1.8808 166.523 2.71164L164.837 5.47295C164.023 4.80503 163.029 4.26742 161.856 3.86015C160.699 3.45287 159.559 3.2411 158.435 3.22481C157.506 3.22481 156.798 3.38771 156.309 3.71353C155.82 4.02306 155.576 4.43033 155.576 4.93535C155.576 5.29375 155.698 5.60328 155.942 5.86394C156.187 6.1083 156.529 6.32009 156.969 6.49929C157.425 6.6622 158.003 6.80881 158.704 6.93913L160.732 7.40342C162.459 7.76182 163.811 8.35645 164.788 9.18728C165.782 10.0181 166.279 11.1341 166.279 12.5351C166.279 13.4637 165.994 14.3352 165.424 15.1498C164.853 15.948 164.031 16.5915 162.955 17.0802C161.88 17.569 160.618 17.8133 159.168 17.8133ZM159.266 15.1009C159.917 15.1009 160.479 14.9869 160.952 14.7588C161.44 14.5307 161.807 14.2293 162.051 13.8546C162.312 13.4799 162.442 13.0645 162.442 12.6084C162.442 12.1034 162.304 11.6635 162.027 11.2888C161.766 10.8978 161.383 10.5965 160.878 10.3847C160.39 10.1566 159.828 10.0426 159.192 10.0426C158.59 10.0426 158.044 10.1485 157.555 10.3602C157.066 10.572 156.684 10.8734 156.407 11.2644C156.13 11.6391 155.991 12.0789 155.991 12.5839C155.991 13.0564 156.13 13.4881 156.407 13.8791C156.684 14.2538 157.066 14.5551 157.555 14.7832C158.06 14.995 158.63 15.1009 159.266 15.1009Z" fill="#FFBA72"/>
<path d="M135.181 0.46349H138.578L148.132 12.2418L149.916 11.02C149.313 10.3521 148.817 9.74117 148.426 9.18728C148.035 8.63339 147.717 8.03877 147.473 7.40342C147.228 6.75179 147.106 6.07573 147.106 5.37522V0.46349H150.894V17.4957H147.766L138.113 5.64401L136.281 6.8414C136.965 7.49303 137.503 8.13653 137.893 8.77187C138.594 9.89595 138.944 11.1259 138.944 12.4618V17.4957H135.181V0.46349Z" fill="#FFBA72"/>
<path d="M125.572 17.8133C123.861 17.8133 122.33 17.4386 120.978 16.6893C119.625 15.9236 118.566 14.8728 117.801 13.537C117.035 12.1848 116.652 10.6698 116.652 8.9918C116.652 7.31383 117.035 5.80692 117.801 4.47106C118.566 3.13521 119.625 2.09258 120.978 1.3432C122.33 0.577524 123.861 0.194689 125.572 0.194689C127.266 0.194689 128.789 0.577524 130.141 1.3432C131.51 2.09258 132.577 3.13521 133.342 4.47106C134.108 5.80692 134.491 7.31383 134.491 8.9918C134.491 10.6698 134.108 12.1848 133.342 13.537C132.577 14.8728 131.51 15.9236 130.141 16.6893C128.789 17.4386 127.266 17.8133 125.572 17.8133ZM125.572 14.7099C126.598 14.7099 127.494 14.4655 128.26 13.9768C129.025 13.4881 129.612 12.812 130.019 11.9486C130.426 11.0852 130.63 10.0996 130.63 8.9918C130.63 7.88401 130.426 6.89841 130.019 6.03499C129.612 5.17157 129.025 4.49549 128.26 4.00677C127.494 3.51804 126.598 3.27368 125.572 3.27368C124.545 3.27368 123.649 3.51804 122.884 4.00677C122.118 4.49549 121.523 5.17157 121.1 6.03499C120.692 6.89841 120.489 7.88401 120.489 8.9918C120.489 10.0996 120.692 11.0852 121.1 11.9486C121.523 12.812 122.118 13.4881 122.884 13.9768C123.649 14.4655 124.545 14.7099 125.572 14.7099Z" fill="#FFBA72"/>
<path d="M109.729 17.8378C108.36 17.8378 107.171 17.5445 106.161 16.9581C105.151 16.3716 104.361 15.5082 103.791 14.3678L106.088 12.0463C106.43 12.8609 106.878 13.4799 107.432 13.9035C107.985 14.3271 108.621 14.5389 109.338 14.5389C110.234 14.5389 110.95 14.2945 111.488 13.8058C112.026 13.3007 112.294 12.5432 112.294 11.5332V0.46349H116.082V11.973C116.082 13.2274 115.805 14.3026 115.251 15.1986C114.697 16.0784 113.94 16.7381 112.979 17.178C112.017 17.6178 110.934 17.8378 109.729 17.8378Z" fill="#FFBA72"/>
<path d="M77.472 0.46349H81.3818C81.8869 2.956 82.2208 4.97609 82.3837 6.52372C82.5629 8.07136 82.6037 9.43979 82.5059 10.629C82.4082 11.8183 82.1638 13.0808 81.7728 14.4167L83.8744 14.661C84.1188 12.5595 84.4038 10.6616 84.7296 8.96736C85.0555 7.25681 85.6338 4.42219 86.4646 0.46349H91.4252C92.1257 3.36328 92.7041 6.18976 93.1602 8.94293C93.5512 11.0933 93.8362 12.9994 94.0154 14.661L96.1414 14.4167C95.7667 12.9016 95.5305 11.5169 95.4328 10.2625C95.3513 9.00809 95.392 7.63964 95.5549 6.15717C95.7178 4.6584 96.0356 2.76051 96.508 0.46349H100.418L96.7279 17.4957H91.7917C90.9446 13.8139 90.3908 11.0037 90.1301 9.0651C89.8857 7.11019 89.8205 5.07382 89.9346 2.956H87.9552C88.0856 4.97607 88.0204 6.96358 87.7598 8.91849C87.5154 10.8571 86.9615 13.7162 86.0981 17.4957H81.1619L77.472 0.46349Z" fill="#FFBA72"/>
<path d="M64.1293 0.46349H77.5938V3.54248H66.9639L67.8925 2.66277V8.30758L66.9639 7.45229H76.8363V10.3602H66.9639L67.8925 9.55384V15.3453L66.9639 14.4167H77.887V17.4957H64.1293V0.46349Z" fill="#FFBA72"/>
<path d="M59.2801 0.46349H63.0677V17.4957H59.2801V0.46349ZM48.2104 0.46349H51.9736V17.4957H48.2104V0.46349ZM51.6559 7.33013H59.6222V10.4091H51.6559V7.33013Z" fill="#FFBA72"/>
<path d="M38.6769 2.61389L39.5322 3.54248H33.0321V0.46349H48.1094V3.54248H41.6092L42.4646 2.61389V17.4957H38.6769V2.61389Z" fill="#FFBA72"/>
<path d="M32.6534 17.4957L30.8206 12.8283L31.9692 13.6347H22.9032L24.0517 12.8283L22.1946 17.4957H18.187L25.4446 0.46349H29.4034L36.6854 17.4957H32.6534ZM26.4466 3.29812C26.4628 3.93347 26.4547 4.52809 26.4221 5.08198C26.3895 5.61958 26.3162 6.15718 26.2022 6.69478C26.1044 7.21609 25.966 7.75368 25.7868 8.30758C25.575 8.91034 25.1188 9.92853 24.4183 11.3621L23.8807 10.8001H30.9673L30.4297 11.3621C30.0876 10.6616 29.7699 9.94481 29.4766 9.21172C29.0531 8.18539 28.7761 7.23238 28.6458 6.35267C28.5155 5.45667 28.4666 4.43848 28.4992 3.29812H26.4466Z" fill="#FFBA72"/>
<path d="M0 0.46349H5.27825C5.73439 1.55498 6.14168 2.56502 6.50008 3.49361C6.85848 4.4059 7.13543 5.22859 7.33092 5.96168C7.57528 6.79252 7.7545 7.57448 7.86854 8.30758C7.98257 9.02438 8.03961 9.75746 8.03961 10.5068H10.0189C10.0189 9.67601 10.0923 8.84518 10.2389 8.01434C10.3855 7.16721 10.6136 6.27121 10.9231 5.32634C11.2326 4.38146 11.6643 3.22481 12.2182 1.85637C12.2997 1.6283 12.487 1.164 12.7802 0.46349H18.0829V17.4957H14.3198C14.3198 15.9969 14.3442 14.5063 14.3931 13.0238C14.4582 11.6391 14.5641 10.515 14.7107 9.65157C14.8736 8.77186 15.0854 7.98175 15.3461 7.28124C15.6067 6.58073 15.9733 5.75804 16.4457 4.81317L14.4908 4.10452L10.4588 14.4655H7.57528L3.56772 4.10452L1.63723 4.88648C2.10967 5.83136 2.47623 6.64591 2.73688 7.33013C2.99754 8.01435 3.20114 8.78002 3.34776 9.62715C3.51067 10.458 3.6247 11.5413 3.68987 12.8772C3.73874 14.4085 3.7632 15.948 3.7632 17.4957H0V0.46349Z" fill="#FFBA72"/>
<path d="M340.497 0.342106H353.961V3.42109H343.331L344.26 2.54138V8.18619L343.331 7.33091H353.203V10.2389H343.331L344.26 9.43245V15.2239L343.331 14.2953H354.254V17.3743H340.497V0.342106Z" fill="#FFBA72"/>
<path d="M333.46 17.7164C331.782 17.7164 330.276 17.3498 328.94 16.6167C327.62 15.8674 326.586 14.8247 325.836 13.4889C325.087 12.1367 324.712 10.5891 324.712 8.84598C324.712 7.10285 325.087 5.56334 325.836 4.22749C326.602 2.89163 327.661 1.85717 329.013 1.12407C330.381 0.374691 331.929 0 333.656 0C335.008 0 336.205 0.219921 337.248 0.659777C338.291 1.09963 339.252 1.72684 340.132 2.54138L338.226 5.05833C337.623 4.47185 336.971 4.02386 336.271 3.71433C335.57 3.38851 334.78 3.2256 333.9 3.2256C332.858 3.2256 331.921 3.46997 331.09 3.9587C330.276 4.43113 329.64 5.09906 329.184 5.96248C328.728 6.8259 328.5 7.8115 328.5 8.91928C328.5 10.0271 328.728 10.9964 329.184 11.8272C329.656 12.658 330.3 13.3015 331.115 13.7577C331.945 14.1975 332.882 14.4175 333.925 14.4175C334.821 14.4175 335.619 14.2383 336.319 13.8799C337.036 13.5215 337.696 13.0165 338.299 12.3648L340.254 14.9551C339.341 15.8511 338.348 16.5353 337.272 17.0077C336.214 17.4802 334.943 17.7164 333.46 17.7164Z" fill="#FFBA72"/>
<path d="M316.923 10.9475L310.545 0.342106H314.699C315.53 1.69425 316.157 2.84276 316.581 3.78763C317.02 4.71622 317.322 5.61222 317.485 6.47564C317.664 7.32276 317.754 8.31652 317.754 9.45688H319.904C319.904 8.31652 319.985 7.31462 320.148 6.4512C320.327 5.58778 320.629 4.69178 321.052 3.7632C321.476 2.83462 322.103 1.69425 322.934 0.342106H327.113L320.71 10.9475V17.3743H316.923V10.9475Z" fill="#FFBA72"/>
<path d="M304.037 17.692C302.326 17.692 300.795 17.3173 299.443 16.5679C298.09 15.8022 297.032 14.7514 296.266 13.4156C295.5 12.0634 295.117 10.5484 295.117 8.87042C295.117 7.19245 295.5 5.68554 296.266 4.34969C297.032 3.01383 298.09 1.97121 299.443 1.22182C300.795 0.456149 302.326 0.0733134 304.037 0.0733134C305.731 0.0733134 307.254 0.456149 308.606 1.22182C309.975 1.97121 311.042 3.01383 311.807 4.34969C312.573 5.68554 312.956 7.19245 312.956 8.87042C312.956 10.5484 312.573 12.0634 311.807 13.4156C311.042 14.7514 309.975 15.8022 308.606 16.5679C307.254 17.3173 305.731 17.692 304.037 17.692ZM304.037 14.5885C305.063 14.5885 305.959 14.3442 306.725 13.8554C307.49 13.3667 308.077 12.6906 308.484 11.8272C308.891 10.9638 309.095 9.9782 309.095 8.87042C309.095 7.76264 308.891 6.77704 308.484 5.91362C308.077 5.0502 307.49 4.37412 306.725 3.88539C305.959 3.39666 305.063 3.15231 304.037 3.15231C303.01 3.15231 302.114 3.39666 301.349 3.88539C300.583 4.37412 299.988 5.0502 299.565 5.91362C299.158 6.77704 298.954 7.76264 298.954 8.87042C298.954 9.9782 299.158 10.9638 299.565 11.8272C299.988 12.6906 300.583 13.3667 301.349 13.8554C302.114 14.3442 303.01 14.5885 304.037 14.5885Z" fill="#FFBA72"/>
<path d="M280.447 0.342106H288.927C290.165 0.342106 291.208 0.472427 292.055 0.733081C292.918 0.977446 293.578 1.39287 294.034 1.97934C294.506 2.54952 294.743 3.28262 294.743 4.17862C294.743 4.928 294.58 5.55521 294.254 6.06023C293.928 6.54895 293.456 6.91549 292.837 7.15986C292.234 7.40422 291.501 7.55084 290.637 7.59971V9.57906C291.631 9.59535 292.47 9.72569 293.154 9.97005C293.855 10.2144 294.392 10.5891 294.767 11.0941C295.142 11.5991 295.329 12.2589 295.329 13.0735C295.329 14.0183 295.068 14.8085 294.547 15.4438C294.042 16.0792 293.333 16.5597 292.421 16.8855C291.509 17.2114 290.45 17.3743 289.244 17.3743H280.447V0.342106ZM288.536 14.4419C289.155 14.4419 289.684 14.3686 290.124 14.222C290.58 14.0591 290.922 13.8147 291.15 13.4889C291.395 13.1631 291.517 12.7477 291.517 12.2426C291.517 11.7702 291.395 11.3792 291.15 11.0697C290.922 10.7602 290.588 10.5321 290.149 10.3855C289.709 10.2388 289.171 10.1655 288.536 10.1655H284.235V14.4419H288.536ZM287.974 7.37979C288.967 7.37979 289.709 7.21688 290.197 6.89106C290.702 6.54895 290.955 6.01135 290.955 5.27826C290.955 4.57775 290.702 4.07273 290.197 3.7632C289.709 3.43738 288.967 3.27447 287.974 3.27447H284.235V7.37979H287.974Z" fill="#FFBA72"/>
<path d="M504.108 0.679199H510.513C512.414 0.679199 514.065 1.04976 515.467 1.79089C516.869 2.51591 517.94 3.51482 518.681 4.78762C519.422 6.06043 519.793 7.5024 519.793 9.11355C519.793 10.6602 519.422 12.0781 518.681 13.367C517.94 14.6398 516.869 15.6548 515.467 16.412C514.065 17.1532 512.414 17.5237 510.513 17.5237H504.108V0.679199ZM506.912 14.4787H510.271C511.447 14.4787 512.462 14.2531 513.316 13.802C514.186 13.3509 514.847 12.7225 515.298 11.9169C515.765 11.0953 515.999 10.1608 515.999 9.11355C515.999 8.0663 515.765 7.13989 515.298 6.33432C514.847 5.51264 514.186 4.87623 513.316 4.42511C512.462 3.95788 511.447 3.72426 510.271 3.72426H506.912L507.83 2.83008V15.397L506.912 14.4787Z" fill="#FFBA72"/>
<path d="M489.946 0.679199H503.262V3.72426H492.749L493.668 2.85424V8.43687L492.749 7.59101H502.513V10.4669H492.749L493.668 9.66939V15.397L492.749 14.4787H503.552V17.5237H489.946V0.679199Z" fill="#FFBA72"/>
<path d="M474.51 0.679199H482.34C484.483 0.679199 486.086 1.05782 487.149 1.81506C488.212 2.55618 488.744 3.67593 488.744 5.17429C488.744 6.09265 488.502 6.85794 488.019 7.47018C487.536 8.08241 486.883 8.54964 486.061 8.87187C485.24 9.1941 484.313 9.38744 483.282 9.45189V11.3853C484.023 11.4175 484.66 11.5786 485.191 11.8686C485.739 12.1425 486.247 12.5936 486.714 13.222L486.786 13.3186L489.88 17.5237H485.506L482.847 13.7295C482.783 13.6328 482.718 13.5361 482.654 13.4395C482.187 12.7789 481.808 12.3117 481.518 12.0378C481.244 11.7639 480.938 11.5786 480.6 11.4819C480.261 11.3692 479.77 11.3128 479.125 11.3128H477.313L478.231 10.4186V17.5237H474.51V0.679199ZM477.313 8.94438H481.663C482.404 8.94438 483.016 8.84771 483.5 8.65437C483.999 8.44492 484.37 8.1388 484.611 7.73602C484.869 7.33323 484.998 6.82572 484.998 6.21348C484.998 5.32735 484.724 4.66678 484.176 4.23178C483.629 3.79677 482.791 3.57926 481.663 3.57926H477.313L478.231 2.63674V9.81439L477.313 8.94438Z" fill="#FFBA72"/>
<path d="M459.544 0.679199H467.085C468.519 0.679199 469.743 0.904759 470.758 1.35588C471.789 1.79089 472.571 2.43535 473.102 3.28925C473.65 4.14316 473.924 5.16624 473.924 6.35849C473.924 8.17908 473.32 9.613 472.111 10.6602C470.903 11.7075 469.227 12.2311 467.085 12.2311H462.348L463.266 11.3853V17.5237H459.544V0.679199ZM462.348 9.33105H466.625C467.785 9.33105 468.672 9.08938 469.284 8.60604C469.896 8.10658 470.202 7.38962 470.202 6.45516C470.202 5.56903 469.896 4.89235 469.284 4.42511C468.672 3.95788 467.777 3.72426 466.601 3.72426H462.348L463.266 2.87841V10.1527L462.348 9.33105Z" fill="#FFBA72"/>
<path d="M450.263 0.679199H454.009V17.5237H450.263V0.679199ZM439.315 0.679199H443.037V17.5237H439.315V0.679199ZM442.723 7.47018H450.601V10.5152H442.723V7.47018Z" fill="#FFBA72"/>
<path d="M435.236 17.5237L433.424 12.9078L434.559 13.7053H425.593L426.729 12.9078L424.893 17.5237H420.929L428.107 0.679199H432.022L439.224 17.5237H435.236ZM429.098 3.48259C429.114 4.11094 429.106 4.69901 429.074 5.2468C429.041 5.77848 428.969 6.31015 428.856 6.84183C428.759 7.3574 428.622 7.88908 428.445 8.43687C428.236 9.03299 427.785 10.04 427.092 11.4578L426.56 10.9019H433.569L433.037 11.4578C432.699 10.765 432.384 10.0561 432.094 9.33105C431.676 8.31603 431.402 7.37351 431.273 6.50349C431.144 5.61736 431.096 4.61039 431.128 3.48259H429.098Z" fill="#FFBA72"/>
<path d="M413.596 17.8376C411.904 17.8376 410.39 17.4671 409.052 16.7259C407.715 15.9687 406.668 14.9295 405.911 13.6084C405.154 12.2711 404.775 10.7728 404.775 9.11327C404.775 7.45379 405.154 5.96348 405.911 4.64234C406.668 3.3212 407.715 2.29007 409.052 1.54894C410.39 0.791705 411.904 0.413086 413.596 0.413086C415.272 0.413086 416.778 0.791705 418.115 1.54894C419.469 2.29007 420.524 3.3212 421.281 4.64234C422.038 5.96348 422.417 7.45379 422.417 9.11327C422.417 10.7728 422.038 12.2711 421.281 13.6084C420.524 14.9295 419.469 15.9687 418.115 16.7259C416.778 17.4671 415.272 17.8376 413.596 17.8376ZM413.596 14.7684C414.611 14.7684 415.497 14.5267 416.254 14.0434C417.012 13.56 417.592 12.8914 417.994 12.0375C418.397 11.1836 418.599 10.2089 418.599 9.11327C418.599 8.01769 418.397 7.04295 417.994 6.18904C417.592 5.33514 417.012 4.66651 416.254 4.18317C415.497 3.69982 414.611 3.45815 413.596 3.45815C412.581 3.45815 411.695 3.69982 410.938 4.18317C410.18 4.66651 409.592 5.33514 409.173 6.18904C408.771 7.04295 408.569 8.01769 408.569 9.11327C408.569 10.2089 408.771 11.1836 409.173 12.0375C409.592 12.8914 410.18 13.56 410.938 14.0434C411.695 14.5267 412.581 14.7684 413.596 14.7684Z" fill="#FFBA72"/>
<path d="M388.544 0.679199H391.903L401.352 12.3278L403.117 11.1194C402.52 10.4589 402.029 9.85467 401.642 9.30688C401.256 8.75909 400.941 8.17103 400.7 7.54268C400.458 6.89822 400.337 6.2296 400.337 5.5368V0.679199H404.083V17.5237H400.99L391.444 5.80264L389.631 6.98683C390.308 7.63129 390.84 8.26769 391.226 8.89604C391.919 10.0077 392.265 11.2241 392.265 12.5453V17.5237H388.544V0.679199Z" fill="#FFBA72"/>
<path d="M636.443 17.5242L634.63 12.9083L635.766 13.7058H626.8L627.936 12.9083L626.099 17.5242H622.136L629.314 0.679688H633.229L640.431 17.5242H636.443ZM630.304 3.48308C630.321 4.11143 630.313 4.6995 630.28 5.24729C630.248 5.77896 630.176 6.31064 630.063 6.84232C629.966 7.35789 629.829 7.88956 629.652 8.43735C629.443 9.03348 628.991 10.0404 628.299 11.4583L627.767 10.9024H634.775L634.244 11.4583C633.905 10.7655 633.591 10.0566 633.301 9.33154C632.882 8.31652 632.608 7.374 632.48 6.50398C632.351 5.61785 632.302 4.61088 632.335 3.48308H630.304Z" fill="#FFBA72"/>
<path d="M618.31 0.679688H622.032V17.5242H618.31V0.679688Z" fill="#FFBA72"/>
<path d="M605.446 0.679688H609.167V15.3975L608.249 14.4792H618.23V17.5242H605.446V0.679688Z" fill="#FFBA72"/>
<path d="M600.653 0.679688H604.375V17.5242H600.653V0.679688Z" fill="#FFBA72"/>
<path d="M591.188 17.8379C589.819 17.8379 588.562 17.4673 587.418 16.7262C586.274 15.985 585.372 14.9539 584.711 13.6328C584.051 12.2955 583.72 10.781 583.72 9.08934C583.72 7.39764 584.091 5.89122 584.832 4.57008C585.573 3.23283 586.604 2.19364 587.926 1.45251C589.247 0.711384 590.753 0.34082 592.445 0.34082C593.847 0.34082 595.16 0.606659 596.384 1.13834C597.609 1.67002 598.656 2.37892 599.526 3.26505L597.423 5.68177C596.747 5.00509 596.03 4.47341 595.272 4.08673C594.515 3.70006 593.629 3.50672 592.614 3.50672C591.567 3.50672 590.648 3.75645 589.859 4.2559C589.086 4.73925 588.489 5.40787 588.071 6.26178C587.652 7.11569 587.442 8.05821 587.442 9.08934C587.442 10.1849 587.652 11.1677 588.071 12.0377C588.489 12.8916 589.094 13.5603 589.883 14.0436C590.673 14.527 591.607 14.7686 592.686 14.7686C593.524 14.7686 594.273 14.5833 594.934 14.2128C595.595 13.8261 596.102 13.2542 596.457 12.4969C596.811 11.7397 596.94 10.8133 596.843 9.71769L597.786 10.7327H591.986V8.07432H599.816V17.5237H596.674C596.932 16.9115 597.198 16.3476 597.472 15.832C597.778 15.2036 598.116 14.6156 598.487 14.0678L596.481 13.1978C596.336 13.9389 596.062 14.6639 595.659 15.3728C595.256 16.0656 594.684 16.6537 593.943 17.137C593.202 17.6042 592.284 17.8379 591.188 17.8379Z" fill="#FFBA72"/>
<path d="M576.017 11.1682L569.71 0.679688H573.818C574.64 2.01694 575.26 3.1528 575.679 4.08726C576.114 5.00561 576.412 5.89174 576.573 6.74565C576.75 7.58345 576.839 8.56625 576.839 9.69405H578.966C578.966 8.56625 579.046 7.57539 579.207 6.72148C579.385 5.86758 579.683 4.98145 580.102 4.06309C580.521 3.14474 581.141 2.01694 581.962 0.679688H586.095L579.763 11.1682V17.5242H576.017V11.1682Z" fill="#FFBA72"/>
<path d="M554.082 0.679688H557.442L566.891 12.3283L568.655 11.1199C568.059 10.4593 567.568 9.85516 567.181 9.30737C566.794 8.75958 566.48 8.17151 566.238 7.54317C565.997 6.89871 565.876 6.23008 565.876 5.53729V0.679688H569.622V17.5242H566.528L556.982 5.80313L555.17 6.98732C555.846 7.63178 556.378 8.26818 556.765 8.89653C557.458 10.0082 557.804 11.2246 557.804 12.5458V17.5242H554.082V0.679688Z" fill="#FFBA72"/>
</svg>
