<svg width="641" height="18" viewBox="0 0 641 18" fill="none" xmlns="http://www.w3.org/2000/svg">
<path d="M82.5336 2.56275L83.3794 3.4811H76.9509V0.436035H91.8621V3.4811H85.4336L86.2795 2.56275V17.2806H82.5336V2.56275Z" fill="#FFBA72"/>
<path d="M70.507 17.5949C69.1053 17.5949 67.8728 17.4177 66.8094 17.0633C65.7621 16.7088 64.9485 16.2013 64.3685 15.5407C63.7885 14.8641 63.4985 14.0907 63.4985 13.2207C63.4985 12.4312 63.7321 11.7707 64.1993 11.239C64.6666 10.7073 65.2949 10.3045 66.0844 10.0306C66.89 9.74061 67.7841 9.58755 68.7669 9.57144V7.6139C67.6552 7.56556 66.6805 7.42862 65.8427 7.20306C65.0049 6.96138 64.3363 6.59082 63.8368 6.09137C63.3374 5.59191 63.0876 4.9394 63.0876 4.13382C63.0876 3.31214 63.3535 2.60323 63.8852 2.00711C64.4168 1.39488 65.1821 0.927643 66.181 0.605414C67.18 0.283185 68.34 0.12207 69.6611 0.12207C71.2562 0.12207 72.7062 0.339575 74.0112 0.774585C75.3162 1.20959 76.5729 1.83794 77.7813 2.65963L76.1138 5.39052C75.3082 4.72995 74.3254 4.19827 73.1654 3.79548C72.0214 3.3927 70.8936 3.18325 69.782 3.16714C68.8636 3.16714 68.1628 3.32825 67.6794 3.65048C67.1961 3.9566 66.9544 4.35938 66.9544 4.85884C66.9544 5.21329 67.0752 5.51941 67.3169 5.77719C67.5586 6.01886 67.8969 6.22831 68.3319 6.40554C68.783 6.56665 69.355 6.71166 70.0478 6.84055L72.0537 7.29972C73.7615 7.65418 75.0987 8.24224 76.0654 9.06393C77.0482 9.88561 77.5396 10.9892 77.5396 12.3748C77.5396 13.2932 77.2577 14.1551 76.6938 14.9607C76.1299 15.7502 75.3162 16.3866 74.2529 16.8699C73.1895 17.3533 71.9409 17.5949 70.507 17.5949ZM70.6036 14.9124C71.2481 14.9124 71.8039 14.7996 72.2712 14.574C72.7545 14.3485 73.117 14.0504 73.3587 13.6799C73.6165 13.3093 73.7454 12.8985 73.7454 12.4473C73.7454 11.9479 73.6084 11.5129 73.3345 11.1423C73.0768 10.7556 72.6981 10.4576 72.1987 10.2481C71.7153 10.0226 71.1595 9.90978 70.5311 9.90978C69.935 9.90978 69.3953 10.0145 68.9119 10.224C68.4286 10.4334 68.05 10.7315 67.7761 11.1181C67.5022 11.4887 67.3652 11.9237 67.3652 12.4232C67.3652 12.8904 67.5022 13.3174 67.7761 13.704C68.05 14.0746 68.4286 14.3727 68.9119 14.5982C69.4114 14.8077 69.9753 14.9124 70.6036 14.9124Z" fill="#FFBA72"/>
<path d="M58.585 0.436035H62.3067V17.2806H58.585V0.436035Z" fill="#FFBA72"/>
<path d="M43.1484 0.436035H50.9786C53.1214 0.436035 54.7245 0.814654 55.7879 1.57189C56.8512 2.31302 57.3829 3.43277 57.3829 4.93113C57.3829 5.84948 57.1412 6.61478 56.6579 7.22701C56.1745 7.83925 55.522 8.30648 54.7004 8.62871C53.8787 8.95094 52.9523 9.14428 51.9211 9.20872V11.1421C52.6622 11.1743 53.2987 11.3354 53.8303 11.6254C54.3781 11.8993 54.8856 12.3505 55.3529 12.9788L55.4254 13.0755L58.5188 17.2806H54.1445L51.4861 13.4863C51.4217 13.3896 51.3572 13.293 51.2928 13.1963C50.8255 12.5357 50.4469 12.0685 50.1569 11.7946C49.883 11.5207 49.5769 11.3354 49.2386 11.2388C48.9002 11.126 48.4088 11.0696 47.7644 11.0696H45.9518L46.8702 10.1754V17.2806H43.1484V0.436035ZM45.9518 8.70121H50.3019C51.0431 8.70121 51.6553 8.60454 52.1386 8.41121C52.6381 8.20176 53.0086 7.89564 53.2503 7.49285C53.5081 7.09007 53.637 6.58256 53.637 5.97032C53.637 5.08419 53.3631 4.42362 52.8153 3.98861C52.2675 3.5536 51.4297 3.3361 50.3019 3.3361H45.9518L46.8702 2.39358V9.57123L45.9518 8.70121Z" fill="#FFBA72"/>
<path d="M33.6445 17.5945C31.9528 17.5945 30.4383 17.2239 29.1011 16.4828C27.7638 15.7255 26.7166 14.6863 25.9593 13.3652C25.2021 12.028 24.8235 10.5296 24.8235 8.87011C24.8235 7.21063 25.2021 5.72032 25.9593 4.39918C26.7166 3.07804 27.7638 2.04691 29.1011 1.30578C30.4383 0.548541 31.9528 0.169922 33.6445 0.169922C35.3201 0.169922 36.8265 0.548541 38.1638 1.30578C39.5171 2.04691 40.5724 3.07804 41.3297 4.39918C42.0869 5.72032 42.4655 7.21063 42.4655 8.87011C42.4655 10.5296 42.0869 12.028 41.3297 13.3652C40.5724 14.6863 39.5171 15.7255 38.1638 16.4828C36.8265 17.2239 35.3201 17.5945 33.6445 17.5945ZM33.6445 14.5252C34.6595 14.5252 35.5457 14.2836 36.3029 13.8002C37.0601 13.3169 37.6401 12.6482 38.0429 11.7943C38.4457 10.9404 38.6471 9.96569 38.6471 8.87011C38.6471 7.77453 38.4457 6.79979 38.0429 5.94588C37.6401 5.09197 37.0601 4.42335 36.3029 3.94C35.5457 3.45666 34.6595 3.21499 33.6445 3.21499C32.6295 3.21499 31.7434 3.45666 30.9861 3.94C30.2289 4.42335 29.6408 5.09197 29.2219 5.94588C28.8191 6.79979 28.6177 7.77453 28.6177 8.87011C28.6177 9.96569 28.8191 10.9404 29.2219 11.7943C29.6408 12.6482 30.2289 13.3169 30.9861 13.8002C31.7434 14.2836 32.6295 14.5252 33.6445 14.5252Z" fill="#FFBA72"/>
<path d="M13.2896 0.436035H17.0113V15.1539L16.0929 14.2355H26.074V17.2806H13.2896V0.436035Z" fill="#FFBA72"/>
<path d="M0 0.436035H12.9778V3.4811H2.80339L3.72175 2.61108V8.1937L2.80339 7.37202H12.1078V10.4171H2.80339L3.72175 9.42623V17.2806H0V0.436035Z" fill="#FFBA72"/>
<path d="M359.39 0.34211H372.854V3.42109H362.225L363.153 2.54138V8.18619L362.225 7.33092H372.097V10.2389H362.225L363.153 9.43245V15.2239L362.225 14.2953H373.148V17.3743H359.39V0.34211Z" fill="#FFBA72"/>
<path d="M349.857 2.49251L350.712 3.42109H344.212V0.34211H359.289V3.42109H352.789L353.644 2.49251V17.3743H349.857V2.49251Z" fill="#FFBA72"/>
<path d="M328.411 0.34211H331.808L341.362 12.1205L343.146 10.8986C342.544 10.2307 342.047 9.6198 341.656 9.06591C341.265 8.51202 340.947 7.91739 340.703 7.28204C340.458 6.6304 340.336 5.95433 340.336 5.25382V0.34211H344.124V17.3743H340.996L331.344 5.52262L329.511 6.72C330.195 7.37164 330.733 8.01513 331.124 8.65048C331.824 9.77455 332.174 11.0045 332.174 12.3404V17.3743H328.411V0.34211Z" fill="#FFBA72"/>
<path d="M324.287 17.3743L322.454 12.7069L323.603 13.5133H314.537L315.685 12.7069L313.828 17.3743H309.82L317.078 0.34211H321.037L328.319 17.3743H324.287ZM318.08 3.17673C318.096 3.81207 318.088 4.4067 318.055 4.96059C318.023 5.4982 317.95 6.03579 317.836 6.57339C317.738 7.0947 317.599 7.6323 317.42 8.18619C317.208 8.78896 316.752 9.80714 316.052 11.2407L315.514 10.6787H322.601L322.063 11.2407C321.721 10.5402 321.403 9.82344 321.11 9.09034C320.686 8.06401 320.41 7.11099 320.279 6.23128C320.149 5.33528 320.1 4.31709 320.133 3.17673H318.08Z" fill="#FFBA72"/>
<path d="M304.334 17.7164C302.656 17.7164 301.15 17.3498 299.814 16.6168C298.494 15.8674 297.46 14.8247 296.71 13.4889C295.961 12.1367 295.586 10.5891 295.586 8.84598C295.586 7.10285 295.961 5.56335 296.71 4.2275C297.476 2.89164 298.535 1.85717 299.887 1.12407C301.255 0.374691 302.803 0 304.53 0C305.882 0 307.079 0.21993 308.122 0.659785C309.165 1.09964 310.126 1.72684 311.006 2.54138L309.1 5.05833C308.497 4.47186 307.845 4.02386 307.145 3.71433C306.444 3.38851 305.654 3.2256 304.774 3.2256C303.732 3.2256 302.795 3.46997 301.964 3.9587C301.15 4.43113 300.514 5.09906 300.058 5.96248C299.602 6.8259 299.374 7.81151 299.374 8.91929C299.374 10.0271 299.602 10.9964 300.058 11.8272C300.531 12.6581 301.174 13.3015 301.989 13.7577C302.819 14.1975 303.756 14.4175 304.799 14.4175C305.695 14.4175 306.493 14.2383 307.194 13.8799C307.91 13.5215 308.57 13.0165 309.173 12.3648L311.128 14.9551C310.215 15.8511 309.222 16.5353 308.147 17.0077C307.088 17.4802 305.817 17.7164 304.334 17.7164Z" fill="#FFBA72"/>
<path d="M283.924 0.34211H287.687V15.2239L286.758 14.2953H296.85V17.3743H283.924V0.34211Z" fill="#FFBA72"/>
<path d="M279.799 17.3743L277.966 12.7069L279.115 13.5133H270.049L271.198 12.7069L269.34 17.3743H265.333L272.59 0.34211H276.549L283.831 17.3743H279.799ZM273.592 3.17673C273.609 3.81207 273.6 4.4067 273.568 4.96059C273.535 5.4982 273.462 6.03579 273.348 6.57339C273.25 7.0947 273.112 7.6323 272.933 8.18619C272.721 8.78896 272.265 9.80714 271.564 11.2407L271.027 10.6787H278.113L277.575 11.2407C277.233 10.5402 276.916 9.82344 276.622 9.09034C276.199 8.06401 275.922 7.11099 275.792 6.23128C275.661 5.33528 275.612 4.31709 275.645 3.17673H273.592Z" fill="#FFBA72"/>
<path d="M251.92 0.34211H255.854C256.163 1.15666 256.457 1.92232 256.734 2.63912C257.515 4.90356 258.094 6.6304 258.468 7.81964C258.843 8.99259 259.104 10.0434 259.25 10.9719C259.397 11.9005 259.47 13.0327 259.47 14.3686H261.499C261.499 13.0653 261.572 11.9575 261.719 11.0452C261.865 10.1167 262.118 9.0822 262.476 7.94183C262.851 6.78518 263.396 5.1235 264.113 2.9568C264.455 2.09338 264.798 1.22182 265.14 0.34211H269.074L262.72 17.3743H258.273L251.92 0.34211Z" fill="#FFBA72"/>
<path d="M251.612 17.3743L249.78 12.7069L250.928 13.5133H241.862L243.011 12.7069L241.154 17.3743H237.146L244.404 0.34211H248.362L255.644 17.3743H251.612ZM245.406 3.17673C245.422 3.81207 245.414 4.4067 245.381 4.96059C245.348 5.4982 245.275 6.03579 245.161 6.57339C245.063 7.0947 244.925 7.6323 244.746 8.18619C244.534 8.78896 244.078 9.80714 243.377 11.2407L242.84 10.6787H249.926L249.389 11.2407C249.047 10.5402 248.729 9.82344 248.436 9.09034C248.012 8.06401 247.735 7.11099 247.605 6.23128C247.474 5.33528 247.426 4.31709 247.458 3.17673H245.406Z" fill="#FFBA72"/>
<path d="M231.66 17.7164C229.982 17.7164 228.475 17.3498 227.139 16.6168C225.82 15.8674 224.785 14.8247 224.036 13.4889C223.286 12.1367 222.912 10.5891 222.912 8.84598C222.912 7.10285 223.286 5.56335 224.036 4.2275C224.802 2.89164 225.86 1.85717 227.213 1.12407C228.581 0.374691 230.129 0 231.856 0C233.208 0 234.405 0.21993 235.448 0.659785C236.49 1.09964 237.451 1.72684 238.331 2.54138L236.425 5.05833C235.822 4.47186 235.171 4.02386 234.47 3.71433C233.77 3.38851 232.98 3.2256 232.1 3.2256C231.057 3.2256 230.121 3.46997 229.29 3.9587C228.475 4.43113 227.84 5.09906 227.384 5.96248C226.928 6.8259 226.699 7.81151 226.699 8.91929C226.699 10.0271 226.928 10.9964 227.384 11.8272C227.856 12.6581 228.5 13.3015 229.314 13.7577C230.145 14.1975 231.082 14.4175 232.124 14.4175C233.02 14.4175 233.819 14.2383 234.519 13.8799C235.236 13.5215 235.896 13.0165 236.498 12.3648L238.453 14.9551C237.541 15.8511 236.547 16.5353 235.472 17.0077C234.413 17.4802 233.143 17.7164 231.66 17.7164Z" fill="#FFBA72"/>
<path d="M210.334 17.4075C208.667 17.4075 207.175 17.0424 205.857 16.3123C204.54 15.5662 203.508 14.5424 202.762 13.2408C202.016 11.9233 201.643 10.4471 201.643 8.81211C201.643 7.17716 202.016 5.70887 202.762 4.40726C203.508 3.10564 204.54 2.08975 205.857 1.35957C207.175 0.613525 208.667 0.240503 210.334 0.240503C211.985 0.240503 213.469 0.613525 214.786 1.35957C216.12 2.08975 217.159 3.10564 217.905 4.40726C218.651 5.70887 219.024 7.17716 219.024 8.81211C219.024 10.4471 218.651 11.9233 217.905 13.2408C217.159 14.5424 216.12 15.5662 214.786 16.3123C213.469 17.0424 211.985 17.4075 210.334 17.4075ZM210.334 14.3837C211.334 14.3837 212.207 14.1456 212.953 13.6694C213.699 13.1932 214.27 12.5344 214.667 11.6931C215.064 10.8518 215.262 9.8915 215.262 8.81211C215.262 7.73272 215.064 6.77239 214.667 5.9311C214.27 5.08981 213.699 4.43107 212.953 3.95487C212.207 3.47867 211.334 3.24057 210.334 3.24057C209.334 3.24057 208.461 3.47867 207.715 3.95487C206.969 4.43107 206.389 5.08981 205.976 5.9311C205.58 6.77239 205.381 7.73272 205.381 8.81211C205.381 9.8915 205.58 10.8518 205.976 11.6931C206.389 12.5344 206.969 13.1932 207.715 13.6694C208.461 14.1456 209.334 14.3837 210.334 14.3837Z" fill="#FFBA72"/>
<path d="M187.559 0.502359H195.273C197.385 0.502359 198.964 0.875381 200.012 1.62143C201.059 2.3516 201.583 3.4548 201.583 4.93102C201.583 5.83581 201.345 6.58979 200.869 7.19298C200.393 7.79617 199.75 8.25649 198.94 8.57396C198.131 8.89143 197.218 9.08191 196.202 9.1454V11.0502C196.932 11.0819 197.559 11.2407 198.083 11.5264C198.623 11.7963 199.123 12.2407 199.583 12.8598L199.654 12.955L202.702 17.098H198.393L195.773 13.3598C195.71 13.2645 195.646 13.1693 195.583 13.0741C195.123 12.4232 194.75 11.9629 194.464 11.6931C194.194 11.4232 193.892 11.2407 193.559 11.1454C193.226 11.0343 192.742 10.9788 192.107 10.9788H190.321L191.226 10.0978V17.098H187.559V0.502359ZM190.321 8.64539H194.607C195.337 8.64539 195.94 8.55015 196.416 8.35967C196.908 8.15332 197.273 7.85172 197.512 7.45489C197.766 7.05805 197.893 6.55804 197.893 5.95486C197.893 5.08182 197.623 4.43101 197.083 4.00243C196.543 3.57385 195.718 3.35956 194.607 3.35956H190.321L191.226 2.43097V9.50255L190.321 8.64539Z" fill="#FFBA72"/>
<path d="M183.54 17.098L181.754 12.5502L182.873 13.336H174.04L175.159 12.5502L173.349 17.098H169.445L176.516 0.502359H180.373L187.469 17.098H183.54ZM177.492 3.26432C177.508 3.88339 177.5 4.46276 177.469 5.00245C177.437 5.52627 177.365 6.05009 177.254 6.57392C177.159 7.08186 177.024 7.60569 176.849 8.14538C176.643 8.7327 176.199 9.72478 175.516 11.1216L174.992 10.574H181.897L181.373 11.1216C181.04 10.4391 180.731 9.74065 180.445 9.02635C180.032 8.02633 179.762 7.09774 179.635 6.24058C179.508 5.36754 179.461 4.37546 179.492 3.26432H177.492Z" fill="#FFBA72"/>
<path d="M155.84 0.502359H159.506V3.47862C159.506 3.98656 159.443 4.45482 159.316 4.88341C159.189 5.31199 158.951 5.79612 158.602 6.33582C158.268 6.85964 157.776 7.53426 157.125 8.35967L158.697 9.47874L166.649 0.502359H171.102L163.84 8.24062L163.935 6.93107L171.316 17.098H166.911L161.53 9.52636L162.554 9.6216L158.792 13.6455L159.506 12.0026V17.098H155.84V0.502359Z" fill="#FFBA72"/>
<path d="M151.117 0.502359H154.784V17.098H151.117V0.502359Z" fill="#FFBA72"/>
<path d="M636.398 17.3376L634.566 12.6702L635.714 13.4766H626.648L627.797 12.6702L625.939 17.3376H621.932L629.19 0.305427H633.148L640.43 17.3376H636.398ZM630.191 3.14004C630.208 3.77539 630.2 4.37002 630.167 4.92391C630.134 5.46151 630.061 5.99911 629.947 6.53671C629.849 7.05802 629.711 7.59562 629.532 8.14951C629.32 8.75227 628.864 9.77046 628.163 11.2041L627.626 10.642H634.712L634.175 11.2041C633.832 10.5035 633.515 9.78675 633.222 9.05366C632.798 8.02733 632.521 7.07431 632.391 6.1946C632.26 5.29859 632.211 4.28041 632.244 3.14004H630.191Z" fill="#FFBA72"/>
<path d="M608.255 0.305427H616.173C618.339 0.305427 619.96 0.688258 621.035 1.45393C622.111 2.20331 622.648 3.33553 622.648 4.85059C622.648 5.77917 622.404 6.553 621.915 7.17206C621.426 7.79112 620.767 8.26354 619.936 8.58936C619.105 8.91518 618.168 9.11067 617.126 9.17583V11.1308C617.875 11.1633 618.518 11.3262 619.056 11.6195C619.61 11.8964 620.123 12.3526 620.596 12.9879L620.669 13.0857L623.797 17.3376H619.374L616.686 13.5011C616.621 13.4033 616.555 13.3056 616.49 13.2078C616.018 12.5399 615.635 12.0675 615.342 11.7905C615.065 11.5136 614.755 11.3262 614.413 11.2285C614.071 11.1145 613.574 11.0574 612.923 11.0574H611.09L612.018 10.1533V17.3376H608.255V0.305427ZM611.09 8.66268H615.488C616.238 8.66268 616.857 8.56492 617.346 8.36943C617.851 8.15765 618.225 7.84813 618.47 7.44085C618.73 7.03358 618.861 6.52041 618.861 5.90136C618.861 5.00536 618.584 4.33743 618.03 3.89758C617.476 3.45772 616.629 3.23779 615.488 3.23779H611.09L612.018 2.28477V9.54238L611.09 8.66268Z" fill="#FFBA72"/>
<path d="M604.131 17.3376L602.298 12.6702L603.447 13.4766H594.381L595.529 12.6702L593.672 17.3376H589.664L596.922 0.305427H600.881L608.163 17.3376H604.131ZM597.924 3.14004C597.94 3.77539 597.932 4.37002 597.899 4.92391C597.867 5.46151 597.794 5.99911 597.68 6.53671C597.582 7.05802 597.443 7.59562 597.264 8.14951C597.052 8.75227 596.596 9.77046 595.896 11.2041L595.358 10.642H602.445L601.907 11.2041C601.565 10.5035 601.247 9.78675 600.954 9.05366C600.53 8.02733 600.254 7.07431 600.123 6.1946C599.993 5.29859 599.944 4.28041 599.977 3.14004H597.924Z" fill="#FFBA72"/>
<path d="M585.793 0.305427H589.58V17.3376H585.793V0.305427ZM574.723 0.305427H578.486V17.3376H574.723V0.305427ZM578.168 7.17206H586.135V10.251H578.168V7.17206Z" fill="#FFBA72"/>
<path d="M569.877 0.305427H573.64V17.3376H569.877V0.305427Z" fill="#FFBA72"/>
<path d="M565.752 17.3376L563.92 12.6702L565.068 13.4766H556.002L557.151 12.6702L555.293 17.3376H551.286L558.543 0.305427H562.502L569.784 17.3376H565.752ZM559.545 3.14004C559.562 3.77539 559.554 4.37002 559.521 4.92391C559.488 5.46151 559.415 5.99911 559.301 6.53671C559.203 7.05802 559.065 7.59562 558.886 8.14951C558.674 8.75227 558.218 9.77046 557.517 11.2041L556.98 10.642H564.066L563.529 11.2041C563.186 10.5035 562.869 9.78675 562.575 9.05366C562.152 8.02733 561.875 7.07431 561.745 6.1946C561.614 5.29859 561.565 4.28041 561.598 3.14004H559.545Z" fill="#FFBA72"/>
<path d="M538.118 17.6553C536.407 17.6553 534.876 17.2806 533.524 16.5312C532.172 15.7655 531.113 14.7148 530.347 13.3789C529.581 12.0267 529.199 10.5117 529.199 8.83372C529.199 7.15575 529.581 5.64884 530.347 4.31299C531.113 2.97713 532.172 1.93451 533.524 1.18513C534.876 0.419457 536.407 0.0366211 538.118 0.0366211C539.812 0.0366211 541.335 0.419457 542.687 1.18513C544.056 1.93451 545.123 2.97713 545.889 4.31299C546.654 5.64884 547.037 7.15575 547.037 8.83372C547.037 10.5117 546.654 12.0267 545.889 13.3789C545.123 14.7148 544.056 15.7655 542.687 16.5312C541.335 17.2806 539.812 17.6553 538.118 17.6553ZM538.118 14.5518C539.144 14.5518 540.04 14.3075 540.806 13.8187C541.572 13.33 542.158 12.6539 542.565 11.7905C542.973 10.9271 543.176 9.9415 543.176 8.83372C543.176 7.72594 542.973 6.74033 542.565 5.87692C542.158 5.0135 541.572 4.33743 540.806 3.8487C540.04 3.35997 539.144 3.11561 538.118 3.11561C537.092 3.11561 536.196 3.35997 535.43 3.8487C534.664 4.33743 534.07 5.0135 533.646 5.87692C533.239 6.74033 533.035 7.72594 533.035 8.83372C533.035 9.9415 533.239 10.9271 533.646 11.7905C534.07 12.6539 534.664 13.33 535.43 13.8187C536.196 14.3075 537.092 14.5518 538.118 14.5518Z" fill="#FFBA72"/>
<path d="M514.744 0.305427H522.661C524.828 0.305427 526.449 0.688258 527.524 1.45393C528.599 2.20331 529.137 3.33553 529.137 4.85059C529.137 5.77917 528.893 6.553 528.404 7.17206C527.915 7.79112 527.255 8.26354 526.425 8.58936C525.594 8.91518 524.657 9.11067 523.614 9.17583V11.1308C524.364 11.1633 525.007 11.3262 525.545 11.6195C526.099 11.8964 526.612 12.3526 527.084 12.9879L527.158 13.0857L530.285 17.3376H525.863L523.174 13.5011C523.109 13.4033 523.044 13.3056 522.979 13.2078C522.507 12.5399 522.124 12.0675 521.831 11.7905C521.554 11.5136 521.244 11.3262 520.902 11.2285C520.56 11.1145 520.063 11.0574 519.411 11.0574H517.579L518.507 10.1533V17.3376H514.744V0.305427ZM517.579 8.66268H521.977C522.726 8.66268 523.346 8.56492 523.834 8.36943C524.339 8.15765 524.714 7.84813 524.958 7.44085C525.219 7.03358 525.349 6.52041 525.349 5.90136C525.349 5.00536 525.072 4.33743 524.518 3.89758C523.965 3.45772 523.117 3.23779 521.977 3.23779H517.579L518.507 2.28477V9.54238L517.579 8.66268Z" fill="#FFBA72"/>
<path d="M509.898 0.305427H513.661V17.3376H509.898V0.305427Z" fill="#FFBA72"/>
<path d="M505.048 0.305427H508.836V17.3376H505.048V0.305427ZM493.979 0.305427H497.742V17.3376H493.979V0.305427ZM497.424 7.17206H505.391V10.251H497.424V7.17206Z" fill="#FFBA72"/>
<path d="M485.488 17.6797C483.957 17.6797 482.621 17.4109 481.481 16.8733C480.34 16.3194 479.461 15.4967 478.842 14.4052C478.239 13.3137 477.938 11.9779 477.938 10.3977V0.305427H481.701V10.2999C481.701 11.2122 481.847 11.986 482.141 12.6214C482.45 13.2404 482.882 13.7129 483.436 14.0387C484.006 14.3482 484.69 14.503 485.488 14.503C486.678 14.503 487.598 14.1446 488.25 13.4278C488.918 12.6947 489.252 11.6521 489.252 10.2999V0.305427H493.015V10.3977C493.015 12.7761 492.339 14.5844 490.987 15.8225C489.651 17.0607 487.818 17.6797 485.488 17.6797Z" fill="#FFBA72"/>
<path d="M464.158 14.503L473.786 2.67575L472.295 1.38063C471.823 1.80419 471.301 2.15444 470.731 2.43139C470.161 2.70833 469.509 2.92012 468.776 3.06674C468.043 3.21336 467.066 3.3111 465.844 3.35997C465.306 3.37627 464.834 3.38441 464.427 3.38441V0.305427H477.744V3.14004L468.092 15.0161L469.607 16.2624C470.08 15.8877 470.609 15.57 471.195 15.3094C471.782 15.0324 472.458 14.8044 473.224 14.6252C474.006 14.446 475.032 14.3319 476.303 14.283C476.857 14.2668 477.353 14.2586 477.793 14.2586V17.3376H464.158V14.503Z" fill="#FFBA72"/>
<path d="M460.832 17.3376L459 12.6702L460.148 13.4766H451.082L452.231 12.6702L450.374 17.3376H446.366L453.624 0.305427H457.582L464.864 17.3376H460.832ZM454.625 3.14004C454.642 3.77539 454.634 4.37002 454.601 4.92391C454.568 5.46151 454.495 5.99911 454.381 6.53671C454.283 7.05802 454.145 7.59562 453.966 8.14951C453.754 8.75227 453.298 9.77046 452.597 11.2041L452.06 10.642H459.146L458.609 11.2041C458.266 10.5035 457.949 9.78675 457.656 9.05366C457.232 8.02733 456.955 7.07431 456.825 6.1946C456.694 5.29859 456.646 4.28041 456.678 3.14004H454.625Z" fill="#FFBA72"/>
<path d="M432.403 0.305427H436.166V3.35997C436.166 3.88128 436.101 4.36186 435.971 4.80172C435.84 5.24157 435.596 5.73845 435.237 6.29234C434.895 6.82994 434.39 7.5223 433.722 8.36943L435.335 9.51795L443.497 0.305427H448.067L440.613 8.24726L440.711 6.90325L448.286 17.3376H443.766L438.243 9.56682L439.294 9.66457L435.433 13.7943L436.166 12.1082V17.3376H432.403V0.305427Z" fill="#FFBA72"/>
</svg>
