<svg width="641" height="18" viewBox="0 0 641 18" fill="none" xmlns="http://www.w3.org/2000/svg">
<path d="M224.883 17.1585L223.07 12.5426L224.206 13.3401H215.24L216.376 12.5426L214.539 17.1585H210.576L217.753 0.313965H221.668L228.87 17.1585H224.883ZM218.744 3.11736C218.76 3.7457 218.752 4.33377 218.72 4.88156C218.688 5.41324 218.615 5.94492 218.503 6.4766C218.406 6.99216 218.269 7.52384 218.092 8.07163C217.882 8.66776 217.431 9.67472 216.738 11.0925L216.207 10.5367H223.215L222.683 11.0925C222.345 10.3997 222.031 9.69083 221.741 8.96582C221.322 7.95079 221.048 7.00828 220.919 6.13826C220.79 5.25213 220.742 4.24516 220.774 3.11736H218.744Z" fill="#FFBA72"/>
<path d="M192.589 0.313965H197.809C198.26 1.39343 198.663 2.39234 199.017 3.3107C199.372 4.21294 199.646 5.02657 199.839 5.75158C200.081 6.57327 200.258 7.34662 200.371 8.07163C200.483 8.78054 200.54 9.50555 200.54 10.2467H202.497C202.497 9.42499 202.57 8.60331 202.715 7.78162C202.86 6.94383 203.085 6.0577 203.392 5.12323C203.698 4.18877 204.125 3.04486 204.672 1.69149C204.753 1.46593 204.938 1.00676 205.228 0.313965H210.473V17.1585H206.751C206.751 15.6762 206.775 14.202 206.823 12.7359C206.888 11.3664 206.993 10.2547 207.138 9.40083C207.299 8.53081 207.508 7.7494 207.766 7.05661C208.024 6.36382 208.386 5.55019 208.853 4.61572L206.92 3.91487L202.932 14.1618H200.081L196.117 3.91487L194.208 4.68823C194.675 5.62269 195.038 6.42826 195.296 7.10494C195.553 7.78162 195.755 8.53886 195.9 9.37666C196.061 10.1983 196.174 11.2698 196.238 12.5909C196.286 14.1054 196.311 15.6279 196.311 17.1585H192.589V0.313965Z" fill="#FFBA72"/>
<path d="M184.192 17.4968C182.678 17.4968 181.357 17.231 180.229 16.6993C179.101 16.1515 178.231 15.3379 177.619 14.2584C177.023 13.179 176.725 11.8578 176.725 10.295V0.313965H180.446V10.1983C180.446 11.1006 180.591 11.8659 180.881 12.4942C181.187 13.1065 181.614 13.5737 182.162 13.8959C182.726 14.202 183.403 14.3551 184.192 14.3551C185.368 14.3551 186.279 14.0006 186.923 13.2917C187.584 12.5667 187.914 11.5356 187.914 10.1983V0.313965H191.636V10.295C191.636 12.6473 190.967 14.4357 189.63 15.6601C188.309 16.8846 186.496 17.4968 184.192 17.4968Z" fill="#FFBA72"/>
<path d="M169.199 17.4729C167.797 17.4729 166.564 17.2957 165.501 16.9412C164.454 16.5867 163.64 16.0792 163.06 15.4187C162.48 14.742 162.19 13.9686 162.19 13.0986C162.19 12.3092 162.424 11.6486 162.891 11.1169C163.358 10.5852 163.987 10.1824 164.776 9.90855C165.582 9.61854 166.476 9.46548 167.459 9.44937V7.49183C166.347 7.44349 165.372 7.30655 164.534 7.08099C163.697 6.83931 163.028 6.46875 162.528 5.9693C162.029 5.46984 161.779 4.81733 161.779 4.01175C161.779 3.19007 162.045 2.48116 162.577 1.88504C163.108 1.27281 163.874 0.805573 164.873 0.483343C165.872 0.161114 167.032 0 168.353 0C169.948 0 171.398 0.217505 172.703 0.652514C174.008 1.08752 175.265 1.71587 176.473 2.53755L174.805 5.26845C174 4.60788 173.017 4.0762 171.857 3.67341C170.713 3.27063 169.585 3.06118 168.474 3.04507C167.555 3.04507 166.854 3.20618 166.371 3.52841C165.888 3.83453 165.646 4.23731 165.646 4.73677C165.646 5.09122 165.767 5.39734 166.009 5.65512C166.25 5.89679 166.589 6.10624 167.024 6.28347C167.475 6.44458 168.047 6.58959 168.739 6.71848L170.745 7.17765C172.453 7.53211 173.79 8.12017 174.757 8.94186C175.74 9.76354 176.231 10.8672 176.231 12.2528C176.231 13.1711 175.949 14.0331 175.385 14.8387C174.822 15.6281 174.008 16.2645 172.945 16.7479C171.881 17.2312 170.633 17.4729 169.199 17.4729ZM169.295 14.7903C169.94 14.7903 170.496 14.6775 170.963 14.452C171.446 14.2264 171.809 13.9284 172.05 13.5578C172.308 13.1872 172.437 12.7764 172.437 12.3253C172.437 11.8258 172.3 11.3908 172.026 11.0202C171.768 10.6336 171.39 10.3355 170.89 10.1261C170.407 9.90049 169.851 9.78771 169.223 9.78771C168.627 9.78771 168.087 9.89243 167.604 10.1019C167.12 10.3113 166.742 10.6094 166.468 10.9961C166.194 11.3666 166.057 11.8016 166.057 12.3011C166.057 12.7683 166.194 13.1953 166.468 13.582C166.742 13.9525 167.12 14.2506 167.604 14.4761C168.103 14.6856 168.667 14.7903 169.295 14.7903Z" fill="#FFBA72"/>
<path d="M153.673 17.4968C152.158 17.4968 150.837 17.231 149.709 16.6993C148.582 16.1515 147.711 15.3379 147.099 14.2584C146.503 13.179 146.205 11.8578 146.205 10.295V0.313965H149.927V10.1983C149.927 11.1006 150.072 11.8659 150.362 12.4942C150.668 13.1065 151.095 13.5737 151.643 13.8959C152.207 14.202 152.883 14.3551 153.673 14.3551C154.849 14.3551 155.759 14.0006 156.404 13.2917C157.064 12.5667 157.394 11.5356 157.394 10.1983V0.313965H161.116V10.295C161.116 12.6473 160.448 14.4357 159.11 15.6601C157.789 16.8846 155.977 17.4968 153.673 17.4968Z" fill="#FFBA72"/>
<path d="M130.606 0.313965H134.328V3.33486C134.328 3.85043 134.263 4.32572 134.134 4.76073C134.005 5.19574 133.764 5.68713 133.409 6.23492C133.071 6.7666 132.572 7.45134 131.911 8.28913L133.506 9.42499L141.578 0.313965H146.097L138.726 8.1683L138.823 6.8391L146.315 17.1585H141.844L136.382 9.47333L137.421 9.57L133.603 13.6543L134.328 11.9867V17.1585H130.606V0.313965Z" fill="#FFBA72"/>
<path d="M109.527 0.313965H112.886L122.335 11.9625L124.099 10.7542C123.503 10.0936 123.012 9.48944 122.625 8.94165C122.239 8.39386 121.924 7.80579 121.683 7.17745C121.441 6.53299 121.32 5.86436 121.32 5.17157V0.313965H125.066V17.1585H121.973L112.427 5.43741L110.614 6.6216C111.291 7.26606 111.822 7.90246 112.209 8.53081C112.902 9.6425 113.248 10.8589 113.248 12.1801V17.1585H109.527V0.313965Z" fill="#FFBA72"/>
<path d="M105.448 17.1585L103.635 12.5426L104.771 13.3401H95.8049L96.9408 12.5426L95.104 17.1585H91.1406L98.3183 0.313965H102.233L109.435 17.1585H105.448ZM99.3091 3.11736C99.3252 3.7457 99.3172 4.33377 99.285 4.88156C99.2527 5.41324 99.1802 5.94492 99.0675 6.4766C98.9708 6.99216 98.8339 7.52384 98.6566 8.07163C98.4472 8.66776 97.9961 9.67472 97.3033 11.0925L96.7716 10.5367H103.78L103.248 11.0925C102.91 10.3997 102.596 9.69083 102.306 8.96582C101.887 7.95079 101.613 7.00828 101.484 6.13826C101.355 5.25213 101.307 4.24516 101.339 3.11736H99.3091Z" fill="#FFBA72"/>
<path d="M87.3115 0.313965H91.0574V17.1585H87.3115V0.313965ZM76.3638 0.313965H80.0855V17.1585H76.3638V0.313965ZM79.7713 7.10494H87.6498V10.15H79.7713V7.10494Z" fill="#FFBA72"/>
<path d="M66.9356 2.44068L67.7815 3.35903H61.353V0.313965H76.2642V3.35903H69.8357L70.6816 2.44068V17.1585H66.9356V2.44068Z" fill="#FFBA72"/>
<path d="M60.9781 17.1585L59.1656 12.5426L60.3014 13.3401H51.3354L52.4713 12.5426L50.6346 17.1585H46.6711L53.8488 0.313965H57.7639L64.9657 17.1585H60.9781ZM54.8397 3.11736C54.8558 3.7457 54.8477 4.33377 54.8155 4.88156C54.7833 5.41324 54.7108 5.94492 54.598 6.4766C54.5013 6.99216 54.3644 7.52384 54.1871 8.07163C53.9777 8.66776 53.5266 9.67472 52.8338 11.0925L52.3021 10.5367H59.3106L58.7789 11.0925C58.4406 10.3997 58.1264 9.69083 57.8364 8.96582C57.4175 7.95079 57.1436 7.00828 57.0147 6.13826C56.8858 5.25213 56.8375 4.24516 56.8697 3.11736H54.8397Z" fill="#FFBA72"/>
<path d="M31.0444 0.313965H34.4037L43.853 11.9625L45.6172 10.7542C45.0211 10.0936 44.5297 9.48944 44.1431 8.94165C43.7564 8.39386 43.4422 7.80579 43.2005 7.17745C42.9589 6.53299 42.838 5.86436 42.838 5.17157V0.313965H46.5839V17.1585H43.4905L33.9445 5.43741L32.132 6.6216C32.8086 7.26606 33.3403 7.90246 33.727 8.53081C34.4198 9.6425 34.7662 10.8589 34.7662 12.1801V17.1585H31.0444V0.313965Z" fill="#FFBA72"/>
<path d="M21.5412 17.4729C19.8495 17.4729 18.3351 17.1023 16.9978 16.3612C15.6606 15.604 14.6133 14.5648 13.8561 13.2436C13.0988 11.9064 12.7202 10.408 12.7202 8.74853C12.7202 7.08905 13.0988 5.59874 13.8561 4.2776C14.6133 2.95646 15.6606 1.92532 16.9978 1.1842C18.3351 0.426959 19.8495 0.0483398 21.5412 0.0483398C23.2168 0.0483398 24.7233 0.426959 26.0605 1.1842C27.4139 1.92532 28.4692 2.95646 29.2264 4.2776C29.9836 5.59874 30.3623 7.08905 30.3623 8.74853C30.3623 10.408 29.9836 11.9064 29.2264 13.2436C28.4692 14.5648 27.4139 15.604 26.0605 16.3612C24.7233 17.1023 23.2168 17.4729 21.5412 17.4729ZM21.5412 14.4036C22.5563 14.4036 23.4424 14.162 24.1996 13.6786C24.9569 13.1953 25.5369 12.5267 25.9397 11.6728C26.3425 10.8188 26.5438 9.84411 26.5438 8.74853C26.5438 7.65295 26.3425 6.6782 25.9397 5.8243C25.5369 4.97039 24.9569 4.30176 24.1996 3.81842C23.4424 3.33508 22.5563 3.09341 21.5412 3.09341C20.5262 3.09341 19.6401 3.33508 18.8828 3.81842C18.1256 4.30176 17.5375 4.97039 17.1186 5.8243C16.7159 6.6782 16.5145 7.65295 16.5145 8.74853C16.5145 9.84411 16.7159 10.8188 17.1186 11.6728C17.5375 12.5267 18.1256 13.1953 18.8828 13.6786C19.6401 14.162 20.5262 14.4036 21.5412 14.4036Z" fill="#FFBA72"/>
<path d="M5.87263 17.4968C4.51926 17.4968 3.34313 17.2068 2.34422 16.6268C1.34531 16.0468 0.563901 15.1929 0 14.0651L2.27172 11.7692C2.61006 12.5748 3.05312 13.187 3.60091 13.6059C4.1487 14.0248 4.77705 14.2343 5.48595 14.2343C6.37208 14.2343 7.08099 13.9926 7.61266 13.5092C8.14434 13.0098 8.41018 12.2606 8.41018 11.2617V0.313965H12.1561V11.6967C12.1561 12.9373 11.8822 14.0006 11.3344 14.8868C10.7866 15.7568 10.0374 16.4093 9.08686 16.8443C8.13629 17.2793 7.06487 17.4968 5.87263 17.4968Z" fill="#FFBA72"/>
<path d="M381.719 0.313965H395.035V3.35903H384.522L385.441 2.48901V8.07163L384.522 7.22578H394.286V10.1017H384.522L385.441 9.30416V15.0318L384.522 14.1134H395.325V17.1585H381.719V0.313965Z" fill="#FFBA72"/>
<path d="M367.556 0.313965H380.873V3.35903H370.36L371.278 2.48901V8.07163L370.36 7.22578H380.123V10.1017H370.36L371.278 9.30416V15.0318L370.36 14.1134H381.163V17.1585H367.556V0.313965Z" fill="#FFBA72"/>
<path d="M354.692 0.313965H358.414V15.0318L357.496 14.1134H367.477V17.1585H354.692V0.313965Z" fill="#FFBA72"/>
<path d="M349.9 0.313965H353.621V17.1585H349.9V0.313965Z" fill="#FFBA72"/>
<path d="M334.627 0.313965H343.013C344.237 0.313965 345.269 0.442856 346.106 0.700639C346.96 0.942312 347.613 1.35315 348.064 1.93317C348.531 2.49707 348.765 3.22208 348.765 4.10821C348.765 4.84934 348.604 5.46963 348.281 5.96909C347.959 6.45243 347.492 6.81494 346.88 7.05661C346.284 7.29828 345.559 7.44328 344.705 7.49162V9.44916C345.687 9.46527 346.517 9.59416 347.194 9.83584C347.887 10.0775 348.418 10.4481 348.789 10.9475C349.159 11.447 349.345 12.0995 349.345 12.9051C349.345 13.8395 349.087 14.6209 348.571 15.2493C348.072 15.8776 347.371 16.3529 346.469 16.6751C345.567 16.9974 344.519 17.1585 343.327 17.1585H334.627V0.313965ZM342.626 14.2584C343.239 14.2584 343.762 14.1859 344.197 14.0409C344.648 13.8798 344.987 13.6381 345.212 13.3159C345.454 12.9937 345.575 12.5828 345.575 12.0834C345.575 11.6162 345.454 11.2295 345.212 10.9234C344.987 10.6172 344.656 10.3917 344.221 10.2467C343.786 10.1017 343.255 10.0292 342.626 10.0292H338.373V14.2584H342.626ZM342.07 7.27411C343.053 7.27411 343.786 7.113 344.27 6.79077C344.769 6.45243 345.019 5.92075 345.019 5.19574C345.019 4.50294 344.769 4.00349 344.27 3.69737C343.786 3.37514 343.053 3.21403 342.07 3.21403H338.373V7.27411H342.07Z" fill="#FFBA72"/>
<path d="M326.255 17.4968C324.74 17.4968 323.419 17.231 322.291 16.6993C321.164 16.1515 320.294 15.3379 319.681 14.2584C319.085 13.179 318.787 11.8578 318.787 10.295V0.313965H322.509V10.1983C322.509 11.1006 322.654 11.8659 322.944 12.4942C323.25 13.1065 323.677 13.5737 324.225 13.8959C324.789 14.202 325.465 14.3551 326.255 14.3551C327.431 14.3551 328.341 14.0006 328.986 13.2917C329.646 12.5667 329.977 11.5356 329.977 10.1983V0.313965H333.698V10.295C333.698 12.6473 333.03 14.4357 331.692 15.6601C330.371 16.8846 328.559 17.4968 326.255 17.4968Z" fill="#FFBA72"/>
<path d="M311.698 17.4968C310.344 17.4968 309.168 17.2068 308.169 16.6268C307.171 16.0468 306.389 15.1929 305.825 14.0651L308.097 11.7692C308.435 12.5748 308.878 13.187 309.426 13.6059C309.974 14.0248 310.602 14.2343 311.311 14.2343C312.197 14.2343 312.906 13.9926 313.438 13.5092C313.97 13.0098 314.235 12.2606 314.235 11.2617V0.313965H317.981V11.6967C317.981 12.9373 317.707 14.0006 317.16 14.8868C316.612 15.7568 315.863 16.4093 314.912 16.8443C313.961 17.2793 312.89 17.4968 311.698 17.4968Z" fill="#FFBA72"/>
<path d="M627.453 0.337891H640.43V3.38296H630.256L631.174 2.51294V8.09556L630.256 7.27387H639.56V10.3189H630.256L631.174 9.32808V17.1824H627.453V0.337891Z" fill="#FFBA72"/>
<path d="M612.016 0.337891H619.846C621.989 0.337891 623.592 0.71651 624.656 1.47375C625.719 2.21488 626.251 3.33462 626.251 4.83299C626.251 5.75134 626.009 6.51663 625.526 7.12887C625.042 7.7411 624.39 8.20834 623.568 8.53057C622.746 8.85279 621.82 9.04613 620.789 9.11058V11.044C621.53 11.0762 622.166 11.2373 622.698 11.5273C623.246 11.8012 623.753 12.2523 624.221 12.8807L624.293 12.9773L627.386 17.1824H623.012L620.354 13.3882C620.289 13.2915 620.225 13.1948 620.16 13.0982C619.693 12.4376 619.315 11.9704 619.025 11.6965C618.751 11.4226 618.445 11.2373 618.106 11.1406C617.768 11.0278 617.277 10.9715 616.632 10.9715H614.82L615.738 10.0773V17.1824H612.016V0.337891ZM614.82 8.60307H619.17C619.911 8.60307 620.523 8.5064 621.006 8.31306C621.506 8.10361 621.876 7.79749 622.118 7.39471C622.376 6.99192 622.505 6.48441 622.505 5.87218C622.505 4.98605 622.231 4.32548 621.683 3.89047C621.135 3.45546 620.297 3.23795 619.17 3.23795H614.82L615.738 2.29543V9.47309L614.82 8.60307Z" fill="#FFBA72"/>
<path d="M602.513 17.4968C600.821 17.4968 599.306 17.1262 597.969 16.3851C596.632 15.6279 595.585 14.5887 594.828 13.2675C594.07 11.9303 593.692 10.4319 593.692 8.77245C593.692 7.11297 594.07 5.62266 594.828 4.30152C595.585 2.98038 596.632 1.94925 597.969 1.20812C599.306 0.450884 600.821 0.0722656 602.513 0.0722656C604.188 0.0722656 605.695 0.450884 607.032 1.20812C608.385 1.94925 609.441 2.98038 610.198 4.30152C610.955 5.62266 611.334 7.11297 611.334 8.77245C611.334 10.4319 610.955 11.9303 610.198 13.2675C609.441 14.5887 608.385 15.6279 607.032 16.3851C605.695 17.1262 604.188 17.4968 602.513 17.4968ZM602.513 14.4276C603.528 14.4276 604.414 14.1859 605.171 13.7026C605.928 13.2192 606.508 12.5506 606.911 11.6967C607.314 10.8428 607.515 9.86803 607.515 8.77245C607.515 7.67687 607.314 6.70213 606.911 5.84822C606.508 4.99432 605.928 4.32569 605.171 3.84235C604.414 3.359 603.528 3.11733 602.513 3.11733C601.498 3.11733 600.612 3.359 599.854 3.84235C599.097 4.32569 598.509 4.99432 598.09 5.84822C597.687 6.70213 597.486 7.67687 597.486 8.77245C597.486 9.86803 597.687 10.8428 598.09 11.6967C598.509 12.5506 599.097 13.2192 599.854 13.7026C600.612 14.1859 601.498 14.4276 602.513 14.4276Z" fill="#FFBA72"/>
<path d="M577.791 0.337891H584.195C586.096 0.337891 587.748 0.708454 589.15 1.44958C590.551 2.1746 591.623 3.17351 592.364 4.44631C593.105 5.71912 593.476 7.16109 593.476 8.77224C593.476 10.3189 593.105 11.7367 592.364 13.0257C591.623 14.2985 590.551 15.3135 589.15 16.0707C587.748 16.8119 586.096 17.1824 584.195 17.1824H577.791V0.337891ZM580.594 14.1374H583.954C585.13 14.1374 586.145 13.9118 586.999 13.4607C587.869 13.0096 588.529 12.3812 588.98 11.5756C589.448 10.7539 589.681 9.81948 589.681 8.77224C589.681 7.72499 589.448 6.79858 588.98 5.99301C588.529 5.17133 587.869 4.53493 586.999 4.0838C586.145 3.61657 585.13 3.38296 583.954 3.38296H580.594L581.513 2.48877V15.0557L580.594 14.1374Z" fill="#FFBA72"/>
<path d="M561.198 0.337891H564.557L574.007 11.9865L575.771 10.7781C575.175 10.1175 574.683 9.51336 574.297 8.96558C573.91 8.41779 573.596 7.82972 573.354 7.20137C573.112 6.55691 572.992 5.88829 572.992 5.19549V0.337891H576.737V17.1824H573.644L564.098 5.46133L562.286 6.64553C562.962 7.28998 563.494 7.92639 563.881 8.55473C564.573 9.66642 564.92 10.8828 564.92 12.204V17.1824H561.198V0.337891Z" fill="#FFBA72"/>
<path d="M547.036 0.337891H560.352V3.38296H549.839L550.758 2.51294V8.09556L549.839 7.2497H559.603V10.1256H549.839L550.758 9.32808V15.0557L549.839 14.1374H560.642V17.1824H547.036V0.337891Z" fill="#FFBA72"/>
<path d="M539.389 17.4968C537.987 17.4968 536.755 17.3196 535.691 16.9651C534.644 16.6107 533.83 16.1032 533.25 15.4426C532.67 14.7659 532.38 13.9926 532.38 13.1225C532.38 12.3331 532.614 11.6725 533.081 11.1408C533.548 10.6092 534.177 10.2064 534.966 9.93247C535.772 9.64247 536.666 9.48941 537.649 9.4733V7.51575C536.537 7.46742 535.562 7.33047 534.725 7.10491C533.887 6.86324 533.218 6.49268 532.719 5.99322C532.219 5.49377 531.969 4.84125 531.969 4.03568C531.969 3.21399 532.235 2.50509 532.767 1.90897C533.299 1.29673 534.064 0.829499 535.063 0.507269C536.062 0.18504 537.222 0.0239258 538.543 0.0239258C540.138 0.0239258 541.588 0.241431 542.893 0.67644C544.198 1.11145 545.455 1.7398 546.663 2.56148L544.996 5.29237C544.19 4.6318 543.207 4.10012 542.047 3.69734C540.903 3.29455 539.775 3.0851 538.664 3.06899C537.745 3.06899 537.045 3.23011 536.561 3.55234C536.078 3.85845 535.836 4.26124 535.836 4.7607C535.836 5.11515 535.957 5.42126 536.199 5.67905C536.44 5.92072 536.779 6.13017 537.214 6.30739C537.665 6.46851 538.237 6.61351 538.93 6.7424L540.936 7.20158C542.643 7.55603 543.981 8.1441 544.947 8.96578C545.93 9.78747 546.421 10.8911 546.421 12.2767C546.421 13.195 546.14 14.057 545.576 14.8626C545.012 15.652 544.198 16.2884 543.135 16.7718C542.071 17.2551 540.823 17.4968 539.389 17.4968ZM539.485 14.8142C540.13 14.8142 540.686 14.7015 541.153 14.4759C541.636 14.2503 541.999 13.9523 542.241 13.5817C542.498 13.2112 542.627 12.8003 542.627 12.3492C542.627 11.8497 542.49 11.4147 542.216 11.0442C541.959 10.6575 541.58 10.3594 541.081 10.15C540.597 9.92442 540.041 9.81164 539.413 9.81164C538.817 9.81164 538.277 9.91636 537.794 10.1258C537.31 10.3353 536.932 10.6333 536.658 11.02C536.384 11.3906 536.247 11.8256 536.247 12.325C536.247 12.7923 536.384 13.2192 536.658 13.6059C536.932 13.9764 537.31 14.2745 537.794 14.5001C538.293 14.7095 538.857 14.8142 539.485 14.8142Z" fill="#FFBA72"/>
<path d="M529.573 17.1824L527.761 12.5665L528.897 13.364H519.931L521.066 12.5665L519.23 17.1824H515.266L522.444 0.337891H526.359L533.561 17.1824H529.573ZM523.435 3.14128C523.451 3.76963 523.443 4.3577 523.411 4.90549C523.378 5.43717 523.306 5.96884 523.193 6.50052C523.097 7.01609 522.96 7.54777 522.782 8.09556C522.573 8.69168 522.122 9.69865 521.429 11.1165L520.897 10.5606H527.906L527.374 11.1165C527.036 10.4237 526.722 9.71476 526.432 8.98974C526.013 7.97472 525.739 7.0322 525.61 6.16218C525.481 5.27605 525.433 4.26909 525.465 3.14128H523.435Z" fill="#FFBA72"/>
<path d="M492.793 0.337891H498.014C498.465 1.41736 498.867 2.41627 499.222 3.33462C499.576 4.23686 499.85 5.05049 500.044 5.77551C500.285 6.59719 500.463 7.37054 500.575 8.09556C500.688 8.80446 500.744 9.52948 500.744 10.2706H502.702C502.702 9.44892 502.775 8.62723 502.92 7.80555C503.065 6.96775 503.29 6.08162 503.596 5.14716C503.902 4.2127 504.329 3.06878 504.877 1.71542C504.958 1.48986 505.143 1.03068 505.433 0.337891H510.677V17.1824H506.955C506.955 15.7002 506.98 14.226 507.028 12.7598C507.092 11.3903 507.197 10.2787 507.342 9.42475C507.503 8.55473 507.713 7.77333 507.97 7.08054C508.228 6.38774 508.591 5.57411 509.058 4.63965L507.125 3.9388L503.137 14.1857H500.285L496.322 3.9388L494.413 4.71215C494.88 5.64662 495.242 6.45219 495.5 7.12887C495.758 7.80555 495.959 8.56279 496.104 9.40058C496.265 10.2223 496.378 11.2937 496.443 12.6148C496.491 14.1293 496.515 15.6518 496.515 17.1824H492.793V0.337891Z" fill="#FFBA72"/>
<path d="M488.001 0.337891H491.722V17.1824H488.001V0.337891Z" fill="#FFBA72"/>
<path d="M472.28 0.337891H476.002V3.35879C476.002 3.87436 475.938 4.34964 475.809 4.78465C475.68 5.21966 475.438 5.71106 475.084 6.25885C474.745 6.79053 474.246 7.47526 473.585 8.31306L475.18 9.44892L483.252 0.337891H487.771L480.4 8.19223L480.497 6.86303L487.989 17.1824H483.518L478.056 9.49725L479.095 9.59392L475.277 13.6782L476.002 12.0106V17.1824H472.28V0.337891Z" fill="#FFBA72"/>
</svg>
