<svg width="641" height="18" viewBox="0 0 641 18" fill="none" xmlns="http://www.w3.org/2000/svg">
<path d="M103.254 7.97521V9.3044L97.0913 0.338379H101.441C102.456 1.83674 103.133 3.01288 103.471 3.86679C103.826 4.70458 104.003 5.63905 104.003 6.67018H106.081C106.081 5.88072 106.178 5.21209 106.371 4.6643C106.533 4.11651 106.79 3.51234 107.145 2.85177C107.499 2.1912 108.023 1.3534 108.716 0.338379H112.969L106.806 9.2319V7.92687L113.211 17.1829H108.861C108.087 16.184 107.499 15.3462 107.097 14.6695C106.71 13.9928 106.436 13.3725 106.275 12.8086C106.114 12.2286 106.033 11.5842 106.033 10.8753H103.955C103.955 11.5681 103.874 12.1964 103.713 12.7603C103.552 13.3242 103.27 13.9445 102.867 14.6212C102.481 15.2979 101.901 16.1518 101.127 17.1829H96.8738L103.254 7.97521Z" fill="#FFBA72"/>
<path d="M81.2473 0.338379H84.6066L94.0559 11.987L95.8201 10.7786C95.224 10.118 94.7326 9.51385 94.3459 8.96606C93.9592 8.41827 93.6451 7.83021 93.4034 7.20186C93.1617 6.5574 93.0409 5.88878 93.0409 5.19598V0.338379H96.7868V17.1829H93.6934L84.1474 5.46182L82.3348 6.64601C83.0115 7.29047 83.5432 7.92687 83.9299 8.55522C84.6227 9.66691 84.9691 10.8833 84.9691 12.2045V17.1829H81.2473V0.338379Z" fill="#FFBA72"/>
<path d="M76.4546 0.338379H80.1763V17.1829H76.4546V0.338379Z" fill="#FFBA72"/>
<path d="M71.6584 0.338379H75.4043V17.1829H71.6584V0.338379ZM60.7107 0.338379H64.4324V17.1829H60.7107V0.338379ZM64.1183 7.12936H71.9968V10.1744H64.1183V7.12936Z" fill="#FFBA72"/>
<path d="M45.7461 0.338379H53.2863C54.7202 0.338379 55.9446 0.563939 56.9597 1.01506C57.9908 1.45007 58.7722 2.09453 59.3039 2.94843C59.8517 3.80234 60.1256 4.82542 60.1256 6.01767C60.1256 7.83826 59.5214 9.27218 58.313 10.3194C57.1047 11.3667 55.4291 11.8903 53.2863 11.8903H48.5495L49.4678 11.0444V17.1829H45.7461V0.338379ZM48.5495 8.99023H52.8271C53.9871 8.99023 54.8732 8.74856 55.4855 8.26521C56.0977 7.76576 56.4038 7.0488 56.4038 6.11434C56.4038 5.22821 56.0977 4.55152 55.4855 4.08429C54.8732 3.61706 53.979 3.38344 52.8029 3.38344H48.5495L49.4678 2.53759V9.81191L48.5495 8.99023Z" fill="#FFBA72"/>
<path d="M38.0993 17.4978C36.6976 17.4978 35.465 17.3206 34.4017 16.9661C33.3544 16.6116 32.5408 16.1041 31.9608 15.4436C31.3808 14.7669 31.0908 13.9935 31.0908 13.1235C31.0908 12.3341 31.3244 11.6735 31.7916 11.1418C32.2589 10.6101 32.8872 10.2073 33.6767 9.93345C34.4822 9.64344 35.3764 9.49038 36.3592 9.47427V7.51673C35.2475 7.4684 34.2728 7.33145 33.435 7.10589C32.5972 6.86422 31.9286 6.49365 31.4291 5.9942C30.9297 5.49474 30.6799 4.84223 30.6799 4.03666C30.6799 3.21497 30.9458 2.50607 31.4774 1.90994C32.0091 1.29771 32.7744 0.830475 33.7733 0.508246C34.7722 0.186017 35.9323 0.0249023 37.2534 0.0249023C38.8484 0.0249023 40.2985 0.242407 41.6035 0.677417C42.9085 1.11243 44.1652 1.74077 45.3736 2.56246L43.706 5.29335C42.9005 4.63278 41.9177 4.1011 40.7577 3.69831C39.6137 3.29553 38.4859 3.08608 37.3742 3.06997C36.4559 3.06997 35.755 3.23108 35.2717 3.55331C34.7884 3.85943 34.5467 4.26222 34.5467 4.76167C34.5467 5.11612 34.6675 5.42224 34.9092 5.68002C35.1509 5.9217 35.4892 6.13114 35.9242 6.30837C36.3753 6.46948 36.9473 6.61449 37.6401 6.74338L39.646 7.20256C41.3538 7.55701 42.691 8.14508 43.6577 8.96676C44.6405 9.78845 45.1319 10.8921 45.1319 12.2777C45.1319 13.196 44.85 14.058 44.2861 14.8636C43.7222 15.653 42.9085 16.2894 41.8452 16.7728C40.7818 17.2561 39.5332 17.4978 38.0993 17.4978ZM38.1959 14.8152C38.8404 14.8152 39.3962 14.7024 39.8635 14.4769C40.3468 14.2513 40.7093 13.9533 40.951 13.5827C41.2088 13.2121 41.3377 12.8013 41.3377 12.3502C41.3377 11.8507 41.2007 11.4157 40.9268 11.0451C40.669 10.6585 40.2904 10.3604 39.791 10.151C39.3076 9.92539 38.7518 9.81261 38.1234 9.81261C37.5273 9.81261 36.9876 9.91734 36.5042 10.1268C36.0209 10.3362 35.6423 10.6343 35.3684 11.021C35.0945 11.3915 34.9575 11.8265 34.9575 12.326C34.9575 12.7932 35.0945 13.2202 35.3684 13.6069C35.6423 13.9774 36.0209 14.2755 36.5042 14.501C37.0037 14.7105 37.5676 14.8152 38.1959 14.8152Z" fill="#FFBA72"/>
<path d="M19.274 17.5212C17.9206 17.5212 16.7445 17.2312 15.7456 16.6512C14.7467 16.0712 13.9653 15.2173 13.4014 14.0895L15.6731 11.7936C16.0114 12.5992 16.4545 13.2114 17.0023 13.6303C17.5501 14.0492 18.1784 14.2587 18.8873 14.2587C19.7734 14.2587 20.4824 14.017 21.014 13.5337C21.5457 13.0342 21.8115 12.285 21.8115 11.2861V0.338379H25.5575V11.7211C25.5575 12.9617 25.2836 14.0251 24.7358 14.9112C24.188 15.7812 23.4388 16.4337 22.4882 16.8687C21.5377 17.3037 20.4662 17.5212 19.274 17.5212Z" fill="#FFBA72"/>
<path d="M0 0.338867H6.4043C8.30546 0.338867 9.95688 0.709431 11.3586 1.45056C12.7603 2.17557 13.8317 3.17448 14.5728 4.44729C15.3139 5.72009 15.6845 7.16207 15.6845 8.77321C15.6845 10.3199 15.3139 11.7377 14.5728 13.0266C13.8317 14.2994 12.7603 15.3145 11.3586 16.0717C9.95688 16.8128 8.30546 17.1834 6.4043 17.1834H0V0.338867ZM2.80339 14.1383H6.16263C7.33877 14.1383 8.35379 13.9128 9.2077 13.4616C10.0777 13.0105 10.7383 12.3822 11.1894 11.5766C11.6566 10.7549 11.8903 9.82046 11.8903 8.77321C11.8903 7.72597 11.6566 6.79956 11.1894 5.99399C10.7383 5.1723 10.0777 4.5359 9.2077 4.08478C8.35379 3.61755 7.33877 3.38393 6.16263 3.38393H2.80339L3.72175 2.48975V15.0567L2.80339 14.1383Z" fill="#FFBA72"/>
<path d="M229.464 17.1829L227.651 12.567L228.787 13.3645H219.821L220.957 12.567L219.12 17.1829H215.157L222.334 0.338379H226.249L233.451 17.1829H229.464ZM223.325 3.14177C223.341 3.77012 223.333 4.35819 223.301 4.90598C223.269 5.43765 223.196 5.96933 223.084 6.50101C222.987 7.01658 222.85 7.54826 222.673 8.09605C222.463 8.69217 222.012 9.69914 221.319 11.1169L220.788 10.5611H227.796L227.265 11.1169C226.926 10.4242 226.612 9.71525 226.322 8.99023C225.903 7.97521 225.629 7.03269 225.5 6.16267C225.371 5.27654 225.323 4.26957 225.355 3.14177H223.325Z" fill="#FFBA72"/>
<path d="M195.047 0.338379H198.914C199.413 2.80343 199.744 4.80125 199.905 6.33184C200.082 7.86243 200.122 9.21579 200.026 10.3919C199.929 11.5681 199.687 12.8167 199.301 14.1378L201.379 14.3795C201.621 12.3011 201.903 10.4241 202.225 8.74856C202.547 7.05686 203.119 4.25346 203.941 0.338379H208.847C209.539 3.20622 210.111 6.00156 210.562 8.72439C210.949 10.8511 211.231 12.7361 211.408 14.3795L213.511 14.1378C213.14 12.6395 212.907 11.27 212.81 10.0294C212.729 8.78884 212.77 7.43547 212.931 5.96933C213.092 4.48708 213.406 2.61009 213.873 0.338379H217.74L214.091 17.1829H209.209C208.371 13.5417 207.824 10.7625 207.566 8.84523C207.324 6.91185 207.26 4.89792 207.372 2.80343H205.415C205.544 4.80125 205.479 6.76685 205.222 8.70022C204.98 10.6175 204.432 13.445 203.578 17.1829H198.696L195.047 0.338379Z" fill="#FFBA72"/>
<path d="M193.658 17.1829L191.845 12.567L192.981 13.3645H184.015L185.151 12.567L183.314 17.1829H179.351L186.528 0.338379H190.444L197.645 17.1829H193.658ZM187.519 3.14177C187.535 3.77012 187.527 4.35819 187.495 4.90598C187.463 5.43765 187.39 5.96933 187.278 6.50101C187.181 7.01658 187.044 7.54826 186.867 8.09605C186.657 8.69217 186.206 9.69914 185.513 11.1169L184.982 10.5611H191.99L191.459 11.1169C191.12 10.4242 190.806 9.71525 190.516 8.99023C190.097 7.97521 189.823 7.03269 189.694 6.16267C189.565 5.27654 189.517 4.26957 189.549 3.14177H187.519Z" fill="#FFBA72"/>
<path d="M159.241 0.338379H163.108C163.607 2.80343 163.937 4.80125 164.099 6.33184C164.276 7.86243 164.316 9.21579 164.219 10.3919C164.123 11.5681 163.881 12.8167 163.494 14.1378L165.573 14.3795C165.814 12.3011 166.096 10.4241 166.419 8.74856C166.741 7.05686 167.313 4.25346 168.134 0.338379H173.04C173.733 3.20622 174.305 6.00156 174.756 8.72439C175.143 10.8511 175.425 12.7361 175.602 14.3795L177.705 14.1378C177.334 12.6395 177.101 11.27 177.004 10.0294C176.923 8.78884 176.964 7.43547 177.125 5.96933C177.286 4.48708 177.6 2.61009 178.067 0.338379H181.934L178.285 17.1829H173.403C172.565 13.5417 172.017 10.7625 171.76 8.84523C171.518 6.91185 171.453 4.89792 171.566 2.80343H169.609C169.738 4.80125 169.673 6.76685 169.415 8.70022C169.174 10.6175 168.626 13.445 167.772 17.1829H162.89L159.241 0.338379Z" fill="#FFBA72"/>
<path d="M148.842 17.5212C147.488 17.5212 146.312 17.2312 145.313 16.6512C144.314 16.0712 143.533 15.2173 142.969 14.0895L145.241 11.7936C145.579 12.5992 146.022 13.2114 146.57 13.6303C147.118 14.0492 147.746 14.2587 148.455 14.2587C149.341 14.2587 150.05 14.017 150.582 13.5337C151.113 13.0342 151.379 12.285 151.379 11.2861V0.338379H155.125V11.7211C155.125 12.9617 154.851 14.0251 154.303 14.9112C153.756 15.7812 153.006 16.4337 152.056 16.8687C151.105 17.3037 150.034 17.5212 148.842 17.5212Z" fill="#FFBA72"/>
<path d="M129.568 0.338379H135.972C137.873 0.338379 139.525 0.708942 140.926 1.45007C142.328 2.17509 143.4 3.174 144.141 4.4468C144.882 5.71961 145.252 7.16158 145.252 8.77273C145.252 10.3194 144.882 11.7372 144.141 13.0261C143.4 14.299 142.328 15.314 140.926 16.0712C139.525 16.8123 137.873 17.1829 135.972 17.1829H129.568V0.338379ZM132.371 14.1378H135.731C136.907 14.1378 137.922 13.9123 138.776 13.4612C139.646 13.01 140.306 12.3817 140.757 11.5761C141.225 10.7544 141.458 9.81997 141.458 8.77273C141.458 7.72548 141.225 6.79907 140.757 5.9935C140.306 5.17182 139.646 4.53541 138.776 4.08429C137.922 3.61706 136.907 3.38344 135.731 3.38344H132.371L133.29 2.48926V15.0562L132.371 14.1378Z" fill="#FFBA72"/>
<path d="M304.947 17.5212C303.546 17.5212 302.313 17.344 301.25 16.9895C300.203 16.6351 299.389 16.1276 298.809 15.467C298.229 14.7903 297.939 14.017 297.939 13.147C297.939 12.3575 298.173 11.6969 298.64 11.1652C299.107 10.6336 299.735 10.2308 300.525 9.95689C301.33 9.66688 302.225 9.51382 303.207 9.49771V7.54017C302.096 7.49183 301.121 7.35489 300.283 7.12932C299.445 6.88765 298.777 6.51709 298.277 6.01763C297.778 5.51818 297.528 4.86567 297.528 4.06009C297.528 3.23841 297.794 2.5295 298.326 1.93338C298.857 1.32115 299.623 0.853913 300.621 0.531683C301.62 0.209454 302.78 0.0483398 304.102 0.0483398C305.697 0.0483398 307.147 0.265845 308.452 0.700854C309.757 1.13586 311.013 1.76421 312.222 2.58589L310.554 5.31679C309.749 4.65622 308.766 4.12454 307.606 3.72175C306.462 3.31897 305.334 3.10952 304.222 3.09341C303.304 3.09341 302.603 3.25452 302.12 3.57675C301.636 3.88287 301.395 4.28565 301.395 4.78511C301.395 5.13956 301.516 5.44568 301.757 5.70346C301.999 5.94513 302.337 6.15458 302.772 6.33181C303.223 6.49292 303.795 6.63793 304.488 6.76682L306.494 7.22599C308.202 7.58045 309.539 8.16851 310.506 8.9902C311.489 9.81188 311.98 10.9155 311.98 12.3011C311.98 13.2195 311.698 14.0814 311.134 14.887C310.57 15.6765 309.757 16.3129 308.693 16.7962C307.63 17.2795 306.381 17.5212 304.947 17.5212ZM305.044 14.8387C305.689 14.8387 306.244 14.7259 306.712 14.5003C307.195 14.2748 307.557 13.9767 307.799 13.6061C308.057 13.2356 308.186 12.8247 308.186 12.3736C308.186 11.8742 308.049 11.4391 307.775 11.0686C307.517 10.6819 307.139 10.3838 306.639 10.1744C306.156 9.94883 305.6 9.83605 304.972 9.83605C304.375 9.83605 303.836 9.94077 303.352 10.1502C302.869 10.3597 302.49 10.6577 302.217 11.0444C301.943 11.415 301.806 11.85 301.806 12.3494C301.806 12.8167 301.943 13.2436 302.217 13.6303C302.49 14.0009 302.869 14.2989 303.352 14.5245C303.852 14.7339 304.416 14.8387 305.044 14.8387Z" fill="#FFBA72"/>
<path d="M290.644 17.5212C289.242 17.5212 288.009 17.344 286.946 16.9895C285.899 16.6351 285.085 16.1276 284.505 15.467C283.925 14.7903 283.635 14.017 283.635 13.147C283.635 12.3575 283.869 11.6969 284.336 11.1652C284.803 10.6336 285.432 10.2308 286.221 9.95689C287.027 9.66688 287.921 9.51382 288.904 9.49771V7.54017C287.792 7.49183 286.817 7.35489 285.979 7.12932C285.142 6.88765 284.473 6.51709 283.974 6.01763C283.474 5.51818 283.224 4.86567 283.224 4.06009C283.224 3.23841 283.49 2.5295 284.022 1.93338C284.554 1.32115 285.319 0.853913 286.318 0.531683C287.317 0.209454 288.477 0.0483398 289.798 0.0483398C291.393 0.0483398 292.843 0.265845 294.148 0.700854C295.453 1.13586 296.71 1.76421 297.918 2.58589L296.25 5.31679C295.445 4.65622 294.462 4.12454 293.302 3.72175C292.158 3.31897 291.03 3.10952 289.919 3.09341C289 3.09341 288.299 3.25452 287.816 3.57675C287.333 3.88287 287.091 4.28565 287.091 4.78511C287.091 5.13956 287.212 5.44568 287.454 5.70346C287.695 5.94513 288.034 6.15458 288.469 6.33181C288.92 6.49292 289.492 6.63793 290.185 6.76682L292.19 7.22599C293.898 7.58045 295.235 8.16851 296.202 8.9902C297.185 9.81188 297.676 10.9155 297.676 12.3011C297.676 13.2195 297.394 14.0814 296.83 14.887C296.267 15.6765 295.453 16.3129 294.39 16.7962C293.326 17.2795 292.078 17.5212 290.644 17.5212ZM290.74 14.8387C291.385 14.8387 291.941 14.7259 292.408 14.5003C292.891 14.2748 293.254 13.9767 293.495 13.6061C293.753 13.2356 293.882 12.8247 293.882 12.3736C293.882 11.8742 293.745 11.4391 293.471 11.0686C293.213 10.6819 292.835 10.3838 292.335 10.1744C291.852 9.94883 291.296 9.83605 290.668 9.83605C290.072 9.83605 289.532 9.94077 289.049 10.1502C288.565 10.3597 288.187 10.6577 287.913 11.0444C287.639 11.415 287.502 11.85 287.502 12.3494C287.502 12.8167 287.639 13.2436 287.913 13.6303C288.187 14.0009 288.565 14.2989 289.049 14.5245C289.548 14.7339 290.112 14.8387 290.74 14.8387Z" fill="#FFBA72"/>
<path d="M274.53 17.5212C272.839 17.5212 271.324 17.1507 269.987 16.4095C268.65 15.6523 267.602 14.6131 266.845 13.292C266.088 11.9547 265.709 10.4563 265.709 8.79687C265.709 7.13739 266.088 5.64708 266.845 4.32594C267.602 3.0048 268.65 1.97366 269.987 1.23254C271.324 0.475299 272.839 0.0966797 274.53 0.0966797C276.206 0.0966797 277.712 0.475299 279.05 1.23254C280.403 1.97366 281.458 3.0048 282.215 4.32594C282.973 5.64708 283.351 7.13739 283.351 8.79687C283.351 10.4563 282.973 11.9547 282.215 13.292C281.458 14.6131 280.403 15.6523 279.05 16.4095C277.712 17.1507 276.206 17.5212 274.53 17.5212ZM274.53 14.452C275.545 14.452 276.431 14.2103 277.189 13.727C277.946 13.2436 278.526 12.575 278.929 11.7211C279.331 10.8672 279.533 9.89245 279.533 8.79687C279.533 7.70129 279.331 6.72654 278.929 5.87264C278.526 5.01873 277.946 4.3501 277.189 3.86676C276.431 3.38342 275.545 3.14174 274.53 3.14174C273.515 3.14174 272.629 3.38342 271.872 3.86676C271.115 4.3501 270.527 5.01873 270.108 5.87264C269.705 6.72654 269.503 7.70129 269.503 8.79687C269.503 9.89245 269.705 10.8672 270.108 11.7211C270.527 12.575 271.115 13.2436 271.872 13.727C272.629 14.2103 273.515 14.452 274.53 14.452Z" fill="#FFBA72"/>
<path d="M249.809 0.362305H256.213C258.114 0.362305 259.765 0.732868 261.167 1.474C262.569 2.19901 263.64 3.19792 264.381 4.47073C265.123 5.74353 265.493 7.18551 265.493 8.79665C265.493 10.3434 265.123 11.7612 264.381 13.0501C263.64 14.3229 262.569 15.3379 261.167 16.0951C259.765 16.8363 258.114 17.2068 256.213 17.2068H249.809V0.362305ZM252.612 14.1618H255.971C257.147 14.1618 258.162 13.9362 259.016 13.4851C259.886 13.034 260.547 12.4056 260.998 11.6C261.465 10.7784 261.699 9.8439 261.699 8.79665C261.699 7.74941 261.465 6.823 260.998 6.01743C260.547 5.19574 259.886 4.55934 259.016 4.10822C258.162 3.64099 257.147 3.40737 255.971 3.40737H252.612L253.53 2.51318V15.0801L252.612 14.1618Z" fill="#FFBA72"/>
<path d="M507.021 0.338379H520.338V3.38344H509.825L510.743 2.51342V8.09605L509.825 7.25019H519.588V10.1261H509.825L510.743 9.32857V15.0562L509.825 14.1378H520.628V17.1829H507.021V0.338379Z" fill="#FFBA72"/>
<path d="M497.518 17.4973C495.826 17.4973 494.312 17.1267 492.975 16.3856C491.637 15.6284 490.59 14.5892 489.833 13.268C489.076 11.9308 488.697 10.4324 488.697 8.77294C488.697 7.11346 489.076 5.62315 489.833 4.30201C490.59 2.98087 491.637 1.94974 492.975 1.20861C494.312 0.451373 495.826 0.0727539 497.518 0.0727539C499.194 0.0727539 500.7 0.451373 502.037 1.20861C503.391 1.94974 504.446 2.98087 505.203 4.30201C505.96 5.62315 506.339 7.11346 506.339 8.77294C506.339 10.4324 505.96 11.9308 505.203 13.268C504.446 14.5892 503.391 15.6284 502.037 16.3856C500.7 17.1267 499.194 17.4973 497.518 17.4973ZM497.518 14.4281C498.533 14.4281 499.419 14.1864 500.176 13.703C500.934 13.2197 501.514 12.5511 501.916 11.6972C502.319 10.8433 502.521 9.86852 502.521 8.77294C502.521 7.67736 502.319 6.70262 501.916 5.84871C501.514 4.9948 500.934 4.32618 500.176 3.84283C499.419 3.35949 498.533 3.11782 497.518 3.11782C496.503 3.11782 495.617 3.35949 494.86 3.84283C494.102 4.32618 493.514 4.9948 493.095 5.84871C492.693 6.70262 492.491 7.67736 492.491 8.77294C492.491 9.86852 492.693 10.8433 493.095 11.6972C493.514 12.5511 494.102 13.2197 494.86 13.703C495.617 14.1864 496.503 14.4281 497.518 14.4281Z" fill="#FFBA72"/>
<path d="M470.106 0.338379H475.327C475.778 1.41785 476.18 2.41676 476.535 3.33511C476.889 4.23735 477.163 5.05098 477.357 5.77599C477.598 6.59768 477.775 7.37103 477.888 8.09605C478.001 8.80495 478.057 9.52996 478.057 10.2711H480.015C480.015 9.44941 480.087 8.62772 480.232 7.80604C480.378 6.96824 480.603 6.08211 480.909 5.14765C481.215 4.21318 481.642 3.06927 482.19 1.71591C482.271 1.49035 482.456 1.03117 482.746 0.338379H487.99V17.1829H484.268C484.268 15.7007 484.293 14.2265 484.341 12.7603C484.405 11.3908 484.51 10.2791 484.655 9.42524C484.816 8.55522 485.026 7.77382 485.283 7.08102C485.541 6.38823 485.904 5.5746 486.371 4.64014L484.438 3.93929L480.45 14.1862H477.598L473.635 3.93929L471.726 4.71264C472.193 5.6471 472.555 6.45268 472.813 7.12936C473.071 7.80604 473.272 8.56328 473.417 9.40107C473.578 10.2228 473.691 11.2942 473.756 12.6153C473.804 14.1298 473.828 15.6523 473.828 17.1829H470.106V0.338379Z" fill="#FFBA72"/>
<path d="M460.678 2.46509L461.524 3.38344H455.095V0.338379H470.006V3.38344H463.578L464.424 2.46509V17.1829H460.678V2.46509Z" fill="#FFBA72"/>
<path d="M448.651 17.4978C447.25 17.4978 446.017 17.3206 444.954 16.9661C443.906 16.6116 443.093 16.1041 442.513 15.4436C441.933 14.7669 441.643 13.9935 441.643 13.1235C441.643 12.3341 441.876 11.6735 442.344 11.1418C442.811 10.6101 443.439 10.2073 444.229 9.93345C445.034 9.64344 445.928 9.49038 446.911 9.47427V7.51673C445.8 7.4684 444.825 7.33145 443.987 7.10589C443.149 6.86422 442.481 6.49365 441.981 5.9942C441.482 5.49474 441.232 4.84223 441.232 4.03666C441.232 3.21497 441.498 2.50607 442.029 1.90994C442.561 1.29771 443.326 0.830475 444.325 0.508246C445.324 0.186017 446.484 0.0249023 447.805 0.0249023C449.4 0.0249023 450.85 0.242407 452.155 0.677417C453.461 1.11243 454.717 1.74077 455.926 2.56246L454.258 5.29335C453.452 4.63278 452.47 4.1011 451.31 3.69831C450.166 3.29553 449.038 3.08608 447.926 3.06997C447.008 3.06997 446.307 3.23108 445.824 3.55331C445.34 3.85943 445.099 4.26222 445.099 4.76167C445.099 5.11612 445.22 5.42224 445.461 5.68002C445.703 5.9217 446.041 6.13114 446.476 6.30837C446.927 6.46948 447.499 6.61449 448.192 6.74338L450.198 7.20256C451.906 7.55701 453.243 8.14508 454.21 8.96676C455.193 9.78845 455.684 10.8921 455.684 12.2777C455.684 13.196 455.402 14.058 454.838 14.8636C454.274 15.653 453.461 16.2894 452.397 16.7728C451.334 17.2561 450.085 17.4978 448.651 17.4978ZM448.748 14.8152C449.392 14.8152 449.948 14.7024 450.415 14.4769C450.899 14.2513 451.261 13.9533 451.503 13.5827C451.761 13.2121 451.89 12.8013 451.89 12.3502C451.89 11.8507 451.753 11.4157 451.479 11.0451C451.221 10.6585 450.842 10.3604 450.343 10.151C449.86 9.92539 449.304 9.81261 448.675 9.81261C448.079 9.81261 447.54 9.91734 447.056 10.1268C446.573 10.3362 446.194 10.6343 445.92 11.021C445.646 11.3915 445.51 11.8265 445.51 12.326C445.51 12.7932 445.646 13.2202 445.92 13.6069C446.194 13.9774 446.573 14.2755 447.056 14.501C447.556 14.7105 448.12 14.8152 448.748 14.8152Z" fill="#FFBA72"/>
<path d="M438.835 17.1829L437.023 12.567L438.159 13.3645H429.193L430.328 12.567L428.492 17.1829H424.528L431.706 0.338379H435.621L442.823 17.1829H438.835ZM432.697 3.14177C432.713 3.77012 432.705 4.35819 432.673 4.90598C432.64 5.43765 432.568 5.96933 432.455 6.50101C432.358 7.01658 432.222 7.54826 432.044 8.09605C431.835 8.69217 431.384 9.69914 430.691 11.1169L430.159 10.5611H437.168L436.636 11.1169C436.298 10.4242 435.984 9.71525 435.694 8.99023C435.275 7.97521 435.001 7.03269 434.872 6.16267C434.743 5.27654 434.695 4.26957 434.727 3.14177H432.697Z" fill="#FFBA72"/>
<path d="M419.103 17.5212C417.443 17.5212 415.953 17.1587 414.632 16.4337C413.327 15.6926 412.304 14.6614 411.563 13.3403C410.821 12.003 410.451 10.4724 410.451 8.74852C410.451 7.0246 410.821 5.50206 411.563 4.18092C412.32 2.85978 413.367 1.83671 414.704 1.11169C416.058 0.370564 417.588 0 419.296 0C420.633 0 421.818 0.217505 422.849 0.652514C423.88 1.08752 424.83 1.70781 425.7 2.51339L423.815 5.00261C423.219 4.42259 422.575 3.97953 421.882 3.67341C421.189 3.35118 420.408 3.19007 419.538 3.19007C418.507 3.19007 417.58 3.43174 416.759 3.91508C415.953 4.38232 415.325 5.04289 414.874 5.89679C414.422 6.7507 414.197 7.72544 414.197 8.82102C414.197 9.9166 414.422 10.8752 414.874 11.6969C415.341 12.5186 415.977 13.155 416.783 13.6061C417.604 14.0411 418.531 14.2586 419.562 14.2586C420.448 14.2586 421.238 14.0814 421.93 13.727C422.639 13.3725 423.292 12.8731 423.888 12.2286L425.821 14.7903C424.919 15.6764 423.936 16.3531 422.873 16.8204C421.826 17.2876 420.569 17.5212 419.103 17.5212Z" fill="#FFBA72"/>
<path d="M391.86 0.338379H397.08C397.532 1.41785 397.934 2.41676 398.289 3.33511C398.643 4.23735 398.917 5.05098 399.111 5.77599C399.352 6.59768 399.529 7.37103 399.642 8.09605C399.755 8.80495 399.811 9.52996 399.811 10.2711H401.769C401.769 9.44941 401.841 8.62772 401.986 7.80604C402.131 6.96824 402.357 6.08211 402.663 5.14765C402.969 4.21318 403.396 3.06927 403.944 1.71591C404.025 1.49035 404.21 1.03117 404.5 0.338379H409.744V17.1829H406.022C406.022 15.7007 406.046 14.2265 406.095 12.7603C406.159 11.3908 406.264 10.2791 406.409 9.42524C406.57 8.55522 406.78 7.77382 407.037 7.08102C407.295 6.38823 407.658 5.5746 408.125 4.64014L406.191 3.93929L402.204 14.1862H399.352L395.389 3.93929L393.48 4.71264C393.947 5.6471 394.309 6.45268 394.567 7.12936C394.825 7.80604 395.026 8.56328 395.171 9.40107C395.332 10.2228 395.445 11.2942 395.51 12.6153C395.558 14.1298 395.582 15.6523 395.582 17.1829H391.86V0.338379Z" fill="#FFBA72"/>
<path d="M387.781 17.1829L385.969 12.567L387.104 13.3645H378.138L379.274 12.567L377.438 17.1829H373.474L380.652 0.338379H384.567L391.769 17.1829H387.781ZM381.643 3.14177C381.659 3.77012 381.651 4.35819 381.618 4.90598C381.586 5.43765 381.514 5.96933 381.401 6.50101C381.304 7.01658 381.167 7.54826 380.99 8.09605C380.781 8.69217 380.33 9.69914 379.637 11.1169L379.105 10.5611H386.114L385.582 11.1169C385.244 10.4242 384.929 9.71525 384.639 8.99023C384.22 7.97521 383.947 7.03269 383.818 6.16267C383.689 5.27654 383.64 4.26957 383.673 3.14177H381.643Z" fill="#FFBA72"/>
<path d="M360.279 0.338379H373.595V3.38344H363.082L364 2.51342V8.09605L363.082 7.25019H372.846V10.1261H363.082L364 9.32857V15.0562L363.082 14.1378H373.885V17.1829H360.279V0.338379Z" fill="#FFBA72"/>
<path d="M344.842 0.338379H352.672C354.815 0.338379 356.418 0.716998 357.481 1.47424C358.545 2.21536 359.077 3.33511 359.077 4.83347C359.077 5.75183 358.835 6.51712 358.351 7.12936C357.868 7.74159 357.216 8.20882 356.394 8.53105C355.572 8.85328 354.646 9.04662 353.615 9.11107V11.0444C354.356 11.0767 354.992 11.2378 355.524 11.5278C356.072 11.8017 356.579 12.2528 357.046 12.8811L357.119 12.9778L360.212 17.1829H355.838L353.18 13.3887C353.115 13.292 353.051 13.1953 352.986 13.0987C352.519 12.4381 352.141 11.9709 351.851 11.697C351.577 11.4231 351.271 11.2378 350.932 11.1411C350.594 11.0283 350.102 10.9719 349.458 10.9719H347.645L348.564 10.0778V17.1829H344.842V0.338379ZM347.645 8.60356H351.996C352.737 8.60356 353.349 8.50689 353.832 8.31355C354.332 8.1041 354.702 7.79798 354.944 7.3952C355.202 6.99241 355.331 6.4849 355.331 5.87266C355.331 4.98653 355.057 4.32596 354.509 3.89096C353.961 3.45595 353.123 3.23844 351.996 3.23844H347.645L348.564 2.29592V9.47357L347.645 8.60356Z" fill="#FFBA72"/>
<path d="M328.579 0.338867H334.983C336.884 0.338867 338.536 0.709431 339.937 1.45056C341.339 2.17557 342.411 3.17448 343.152 4.44729C343.893 5.72009 344.263 7.16207 344.263 8.77321C344.263 10.3199 343.893 11.7377 343.152 13.0266C342.411 14.2994 341.339 15.3145 339.937 16.0717C338.536 16.8128 336.884 17.1834 334.983 17.1834H328.579V0.338867ZM331.382 14.1383H334.741C335.918 14.1383 336.933 13.9128 337.787 13.4616C338.657 13.0105 339.317 12.3822 339.768 11.5766C340.235 10.7549 340.469 9.82046 340.469 8.77321C340.469 7.72597 340.235 6.79956 339.768 5.99399C339.317 5.1723 338.657 4.5359 337.787 4.08478C336.933 3.61755 335.918 3.38393 334.741 3.38393H331.382L332.301 2.48975V15.0567L331.382 14.1383Z" fill="#FFBA72"/>
<path d="M626.824 0.676758H640.14V3.72182H629.628L630.546 2.8518V8.43442L629.628 7.58857H639.391V10.4645H629.628L630.546 9.66695V15.3946L629.628 14.4762H640.43V17.5213H626.824V0.676758Z" fill="#FFBA72"/>
<path d="M610.231 0.676758H613.59L623.04 12.3253L624.804 11.117C624.208 10.4564 623.716 9.85223 623.33 9.30444C622.943 8.75665 622.629 8.16858 622.387 7.54024C622.146 6.89578 622.025 6.22715 622.025 5.53436V0.676758H625.771V17.5213H622.677L613.131 5.8002L611.319 6.98439C611.995 7.62885 612.527 8.26525 612.914 8.8936C613.607 10.0053 613.953 11.2217 613.953 12.5428V17.5213H610.231V0.676758Z" fill="#FFBA72"/>
<path d="M605.439 0.676758H609.16V17.5213H605.439V0.676758Z" fill="#FFBA72"/>
<path d="M591.383 14.7179L600.904 3.02097L599.43 1.74011C598.963 2.15901 598.447 2.50541 597.884 2.7793C597.32 3.0532 596.675 3.26265 595.95 3.40765C595.225 3.55265 594.258 3.64932 593.05 3.69766C592.518 3.71377 592.051 3.72182 591.648 3.72182V0.676758H604.82V3.48015L595.273 15.2254L596.772 16.4579C597.239 16.0874 597.763 15.7732 598.343 15.5154C598.923 15.2415 599.591 15.016 600.349 14.8387C601.122 14.6615 602.137 14.5487 603.394 14.5004C603.941 14.4843 604.433 14.4762 604.868 14.4762V17.5213H591.383V14.7179Z" fill="#FFBA72"/>
<path d="M577.952 2.80347L578.797 3.72182H572.369V0.676758H587.28V3.72182H580.852L581.697 2.80347V17.5213H577.952V2.80347Z" fill="#FFBA72"/>
<path d="M564.436 0.676758H568.158V15.3946L567.24 14.4762H577.221V17.5213H564.436V0.676758Z" fill="#FFBA72"/>
<path d="M550.274 0.676758H563.59V3.72182H553.077L553.996 2.8518V8.43442L553.077 7.58857H562.841V10.4645H553.077L553.996 9.66695V15.3946L553.077 14.4762H563.88V17.5213H550.274V0.676758Z" fill="#FFBA72"/>
<path d="M536.985 0.676758H549.962V3.72182H539.788L540.706 2.8518V8.43442L539.788 7.61274H549.092V10.6578H539.788L540.706 9.66695V17.5213H536.985V0.676758Z" fill="#FFBA72"/>
</svg>
