<svg width="641" height="18" viewBox="0 0 641 18" fill="none" xmlns="http://www.w3.org/2000/svg">
<path d="M116.461 0.290039H124.002C125.436 0.290039 126.66 0.515599 127.675 0.96672C128.706 1.40173 129.488 2.04619 130.019 2.90009C130.567 3.754 130.841 4.77708 130.841 5.96933C130.841 7.78992 130.237 9.22384 129.028 10.2711C127.82 11.3183 126.144 11.842 124.002 11.842H119.265L120.183 10.9961V17.1346H116.461V0.290039ZM119.265 8.94189H123.542C124.702 8.94189 125.589 8.70022 126.201 8.21688C126.813 7.71742 127.119 7.00046 127.119 6.066C127.119 5.17987 126.813 4.50318 126.201 4.03595C125.589 3.56872 124.694 3.3351 123.518 3.3351H119.265L120.183 2.48925V9.76358L119.265 8.94189Z" fill="#FFBA72"/>
<path d="M111.669 0.290039H115.39V17.1346H111.669V0.290039Z" fill="#FFBA72"/>
<path d="M96.2322 0.290039H104.062C106.205 0.290039 107.808 0.668658 108.872 1.4259C109.935 2.16702 110.467 3.28677 110.467 4.78513C110.467 5.70349 110.225 6.46878 109.742 7.08102C109.258 7.69325 108.606 8.16048 107.784 8.48271C106.962 8.80494 106.036 8.99828 105.005 9.06273V10.9961C105.746 11.0283 106.382 11.1894 106.914 11.4794C107.462 11.7533 107.969 12.2045 108.437 12.8328L108.509 12.9295L111.603 17.1346H107.228L104.57 13.3403C104.505 13.2436 104.441 13.147 104.377 13.0503C103.909 12.3897 103.531 11.9225 103.241 11.6486C102.967 11.3747 102.661 11.1894 102.322 11.0928C101.984 10.98 101.493 10.9236 100.848 10.9236H99.0356L99.9539 10.0294V17.1346H96.2322V0.290039ZM99.0356 8.55522H103.386C104.127 8.55522 104.739 8.45855 105.222 8.26521C105.722 8.05576 106.092 7.74964 106.334 7.34686C106.592 6.94407 106.721 6.43656 106.721 5.82432C106.721 4.93819 106.447 4.27762 105.899 3.84262C105.351 3.40761 104.513 3.1901 103.386 3.1901H99.0356L99.9539 2.24758V9.42523L99.0356 8.55522Z" fill="#FFBA72"/>
<path d="M79.969 0.290039H86.3733C88.2744 0.290039 89.9259 0.660603 91.3276 1.40173C92.7293 2.12675 93.8007 3.12566 94.5418 4.39846C95.2829 5.67127 95.6535 7.11324 95.6535 8.72439C95.6535 10.2711 95.2829 11.6889 94.5418 12.9778C93.8007 14.2506 92.7293 15.2656 91.3276 16.0229C89.9259 16.764 88.2744 17.1346 86.3733 17.1346H79.969V0.290039ZM82.7724 14.0895H86.1316C87.3078 14.0895 88.3228 13.8639 89.1767 13.4128C90.0467 12.9617 90.7073 12.3334 91.1584 11.5278C91.6256 10.7061 91.8592 9.77163 91.8592 8.72439C91.8592 7.67714 91.6256 6.75073 91.1584 5.94516C90.7073 5.12348 90.0467 4.48707 89.1767 4.03595C88.3228 3.56872 87.3078 3.3351 86.1316 3.3351H82.7724L83.6907 2.44092V15.0079L82.7724 14.0895Z" fill="#FFBA72"/>
<path d="M69.8028 10.7786L63.4951 0.290039H67.6035C68.4252 1.62729 69.0455 2.76315 69.4644 3.69761C69.8994 4.61596 70.1975 5.5021 70.3586 6.356C70.5358 7.1938 70.6244 8.1766 70.6244 9.3044H72.7511C72.7511 8.1766 72.8317 7.18574 72.9928 6.33183C73.17 5.47793 73.4681 4.5918 73.887 3.67344C74.3059 2.75509 74.9262 1.62729 75.7479 0.290039H79.8805L73.5487 10.7786V17.1346H69.8028V10.7786Z" fill="#FFBA72"/>
<path d="M50.2993 0.290039H63.6154V3.3351H53.1027L54.0211 2.46508V8.04771L53.1027 7.20185H62.8662V10.0777H53.1027L54.0211 9.28023V15.0079L53.1027 14.0895H63.9054V17.1346H50.2993V0.290039Z" fill="#FFBA72"/>
<path d="M33.7058 0.290039H37.0651L46.5144 11.9386L48.2786 10.7303C47.6825 10.0697 47.1911 9.46551 46.8044 8.91772C46.4178 8.36993 46.1036 7.78187 45.8619 7.15352C45.6202 6.50906 45.4994 5.84044 45.4994 5.14764V0.290039H49.2453V17.1346H46.1519L36.6059 5.41348L34.7933 6.59767C35.47 7.24213 36.0017 7.87853 36.3884 8.50688C37.0812 9.61857 37.4276 10.835 37.4276 12.1561V17.1346H33.7058V0.290039Z" fill="#FFBA72"/>
<path d="M24.2024 17.449C22.5107 17.449 20.9962 17.0784 19.6589 16.3373C18.3217 15.58 17.2744 14.5408 16.5172 13.2197C15.76 11.8824 15.3813 10.3841 15.3813 8.7246C15.3813 7.06512 15.76 5.57481 16.5172 4.25367C17.2744 2.93253 18.3217 1.9014 19.6589 1.16027C20.9962 0.403033 22.5107 0.0244141 24.2024 0.0244141C25.878 0.0244141 27.3844 0.403033 28.7216 1.16027C30.075 1.9014 31.1303 2.93253 31.8875 4.25367C32.6448 5.57481 33.0234 7.06512 33.0234 8.7246C33.0234 10.3841 32.6448 11.8824 31.8875 13.2197C31.1303 14.5408 30.075 15.58 28.7216 16.3373C27.3844 17.0784 25.878 17.449 24.2024 17.449ZM24.2024 14.3797C25.2174 14.3797 26.1035 14.1381 26.8608 13.6547C27.618 13.1714 28.198 12.5027 28.6008 11.6488C29.0036 10.7949 29.205 9.82018 29.205 8.7246C29.205 7.62902 29.0036 6.65428 28.6008 5.80037C28.198 4.94646 27.618 4.27784 26.8608 3.79449C26.1035 3.31115 25.2174 3.06948 24.2024 3.06948C23.1873 3.06948 22.3012 3.31115 21.544 3.79449C20.7867 4.27784 20.1987 4.94646 19.7798 5.80037C19.377 6.65428 19.1756 7.62902 19.1756 8.7246C19.1756 9.82018 19.377 10.7949 19.7798 11.6488C20.1987 12.5027 20.7867 13.1714 21.544 13.6547C22.3012 14.1381 23.1873 14.3797 24.2024 14.3797Z" fill="#FFBA72"/>
<path d="M10.9477 0.290039H14.6936V17.1346H10.9477V0.290039ZM0 0.290039H3.72175V17.1346H0V0.290039ZM3.40757 7.08102H11.2861V10.1261H3.40757V7.08102Z" fill="#FFBA72"/>
<path d="M382.181 17.1224L380.369 12.5064L381.505 13.3039H372.539L373.674 12.5064L371.838 17.1224H367.874L375.052 0.277832H378.967L386.169 17.1224H382.181ZM376.043 3.08123C376.059 3.70957 376.051 4.29764 376.019 4.84543C375.986 5.37711 375.914 5.90879 375.801 6.44046C375.704 6.95603 375.567 7.48771 375.39 8.0355C375.181 8.63162 374.73 9.63859 374.037 11.0564L373.505 10.5005H380.514L379.982 11.0564C379.644 10.3636 379.33 9.6547 379.04 8.92968C378.621 7.91466 378.347 6.97214 378.218 6.10212C378.089 5.21599 378.041 4.20903 378.073 3.08123H376.043Z" fill="#FFBA72"/>
<path d="M354.348 0.277832H362.178C364.321 0.277832 365.924 0.656451 366.988 1.41369C368.051 2.15482 368.583 3.27456 368.583 4.77293C368.583 5.69128 368.341 6.45658 367.858 7.06881C367.374 7.68105 366.722 8.14828 365.9 8.47051C365.078 8.79274 364.152 8.98607 363.121 9.05052V10.9839C363.862 11.0161 364.498 11.1772 365.03 11.4672C365.578 11.7411 366.085 12.1923 366.553 12.8206L366.625 12.9173L369.718 17.1224H365.344L362.686 13.3281C362.621 13.2314 362.557 13.1348 362.492 13.0381C362.025 12.3775 361.647 11.9103 361.357 11.6364C361.083 11.3625 360.777 11.1772 360.438 11.0806C360.1 10.9678 359.609 10.9114 358.964 10.9114H357.152L358.07 10.0172V17.1224H354.348V0.277832ZM357.152 8.54301H361.502C362.243 8.54301 362.855 8.44634 363.338 8.253C363.838 8.04355 364.208 7.73744 364.45 7.33465C364.708 6.93186 364.837 6.42435 364.837 5.81212C364.837 4.92599 364.563 4.26542 364.015 3.83041C363.467 3.3954 362.629 3.17789 361.502 3.17789H357.152L358.07 2.23537V9.41303L357.152 8.54301Z" fill="#FFBA72"/>
<path d="M345.952 17.4607C344.437 17.4607 343.116 17.1949 341.988 16.6632C340.861 16.1154 339.991 15.3018 339.378 14.2223C338.782 13.1428 338.484 11.8217 338.484 10.2589V0.277832H342.206V10.1622C342.206 11.0645 342.351 11.8297 342.641 12.4581C342.947 13.0703 343.374 13.5376 343.922 13.8598C344.486 14.1659 345.162 14.319 345.952 14.319C347.128 14.319 348.038 13.9645 348.683 13.2556C349.343 12.5306 349.674 11.4995 349.674 10.1622V0.277832H353.395V10.2589C353.395 12.6112 352.727 14.3995 351.389 15.624C350.068 16.8485 348.256 17.4607 345.952 17.4607Z" fill="#FFBA72"/>
<path d="M329.176 2.40454L330.022 3.3229H323.594V0.277832H338.505V3.3229H332.076L332.922 2.40454V17.1224H329.176V2.40454Z" fill="#FFBA72"/>
<path d="M323.219 17.1224L321.407 12.5064L322.543 13.3039H313.577L314.712 12.5064L312.876 17.1224H308.912L316.09 0.277832H320.005L327.207 17.1224H323.219ZM317.081 3.08123C317.097 3.70957 317.089 4.29764 317.057 4.84543C317.024 5.37711 316.952 5.90879 316.839 6.44046C316.743 6.95603 316.606 7.48771 316.428 8.0355C316.219 8.63162 315.768 9.63859 315.075 11.0564L314.543 10.5005H321.552L321.02 11.0564C320.682 10.3636 320.368 9.6547 320.078 8.92968C319.659 7.91466 319.385 6.97214 319.256 6.10212C319.127 5.21599 319.079 4.20903 319.111 3.08123H317.081Z" fill="#FFBA72"/>
<path d="M293.286 0.277832H296.645L306.094 11.9264L307.858 10.7181C307.262 10.0575 306.771 9.45331 306.384 8.90552C305.998 8.35773 305.683 7.76966 305.442 7.14131C305.2 6.49685 305.079 5.82823 305.079 5.13544V0.277832H308.825V17.1224H305.732L296.186 5.40127L294.373 6.58547C295.05 7.22993 295.582 7.86633 295.968 8.49467C296.661 9.60636 297.007 10.8228 297.007 12.1439V17.1224H293.286V0.277832Z" fill="#FFBA72"/>
<path d="M289.206 17.1224L287.394 12.5064L288.53 13.3039H279.564L280.7 12.5064L278.863 17.1224H274.899L282.077 0.277832H285.992L293.194 17.1224H289.206ZM283.068 3.08123C283.084 3.70957 283.076 4.29764 283.044 4.84543C283.012 5.37711 282.939 5.90879 282.826 6.44046C282.73 6.95603 282.593 7.48771 282.415 8.0355C282.206 8.63162 281.755 9.63859 281.062 11.0564L280.53 10.5005H287.539L287.007 11.0564C286.669 10.3636 286.355 9.6547 286.065 8.92968C285.646 7.91466 285.372 6.97214 285.243 6.10212C285.114 5.21599 285.066 4.20903 285.098 3.08123H283.068Z" fill="#FFBA72"/>
<path d="M261.374 0.277832H269.204C271.347 0.277832 272.95 0.656451 274.013 1.41369C275.076 2.15482 275.608 3.27456 275.608 4.77293C275.608 5.69128 275.366 6.45658 274.883 7.06881C274.4 7.68105 273.747 8.14828 272.925 8.47051C272.104 8.79274 271.177 8.98607 270.146 9.05052V10.9839C270.887 11.0161 271.524 11.1772 272.055 11.4672C272.603 11.7411 273.111 12.1923 273.578 12.8206L273.65 12.9173L276.744 17.1224H272.37L269.711 13.3281C269.647 13.2314 269.582 13.1348 269.518 13.0381C269.051 12.3775 268.672 11.9103 268.382 11.6364C268.108 11.3625 267.802 11.1772 267.464 11.0806C267.125 10.9678 266.634 10.9114 265.989 10.9114H264.177L265.095 10.0172V17.1224H261.374V0.277832ZM264.177 8.54301H268.527C269.268 8.54301 269.88 8.44634 270.364 8.253C270.863 8.04355 271.234 7.73744 271.475 7.33465C271.733 6.93186 271.862 6.42435 271.862 5.81212C271.862 4.92599 271.588 4.26542 271.04 3.83041C270.493 3.3954 269.655 3.17789 268.527 3.17789H264.177L265.095 2.23537V9.41303L264.177 8.54301Z" fill="#FFBA72"/>
<path d="M251.945 2.40454L252.791 3.3229H246.362V0.277832H261.273V3.3229H254.845L255.691 2.40454V17.1224H251.945V2.40454Z" fill="#FFBA72"/>
<path d="M230.736 0.277832H234.095L243.544 11.9264L245.309 10.7181C244.713 10.0575 244.221 9.45331 243.834 8.90552C243.448 8.35773 243.134 7.76966 242.892 7.14131C242.65 6.49685 242.529 5.82823 242.529 5.13544V0.277832H246.275V17.1224H243.182L233.636 5.40127L231.823 6.58547C232.5 7.22993 233.032 7.86633 233.418 8.49467C234.111 9.60636 234.458 10.8228 234.458 12.1439V17.1224H230.736V0.277832Z" fill="#FFBA72"/>
<path d="M221.233 17.4367C219.541 17.4367 218.026 17.0662 216.689 16.3251C215.352 15.5678 214.305 14.5286 213.547 13.2075C212.79 11.8702 212.412 10.3719 212.412 8.71239C212.412 7.05291 212.79 5.5626 213.547 4.24146C214.305 2.92032 215.352 1.88919 216.689 1.14806C218.026 0.390826 219.541 0.012207 221.233 0.012207C222.908 0.012207 224.415 0.390826 225.752 1.14806C227.105 1.88919 228.161 2.92032 228.918 4.24146C229.675 5.5626 230.054 7.05291 230.054 8.71239C230.054 10.3719 229.675 11.8702 228.918 13.2075C228.161 14.5286 227.105 15.5678 225.752 16.3251C224.415 17.0662 222.908 17.4367 221.233 17.4367ZM221.233 14.3675C222.248 14.3675 223.134 14.1258 223.891 13.6425C224.648 13.1592 225.228 12.4905 225.631 11.6366C226.034 10.7827 226.235 9.80797 226.235 8.71239C226.235 7.61681 226.034 6.64207 225.631 5.78816C225.228 4.93426 224.648 4.26563 223.891 3.78229C223.134 3.29894 222.248 3.05727 221.233 3.05727C220.218 3.05727 219.331 3.29894 218.574 3.78229C217.817 4.26563 217.229 4.93426 216.81 5.78816C216.407 6.64207 216.206 7.61681 216.206 8.71239C216.206 9.80797 216.407 10.7827 216.81 11.6366C217.229 12.4905 217.817 13.1592 218.574 13.6425C219.331 14.1258 220.218 14.3675 221.233 14.3675Z" fill="#FFBA72"/>
<path d="M198.918 0.277832H202.64V3.29873C202.64 3.8143 202.575 4.28958 202.446 4.72459C202.317 5.1596 202.076 5.651 201.721 6.19879C201.383 6.73047 200.884 7.41521 200.223 8.253L201.818 9.38886L209.89 0.277832H214.409L207.038 8.13217L207.135 6.80297L214.627 17.1224H210.156L204.694 9.43719L205.733 9.53386L201.915 13.6181L202.64 11.9506V17.1224H198.918V0.277832Z" fill="#FFBA72"/>
<path d="M636.709 0.314453H640.43V17.159H636.709V0.314453Z" fill="#FFBA72"/>
<path d="M623.844 0.314453H627.566V15.0323L626.648 14.1139H636.629V17.159H623.844V0.314453Z" fill="#FFBA72"/>
<path d="M610.98 0.314453H614.702V15.0323L613.783 14.1139H623.764V17.159H610.98V0.314453Z" fill="#FFBA72"/>
<path d="M606.187 0.314453H609.909V17.159H606.187V0.314453Z" fill="#FFBA72"/>
<path d="M590.75 0.314453H598.58C600.723 0.314453 602.326 0.693072 603.389 1.45031C604.453 2.19144 604.984 3.31118 604.984 4.80955C604.984 5.7279 604.743 6.4932 604.259 7.10543C603.776 7.71767 603.124 8.1849 602.302 8.50713C601.48 8.82936 600.554 9.02269 599.523 9.08714V11.0205C600.264 11.0527 600.9 11.2139 601.432 11.5039C601.98 11.7778 602.487 12.2289 602.954 12.8572L603.027 12.9539L606.12 17.159H601.746L599.088 13.3647C599.023 13.2681 598.959 13.1714 598.894 13.0747C598.427 12.4142 598.048 11.9469 597.758 11.673C597.485 11.3991 597.178 11.2139 596.84 11.1172C596.502 11.0044 596.01 10.948 595.366 10.948H593.553L594.472 10.0538V17.159H590.75V0.314453ZM593.553 8.57963H597.903C598.645 8.57963 599.257 8.48296 599.74 8.28962C600.24 8.08017 600.61 7.77406 600.852 7.37127C601.11 6.96848 601.239 6.46097 601.239 5.84874C601.239 4.96261 600.965 4.30204 600.417 3.86703C599.869 3.43202 599.031 3.21452 597.903 3.21452H593.553L594.472 2.27199V9.44965L593.553 8.57963Z" fill="#FFBA72"/>
<path d="M586.671 17.159L584.859 12.543L585.995 13.3406H577.029L578.165 12.543L576.328 17.159H572.365L579.542 0.314453H583.457L590.659 17.159H586.671ZM580.533 3.11785C580.549 3.74619 580.541 4.33426 580.509 4.88205C580.477 5.41373 580.404 5.94541 580.291 6.47708C580.195 6.99265 580.058 7.52433 579.881 8.07212C579.671 8.66824 579.22 9.67521 578.527 11.093L577.995 10.5372H585.004L584.472 11.093C584.134 10.4002 583.82 9.69132 583.53 8.9663C583.111 7.95128 582.837 7.00876 582.708 6.13874C582.579 5.25261 582.531 4.24565 582.563 3.11785H580.533Z" fill="#FFBA72"/>
<path d="M558.791 0.314453H567.177C568.401 0.314453 569.432 0.443345 570.27 0.701127C571.124 0.9428 571.777 1.35364 572.228 1.93365C572.695 2.49756 572.929 3.22257 572.929 4.1087C572.929 4.84983 572.767 5.47012 572.445 5.96957C572.123 6.45292 571.656 6.81543 571.044 7.0571C570.447 7.29877 569.722 7.44377 568.868 7.49211V9.44965C569.851 9.46576 570.681 9.59465 571.358 9.83632C572.051 10.078 572.582 10.4486 572.953 10.948C573.323 11.4475 573.509 12.1 573.509 12.9056C573.509 13.84 573.251 14.6214 572.735 15.2498C572.236 15.8781 571.535 16.3534 570.633 16.6756C569.73 16.9979 568.683 17.159 567.491 17.159H558.791V0.314453ZM566.79 14.2589C567.402 14.2589 567.926 14.1864 568.361 14.0414C568.812 13.8803 569.15 13.6386 569.376 13.3164C569.618 12.9942 569.739 12.5833 569.739 12.0839C569.739 11.6166 569.618 11.23 569.376 10.9238C569.15 10.6177 568.82 10.3922 568.385 10.2472C567.95 10.1022 567.418 10.0297 566.79 10.0297H562.537V14.2589H566.79ZM566.234 7.2746C567.217 7.2746 567.95 7.11349 568.433 6.79126C568.933 6.45292 569.183 5.92124 569.183 5.19622C569.183 4.50343 568.933 4.00398 568.433 3.69786C567.95 3.37563 567.217 3.21452 566.234 3.21452H562.537V7.2746H566.234Z" fill="#FFBA72"/>
<path d="M540.167 0.314453H553.483V3.35952H542.97L543.888 2.4895V8.07212L542.97 7.22627H552.733V10.1022H542.97L543.888 9.30464V15.0323L542.97 14.1139H553.773V17.159H540.167V0.314453Z" fill="#FFBA72"/>
<path d="M523.573 0.314453H526.933L536.382 11.963L538.146 10.7547C537.55 10.0941 537.059 9.48993 536.672 8.94214C536.285 8.39435 535.971 7.80628 535.73 7.17793C535.488 6.53348 535.367 5.86485 535.367 5.17206V0.314453H539.113V17.159H536.02L526.474 5.4379L524.661 6.62209C525.338 7.26655 525.869 7.90295 526.256 8.5313C526.949 9.64299 527.295 10.8594 527.295 12.1805V17.159H523.573V0.314453Z" fill="#FFBA72"/>
<path d="M518.78 0.314453H522.502V17.159H518.78V0.314453Z" fill="#FFBA72"/>
<path d="M509.352 2.44117L510.198 3.35952H503.77V0.314453H518.681V3.35952H512.252L513.098 2.44117V17.159H509.352V2.44117Z" fill="#FFBA72"/>
<path d="M497.325 17.4729C495.923 17.4729 494.691 17.2957 493.628 16.9412C492.58 16.5867 491.767 16.0792 491.187 15.4187C490.607 14.742 490.317 13.9686 490.317 13.0986C490.317 12.3092 490.55 11.6486 491.017 11.1169C491.485 10.5852 492.113 10.1824 492.902 9.90855C493.708 9.61854 494.602 9.46548 495.585 9.44937V7.49183C494.473 7.44349 493.499 7.30655 492.661 7.08099C491.823 6.83931 491.154 6.46875 490.655 5.9693C490.155 5.46984 489.906 4.81733 489.906 4.01175C489.906 3.19007 490.172 2.48116 490.703 1.88504C491.235 1.27281 492 0.805573 492.999 0.483343C493.998 0.161114 495.158 0 496.479 0C498.074 0 499.524 0.217505 500.829 0.652514C502.134 1.08752 503.391 1.71587 504.599 2.53755L502.932 5.26845C502.126 4.60788 501.144 4.0762 499.983 3.67341C498.84 3.27063 497.712 3.06118 496.6 3.04507C495.682 3.04507 494.981 3.20618 494.498 3.52841C494.014 3.83453 493.773 4.23731 493.773 4.73677C493.773 5.09122 493.893 5.39734 494.135 5.65512C494.377 5.89679 494.715 6.10624 495.15 6.28347C495.601 6.44458 496.173 6.58959 496.866 6.71848L498.872 7.17765C500.58 7.53211 501.917 8.12017 502.884 8.94186C503.866 9.76354 504.358 10.8672 504.358 12.2528C504.358 13.1711 504.076 14.0331 503.512 14.8387C502.948 15.6281 502.134 16.2645 501.071 16.7479C500.008 17.2312 498.759 17.4729 497.325 17.4729ZM497.422 14.7903C498.066 14.7903 498.622 14.6775 499.089 14.452C499.573 14.2264 499.935 13.9284 500.177 13.5578C500.435 13.1872 500.563 12.7764 500.563 12.3253C500.563 11.8258 500.427 11.3908 500.153 11.0202C499.895 10.6336 499.516 10.3355 499.017 10.1261C498.533 9.90049 497.978 9.78771 497.349 9.78771C496.753 9.78771 496.213 9.89243 495.73 10.1019C495.247 10.3113 494.868 10.6094 494.594 10.9961C494.32 11.3666 494.183 11.8016 494.183 12.3011C494.183 12.7683 494.32 13.1953 494.594 13.582C494.868 13.9525 495.247 14.2506 495.73 14.4761C496.23 14.6856 496.793 14.7903 497.422 14.7903Z" fill="#FFBA72"/>
<path d="M485.403 0.314453H489.125V17.159H485.403V0.314453Z" fill="#FFBA72"/>
<path d="M469.967 0.314453H477.797C479.94 0.314453 481.543 0.693072 482.606 1.45031C483.669 2.19144 484.201 3.31118 484.201 4.80955C484.201 5.7279 483.959 6.4932 483.476 7.10543C482.993 7.71767 482.34 8.1849 481.518 8.50713C480.697 8.82936 479.77 9.02269 478.739 9.08714V11.0205C479.48 11.0527 480.117 11.2139 480.648 11.5039C481.196 11.7778 481.704 12.2289 482.171 12.8572L482.243 12.9539L485.337 17.159H480.963L478.304 13.3647C478.24 13.2681 478.175 13.1714 478.111 13.0747C477.644 12.4142 477.265 11.9469 476.975 11.673C476.701 11.3991 476.395 11.2139 476.057 11.1172C475.718 11.0044 475.227 10.948 474.582 10.948H472.77L473.688 10.0538V17.159H469.967V0.314453ZM472.77 8.57963H477.12C477.861 8.57963 478.473 8.48296 478.957 8.28962C479.456 8.08017 479.827 7.77406 480.068 7.37127C480.326 6.96848 480.455 6.46097 480.455 5.84874C480.455 4.96261 480.181 4.30204 479.633 3.86703C479.086 3.43202 478.248 3.21452 477.12 3.21452H472.77L473.688 2.27199V9.44965L472.77 8.57963Z" fill="#FFBA72"/>
<path d="M454.246 0.314453H457.968V3.33535C457.968 3.85092 457.903 4.32621 457.775 4.76121C457.646 5.19622 457.404 5.68762 457.049 6.23541C456.711 6.76709 456.212 7.45183 455.551 8.28962L457.146 9.42548L465.218 0.314453H469.737L462.366 8.16879L462.463 6.83959L469.955 17.159H465.484L460.022 9.47382L461.061 9.57049L457.243 13.6547L457.968 11.9872V17.159H454.246V0.314453Z" fill="#FFBA72"/>
</svg>
