<svg width="641" height="18" viewBox="0 0 641 18" fill="none" xmlns="http://www.w3.org/2000/svg">
<path d="M117.986 2.48951L118.832 3.40786H112.403V0.362793H127.314V3.40786H120.886L121.732 2.48951V17.2073H117.986V2.48951Z" fill="#FFBA72"/>
<path d="M96.7766 0.362793H100.136L109.585 12.0114L111.349 10.803C110.753 10.1424 110.262 9.53827 109.875 8.99048C109.489 8.44269 109.174 7.85462 108.933 7.22627C108.691 6.58182 108.57 5.91319 108.57 5.2204V0.362793H112.316V17.2073H109.223L99.6767 5.48624L97.8641 6.67043C98.5408 7.31489 99.0725 7.95129 99.4592 8.57963C100.152 9.69133 100.498 10.9077 100.498 12.2289V17.2073H96.7766V0.362793Z" fill="#FFBA72"/>
<path d="M82.6145 0.362793H95.9306V3.40786H85.4179L86.3362 2.53784V8.12046L85.4179 7.27461H95.1814V10.1505H85.4179L86.3362 9.35298V15.0806L85.4179 14.1623H96.2206V17.2073H82.6145V0.362793Z" fill="#FFBA72"/>
<path d="M67.1772 0.362793H75.0074C77.1502 0.362793 78.7533 0.741412 79.8167 1.49865C80.88 2.23978 81.4117 3.35952 81.4117 4.85789C81.4117 5.77624 81.17 6.54154 80.6867 7.15377C80.2034 7.76601 79.5508 8.23324 78.7292 8.55547C77.9075 8.8777 76.9811 9.07103 75.9499 9.13548V11.0689C76.6911 11.1011 77.3275 11.2622 77.8591 11.5522C78.4069 11.8261 78.9144 12.2772 79.3817 12.9056L79.4542 13.0022L82.5476 17.2073H78.1733L75.5149 13.4131C75.4505 13.3164 75.386 13.2197 75.3216 13.1231C74.8543 12.4625 74.4757 11.9953 74.1857 11.7214C73.9118 11.4475 73.6057 11.2622 73.2674 11.1655C72.929 11.0527 72.4376 10.9964 71.7932 10.9964H69.9806L70.899 10.1022V17.2073H67.1772V0.362793ZM69.9806 8.62797H74.3307C75.0719 8.62797 75.6841 8.5313 76.1674 8.33796C76.6669 8.12851 77.0375 7.8224 77.2791 7.41961C77.5369 7.01682 77.6658 6.50931 77.6658 5.89708C77.6658 5.01095 77.3919 4.35038 76.8441 3.91537C76.2963 3.48036 75.4585 3.26285 74.3307 3.26285H69.9806L70.899 2.32033V9.49799L69.9806 8.62797Z" fill="#FFBA72"/>
<path d="M57.7494 2.48951L58.5952 3.40786H52.1667V0.362793H67.0779V3.40786H60.6494L61.4953 2.48951V17.2073H57.7494V2.48951Z" fill="#FFBA72"/>
<path d="M32.6201 0.362793H35.9794L45.4287 12.0114L47.1929 10.803C46.5968 10.1424 46.1054 9.53827 45.7187 8.99048C45.3321 8.44269 45.0179 7.85462 44.7762 7.22627C44.5345 6.58182 44.4137 5.91319 44.4137 5.2204V0.362793H48.1596V17.2073H45.0662L35.5202 5.48624L33.7076 6.67043C34.3843 7.31489 34.916 7.95129 35.3027 8.57963C35.9955 9.69133 36.3419 10.9077 36.3419 12.2289V17.2073H32.6201V0.362793Z" fill="#FFBA72"/>
<path d="M23.1169 17.5212C21.4252 17.5212 19.9107 17.1507 18.5735 16.4095C17.2362 15.6523 16.189 14.6131 15.4318 13.292C14.6745 11.9547 14.2959 10.4563 14.2959 8.79687C14.2959 7.13739 14.6745 5.64708 15.4318 4.32594C16.189 3.0048 17.2362 1.97366 18.5735 1.23254C19.9107 0.475299 21.4252 0.0966797 23.1169 0.0966797C24.7925 0.0966797 26.2989 0.475299 27.6362 1.23254C28.9895 1.97366 30.0448 3.0048 30.8021 4.32594C31.5593 5.64708 31.9379 7.13739 31.9379 8.79687C31.9379 10.4563 31.5593 11.9547 30.8021 13.292C30.0448 14.6131 28.9895 15.6523 27.6362 16.4095C26.2989 17.1507 24.7925 17.5212 23.1169 17.5212ZM23.1169 14.452C24.1319 14.452 25.0181 14.2103 25.7753 13.727C26.5325 13.2436 27.1126 12.575 27.5153 11.7211C27.9181 10.8672 28.1195 9.89245 28.1195 8.79687C28.1195 7.70129 27.9181 6.72654 27.5153 5.87264C27.1126 5.01873 26.5325 4.3501 25.7753 3.86676C25.0181 3.38342 24.1319 3.14174 23.1169 3.14174C22.1019 3.14174 21.2158 3.38342 20.4585 3.86676C19.7013 4.3501 19.1132 5.01873 18.6943 5.87264C18.2915 6.72654 18.0901 7.70129 18.0901 8.79687C18.0901 9.89245 18.2915 10.8672 18.6943 11.7211C19.1132 12.575 19.7013 13.2436 20.4585 13.727C21.2158 14.2103 22.1019 14.452 23.1169 14.452Z" fill="#FFBA72"/>
<path d="M0 0.362793H7.83017C9.97299 0.362793 11.5761 0.741412 12.6394 1.49865C13.7028 2.23978 14.2345 3.35952 14.2345 4.85789C14.2345 5.77624 13.9928 6.54154 13.5095 7.15377C13.0261 7.76601 12.3736 8.23324 11.5519 8.55547C10.7302 8.8777 9.80382 9.07103 8.77269 9.13548V11.0689C9.51381 11.1011 10.1502 11.2622 10.6819 11.5522C11.2297 11.8261 11.7372 12.2772 12.2044 12.9056L12.2769 13.0022L15.3703 17.2073H10.9961L8.33768 13.4131C8.27323 13.3164 8.20879 13.2197 8.14434 13.1231C7.67711 12.4625 7.29849 11.9953 7.00848 11.7214C6.73459 11.4475 6.42847 11.2622 6.09013 11.1655C5.75179 11.0527 5.26039 10.9964 4.61593 10.9964H2.80339L3.72175 10.1022V17.2073H0V0.362793ZM2.80339 8.62797H7.15349C7.89461 8.62797 8.50685 8.5313 8.99019 8.33796C9.48965 8.12851 9.86021 7.8224 10.1019 7.41961C10.3597 7.01682 10.4886 6.50931 10.4886 5.89708C10.4886 5.01095 10.2147 4.35038 9.66687 3.91537C9.11908 3.48036 8.28129 3.26285 7.15349 3.26285H2.80339L3.72175 2.32033V9.49799L2.80339 8.62797Z" fill="#FFBA72"/>
<path d="M395.066 0.338379H402.896C405.039 0.338379 406.642 0.716998 407.705 1.47424C408.769 2.21536 409.3 3.33511 409.3 4.83347C409.3 5.75183 409.059 6.51712 408.575 7.12936C408.092 7.74159 407.44 8.20882 406.618 8.53105C405.796 8.85328 404.87 9.04662 403.839 9.11107V11.0444C404.58 11.0767 405.216 11.2378 405.748 11.5278C406.296 11.8017 406.803 12.2528 407.27 12.8811L407.343 12.9778L410.436 17.1829H406.062L403.404 13.3887C403.339 13.292 403.275 13.1953 403.21 13.0987C402.743 12.4381 402.364 11.9709 402.074 11.697C401.801 11.4231 401.494 11.2378 401.156 11.1411C400.818 11.0283 400.326 10.9719 399.682 10.9719H397.869L398.788 10.0778V17.1829H395.066V0.338379ZM397.869 8.60356H402.219C402.961 8.60356 403.573 8.50689 404.056 8.31355C404.556 8.1041 404.926 7.79798 405.168 7.3952C405.426 6.99241 405.554 6.4849 405.554 5.87266C405.554 4.98653 405.281 4.32596 404.733 3.89096C404.185 3.45595 403.347 3.23844 402.219 3.23844H397.869L398.788 2.29592V9.47357L397.869 8.60356Z" fill="#FFBA72"/>
<path d="M380.904 0.338379H394.22V3.38344H383.707L384.626 2.51342V8.09605L383.707 7.25019H393.471V10.1261H383.707L384.626 9.32857V15.0562L383.707 14.1378H394.51V17.1829H380.904V0.338379Z" fill="#FFBA72"/>
<path d="M368.04 0.338379H371.762V15.0562L370.843 14.1378H380.824V17.1829H368.04V0.338379Z" fill="#FFBA72"/>
<path d="M358.611 2.46509L359.457 3.38344H353.029V0.338379H367.94V3.38344H361.511L362.357 2.46509V17.1829H358.611V2.46509Z" fill="#FFBA72"/>
<path d="M345.599 17.5212C344.084 17.5212 342.763 17.2554 341.635 16.7237C340.507 16.1759 339.637 15.3623 339.025 14.2828C338.429 13.2034 338.131 11.8822 338.131 10.3194V0.338379H341.853V10.2228C341.853 11.125 341.998 11.8903 342.288 12.5186C342.594 13.1309 343.021 13.5981 343.568 13.9203C344.132 14.2265 344.809 14.3795 345.599 14.3795C346.775 14.3795 347.685 14.0251 348.329 13.3162C348.99 12.5911 349.32 11.56 349.32 10.2228V0.338379H353.042V10.3194C353.042 12.6717 352.373 14.4601 351.036 15.6845C349.715 16.909 347.902 17.5212 345.599 17.5212Z" fill="#FFBA72"/>
<path d="M322.979 0.338379H331.365C332.589 0.338379 333.621 0.46727 334.458 0.725053C335.312 0.966726 335.965 1.37757 336.416 1.95758C336.883 2.52148 337.117 3.2465 337.117 4.13263C337.117 4.87375 336.956 5.49404 336.633 5.9935C336.311 6.47684 335.844 6.83935 335.232 7.08102C334.636 7.3227 333.911 7.4677 333.057 7.51603V9.47357C334.04 9.48969 334.869 9.61858 335.546 9.86025C336.239 10.1019 336.77 10.4725 337.141 10.9719C337.512 11.4714 337.697 12.1239 337.697 12.9295C337.697 13.8639 337.439 14.6454 336.923 15.2737C336.424 15.902 335.723 16.3773 334.821 16.6996C333.919 17.0218 332.871 17.1829 331.679 17.1829H322.979V0.338379ZM330.978 14.2828C331.591 14.2828 332.114 14.2103 332.549 14.0653C333 13.9042 333.339 13.6626 333.564 13.3403C333.806 13.0181 333.927 12.6073 333.927 12.1078C333.927 11.6406 333.806 11.2539 333.564 10.9478C333.339 10.6417 333.008 10.4161 332.573 10.2711C332.138 10.1261 331.607 10.0536 330.978 10.0536H326.725V14.2828H330.978ZM330.422 7.29853C331.405 7.29853 332.138 7.13741 332.622 6.81518C333.121 6.47684 333.371 5.94517 333.371 5.22015C333.371 4.52736 333.121 4.0279 332.622 3.72178C332.138 3.39956 331.405 3.23844 330.422 3.23844H326.725V7.29853H330.422Z" fill="#FFBA72"/>
<path d="M305.653 0.338379H309.375V15.0562L308.457 14.1378H318.438V17.1829H305.653V0.338379Z" fill="#FFBA72"/>
<path d="M291.491 0.338379H304.807V3.38344H294.294L295.212 2.51342V8.09605L294.294 7.25019H304.058V10.1261H294.294L295.212 9.32857V15.0562L294.294 14.1378H305.097V17.1829H291.491V0.338379Z" fill="#FFBA72"/>
<path d="M274.141 0.338379H277.862V15.0562L276.944 14.1378H286.925V17.1829H274.141V0.338379Z" fill="#FFBA72"/>
<path d="M261.276 0.338379H264.998V15.0562L264.079 14.1378H274.06V17.1829H261.276V0.338379Z" fill="#FFBA72"/>
<path d="M247.114 0.338379H260.43V3.38344H249.917L250.836 2.51342V8.09605L249.917 7.25019H259.681V10.1261H249.917L250.836 9.32857V15.0562L249.917 14.1378H260.72V17.1829H247.114V0.338379Z" fill="#FFBA72"/>
<path d="M239.467 17.4973C238.065 17.4973 236.833 17.3201 235.769 16.9656C234.722 16.6112 233.908 16.1036 233.328 15.4431C232.748 14.7664 232.458 13.993 232.458 13.123C232.458 12.3336 232.692 11.673 233.159 11.1413C233.627 10.6096 234.255 10.2069 235.044 9.93296C235.85 9.64295 236.744 9.4899 237.727 9.47378V7.51624C236.615 7.46791 235.64 7.33096 234.803 7.1054C233.965 6.86373 233.296 6.49316 232.797 5.99371C232.297 5.49425 232.048 4.84174 232.048 4.03617C232.048 3.21448 232.313 2.50558 232.845 1.90945C233.377 1.29722 234.142 0.829987 235.141 0.507757C236.14 0.185528 237.3 0.0244141 238.621 0.0244141C240.216 0.0244141 241.666 0.241919 242.971 0.676929C244.276 1.11194 245.533 1.74028 246.741 2.56197L245.074 5.29286C244.268 4.63229 243.285 4.10061 242.125 3.69783C240.981 3.29504 239.854 3.08559 238.742 3.06948C237.824 3.06948 237.123 3.23059 236.639 3.55282C236.156 3.85894 235.914 4.26173 235.914 4.76118C235.914 5.11564 236.035 5.42175 236.277 5.67954C236.519 5.92121 236.857 6.13066 237.292 6.30788C237.743 6.469 238.315 6.614 239.008 6.74289L241.014 7.20207C242.721 7.55652 244.059 8.14459 245.025 8.96627C246.008 9.78796 246.5 10.8916 246.5 12.2772C246.5 13.1955 246.218 14.0575 245.654 14.8631C245.09 15.6525 244.276 16.2889 243.213 16.7723C242.149 17.2556 240.901 17.4973 239.467 17.4973ZM239.564 14.8147C240.208 14.8147 240.764 14.702 241.231 14.4764C241.714 14.2508 242.077 13.9528 242.319 13.5822C242.576 13.2116 242.705 12.8008 242.705 12.3497C242.705 11.8502 242.568 11.4152 242.294 11.0447C242.037 10.658 241.658 10.3599 241.159 10.1505C240.675 9.92491 240.119 9.81213 239.491 9.81213C238.895 9.81213 238.355 9.91685 237.872 10.1263C237.389 10.3357 237.01 10.6338 236.736 11.0205C236.462 11.391 236.325 11.8261 236.325 12.3255C236.325 12.7927 236.462 13.2197 236.736 13.6064C237.01 13.9769 237.389 14.275 237.872 14.5006C238.371 14.71 238.935 14.8147 239.564 14.8147Z" fill="#FFBA72"/>
<path d="M225.163 17.4973C223.762 17.4973 222.529 17.3201 221.466 16.9656C220.418 16.6112 219.605 16.1036 219.025 15.4431C218.445 14.7664 218.155 13.993 218.155 13.123C218.155 12.3336 218.388 11.673 218.856 11.1413C219.323 10.6096 219.951 10.2069 220.741 9.93296C221.546 9.64295 222.44 9.4899 223.423 9.47378V7.51624C222.311 7.46791 221.337 7.33096 220.499 7.1054C219.661 6.86373 218.993 6.49316 218.493 5.99371C217.994 5.49425 217.744 4.84174 217.744 4.03617C217.744 3.21448 218.01 2.50558 218.541 1.90945C219.073 1.29722 219.838 0.829987 220.837 0.507757C221.836 0.185528 222.996 0.0244141 224.317 0.0244141C225.912 0.0244141 227.362 0.241919 228.667 0.676929C229.972 1.11194 231.229 1.74028 232.438 2.56197L230.77 5.29286C229.964 4.63229 228.982 4.10061 227.822 3.69783C226.678 3.29504 225.55 3.08559 224.438 3.06948C223.52 3.06948 222.819 3.23059 222.336 3.55282C221.852 3.85894 221.611 4.26173 221.611 4.76118C221.611 5.11564 221.731 5.42175 221.973 5.67954C222.215 5.92121 222.553 6.13066 222.988 6.30788C223.439 6.469 224.011 6.614 224.704 6.74289L226.71 7.20207C228.418 7.55652 229.755 8.14459 230.722 8.96627C231.704 9.78796 232.196 10.8916 232.196 12.2772C232.196 13.1955 231.914 14.0575 231.35 14.8631C230.786 15.6525 229.972 16.2889 228.909 16.7723C227.846 17.2556 226.597 17.4973 225.163 17.4973ZM225.26 14.8147C225.904 14.8147 226.46 14.702 226.927 14.4764C227.411 14.2508 227.773 13.9528 228.015 13.5822C228.273 13.2116 228.402 12.8008 228.402 12.3497C228.402 11.8502 228.265 11.4152 227.991 11.0447C227.733 10.658 227.354 10.3599 226.855 10.1505C226.372 9.92491 225.816 9.81213 225.187 9.81213C224.591 9.81213 224.052 9.91685 223.568 10.1263C223.085 10.3357 222.706 10.6338 222.432 11.0205C222.158 11.391 222.021 11.8261 222.021 12.3255C222.021 12.7927 222.158 13.2197 222.432 13.6064C222.706 13.9769 223.085 14.275 223.568 14.5006C224.068 14.71 224.632 14.8147 225.26 14.8147Z" fill="#FFBA72"/>
<path d="M209.637 17.5212C208.123 17.5212 206.802 17.2554 205.674 16.7237C204.546 16.1759 203.676 15.3623 203.064 14.2828C202.468 13.2034 202.17 11.8822 202.17 10.3194V0.338379H205.891V10.2228C205.891 11.125 206.036 11.8903 206.326 12.5186C206.633 13.1309 207.06 13.5981 207.607 13.9203C208.171 14.2265 208.848 14.3795 209.637 14.3795C210.813 14.3795 211.724 14.0251 212.368 13.3162C213.029 12.5911 213.359 11.56 213.359 10.2228V0.338379H217.081V10.3194C217.081 12.6717 216.412 14.4601 215.075 15.6845C213.754 16.909 211.941 17.5212 209.637 17.5212Z" fill="#FFBA72"/>
<path d="M187.49 0.338379H195.321C197.463 0.338379 199.067 0.716998 200.13 1.47424C201.193 2.21536 201.725 3.33511 201.725 4.83347C201.725 5.75183 201.483 6.51712 201 7.12936C200.517 7.74159 199.864 8.20882 199.042 8.53105C198.221 8.85328 197.294 9.04662 196.263 9.11107V11.0444C197.004 11.0767 197.641 11.2378 198.172 11.5278C198.72 11.8017 199.228 12.2528 199.695 12.8811L199.767 12.9778L202.861 17.1829H198.487L195.828 13.3887C195.764 13.292 195.699 13.1953 195.635 13.0987C195.168 12.4381 194.789 11.9709 194.499 11.697C194.225 11.4231 193.919 11.2378 193.581 11.1411C193.242 11.0283 192.751 10.9719 192.106 10.9719H190.294L191.212 10.0778V17.1829H187.49V0.338379ZM190.294 8.60356H194.644C195.385 8.60356 195.997 8.50689 196.481 8.31355C196.98 8.1041 197.351 7.79798 197.592 7.3952C197.85 6.99241 197.979 6.4849 197.979 5.87266C197.979 4.98653 197.705 4.32596 197.157 3.89096C196.61 3.45595 195.772 3.23844 194.644 3.23844H190.294L191.212 2.29592V9.47357L190.294 8.60356Z" fill="#FFBA72"/>
<path d="M630.473 7.97472V9.30392L624.311 0.337891H628.661C629.676 1.83626 630.353 3.01239 630.691 3.8663C631.045 4.7041 631.223 5.63856 631.223 6.66969H633.301C633.301 5.88023 633.398 5.21161 633.591 4.66382C633.752 4.11603 634.01 3.51185 634.364 2.85128C634.719 2.19071 635.242 1.35291 635.935 0.337891H640.189L634.026 9.23141V7.92639L640.43 17.1824H636.08C635.307 16.1835 634.719 15.3457 634.316 14.669C633.929 13.9923 633.655 13.3721 633.494 12.8082C633.333 12.2281 633.253 11.5837 633.253 10.8748H631.174C631.174 11.5676 631.094 12.1959 630.933 12.7598C630.771 13.3237 630.49 13.944 630.087 14.6207C629.7 15.2974 629.12 16.1513 628.347 17.1824H624.093L630.473 7.97472Z" fill="#FFBA72"/>
<path d="M610.898 0.337891H624.214V3.38296H613.701L614.619 2.51294V8.09556L613.701 7.2497H623.465V10.1256H613.701L614.619 9.32808V15.0557L613.701 14.1374H624.504V17.1824H610.898V0.337891Z" fill="#FFBA72"/>
<path d="M598.033 0.337891H601.755V15.0557L600.837 14.1374H610.818V17.1824H598.033V0.337891Z" fill="#FFBA72"/>
<path d="M588.53 17.4963C586.838 17.4963 585.323 17.1258 583.986 16.3846C582.649 15.6274 581.602 14.5882 580.844 13.2671C580.087 11.9298 579.708 10.4314 579.708 8.77196C579.708 7.11248 580.087 5.62217 580.844 4.30103C581.602 2.9799 582.649 1.94876 583.986 1.20763C585.323 0.450396 586.838 0.0717773 588.53 0.0717773C590.205 0.0717773 591.712 0.450396 593.049 1.20763C594.402 1.94876 595.457 2.9799 596.215 4.30103C596.972 5.62217 597.351 7.11248 597.351 8.77196C597.351 10.4314 596.972 11.9298 596.215 13.2671C595.457 14.5882 594.402 15.6274 593.049 16.3846C591.712 17.1258 590.205 17.4963 588.53 17.4963ZM588.53 14.4271C589.545 14.4271 590.431 14.1854 591.188 13.7021C591.945 13.2187 592.525 12.5501 592.928 11.6962C593.331 10.8423 593.532 9.86754 593.532 8.77196C593.532 7.67638 593.331 6.70164 592.928 5.84773C592.525 4.99383 591.945 4.3252 591.188 3.84186C590.431 3.35851 589.545 3.11684 588.53 3.11684C587.514 3.11684 586.628 3.35851 585.871 3.84186C585.114 4.3252 584.526 4.99383 584.107 5.84773C583.704 6.70164 583.503 7.67638 583.503 8.77196C583.503 9.86754 583.704 10.8423 584.107 11.6962C584.526 12.5501 585.114 13.2187 585.871 13.7021C586.628 14.1854 587.514 14.4271 588.53 14.4271Z" fill="#FFBA72"/>
<path d="M565.413 0.337891H573.243C575.386 0.337891 576.989 0.71651 578.053 1.47375C579.116 2.21488 579.648 3.33462 579.648 4.83299C579.648 5.75134 579.406 6.51663 578.923 7.12887C578.439 7.7411 577.787 8.20834 576.965 8.53057C576.144 8.85279 575.217 9.04613 574.186 9.11058V11.044C574.927 11.0762 575.564 11.2373 576.095 11.5273C576.643 11.8012 577.151 12.2523 577.618 12.8807L577.69 12.9773L580.784 17.1824H576.409L573.751 13.3882C573.687 13.2915 573.622 13.1948 573.558 13.0982C573.09 12.4376 572.712 11.9704 572.422 11.6965C572.148 11.4226 571.842 11.2373 571.503 11.1406C571.165 11.0278 570.674 10.9715 570.029 10.9715H568.217L569.135 10.0773V17.1824H565.413V0.337891ZM568.217 8.60307H572.567C573.308 8.60307 573.92 8.5064 574.404 8.31306C574.903 8.10361 575.274 7.79749 575.515 7.39471C575.773 6.99192 575.902 6.48441 575.902 5.87218C575.902 4.98605 575.628 4.32548 575.08 3.89047C574.532 3.45546 573.695 3.23795 572.567 3.23795H568.217L569.135 2.29543V9.47309L568.217 8.60307Z" fill="#FFBA72"/>
<path d="M556.131 0.337891H559.877V17.1824H556.131V0.337891ZM545.184 0.337891H548.905V17.1824H545.184V0.337891ZM548.591 7.12887H556.47V10.1739H548.591V7.12887Z" fill="#FFBA72"/>
<path d="M538.225 17.5212C536.566 17.5212 535.075 17.1587 533.754 16.4337C532.449 15.6926 531.426 14.6614 530.685 13.3403C529.944 12.003 529.573 10.4724 529.573 8.74852C529.573 7.0246 529.944 5.50206 530.685 4.18092C531.442 2.85978 532.489 1.83671 533.827 1.11169C535.18 0.370564 536.711 0 538.418 0C539.756 0 540.94 0.217505 541.971 0.652514C543.002 1.08752 543.953 1.70781 544.823 2.51339L542.938 5.00261C542.342 4.42259 541.697 3.97953 541.004 3.67341C540.312 3.35118 539.53 3.19007 538.66 3.19007C537.629 3.19007 536.703 3.43174 535.881 3.91508C535.075 4.38232 534.447 5.04289 533.996 5.89679C533.545 6.7507 533.319 7.72544 533.319 8.82102C533.319 9.9166 533.545 10.8752 533.996 11.6969C534.463 12.5186 535.099 13.155 535.905 13.6061C536.727 14.0411 537.653 14.2586 538.684 14.2586C539.57 14.2586 540.36 14.0814 541.053 13.727C541.762 13.3725 542.414 12.8731 543.01 12.2286L544.944 14.7903C544.041 15.6764 543.059 16.3531 541.995 16.8204C540.948 17.2876 539.691 17.5212 538.225 17.5212Z" fill="#FFBA72"/>
<path d="M521.309 2.4646L522.155 3.38296H515.727V0.337891H530.638V3.38296H524.209L525.055 2.4646V17.1824H521.309V2.4646Z" fill="#FFBA72"/>
<path d="M507.993 17.4963C506.301 17.4963 504.786 17.1258 503.449 16.3846C502.112 15.6274 501.065 14.5882 500.307 13.2671C499.55 11.9298 499.172 10.4314 499.172 8.77196C499.172 7.11248 499.55 5.62217 500.307 4.30103C501.065 2.9799 502.112 1.94876 503.449 1.20763C504.786 0.450396 506.301 0.0717773 507.993 0.0717773C509.668 0.0717773 511.175 0.450396 512.512 1.20763C513.865 1.94876 514.921 2.9799 515.678 4.30103C516.435 5.62217 516.814 7.11248 516.814 8.77196C516.814 10.4314 516.435 11.9298 515.678 13.2671C514.921 14.5882 513.865 15.6274 512.512 16.3846C511.175 17.1258 509.668 17.4963 507.993 17.4963ZM507.993 14.4271C509.008 14.4271 509.894 14.1854 510.651 13.7021C511.408 13.2187 511.988 12.5501 512.391 11.6962C512.794 10.8423 512.995 9.86754 512.995 8.77196C512.995 7.67638 512.794 6.70164 512.391 5.84773C511.988 4.99383 511.408 4.3252 510.651 3.84186C509.894 3.35851 509.008 3.11684 507.993 3.11684C506.978 3.11684 506.092 3.35851 505.334 3.84186C504.577 4.3252 503.989 4.99383 503.57 5.84773C503.167 6.70164 502.966 7.67638 502.966 8.77196C502.966 9.86754 503.167 10.8423 503.57 11.6962C503.989 12.5501 504.577 13.2187 505.334 13.7021C506.092 14.1854 506.978 14.4271 507.993 14.4271Z" fill="#FFBA72"/>
<path d="M493.378 17.5212C491.718 17.5212 490.228 17.1587 488.907 16.4337C487.602 15.6926 486.579 14.6614 485.838 13.3403C485.097 12.003 484.726 10.4724 484.726 8.74852C484.726 7.0246 485.097 5.50206 485.838 4.18092C486.595 2.85978 487.642 1.83671 488.979 1.11169C490.333 0.370564 491.863 0 493.571 0C494.909 0 496.093 0.217505 497.124 0.652514C498.155 1.08752 499.106 1.70781 499.976 2.51339L498.091 5.00261C497.494 4.42259 496.85 3.97953 496.157 3.67341C495.464 3.35118 494.683 3.19007 493.813 3.19007C492.782 3.19007 491.855 3.43174 491.034 3.91508C490.228 4.38232 489.6 5.04289 489.149 5.89679C488.698 6.7507 488.472 7.72544 488.472 8.82102C488.472 9.9166 488.698 10.8752 489.149 11.6969C489.616 12.5186 490.252 13.155 491.058 13.6061C491.88 14.0411 492.806 14.2586 493.837 14.2586C494.723 14.2586 495.513 14.0814 496.205 13.727C496.914 13.3725 497.567 12.8731 498.163 12.2286L500.096 14.7903C499.194 15.6764 498.211 16.3531 497.148 16.8204C496.101 17.2876 494.844 17.5212 493.378 17.5212Z" fill="#FFBA72"/>
<path d="M478.032 17.4968C476.63 17.4968 475.397 17.3196 474.334 16.9651C473.287 16.6107 472.473 16.1032 471.893 15.4426C471.313 14.7659 471.023 13.9926 471.023 13.1225C471.023 12.3331 471.257 11.6725 471.724 11.1408C472.191 10.6092 472.82 10.2064 473.609 9.93247C474.415 9.64247 475.309 9.48941 476.292 9.4733V7.51575C475.18 7.46742 474.205 7.33047 473.367 7.10491C472.53 6.86324 471.861 6.49268 471.361 5.99322C470.862 5.49377 470.612 4.84125 470.612 4.03568C470.612 3.21399 470.878 2.50509 471.41 1.90897C471.941 1.29673 472.707 0.829499 473.706 0.507269C474.705 0.18504 475.865 0.0239258 477.186 0.0239258C478.781 0.0239258 480.231 0.241431 481.536 0.67644C482.841 1.11145 484.098 1.7398 485.306 2.56148L483.638 5.29237C482.833 4.6318 481.85 4.10012 480.69 3.69734C479.546 3.29455 478.418 3.0851 477.307 3.06899C476.388 3.06899 475.687 3.23011 475.204 3.55234C474.721 3.85845 474.479 4.26124 474.479 4.7607C474.479 5.11515 474.6 5.42126 474.842 5.67905C475.083 5.92072 475.422 6.13017 475.857 6.30739C476.308 6.46851 476.88 6.61351 477.572 6.7424L479.578 7.20158C481.286 7.55603 482.623 8.1441 483.59 8.96578C484.573 9.78747 485.064 10.8911 485.064 12.2767C485.064 13.195 484.782 14.057 484.218 14.8626C483.655 15.652 482.841 16.2884 481.778 16.7718C480.714 17.2551 479.466 17.4968 478.032 17.4968ZM478.128 14.8142C478.773 14.8142 479.329 14.7015 479.796 14.4759C480.279 14.2503 480.642 13.9523 480.883 13.5817C481.141 13.2112 481.27 12.8003 481.27 12.3492C481.27 11.8497 481.133 11.4147 480.859 11.0442C480.601 10.6575 480.223 10.3594 479.723 10.15C479.24 9.92442 478.684 9.81164 478.056 9.81164C477.46 9.81164 476.92 9.91636 476.437 10.1258C475.953 10.3353 475.575 10.6333 475.301 11.02C475.027 11.3906 474.89 11.8256 474.89 12.325C474.89 12.7923 475.027 13.2192 475.301 13.6059C475.575 13.9764 475.953 14.2745 476.437 14.5001C476.936 14.7095 477.5 14.8142 478.128 14.8142Z" fill="#FFBA72"/>
</svg>
