<svg width="641" height="18" viewBox="0 0 641 18" fill="none" xmlns="http://www.w3.org/2000/svg">
<path d="M413.455 17.692C411.745 17.692 410.213 17.3173 408.861 16.5679C407.509 15.8022 406.45 14.7514 405.684 13.4156C404.919 12.0634 404.536 10.5484 404.536 8.87041C404.536 7.19245 404.919 5.68554 405.684 4.34968C406.45 3.01382 407.509 1.9712 408.861 1.22181C410.213 0.45614 411.745 0.0733046 413.455 0.0733046C415.149 0.0733046 416.673 0.45614 418.025 1.22181C419.393 1.9712 420.46 3.01382 421.226 4.34968C421.992 5.68554 422.374 7.19245 422.374 8.87041C422.374 10.5484 421.992 12.0634 421.226 13.4156C420.46 14.7514 419.393 15.8022 418.025 16.5679C416.673 17.3173 415.149 17.692 413.455 17.692ZM413.455 14.5885C414.481 14.5885 415.377 14.3442 416.143 13.8554C416.909 13.3667 417.495 12.6906 417.903 11.8272C418.31 10.9638 418.513 9.9782 418.513 8.87041C418.513 7.76263 418.31 6.77703 417.903 5.91361C417.495 5.05019 416.909 4.37411 416.143 3.88538C415.377 3.39665 414.481 3.1523 413.455 3.1523C412.429 3.1523 411.533 3.39665 410.767 3.88538C410.001 4.37411 409.407 5.05019 408.983 5.91361C408.576 6.77703 408.372 7.76263 408.372 8.87041C408.372 9.9782 408.576 10.9638 408.983 11.8272C409.407 12.6906 410.001 13.3667 410.767 13.8554C411.533 14.3442 412.429 14.5885 413.455 14.5885Z" fill="#FFBA72"/>
<path d="M396.18 2.49251L397.036 3.42109H390.536V0.342106H405.613V3.42109H399.113L399.968 2.49251V17.3743H396.18V2.49251Z" fill="#FFBA72"/>
<path d="M382.715 17.692C381.004 17.692 379.473 17.3173 378.121 16.5679C376.769 15.8022 375.71 14.7514 374.944 13.4156C374.178 12.0634 373.796 10.5484 373.796 8.87041C373.796 7.19245 374.178 5.68554 374.944 4.34968C375.71 3.01382 376.769 1.9712 378.121 1.22181C379.473 0.45614 381.004 0.0733046 382.715 0.0733046C384.409 0.0733046 385.932 0.45614 387.285 1.22181C388.653 1.9712 389.72 3.01382 390.486 4.34968C391.251 5.68554 391.634 7.19245 391.634 8.87041C391.634 10.5484 391.251 12.0634 390.486 13.4156C389.72 14.7514 388.653 15.8022 387.285 16.5679C385.932 17.3173 384.409 17.692 382.715 17.692ZM382.715 14.5885C383.741 14.5885 384.637 14.3442 385.403 13.8554C386.169 13.3667 386.755 12.6906 387.162 11.8272C387.57 10.9638 387.773 9.9782 387.773 8.87041C387.773 7.76263 387.57 6.77703 387.162 5.91361C386.755 5.05019 386.169 4.37411 385.403 3.88538C384.637 3.39665 383.741 3.1523 382.715 3.1523C381.689 3.1523 380.793 3.39665 380.027 3.88538C379.261 4.37411 378.667 5.05019 378.243 5.91361C377.836 6.77703 377.632 7.76263 377.632 8.87041C377.632 9.9782 377.836 10.9638 378.243 11.8272C378.667 12.6906 379.261 13.3667 380.027 13.8554C380.793 14.3442 381.689 14.5885 382.715 14.5885Z" fill="#FFBA72"/>
<path d="M354.998 0.342106H360.276C360.732 1.4336 361.139 2.44364 361.498 3.37222C361.856 4.28452 362.133 5.1072 362.329 5.84029C362.573 6.67113 362.752 7.4531 362.866 8.18619C362.98 8.90299 363.037 9.63608 363.037 10.3855H365.017C365.017 9.55462 365.09 8.72379 365.237 7.89296C365.383 7.04583 365.611 6.14983 365.921 5.20495C366.23 4.26008 366.662 3.10343 367.216 1.73499C367.297 1.50692 367.485 1.04262 367.778 0.342106H373.081V17.3743H369.318C369.318 15.8755 369.342 14.3849 369.391 12.9024C369.456 11.5177 369.562 10.3936 369.709 9.53019C369.871 8.65048 370.083 7.86037 370.344 7.15986C370.604 6.45935 370.971 5.63666 371.443 4.69179L369.489 3.98314L365.457 14.3442H362.573L358.566 3.98314L356.635 4.7651C357.107 5.70997 357.474 6.52452 357.735 7.20874C357.995 7.89296 358.199 8.65863 358.346 9.50576C358.508 10.3366 358.623 11.4199 358.688 12.7558C358.737 14.2871 358.761 15.8266 358.761 17.3743H354.998V0.342106Z" fill="#FFBA72"/>
<path d="M350.873 17.3743L349.041 12.7069L350.189 13.5133H341.123L342.272 12.7069L340.415 17.3743H336.407L343.665 0.342106H347.623L354.905 17.3743H350.873ZM344.667 3.17674C344.683 3.81208 344.675 4.4067 344.642 4.96059C344.61 5.4982 344.536 6.03579 344.422 6.57339C344.324 7.0947 344.186 7.6323 344.007 8.18619C343.795 8.78896 343.339 9.80714 342.638 11.2407L342.101 10.6787H349.187L348.65 11.2407C348.308 10.5402 347.99 9.82343 347.697 9.09033C347.273 8.06401 346.996 7.111 346.866 6.23129C346.735 5.33529 346.687 4.3171 346.719 3.17674H344.667Z" fill="#FFBA72"/>
<path d="M322.444 0.342106H326.207V3.39666C326.207 3.91797 326.142 4.39855 326.012 4.8384C325.881 5.27826 325.637 5.77513 325.279 6.32903C324.936 6.86663 324.431 7.55899 323.764 8.40611L325.376 9.55462L333.538 0.342106H338.108L330.655 8.28393L330.752 6.93993L338.328 17.3743H333.807L328.284 9.60351L329.335 9.70125L325.474 13.831L326.207 12.1449V17.3743H322.444V0.342106Z" fill="#FFBA72"/>
<path d="M318.32 17.3743L316.487 12.7069L317.635 13.5133H308.569L309.718 12.7069L307.861 17.3743H303.853L311.111 0.342106H315.069L322.352 17.3743H318.32ZM312.113 3.17674C312.129 3.81208 312.121 4.4067 312.088 4.96059C312.056 5.4982 311.982 6.03579 311.868 6.57339C311.771 7.0947 311.632 7.6323 311.453 8.18619C311.241 8.78896 310.785 9.80714 310.084 11.2407L309.547 10.6787H316.633L316.096 11.2407C315.754 10.5402 315.436 9.82343 315.143 9.09033C314.719 8.06401 314.442 7.111 314.312 6.23129C314.182 5.33529 314.133 4.3171 314.165 3.17674H312.113Z" fill="#FFBA72"/>
<path d="M298.077 17.692C296.66 17.692 295.414 17.5128 294.338 17.1544C293.28 16.796 292.457 16.2828 291.87 15.6149C291.284 14.9306 290.991 14.1487 290.991 13.269C290.991 12.4707 291.227 11.8028 291.699 11.2652C292.172 10.7276 292.807 10.3203 293.605 10.0434C294.42 9.75012 295.324 9.59535 296.318 9.57906V7.59972C295.194 7.55085 294.208 7.41238 293.361 7.18431C292.514 6.93994 291.838 6.56525 291.333 6.06023C290.828 5.55522 290.575 4.89543 290.575 4.08088C290.575 3.25004 290.844 2.53324 291.382 1.93048C291.919 1.31142 292.693 0.838978 293.703 0.513159C294.713 0.18734 295.886 0.0244349 297.222 0.0244349C298.835 0.0244349 300.301 0.244365 301.62 0.68422C302.94 1.12408 304.211 1.75942 305.433 2.59025L303.746 5.35157C302.932 4.68364 301.938 4.14604 300.765 3.73876C299.609 3.33149 298.468 3.11971 297.344 3.10342C296.416 3.10342 295.707 3.26633 295.218 3.59215C294.729 3.90167 294.485 4.30895 294.485 4.81397C294.485 5.17237 294.607 5.4819 294.852 5.74255C295.096 5.98692 295.438 6.1987 295.878 6.37791C296.334 6.54081 296.912 6.68742 297.613 6.81775L299.641 7.28204C301.368 7.64044 302.72 8.23506 303.698 9.0659C304.691 9.89674 305.188 11.0127 305.188 12.4137C305.188 13.3423 304.903 14.2138 304.333 15.0284C303.763 15.8266 302.94 16.4701 301.865 16.9589C300.79 17.4476 299.527 17.692 298.077 17.692ZM298.175 14.9795C298.827 14.9795 299.389 14.8655 299.861 14.6374C300.35 14.4093 300.716 14.1079 300.961 13.7332C301.221 13.3586 301.352 12.9431 301.352 12.487C301.352 11.982 301.213 11.5421 300.936 11.1674C300.676 10.7764 300.293 10.4751 299.788 10.2633C299.299 10.0352 298.737 9.92118 298.102 9.92118C297.499 9.92118 296.953 10.0271 296.464 10.2389C295.976 10.4506 295.593 10.752 295.316 11.143C295.039 11.5177 294.9 11.9575 294.9 12.4626C294.9 12.935 295.039 13.3667 295.316 13.7577C295.593 14.1324 295.976 14.4338 296.464 14.6618C296.969 14.8736 297.54 14.9795 298.175 14.9795Z" fill="#FFBA72"/>
<path d="M281.486 0.342106H285.249V17.3743H281.486V0.342106Z" fill="#FFBA72"/>
<path d="M262.322 0.342106H267.6C268.056 1.4336 268.464 2.44364 268.822 3.37222C269.18 4.28452 269.457 5.1072 269.653 5.84029C269.897 6.67113 270.076 7.4531 270.19 8.18619C270.304 8.90299 270.361 9.63608 270.361 10.3855H272.341C272.341 9.55462 272.414 8.72379 272.561 7.89296C272.707 7.04583 272.935 6.14983 273.245 5.20495C273.554 4.26008 273.986 3.10343 274.54 1.73499C274.621 1.50692 274.809 1.04262 275.102 0.342106H280.405V17.3743H276.642C276.642 15.8755 276.666 14.3849 276.715 12.9024C276.78 11.5177 276.886 10.3936 277.033 9.53019C277.195 8.65048 277.407 7.86037 277.668 7.15986C277.929 6.45935 278.295 5.63666 278.768 4.69179L276.813 3.98314L272.781 14.3442H269.897L265.89 3.98314L263.959 4.7651C264.431 5.70997 264.798 6.52452 265.059 7.20874C265.319 7.89296 265.523 8.65863 265.67 9.50576C265.833 10.3366 265.947 11.4199 266.012 12.7558C266.061 14.2871 266.085 15.8266 266.085 17.3743H262.322V0.342106Z" fill="#FFBA72"/>
<path d="M258.197 17.3743L256.365 12.7069L257.513 13.5133H248.447L249.596 12.7069L247.739 17.3743H243.731L250.989 0.342106H254.947L262.229 17.3743H258.197ZM251.991 3.17674C252.007 3.81208 251.999 4.4067 251.966 4.96059C251.934 5.4982 251.86 6.03579 251.746 6.57339C251.648 7.0947 251.51 7.6323 251.331 8.18619C251.119 8.78896 250.663 9.80714 249.962 11.2407L249.425 10.6787H256.511L255.974 11.2407C255.632 10.5402 255.314 9.82343 255.021 9.09033C254.597 8.06401 254.32 7.111 254.19 6.23129C254.06 5.33529 254.011 4.3171 254.043 3.17674H251.991Z" fill="#FFBA72"/>
<path d="M227.93 0.342106H231.327L240.882 12.1205L242.666 10.8986C242.063 10.2307 241.566 9.61979 241.175 9.0659C240.784 8.51201 240.466 7.91739 240.222 7.28204C239.978 6.6304 239.855 5.95434 239.855 5.25383V0.342106H243.643V17.3743H240.515L230.863 5.52262L229.03 6.72001C229.714 7.37165 230.252 8.01514 230.643 8.65049C231.343 9.77456 231.694 11.0045 231.694 12.3404V17.3743H227.93V0.342106Z" fill="#FFBA72"/>
<path d="M223.806 17.3743L221.973 12.7069L223.122 13.5133H214.056L215.204 12.7069L213.347 17.3743H209.34L216.597 0.342106H220.556L227.838 17.3743H223.806ZM217.599 3.17674C217.615 3.81208 217.607 4.4067 217.575 4.96059C217.542 5.4982 217.469 6.03579 217.355 6.57339C217.257 7.0947 217.119 7.6323 216.939 8.18619C216.728 8.78896 216.272 9.80714 215.571 11.2407L215.033 10.6787H222.12L221.582 11.2407C221.24 10.5402 220.923 9.82343 220.629 9.09033C220.206 8.06401 219.929 7.111 219.798 6.23129C219.668 5.33529 219.619 4.3171 219.652 3.17674H217.599Z" fill="#FFBA72"/>
<path d="M191.153 0.342106H196.431C196.887 1.4336 197.294 2.44364 197.653 3.37222C198.011 4.28452 198.288 5.1072 198.484 5.84029C198.728 6.67113 198.907 7.4531 199.021 8.18619C199.135 8.90299 199.192 9.63608 199.192 10.3855H201.172C201.172 9.55462 201.245 8.72379 201.392 7.89296C201.538 7.04583 201.766 6.14983 202.076 5.20495C202.385 4.26008 202.817 3.10343 203.371 1.73499C203.452 1.50692 203.64 1.04262 203.933 0.342106H209.236V17.3743H205.472C205.472 15.8755 205.497 14.3849 205.546 12.9024C205.611 11.5177 205.717 10.3936 205.863 9.53019C206.026 8.65048 206.238 7.86037 206.499 7.15986C206.759 6.45935 207.126 5.63666 207.598 4.69179L205.644 3.98314L201.612 14.3442H198.728L194.72 3.98314L192.79 4.7651C193.262 5.70997 193.629 6.52452 193.89 7.20874C194.15 7.89296 194.354 8.65863 194.501 9.50576C194.663 10.3366 194.777 11.4199 194.843 12.7558C194.892 14.2871 194.916 15.8266 194.916 17.3743H191.153V0.342106Z" fill="#FFBA72"/>
<path d="M167.265 10.9475L160.887 0.342106H165.041C165.872 1.69425 166.499 2.84276 166.923 3.78763C167.363 4.71622 167.664 5.61223 167.827 6.47564C168.006 7.32277 168.096 8.31653 168.096 9.45689H170.246C170.246 8.31653 170.328 7.31463 170.49 6.45121C170.67 5.58779 170.971 4.69178 171.395 3.7632C171.818 2.83462 172.445 1.69425 173.276 0.342106H177.455L171.052 10.9475V17.3743H167.265V10.9475Z" fill="#FFBA72"/>
<path d="M144.634 0.342106H148.568C148.878 1.15665 149.171 1.92232 149.448 2.63912C150.23 4.90356 150.808 6.63041 151.183 7.81965C151.558 8.9926 151.818 10.0434 151.965 10.9719C152.111 11.9005 152.185 13.0327 152.185 14.3686H154.213C154.213 13.0653 154.286 11.9575 154.433 11.0453C154.579 10.1167 154.832 9.08219 155.19 7.94182C155.565 6.78517 156.111 5.1235 156.828 2.9568C157.17 2.09338 157.512 1.22182 157.854 0.342106H161.788L155.435 17.3743H150.987L144.634 0.342106Z" fill="#FFBA72"/>
<path d="M131.291 0.342106H144.756V3.42109H134.126L135.054 2.54138V8.18619L134.126 7.33091H143.998V10.2389H134.126L135.054 9.43246V15.2239L134.126 14.2953H145.049V17.3743H131.291V0.342106Z" fill="#FFBA72"/>
<path d="M118.284 0.342106H122.047V15.2239L121.118 14.2953H131.21V17.3743H118.284V0.342106Z" fill="#FFBA72"/>
<path d="M94.5832 0.342106H99.8614C100.318 1.4336 100.725 2.44364 101.083 3.37222C101.442 4.28452 101.719 5.1072 101.914 5.84029C102.158 6.67113 102.338 7.4531 102.452 8.18619C102.566 8.90299 102.623 9.63608 102.623 10.3855H104.602C104.602 9.55462 104.675 8.72379 104.822 7.89296C104.969 7.04583 105.197 6.14983 105.506 5.20495C105.816 4.26008 106.247 3.10343 106.801 1.73499C106.883 1.50692 107.07 1.04262 107.363 0.342106H112.666V17.3743H108.903C108.903 15.8755 108.927 14.3849 108.976 12.9024C109.041 11.5177 109.147 10.3936 109.294 9.53019C109.457 8.65048 109.669 7.86037 109.929 7.15986C110.19 6.45935 110.556 5.63666 111.029 4.69179L109.074 3.98314L105.042 14.3442H102.158L98.1509 3.98314L96.2204 4.7651C96.6929 5.70997 97.0594 6.52452 97.32 7.20874C97.5807 7.89296 97.7843 8.65863 97.931 9.50576C98.0939 10.3366 98.2079 11.4199 98.2731 12.7558C98.3219 14.2871 98.3464 15.8266 98.3464 17.3743H94.5832V0.342106Z" fill="#FFBA72"/>
<path d="M81.5756 0.342106H85.3388V15.2239L84.4102 14.2953H94.5024V17.3743H81.5756V0.342106Z" fill="#FFBA72"/>
<path d="M71.9661 17.692C70.2556 17.692 68.7242 17.3173 67.3721 16.5679C66.0199 15.8022 64.961 14.7514 64.1954 13.4156C63.4297 12.0634 63.0469 10.5484 63.0469 8.87041C63.0469 7.19245 63.4297 5.68554 64.1954 4.34968C64.961 3.01382 66.0199 1.9712 67.3721 1.22181C68.7242 0.45614 70.2556 0.0733046 71.9661 0.0733046C73.6604 0.0733046 75.1836 0.45614 76.5358 1.22181C77.9042 1.9712 78.9712 3.01382 79.7369 4.34968C80.5026 5.68554 80.8854 7.19245 80.8854 8.87041C80.8854 10.5484 80.5026 12.0634 79.7369 13.4156C78.9712 14.7514 77.9042 15.8022 76.5358 16.5679C75.1836 17.3173 73.6604 17.692 71.9661 17.692ZM71.9661 14.5885C72.9925 14.5885 73.8885 14.3442 74.6541 13.8554C75.4198 13.3667 76.0063 12.6906 76.4136 11.8272C76.8208 10.9638 77.0245 9.9782 77.0245 8.87041C77.0245 7.76263 76.8208 6.77703 76.4136 5.91361C76.0063 5.05019 75.4198 4.37411 74.6541 3.88538C73.8885 3.39665 72.9925 3.1523 71.9661 3.1523C70.9398 3.1523 70.0438 3.39665 69.2781 3.88538C68.5125 4.37411 67.9179 5.05019 67.4943 5.91361C67.087 6.77703 66.8834 7.76263 66.8834 8.87041C66.8834 9.9782 67.087 10.9638 67.4943 11.8272C67.9179 12.6906 68.5125 13.3667 69.2781 13.8554C70.0438 14.3442 70.9398 14.5885 71.9661 14.5885Z" fill="#FFBA72"/>
<path d="M57.1886 17.7164C55.5106 17.7164 54.0037 17.3498 52.6679 16.6167C51.3483 15.8674 50.3138 14.8247 49.5645 13.4889C48.8151 12.1367 48.4404 10.5891 48.4404 8.84598C48.4404 7.10285 48.8151 5.56335 49.5645 4.2275C50.3301 2.89164 51.389 1.85717 52.7412 1.12407C54.1096 0.374691 55.6573 0 57.3841 0C58.7363 0 59.9336 0.21993 60.9763 0.659785C62.0189 1.09964 62.98 1.72684 63.8597 2.54138L61.9537 5.05833C61.3509 4.47185 60.6993 4.02386 59.9988 3.71433C59.2983 3.38851 58.5082 3.2256 57.6285 3.2256C56.5858 3.2256 55.6491 3.46998 54.8183 3.9587C54.0037 4.43114 53.3684 5.09906 52.9122 5.96248C52.4561 6.8259 52.228 7.8115 52.228 8.91928C52.228 10.0271 52.4561 10.9964 52.9122 11.8272C53.3847 12.658 54.0282 13.3016 54.8427 13.7577C55.6736 14.1976 56.6103 14.4175 57.6529 14.4175C58.5489 14.4175 59.3472 14.2383 60.0477 13.8799C60.7645 13.5215 61.4243 13.0165 62.027 12.3648L63.9819 14.9551C63.0696 15.8511 62.0759 16.5353 61.0007 17.0077C59.9418 17.4802 58.6711 17.7164 57.1886 17.7164Z" fill="#FFBA72"/>
<path d="M36.7777 0.342106H40.5409V15.2239L39.6124 14.2953H49.7046V17.3743H36.7777V0.342106Z" fill="#FFBA72"/>
<path d="M32.6533 17.3743L30.8206 12.7069L31.9691 13.5133H22.9032L24.0517 12.7069L22.1946 17.3743H18.187L25.4446 0.342106H29.4033L36.6853 17.3743H32.6533ZM26.4465 3.17674C26.4628 3.81208 26.4546 4.4067 26.422 4.96059C26.3895 5.4982 26.3162 6.03579 26.2021 6.57339C26.1044 7.0947 25.9659 7.6323 25.7867 8.18619C25.5749 8.78896 25.1188 9.80714 24.4183 11.2407L23.8807 10.6787H30.9672L30.4296 11.2407C30.0875 10.5402 29.7698 9.82343 29.4766 9.09033C29.053 8.06401 28.7761 7.111 28.6458 6.23129C28.5154 5.33529 28.4666 4.3171 28.4991 3.17674H26.4465Z" fill="#FFBA72"/>
<path d="M0 0.342106H5.27826C5.7344 1.4336 6.14168 2.44364 6.50008 3.37222C6.85848 4.28452 7.13543 5.1072 7.33092 5.84029C7.57528 6.67113 7.75448 7.4531 7.86852 8.18619C7.98256 8.90299 8.03957 9.63608 8.03957 10.3855H10.0189C10.0189 9.55462 10.0922 8.72379 10.2388 7.89296C10.3855 7.04583 10.6135 6.14983 10.9231 5.20495C11.2326 4.26008 11.6643 3.10343 12.2182 1.73499C12.2997 1.50692 12.487 1.04262 12.7802 0.342106H18.0829V17.3743H14.3197C14.3197 15.8755 14.3442 14.3849 14.393 12.9024C14.4582 11.5177 14.5641 10.3936 14.7107 9.53019C14.8736 8.65048 15.0854 7.86037 15.3461 7.15986C15.6067 6.45935 15.9733 5.63666 16.4457 4.69179L14.4908 3.98314L10.4588 14.3442H7.57528L3.56771 3.98314L1.63723 4.7651C2.10967 5.70997 2.47622 6.52452 2.73687 7.20874C2.99753 7.89296 3.20116 8.65863 3.34778 9.50576C3.51069 10.3366 3.62473 11.4199 3.6899 12.7558C3.73877 14.2871 3.7632 15.8266 3.7632 17.3743H0V0.342106Z" fill="#FFBA72"/>
<path d="M625.06 0.557129H632.89C635.033 0.557129 636.636 0.935748 637.699 1.69299C638.763 2.43411 639.295 3.55386 639.295 5.05222C639.295 5.97058 639.053 6.73587 638.57 7.34811C638.086 7.96034 637.434 8.42757 636.612 8.7498C635.79 9.07203 634.864 9.26537 633.833 9.32982V11.2632C634.574 11.2954 635.21 11.4565 635.742 11.7465C636.29 12.0204 636.797 12.4716 637.264 13.0999L637.337 13.1966L640.43 17.4017H636.056L633.398 13.6074C633.333 13.5107 633.269 13.4141 633.204 13.3174C632.737 12.6568 632.359 12.1896 632.069 11.9157C631.795 11.6418 631.489 11.4565 631.15 11.3599C630.812 11.2471 630.32 11.1907 629.676 11.1907H627.863L628.782 10.2965V17.4017H625.06V0.557129ZM627.863 8.82231H632.214C632.955 8.82231 633.567 8.72564 634.05 8.5323C634.55 8.32285 634.92 8.01673 635.162 7.61395C635.42 7.21116 635.549 6.70365 635.549 6.09141C635.549 5.20528 635.275 4.54471 634.727 4.10971C634.179 3.6747 633.341 3.45719 632.214 3.45719H627.863L628.782 2.51467V9.69232L627.863 8.82231Z" fill="#FFBA72"/>
<path d="M610.897 0.557129H624.214V3.60219H613.701L614.619 2.73217V8.3148L613.701 7.46894H623.464V10.3448H613.701L614.619 9.54732V15.2749L613.701 14.3566H624.504V17.4017H610.897V0.557129Z" fill="#FFBA72"/>
<path d="M606.105 0.557129H609.826V17.4017H606.105V0.557129Z" fill="#FFBA72"/>
<path d="M596.081 8.19396V9.52315L589.919 0.557129H594.269C595.284 2.05549 595.96 3.23163 596.299 4.08554C596.653 4.92333 596.83 5.8578 596.83 6.88893H598.909C598.909 6.09947 599.006 5.43084 599.199 4.88305C599.36 4.33526 599.618 3.73109 599.972 3.07052C600.327 2.40995 600.85 1.57215 601.543 0.557129H605.797L599.634 9.45065V8.14562L606.038 17.4017H601.688C600.915 16.4027 600.327 15.565 599.924 14.8883C599.537 14.2116 599.263 13.5913 599.102 13.0274C598.941 12.4474 598.861 11.8029 598.861 11.094H596.782C596.782 11.7868 596.702 12.4152 596.54 12.9791C596.379 13.543 596.097 14.1633 595.695 14.8399C595.308 15.5166 594.728 16.3705 593.955 17.4017H589.701L596.081 8.19396Z" fill="#FFBA72"/>
<path d="M576.505 0.557129H589.821V3.60219H579.309L580.227 2.73217V8.3148L579.309 7.46894H589.072V10.3448H579.309L580.227 9.54732V15.2749L579.309 14.3566H590.111V17.4017H576.505V0.557129Z" fill="#FFBA72"/>
<path d="M567.077 2.68384L567.923 3.60219H561.494V0.557129H576.405V3.60219H569.977L570.823 2.68384V17.4017H567.077V2.68384Z" fill="#FFBA72"/>
<path d="M545.868 0.557129H549.227L558.676 12.2057L560.44 10.9974C559.844 10.3368 559.353 9.7326 558.966 9.18481C558.58 8.63702 558.265 8.04896 558.024 7.42061C557.782 6.77615 557.661 6.10753 557.661 5.41473V0.557129H561.407V17.4017H558.314L548.768 5.68057L546.955 6.86476C547.632 7.50922 548.164 8.14562 548.55 8.77397C549.243 9.88566 549.589 11.1021 549.589 12.4232V17.4017H545.868V0.557129Z" fill="#FFBA72"/>
<path d="M536.364 17.7165C534.673 17.7165 533.158 17.346 531.821 16.6048C530.484 15.8476 529.437 14.8084 528.679 13.4873C527.922 12.15 527.543 10.6517 527.543 8.99218C527.543 7.3327 527.922 5.84239 528.679 4.52125C529.437 3.20011 530.484 2.16898 531.821 1.42785C533.158 0.670611 534.673 0.291992 536.364 0.291992C538.04 0.291992 539.546 0.670611 540.884 1.42785C542.237 2.16898 543.292 3.20011 544.05 4.52125C544.807 5.84239 545.186 7.3327 545.186 8.99218C545.186 10.6517 544.807 12.15 544.05 13.4873C543.292 14.8084 542.237 15.8476 540.884 16.6048C539.546 17.346 538.04 17.7165 536.364 17.7165ZM536.364 14.6473C537.38 14.6473 538.266 14.4056 539.023 13.9223C539.78 13.4389 540.36 12.7703 540.763 11.9164C541.166 11.0625 541.367 10.0878 541.367 8.99218C541.367 7.8966 541.166 6.92186 540.763 6.06795C540.36 5.21404 539.78 4.54542 539.023 4.06207C538.266 3.57873 537.38 3.33706 536.364 3.33706C535.349 3.33706 534.463 3.57873 533.706 4.06207C532.949 4.54542 532.361 5.21404 531.942 6.06795C531.539 6.92186 531.338 7.8966 531.338 8.99218C531.338 10.0878 531.539 11.0625 531.942 11.9164C532.361 12.7703 532.949 13.4389 533.706 13.9223C534.463 14.4056 535.349 14.6473 536.364 14.6473Z" fill="#FFBA72"/>
<path d="M508.953 0.557129H514.173C514.624 1.6366 515.027 2.63551 515.381 3.55386C515.736 4.4561 516.01 5.26973 516.203 5.99474C516.445 6.81643 516.622 7.58978 516.735 8.3148C516.847 9.0237 516.904 9.74871 516.904 10.4898H518.861C518.861 9.66816 518.934 8.84647 519.079 8.02479C519.224 7.18699 519.449 6.30086 519.756 5.3664C520.062 4.43193 520.489 3.28802 521.036 1.93466C521.117 1.7091 521.302 1.24992 521.592 0.557129H526.837V17.4017H523.115C523.115 15.9194 523.139 14.4452 523.187 12.9791C523.252 11.6096 523.357 10.4979 523.502 9.64399C523.663 8.77397 523.872 7.99257 524.13 7.29977C524.388 6.60698 524.75 5.79335 525.217 4.85889L523.284 4.15804L519.296 14.4049H516.445L512.481 4.15804L510.572 4.93139C511.039 5.86585 511.402 6.67143 511.66 7.34811C511.917 8.02479 512.119 8.78203 512.264 9.61982C512.425 10.4415 512.538 11.5129 512.602 12.8341C512.65 14.3485 512.675 15.8711 512.675 17.4017H508.953V0.557129Z" fill="#FFBA72"/>
<path d="M490.304 0.557129H503.62V3.60219H493.108L494.026 2.73217V8.3148L493.108 7.46894H502.871V10.3448H493.108L494.026 9.54732V15.2749L493.108 14.3566H503.91V17.4017H490.304V0.557129Z" fill="#FFBA72"/>
<path d="M485.512 0.557129H489.233V17.4017H485.512V0.557129Z" fill="#FFBA72"/>
<path d="M470.074 0.557129H477.904C480.047 0.557129 481.65 0.935748 482.714 1.69299C483.777 2.43411 484.309 3.55386 484.309 5.05222C484.309 5.97058 484.067 6.73587 483.584 7.34811C483.1 7.96034 482.448 8.42757 481.626 8.7498C480.804 9.07203 479.878 9.26537 478.847 9.32982V11.2632C479.588 11.2954 480.224 11.4565 480.756 11.7465C481.304 12.0204 481.811 12.4716 482.279 13.0999L482.351 13.1966L485.445 17.4017H481.07L478.412 13.6074C478.347 13.5107 478.283 13.4141 478.219 13.3174C477.751 12.6568 477.373 12.1896 477.083 11.9157C476.809 11.6418 476.503 11.4565 476.164 11.3599C475.826 11.2471 475.335 11.1907 474.69 11.1907H472.878L473.796 10.2965V17.4017H470.074V0.557129ZM472.878 8.82231H477.228C477.969 8.82231 478.581 8.72564 479.064 8.5323C479.564 8.32285 479.934 8.01673 480.176 7.61395C480.434 7.21116 480.563 6.70365 480.563 6.09141C480.563 5.20528 480.289 4.54471 479.741 4.10971C479.193 3.6747 478.356 3.45719 477.228 3.45719H472.878L473.796 2.51467V9.69232L472.878 8.82231Z" fill="#FFBA72"/>
<path d="M465.996 17.4017L464.183 12.7857L465.319 13.5832H456.353L457.489 12.7857L455.652 17.4017H451.689L458.867 0.557129H462.782L469.984 17.4017H465.996ZM459.857 3.36052C459.874 3.98887 459.866 4.57694 459.833 5.12473C459.801 5.6564 459.729 6.18808 459.616 6.71976C459.519 7.23533 459.382 7.76701 459.205 8.3148C458.996 8.91092 458.544 9.91789 457.852 11.3357L457.32 10.7798H464.328L463.797 11.3357C463.458 10.6429 463.144 9.934 462.854 9.20898C462.435 8.19396 462.161 7.25144 462.033 6.38142C461.904 5.49529 461.855 4.48832 461.888 3.36052H459.857Z" fill="#FFBA72"/>
<path d="M433.702 0.557129H438.922C439.373 1.6366 439.776 2.63551 440.13 3.55386C440.485 4.4561 440.758 5.26973 440.952 5.99474C441.193 6.81643 441.371 7.58978 441.483 8.3148C441.596 9.0237 441.653 9.74871 441.653 10.4898H443.61C443.61 9.66816 443.683 8.84647 443.828 8.02479C443.973 7.18699 444.198 6.30086 444.504 5.3664C444.811 4.43193 445.237 3.28802 445.785 1.93466C445.866 1.7091 446.051 1.24992 446.341 0.557129H451.585V17.4017H447.864C447.864 15.9194 447.888 14.4452 447.936 12.9791C448.001 11.6096 448.105 10.4979 448.25 9.64399C448.411 8.77397 448.621 7.99257 448.879 7.29977C449.136 6.60698 449.499 5.79335 449.966 4.85889L448.033 4.15804L444.045 14.4049H441.193L437.23 4.15804L435.321 4.93139C435.788 5.86585 436.151 6.67143 436.408 7.34811C436.666 8.02479 436.868 8.78203 437.013 9.61982C437.174 10.4415 437.286 11.5129 437.351 12.8341C437.399 14.3485 437.423 15.8711 437.423 17.4017H433.702V0.557129Z" fill="#FFBA72"/>
</svg>
