<svg width="641" height="18" viewBox="0 0 641 18" fill="none" xmlns="http://www.w3.org/2000/svg">
<path d="M163.598 0.338867H166.957L176.406 11.9874L178.17 10.7791C177.574 10.1185 177.083 9.51434 176.696 8.96655C176.31 8.41876 175.995 7.83069 175.754 7.20235C175.512 6.55789 175.391 5.88926 175.391 5.19647V0.338867H179.137V17.1834H176.044L166.498 5.46231L164.685 6.6465C165.362 7.29096 165.894 7.92736 166.28 8.55571C166.973 9.6674 167.319 10.8838 167.319 12.205V17.1834H163.598V0.338867Z" fill="#FFBA72"/>
<path d="M159.519 17.1834L157.707 12.5675L158.842 13.365H149.876L151.012 12.5675L149.176 17.1834H145.212L152.39 0.338867H156.305L163.507 17.1834H159.519ZM153.381 3.14226C153.397 3.77061 153.389 4.35868 153.357 4.90647C153.324 5.43814 153.252 5.96982 153.139 6.5015C153.042 7.01707 152.905 7.54874 152.728 8.09653C152.519 8.69266 152.068 9.69962 151.375 11.1174L150.843 10.5616H157.852L157.32 11.1174C156.982 10.4246 156.667 9.71573 156.377 8.99072C155.959 7.9757 155.685 7.03318 155.556 6.16316C155.427 5.27703 155.378 4.27006 155.411 3.14226H153.381Z" fill="#FFBA72"/>
<path d="M127.226 0.338867H132.446C132.897 1.41833 133.3 2.41724 133.654 3.3356C134.009 4.23784 134.282 5.05147 134.476 5.77648C134.717 6.59817 134.895 7.37152 135.007 8.09653C135.12 8.80544 135.177 9.53045 135.177 10.2716H137.134C137.134 9.4499 137.207 8.62821 137.352 7.80653C137.497 6.96873 137.722 6.0826 138.028 5.14814C138.334 4.21367 138.761 3.06976 139.309 1.7164C139.39 1.49084 139.575 1.03166 139.865 0.338867H145.109V17.1834H141.388C141.388 15.7011 141.412 14.2269 141.46 12.7608C141.524 11.3913 141.629 10.2796 141.774 9.42573C141.935 8.55571 142.145 7.7743 142.403 7.08151C142.66 6.38872 143.023 5.57509 143.49 4.64063L141.557 3.93978L137.569 14.1867H134.717L130.754 3.93978L128.845 4.71313C129.312 5.64759 129.675 6.45316 129.932 7.12985C130.19 7.80653 130.391 8.56376 130.536 9.40156C130.698 10.2232 130.81 11.2947 130.875 12.6158C130.923 14.1303 130.947 15.6528 130.947 17.1834H127.226V0.338867Z" fill="#FFBA72"/>
<path d="M117.761 17.497C116.391 17.497 115.134 17.1265 113.991 16.3854C112.847 15.6442 111.944 14.6131 111.284 13.292C110.623 11.9547 110.293 10.4402 110.293 8.74852C110.293 7.05682 110.664 5.5504 111.405 4.22926C112.146 2.89201 113.177 1.85282 114.498 1.11169C115.819 0.370564 117.326 0 119.017 0C120.419 0 121.732 0.265839 122.957 0.797517C124.181 1.32919 125.228 2.0381 126.098 2.92423L123.996 5.34095C123.319 4.66427 122.602 4.13259 121.845 3.74591C121.088 3.35924 120.202 3.1659 119.186 3.1659C118.139 3.1659 117.221 3.41563 116.431 3.91508C115.658 4.39843 115.062 5.06705 114.643 5.92096C114.224 6.77487 114.015 7.71739 114.015 8.74852C114.015 9.8441 114.224 10.8269 114.643 11.6969C115.062 12.5508 115.666 13.2195 116.456 13.7028C117.245 14.1861 118.18 14.4278 119.259 14.4278C120.097 14.4278 120.846 14.2425 121.507 13.872C122.167 13.4853 122.675 12.9133 123.029 12.1561C123.384 11.3989 123.512 10.4724 123.416 9.37687L124.358 10.3919H118.558V7.7335H126.388V17.1829H123.247C123.504 16.5706 123.77 16.0067 124.044 15.4912C124.35 14.8628 124.689 14.2748 125.059 13.727L123.053 12.8569C122.908 13.5981 122.634 14.3231 122.232 15.032C121.829 15.7248 121.257 16.3129 120.516 16.7962C119.775 17.2634 118.856 17.497 117.761 17.497Z" fill="#FFBA72"/>
<path d="M102.259 17.5217C100.744 17.5217 99.4233 17.2559 98.2955 16.7242C97.1677 16.1764 96.2977 15.3628 95.6854 14.2833C95.0893 13.2039 94.7913 11.8827 94.7913 10.3199V0.338867H98.513V10.2232C98.513 11.1255 98.658 11.8908 98.948 12.5191C99.2541 13.1314 99.6811 13.5986 100.229 13.9208C100.793 14.2269 101.469 14.38 102.259 14.38C103.435 14.38 104.345 14.0256 104.99 13.3166C105.65 12.5916 105.981 11.5605 105.981 10.2232V0.338867H109.702V10.3199C109.702 12.6722 109.034 14.4606 107.697 15.685C106.375 16.9095 104.563 17.5217 102.259 17.5217Z" fill="#FFBA72"/>
<path d="M80.1128 0.338867H87.943C90.0858 0.338867 91.6889 0.717487 92.7522 1.47472C93.8156 2.21585 94.3473 3.3356 94.3473 4.83396C94.3473 5.75232 94.1056 6.51761 93.6222 7.12985C93.1389 7.74208 92.4864 8.20931 91.6647 8.53154C90.843 8.85377 89.9166 9.04711 88.8855 9.11155V11.0449C89.6266 11.0772 90.263 11.2383 90.7947 11.5283C91.3425 11.8022 91.85 12.2533 92.3172 12.8816L92.3897 12.9783L95.4831 17.1834H91.1089L88.4505 13.3891C88.386 13.2925 88.3216 13.1958 88.2571 13.0991C87.7899 12.4386 87.4113 11.9713 87.1213 11.6974C86.8474 11.4235 86.5413 11.2383 86.2029 11.1416C85.8646 11.0288 85.3732 10.9724 84.7287 10.9724H82.9162L83.8345 10.0782V17.1834H80.1128V0.338867ZM82.9162 8.60404H87.2663C88.0074 8.60404 88.6196 8.50737 89.103 8.31404C89.6024 8.10459 89.973 7.79847 90.2147 7.39568C90.4725 6.9929 90.6013 6.48539 90.6013 5.87315C90.6013 4.98702 90.3275 4.32645 89.7797 3.89144C89.2319 3.45643 88.3941 3.23893 87.2663 3.23893H82.9162L83.8345 2.29641V9.47406L82.9162 8.60404Z" fill="#FFBA72"/>
<path d="M64.3923 0.338867H68.1141V3.35977C68.1141 3.87533 68.0496 4.35062 67.9207 4.78563C67.7918 5.22064 67.5502 5.71204 67.1957 6.25983C66.8574 6.7915 66.3579 7.47624 65.6974 8.31404L67.2924 9.4499L75.3642 0.338867H79.8835L72.5125 8.1932L72.6092 6.86401L80.101 17.1834H75.6301L70.1683 9.49823L71.2075 9.5949L67.3891 13.6792L68.1141 12.0116V17.1834H64.3923V0.338867Z" fill="#FFBA72"/>
<path d="M45.7446 0.338867H59.0607V3.38393H48.548L49.4664 2.51391V8.09653L48.548 7.25068H58.3116V10.1266H48.548L49.4664 9.32906V15.0567L48.548 14.1383H59.3508V17.1834H45.7446V0.338867Z" fill="#FFBA72"/>
<path d="M28.7034 0.338867H32.5943C32.9004 1.14444 33.1904 1.90168 33.4643 2.61058C34.2377 4.85007 34.8096 6.55789 35.1802 7.73403C35.5507 8.89405 35.8085 9.93324 35.9535 10.8516C36.0985 11.7699 36.171 12.8897 36.171 14.2108H38.1769C38.1769 12.9219 38.2494 11.8263 38.3944 10.9241C38.5394 10.0057 38.7891 8.98266 39.1436 7.85486C39.5142 6.71095 40.0539 5.06758 40.7628 2.92476C41.1011 2.07085 41.4395 1.20889 41.7778 0.338867H45.6687L39.3853 17.1834H34.9868L28.7034 0.338867Z" fill="#FFBA72"/>
<path d="M28.4 17.1834L26.5875 12.5675L27.7233 13.365H18.7573L19.8931 12.5675L18.0564 17.1834H14.093L21.2707 0.338867H25.1858L32.3876 17.1834H28.4ZM22.2615 3.14226C22.2776 3.77061 22.2696 4.35868 22.2374 4.90647C22.2051 5.43814 22.1326 5.96982 22.0199 6.5015C21.9232 7.01707 21.7862 7.54874 21.609 8.09653C21.3996 8.69266 20.9484 9.69962 20.2556 11.1174L19.724 10.5616H26.7325L26.2008 11.1174C25.8624 10.4246 25.5483 9.71573 25.2583 8.99072C24.8394 7.9757 24.5655 7.03318 24.4366 6.16316C24.3077 5.27703 24.2593 4.27006 24.2916 3.14226H22.2615Z" fill="#FFBA72"/>
<path d="M0 0.338867H6.4043C8.30546 0.338867 9.95688 0.709431 11.3586 1.45056C12.7603 2.17557 13.8317 3.17448 14.5728 4.44729C15.3139 5.72009 15.6845 7.16207 15.6845 8.77321C15.6845 10.3199 15.3139 11.7377 14.5728 13.0266C13.8317 14.2994 12.7603 15.3145 11.3586 16.0717C9.95688 16.8128 8.30546 17.1834 6.4043 17.1834H0V0.338867ZM2.80339 14.1383H6.16263C7.33877 14.1383 8.35379 13.9128 9.2077 13.4616C10.0777 13.0105 10.7383 12.3822 11.1894 11.5766C11.6566 10.7549 11.8903 9.82046 11.8903 8.77321C11.8903 7.72597 11.6566 6.79956 11.1894 5.99399C10.7383 5.1723 10.0777 4.5359 9.2077 4.08478C8.35379 3.61755 7.33877 3.38393 6.16263 3.38393H2.80339L3.72175 2.48975V15.0567L2.80339 14.1383Z" fill="#FFBA72"/>
<path d="M249.537 2.46558L250.383 3.38393H243.954V0.338867H258.865V3.38393H252.437L253.283 2.46558V17.1834H249.537V2.46558Z" fill="#FFBA72"/>
<path d="M240.128 0.338867H243.85V17.1834H240.128V0.338867Z" fill="#FFBA72"/>
<path d="M224.855 0.338867H233.241C234.466 0.338867 235.497 0.467759 236.335 0.725542C237.189 0.967214 237.841 1.37806 238.292 1.95807C238.76 2.52197 238.993 3.24699 238.993 4.13312C238.993 4.87424 238.832 5.49453 238.51 5.99399C238.188 6.47733 237.72 6.83984 237.108 7.08151C236.512 7.32318 235.787 7.46819 234.933 7.51652V9.47406C235.916 9.49017 236.746 9.61907 237.422 9.86074C238.115 10.1024 238.647 10.473 239.017 10.9724C239.388 11.4719 239.573 12.1244 239.573 12.93C239.573 13.8644 239.315 14.6458 238.8 15.2742C238.3 15.9025 237.6 16.3778 236.697 16.7001C235.795 17.0223 234.748 17.1834 233.556 17.1834H224.855V0.338867ZM232.855 14.2833C233.467 14.2833 233.991 14.2108 234.426 14.0658C234.877 13.9047 235.215 13.663 235.441 13.3408C235.682 13.0186 235.803 12.6077 235.803 12.1083C235.803 11.6411 235.682 11.2544 235.441 10.9483C235.215 10.6421 234.885 10.4166 234.45 10.2716C234.015 10.1266 233.483 10.0541 232.855 10.0541H228.601V14.2833H232.855ZM232.299 7.29902C233.282 7.29902 234.015 7.1379 234.498 6.81567C234.998 6.47733 235.247 5.94565 235.247 5.22064C235.247 4.52785 234.998 4.02839 234.498 3.72227C234.015 3.40004 233.282 3.23893 232.299 3.23893H228.601V7.29902H232.299Z" fill="#FFBA72"/>
<path d="M210.718 0.338867H224.034V3.38393H213.521L214.439 2.51391V8.09653L213.521 7.25068H223.284V10.1266H213.521L214.439 9.32906V15.0567L213.521 14.1383H224.324V17.1834H210.718V0.338867Z" fill="#FFBA72"/>
<path d="M194.454 0.338867H200.859C202.76 0.338867 204.411 0.709431 205.813 1.45056C207.215 2.17557 208.286 3.17448 209.027 4.44729C209.768 5.72009 210.139 7.16207 210.139 8.77321C210.139 10.3199 209.768 11.7377 209.027 13.0266C208.286 14.2994 207.215 15.3145 205.813 16.0717C204.411 16.8128 202.76 17.1834 200.859 17.1834H194.454V0.338867ZM197.258 14.1383H200.617C201.793 14.1383 202.808 13.9128 203.662 13.4616C204.532 13.0105 205.193 12.3822 205.644 11.5766C206.111 10.7549 206.345 9.82046 206.345 8.77321C206.345 7.72597 206.111 6.79956 205.644 5.99399C205.193 5.1723 204.532 4.5359 203.662 4.08478C202.808 3.61755 201.793 3.38393 200.617 3.38393H197.258L198.176 2.48975V15.0567L197.258 14.1383Z" fill="#FFBA72"/>
<path d="M381.89 17.497C380.52 17.497 379.263 17.1265 378.119 16.3854C376.976 15.6442 376.073 14.6131 375.413 13.292C374.752 11.9547 374.422 10.4402 374.422 8.74852C374.422 7.05682 374.792 5.5504 375.534 4.22926C376.275 2.89201 377.306 1.85282 378.627 1.11169C379.948 0.370564 381.455 0 383.146 0C384.548 0 385.861 0.265839 387.085 0.797517C388.31 1.32919 389.357 2.0381 390.227 2.92423L388.125 5.34095C387.448 4.66427 386.731 4.13259 385.974 3.74591C385.217 3.35924 384.33 3.1659 383.315 3.1659C382.268 3.1659 381.35 3.41563 380.56 3.91508C379.787 4.39843 379.191 5.06705 378.772 5.92096C378.353 6.77487 378.144 7.71739 378.144 8.74852C378.144 9.8441 378.353 10.8269 378.772 11.6969C379.191 12.5508 379.795 13.2195 380.585 13.7028C381.374 14.1861 382.308 14.4278 383.388 14.4278C384.226 14.4278 384.975 14.2425 385.635 13.872C386.296 13.4853 386.804 12.9133 387.158 12.1561C387.512 11.3989 387.641 10.4724 387.545 9.37687L388.487 10.3919H382.687V7.7335H390.517V17.1829H387.375C387.633 16.5706 387.899 16.0067 388.173 15.4912C388.479 14.8628 388.817 14.2748 389.188 13.727L387.182 12.8569C387.037 13.5981 386.763 14.3231 386.36 15.032C385.958 15.7248 385.386 16.3129 384.645 16.7962C383.903 17.2634 382.985 17.497 381.89 17.497Z" fill="#FFBA72"/>
<path d="M358.191 0.338867H361.55L371 11.9874L372.764 10.7791C372.168 10.1185 371.676 9.51434 371.29 8.96655C370.903 8.41876 370.589 7.83069 370.347 7.20235C370.106 6.55789 369.985 5.88926 369.985 5.19647V0.338867H373.731V17.1834H370.637L361.091 5.46231L359.279 6.6465C359.955 7.29096 360.487 7.92736 360.874 8.55571C361.567 9.6674 361.913 10.8838 361.913 12.205V17.1834H358.191V0.338867Z" fill="#FFBA72"/>
<path d="M353.398 0.338867H357.12V17.1834H353.398V0.338867Z" fill="#FFBA72"/>
<path d="M337.961 0.338867H345.792C347.934 0.338867 349.538 0.717487 350.601 1.47472C351.664 2.21585 352.196 3.3356 352.196 4.83396C352.196 5.75232 351.954 6.51761 351.471 7.12985C350.988 7.74208 350.335 8.20931 349.513 8.53154C348.692 8.85377 347.765 9.04711 346.734 9.11155V11.0449C347.475 11.0772 348.112 11.2383 348.643 11.5283C349.191 11.8022 349.699 12.2533 350.166 12.8816L350.238 12.9783L353.332 17.1834H348.957L346.299 13.3891C346.235 13.2925 346.17 13.1958 346.106 13.0991C345.639 12.4386 345.26 11.9713 344.97 11.6974C344.696 11.4235 344.39 11.2383 344.052 11.1416C343.713 11.0288 343.222 10.9724 342.577 10.9724H340.765L341.683 10.0782V17.1834H337.961V0.338867ZM340.765 8.60404H345.115C345.856 8.60404 346.468 8.50737 346.952 8.31404C347.451 8.10459 347.822 7.79847 348.063 7.39568C348.321 6.9929 348.45 6.48539 348.45 5.87315C348.45 4.98702 348.176 4.32645 347.628 3.89144C347.081 3.45643 346.243 3.23893 345.115 3.23893H340.765L341.683 2.29641V9.47406L340.765 8.60404Z" fill="#FFBA72"/>
<path d="M328.458 17.4968C326.767 17.4968 325.252 17.1262 323.915 16.3851C322.578 15.6279 321.53 14.5887 320.773 13.2675C320.016 11.9303 319.637 10.4319 319.637 8.77245C319.637 7.11297 320.016 5.62266 320.773 4.30152C321.53 2.98038 322.578 1.94925 323.915 1.20812C325.252 0.450884 326.767 0.0722656 328.458 0.0722656C330.134 0.0722656 331.64 0.450884 332.977 1.20812C334.331 1.94925 335.386 2.98038 336.143 4.30152C336.901 5.62266 337.279 7.11297 337.279 8.77245C337.279 10.4319 336.901 11.9303 336.143 13.2675C335.386 14.5887 334.331 15.6279 332.977 16.3851C331.64 17.1262 330.134 17.4968 328.458 17.4968ZM328.458 14.4276C329.473 14.4276 330.359 14.1859 331.117 13.7026C331.874 13.2192 332.454 12.5506 332.857 11.6967C333.259 10.8428 333.461 9.86803 333.461 8.77245C333.461 7.67687 333.259 6.70213 332.857 5.84822C332.454 4.99432 331.874 4.32569 331.117 3.84235C330.359 3.359 329.473 3.11733 328.458 3.11733C327.443 3.11733 326.557 3.359 325.8 3.84235C325.043 4.32569 324.455 4.99432 324.036 5.84822C323.633 6.70213 323.431 7.67687 323.431 8.77245C323.431 9.86803 323.633 10.8428 324.036 11.6967C324.455 12.5506 325.043 13.2192 325.8 13.7026C326.557 14.1859 327.443 14.4276 328.458 14.4276Z" fill="#FFBA72"/>
<path d="M305.129 0.338867H313.515C314.739 0.338867 315.77 0.467759 316.608 0.725542C317.462 0.967214 318.114 1.37806 318.566 1.95807C319.033 2.52197 319.266 3.24699 319.266 4.13312C319.266 4.87424 319.105 5.49453 318.783 5.99399C318.461 6.47733 317.994 6.83984 317.381 7.08151C316.785 7.32318 316.06 7.46819 315.206 7.51652V9.47406C316.189 9.49017 317.019 9.61907 317.696 9.86074C318.388 10.1024 318.92 10.473 319.291 10.9724C319.661 11.4719 319.846 12.1244 319.846 12.93C319.846 13.8644 319.589 14.6458 319.073 15.2742C318.574 15.9025 317.873 16.3778 316.971 16.7001C316.068 17.0223 315.021 17.1834 313.829 17.1834H305.129V0.338867ZM313.128 14.2833C313.74 14.2833 314.264 14.2108 314.699 14.0658C315.15 13.9047 315.488 13.663 315.714 13.3408C315.956 13.0186 316.076 12.6077 316.076 12.1083C316.076 11.6411 315.956 11.2544 315.714 10.9483C315.488 10.6421 315.158 10.4166 314.723 10.2716C314.288 10.1266 313.756 10.0541 313.128 10.0541H308.875V14.2833H313.128ZM312.572 7.29902C313.555 7.29902 314.288 7.1379 314.771 6.81567C315.271 6.47733 315.521 5.94565 315.521 5.22064C315.521 4.52785 315.271 4.02839 314.771 3.72227C314.288 3.40004 313.555 3.23893 312.572 3.23893H308.875V7.29902H312.572Z" fill="#FFBA72"/>
<path d="M293.457 17.5217C292.103 17.5217 290.927 17.2317 289.928 16.6517C288.929 16.0717 288.148 15.2178 287.584 14.09L289.856 11.7941C290.194 12.5997 290.637 13.2119 291.185 13.6308C291.733 14.0497 292.361 14.2592 293.07 14.2592C293.956 14.2592 294.665 14.0175 295.197 13.5342C295.728 13.0347 295.994 12.2855 295.994 11.2866V0.338867H299.74V11.7216C299.74 12.9622 299.466 14.0255 298.918 14.9117C298.371 15.7817 297.621 16.4342 296.671 16.8692C295.72 17.3042 294.649 17.5217 293.457 17.5217Z" fill="#FFBA72"/>
<path d="M274.183 0.338867H280.587C282.488 0.338867 284.139 0.709431 285.541 1.45056C286.943 2.17557 288.014 3.17448 288.755 4.44729C289.497 5.72009 289.867 7.16207 289.867 8.77321C289.867 10.3199 289.497 11.7377 288.755 13.0266C288.014 14.2994 286.943 15.3145 285.541 16.0717C284.139 16.8128 282.488 17.1834 280.587 17.1834H274.183V0.338867ZM276.986 14.1383H280.345C281.521 14.1383 282.536 13.9128 283.39 13.4616C284.26 13.0105 284.921 12.3822 285.372 11.5766C285.839 10.7549 286.073 9.82046 286.073 8.77321C286.073 7.72597 285.839 6.79956 285.372 5.99399C284.921 5.1723 284.26 4.5359 283.39 4.08478C282.536 3.61755 281.521 3.38393 280.345 3.38393H276.986L277.904 2.48975V15.0567L276.986 14.1383Z" fill="#FFBA72"/>
<path d="M487.979 0.169434H501.295V3.2145H490.782L491.701 2.34448V7.9271L490.782 7.08125H500.546V9.95714H490.782L491.701 9.15963V14.8872L490.782 13.9689H501.585V17.014H487.979V0.169434Z" fill="#FFBA72"/>
<path d="M473.817 0.169434H487.133V3.2145H476.62L477.538 2.34448V7.9271L476.62 7.08125H486.384V9.95714H476.62L477.538 9.15963V14.8872L476.62 13.9689H487.423V17.014H473.817V0.169434Z" fill="#FFBA72"/>
<path d="M457.553 0.169434H463.958C465.859 0.169434 467.51 0.539997 468.912 1.28112C470.313 2.00614 471.385 3.00505 472.126 4.27785C472.867 5.55066 473.238 6.99264 473.238 8.60378C473.238 10.1505 472.867 11.5683 472.126 12.8572C471.385 14.13 470.313 15.145 468.912 15.9023C467.51 16.6434 465.859 17.014 463.958 17.014H457.553V0.169434ZM460.357 13.9689H463.716C464.892 13.9689 465.907 13.7433 466.761 13.2922C467.631 12.8411 468.292 12.2127 468.743 11.4072C469.21 10.5855 469.443 9.65102 469.443 8.60378C469.443 7.55654 469.21 6.63013 468.743 5.82455C468.292 5.00287 467.631 4.36647 466.761 3.91535C465.907 3.44811 464.892 3.2145 463.716 3.2145H460.357L461.275 2.32031V14.8872L460.357 13.9689Z" fill="#FFBA72"/>
<path d="M436.805 0.169434H443.209C445.11 0.169434 446.762 0.539997 448.164 1.28112C449.565 2.00614 450.637 3.00505 451.378 4.27785C452.119 5.55066 452.489 6.99264 452.489 8.60378C452.489 10.1505 452.119 11.5683 451.378 12.8572C450.637 14.13 449.565 15.145 448.164 15.9023C446.762 16.6434 445.11 17.014 443.209 17.014H436.805V0.169434ZM439.608 13.9689H442.968C444.144 13.9689 445.159 13.7433 446.013 13.2922C446.883 12.8411 447.543 12.2127 447.994 11.4072C448.462 10.5855 448.695 9.65102 448.695 8.60378C448.695 7.55654 448.462 6.63013 447.994 5.82455C447.543 5.00287 446.883 4.36647 446.013 3.91535C445.159 3.44811 444.144 3.2145 442.968 3.2145H439.608L440.527 2.32031V14.8872L439.608 13.9689Z" fill="#FFBA72"/>
<path d="M425.108 17.3523C423.755 17.3523 422.579 17.0623 421.58 16.4823C420.581 15.9023 419.8 15.0484 419.236 13.9206L421.508 11.6247C421.846 12.4303 422.289 13.0425 422.837 13.4614C423.385 13.8803 424.013 14.0897 424.722 14.0897C425.608 14.0897 426.317 13.8481 426.849 13.3647C427.38 12.8653 427.646 12.1161 427.646 11.1172V0.169434H431.392V11.5522C431.392 12.7928 431.118 13.8561 430.57 14.7422C430.022 15.6123 429.273 16.2648 428.323 16.6998C427.372 17.1348 426.301 17.3523 425.108 17.3523Z" fill="#FFBA72"/>
<path d="M405.834 0.169434H412.239C414.14 0.169434 415.791 0.539997 417.193 1.28112C418.595 2.00614 419.666 3.00505 420.407 4.27785C421.148 5.55066 421.519 6.99264 421.519 8.60378C421.519 10.1505 421.148 11.5683 420.407 12.8572C419.666 14.13 418.595 15.145 417.193 15.9023C415.791 16.6434 414.14 17.014 412.239 17.014H405.834V0.169434ZM408.638 13.9689H411.997C413.173 13.9689 414.188 13.7433 415.042 13.2922C415.912 12.8411 416.573 12.2127 417.024 11.4072C417.491 10.5855 417.725 9.65102 417.725 8.60378C417.725 7.55654 417.491 6.63013 417.024 5.82455C416.573 5.00287 415.912 4.36647 415.042 3.91535C414.188 3.44811 413.173 3.2145 411.997 3.2145H408.638L409.556 2.32031V14.8872L408.638 13.9689Z" fill="#FFBA72"/>
<path d="M624.891 0.301758H628.25L637.699 11.9503L639.464 10.742C638.868 10.0814 638.376 9.47723 637.989 8.92944C637.603 8.38165 637.289 7.79358 637.047 7.16524C636.805 6.52078 636.684 5.85215 636.684 5.15936V0.301758H640.43V17.1463H637.337L627.791 5.4252L625.978 6.60939C626.655 7.25385 627.187 7.89025 627.573 8.5186C628.266 9.63029 628.613 10.8467 628.613 12.1678V17.1463H624.891V0.301758Z" fill="#FFBA72"/>
<path d="M615.387 17.4612C613.696 17.4612 612.181 17.0906 610.844 16.3495C609.507 15.5922 608.46 14.553 607.702 13.2319C606.945 11.8947 606.566 10.3963 606.566 8.73681C606.566 7.07733 606.945 5.58702 607.702 4.26588C608.46 2.94474 609.507 1.91361 610.844 1.17248C612.181 0.41524 613.696 0.0366211 615.387 0.0366211C617.063 0.0366211 618.569 0.41524 619.907 1.17248C621.26 1.91361 622.315 2.94474 623.073 4.26588C623.83 5.58702 624.208 7.07733 624.208 8.73681C624.208 10.3963 623.83 11.8947 623.073 13.2319C622.315 14.553 621.26 15.5922 619.907 16.3495C618.569 17.0906 617.063 17.4612 615.387 17.4612ZM615.387 14.3919C616.402 14.3919 617.289 14.1503 618.046 13.6669C618.803 13.1836 619.383 12.5149 619.786 11.661C620.189 10.8071 620.39 9.83239 620.39 8.73681C620.39 7.64123 620.189 6.66649 619.786 5.81258C619.383 4.95867 618.803 4.29005 618.046 3.8067C617.289 3.32336 616.402 3.08169 615.387 3.08169C614.372 3.08169 613.486 3.32336 612.729 3.8067C611.972 4.29005 611.384 4.95867 610.965 5.81258C610.562 6.66649 610.361 7.64123 610.361 8.73681C610.361 9.83239 610.562 10.8071 610.965 11.661C611.384 12.5149 611.972 13.1836 612.729 13.6669C613.486 14.1503 614.372 14.3919 615.387 14.3919Z" fill="#FFBA72"/>
<path d="M602.133 0.301758H605.879V17.1463H602.133V0.301758ZM591.186 0.301758H594.907V17.1463H591.186V0.301758ZM594.593 7.09274H602.472V10.1378H594.593V7.09274Z" fill="#FFBA72"/>
<path d="M581.757 2.42847L582.603 3.34682H576.174V0.301758H591.085V3.34682H584.657L585.503 2.42847V17.1463H581.757V2.42847Z" fill="#FFBA72"/>
<path d="M566.975 10.7903L560.667 0.301758H564.775C565.597 1.63901 566.217 2.77487 566.636 3.70933C567.071 4.62768 567.369 5.51381 567.53 6.36772C567.708 7.20552 567.796 8.18832 567.796 9.31612H569.923C569.923 8.18832 570.004 7.19746 570.165 6.34355C570.342 5.48965 570.64 4.60352 571.059 3.68516C571.478 2.76681 572.098 1.63901 572.92 0.301758H577.052L570.721 10.7903V17.1463H566.975V10.7903Z" fill="#FFBA72"/>
<path d="M547.873 0.301758H555.413C556.847 0.301758 558.071 0.527318 559.086 0.978439C560.117 1.41345 560.899 2.05791 561.43 2.91181C561.978 3.76572 562.252 4.7888 562.252 5.98105C562.252 7.80164 561.648 9.23556 560.439 10.2828C559.231 11.33 557.556 11.8537 555.413 11.8537H550.676L551.594 11.0078V17.1463H547.873V0.301758ZM550.676 8.95361H554.954C556.114 8.95361 557 8.71194 557.612 8.22859C558.224 7.72914 558.53 7.01218 558.53 6.07771C558.53 5.19158 558.224 4.5149 557.612 4.04767C557 3.58044 556.106 3.34682 554.929 3.34682H550.676L551.594 2.50097V9.77529L550.676 8.95361Z" fill="#FFBA72"/>
<path d="M536.176 17.4846C534.823 17.4846 533.647 17.1946 532.648 16.6146C531.649 16.0346 530.867 15.1807 530.303 14.0529L532.575 11.757C532.914 12.5626 533.357 13.1748 533.904 13.5937C534.452 14.0126 535.081 14.2221 535.789 14.2221C536.676 14.2221 537.384 13.9804 537.916 13.497C538.448 12.9976 538.714 12.2484 538.714 11.2495V0.301758H542.46V11.6845C542.46 12.9251 542.186 13.9884 541.638 14.8746C541.09 15.7446 540.341 16.3971 539.39 16.8321C538.44 17.2671 537.368 17.4846 536.176 17.4846Z" fill="#FFBA72"/>
<path d="M516.902 0.302246H523.307C525.208 0.302246 526.859 0.67281 528.261 1.41394C529.663 2.13895 530.734 3.13786 531.475 4.41067C532.216 5.68347 532.587 7.12545 532.587 8.73659C532.587 10.2833 532.216 11.7011 531.475 12.99C530.734 14.2628 529.663 15.2778 528.261 16.0351C526.859 16.7762 525.208 17.1468 523.307 17.1468H516.902V0.302246ZM519.706 14.1017H523.065C524.241 14.1017 525.256 13.8761 526.11 13.425C526.98 12.9739 527.641 12.3456 528.092 11.54C528.559 10.7183 528.793 9.78384 528.793 8.73659C528.793 7.68935 528.559 6.76294 528.092 5.95737C527.641 5.13568 526.98 4.49928 526.11 4.04816C525.256 3.58093 524.241 3.34731 523.065 3.34731H519.706L520.624 2.45313V15.0201L519.706 14.1017Z" fill="#FFBA72"/>
</svg>
