<svg width="641" height="18" viewBox="0 0 641 18" fill="none" xmlns="http://www.w3.org/2000/svg">
<path d="M420.443 0.342106H423.84L433.395 12.1204L435.179 10.8986C434.576 10.2307 434.079 9.61979 433.688 9.0659C433.297 8.51201 432.979 7.91739 432.735 7.28204C432.491 6.6304 432.368 5.95434 432.368 5.25383V0.342106H436.156V17.3743H433.028L423.376 5.52262L421.543 6.72001C422.227 7.37165 422.765 8.01514 423.156 8.65049C423.856 9.77456 424.207 11.0045 424.207 12.3404V17.3743H420.443V0.342106Z" fill="#FFBA72"/>
<path d="M410.834 17.692C409.124 17.692 407.592 17.3173 406.24 16.5679C404.888 15.8022 403.829 14.7514 403.063 13.4156C402.298 12.0634 401.915 10.5484 401.915 8.87042C401.915 7.19245 402.298 5.68554 403.063 4.34969C403.829 3.01383 404.888 1.97121 406.24 1.22182C407.592 0.456149 409.124 0.0733134 410.834 0.0733134C412.528 0.0733134 414.051 0.456149 415.404 1.22182C416.772 1.97121 417.839 3.01383 418.605 4.34969C419.37 5.68554 419.753 7.19245 419.753 8.87042C419.753 10.5484 419.37 12.0634 418.605 13.4156C417.839 14.7514 416.772 15.8022 415.404 16.5679C414.051 17.3173 412.528 17.692 410.834 17.692ZM410.834 14.5885C411.86 14.5885 412.756 14.3442 413.522 13.8554C414.288 13.3667 414.874 12.6906 415.281 11.8272C415.689 10.9638 415.892 9.9782 415.892 8.87042C415.892 7.76264 415.689 6.77704 415.281 5.91362C414.874 5.0502 414.288 4.37412 413.522 3.88539C412.756 3.39666 411.86 3.15231 410.834 3.15231C409.808 3.15231 408.912 3.39666 408.146 3.88539C407.38 4.37412 406.786 5.0502 406.362 5.91362C405.955 6.77704 405.751 7.76264 405.751 8.87042C405.751 9.9782 405.955 10.9638 406.362 11.8272C406.786 12.6906 407.38 13.3667 408.146 13.8554C408.912 14.3442 409.808 14.5885 410.834 14.5885Z" fill="#FFBA72"/>
<path d="M392.672 17.692C390.961 17.692 389.43 17.3173 388.078 16.5679C386.726 15.8022 385.667 14.7514 384.901 13.4156C384.135 12.0634 383.753 10.5484 383.753 8.87042C383.753 7.19245 384.135 5.68554 384.901 4.34969C385.667 3.01383 386.726 1.97121 388.078 1.22182C389.43 0.456149 390.961 0.0733134 392.672 0.0733134C394.366 0.0733134 395.889 0.456149 397.242 1.22182C398.61 1.97121 399.677 3.01383 400.443 4.34969C401.208 5.68554 401.591 7.19245 401.591 8.87042C401.591 10.5484 401.208 12.0634 400.443 13.4156C399.677 14.7514 398.61 15.8022 397.242 16.5679C395.889 17.3173 394.366 17.692 392.672 17.692ZM392.672 14.5885C393.698 14.5885 394.594 14.3442 395.36 13.8554C396.126 13.3667 396.712 12.6906 397.119 11.8272C397.527 10.9638 397.73 9.9782 397.73 8.87042C397.73 7.76264 397.527 6.77704 397.119 5.91362C396.712 5.0502 396.126 4.37412 395.36 3.88539C394.594 3.39666 393.698 3.15231 392.672 3.15231C391.646 3.15231 390.75 3.39666 389.984 3.88539C389.218 4.37412 388.624 5.0502 388.2 5.91362C387.793 6.77704 387.589 7.76264 387.589 8.87042C387.589 9.9782 387.793 10.9638 388.2 11.8272C388.624 12.6906 389.218 13.3667 389.984 13.8554C390.75 14.3442 391.646 14.5885 392.672 14.5885Z" fill="#FFBA72"/>
<path d="M376.984 17.692C375.567 17.692 374.32 17.5128 373.245 17.1544C372.186 16.796 371.364 16.2828 370.777 15.6149C370.191 14.9306 369.897 14.1487 369.897 13.269C369.897 12.4707 370.134 11.8028 370.606 11.2652C371.078 10.7276 371.714 10.3203 372.512 10.0434C373.327 9.75013 374.231 9.59536 375.224 9.57907V7.59973C374.1 7.55085 373.115 7.41239 372.268 7.18432C371.421 6.93995 370.744 6.56526 370.239 6.06024C369.734 5.55522 369.482 4.89543 369.482 4.08089C369.482 3.25005 369.751 2.53325 370.288 1.93049C370.826 1.31143 371.6 0.838987 372.61 0.513167C373.62 0.187349 374.793 0.0244437 376.129 0.0244437C377.741 0.0244437 379.208 0.244374 380.527 0.684229C381.847 1.12408 383.117 1.75943 384.339 2.59026L382.653 5.35158C381.839 4.68365 380.845 4.14605 379.672 3.73877C378.515 3.3315 377.375 3.11972 376.251 3.10343C375.322 3.10343 374.614 3.26634 374.125 3.59215C373.636 3.90168 373.392 4.30896 373.392 4.81398C373.392 5.17238 373.514 5.48191 373.758 5.74256C374.003 5.98693 374.345 6.19871 374.785 6.37791C375.241 6.54082 375.819 6.68743 376.52 6.81776L378.548 7.28205C380.275 7.64045 381.627 8.23507 382.604 9.06591C383.598 9.89675 384.095 11.0127 384.095 12.4137C384.095 13.3423 383.81 14.2138 383.24 15.0284C382.669 15.8266 381.847 16.4701 380.772 16.9589C379.696 17.4476 378.434 17.692 376.984 17.692ZM377.082 14.9795C377.733 14.9795 378.295 14.8655 378.768 14.6374C379.256 14.4093 379.623 14.1079 379.867 13.7333C380.128 13.3586 380.258 12.9432 380.258 12.487C380.258 11.982 380.12 11.5421 379.843 11.1674C379.582 10.7765 379.199 10.4751 378.694 10.2633C378.206 10.0352 377.644 9.92119 377.008 9.92119C376.406 9.92119 375.86 10.0271 375.371 10.2389C374.882 10.4506 374.499 10.752 374.223 11.143C373.946 11.5177 373.807 11.9575 373.807 12.4626C373.807 12.935 373.946 13.3667 374.223 13.7577C374.499 14.1324 374.882 14.4338 375.371 14.6618C375.876 14.8736 376.446 14.9795 377.082 14.9795Z" fill="#FFBA72"/>
<path d="M362.521 17.692C361.103 17.692 359.857 17.5128 358.782 17.1544C357.723 16.796 356.9 16.2828 356.314 15.6149C355.727 14.9306 355.434 14.1487 355.434 13.269C355.434 12.4707 355.67 11.8028 356.143 11.2652C356.615 10.7276 357.251 10.3203 358.049 10.0434C358.863 9.75013 359.768 9.59536 360.761 9.57907V7.59973C359.637 7.55085 358.652 7.41239 357.804 7.18432C356.957 6.93995 356.281 6.56526 355.776 6.06024C355.271 5.55522 355.019 4.89543 355.019 4.08089C355.019 3.25005 355.288 2.53325 355.825 1.93049C356.363 1.31143 357.137 0.838987 358.147 0.513167C359.157 0.187349 360.33 0.0244437 361.665 0.0244437C363.278 0.0244437 364.744 0.244374 366.064 0.684229C367.383 1.12408 368.654 1.75943 369.876 2.59026L368.19 5.35158C367.375 4.68365 366.382 4.14605 365.209 3.73877C364.052 3.3315 362.912 3.11972 361.788 3.10343C360.859 3.10343 360.15 3.26634 359.662 3.59215C359.173 3.90168 358.928 4.30896 358.928 4.81398C358.928 5.17238 359.051 5.48191 359.295 5.74256C359.539 5.98693 359.882 6.19871 360.321 6.37791C360.778 6.54082 361.356 6.68743 362.056 6.81776L364.085 7.28205C365.811 7.64045 367.164 8.23507 368.141 9.06591C369.135 9.89675 369.632 11.0127 369.632 12.4137C369.632 13.3423 369.347 14.2138 368.776 15.0284C368.206 15.8266 367.383 16.4701 366.308 16.9589C365.233 17.4476 363.971 17.692 362.521 17.692ZM362.618 14.9795C363.27 14.9795 363.832 14.8655 364.305 14.6374C364.793 14.4093 365.16 14.1079 365.404 13.7333C365.665 13.3586 365.795 12.9432 365.795 12.487C365.795 11.982 365.657 11.5421 365.38 11.1674C365.119 10.7765 364.736 10.4751 364.231 10.2633C363.742 10.0352 363.18 9.92119 362.545 9.92119C361.942 9.92119 361.397 10.0271 360.908 10.2389C360.419 10.4506 360.036 10.752 359.759 11.143C359.482 11.5177 359.344 11.9575 359.344 12.4626C359.344 12.935 359.482 13.3667 359.759 13.7577C360.036 14.1324 360.419 14.4338 360.908 14.6618C361.413 14.8736 361.983 14.9795 362.618 14.9795Z" fill="#FFBA72"/>
<path d="M352.595 17.3743L350.763 12.7069L351.911 13.5133H342.845L343.994 12.7069L342.137 17.3743H338.129L345.387 0.342106H349.345L356.627 17.3743H352.595ZM346.389 3.17674C346.405 3.81208 346.397 4.40669 346.364 4.96059C346.332 5.49819 346.258 6.03579 346.144 6.57339C346.046 7.0947 345.908 7.6323 345.729 8.18619C345.517 8.78896 345.061 9.80714 344.36 11.2407L343.823 10.6787H350.909L350.372 11.2407C350.03 10.5402 349.712 9.82343 349.419 9.09033C348.995 8.06401 348.718 7.11099 348.588 6.23128C348.458 5.33528 348.409 4.3171 348.441 3.17674H346.389Z" fill="#FFBA72"/>
<path d="M332.353 17.692C330.936 17.692 329.69 17.5128 328.614 17.1544C327.555 16.796 326.733 16.2828 326.146 15.6149C325.56 14.9306 325.267 14.1487 325.267 13.269C325.267 12.4707 325.503 11.8028 325.975 11.2652C326.448 10.7276 327.083 10.3203 327.881 10.0434C328.696 9.75013 329.6 9.59536 330.594 9.57907V7.59973C329.47 7.55085 328.484 7.41239 327.637 7.18432C326.79 6.93995 326.114 6.56526 325.609 6.06024C325.104 5.55522 324.851 4.89543 324.851 4.08089C324.851 3.25005 325.12 2.53325 325.658 1.93049C326.195 1.31143 326.969 0.838987 327.979 0.513167C328.989 0.187349 330.162 0.0244437 331.498 0.0244437C333.111 0.0244437 334.577 0.244374 335.896 0.684229C337.216 1.12408 338.487 1.75943 339.709 2.59026L338.022 5.35158C337.208 4.68365 336.214 4.14605 335.041 3.73877C333.884 3.3315 332.744 3.11972 331.62 3.10343C330.691 3.10343 329.983 3.26634 329.494 3.59215C329.005 3.90168 328.761 4.30896 328.761 4.81398C328.761 5.17238 328.883 5.48191 329.128 5.74256C329.372 5.98693 329.714 6.19871 330.154 6.37791C330.61 6.54082 331.188 6.68743 331.889 6.81776L333.917 7.28205C335.644 7.64045 336.996 8.23507 337.974 9.06591C338.967 9.89675 339.464 11.0127 339.464 12.4137C339.464 13.3423 339.179 14.2138 338.609 15.0284C338.039 15.8266 337.216 16.4701 336.141 16.9589C335.066 17.4476 333.803 17.692 332.353 17.692ZM332.451 14.9795C333.103 14.9795 333.665 14.8655 334.137 14.6374C334.626 14.4093 334.992 14.1079 335.237 13.7333C335.497 13.3586 335.628 12.9432 335.628 12.487C335.628 11.982 335.489 11.5421 335.212 11.1674C334.952 10.7765 334.569 10.4751 334.064 10.2633C333.575 10.0352 333.013 9.92119 332.378 9.92119C331.775 9.92119 331.229 10.0271 330.74 10.2389C330.252 10.4506 329.869 10.752 329.592 11.143C329.315 11.5177 329.176 11.9575 329.176 12.4626C329.176 12.935 329.315 13.3667 329.592 13.7577C329.869 14.1324 330.252 14.4338 330.74 14.6618C331.245 14.8736 331.816 14.9795 332.451 14.9795Z" fill="#FFBA72"/>
<path d="M312.877 17.692C311.459 17.692 310.213 17.5128 309.138 17.1544C308.079 16.796 307.256 16.2828 306.67 15.6149C306.083 14.9306 305.79 14.1487 305.79 13.269C305.79 12.4707 306.026 11.8028 306.499 11.2652C306.971 10.7276 307.606 10.3203 308.405 10.0434C309.219 9.75013 310.123 9.59536 311.117 9.57907V7.59973C309.993 7.55085 309.007 7.41239 308.16 7.18432C307.313 6.93995 306.637 6.56526 306.132 6.06024C305.627 5.55522 305.375 4.89543 305.375 4.08089C305.375 3.25005 305.643 2.53325 306.181 1.93049C306.719 1.31143 307.492 0.838987 308.502 0.513167C309.512 0.187349 310.685 0.0244437 312.021 0.0244437C313.634 0.0244437 315.1 0.244374 316.42 0.684229C317.739 1.12408 319.01 1.75943 320.232 2.59026L318.546 5.35158C317.731 4.68365 316.737 4.14605 315.565 3.73877C314.408 3.3315 313.268 3.11972 312.143 3.10343C311.215 3.10343 310.506 3.26634 310.017 3.59215C309.529 3.90168 309.284 4.30896 309.284 4.81398C309.284 5.17238 309.407 5.48191 309.651 5.74256C309.895 5.98693 310.237 6.19871 310.677 6.37791C311.133 6.54082 311.712 6.68743 312.412 6.81776L314.44 7.28205C316.167 7.64045 317.519 8.23507 318.497 9.06591C319.491 9.89675 319.988 11.0127 319.988 12.4137C319.988 13.3423 319.702 14.2138 319.132 15.0284C318.562 15.8266 317.739 16.4701 316.664 16.9589C315.589 17.4476 314.326 17.692 312.877 17.692ZM312.974 14.9795C313.626 14.9795 314.188 14.8655 314.66 14.6374C315.149 14.4093 315.516 14.1079 315.76 13.7333C316.021 13.3586 316.151 12.9432 316.151 12.487C316.151 11.982 316.013 11.5421 315.736 11.1674C315.475 10.7765 315.092 10.4751 314.587 10.2633C314.098 10.0352 313.536 9.92119 312.901 9.92119C312.298 9.92119 311.752 10.0271 311.264 10.2389C310.775 10.4506 310.392 10.752 310.115 11.143C309.838 11.5177 309.7 11.9575 309.7 12.4626C309.7 12.935 309.838 13.3667 310.115 13.7577C310.392 14.1324 310.775 14.4338 311.264 14.6618C311.769 14.8736 312.339 14.9795 312.974 14.9795Z" fill="#FFBA72"/>
<path d="M302.951 17.3743L301.119 12.7069L302.267 13.5133H293.201L294.35 12.7069L292.493 17.3743H288.485L295.743 0.342106H299.701L306.983 17.3743H302.951ZM296.745 3.17674C296.761 3.81208 296.753 4.40669 296.72 4.96059C296.687 5.49819 296.614 6.03579 296.5 6.57339C296.402 7.0947 296.264 7.6323 296.085 8.18619C295.873 8.78896 295.417 9.80714 294.716 11.2407L294.179 10.6787H301.265L300.728 11.2407C300.386 10.5402 300.068 9.82343 299.775 9.09033C299.351 8.06401 299.074 7.11099 298.944 6.23128C298.813 5.33528 298.765 4.3171 298.797 3.17674H296.745Z" fill="#FFBA72"/>
<path d="M276.455 0.342106H280.218V15.2239L279.289 14.2953H289.382V17.3743H276.455V0.342106Z" fill="#FFBA72"/>
<path d="M266.845 17.692C265.135 17.692 263.604 17.3173 262.251 16.5679C260.899 15.8022 259.84 14.7514 259.075 13.4156C258.309 12.0634 257.926 10.5484 257.926 8.87042C257.926 7.19245 258.309 5.68554 259.075 4.34969C259.84 3.01383 260.899 1.97121 262.251 1.22182C263.604 0.456149 265.135 0.0733134 266.845 0.0733134C268.54 0.0733134 270.063 0.456149 271.415 1.22182C272.783 1.97121 273.851 3.01383 274.616 4.34969C275.382 5.68554 275.765 7.19245 275.765 8.87042C275.765 10.5484 275.382 12.0634 274.616 13.4156C273.851 14.7514 272.783 15.8022 271.415 16.5679C270.063 17.3173 268.54 17.692 266.845 17.692ZM266.845 14.5885C267.872 14.5885 268.768 14.3442 269.533 13.8554C270.299 13.3667 270.886 12.6906 271.293 11.8272C271.7 10.9638 271.904 9.9782 271.904 8.87042C271.904 7.76264 271.7 6.77704 271.293 5.91362C270.886 5.0502 270.299 4.37412 269.533 3.88539C268.768 3.39666 267.872 3.15231 266.845 3.15231C265.819 3.15231 264.923 3.39666 264.157 3.88539C263.392 4.37412 262.797 5.0502 262.374 5.91362C261.966 6.77704 261.763 7.76264 261.763 8.87042C261.763 9.9782 261.966 10.9638 262.374 11.8272C262.797 12.6906 263.392 13.3667 264.157 13.8554C264.923 14.3442 265.819 14.5885 266.845 14.5885Z" fill="#FFBA72"/>
<path d="M252.068 17.7164C250.39 17.7164 248.883 17.3498 247.547 16.6167C246.228 15.8674 245.193 14.8247 244.444 13.4889C243.694 12.1367 243.32 10.5891 243.32 8.84598C243.32 7.10285 243.694 5.56334 244.444 4.22749C245.209 2.89163 246.268 1.85717 247.62 1.12407C248.989 0.374691 250.537 0 252.263 0C253.616 0 254.813 0.219921 255.856 0.659777C256.898 1.09963 257.859 1.72684 258.739 2.54138L256.833 5.05833C256.23 4.47185 255.579 4.02386 254.878 3.71433C254.178 3.38851 253.387 3.2256 252.508 3.2256C251.465 3.2256 250.528 3.46997 249.698 3.9587C248.883 4.43113 248.248 5.09906 247.792 5.96248C247.335 6.8259 247.107 7.8115 247.107 8.91928C247.107 10.0271 247.335 10.9964 247.792 11.8272C248.264 12.658 248.908 13.3015 249.722 13.7577C250.553 14.1975 251.49 14.4175 252.532 14.4175C253.428 14.4175 254.226 14.2383 254.927 13.8799C255.644 13.5215 256.304 13.0165 256.906 12.3648L258.861 14.9551C257.949 15.8511 256.955 16.5353 255.88 17.0077C254.821 17.4802 253.55 17.7164 252.068 17.7164Z" fill="#FFBA72"/>
<path d="M238.84 0.342106H242.603V17.3743H238.84V0.342106Z" fill="#FFBA72"/>
<path d="M222.062 0.342106H225.459L235.013 12.1204L236.797 10.8986C236.194 10.2307 235.697 9.61979 235.306 9.0659C234.915 8.51201 234.598 7.91739 234.353 7.28204C234.109 6.6304 233.987 5.95434 233.987 5.25383V0.342106H237.775V17.3743H234.647L224.994 5.52262L223.162 6.72001C223.846 7.37165 224.383 8.01514 224.774 8.65049C225.475 9.77456 225.825 11.0045 225.825 12.3404V17.3743H222.062V0.342106Z" fill="#FFBA72"/>
<path d="M191.676 0.342106H195.073L204.627 12.1204L206.411 10.8986C205.808 10.2307 205.311 9.61979 204.92 9.0659C204.529 8.51201 204.212 7.91739 203.967 7.28204C203.723 6.6304 203.601 5.95434 203.601 5.25383V0.342106H207.388V17.3743H204.261L194.608 5.52262L192.775 6.72001C193.46 7.37165 193.997 8.01514 194.388 8.65049C195.089 9.77456 195.439 11.0045 195.439 12.3404V17.3743H191.676V0.342106Z" fill="#FFBA72"/>
<path d="M176.067 0.342106H183.984C186.151 0.342106 187.772 0.724941 188.847 1.49061C189.923 2.24 190.46 3.37222 190.46 4.88727C190.46 5.81586 190.216 6.58968 189.727 7.20873C189.238 7.82779 188.579 8.30024 187.748 8.62605C186.917 8.95187 185.98 9.14735 184.938 9.21252V11.1674C185.687 11.2 186.33 11.3629 186.868 11.6562C187.422 11.9331 187.935 12.3892 188.407 13.0246L188.481 13.1224L191.609 17.3743H187.186L184.498 13.5378C184.432 13.44 184.367 13.3423 184.302 13.2445C183.83 12.5766 183.447 12.1042 183.154 11.8272C182.877 11.5503 182.567 11.3629 182.225 11.2652C181.883 11.1511 181.386 11.0941 180.734 11.0941H178.902L179.83 10.19V17.3743H176.067V0.342106ZM178.902 8.69935H183.3C184.05 8.69935 184.669 8.6016 185.157 8.40611C185.662 8.19433 186.037 7.8848 186.282 7.47753C186.542 7.07025 186.672 6.5571 186.672 5.93804C186.672 5.04204 186.396 4.37411 185.842 3.93425C185.288 3.4944 184.441 3.27447 183.3 3.27447H178.902L179.83 2.32145V9.57906L178.902 8.69935Z" fill="#FFBA72"/>
<path d="M161.747 0.342106H175.211V3.42109H164.582L165.51 2.54138V8.18619L164.582 7.33091H174.454V10.2389H164.582L165.51 9.43245V15.2239L164.582 14.2953H175.505V17.3743H161.747V0.342106Z" fill="#FFBA72"/>
<path d="M152.214 2.49251L153.069 3.42109H146.569V0.342106H161.646V3.42109H155.146L156.001 2.49251V17.3743H152.214V2.49251Z" fill="#FFBA72"/>
<path d="M140.053 17.692C138.636 17.692 137.389 17.5128 136.314 17.1544C135.255 16.796 134.433 16.2828 133.846 15.6149C133.26 14.9306 132.966 14.1487 132.966 13.269C132.966 12.4707 133.203 11.8028 133.675 11.2652C134.148 10.7276 134.783 10.3203 135.581 10.0434C136.396 9.75013 137.3 9.59536 138.294 9.57907V7.59973C137.17 7.55085 136.184 7.41239 135.337 7.18432C134.49 6.93995 133.814 6.56526 133.309 6.06024C132.804 5.55522 132.551 4.89543 132.551 4.08089C132.551 3.25005 132.82 2.53325 133.357 1.93049C133.895 1.31143 134.669 0.838987 135.679 0.513167C136.689 0.187349 137.862 0.0244437 139.198 0.0244437C140.811 0.0244437 142.277 0.244374 143.596 0.684229C144.916 1.12408 146.187 1.75943 147.408 2.59026L145.722 5.35158C144.908 4.68365 143.914 4.14605 142.741 3.73877C141.584 3.3315 140.444 3.11972 139.32 3.10343C138.391 3.10343 137.683 3.26634 137.194 3.59215C136.705 3.90168 136.461 4.30896 136.461 4.81398C136.461 5.17238 136.583 5.48191 136.827 5.74256C137.072 5.98693 137.414 6.19871 137.854 6.37791C138.31 6.54082 138.888 6.68743 139.589 6.81776L141.617 7.28205C143.344 7.64045 144.696 8.23507 145.673 9.06591C146.667 9.89675 147.164 11.0127 147.164 12.4137C147.164 13.3423 146.879 14.2138 146.309 15.0284C145.739 15.8266 144.916 16.4701 143.841 16.9589C142.765 17.4476 141.503 17.692 140.053 17.692ZM140.151 14.9795C140.802 14.9795 141.364 14.8655 141.837 14.6374C142.326 14.4093 142.692 14.1079 142.937 13.7333C143.197 13.3586 143.327 12.9432 143.327 12.487C143.327 11.982 143.189 11.5421 142.912 11.1674C142.651 10.7765 142.269 10.4751 141.764 10.2633C141.275 10.0352 140.713 9.92119 140.077 9.92119C139.475 9.92119 138.929 10.0271 138.44 10.2389C137.951 10.4506 137.569 10.752 137.292 11.143C137.015 11.5177 136.876 11.9575 136.876 12.4626C136.876 12.935 137.015 13.3667 137.292 13.7577C137.569 14.1324 137.951 14.4338 138.44 14.6618C138.945 14.8736 139.515 14.9795 140.151 14.9795Z" fill="#FFBA72"/>
<path d="M115.301 0.342106H119.064V15.2239L118.135 14.2953H128.227V17.3743H115.301V0.342106Z" fill="#FFBA72"/>
<path d="M100.981 0.342106H114.445V3.42109H103.815L104.744 2.54138V8.18619L103.815 7.33091H113.687V10.2389H103.815L104.744 9.43245V15.2239L103.815 14.2953H114.738V17.3743H100.981V0.342106Z" fill="#FFBA72"/>
<path d="M96.1343 0.342106H99.8975V17.3743H96.1343V0.342106Z" fill="#FFBA72"/>
<path d="M79.3562 0.342106H82.7529L92.3075 12.1204L94.0914 10.8986C93.4886 10.2307 92.9918 9.61979 92.6008 9.0659C92.2098 8.51201 91.8921 7.91739 91.6477 7.28204C91.4034 6.6304 91.2812 5.95434 91.2812 5.25383V0.342106H95.0688V17.3743H91.941L82.2886 5.52262L80.4559 6.72001C81.1401 7.37165 81.6777 8.01514 82.0687 8.65049C82.7692 9.77456 83.1194 11.0045 83.1194 12.3404V17.3743H79.3562V0.342106Z" fill="#FFBA72"/>
<path d="M75.2318 17.3743L73.3991 12.7069L74.5476 13.5133H65.4817L66.6302 12.7069L64.7731 17.3743H60.7655L68.0231 0.342106H71.9818L79.2638 17.3743H75.2318ZM69.025 3.17674C69.0413 3.81208 69.0331 4.40669 69.0006 4.96059C68.968 5.49819 68.8947 6.03579 68.7806 6.57339C68.6829 7.0947 68.5444 7.6323 68.3652 8.18619C68.1534 8.78896 67.6973 9.80714 66.9968 11.2407L66.4592 10.6787H73.5457L73.0081 11.2407C72.666 10.5402 72.3483 9.82343 72.0551 9.09033C71.6315 8.06401 71.3546 7.11099 71.2243 6.23128C71.0939 5.33528 71.0451 4.3171 71.0777 3.17674H69.025Z" fill="#FFBA72"/>
<path d="M56.8937 0.342106H60.6813V17.3743H56.8937V0.342106ZM45.824 0.342106H49.5872V17.3743H45.824V0.342106ZM49.2695 7.20873H57.2358V10.2877H49.2695V7.20873Z" fill="#FFBA72"/>
<path d="M36.2905 2.49251L37.1458 3.42109H30.6457V0.342106H45.723V3.42109H39.2229L40.0782 2.49251V17.3743H36.2905V2.49251Z" fill="#FFBA72"/>
<path d="M30.267 17.3743L28.4342 12.7069L29.5827 13.5133H20.5168L21.6653 12.7069L19.8082 17.3743H15.8006L23.0582 0.342106H27.0169L34.299 17.3743H30.267ZM24.0601 3.17674C24.0764 3.81208 24.0683 4.40669 24.0357 4.96059C24.0031 5.49819 23.9298 6.03579 23.8158 6.57339C23.718 7.0947 23.5795 7.6323 23.4003 8.18619C23.1886 8.78896 22.7324 9.80714 22.0319 11.2407L21.4943 10.6787H28.5808L28.0433 11.2407C27.7012 10.5402 27.3835 9.82343 27.0902 9.09033C26.6667 8.06401 26.3897 7.11099 26.2594 6.23128C26.1291 5.33528 26.0802 4.3171 26.1128 3.17674H24.0601Z" fill="#FFBA72"/>
<path d="M0 0.342106H3.39668L12.9513 12.1204L14.7352 10.8986C14.1324 10.2307 13.6355 9.61979 13.2445 9.0659C12.8536 8.51201 12.5359 7.91739 12.2915 7.28204C12.0472 6.6304 11.925 5.95434 11.925 5.25383V0.342106H15.7126V17.3743H12.5848L2.93238 5.52262L1.09964 6.72001C1.78386 7.37165 2.32146 8.01514 2.71245 8.65049C3.41296 9.77456 3.76322 11.0045 3.76322 12.3404V17.3743H0V0.342106Z" fill="#FFBA72"/>
<path d="M625.06 0.558105H632.89C635.033 0.558105 636.636 0.936725 637.699 1.69396C638.763 2.43509 639.295 3.55484 639.295 5.0532C639.295 5.97155 639.053 6.73685 638.57 7.34908C638.086 7.96132 637.434 8.42855 636.612 8.75078C635.79 9.07301 634.864 9.26635 633.833 9.33079V11.2642C634.574 11.2964 635.21 11.4575 635.742 11.7475C636.29 12.0214 636.797 12.4725 637.264 13.1009L637.337 13.1975L640.43 17.4026H636.056L633.398 13.6084C633.333 13.5117 633.269 13.415 633.204 13.3184C632.737 12.6578 632.359 12.1906 632.069 11.9167C631.795 11.6428 631.489 11.4575 631.15 11.3608C630.812 11.2481 630.32 11.1917 629.676 11.1917H627.863L628.782 10.2975V17.4026H625.06V0.558105ZM627.863 8.82328H632.214C632.955 8.82328 633.567 8.72661 634.05 8.53328C634.55 8.32383 634.92 8.01771 635.162 7.61492C635.42 7.21214 635.549 6.70463 635.549 6.09239C635.549 5.20626 635.275 4.54569 634.727 4.11068C634.179 3.67567 633.341 3.45817 632.214 3.45817H627.863L628.782 2.51565V9.6933L627.863 8.82328Z" fill="#FFBA72"/>
<path d="M615.557 17.716C613.865 17.716 612.351 17.3455 611.013 16.6044C609.676 15.8471 608.629 14.8079 607.872 13.4868C607.114 12.1495 606.736 10.6512 606.736 8.99169C606.736 7.33221 607.114 5.8419 607.872 4.52076C608.629 3.19962 609.676 2.16849 611.013 1.42736C612.351 0.670123 613.865 0.291504 615.557 0.291504C617.232 0.291504 618.739 0.670123 620.076 1.42736C621.429 2.16849 622.485 3.19962 623.242 4.52076C623.999 5.8419 624.378 7.33221 624.378 8.99169C624.378 10.6512 623.999 12.1495 623.242 13.4868C622.485 14.8079 621.429 15.8471 620.076 16.6044C618.739 17.3455 617.232 17.716 615.557 17.716ZM615.557 14.6468C616.572 14.6468 617.458 14.4051 618.215 13.9218C618.972 13.4385 619.553 12.7698 619.955 11.9159C620.358 11.062 620.559 10.0873 620.559 8.99169C620.559 7.89611 620.358 6.92137 619.955 6.06746C619.553 5.21355 618.972 4.54493 618.215 4.06158C617.458 3.57824 616.572 3.33657 615.557 3.33657C614.542 3.33657 613.656 3.57824 612.898 4.06158C612.141 4.54493 611.553 5.21355 611.134 6.06746C610.731 6.92137 610.53 7.89611 610.53 8.99169C610.53 10.0873 610.731 11.062 611.134 11.9159C611.553 12.7698 612.141 13.4385 612.898 13.9218C613.656 14.4051 614.542 14.6468 615.557 14.6468Z" fill="#FFBA72"/>
<path d="M598.472 2.68482L599.318 3.60317H592.89V0.558105H607.801V3.60317H601.372L602.218 2.68482V17.4026H598.472V2.68482Z" fill="#FFBA72"/>
<path d="M592.515 17.4026L590.702 12.7867L591.838 13.5842H582.872L584.008 12.7867L582.171 17.4026H578.208L585.386 0.558105H589.301L596.503 17.4026H592.515ZM586.377 3.3615C586.393 3.98984 586.385 4.57791 586.352 5.1257C586.32 5.65738 586.248 6.18906 586.135 6.72074C586.038 7.2363 585.901 7.76798 585.724 8.31577C585.515 8.9119 585.063 9.91886 584.371 11.3367L583.839 10.7808H590.847L590.316 11.3367C589.977 10.6439 589.663 9.93497 589.373 9.20996C588.954 8.19494 588.68 7.25242 588.552 6.3824C588.423 5.49627 588.374 4.4893 588.407 3.3615H586.377Z" fill="#FFBA72"/>
<path d="M564.682 0.558105H572.512C574.655 0.558105 576.258 0.936725 577.322 1.69396C578.385 2.43509 578.917 3.55484 578.917 5.0532C578.917 5.97155 578.675 6.73685 578.192 7.34908C577.708 7.96132 577.056 8.42855 576.234 8.75078C575.412 9.07301 574.486 9.26635 573.455 9.33079V11.2642C574.196 11.2964 574.832 11.4575 575.364 11.7475C575.912 12.0214 576.419 12.4725 576.887 13.1009L576.959 13.1975L580.052 17.4026H575.678L573.02 13.6084C572.955 13.5117 572.891 13.415 572.826 13.3184C572.359 12.6578 571.981 12.1906 571.691 11.9167C571.417 11.6428 571.111 11.4575 570.772 11.3608C570.434 11.2481 569.943 11.1917 569.298 11.1917H567.486L568.404 10.2975V17.4026H564.682V0.558105ZM567.486 8.82328H571.836C572.577 8.82328 573.189 8.72661 573.672 8.53328C574.172 8.32383 574.542 8.01771 574.784 7.61492C575.042 7.21214 575.171 6.70463 575.171 6.09239C575.171 5.20626 574.897 4.54569 574.349 4.11068C573.801 3.67567 572.963 3.45817 571.836 3.45817H567.486L568.404 2.51565V9.6933L567.486 8.82328Z" fill="#FFBA72"/>
<path d="M550.519 0.558105H563.835V3.60317H553.323L554.241 2.73315V8.31577L553.323 7.46992H563.086V10.3458H553.323L554.241 9.5483V15.2759L553.323 14.3576H564.125V17.4026H550.519V0.558105Z" fill="#FFBA72"/>
<path d="M535.555 0.558105H543.095C544.529 0.558105 545.753 0.783666 546.768 1.23479C547.799 1.6698 548.581 2.31425 549.112 3.16816C549.66 4.02207 549.934 5.04515 549.934 6.23739C549.934 8.05799 549.33 9.49191 548.122 10.5392C546.913 11.5864 545.238 12.11 543.095 12.11H538.358L539.276 11.2642V17.4026H535.555V0.558105ZM538.358 9.20996H542.636C543.796 9.20996 544.682 8.96829 545.294 8.48494C545.906 7.98549 546.212 7.26853 546.212 6.33406C546.212 5.44793 545.906 4.77125 545.294 4.30402C544.682 3.83679 543.788 3.60317 542.612 3.60317H538.358L539.276 2.75732V10.0316L538.358 9.20996Z" fill="#FFBA72"/>
<path d="M526.051 17.716C524.359 17.716 522.845 17.3455 521.507 16.6044C520.17 15.8471 519.123 14.8079 518.366 13.4868C517.608 12.1495 517.23 10.6512 517.23 8.99169C517.23 7.33221 517.608 5.8419 518.366 4.52076C519.123 3.19962 520.17 2.16849 521.507 1.42736C522.845 0.670123 524.359 0.291504 526.051 0.291504C527.726 0.291504 529.233 0.670123 530.57 1.42736C531.923 2.16849 532.979 3.19962 533.736 4.52076C534.493 5.8419 534.872 7.33221 534.872 8.99169C534.872 10.6512 534.493 12.1495 533.736 13.4868C532.979 14.8079 531.923 15.8471 530.57 16.6044C529.233 17.3455 527.726 17.716 526.051 17.716ZM526.051 14.6468C527.066 14.6468 527.952 14.4051 528.709 13.9218C529.466 13.4385 530.046 12.7698 530.449 11.9159C530.852 11.062 531.053 10.0873 531.053 8.99169C531.053 7.89611 530.852 6.92137 530.449 6.06746C530.046 5.21355 529.466 4.54493 528.709 4.06158C527.952 3.57824 527.066 3.33657 526.051 3.33657C525.036 3.33657 524.15 3.57824 523.392 4.06158C522.635 4.54493 522.047 5.21355 521.628 6.06746C521.225 6.92137 521.024 7.89611 521.024 8.99169C521.024 10.0873 521.225 11.062 521.628 11.9159C522.047 12.7698 522.635 13.4385 523.392 13.9218C524.15 14.4051 525.036 14.6468 526.051 14.6468Z" fill="#FFBA72"/>
</svg>
