<svg width="641" height="18" viewBox="0 0 641 18" fill="none" xmlns="http://www.w3.org/2000/svg">
<path d="M156.48 17.692C155.063 17.692 153.817 17.5128 152.741 17.1544C151.682 16.796 150.86 16.2828 150.273 15.6149C149.687 14.9307 149.393 14.1487 149.393 13.269C149.393 12.4707 149.63 11.8028 150.102 11.2652C150.575 10.7276 151.21 10.3203 152.008 10.0434C152.823 9.75012 153.727 9.59537 154.721 9.57908V7.59976C153.597 7.55089 152.611 7.4124 151.764 7.18433C150.917 6.93996 150.241 6.56524 149.736 6.06022C149.231 5.5552 148.978 4.89544 148.978 4.0809C148.978 3.25006 149.247 2.53327 149.784 1.9305C150.322 1.31145 151.096 0.838996 152.106 0.513176C153.116 0.187358 154.289 0.0244437 155.625 0.0244437C157.238 0.0244437 158.704 0.244374 160.023 0.684229C161.343 1.12408 162.614 1.75945 163.835 2.59029L162.149 5.35158C161.335 4.68365 160.341 4.14606 159.168 3.73879C158.011 3.33152 156.871 3.11976 155.747 3.10347C154.818 3.10347 154.11 3.26633 153.621 3.59215C153.132 3.90167 152.888 4.30898 152.888 4.81399C152.888 5.17239 153.01 5.48193 153.254 5.74259C153.499 5.98695 153.841 6.19871 154.281 6.37791C154.737 6.54082 155.315 6.68743 156.016 6.81776L158.044 7.28207C159.771 7.64047 161.123 8.23509 162.1 9.06593C163.094 9.89676 163.591 11.0127 163.591 12.4137C163.591 13.3423 163.306 14.2139 162.736 15.0284C162.166 15.8267 161.343 16.4702 160.268 16.9589C159.192 17.4476 157.93 17.692 156.48 17.692ZM156.578 14.9796C157.229 14.9796 157.791 14.8655 158.264 14.6374C158.753 14.4093 159.119 14.108 159.364 13.7333C159.624 13.3586 159.754 12.9432 159.754 12.487C159.754 11.982 159.616 11.5422 159.339 11.1675C159.078 10.7765 158.696 10.4751 158.191 10.2633C157.702 10.0352 157.14 9.92121 156.504 9.92121C155.902 9.92121 155.356 10.0271 154.867 10.2389C154.379 10.4507 153.996 10.752 153.719 11.143C153.442 11.5177 153.303 11.9576 153.303 12.4626C153.303 12.935 153.442 13.3667 153.719 13.7577C153.996 14.1324 154.379 14.4338 154.867 14.6619C155.372 14.8737 155.942 14.9796 156.578 14.9796Z" fill="#FFBA72"/>
<path d="M146.555 17.3743L144.722 12.707L145.871 13.5133H136.805L137.953 12.707L136.096 17.3743H132.088L139.346 0.342123H143.305L150.587 17.3743H146.555ZM140.348 3.17673C140.364 3.81207 140.356 4.40669 140.324 4.96059C140.291 5.49819 140.218 6.03579 140.104 6.57339C140.006 7.0947 139.867 7.63229 139.688 8.18618C139.476 8.78895 139.02 9.80714 138.32 11.2407L137.782 10.6787H144.869L144.331 11.2407C143.989 10.5402 143.671 9.82344 143.378 9.09035C142.955 8.06402 142.678 7.111 142.547 6.23129C142.417 5.33529 142.368 4.31709 142.401 3.17673H140.348Z" fill="#FFBA72"/>
<path d="M120.058 0.342123H123.822V15.2239L122.893 14.2953H132.985V17.3743H120.058V0.342123Z" fill="#FFBA72"/>
<path d="M110.449 17.692C108.738 17.692 107.207 17.3173 105.855 16.5679C104.503 15.8022 103.444 14.7515 102.678 13.4156C101.912 12.0634 101.53 10.5484 101.53 8.87045C101.53 7.19248 101.912 5.68554 102.678 4.34969C103.444 3.01383 104.503 1.9712 105.855 1.22181C107.207 0.45614 108.738 0.073331 110.449 0.073331C112.143 0.073331 113.666 0.45614 115.019 1.22181C116.387 1.9712 117.454 3.01383 118.22 4.34969C118.985 5.68554 119.368 7.19248 119.368 8.87045C119.368 10.5484 118.985 12.0634 118.22 13.4156C117.454 14.7515 116.387 15.8022 115.019 16.5679C113.666 17.3173 112.143 17.692 110.449 17.692ZM110.449 14.5886C111.475 14.5886 112.371 14.3442 113.137 13.8554C113.903 13.3667 114.489 12.6906 114.896 11.8272C115.304 10.9638 115.507 9.97823 115.507 8.87045C115.507 7.76266 115.304 6.77706 114.896 5.91364C114.489 5.05022 113.903 4.37415 113.137 3.88542C112.371 3.39669 111.475 3.1523 110.449 3.1523C109.423 3.1523 108.527 3.39669 107.761 3.88542C106.995 4.37415 106.401 5.05022 105.977 5.91364C105.57 6.77706 105.366 7.76266 105.366 8.87045C105.366 9.97823 105.57 10.9638 105.977 11.8272C106.401 12.6906 106.995 13.3667 107.761 13.8554C108.527 14.3442 109.423 14.5886 110.449 14.5886Z" fill="#FFBA72"/>
<path d="M95.6714 17.7164C93.9935 17.7164 92.4865 17.3499 91.1506 16.6168C89.8311 15.8674 88.7967 14.8248 88.0473 13.4889C87.2979 12.1368 86.9232 10.5891 86.9232 8.84599C86.9232 7.10286 87.2979 5.56338 88.0473 4.22752C88.8129 2.89167 89.8718 1.85717 91.224 1.12407C92.5924 0.374691 94.1401 0 95.8669 0C97.2191 0 98.4164 0.219948 99.459 0.659803C100.502 1.09966 101.463 1.72686 102.343 2.5414L100.436 5.05838C99.8337 4.4719 99.1821 4.02389 98.4816 3.71436C97.7811 3.38854 96.991 3.22561 96.1113 3.22561C95.0687 3.22561 94.1319 3.47 93.3011 3.95873C92.4866 4.43117 91.8511 5.09907 91.395 5.96249C90.9389 6.82591 90.7108 7.81152 90.7108 8.9193C90.7108 10.0271 90.9389 10.9964 91.395 11.8272C91.8674 12.6581 92.5109 13.3016 93.3255 13.7577C94.1563 14.1976 95.093 14.4175 96.1357 14.4175C97.0317 14.4175 97.8299 14.2383 98.5304 13.8799C99.2472 13.5215 99.907 13.0165 100.51 12.3649L102.465 14.9551C101.552 15.8511 100.559 16.5353 99.4835 17.0077C98.4246 17.4802 97.1539 17.7164 95.6714 17.7164Z" fill="#FFBA72"/>
<path d="M82.4435 0.342123H86.2067V17.3743H82.4435V0.342123Z" fill="#FFBA72"/>
<path d="M65.6655 0.342123H69.0621L78.6167 12.1205L80.4006 10.8986C79.7978 10.2307 79.3009 9.61982 78.9099 9.06593C78.5189 8.51203 78.2013 7.91741 77.957 7.28207C77.7126 6.63043 77.5904 5.95435 77.5904 5.25384V0.342123H81.378V17.3743H78.2501L68.5978 5.52263L66.7651 6.72002C67.4493 7.37166 67.9869 8.01516 68.3779 8.65051C69.0784 9.77458 69.4286 11.0045 69.4286 12.3404V17.3743H65.6655V0.342123Z" fill="#FFBA72"/>
<path d="M46.8093 0.342123H60.2738V3.42109H49.6439L50.5725 2.5414V8.18618L49.6439 7.33092H59.5163V10.2389H49.6439L50.5725 9.43246V15.2239L49.6439 14.2953H60.567V17.3743H46.8093V0.342123Z" fill="#FFBA72"/>
<path d="M36.5294 10.9475L30.1515 0.342123H34.3056C35.1365 1.69427 35.7637 2.8428 36.1872 3.78768C36.6271 4.71626 36.9285 5.61223 37.0915 6.47565C37.2707 7.32278 37.3602 8.31652 37.3602 9.45688H39.5107C39.5107 8.31652 39.5921 7.31465 39.755 6.45123C39.9342 5.58781 40.2355 4.69178 40.6591 3.7632C41.0827 2.83462 41.7099 1.69427 42.5407 0.342123H46.7194L40.317 10.9475V17.3743H36.5294V10.9475Z" fill="#FFBA72"/>
<path d="M15.2338 0.342123H18.997V3.39668C18.997 3.91799 18.9319 4.39857 18.8016 4.83842C18.6712 5.27828 18.4268 5.77517 18.0684 6.32906C17.7263 6.86666 17.2213 7.55901 16.5534 8.40614L18.1662 9.55468L26.328 0.342123H30.8975L23.4444 8.28397L23.5422 6.93996L31.1175 17.3743H26.5968L21.0742 9.60351L22.1249 9.70125L18.264 13.831L18.997 12.1449V17.3743H15.2338V0.342123Z" fill="#FFBA72"/>
<path d="M7.50202 17.692C6.08471 17.692 4.83844 17.5128 3.76323 17.1544C2.70432 16.796 1.88164 16.2828 1.29516 15.6149C0.708689 14.9307 0.415437 14.1487 0.415437 13.269C0.415437 12.4707 0.65169 11.8028 1.12413 11.2652C1.59656 10.7276 2.23188 10.3203 3.03014 10.0434C3.84468 9.75012 4.74883 9.59537 5.74257 9.57908V7.59976C4.6185 7.55089 3.6329 7.4124 2.78577 7.18433C1.93864 6.93996 1.26256 6.56524 0.757543 6.06022C0.252524 5.5552 0 4.89544 0 4.0809C0 3.25006 0.268829 2.53327 0.80643 1.9305C1.34403 1.31145 2.11784 0.838996 3.12787 0.513176C4.13791 0.187358 5.31089 0.0244437 6.64674 0.0244437C8.25954 0.0244437 9.72573 0.244374 11.0453 0.684229C12.3649 1.12408 13.6356 1.75945 14.8574 2.59029L13.1713 5.35158C12.3567 4.68365 11.3629 4.14606 10.19 3.73879C9.03333 3.33152 7.89296 3.11976 6.76889 3.10347C5.84031 3.10347 5.13165 3.26633 4.64292 3.59215C4.1542 3.90167 3.90983 4.30898 3.90983 4.81399C3.90983 5.17239 4.03205 5.48193 4.27641 5.74259C4.52077 5.98695 4.86287 6.19871 5.30273 6.37791C5.75887 6.54082 6.33719 6.68743 7.0377 6.81776L9.06593 7.28207C10.7928 7.64047 12.1449 8.23509 13.1224 9.06593C14.1161 9.89676 14.613 11.0127 14.613 12.4137C14.613 13.3423 14.3279 14.2139 13.7577 15.0284C13.1876 15.8267 12.3648 16.4702 11.2896 16.9589C10.2144 17.4476 8.95192 17.692 7.50202 17.692ZM7.59976 14.9796C8.2514 14.9796 8.81341 14.8655 9.28585 14.6374C9.77458 14.4093 10.1411 14.108 10.3855 13.7333C10.6462 13.3586 10.7765 12.9432 10.7765 12.487C10.7765 11.982 10.638 11.5422 10.3611 11.1675C10.1004 10.7765 9.71757 10.4751 9.21255 10.2633C8.72383 10.0352 8.16178 9.92121 7.52643 9.92121C6.92367 9.92121 6.37793 10.0271 5.8892 10.2389C5.40047 10.4507 5.01761 10.752 4.74066 11.143C4.46372 11.5177 4.32526 11.9576 4.32526 12.4626C4.32526 12.935 4.46372 13.3667 4.74066 13.7577C5.01761 14.1324 5.40047 14.4338 5.8892 14.6619C6.39422 14.8737 6.96442 14.9796 7.59976 14.9796Z" fill="#FFBA72"/>
<path d="M393.999 0.342123H397.762V15.2239L396.833 14.2953H406.926V17.3743H393.999V0.342123Z" fill="#FFBA72"/>
<path d="M380.991 0.342123H384.754V15.2239L383.826 14.2953H393.918V17.3743H380.991V0.342123Z" fill="#FFBA72"/>
<path d="M376.867 17.3743L375.034 12.707L376.183 13.5133H367.117L368.265 12.707L366.408 17.3743H362.4L369.658 0.342123H373.617L380.899 17.3743H376.867ZM370.66 3.17673C370.676 3.81207 370.668 4.40669 370.636 4.96059C370.603 5.49819 370.53 6.03579 370.416 6.57339C370.318 7.0947 370.179 7.63229 370 8.18618C369.788 8.78895 369.332 9.80714 368.632 11.2407L368.094 10.6787H375.181L374.643 11.2407C374.301 10.5402 373.983 9.82344 373.69 9.09035C373.266 8.06402 372.99 7.111 372.859 6.23129C372.729 5.33529 372.68 4.31709 372.713 3.17673H370.66Z" fill="#FFBA72"/>
<path d="M348.151 0.342123H354.627C356.549 0.342123 358.219 0.716797 359.636 1.46618C361.053 2.19927 362.137 3.20933 362.886 4.49631C363.636 5.7833 364.01 7.24135 364.01 8.87045C364.01 10.4344 363.636 11.868 362.886 13.1712C362.137 14.4582 361.053 15.4846 359.636 16.2503C358.219 16.9996 356.549 17.3743 354.627 17.3743H348.151V0.342123ZM350.986 14.2953H354.382C355.572 14.2953 356.598 14.0672 357.461 13.6111C358.341 13.1549 359.009 12.5196 359.465 11.705C359.937 10.8742 360.174 9.92936 360.174 8.87045C360.174 7.81154 359.937 6.87476 359.465 6.06022C359.009 5.22938 358.341 4.58593 357.461 4.12978C356.598 3.65735 355.572 3.42109 354.382 3.42109H350.986L351.914 2.51698V15.2239L350.986 14.2953Z" fill="#FFBA72"/>
<path d="M335.143 0.342123H338.907V15.2239L337.978 14.2953H348.07V17.3743H335.143V0.342123Z" fill="#FFBA72"/>
<path d="M330.297 0.342123H334.06V17.3743H330.297V0.342123Z" fill="#FFBA72"/>
<path d="M314.402 0.342123H318.165V3.39668C318.165 3.91799 318.1 4.39857 317.97 4.83842C317.839 5.27828 317.595 5.77517 317.237 6.32906C316.895 6.86666 316.39 7.55901 315.722 8.40614L317.334 9.55468L325.496 0.342123H330.066L322.613 8.28397L322.71 6.93996L330.286 17.3743H325.765L320.242 9.60351L321.293 9.70125L317.432 13.831L318.165 12.1449V17.3743H314.402V0.342123Z" fill="#FFBA72"/>
<path d="M300.333 2.49251L301.188 3.42109H294.688V0.342123H309.765V3.42109H303.265L304.12 2.49251V17.3743H300.333V2.49251Z" fill="#FFBA72"/>
<path d="M287.683 2.49251L288.538 3.42109H282.038V0.342123H297.115V3.42109H290.615L291.471 2.49251V17.3743H287.683V2.49251Z" fill="#FFBA72"/>
<path d="M274.218 17.692C272.507 17.692 270.976 17.3173 269.624 16.5679C268.271 15.8022 267.212 14.7515 266.447 13.4156C265.681 12.0634 265.298 10.5484 265.298 8.87045C265.298 7.19248 265.681 5.68554 266.447 4.34969C267.212 3.01383 268.271 1.9712 269.624 1.22181C270.976 0.45614 272.507 0.073331 274.218 0.073331C275.912 0.073331 277.435 0.45614 278.787 1.22181C280.156 1.9712 281.223 3.01383 281.988 4.34969C282.754 5.68554 283.137 7.19248 283.137 8.87045C283.137 10.5484 282.754 12.0634 281.988 13.4156C281.223 14.7515 280.156 15.8022 278.787 16.5679C277.435 17.3173 275.912 17.692 274.218 17.692ZM274.218 14.5886C275.244 14.5886 276.14 14.3442 276.906 13.8554C277.671 13.3667 278.258 12.6906 278.665 11.8272C279.072 10.9638 279.276 9.97823 279.276 8.87045C279.276 7.76266 279.072 6.77706 278.665 5.91364C278.258 5.05022 277.671 4.37415 276.906 3.88542C276.14 3.39669 275.244 3.1523 274.218 3.1523C273.191 3.1523 272.295 3.39669 271.53 3.88542C270.764 4.37415 270.169 5.05022 269.746 5.91364C269.338 6.77706 269.135 7.76266 269.135 8.87045C269.135 9.97823 269.338 10.9638 269.746 11.8272C270.169 12.6906 270.764 13.3667 271.53 13.8554C272.295 14.3442 273.191 14.5886 274.218 14.5886Z" fill="#FFBA72"/>
<path d="M259.44 17.7164C257.762 17.7164 256.255 17.3499 254.919 16.6168C253.6 15.8674 252.565 14.8248 251.816 13.4889C251.066 12.1368 250.692 10.5891 250.692 8.84599C250.692 7.10286 251.066 5.56338 251.816 4.22752C252.582 2.89167 253.64 1.85717 254.993 1.12407C256.361 0.374691 257.909 0 259.636 0C260.988 0 262.185 0.219948 263.228 0.659803C264.27 1.09966 265.231 1.72686 266.111 2.5414L264.205 5.05838C263.602 4.4719 262.951 4.02389 262.25 3.71436C261.55 3.38854 260.76 3.22561 259.88 3.22561C258.837 3.22561 257.901 3.47 257.07 3.95873C256.255 4.43117 255.62 5.09907 255.164 5.96249C254.707 6.82591 254.479 7.81152 254.479 8.9193C254.479 10.0271 254.707 10.9964 255.164 11.8272C255.636 12.6581 256.28 13.3016 257.094 13.7577C257.925 14.1976 258.862 14.4175 259.904 14.4175C260.8 14.4175 261.599 14.2383 262.299 13.8799C263.016 13.5215 263.676 13.0165 264.278 12.3649L266.233 14.9551C265.321 15.8511 264.327 16.5353 263.252 17.0077C262.193 17.4802 260.923 17.7164 259.44 17.7164Z" fill="#FFBA72"/>
<path d="M243.923 17.692C242.506 17.692 241.26 17.5128 240.184 17.1544C239.125 16.796 238.303 16.2828 237.716 15.6149C237.13 14.9307 236.837 14.1487 236.837 13.269C236.837 12.4707 237.073 11.8028 237.545 11.2652C238.018 10.7276 238.653 10.3203 239.451 10.0434C240.266 9.75012 241.17 9.59537 242.164 9.57908V7.59976C241.04 7.55089 240.054 7.4124 239.207 7.18433C238.36 6.93996 237.684 6.56524 237.179 6.06022C236.674 5.5552 236.421 4.89544 236.421 4.0809C236.421 3.25006 236.69 2.53327 237.228 1.9305C237.765 1.31145 238.539 0.838996 239.549 0.513176C240.559 0.187358 241.732 0.0244437 243.068 0.0244437C244.681 0.0244437 246.147 0.244374 247.466 0.684229C248.786 1.12408 250.057 1.75945 251.278 2.59029L249.592 5.35158C248.778 4.68365 247.784 4.14606 246.611 3.73879C245.454 3.33152 244.314 3.11976 243.19 3.10347C242.261 3.10347 241.553 3.26633 241.064 3.59215C240.575 3.90167 240.331 4.30898 240.331 4.81399C240.331 5.17239 240.453 5.48193 240.698 5.74259C240.942 5.98695 241.284 6.19871 241.724 6.37791C242.18 6.54082 242.758 6.68743 243.459 6.81776L245.487 7.28207C247.214 7.64047 248.566 8.23509 249.543 9.06593C250.537 9.89676 251.034 11.0127 251.034 12.4137C251.034 13.3423 250.749 14.2139 250.179 15.0284C249.609 15.8267 248.786 16.4702 247.711 16.9589C246.636 17.4476 245.373 17.692 243.923 17.692ZM244.021 14.9796C244.673 14.9796 245.235 14.8655 245.707 14.6374C246.196 14.4093 246.562 14.108 246.807 13.7333C247.067 13.3586 247.198 12.9432 247.198 12.487C247.198 11.982 247.059 11.5422 246.782 11.1675C246.522 10.7765 246.139 10.4751 245.634 10.2633C245.145 10.0352 244.583 9.92121 243.948 9.92121C243.345 9.92121 242.799 10.0271 242.31 10.2389C241.822 10.4507 241.439 10.752 241.162 11.143C240.885 11.5177 240.746 11.9576 240.746 12.4626C240.746 12.935 240.885 13.3667 241.162 13.7577C241.439 14.1324 241.822 14.4338 242.31 14.6619C242.815 14.8737 243.386 14.9796 244.021 14.9796Z" fill="#FFBA72"/>
<path d="M636.443 17.2801L634.63 12.6641L635.766 13.4617H626.8L627.936 12.6641L626.099 17.2801H622.136L629.314 0.435547H633.229L640.431 17.2801H636.443ZM630.304 3.23894C630.321 3.86729 630.313 4.45535 630.28 5.00314C630.248 5.53482 630.176 6.0665 630.063 6.59818C629.966 7.11375 629.829 7.64542 629.652 8.19321C629.443 8.78934 628.991 9.7963 628.299 11.2141L627.767 10.6583H634.775L634.244 11.2141C633.905 10.5213 633.591 9.81241 633.301 9.0874C632.882 8.07238 632.608 7.12986 632.48 6.25984C632.351 5.37371 632.302 4.36674 632.335 3.23894H630.304Z" fill="#FFBA72"/>
<path d="M608.327 0.435547H612.048V3.45644C612.048 3.97201 611.984 4.4473 611.855 4.88231C611.726 5.31732 611.485 5.80872 611.13 6.35651C610.792 6.88818 610.292 7.57292 609.632 8.41072L611.227 9.54658L619.299 0.435547H623.818L616.447 8.28988L616.544 6.96069L624.035 17.2801H619.564L614.103 9.59491L615.142 9.69158L611.323 13.7758L612.048 12.1083V17.2801H608.327V0.435547Z" fill="#FFBA72"/>
<path d="M603.534 0.435547H607.256V17.2801H603.534V0.435547Z" fill="#FFBA72"/>
<path d="M588.097 0.435547H595.927C598.07 0.435547 599.673 0.814166 600.736 1.5714C601.799 2.31253 602.331 3.43228 602.331 4.93064C602.331 5.849 602.089 6.61429 601.606 7.22653C601.123 7.83876 600.47 8.30599 599.649 8.62822C598.827 8.95045 597.901 9.14379 596.869 9.20823V11.1416C597.61 11.1738 598.247 11.3349 598.779 11.625C599.326 11.8988 599.834 12.35 600.301 12.9783L600.374 13.075L603.467 17.2801H599.093L596.434 13.4858C596.37 13.3892 596.305 13.2925 596.241 13.1958C595.774 12.5352 595.395 12.068 595.105 11.7941C594.831 11.5202 594.525 11.3349 594.187 11.2383C593.848 11.1255 593.357 11.0691 592.713 11.0691H590.9L591.818 10.1749V17.2801H588.097V0.435547ZM590.9 8.70072H595.25C595.991 8.70072 596.604 8.60405 597.087 8.41072C597.586 8.20127 597.957 7.89515 598.199 7.49236C598.456 7.08958 598.585 6.58207 598.585 5.96983C598.585 5.0837 598.311 4.42313 597.764 3.98812C597.216 3.55311 596.378 3.33561 595.25 3.33561H590.9L591.818 2.39309V9.57074L590.9 8.70072Z" fill="#FFBA72"/>
<path d="M574.808 0.435547H587.786V3.48061H577.611L578.53 2.61059V8.19321L577.611 7.37153H586.916V10.4166H577.611L578.53 9.42574V17.2801H574.808V0.435547Z" fill="#FFBA72"/>
<path d="M570.729 17.2801L568.916 12.6641L570.052 13.4617H561.086L562.222 12.6641L560.385 17.2801H556.422L563.6 0.435547H567.515L574.716 17.2801H570.729ZM564.59 3.23894C564.606 3.86729 564.598 4.45535 564.566 5.00314C564.534 5.53482 564.461 6.0665 564.349 6.59818C564.252 7.11375 564.115 7.64542 563.938 8.19321C563.728 8.78934 563.277 9.7963 562.585 11.2141L562.053 10.6583H569.061L568.53 11.2141C568.191 10.5213 567.877 9.81241 567.587 9.0874C567.168 8.07238 566.894 7.12986 566.765 6.25984C566.637 5.37371 566.588 4.36674 566.62 3.23894H564.59Z" fill="#FFBA72"/>
<path d="M538.74 0.435547H552.056V3.48061H541.544L542.462 2.61059V8.19321L541.544 7.34736H551.307V10.2233H541.544L542.462 9.42574V15.1534L541.544 14.235H552.346V17.2801H538.74V0.435547Z" fill="#FFBA72"/>
<path d="M531.781 17.6189C530.122 17.6189 528.631 17.2564 527.31 16.5313C526.005 15.7902 524.982 14.7591 524.241 13.4379C523.5 12.1007 523.129 10.5701 523.129 8.84618C523.129 7.12225 523.5 5.59972 524.241 4.27858C524.998 2.95744 526.046 1.93436 527.383 1.20935C528.736 0.46822 530.267 0.0976562 531.975 0.0976562C533.312 0.0976562 534.496 0.315161 535.527 0.750171C536.558 1.18518 537.509 1.80547 538.379 2.61104L536.494 5.10026C535.898 4.52025 535.253 4.07719 534.56 3.77107C533.868 3.44884 533.086 3.28772 532.216 3.28772C531.185 3.28772 530.259 3.5294 529.437 4.01274C528.631 4.47997 528.003 5.14054 527.552 5.99445C527.101 6.84836 526.875 7.8231 526.875 8.91868C526.875 10.0143 527.101 10.9729 527.552 11.7946C528.019 12.6163 528.656 13.2527 529.461 13.7038C530.283 14.1388 531.209 14.3563 532.24 14.3563C533.127 14.3563 533.916 14.1791 534.609 13.8246C535.318 13.4702 535.97 12.9707 536.566 12.3263L538.5 14.888C537.597 15.7741 536.615 16.4508 535.551 16.918C534.504 17.3852 533.247 17.6189 531.781 17.6189Z" fill="#FFBA72"/>
<path d="M520.546 17.2801L518.733 12.6641L519.869 13.4617H510.903L512.039 12.6641L510.202 17.2801H506.239L513.417 0.435547H517.332L524.534 17.2801H520.546ZM514.408 3.23894C514.424 3.86729 514.416 4.45535 514.383 5.00314C514.351 5.53482 514.279 6.0665 514.166 6.59818C514.069 7.11375 513.932 7.64542 513.755 8.19321C513.546 8.78934 513.094 9.7963 512.402 11.2141L511.87 10.6583H518.878L518.347 11.2141C518.008 10.5213 517.694 9.81241 517.404 9.0874C516.985 8.07238 516.711 7.12986 516.583 6.25984C516.454 5.37371 516.405 4.36674 516.438 3.23894H514.408Z" fill="#FFBA72"/>
<path d="M494.578 0.435547H502.118C503.552 0.435547 504.776 0.661107 505.791 1.11223C506.822 1.54724 507.604 2.1917 508.135 3.0456C508.683 3.89951 508.957 4.92259 508.957 6.11483C508.957 7.93543 508.353 9.36935 507.145 10.4166C505.936 11.4638 504.261 11.9875 502.118 11.9875H497.381L498.299 11.1416V17.2801H494.578V0.435547ZM497.381 9.0874H501.659C502.819 9.0874 503.705 8.84573 504.317 8.36238C504.929 7.86293 505.235 7.14597 505.235 6.2115C505.235 5.32537 504.929 4.64869 504.317 4.18146C503.705 3.71423 502.811 3.48061 501.634 3.48061H497.381L498.299 2.63476V9.90908L497.381 9.0874Z" fill="#FFBA72"/>
<path d="M486.931 17.5949C485.529 17.5949 484.296 17.4177 483.233 17.0633C482.186 16.7088 481.372 16.2013 480.792 15.5407C480.212 14.8641 479.922 14.0907 479.922 13.2207C479.922 12.4312 480.156 11.7707 480.623 11.239C481.09 10.7073 481.718 10.3045 482.508 10.0306C483.314 9.74061 484.208 9.58755 485.191 9.57144V7.6139C484.079 7.56556 483.104 7.42862 482.266 7.20306C481.428 6.96138 480.76 6.59082 480.26 6.09137C479.761 5.59191 479.511 4.9394 479.511 4.13382C479.511 3.31214 479.777 2.60323 480.309 2.00711C480.84 1.39488 481.606 0.927643 482.605 0.605414C483.604 0.283185 484.764 0.12207 486.085 0.12207C487.68 0.12207 489.13 0.339575 490.435 0.774585C491.74 1.20959 492.997 1.83794 494.205 2.65963L492.537 5.39052C491.732 4.72995 490.749 4.19827 489.589 3.79548C488.445 3.3927 487.317 3.18325 486.206 3.16714C485.287 3.16714 484.586 3.32825 484.103 3.65048C483.62 3.9566 483.378 4.35938 483.378 4.85884C483.378 5.21329 483.499 5.51941 483.74 5.77719C483.982 6.01886 484.321 6.22831 484.756 6.40554C485.207 6.56665 485.779 6.71166 486.471 6.84055L488.477 7.29972C490.185 7.65418 491.522 8.24224 492.489 9.06393C493.472 9.88561 493.963 10.9892 493.963 12.3748C493.963 13.2932 493.681 14.1551 493.117 14.9607C492.553 15.7502 491.74 16.3866 490.676 16.8699C489.613 17.3533 488.364 17.5949 486.931 17.5949ZM487.027 14.9124C487.672 14.9124 488.228 14.7996 488.695 14.574C489.178 14.3485 489.541 14.0504 489.782 13.6799C490.04 13.3093 490.169 12.8985 490.169 12.4473C490.169 11.9479 490.032 11.5129 489.758 11.1423C489.5 10.7556 489.122 10.4576 488.622 10.2481C488.139 10.0226 487.583 9.90978 486.955 9.90978C486.359 9.90978 485.819 10.0145 485.336 10.224C484.852 10.4334 484.474 10.7315 484.2 11.1181C483.926 11.4887 483.789 11.9237 483.789 12.4232C483.789 12.8904 483.926 13.3174 484.2 13.704C484.474 14.0746 484.852 14.3727 485.336 14.5982C485.835 14.8077 486.399 14.9124 487.027 14.9124Z" fill="#FFBA72"/>
</svg>
