<svg width="641" height="18" viewBox="0 0 641 18" fill="none" xmlns="http://www.w3.org/2000/svg">
<path d="M71.6096 0.387207H75.3555V17.2317H71.6096V0.387207ZM60.6619 0.387207H64.3836V17.2317H60.6619V0.387207ZM64.0694 7.17819H71.9479V10.2233H64.0694V7.17819Z" fill="#FFBA72"/>
<path d="M53.7029 17.57C52.0434 17.57 50.5531 17.2075 49.2319 16.4825C47.9269 15.7414 46.9038 14.7103 46.1627 13.3891C45.4216 12.0519 45.051 10.5213 45.051 8.79735C45.051 7.07342 45.4216 5.55089 46.1627 4.22975C46.92 2.90861 47.9672 1.88553 49.3044 1.16052C50.6578 0.419392 52.1884 0.0488281 53.8962 0.0488281C55.2335 0.0488281 56.4177 0.266333 57.4488 0.701343C58.4799 1.13635 59.4305 1.75664 60.3005 2.56221L58.4155 5.05144C57.8194 4.47142 57.1749 4.02836 56.4821 3.72224C55.7893 3.40001 55.0079 3.2389 54.1379 3.2389C53.1068 3.2389 52.1803 3.48057 51.3587 3.96391C50.5531 4.43114 49.9247 5.09171 49.4736 5.94562C49.0225 6.79953 48.7969 7.77427 48.7969 8.86985C48.7969 9.96543 49.0225 10.9241 49.4736 11.7457C49.9409 12.5674 50.5773 13.2038 51.3828 13.655C52.2045 14.09 53.1309 14.3075 54.1621 14.3075C55.0482 14.3075 55.8376 14.1302 56.5304 13.7758C57.2393 13.4213 57.8919 12.9219 58.488 12.2774L60.4214 14.8391C59.5191 15.7253 58.5363 16.402 57.473 16.8692C56.4257 17.3364 55.169 17.57 53.7029 17.57Z" fill="#FFBA72"/>
<path d="M42.4679 17.2317L40.6553 12.6158L41.7912 13.4133H32.8252L33.961 12.6158L32.1243 17.2317H28.1609L35.3385 0.387207H39.2536L46.4554 17.2317H42.4679ZM36.3294 3.1906C36.3455 3.81895 36.3375 4.40701 36.3052 4.9548C36.273 5.48648 36.2005 6.01816 36.0877 6.54984C35.9911 7.06541 35.8541 7.59708 35.6769 8.14487C35.4674 8.741 35.0163 9.74796 34.3235 11.1658L33.7918 10.6099H40.8003L40.2687 11.1658C39.9303 10.473 39.6161 9.76407 39.3261 9.03906C38.9072 8.02404 38.6333 7.08152 38.5044 6.2115C38.3756 5.32537 38.3272 4.3184 38.3594 3.1906H36.3294Z" fill="#FFBA72"/>
<path d="M14.9651 0.387207H28.2812V3.43227H17.7685L18.6868 2.56225V8.14487L17.7685 7.29902H27.532V10.1749H17.7685L18.6868 9.3774V15.105L17.7685 14.1867H28.5712V17.2317H14.9651V0.387207Z" fill="#FFBA72"/>
<path d="M0 0.387207H7.54016C8.97408 0.387207 10.1986 0.612767 11.2136 1.06389C12.2447 1.4989 13.0261 2.14336 13.5578 2.99726C14.1056 3.85117 14.3795 4.87425 14.3795 6.06649C14.3795 7.88709 13.7753 9.32101 12.5669 10.3683C11.3586 11.4155 9.68299 11.9391 7.54016 11.9391H2.80339L3.72175 11.0933V17.2317H0V0.387207ZM2.80339 9.03906H7.08099C8.24101 9.03906 9.12714 8.79739 9.73938 8.31404C10.3516 7.81459 10.6577 7.09763 10.6577 6.16316C10.6577 5.27703 10.3516 4.60035 9.73938 4.13312C9.12714 3.66589 8.23295 3.43227 7.05682 3.43227H2.80339L3.72175 2.58642V9.86074L2.80339 9.03906Z" fill="#FFBA72"/>
<path d="M200.246 0.362793H203.968V17.2073H200.246V0.362793Z" fill="#FFBA72"/>
<path d="M184.809 0.362793H192.639C194.782 0.362793 196.385 0.741412 197.449 1.49865C198.512 2.23978 199.044 3.35952 199.044 4.85789C199.044 5.77624 198.802 6.54154 198.319 7.15377C197.835 7.76601 197.183 8.23324 196.361 8.55547C195.54 8.8777 194.613 9.07103 193.582 9.13548V11.0689C194.323 11.1011 194.96 11.2622 195.491 11.5522C196.039 11.8261 196.547 12.2772 197.014 12.9056L197.086 13.0022L200.18 17.2073H195.805L193.147 13.4131C193.083 13.3164 193.018 13.2197 192.954 13.1231C192.486 12.4625 192.108 11.9953 191.818 11.7214C191.544 11.4475 191.238 11.2622 190.899 11.1655C190.561 11.0527 190.07 10.9964 189.425 10.9964H187.613L188.531 10.1022V17.2073H184.809V0.362793ZM187.613 8.62797H191.963C192.704 8.62797 193.316 8.5313 193.8 8.33796C194.299 8.12851 194.67 7.8224 194.911 7.41961C195.169 7.01682 195.298 6.50931 195.298 5.89708C195.298 5.01095 195.024 4.35038 194.476 3.91537C193.928 3.48036 193.091 3.26285 191.963 3.26285H187.613L188.531 2.32033V9.49799L187.613 8.62797Z" fill="#FFBA72"/>
<path d="M175.305 17.5217C173.614 17.5217 172.099 17.1511 170.762 16.41C169.425 15.6528 168.377 14.6136 167.62 13.2925C166.863 11.9552 166.484 10.4568 166.484 8.79735C166.484 7.13787 166.863 5.64756 167.62 4.32642C168.377 3.00529 169.425 1.97415 170.762 1.23303C172.099 0.475787 173.614 0.097168 175.305 0.097168C176.981 0.097168 178.487 0.475787 179.825 1.23303C181.178 1.97415 182.233 3.00529 182.991 4.32642C183.748 5.64756 184.126 7.13787 184.126 8.79735C184.126 10.4568 183.748 11.9552 182.991 13.2925C182.233 14.6136 181.178 15.6528 179.825 16.41C178.487 17.1511 176.981 17.5217 175.305 17.5217ZM175.305 14.4525C176.32 14.4525 177.207 14.2108 177.964 13.7275C178.721 13.2441 179.301 12.5755 179.704 11.7216C180.107 10.8677 180.308 9.89293 180.308 8.79735C180.308 7.70178 180.107 6.72703 179.704 5.87313C179.301 5.01922 178.721 4.35059 177.964 3.86725C177.207 3.3839 176.32 3.14223 175.305 3.14223C174.29 3.14223 173.404 3.3839 172.647 3.86725C171.89 4.35059 171.302 5.01922 170.883 5.87313C170.48 6.72703 170.279 7.70178 170.279 8.79735C170.279 9.89293 170.48 10.8677 170.883 11.7216C171.302 12.5755 171.89 13.2441 172.647 13.7275C173.404 14.2108 174.29 14.4525 175.305 14.4525Z" fill="#FFBA72"/>
<path d="M162.054 0.362793H165.776V17.2073H162.054V0.362793Z" fill="#FFBA72"/>
<path d="M146.618 0.362793H154.448C156.591 0.362793 158.194 0.741412 159.257 1.49865C160.32 2.23978 160.852 3.35952 160.852 4.85789C160.852 5.77624 160.61 6.54154 160.127 7.15377C159.644 7.76601 158.991 8.23324 158.17 8.55547C157.348 8.8777 156.421 9.07103 155.39 9.13548V11.0689C156.131 11.1011 156.768 11.2622 157.3 11.5522C157.847 11.8261 158.355 12.2772 158.822 12.9056L158.895 13.0022L161.988 17.2073H157.614L154.955 13.4131C154.891 13.3164 154.826 13.2197 154.762 13.1231C154.295 12.4625 153.916 11.9953 153.626 11.7214C153.352 11.4475 153.046 11.2622 152.708 11.1655C152.369 11.0527 151.878 10.9964 151.234 10.9964H149.421L150.339 10.1022V17.2073H146.618V0.362793ZM149.421 8.62797H153.771C154.512 8.62797 155.125 8.5313 155.608 8.33796C156.107 8.12851 156.478 7.8224 156.72 7.41961C156.977 7.01682 157.106 6.50931 157.106 5.89708C157.106 5.01095 156.832 4.35038 156.285 3.91537C155.737 3.48036 154.899 3.26285 153.771 3.26285H149.421L150.339 2.32033V9.49799L149.421 8.62797Z" fill="#FFBA72"/>
<path d="M131.652 0.362793H139.193C140.626 0.362793 141.851 0.588353 142.866 1.03947C143.897 1.47448 144.678 2.11894 145.21 2.97285C145.758 3.82676 146.032 4.84983 146.032 6.04208C146.032 7.86268 145.428 9.2966 144.219 10.3438C143.011 11.3911 141.335 11.9147 139.193 11.9147H134.456L135.374 11.0689V17.2073H131.652V0.362793ZM134.456 9.01464H138.733C139.893 9.01464 140.779 8.77297 141.392 8.28963C142.004 7.79017 142.31 7.07321 142.31 6.13875C142.31 5.25262 142.004 4.57594 141.392 4.10871C140.779 3.64147 139.885 3.40786 138.709 3.40786H134.456L135.374 2.56201V9.83633L134.456 9.01464Z" fill="#FFBA72"/>
<path d="M624.718 0.268792H628.114L637.669 12.0471L639.453 10.8253C638.85 10.1574 638.353 9.54649 637.962 8.99259C637.571 8.4387 637.254 7.84408 637.009 7.20873C636.765 6.5571 636.643 5.88104 636.643 5.18053V0.268792H640.43V17.301H637.302L627.65 5.44932L625.817 6.64671C626.502 7.29834 627.039 7.94183 627.43 8.57717C628.131 9.70125 628.481 10.9312 628.481 12.2671V17.301H624.718V0.268792Z" fill="#FFBA72"/>
<path d="M609.109 0.268792H617.026C619.193 0.268792 620.814 0.651637 621.889 1.41731C622.964 2.16669 623.502 3.2989 623.502 4.81396C623.502 5.74254 623.258 6.51638 622.769 7.13544C622.28 7.75449 621.62 8.22693 620.79 8.55275C619.959 8.87857 619.022 9.07404 617.979 9.1392V11.0941C618.729 11.1267 619.372 11.2896 619.91 11.5828C620.464 11.8598 620.977 12.3159 621.449 12.9513L621.523 13.049L624.651 17.301H620.228L617.54 13.4644C617.474 13.3667 617.409 13.269 617.344 13.1712C616.872 12.5033 616.489 12.0308 616.196 11.7539C615.919 11.477 615.609 11.2896 615.267 11.1919C614.925 11.0778 614.428 11.0208 613.776 11.0208H611.944L612.872 10.1167V17.301H609.109V0.268792ZM611.944 8.62604H616.342C617.092 8.62604 617.711 8.5283 618.199 8.33281C618.704 8.12103 619.079 7.8115 619.323 7.40423C619.584 6.99696 619.714 6.48379 619.714 5.86474C619.714 4.96874 619.437 4.30081 618.884 3.86096C618.33 3.4211 617.483 3.20117 616.342 3.20117H611.944L612.872 2.24815V9.50575L611.944 8.62604Z" fill="#FFBA72"/>
<path d="M594.789 0.268792H608.253V3.34778H597.624L598.552 2.46809V8.11289L597.624 7.2576H607.496V10.1655H597.624L598.552 9.35914V15.1506L597.624 14.222H608.547V17.301H594.789V0.268792Z" fill="#FFBA72"/>
<path d="M585.255 2.4192L586.111 3.34778H579.611V0.268792H594.688V3.34778H588.188L589.043 2.4192V17.301H585.255V2.4192Z" fill="#FFBA72"/>
<path d="M572.606 2.4192L573.461 3.34778H566.961V0.268792H582.038V3.34778H575.538L576.393 2.4192V17.301H572.606V2.4192Z" fill="#FFBA72"/>
<path d="M566.582 17.301L564.749 12.6336L565.898 13.44H556.832L557.981 12.6336L556.123 17.301H552.116L559.374 0.268792H563.332L570.614 17.301H566.582ZM560.375 3.10343C560.392 3.73878 560.384 4.3334 560.351 4.88729C560.318 5.42489 560.245 5.96248 560.131 6.50008C560.033 7.02139 559.895 7.55899 559.716 8.11289C559.504 8.71565 559.048 9.73383 558.347 11.1674L557.81 10.6054H564.896L564.358 11.1674C564.016 10.4669 563.699 9.75011 563.405 9.01702C562.982 7.99069 562.705 7.03768 562.575 6.15797C562.444 5.26197 562.395 4.2438 562.428 3.10343H560.375Z" fill="#FFBA72"/>
<path d="M540.324 0.268792H547.949C549.398 0.268792 550.637 0.496875 551.663 0.953021C552.705 1.39288 553.496 2.04451 554.033 2.90793C554.587 3.77135 554.864 4.80584 554.864 6.01136C554.864 7.85224 554.253 9.30212 553.031 10.361C551.809 11.4199 550.115 11.9494 547.949 11.9494H543.159L544.088 11.0941V17.301H540.324V0.268792ZM543.159 9.01702H547.484C548.657 9.01702 549.553 8.77267 550.172 8.28394C550.791 7.77892 551.101 7.05398 551.101 6.1091C551.101 5.2131 550.791 4.52889 550.172 4.05645C549.553 3.58401 548.649 3.34778 547.46 3.34778H543.159L544.088 2.49251V9.84788L543.159 9.01702Z" fill="#FFBA72"/>
<path d="M516.624 0.268792H521.902C522.358 1.36028 522.766 2.37033 523.124 3.29891C523.482 4.2112 523.759 5.03389 523.955 5.76698C524.199 6.59782 524.378 7.37979 524.492 8.11289C524.606 8.82969 524.663 9.56276 524.663 10.3121H526.643C526.643 9.48131 526.716 8.65049 526.863 7.81965C527.009 6.97252 527.237 6.07651 527.547 5.13164C527.856 4.18676 528.288 3.03011 528.842 1.66168C528.924 1.4336 529.111 0.969302 529.404 0.268792H534.707V17.301H530.944C530.944 15.8022 530.968 14.3116 531.017 12.8291C531.082 11.4444 531.188 10.3203 531.335 9.45688C531.498 8.57717 531.709 7.78706 531.97 7.08655C532.231 6.38604 532.597 5.56335 533.07 4.61848L531.115 3.90982L527.083 14.2709H524.199L520.192 3.90982L518.261 4.69179C518.734 5.63667 519.1 6.45122 519.361 7.13544C519.621 7.81966 519.825 8.58533 519.972 9.43246C520.135 10.2633 520.249 11.3466 520.314 12.6825C520.363 14.2138 520.387 15.7533 520.387 17.301H516.624V0.268792Z" fill="#FFBA72"/>
<path d="M507.014 17.6187C505.304 17.6187 503.773 17.244 502.42 16.4946C501.068 15.7289 500.009 14.6781 499.244 13.3423C498.478 11.9901 498.095 10.4751 498.095 8.79711C498.095 7.11915 498.478 5.61223 499.244 4.27637C500.009 2.94052 501.068 1.8979 502.42 1.14852C503.773 0.382844 505.304 0 507.014 0C508.709 0 510.232 0.382844 511.584 1.14852C512.953 1.8979 514.02 2.94052 514.785 4.27637C515.551 5.61223 515.934 7.11915 515.934 8.79711C515.934 10.4751 515.551 11.9901 514.785 13.3423C514.02 14.6781 512.953 15.7289 511.584 16.4946C510.232 17.244 508.709 17.6187 507.014 17.6187ZM507.014 14.5152C508.041 14.5152 508.937 14.2709 509.702 13.7821C510.468 13.2934 511.055 12.6173 511.462 11.7539C511.869 10.8905 512.073 9.9049 512.073 8.79711C512.073 7.68933 511.869 6.70373 511.462 5.84031C511.055 4.97689 510.468 4.30081 509.702 3.81209C508.937 3.32336 508.041 3.079 507.014 3.079C505.988 3.079 505.092 3.32336 504.326 3.81209C503.561 4.30081 502.966 4.97689 502.543 5.84031C502.135 6.70373 501.932 7.68933 501.932 8.79711C501.932 9.9049 502.135 10.8905 502.543 11.7539C502.966 12.6173 503.561 13.2934 504.326 13.7821C505.092 14.2709 505.988 14.5152 507.014 14.5152Z" fill="#FFBA72"/>
<path d="M482.018 0.268792H488.493C490.416 0.268792 492.086 0.643484 493.503 1.39287C494.92 2.12596 496.004 3.136 496.753 4.42298C497.502 5.70997 497.877 7.168 497.877 8.7971C497.877 10.361 497.502 11.7946 496.753 13.0979C496.004 14.3849 494.92 15.4112 493.503 16.1769C492.086 16.9263 490.416 17.301 488.493 17.301H482.018V0.268792ZM484.852 14.222H488.249C489.438 14.222 490.465 13.9939 491.328 13.5378C492.208 13.0816 492.876 12.4463 493.332 11.6317C493.804 10.8009 494.04 9.85601 494.04 8.7971C494.04 7.73819 493.804 6.80147 493.332 5.98692C492.876 5.15608 492.208 4.5126 491.328 4.05645C490.465 3.58401 489.438 3.34778 488.249 3.34778H484.852L485.781 2.44364V15.1506L484.852 14.222Z" fill="#FFBA72"/>
<path d="M465.24 0.268792H468.636L478.191 12.0471L479.975 10.8253C479.372 10.1574 478.875 9.54649 478.484 8.99259C478.093 8.4387 477.776 7.84408 477.531 7.20873C477.287 6.5571 477.165 5.88104 477.165 5.18053V0.268792H480.952V17.301H477.824L468.172 5.44932L466.339 6.64671C467.024 7.29834 467.561 7.94183 467.952 8.57717C468.653 9.70125 469.003 10.9312 469.003 12.2671V17.301H465.24V0.268792Z" fill="#FFBA72"/>
<path d="M461.115 17.301L459.283 12.6336L460.431 13.44H451.365L452.514 12.6336L450.657 17.301H446.649L453.907 0.268792H457.865L465.147 17.301H461.115ZM454.908 3.10343C454.925 3.73878 454.917 4.3334 454.884 4.88729C454.851 5.42489 454.778 5.96248 454.664 6.50008C454.566 7.02139 454.428 7.55899 454.249 8.11289C454.037 8.71565 453.581 9.73383 452.88 11.1674L452.343 10.6054H459.429L458.892 11.1674C458.549 10.4669 458.232 9.75011 457.939 9.01702C457.515 7.99069 457.238 7.03768 457.108 6.15797C456.977 5.26197 456.929 4.2438 456.961 3.10343H454.908Z" fill="#FFBA72"/>
<path d="M432.972 0.268792H440.89C443.056 0.268792 444.677 0.651637 445.752 1.41731C446.828 2.16669 447.365 3.2989 447.365 4.81396C447.365 5.74254 447.121 6.51638 446.632 7.13544C446.143 7.75449 445.484 8.22693 444.653 8.55275C443.822 8.87857 442.885 9.07404 441.843 9.1392V11.0941C442.592 11.1267 443.235 11.2896 443.773 11.5828C444.327 11.8598 444.84 12.3159 445.313 12.9513L445.386 13.049L448.514 17.301H444.091L441.403 13.4644C441.338 13.3667 441.272 13.269 441.207 13.1712C440.735 12.5033 440.352 12.0308 440.059 11.7539C439.782 11.477 439.472 11.2896 439.13 11.1919C438.788 11.0778 438.291 11.0208 437.64 11.0208H435.807L436.735 10.1167V17.301H432.972V0.268792ZM435.807 8.62604H440.205C440.955 8.62604 441.574 8.5283 442.063 8.33281C442.568 8.12103 442.942 7.8115 443.187 7.40423C443.447 6.99696 443.578 6.48379 443.578 5.86474C443.578 4.96874 443.301 4.30081 442.747 3.86096C442.193 3.4211 441.346 3.20117 440.205 3.20117H435.807L436.735 2.24815V9.50575L435.807 8.62604Z" fill="#FFBA72"/>
<path d="M409.755 17.6187C408.044 17.6187 406.513 17.244 405.161 16.4946C403.809 15.7289 402.75 14.6781 401.984 13.3423C401.218 11.9901 400.835 10.4751 400.835 8.79711C400.835 7.11915 401.218 5.61223 401.984 4.27637C402.75 2.94052 403.809 1.8979 405.161 1.14852C406.513 0.382844 408.044 0 409.755 0C411.449 0 412.972 0.382844 414.324 1.14852C415.693 1.8979 416.76 2.94052 417.526 4.27637C418.291 5.61223 418.674 7.11915 418.674 8.79711C418.674 10.4751 418.291 11.9901 417.526 13.3423C416.76 14.6781 415.693 15.7289 414.324 16.4946C412.972 17.244 411.449 17.6187 409.755 17.6187ZM409.755 14.5152C410.781 14.5152 411.677 14.2709 412.443 13.7821C413.208 13.2934 413.795 12.6173 414.202 11.7539C414.609 10.8905 414.813 9.9049 414.813 8.79711C414.813 7.68933 414.609 6.70373 414.202 5.84031C413.795 4.97689 413.208 4.30081 412.443 3.81209C411.677 3.32336 410.781 3.079 409.755 3.079C408.728 3.079 407.832 3.32336 407.067 3.81209C406.301 4.30081 405.706 4.97689 405.283 5.84031C404.876 6.70373 404.672 7.68933 404.672 8.79711C404.672 9.9049 404.876 10.8905 405.283 11.7539C405.706 12.6173 406.301 13.2934 407.067 13.7821C407.832 14.2709 408.728 14.5152 409.755 14.5152Z" fill="#FFBA72"/>
<path d="M392.785 7.9907V9.3347L386.554 0.268792H390.952C391.979 1.78385 392.663 2.97309 393.005 3.83651C393.364 4.68364 393.543 5.62851 393.543 6.67113H395.644C395.644 5.87288 395.742 5.1968 395.938 4.64291C396.1 4.08901 396.361 3.47812 396.719 2.81019C397.078 2.14227 397.607 1.29512 398.308 0.268792H402.609L396.377 9.2614V7.94183L402.853 17.301H398.454C397.673 16.2909 397.078 15.4438 396.671 14.7596C396.28 14.0754 396.003 13.4482 395.84 12.878C395.677 12.2915 395.595 11.6399 395.595 10.9231H393.494C393.494 11.6236 393.412 12.2589 393.25 12.8291C393.087 13.3993 392.802 14.0265 392.394 14.7107C392.003 15.3949 391.417 16.2584 390.635 17.301H386.334L392.785 7.9907Z" fill="#FFBA72"/>
<path d="M364.17 2.4192L365.025 3.34778H358.525V0.268792H373.602V3.34778H367.102L367.958 2.4192V17.301H364.17V2.4192Z" fill="#FFBA72"/>
<path d="M354.656 0.268792H358.42V17.301H354.656V0.268792Z" fill="#FFBA72"/>
<path d="M350.532 17.301L348.699 12.6336L349.848 13.44H340.782L341.93 12.6336L340.073 17.301H336.066L343.323 0.268792H347.282L354.564 17.301H350.532ZM344.325 3.10343C344.341 3.73878 344.333 4.3334 344.301 4.88729C344.268 5.42489 344.195 5.96248 344.081 6.50008C343.983 7.02139 343.845 7.55899 343.665 8.11289C343.454 8.71565 342.997 9.73383 342.297 11.1674L341.759 10.6054H348.846L348.308 11.1674C347.966 10.4669 347.649 9.75011 347.355 9.01702C346.932 7.99069 346.655 7.03768 346.524 6.15797C346.394 5.26197 346.345 4.2438 346.378 3.10343H344.325Z" fill="#FFBA72"/>
<path d="M322.389 0.268792H330.306C332.473 0.268792 334.094 0.651637 335.169 1.41731C336.244 2.16669 336.782 3.2989 336.782 4.81396C336.782 5.74254 336.538 6.51638 336.049 7.13544C335.56 7.75449 334.9 8.22693 334.07 8.55275C333.239 8.87857 332.302 9.07404 331.259 9.1392V11.0941C332.009 11.1267 332.652 11.2896 333.19 11.5828C333.744 11.8598 334.257 12.3159 334.729 12.9513L334.803 13.049L337.93 17.301H333.507L330.819 13.4644C330.754 13.3667 330.689 13.269 330.624 13.1712C330.152 12.5033 329.769 12.0308 329.475 11.7539C329.199 11.477 328.889 11.2896 328.547 11.1919C328.205 11.0778 327.708 11.0208 327.056 11.0208H325.224L326.152 10.1167V17.301H322.389V0.268792ZM325.224 8.62604H329.622C330.371 8.62604 330.991 8.5283 331.479 8.33281C331.984 8.12103 332.359 7.8115 332.603 7.40423C332.864 6.99696 332.994 6.48379 332.994 5.86474C332.994 4.96874 332.717 4.30081 332.163 3.86096C331.61 3.4211 330.762 3.20117 329.622 3.20117H325.224L326.152 2.24815V9.50575L325.224 8.62604Z" fill="#FFBA72"/>
<path d="M312.855 2.4192L313.711 3.34778H307.211V0.268792H322.288V3.34778H315.788L316.643 2.4192V17.301H312.855V2.4192Z" fill="#FFBA72"/>
<path d="M293.558 0.268792H301.475C303.642 0.268792 305.263 0.651637 306.338 1.41731C307.413 2.16669 307.951 3.2989 307.951 4.81396C307.951 5.74254 307.706 6.51638 307.218 7.13544C306.729 7.75449 306.069 8.22693 305.238 8.55275C304.408 8.87857 303.471 9.07404 302.428 9.1392V11.0941C303.178 11.1267 303.821 11.2896 304.359 11.5828C304.913 11.8598 305.426 12.3159 305.898 12.9513L305.971 13.049L309.099 17.301H304.676L301.988 13.4644C301.923 13.3667 301.858 13.269 301.793 13.1712C301.32 12.5033 300.938 12.0308 300.644 11.7539C300.367 11.477 300.058 11.2896 299.716 11.1919C299.374 11.0778 298.877 11.0208 298.225 11.0208H296.392L297.321 10.1167V17.301H293.558V0.268792ZM296.392 8.62604H300.791C301.54 8.62604 302.159 8.5283 302.648 8.33281C303.153 8.12103 303.528 7.8115 303.772 7.40423C304.033 6.99696 304.163 6.48379 304.163 5.86474C304.163 4.96874 303.886 4.30081 303.332 3.86096C302.778 3.4211 301.931 3.20117 300.791 3.20117H296.392L297.321 2.24815V9.50575L296.392 8.62604Z" fill="#FFBA72"/>
<path d="M283.948 17.6187C282.238 17.6187 280.706 17.244 279.354 16.4946C278.002 15.7289 276.943 14.6781 276.178 13.3423C275.412 11.9901 275.029 10.4751 275.029 8.79711C275.029 7.11915 275.412 5.61223 276.178 4.27637C276.943 2.94052 278.002 1.8979 279.354 1.14852C280.706 0.382844 282.238 0 283.948 0C285.643 0 287.166 0.382844 288.518 1.14852C289.886 1.8979 290.953 2.94052 291.719 4.27637C292.485 5.61223 292.868 7.11915 292.868 8.79711C292.868 10.4751 292.485 11.9901 291.719 13.3423C290.953 14.6781 289.886 15.7289 288.518 16.4946C287.166 17.244 285.643 17.6187 283.948 17.6187ZM283.948 14.5152C284.975 14.5152 285.871 14.2709 286.636 13.7821C287.402 13.2934 287.989 12.6173 288.396 11.7539C288.803 10.8905 289.007 9.9049 289.007 8.79711C289.007 7.68933 288.803 6.70373 288.396 5.84031C287.989 4.97689 287.402 4.30081 286.636 3.81209C285.871 3.32336 284.975 3.079 283.948 3.079C282.922 3.079 282.026 3.32336 281.26 3.81209C280.495 4.30081 279.9 4.97689 279.477 5.84031C279.069 6.70373 278.866 7.68933 278.866 8.79711C278.866 9.9049 279.069 10.8905 279.477 11.7539C279.9 12.6173 280.495 13.2934 281.26 13.7821C282.026 14.2709 282.922 14.5152 283.948 14.5152Z" fill="#FFBA72"/>
<path d="M260.264 0.268792H267.888C269.338 0.268792 270.576 0.496875 271.603 0.953021C272.645 1.39288 273.435 2.04451 273.973 2.90793C274.527 3.77135 274.804 4.80584 274.804 6.01136C274.804 7.85224 274.193 9.30212 272.971 10.361C271.749 11.4199 270.055 11.9494 267.888 11.9494H263.099L264.027 11.0941V17.301H260.264V0.268792ZM263.099 9.01702H267.424C268.597 9.01702 269.493 8.77267 270.112 8.28394C270.731 7.77892 271.041 7.05398 271.041 6.1091C271.041 5.2131 270.731 4.52889 270.112 4.05645C269.493 3.58401 268.589 3.34778 267.4 3.34778H263.099L264.027 2.49251V9.84788L263.099 9.01702Z" fill="#FFBA72"/>
</svg>
