<svg width="641" height="18" viewBox="0 0 641 18" fill="none" xmlns="http://www.w3.org/2000/svg">
<path d="M224.332 0.31768H237.796V3.39665H227.167L228.095 2.51696V8.16174L227.167 7.30647H237.039V10.2144H227.167L228.095 9.40801V15.1994L227.167 14.2708H238.09V17.3499H224.332V0.31768Z" fill="#FFBA72"/>
<path d="M207.554 0.31768H210.951L220.505 12.096L222.289 10.8742C221.686 10.2063 221.189 9.59537 220.798 9.04148C220.408 8.48759 220.09 7.89297 219.845 7.25762C219.601 6.60598 219.479 5.92991 219.479 5.2294V0.31768H223.267V17.3499H220.139L210.486 5.49819L208.654 6.69558C209.338 7.34721 209.875 7.99072 210.266 8.62606C210.967 9.75014 211.317 10.9801 211.317 12.3159V17.3499H207.554V0.31768Z" fill="#FFBA72"/>
<path d="M198.021 2.46807L198.876 3.39665H192.376V0.31768H207.453V3.39665H200.953L201.808 2.46807V17.3499H198.021V2.46807Z" fill="#FFBA72"/>
<path d="M191.997 17.3499L190.164 12.6825L191.313 13.4889H182.247L183.395 12.6825L181.538 17.3499H177.531L184.788 0.31768H188.747L196.029 17.3499H191.997ZM185.79 3.15228C185.806 3.78763 185.798 4.38225 185.766 4.93614C185.733 5.47374 185.66 6.01135 185.546 6.54895C185.448 7.07026 185.31 7.60785 185.13 8.16174C184.919 8.7645 184.462 9.7827 183.762 11.2163L183.224 10.6543H190.311L189.773 11.2163C189.431 10.5158 189.113 9.799 188.82 9.06591C188.397 8.03958 188.12 7.08655 187.989 6.20684C187.859 5.31084 187.81 4.29265 187.843 3.15228H185.79Z" fill="#FFBA72"/>
<path d="M163.854 0.31768H171.771C173.938 0.31768 175.559 0.700542 176.634 1.46622C177.709 2.2156 178.247 3.34781 178.247 4.86286C178.247 5.79145 178.003 6.56525 177.514 7.18431C177.025 7.80336 176.365 8.27582 175.534 8.60164C174.704 8.92746 173.767 9.12294 172.724 9.18811V11.143C173.474 11.1756 174.117 11.3385 174.655 11.6317C175.209 11.9087 175.722 12.3648 176.194 13.0002L176.268 13.0979L179.395 17.3499H174.972L172.284 13.5134C172.219 13.4156 172.154 13.3178 172.089 13.2201C171.616 12.5522 171.234 12.0797 170.94 11.8028C170.663 11.5258 170.354 11.3385 170.012 11.2408C169.67 11.1267 169.173 11.0697 168.521 11.0697H166.688L167.617 10.1656V17.3499H163.854V0.31768ZM166.688 8.67495H171.087C171.836 8.67495 172.455 8.57719 172.944 8.3817C173.449 8.16991 173.824 7.86037 174.068 7.4531C174.329 7.04583 174.459 6.53268 174.459 5.91363C174.459 5.01762 174.182 4.34968 173.628 3.90983C173.075 3.46997 172.227 3.25007 171.087 3.25007H166.688L167.617 2.29702V9.55464L166.688 8.67495Z" fill="#FFBA72"/>
<path d="M159.008 0.31768H162.771V17.3499H159.008V0.31768Z" fill="#FFBA72"/>
<path d="M141.777 0.31768H145.711C146.021 1.13223 146.314 1.8979 146.591 2.6147C147.373 4.87914 147.951 6.60597 148.326 7.79521C148.701 8.96815 148.961 10.0189 149.108 10.9475C149.255 11.8761 149.328 13.0083 149.328 14.3442H151.356C151.356 13.0409 151.429 11.9331 151.576 11.0208C151.723 10.0922 151.975 9.05779 152.334 7.91743C152.708 6.76077 153.254 5.09907 153.971 2.93238C154.313 2.06896 154.655 1.19739 154.997 0.31768H158.931L152.578 17.3499H148.131L141.777 0.31768Z" fill="#FFBA72"/>
<path d="M128.434 0.31768H141.899V3.39665H131.269L132.198 2.51696V8.16174L131.269 7.30647H141.141V10.2144H131.269L132.198 9.40801V15.1994L131.269 14.2708H142.192V17.3499H128.434V0.31768Z" fill="#FFBA72"/>
<path d="M111.656 0.31768H115.053L124.608 12.096L126.392 10.8742C125.789 10.2063 125.292 9.59537 124.901 9.04148C124.51 8.48759 124.192 7.89297 123.948 7.25762C123.704 6.60598 123.581 5.92991 123.581 5.2294V0.31768H127.369V17.3499H124.241L114.589 5.49819L112.756 6.69558C113.44 7.34721 113.978 7.99072 114.369 8.62606C115.069 9.75014 115.42 10.9801 115.42 12.3159V17.3499H111.656V0.31768Z" fill="#FFBA72"/>
<path d="M97.3363 0.31768H110.801V3.39665H100.171L101.099 2.51696V8.16174L100.171 7.30647H110.043V10.2144H100.171L101.099 9.40801V15.1994L100.171 14.2708H111.094V17.3499H97.3363V0.31768Z" fill="#FFBA72"/>
<path d="M89.6044 17.6675C88.1871 17.6675 86.9409 17.4883 85.8657 17.1299C84.8068 16.7715 83.9841 16.2584 83.3976 15.5904C82.8111 14.9062 82.5179 14.1242 82.5179 13.2445C82.5179 12.4463 82.7541 11.7784 83.2265 11.2408C83.699 10.7032 84.3343 10.2959 85.1326 10.0189C85.9471 9.72567 86.8513 9.57093 87.845 9.55464V7.57532C86.7209 7.52645 85.7353 7.38796 84.8882 7.15988C84.0411 6.91552 83.365 6.54079 82.86 6.03577C82.355 5.53075 82.1025 4.871 82.1025 4.05645C82.1025 3.22561 82.3713 2.50882 82.9089 1.90606C83.4465 1.28701 84.2203 0.814552 85.2303 0.488733C86.2404 0.162914 87.4133 0 88.7492 0C90.362 0 91.8281 0.21993 93.1477 0.659785C94.4673 1.09964 95.738 1.73501 96.9598 2.56585L95.2737 5.32714C94.4591 4.65921 93.4654 4.12162 92.2924 3.71435C91.1358 3.30707 89.9954 3.09531 88.8713 3.07902C87.9428 3.07902 87.2341 3.24188 86.7454 3.5677C86.2567 3.87723 86.0123 4.28453 86.0123 4.78955C86.0123 5.14795 86.1345 5.45749 86.3788 5.71815C86.6232 5.96251 86.9653 6.17427 87.4052 6.35347C87.8613 6.51638 88.4396 6.66299 89.1401 6.79332L91.1684 7.25762C92.8952 7.61602 94.2474 8.21064 95.2248 9.04148C96.2186 9.87232 96.7154 10.9882 96.7154 12.3892C96.7154 13.3178 96.4303 14.1894 95.8602 15.004C95.29 15.8022 94.4673 16.4457 93.3921 16.9344C92.3169 17.4232 91.0543 17.6675 89.6044 17.6675ZM89.7022 14.9551C90.3538 14.9551 90.9159 14.841 91.3883 14.6129C91.877 14.3849 92.2436 14.0835 92.4879 13.7088C92.7486 13.3341 92.8789 12.9187 92.8789 12.4626C92.8789 11.9576 92.7404 11.5177 92.4635 11.143C92.2028 10.752 91.82 10.4507 91.315 10.2389C90.8263 10.0108 90.2642 9.89676 89.6289 9.89676C89.0261 9.89676 88.4804 10.0027 87.9916 10.2144C87.5029 10.4262 87.1201 10.7276 86.8431 11.1186C86.5662 11.4933 86.4277 11.9331 86.4277 12.4381C86.4277 12.9106 86.5662 13.3423 86.8431 13.7333C87.1201 14.1079 87.5029 14.4094 87.9916 14.6374C88.4967 14.8492 89.0668 14.9551 89.7022 14.9551Z" fill="#FFBA72"/>
<path d="M61.0816 0.31768H64.4783L74.0329 12.096L75.8168 10.8742C75.214 10.2063 74.7171 9.59537 74.3262 9.04148C73.9352 8.48759 73.6175 7.89297 73.3731 7.25762C73.1288 6.60598 73.0066 5.92991 73.0066 5.2294V0.31768H76.7942V17.3499H73.6664L64.014 5.49819L62.1813 6.69558C62.8655 7.34721 63.4031 7.99072 63.7941 8.62606C64.4946 9.75014 64.8448 10.9801 64.8448 12.3159V17.3499H61.0816V0.31768Z" fill="#FFBA72"/>
<path d="M46.7615 0.31768H60.226V3.39665H49.5961L50.5247 2.51696V8.16174L49.5961 7.30647H59.4684V10.2144H49.5961L50.5247 9.40801V15.1994L49.5961 14.2708H60.5192V17.3499H46.7615V0.31768Z" fill="#FFBA72"/>
<path d="M31.1528 0.31768H39.0702C41.2369 0.31768 42.8578 0.700542 43.933 1.46622C45.0082 2.2156 45.5458 3.34781 45.5458 4.86286C45.5458 5.79145 45.3014 6.56525 44.8127 7.18431C44.324 7.80336 43.6642 8.27582 42.8334 8.60164C42.0025 8.92746 41.0658 9.12294 40.0232 9.18811V11.143C40.7726 11.1756 41.4161 11.3385 41.9537 11.6317C42.5076 11.9087 43.0207 12.3648 43.4932 13.0002L43.5665 13.0979L46.6943 17.3499H42.2713L39.5833 13.5134C39.5182 13.4156 39.453 13.3178 39.3878 13.2201C38.9154 12.5522 38.5326 12.0797 38.2393 11.8028C37.9624 11.5258 37.6529 11.3385 37.3107 11.2408C36.9686 11.1267 36.4718 11.0697 35.8201 11.0697H33.9874L34.916 10.1656V17.3499H31.1528V0.31768ZM33.9874 8.67495H38.3859C39.1353 8.67495 39.7544 8.57719 40.2431 8.3817C40.7481 8.16991 41.1228 7.86037 41.3672 7.4531C41.6278 7.04583 41.7582 6.53268 41.7582 5.91363C41.7582 5.01762 41.4812 4.34968 40.9273 3.90983C40.3734 3.46997 39.5263 3.25007 38.3859 3.25007H33.9874L34.916 2.29702V9.55464L33.9874 8.67495Z" fill="#FFBA72"/>
<path d="M22.6625 17.692C21.1311 17.692 19.7953 17.4231 18.6549 16.8855C17.5145 16.3316 16.6348 15.509 16.0158 14.4175C15.413 13.326 15.1116 11.9901 15.1116 10.4099V0.31768H18.8748V10.3122C18.8748 11.2245 19.0214 11.9983 19.3147 12.6336C19.6242 13.2527 20.0559 13.7251 20.6098 14.0509C21.18 14.3605 21.8642 14.5152 22.6625 14.5152C23.8517 14.5152 24.7721 14.1568 25.4238 13.44C26.0917 12.7069 26.4257 11.6643 26.4257 10.3122V0.31768H30.1889V10.4099C30.1889 12.7884 29.5128 14.5967 28.1607 15.8348C26.8248 17.0729 24.9921 17.692 22.6625 17.692Z" fill="#FFBA72"/>
<path d="M7.50197 17.6675C6.08466 17.6675 4.83841 17.4883 3.7632 17.1299C2.70429 16.7715 1.8816 16.2584 1.29513 15.5904C0.708655 14.9062 0.41542 14.1242 0.41542 13.2445C0.41542 12.4463 0.651637 11.7784 1.12407 11.2408C1.59651 10.7032 2.23186 10.2959 3.03011 10.0189C3.84466 9.72567 4.74881 9.57093 5.74255 9.55464V7.57532C4.61848 7.52645 3.63288 7.38796 2.78575 7.15988C1.93862 6.91552 1.26255 6.54079 0.757528 6.03577C0.252509 5.53075 0 4.871 0 4.05645C0 3.22561 0.2688 2.50882 0.806401 1.90606C1.344 1.28701 2.11782 0.814552 3.12786 0.488733C4.1379 0.162914 5.31084 0 6.6467 0C8.2595 0 9.72569 0.21993 11.0453 0.659785C12.3648 1.09964 13.6355 1.73501 14.8573 2.56585L13.1712 5.32714C12.3567 4.65921 11.3629 4.12162 10.19 3.71435C9.03332 3.30707 7.89296 3.09531 6.76888 3.07902C5.8403 3.07902 5.13164 3.24188 4.64291 3.5677C4.15419 3.87723 3.90982 4.28453 3.90982 4.78955C3.90982 5.14795 4.03201 5.45749 4.27637 5.71815C4.52073 5.96251 4.86284 6.17427 5.3027 6.35347C5.75884 6.51638 6.33717 6.66299 7.03768 6.79332L9.0659 7.25762C10.7927 7.61602 12.1449 8.21064 13.1223 9.04148C14.1161 9.87232 14.613 10.9882 14.613 12.3892C14.613 13.3178 14.3279 14.1894 13.7577 15.004C13.1875 15.8022 12.3648 16.4457 11.2896 16.9344C10.2144 17.4232 8.95187 17.6675 7.50197 17.6675ZM7.59972 14.9551C8.25136 14.9551 8.81339 14.841 9.28583 14.6129C9.77456 14.3849 10.1411 14.0835 10.3855 13.7088C10.6461 13.3341 10.7765 12.9187 10.7765 12.4626C10.7765 11.9576 10.638 11.5177 10.361 11.143C10.1004 10.752 9.71754 10.4507 9.21252 10.2389C8.72379 10.0108 8.16176 9.89676 7.52641 9.89676C6.92365 9.89676 6.3779 10.0027 5.88917 10.2144C5.40044 10.4262 5.01761 10.7276 4.74066 11.1186C4.46372 11.4933 4.32524 11.9331 4.32524 12.4381C4.32524 12.9106 4.46372 13.3423 4.74066 13.7333C5.01761 14.1079 5.40044 14.4094 5.88917 14.6374C6.39419 14.8492 6.96437 14.9551 7.59972 14.9551Z" fill="#FFBA72"/>
<path d="M390.647 0.330078H404.112V3.40905H393.482L394.41 2.52936V8.17414L393.482 7.31887H403.354V10.2268H393.482L394.41 9.42041V15.2118L393.482 14.2832H404.405V17.3623H390.647V0.330078Z" fill="#FFBA72"/>
<path d="M376.435 14.5276L386.063 2.70041L384.572 1.4053C384.1 1.82886 383.578 2.1791 383.008 2.45604C382.438 2.73299 381.786 2.9448 381.053 3.09142C380.32 3.23804 379.343 3.33577 378.121 3.38464C377.583 3.40093 377.111 3.40905 376.704 3.40905V0.330078H390.021V3.16468L380.369 15.0408L381.884 16.287C382.357 15.9123 382.886 15.5947 383.472 15.334C384.059 15.0571 384.735 14.829 385.501 14.6498C386.283 14.4706 387.309 14.3566 388.58 14.3077C389.134 14.2914 389.63 14.2832 390.07 14.2832V17.3623H376.435V14.5276Z" fill="#FFBA72"/>
<path d="M373.109 17.3623L371.277 12.6949L372.425 13.5013H363.359L364.508 12.6949L362.651 17.3623H358.643L365.901 0.330078H369.859L377.141 17.3623H373.109ZM366.903 3.16468C366.919 3.80003 366.911 4.39465 366.878 4.94854C366.845 5.48614 366.772 6.02375 366.658 6.56135C366.56 7.08266 366.422 7.62025 366.243 8.17414C366.031 8.7769 365.575 9.7951 364.874 11.2287L364.337 10.6667H371.423L370.886 11.2287C370.544 10.5282 370.226 9.8114 369.933 9.07831C369.509 8.05198 369.232 7.09895 369.102 6.21924C368.971 5.32324 368.923 4.30505 368.955 3.16468H366.903Z" fill="#FFBA72"/>
<path d="M344.394 0.330078H350.869C352.791 0.330078 354.461 0.704752 355.879 1.45413C357.296 2.18723 358.379 3.19729 359.129 4.48427C359.878 5.77125 360.253 7.22931 360.253 8.8584C360.253 10.4223 359.878 11.8559 359.129 13.1592C358.379 14.4462 357.296 15.4725 355.879 16.2382C354.461 16.9876 352.791 17.3623 350.869 17.3623H344.394V0.330078ZM347.228 14.2832H350.625C351.814 14.2832 352.84 14.0552 353.704 13.599C354.583 13.1429 355.251 12.5076 355.708 11.693C356.18 10.8622 356.416 9.91731 356.416 8.8584C356.416 7.79949 356.18 6.86272 355.708 6.04817C355.251 5.21733 354.583 4.57388 353.704 4.11774C352.84 3.6453 351.814 3.40905 350.625 3.40905H347.228L348.157 2.50493V15.2118L347.228 14.2832Z" fill="#FFBA72"/>
<path d="M323.079 0.330078H326.476L336.031 12.1084L337.815 10.8866C337.212 10.2187 336.715 9.60777 336.324 9.05388C335.933 8.49999 335.615 7.90537 335.371 7.27002C335.127 6.61838 335.004 5.9423 335.004 5.24179V0.330078H338.792V17.3623H335.664L326.012 5.51059L324.179 6.70797C324.863 7.35961 325.401 8.00311 325.792 8.63846C326.492 9.76254 326.843 10.9925 326.843 12.3283V17.3623H323.079V0.330078Z" fill="#FFBA72"/>
<path d="M308.759 0.330078H322.224V3.40905H311.594L312.523 2.52936V8.17414L311.594 7.31887H321.466V10.2268H311.594L312.523 9.42041V15.2118L311.594 14.2832H322.517V17.3623H308.759V0.330078Z" fill="#FFBA72"/>
<path d="M294.439 0.330078H307.904V3.40905H297.274L298.202 2.52936V8.17414L297.274 7.31887H307.146V10.2268H297.274L298.202 9.42041V15.2118L297.274 14.2832H308.197V17.3623H294.439V0.330078Z" fill="#FFBA72"/>
<path d="M284.906 2.48047L285.761 3.40905H279.261V0.330078H294.338V3.40905H287.838L288.693 2.48047V17.3623H284.906V2.48047Z" fill="#FFBA72"/>
<path d="M495.29 17.2801L493.477 12.6641L494.613 13.4617H485.647L486.783 12.6641L484.946 17.2801H480.983L488.16 0.435547H492.075L499.277 17.2801H495.29ZM489.151 3.23894C489.167 3.86729 489.159 4.45535 489.127 5.00314C489.095 5.53482 489.022 6.0665 488.91 6.59818C488.813 7.11375 488.676 7.64542 488.499 8.19321C488.289 8.78934 487.838 9.7963 487.145 11.2141L486.614 10.6583H493.622L493.09 11.2141C492.752 10.5213 492.438 9.81241 492.148 9.0874C491.729 8.07238 491.455 7.12986 491.326 6.25984C491.197 5.37371 491.149 4.36674 491.181 3.23894H489.151Z" fill="#FFBA72"/>
<path d="M472.485 17.5942C471.116 17.5942 469.859 17.2236 468.715 16.4825C467.571 15.7414 466.669 14.7103 466.008 13.3891C465.348 12.0519 465.017 10.5374 465.017 8.84569C465.017 7.15399 465.388 5.64756 466.129 4.32643C466.87 2.98917 467.901 1.94999 469.222 1.20886C470.544 0.467732 472.05 0.097168 473.742 0.097168C475.143 0.097168 476.456 0.363007 477.681 0.894685C478.905 1.42636 479.953 2.13527 480.823 3.0214L478.72 5.43812C478.043 4.76144 477.326 4.22976 476.569 3.84308C475.812 3.45641 474.926 3.26307 473.911 3.26307C472.864 3.26307 471.945 3.5128 471.156 4.01225C470.382 4.4956 469.786 5.16422 469.367 6.01813C468.949 6.87204 468.739 7.81456 468.739 8.84569C468.739 9.94127 468.949 10.9241 469.367 11.7941C469.786 12.648 470.391 13.3166 471.18 13.8C471.969 14.2833 472.904 14.525 473.983 14.525C474.821 14.525 475.57 14.3397 476.231 13.9691C476.891 13.5825 477.399 13.0105 477.753 12.2533C478.108 11.496 478.237 10.5696 478.14 9.47404L479.083 10.4891H473.283V7.83067H481.113V17.28H477.971C478.229 16.6678 478.495 16.1039 478.768 15.5883C479.075 14.96 479.413 14.3719 479.783 13.8241L477.778 12.9541C477.633 13.6952 477.359 14.4203 476.956 15.1292C476.553 15.822 475.981 16.41 475.24 16.8934C474.499 17.3606 473.581 17.5942 472.485 17.5942Z" fill="#FFBA72"/>
<path d="M460.587 0.435547H464.309V17.2801H460.587V0.435547Z" fill="#FFBA72"/>
<path d="M451.159 2.56275L452.004 3.4811H445.576V0.436035H460.487V3.4811H454.059L454.904 2.56275V17.2806H451.159V2.56275Z" fill="#FFBA72"/>
<path d="M631.102 2.38111L631.948 3.29946H625.52V0.254395H640.431V3.29946H634.002L634.848 2.38111V17.0989H631.102V2.38111Z" fill="#FFBA72"/>
<path d="M618.487 17.0989L616.675 12.483L617.811 13.2805H608.845L609.981 12.483L608.144 17.0989H604.18L611.358 0.254395H615.273L622.475 17.0989H618.487ZM612.349 3.05779C612.365 3.68613 612.357 4.2742 612.325 4.82199C612.293 5.35367 612.22 5.88535 612.107 6.41703C612.011 6.93259 611.874 7.46427 611.696 8.01206C611.487 8.60818 611.036 9.61515 610.343 11.033L609.811 10.4771H616.82L616.288 11.033C615.95 10.3402 615.636 9.63126 615.346 8.90625C614.927 7.89122 614.653 6.9487 614.524 6.07869C614.395 5.19256 614.347 4.18559 614.379 3.05779H612.349Z" fill="#FFBA72"/>
<path d="M588.554 0.254395H591.913L601.362 11.903L603.127 10.6946C602.53 10.034 602.039 9.42987 601.652 8.88208C601.266 8.33429 600.951 7.74622 600.71 7.11787C600.468 6.47342 600.347 5.80479 600.347 5.112V0.254395H604.093V17.0989H601L591.454 5.37784L589.641 6.56203C590.318 7.20649 590.85 7.84289 591.236 8.47124C591.929 9.58293 592.275 10.7993 592.275 12.1205V17.0989H588.554V0.254395Z" fill="#FFBA72"/>
<path d="M584.475 17.0989L582.662 12.483L583.798 13.2805H574.832L575.968 12.483L574.131 17.0989H570.168L577.345 0.254395H581.26L588.462 17.0989H584.475ZM578.336 3.05779C578.352 3.68613 578.344 4.2742 578.312 4.82199C578.28 5.35367 578.207 5.88535 578.095 6.41703C577.998 6.93259 577.861 7.46427 577.684 8.01206C577.474 8.60818 577.023 9.61515 576.33 11.033L575.799 10.4771H582.807L582.275 11.033C581.937 10.3402 581.623 9.63126 581.333 8.90625C580.914 7.89122 580.64 6.9487 580.511 6.07869C580.382 5.19256 580.334 4.18559 580.366 3.05779H578.336Z" fill="#FFBA72"/>
<path d="M564.869 17.4373C563.516 17.4373 562.339 17.1473 561.341 16.5672C560.342 15.9872 559.56 15.1333 558.996 14.0055L561.268 11.7096C561.606 12.5152 562.049 13.1274 562.597 13.5463C563.145 13.9652 563.773 14.1747 564.482 14.1747C565.368 14.1747 566.077 13.933 566.609 13.4497C567.141 12.9502 567.407 12.201 567.407 11.2021V0.254395H571.152V11.6371C571.152 12.8777 570.879 13.9411 570.331 14.8272C569.783 15.6972 569.034 16.3497 568.083 16.7847C567.133 17.2198 566.061 17.4373 564.869 17.4373Z" fill="#FFBA72"/>
<path d="M555.46 0.254395H559.182V17.0989H555.46V0.254395Z" fill="#FFBA72"/>
<path d="M546.031 2.38111L546.877 3.29946H540.449V0.254395H555.36V3.29946H548.931L549.777 2.38111V17.0989H546.031V2.38111Z" fill="#FFBA72"/>
</svg>
