<svg width="641" height="18" viewBox="0 0 641 18" fill="none" xmlns="http://www.w3.org/2000/svg">
<path d="M214.69 17.7164C212.979 17.7164 211.448 17.3417 210.096 16.5923C208.744 15.8266 207.685 14.7759 206.919 13.44C206.154 12.0879 205.771 10.5728 205.771 8.89484C205.771 7.21688 206.154 5.70996 206.919 4.3741C207.685 3.03825 208.744 1.99563 210.096 1.24625C211.448 0.480572 212.979 0.0977275 214.69 0.0977275C216.384 0.0977275 217.908 0.480572 219.26 1.24625C220.628 1.99563 221.695 3.03825 222.461 4.3741C223.226 5.70996 223.609 7.21688 223.609 8.89484C223.609 10.5728 223.226 12.0879 222.461 13.44C221.695 14.7759 220.628 15.8266 219.26 16.5923C217.908 17.3417 216.384 17.7164 214.69 17.7164ZM214.69 14.613C215.716 14.613 216.612 14.3686 217.378 13.8799C218.144 13.3911 218.73 12.7151 219.137 11.8516C219.545 10.9882 219.748 10.0026 219.748 8.89484C219.748 7.78706 219.545 6.80146 219.137 5.93804C218.73 5.07462 218.144 4.39854 217.378 3.90981C216.612 3.42109 215.716 3.17673 214.69 3.17673C213.664 3.17673 212.768 3.42109 212.002 3.90981C211.236 4.39854 210.642 5.07462 210.218 5.93804C209.811 6.80146 209.607 7.78706 209.607 8.89484C209.607 10.0026 209.811 10.9882 210.218 11.8516C210.642 12.7151 211.236 13.3911 212.002 13.8799C212.768 14.3686 213.664 14.613 214.69 14.613Z" fill="#FFBA72"/>
<path d="M189.693 0.36652H196.169C198.091 0.36652 199.761 0.741211 201.178 1.49059C202.596 2.22369 203.679 3.23373 204.428 4.52071C205.178 5.80769 205.553 7.26573 205.553 8.89483C205.553 10.4588 205.178 11.8924 204.428 13.1956C203.679 14.4826 202.596 15.509 201.178 16.2746C199.761 17.024 198.091 17.3987 196.169 17.3987H189.693V0.36652ZM192.528 14.3197H195.925C197.114 14.3197 198.14 14.0917 199.004 13.6355C199.883 13.1794 200.551 12.544 201.007 11.7295C201.48 10.8986 201.716 9.95374 201.716 8.89483C201.716 7.83591 201.48 6.8992 201.007 6.08465C200.551 5.25381 199.883 4.61033 199.004 4.15418C198.14 3.68174 197.114 3.44551 195.925 3.44551H192.528L193.457 2.54137V15.2483L192.528 14.3197Z" fill="#FFBA72"/>
<path d="M174.085 0.36652H182.002C184.169 0.36652 185.79 0.749364 186.865 1.51504C187.94 2.26442 188.478 3.39663 188.478 4.91169C188.478 5.84027 188.233 6.61411 187.745 7.23317C187.256 7.85222 186.596 8.32466 185.765 8.65048C184.934 8.9763 183.998 9.17177 182.955 9.23693V11.1918C183.704 11.2244 184.348 11.3873 184.885 11.6806C185.439 11.9575 185.952 12.4137 186.425 13.049L186.498 13.1468L189.626 17.3987H185.203L182.515 13.5622C182.45 13.4644 182.385 13.3667 182.32 13.2689C181.847 12.601 181.464 12.1286 181.171 11.8516C180.894 11.5747 180.585 11.3873 180.242 11.2896C179.9 11.1756 179.404 11.1185 178.752 11.1185H176.919L177.848 10.2144V17.3987H174.085V0.36652ZM176.919 8.72377H181.318C182.067 8.72377 182.686 8.62603 183.175 8.43054C183.68 8.21875 184.055 7.90923 184.299 7.50196C184.56 7.09469 184.69 6.58152 184.69 5.96247C184.69 5.06646 184.413 4.39854 183.859 3.95868C183.305 3.51883 182.458 3.2989 181.318 3.2989H176.919L177.848 2.34588V9.60348L176.919 8.72377Z" fill="#FFBA72"/>
<path d="M169.96 17.3987L168.127 12.7314L169.276 13.5377H160.21L161.359 12.7314L159.501 17.3987H155.494L162.751 0.36652H166.71L173.992 17.3987H169.96ZM163.753 3.20116C163.77 3.8365 163.761 4.43113 163.729 4.98502C163.696 5.52262 163.623 6.06021 163.509 6.59781C163.411 7.11912 163.273 7.65672 163.094 8.21061C162.882 8.81338 162.426 9.83156 161.725 11.2652L161.188 10.7031H168.274L167.737 11.2652C167.394 10.5646 167.077 9.84784 166.783 9.11475C166.36 8.08842 166.083 7.13541 165.953 6.2557C165.822 5.3597 165.773 4.34152 165.806 3.20116H163.753Z" fill="#FFBA72"/>
<path d="M143.464 0.36652H147.227V15.2483L146.298 14.3197H156.39V17.3987H143.464V0.36652Z" fill="#FFBA72"/>
<path d="M130.456 0.36652H134.219V15.2483L133.291 14.3197H143.383V17.3987H130.456V0.36652Z" fill="#FFBA72"/>
<path d="M126.332 17.3987L124.499 12.7314L125.647 13.5377H116.582L117.73 12.7314L115.873 17.3987H111.865L119.123 0.36652H123.082L130.364 17.3987H126.332ZM120.125 3.20116C120.141 3.8365 120.133 4.43113 120.1 4.98502C120.068 5.52262 119.994 6.06021 119.88 6.59781C119.783 7.11912 119.644 7.65672 119.465 8.21061C119.253 8.81338 118.797 9.83156 118.097 11.2652L117.559 10.7031H124.646L124.108 11.2652C123.766 10.5646 123.448 9.84784 123.155 9.11475C122.731 8.08842 122.454 7.13541 122.324 6.2557C122.194 5.3597 122.145 4.34152 122.177 3.20116H120.125Z" fill="#FFBA72"/>
<path d="M103.273 17.7164C101.888 17.7164 100.618 17.3417 99.4609 16.5923C98.3042 15.8429 97.3919 14.8003 96.7239 13.4644C96.056 12.1123 95.722 10.5809 95.722 8.8704C95.722 7.15985 96.0968 5.63664 96.8462 4.30079C97.5955 2.94864 98.6381 1.89787 99.974 1.14849C101.31 0.399105 102.833 0.0244141 104.544 0.0244141C105.961 0.0244141 107.289 0.293226 108.527 0.830826C109.765 1.36843 110.824 2.08522 111.703 2.98122L109.578 5.42486C108.893 4.74064 108.168 4.20304 107.403 3.81206C106.637 3.42107 105.741 3.22558 104.715 3.22558C103.656 3.22558 102.727 3.47811 101.929 3.98313C101.147 4.47185 100.544 5.14792 100.121 6.01134C99.697 6.87475 99.4852 7.82778 99.4852 8.8704C99.4852 9.97818 99.697 10.9719 100.121 11.8516C100.544 12.715 101.155 13.3911 101.953 13.8799C102.752 14.3686 103.696 14.613 104.788 14.613C105.635 14.613 106.393 14.4256 107.061 14.0509C107.728 13.6599 108.242 13.0816 108.6 12.3159C108.958 11.5502 109.089 10.6135 108.991 9.50574L109.944 10.5321H104.079V7.84406H111.997V17.3987H108.82C109.081 16.7796 109.349 16.2095 109.626 15.6881C109.936 15.0528 110.278 14.4582 110.653 13.9043L108.624 13.0246C108.478 13.774 108.201 14.5071 107.794 15.2239C107.386 15.9244 106.808 16.519 106.059 17.0077C105.309 17.4802 104.381 17.7164 103.273 17.7164Z" fill="#FFBA72"/>
<path d="M82.0191 2.51693L82.8744 3.44551H76.3743V0.36652H91.4516V3.44551H84.9515L85.8068 2.51693V17.3987H82.0191V2.51693Z" fill="#FFBA72"/>
<path d="M62.7214 0.36652H70.6388C72.8055 0.36652 74.4264 0.749364 75.5016 1.51504C76.5768 2.26442 77.1144 3.39663 77.1144 4.91169C77.1144 5.84027 76.8701 6.61411 76.3813 7.23317C75.8926 7.85222 75.2329 8.32466 74.402 8.65048C73.5712 8.9763 72.6344 9.17177 71.5918 9.23693V11.1918C72.3412 11.2244 72.9847 11.3873 73.5223 11.6806C74.0762 11.9575 74.5893 12.4137 75.0617 13.049L75.1351 13.1468L78.2629 17.3987H73.84L71.1519 13.5622C71.0868 13.4644 71.0216 13.3667 70.9565 13.2689C70.484 12.601 70.1012 12.1286 69.808 11.8516C69.531 11.5747 69.2214 11.3873 68.8793 11.2896C68.5372 11.1756 68.0404 11.1185 67.3888 11.1185H65.556L66.4846 10.2144V17.3987H62.7214V0.36652ZM65.556 8.72377H69.9546C70.7039 8.72377 71.323 8.62603 71.8117 8.43054C72.3167 8.21875 72.6914 7.90923 72.9358 7.50196C73.1964 7.09469 73.3268 6.58152 73.3268 5.96247C73.3268 5.06646 73.0498 4.39854 72.4959 3.95868C71.942 3.51883 71.0949 3.2989 69.9546 3.2989H65.556L66.4846 2.34588V9.60348L65.556 8.72377Z" fill="#FFBA72"/>
<path d="M48.4013 0.36652H61.8658V3.44551H51.2359L52.1645 2.56582V8.21061L51.2359 7.35533H61.1082V10.2633H51.2359L52.1645 9.45687V15.2483L51.2359 14.3197H62.159V17.3987H48.4013V0.36652Z" fill="#FFBA72"/>
<path d="M32.959 0.36652H41.4384C42.6766 0.36652 43.7191 0.496858 44.5663 0.757513C45.4297 1.00188 46.0895 1.4173 46.5456 2.00377C47.0181 2.57395 47.2543 3.30705 47.2543 4.20305C47.2543 4.95243 47.0913 5.57963 46.7655 6.08465C46.4397 6.57338 45.9673 6.93991 45.3482 7.18428C44.7455 7.42864 44.0124 7.57527 43.149 7.62414V9.60348C44.1427 9.61977 44.9817 9.75011 45.6659 9.99447C46.3664 10.2388 46.904 10.6135 47.2787 11.1185C47.6534 11.6236 47.8408 12.2833 47.8408 13.0979C47.8408 14.0428 47.5801 14.8329 47.0588 15.4682C46.5538 16.1036 45.8451 16.5842 44.9328 16.91C44.0205 17.2358 42.9616 17.3987 41.7561 17.3987H32.959V0.36652ZM41.0474 14.4663C41.6665 14.4663 42.1959 14.393 42.6358 14.2464C43.0919 14.0835 43.434 13.8391 43.6621 13.5133C43.9065 13.1875 44.0287 12.7721 44.0287 12.267C44.0287 11.7946 43.9065 11.4036 43.6621 11.0941C43.434 10.7846 43.1001 10.5565 42.6602 10.4099C42.2204 10.2633 41.6828 10.19 41.0474 10.19H36.7466V14.4663H41.0474ZM40.4854 7.40422C41.4791 7.40422 42.2203 7.24131 42.7091 6.91549C43.2141 6.57338 43.4666 6.03577 43.4666 5.30268C43.4666 4.60217 43.2141 4.09714 42.7091 3.78761C42.2203 3.46179 41.4791 3.2989 40.4854 3.2989H36.7466V7.40422H40.4854Z" fill="#FFBA72"/>
<path d="M23.3741 17.7164C21.6635 17.7164 20.1322 17.3417 18.78 16.5923C17.4279 15.8266 16.3689 14.7759 15.6033 13.44C14.8376 12.0879 14.4548 10.5728 14.4548 8.89484C14.4548 7.21688 14.8376 5.70996 15.6033 4.3741C16.3689 3.03825 17.4279 1.99563 18.78 1.24625C20.1322 0.480572 21.6635 0.0977275 23.3741 0.0977275C25.0683 0.0977275 26.5915 0.480572 27.9437 1.24625C29.3121 1.99563 30.3791 3.03825 31.1448 4.3741C31.9105 5.70996 32.2933 7.21688 32.2933 8.89484C32.2933 10.5728 31.9105 12.0879 31.1448 13.44C30.3791 14.7759 29.3121 15.8266 27.9437 16.5923C26.5915 17.3417 25.0683 17.7164 23.3741 17.7164ZM23.3741 14.613C24.4004 14.613 25.2963 14.3686 26.062 13.8799C26.8277 13.3911 27.4142 12.7151 27.8215 11.8516C28.2287 10.9882 28.4324 10.0026 28.4324 8.89484C28.4324 7.78706 28.2287 6.80146 27.8215 5.93804C27.4142 5.07462 26.8277 4.39854 26.062 3.90981C25.2963 3.42109 24.4004 3.17673 23.3741 3.17673C22.3477 3.17673 21.4517 3.42109 20.686 3.90981C19.9204 4.39854 19.3257 5.07462 18.9022 5.93804C18.4949 6.80146 18.2913 7.78706 18.2913 8.89484C18.2913 10.0026 18.4949 10.9882 18.9022 11.8516C19.3257 12.7151 19.9204 13.3911 20.686 13.8799C21.4517 14.3686 22.3477 14.613 23.3741 14.613Z" fill="#FFBA72"/>
<path d="M0 0.36652H7.91739C10.0841 0.36652 11.705 0.749364 12.7802 1.51504C13.8554 2.26442 14.3931 3.39663 14.3931 4.91169C14.3931 5.84027 14.1487 6.61411 13.66 7.23317C13.1712 7.85222 12.5115 8.32466 11.6806 8.65048C10.8498 8.9763 9.91303 9.17177 8.87041 9.23693V11.1918C9.61979 11.2244 10.2633 11.3873 10.8009 11.6806C11.3548 11.9575 11.8679 12.4137 12.3404 13.049L12.4137 13.1468L15.5416 17.3987H11.1186L8.43057 13.5622C8.3654 13.4644 8.30025 13.3667 8.23509 13.2689C7.76265 12.601 7.37979 12.1286 7.08655 11.8516C6.8096 11.5747 6.50008 11.3873 6.15797 11.2896C5.81586 11.1756 5.319 11.1185 4.66737 11.1185H2.83462L3.7632 10.2144V17.3987H0V0.36652ZM2.83462 8.72377H7.23318C7.98256 8.72377 8.60161 8.62603 9.09033 8.43054C9.59535 8.21875 9.97006 7.90923 10.2144 7.50196C10.4751 7.09469 10.6054 6.58152 10.6054 5.96247C10.6054 5.06646 10.3284 4.39854 9.77454 3.95868C9.22065 3.51883 8.37354 3.2989 7.23318 3.2989H2.83462L3.7632 2.34588V9.60348L2.83462 8.72377Z" fill="#FFBA72"/>
<path d="M381.945 17.3743L380.112 12.7069L381.261 13.5133H372.195L373.343 12.7069L371.486 17.3743H367.479L374.736 0.342106H378.695L385.977 17.3743H381.945ZM375.738 3.17674C375.754 3.81209 375.746 4.40671 375.714 4.9606C375.681 5.4982 375.608 6.03579 375.494 6.57339C375.396 7.0947 375.257 7.63231 375.078 8.1862C374.866 8.78897 374.41 9.80714 373.71 11.2407L373.172 10.6787H380.259L379.721 11.2407C379.379 10.5402 379.061 9.82343 378.768 9.09034C378.345 8.06401 378.068 7.111 377.937 6.23129C377.807 5.33529 377.758 4.31711 377.791 3.17674H375.738Z" fill="#FFBA72"/>
<path d="M354.065 0.342106H358C358.309 1.15665 358.602 1.92232 358.879 2.63912C359.661 4.90356 360.24 6.63041 360.614 7.81965C360.989 8.9926 361.25 10.0434 361.396 10.972C361.543 11.9005 361.616 13.0327 361.616 14.3686H363.644C363.644 13.0653 363.718 11.9576 363.864 11.0453C364.011 10.1167 364.263 9.0822 364.622 7.94183C364.997 6.78518 365.542 5.1235 366.259 2.9568C366.601 2.09339 366.943 1.22182 367.285 0.342106H371.22L364.866 17.3743H360.419L354.065 0.342106Z" fill="#FFBA72"/>
<path d="M345.066 0.342106H348.829V15.2239L347.9 14.2953H357.993V17.3743H345.066V0.342106Z" fill="#FFBA72"/>
<path d="M340.22 0.342106H343.983V17.3743H340.22V0.342106Z" fill="#FFBA72"/>
<path d="M332.488 17.692C331.071 17.692 329.824 17.5128 328.749 17.1544C327.69 16.796 326.867 16.2828 326.281 15.6149C325.695 14.9307 325.401 14.1487 325.401 13.269C325.401 12.4707 325.638 11.8028 326.11 11.2652C326.582 10.7276 327.218 10.3203 328.016 10.0434C328.831 9.75014 329.735 9.59538 330.728 9.57909V7.59973C329.604 7.55086 328.619 7.4124 327.772 7.18433C326.924 6.93996 326.248 6.56527 325.743 6.06025C325.238 5.55523 324.986 4.89544 324.986 4.0809C324.986 3.25006 325.255 2.53325 325.792 1.93049C326.33 1.31143 327.104 0.838996 328.114 0.513176C329.124 0.187358 330.297 0.0244437 331.633 0.0244437C333.245 0.0244437 334.712 0.244374 336.031 0.684229C337.351 1.12408 338.621 1.75943 339.843 2.59027L338.157 5.35158C337.343 4.68365 336.349 4.14606 335.176 3.73879C334.019 3.33152 332.879 3.11972 331.755 3.10343C330.826 3.10343 330.117 3.26634 329.629 3.59216C329.14 3.90169 328.896 4.30898 328.896 4.814C328.896 5.1724 329.018 5.48192 329.262 5.74257C329.507 5.98694 329.849 6.19871 330.289 6.37791C330.745 6.54082 331.323 6.68745 332.024 6.81778L334.052 7.28207C335.779 7.64047 337.131 8.23509 338.108 9.06593C339.102 9.89676 339.599 11.0127 339.599 12.4137C339.599 13.3423 339.314 14.2139 338.744 15.0284C338.173 15.8267 337.351 16.4701 336.275 16.9589C335.2 17.4476 333.938 17.692 332.488 17.692ZM332.586 14.9795C333.237 14.9795 333.799 14.8655 334.272 14.6374C334.76 14.4094 335.127 14.108 335.371 13.7333C335.632 13.3586 335.762 12.9432 335.762 12.487C335.762 11.982 335.624 11.5421 335.347 11.1674C335.086 10.7765 334.703 10.4751 334.198 10.2633C333.71 10.0352 333.148 9.92121 332.512 9.92121C331.909 9.92121 331.364 10.0271 330.875 10.2389C330.386 10.4507 330.003 10.752 329.726 11.143C329.45 11.5177 329.311 11.9576 329.311 12.4626C329.311 12.935 329.45 13.3667 329.726 13.7577C330.003 14.1324 330.386 14.4338 330.875 14.6619C331.38 14.8736 331.95 14.9795 332.586 14.9795Z" fill="#FFBA72"/>
<path d="M304.848 0.342106H308.611V3.39667C308.611 3.91798 308.546 4.39855 308.416 4.8384C308.285 5.27826 308.041 5.77514 307.683 6.32903C307.34 6.86663 306.835 7.55899 306.168 8.40612L307.78 9.55464L315.942 0.342106H320.512L313.059 8.28394L313.156 6.93994L320.732 17.3743H316.211L310.688 9.60351L311.739 9.70125L307.878 13.831L308.611 12.1449V17.3743H304.848V0.342106Z" fill="#FFBA72"/>
<path d="M297.812 17.7164C296.134 17.7164 294.627 17.3498 293.291 16.6168C291.971 15.8674 290.937 14.8247 290.188 13.4889C289.438 12.1367 289.064 10.5891 289.064 8.84599C289.064 7.10286 289.438 5.56336 290.188 4.22751C290.953 2.89165 292.012 1.85717 293.364 1.12407C294.733 0.374691 296.28 0 298.007 0C299.359 0 300.557 0.21993 301.599 0.659785C302.642 1.09964 303.603 1.72686 304.483 2.5414L302.577 5.05834C301.974 4.47187 301.322 4.02386 300.622 3.71433C299.921 3.38851 299.131 3.22561 298.252 3.22561C297.209 3.22561 296.272 3.46998 295.441 3.95871C294.627 4.43115 293.992 5.09908 293.535 5.9625C293.079 6.82591 292.851 7.8115 292.851 8.91928C292.851 10.0271 293.079 10.9964 293.535 11.8272C294.008 12.6581 294.651 13.3016 295.466 13.7577C296.297 14.1976 297.233 14.4175 298.276 14.4175C299.172 14.4175 299.97 14.2383 300.671 13.8799C301.388 13.5215 302.047 13.0165 302.65 12.3648L304.605 14.9551C303.693 15.8511 302.699 16.5353 301.624 17.0077C300.565 17.4802 299.294 17.7164 297.812 17.7164Z" fill="#FFBA72"/>
<path d="M284.584 0.342106H288.347V17.3743H284.584V0.342106Z" fill="#FFBA72"/>
<path d="M268.975 0.342106H276.892C279.059 0.342106 280.68 0.72495 281.755 1.49062C282.831 2.24001 283.368 3.37222 283.368 4.88727C283.368 5.81586 283.124 6.5897 282.635 7.20875C282.146 7.82781 281.487 8.30024 280.656 8.62606C279.825 8.95188 278.888 9.14735 277.846 9.21252V11.1674C278.595 11.2 279.238 11.3629 279.776 11.6562C280.33 11.9331 280.843 12.3893 281.315 13.0246L281.389 13.1224L284.517 17.3743H280.094L277.406 13.5378C277.34 13.44 277.275 13.3423 277.21 13.2445C276.738 12.5766 276.355 12.1042 276.062 11.8272C275.785 11.5503 275.475 11.3629 275.133 11.2652C274.791 11.1512 274.294 11.0941 273.642 11.0941H271.81L272.738 10.19V17.3743H268.975V0.342106ZM271.81 8.69936H276.208C276.958 8.69936 277.577 8.60161 278.065 8.40612C278.57 8.19434 278.945 7.88482 279.189 7.47755C279.45 7.07027 279.581 6.55711 279.581 5.93805C279.581 5.04205 279.304 4.37412 278.75 3.93427C278.196 3.49441 277.349 3.27448 276.208 3.27448H271.81L272.738 2.32146V9.57907L271.81 8.69936Z" fill="#FFBA72"/>
<path d="M630.353 11.0222L624.045 0.533691H628.153C628.975 1.87094 629.595 3.0068 630.014 3.94126C630.449 4.85962 630.747 5.74575 630.908 6.59965C631.086 7.43745 631.174 8.42025 631.174 9.54805H633.301C633.301 8.42025 633.381 7.42939 633.543 6.57549C633.72 5.72158 634.018 4.83545 634.437 3.9171C634.856 2.99874 635.476 1.87094 636.298 0.533691H640.43L634.098 11.0222V17.3782H630.353V11.0222Z" fill="#FFBA72"/>
<path d="M618.333 17.6926C616.931 17.6926 615.698 17.5154 614.635 17.1609C613.588 16.8065 612.774 16.299 612.194 15.6384C611.614 14.9617 611.324 14.1884 611.324 13.3183C611.324 12.5289 611.558 11.8683 612.025 11.3366C612.492 10.805 613.121 10.4022 613.91 10.1283C614.716 9.83827 615.61 9.68521 616.593 9.6691V7.71155C615.481 7.66322 614.506 7.52627 613.668 7.30071C612.831 7.05904 612.162 6.68848 611.663 6.18902C611.163 5.68957 610.913 5.03705 610.913 4.23148C610.913 3.4098 611.179 2.70089 611.711 2.10477C612.243 1.49253 613.008 1.0253 614.007 0.70307C615.006 0.380841 616.166 0.219727 617.487 0.219727C619.082 0.219727 620.532 0.437232 621.837 0.872241C623.142 1.30725 624.399 1.9356 625.607 2.75728L623.939 5.48817C623.134 4.8276 622.151 4.29593 620.991 3.89314C619.847 3.49035 618.719 3.2809 617.608 3.26479C616.689 3.26479 615.988 3.42591 615.505 3.74814C615.022 4.05425 614.78 4.45704 614.78 4.9565C614.78 5.31095 614.901 5.61707 615.143 5.87485C615.384 6.11652 615.723 6.32597 616.158 6.50319C616.609 6.66431 617.181 6.80931 617.873 6.9382L619.879 7.39738C621.587 7.75183 622.924 8.3399 623.891 9.16159C624.874 9.98327 625.365 11.0869 625.365 12.4725C625.365 13.3908 625.083 14.2528 624.519 15.0584C623.956 15.8478 623.142 16.4842 622.079 16.9676C621.015 17.4509 619.767 17.6926 618.333 17.6926ZM618.429 15.01C619.074 15.01 619.63 14.8973 620.097 14.6717C620.58 14.4461 620.943 14.1481 621.184 13.7775C621.442 13.407 621.571 12.9961 621.571 12.545C621.571 12.0455 621.434 11.6105 621.16 11.24C620.902 10.8533 620.524 10.5552 620.024 10.3458C619.541 10.1202 618.985 10.0074 618.357 10.0074C617.761 10.0074 617.221 10.1122 616.738 10.3216C616.254 10.5311 615.876 10.8291 615.602 11.2158C615.328 11.5864 615.191 12.0214 615.191 12.5208C615.191 12.9881 615.328 13.415 615.602 13.8017C615.876 14.1722 616.254 14.4703 616.738 14.6959C617.237 14.9053 617.801 15.01 618.429 15.01Z" fill="#FFBA72"/>
<path d="M608.516 17.3782L606.704 12.7623L607.84 13.5598H598.874L600.01 12.7623L598.173 17.3782H594.209L601.387 0.533691H605.302L612.504 17.3782H608.516ZM602.378 3.33708C602.394 3.96543 602.386 4.5535 602.354 5.10129C602.322 5.63297 602.249 6.16465 602.136 6.69632C602.04 7.21189 601.903 7.74357 601.725 8.29136C601.516 8.88748 601.065 9.89445 600.372 11.3123L599.84 10.7564H606.849L606.317 11.3123C605.979 10.6195 605.665 9.91056 605.375 9.18554C604.956 8.17052 604.682 7.228 604.553 6.35798C604.424 5.47185 604.376 4.46489 604.408 3.33708H602.378Z" fill="#FFBA72"/>
<path d="M588.486 2.6604L589.332 3.57876H582.903V0.533691H597.814V3.57876H591.386L592.232 2.6604V17.3782H588.486V2.6604Z" fill="#FFBA72"/>
<path d="M567.277 0.533691H570.636L580.085 12.1823L581.849 10.9739C581.253 10.3133 580.762 9.70917 580.375 9.16138C579.989 8.61359 579.674 8.02552 579.433 7.39717C579.191 6.75271 579.07 6.08409 579.07 5.3913V0.533691H582.816V17.3782H579.723L570.177 5.65713L568.364 6.84133C569.041 7.48578 569.572 8.12219 569.959 8.75053C570.652 9.86222 570.998 11.0786 570.998 12.3998V17.3782H567.277V0.533691Z" fill="#FFBA72"/>
<path d="M563.197 17.3782L561.385 12.7623L562.521 13.5598H553.555L554.691 12.7623L552.854 17.3782H548.89L556.068 0.533691H559.983L567.185 17.3782H563.197ZM557.059 3.33708C557.075 3.96543 557.067 4.5535 557.035 5.10129C557.003 5.63297 556.93 6.16465 556.817 6.69632C556.721 7.21189 556.584 7.74357 556.406 8.29136C556.197 8.88748 555.746 9.89445 555.053 11.3123L554.521 10.7564H561.53L560.998 11.3123C560.66 10.6195 560.346 9.91056 560.056 9.18554C559.637 8.17052 559.363 7.228 559.234 6.35798C559.105 5.47185 559.057 4.46489 559.089 3.33708H557.059Z" fill="#FFBA72"/>
<path d="M538.102 0.533691H551.08V3.57876H540.905L541.824 2.70874V8.29136L540.905 7.46967H550.21V10.5147H540.905L541.824 9.52388V17.3782H538.102V0.533691Z" fill="#FFBA72"/>
<path d="M522.666 0.533691H530.496C532.639 0.533691 534.242 0.912311 535.305 1.66955C536.368 2.41068 536.9 3.53042 536.9 5.02879C536.9 5.94714 536.658 6.71243 536.175 7.32467C535.692 7.93691 535.039 8.40414 534.217 8.72637C533.396 9.0486 532.469 9.24193 531.438 9.30638V11.2398C532.179 11.272 532.816 11.4331 533.347 11.7231C533.895 11.997 534.403 12.4481 534.87 13.0765L534.942 13.1731L538.036 17.3782H533.662L531.003 13.584C530.939 13.4873 530.874 13.3906 530.81 13.294C530.343 12.6334 529.964 12.1662 529.674 11.8923C529.4 11.6184 529.094 11.4331 528.756 11.3364C528.417 11.2236 527.926 11.1673 527.281 11.1673H525.469L526.387 10.2731V17.3782H522.666V0.533691ZM525.469 8.79887H529.819C530.56 8.79887 531.172 8.7022 531.656 8.50886C532.155 8.29941 532.526 7.99329 532.767 7.59051C533.025 7.18772 533.154 6.68021 533.154 6.06798C533.154 5.18185 532.88 4.52128 532.332 4.08627C531.785 3.65126 530.947 3.43375 529.819 3.43375H525.469L526.387 2.49123V9.66889L525.469 8.79887Z" fill="#FFBA72"/>
<path d="M518.587 17.3782L516.774 12.7623L517.91 13.5598H508.944L510.08 12.7623L508.243 17.3782H504.28L511.457 0.533691H515.372L522.574 17.3782H518.587ZM512.448 3.33708C512.464 3.96543 512.456 4.5535 512.424 5.10129C512.392 5.63297 512.319 6.16465 512.206 6.69632C512.11 7.21189 511.973 7.74357 511.796 8.29136C511.586 8.88748 511.135 9.89445 510.442 11.3123L509.911 10.7564H516.919L516.387 11.3123C516.049 10.6195 515.735 9.91056 515.445 9.18554C515.026 8.17052 514.752 7.228 514.623 6.35798C514.494 5.47185 514.446 4.46489 514.478 3.33708H512.448Z" fill="#FFBA72"/>
<path d="M492.382 0.533691H496.104V15.2515L495.185 14.3332H505.166V17.3782H492.382V0.533691Z" fill="#FFBA72"/>
<path d="M483.985 17.7166C482.471 17.7166 481.15 17.4507 480.022 16.919C478.894 16.3713 478.024 15.5576 477.412 14.4782C476.816 13.3987 476.518 12.0776 476.518 10.5147V0.533691H480.239V10.4181C480.239 11.3203 480.384 12.0856 480.674 12.714C480.98 13.3262 481.407 13.7934 481.955 14.1156C482.519 14.4218 483.196 14.5748 483.985 14.5748C485.161 14.5748 486.072 14.2204 486.716 13.5115C487.377 12.7865 487.707 11.7553 487.707 10.4181V0.533691H491.429V10.5147C491.429 12.867 490.76 14.6554 489.423 15.8799C488.102 17.1043 486.289 17.7166 483.985 17.7166Z" fill="#FFBA72"/>
<path d="M467.174 17.6928C465.804 17.6928 464.548 17.3223 463.404 16.5812C462.26 15.84 461.357 14.8089 460.697 13.4878C460.036 12.1505 459.706 10.636 459.706 8.94432C459.706 7.25262 460.077 5.7462 460.818 4.42506C461.559 3.08781 462.59 2.04862 463.911 1.30749C465.232 0.566364 466.739 0.195801 468.43 0.195801C469.832 0.195801 471.145 0.46164 472.37 0.993318C473.594 1.525 474.641 2.2339 475.511 3.12003L473.409 5.53675C472.732 4.86007 472.015 4.32839 471.258 3.94171C470.501 3.55504 469.615 3.3617 468.6 3.3617C467.552 3.3617 466.634 3.61143 465.845 4.11089C465.071 4.59423 464.475 5.26285 464.056 6.11676C463.637 6.97067 463.428 7.91319 463.428 8.94432C463.428 10.0399 463.637 11.0227 464.056 11.8927C464.475 12.7466 465.079 13.4153 465.869 13.8986C466.658 14.3819 467.593 14.6236 468.672 14.6236C469.51 14.6236 470.259 14.4383 470.92 14.0678C471.58 13.6811 472.088 13.1091 472.442 12.3519C472.797 11.5947 472.926 10.6682 472.829 9.57267L473.771 10.5877H467.971V7.9293H475.801V17.3787H472.66C472.917 16.7664 473.183 16.2025 473.457 15.687C473.763 15.0586 474.102 14.4706 474.472 13.9228L472.466 13.0527C472.321 13.7939 472.047 14.5189 471.645 15.2278C471.242 15.9206 470.67 16.5087 469.929 16.992C469.188 17.4592 468.269 17.6928 467.174 17.6928Z" fill="#FFBA72"/>
<path d="M446.78 0.533691H460.096V3.57876H449.583L450.501 2.70874V8.29136L449.583 7.44551H459.346V10.3214H449.583L450.501 9.52388V15.2515L449.583 14.3332H460.386V17.3782H446.78V0.533691Z" fill="#FFBA72"/>
<path d="M431.342 0.533691H439.172C441.315 0.533691 442.918 0.912311 443.982 1.66955C445.045 2.41068 445.577 3.53042 445.577 5.02879C445.577 5.94714 445.335 6.71243 444.852 7.32467C444.368 7.93691 443.716 8.40414 442.894 8.72637C442.073 9.0486 441.146 9.24193 440.115 9.30638V11.2398C440.856 11.272 441.493 11.4331 442.024 11.7231C442.572 11.997 443.079 12.4481 443.547 13.0765L443.619 13.1731L446.713 17.3782H442.338L439.68 13.584C439.616 13.4873 439.551 13.3906 439.487 13.294C439.019 12.6334 438.641 12.1662 438.351 11.8923C438.077 11.6184 437.771 11.4331 437.432 11.3364C437.094 11.2236 436.603 11.1673 435.958 11.1673H434.146L435.064 10.2731V17.3782H431.342V0.533691ZM434.146 8.79887H438.496C439.237 8.79887 439.849 8.7022 440.332 8.50886C440.832 8.29941 441.202 7.99329 441.444 7.59051C441.702 7.18772 441.831 6.68021 441.831 6.06798C441.831 5.18185 441.557 4.52128 441.009 4.08627C440.461 3.65126 439.624 3.43375 438.496 3.43375H434.146L435.064 2.49123V9.66889L434.146 8.79887Z" fill="#FFBA72"/>
</svg>
