<svg width="641" height="19" viewBox="0 0 641 19" fill="none" xmlns="http://www.w3.org/2000/svg">
<path d="M121.178 0.736816H124.924V17.5813H121.178V0.736816ZM110.231 0.736816H113.952V17.5813H110.231V0.736816ZM113.638 7.5278H121.517V10.5729H113.638V7.5278Z" fill="#FFBA72"/>
<path d="M106.152 17.5813L104.34 12.9654L105.476 13.7629H96.5095L97.6453 12.9654L95.8086 17.5813H91.8452L99.0229 0.736816H102.938L110.14 17.5813H106.152ZM100.014 3.54021C100.03 4.16856 100.022 4.75662 99.9896 5.30441C99.9573 5.83609 99.8848 6.36777 99.7721 6.89945C99.6754 7.41501 99.5384 7.94669 99.3612 8.49448C99.1518 9.09061 98.7006 10.0976 98.0079 11.5154L97.4762 10.9595H104.485L103.953 11.5154C103.615 10.8226 103.3 10.1137 103.01 9.38867C102.592 8.37365 102.318 7.43113 102.189 6.56111C102.06 5.67498 102.012 4.66801 102.044 3.54021H100.014Z" fill="#FFBA72"/>
<path d="M79.9475 0.736816H83.6693V15.4546L82.7509 14.5363H92.732V17.5813H79.9475V0.736816Z" fill="#FFBA72"/>
<path d="M67.083 0.736816H70.8048V15.4546L69.8864 14.5363H79.8675V17.5813H67.083V0.736816Z" fill="#FFBA72"/>
<path d="M63.0042 17.5813L61.1917 12.9654L62.3276 13.7629H53.3615L54.4974 12.9654L52.6607 17.5813H48.6973L55.8749 0.736816H59.79L66.9918 17.5813H63.0042ZM56.8658 3.54021C56.8819 4.16856 56.8738 4.75662 56.8416 5.30441C56.8094 5.83609 56.7369 6.36777 56.6241 6.89945C56.5274 7.41501 56.3905 7.94669 56.2133 8.49448C56.0038 9.09061 55.5527 10.0976 54.8599 11.5154L54.3282 10.9595H61.3367L60.805 11.5154C60.4667 10.8226 60.1525 10.1137 59.8625 9.38867C59.4436 8.37365 59.1697 7.43113 59.0408 6.56111C58.9119 5.67498 58.8636 4.66801 58.8958 3.54021H56.8658Z" fill="#FFBA72"/>
<path d="M42.9663 11.2254L36.6587 0.736816H40.7671C41.5888 2.07407 42.2091 3.20992 42.628 4.14439C43.063 5.06274 43.3611 5.94887 43.5222 6.80278C43.6994 7.64058 43.788 8.62337 43.788 9.75118H45.9147C45.9147 8.62337 45.9953 7.63252 46.1564 6.77861C46.3336 5.9247 46.6317 5.03858 47.0506 4.12022C47.4695 3.20187 48.0898 2.07407 48.9115 0.736816H53.044L46.7122 11.2254V17.5813H42.9663V11.2254Z" fill="#FFBA72"/>
<path d="M27.2429 17.9196C25.5834 17.9196 24.0931 17.5571 22.772 16.8321C21.467 16.091 20.4439 15.0599 19.7028 13.7387C18.9616 12.4015 18.5911 10.8709 18.5911 9.14696C18.5911 7.42303 18.9616 5.9005 19.7028 4.57936C20.46 3.25822 21.5072 2.23514 22.8445 1.51013C24.1979 0.769001 25.7284 0.398438 27.4363 0.398438C28.7735 0.398438 29.9577 0.615942 30.9888 1.05095C32.02 1.48596 32.9705 2.10625 33.8406 2.91182L31.9555 5.40104C31.3594 4.82103 30.7149 4.37797 30.0221 4.07185C29.3293 3.74962 28.5479 3.58851 27.6779 3.58851C26.6468 3.58851 25.7204 3.83018 24.8987 4.31352C24.0931 4.78075 23.4648 5.44132 23.0137 6.29523C22.5625 7.14914 22.337 8.12388 22.337 9.21946C22.337 10.315 22.5625 11.2737 23.0137 12.0954C23.4809 12.917 24.1173 13.5534 24.9229 14.0046C25.7446 14.4396 26.671 14.6571 27.7021 14.6571C28.5882 14.6571 29.3777 14.4799 30.0705 14.1254C30.7794 13.7709 31.4319 13.2715 32.028 12.627L33.9614 15.1888C33.0592 16.0749 32.0764 16.7516 31.013 17.2188C29.9658 17.686 28.7091 17.9196 27.2429 17.9196Z" fill="#FFBA72"/>
<path d="M0 0.737305H5.22011C5.67123 1.81677 6.07402 2.81568 6.42847 3.73404C6.78292 4.63628 7.05682 5.44991 7.25016 6.17492C7.49183 6.9966 7.66905 7.76996 7.78183 8.49497C7.89461 9.20388 7.951 9.92889 7.951 10.67H9.90855C9.90855 9.84833 9.98105 9.02665 10.1261 8.20496C10.2711 7.36717 10.4966 6.48104 10.8027 5.54657C11.1088 4.61211 11.5358 3.4682 12.0836 2.11483C12.1641 1.88927 12.3494 1.4301 12.6394 0.737305H17.8837V17.5818H14.162C14.162 16.0996 14.1861 14.6254 14.2345 13.1592C14.2989 11.7898 14.4036 10.6781 14.5486 9.82417C14.7098 8.95415 14.9192 8.17274 15.177 7.47995C15.4348 6.78716 15.7973 5.97353 16.2645 5.03906L14.3311 4.33821L10.3436 14.5851H7.49183L3.52841 4.33821L1.6192 5.11156C2.08643 6.04603 2.44894 6.8516 2.70672 7.52828C2.96451 8.20496 3.1659 8.9622 3.3109 9.8C3.47202 10.6217 3.5848 11.6931 3.64925 13.0142C3.69758 14.5287 3.72175 16.0512 3.72175 17.5818H0V0.737305Z" fill="#FFBA72"/>
<path d="M244.369 0.711914H250.773C252.674 0.711914 254.326 1.08248 255.727 1.8236C257.129 2.54862 258.2 3.54753 258.941 4.82034C259.683 6.09314 260.053 7.53512 260.053 9.14626C260.053 10.693 259.683 12.1108 258.941 13.3997C258.2 14.6725 257.129 15.6875 255.727 16.4448C254.326 17.1859 252.674 17.5564 250.773 17.5564H244.369V0.711914ZM247.172 14.5114H250.531C251.707 14.5114 252.722 14.2858 253.576 13.8347C254.446 13.3836 255.107 12.7552 255.558 11.9497C256.025 11.128 256.259 10.1935 256.259 9.14626C256.259 8.09902 256.025 7.17261 255.558 6.36703C255.107 5.54535 254.446 4.90895 253.576 4.45783C252.722 3.9906 251.707 3.75698 250.531 3.75698H247.172L248.09 2.86279V15.4297L247.172 14.5114Z" fill="#FFBA72"/>
<path d="M225.721 0.711914H239.037V3.75698H228.524L229.442 2.88696V8.46958L228.524 7.62373H238.288V10.4996H228.524L229.442 9.70211V15.4297L228.524 14.5114H239.327V17.5564H225.721V0.711914Z" fill="#FFBA72"/>
<path d="M208.68 0.711914H212.571C212.877 1.51749 213.167 2.27473 213.441 2.98363C214.214 5.22312 214.786 6.93094 215.156 8.10707C215.527 9.2671 215.785 10.3063 215.93 11.2246C216.075 12.143 216.147 13.2627 216.147 14.5839H218.153C218.153 13.295 218.226 12.1994 218.371 11.2971C218.516 10.3788 218.765 9.35571 219.12 8.22791C219.49 7.084 220.03 5.44063 220.739 3.2978C221.077 2.4439 221.416 1.58193 221.754 0.711914H225.645L219.362 17.5564H214.963L208.68 0.711914Z" fill="#FFBA72"/>
<path d="M201.346 17.8713C199.655 17.8713 198.14 17.5008 196.803 16.7596C195.466 16.0024 194.418 14.9632 193.661 13.6421C192.904 12.3048 192.525 10.8064 192.525 9.14696C192.525 7.48748 192.904 5.99717 193.661 4.67603C194.418 3.3549 195.466 2.32376 196.803 1.58263C198.14 0.825396 199.655 0.446777 201.346 0.446777C203.022 0.446777 204.528 0.825396 205.866 1.58263C207.219 2.32376 208.274 3.3549 209.032 4.67603C209.789 5.99717 210.167 7.48748 210.167 9.14696C210.167 10.8064 209.789 12.3048 209.032 13.6421C208.274 14.9632 207.219 16.0024 205.866 16.7596C204.528 17.5008 203.022 17.8713 201.346 17.8713ZM201.346 14.8021C202.361 14.8021 203.248 14.5604 204.005 14.0771C204.762 13.5937 205.342 12.9251 205.745 12.0712C206.148 11.2173 206.349 10.2425 206.349 9.14696C206.349 8.05138 206.148 7.07664 205.745 6.22273C205.342 5.36883 204.762 4.7002 204.005 4.21686C203.248 3.73351 202.361 3.49184 201.346 3.49184C200.331 3.49184 199.445 3.73351 198.688 4.21686C197.931 4.7002 197.343 5.36883 196.924 6.22273C196.521 7.07664 196.32 8.05138 196.32 9.14696C196.32 10.2425 196.521 11.2173 196.924 12.0712C197.343 12.9251 197.931 13.5937 198.688 14.0771C199.445 14.5604 200.331 14.8021 201.346 14.8021Z" fill="#FFBA72"/>
<path d="M173.934 0.712402H179.154C179.606 1.79187 180.008 2.79078 180.363 3.70913C180.717 4.61137 180.991 5.425 181.184 6.15002C181.426 6.9717 181.603 7.74505 181.716 8.47007C181.829 9.17897 181.885 9.90399 181.885 10.6451H183.843C183.843 9.82343 183.915 9.00175 184.06 8.18006C184.205 7.34227 184.431 6.45614 184.737 5.52167C185.043 4.58721 185.47 3.44329 186.018 2.08993C186.098 1.86437 186.284 1.40519 186.574 0.712402H191.818V17.5569H188.096C188.096 16.0747 188.12 14.6005 188.169 13.1343C188.233 11.7649 188.338 10.6532 188.483 9.79926C188.644 8.92924 188.854 8.14784 189.111 7.45505C189.369 6.76225 189.732 5.94863 190.199 5.01416L188.265 4.31331L184.278 14.5602H181.426L177.463 4.31331L175.554 5.08666C176.021 6.02113 176.383 6.8267 176.641 7.50338C176.899 8.18006 177.1 8.9373 177.245 9.7751C177.406 10.5968 177.519 11.6682 177.584 12.9893C177.632 14.5038 177.656 16.0263 177.656 17.5569H173.934V0.712402Z" fill="#FFBA72"/>
<path d="M435.868 17.2552L434.055 12.6392L435.191 13.4368H426.225L427.361 12.6392L425.524 17.2552H421.561L428.738 0.410645H432.653L439.855 17.2552H435.868ZM429.729 3.21404C429.745 3.84238 429.737 4.43045 429.705 4.97824C429.673 5.50992 429.6 6.0416 429.487 6.57328C429.391 7.08884 429.254 7.62052 429.077 8.16831C428.867 8.76443 428.416 9.7714 427.723 11.1892L427.192 10.6334H434.2L433.668 11.1892C433.33 10.4964 433.016 9.78751 432.726 9.0625C432.307 8.04747 432.033 7.10495 431.904 6.23494C431.775 5.34881 431.727 4.34184 431.759 3.21404H429.729Z" fill="#FFBA72"/>
<path d="M422.677 0.26584C422.532 0.829741 422.347 1.44198 422.122 2.10255C421.896 2.747 421.654 3.39952 421.397 4.06009C421.139 4.70455 420.873 5.32484 420.599 5.92096H418.013C418.126 5.43762 418.239 4.93816 418.352 4.4226C418.464 3.90703 418.569 3.39146 418.666 2.8759C418.778 2.34422 418.875 1.83671 418.956 1.35336C419.052 0.870019 419.133 0.418898 419.197 0H422.508L422.677 0.26584Z" fill="#FFBA72"/>
<path d="M415.142 17.2552L413.33 12.6392L414.465 13.4368H405.499L406.635 12.6392L404.799 17.2552H400.835L408.013 0.410645H411.928L419.13 17.2552H415.142ZM409.004 3.21404C409.02 3.84238 409.012 4.43045 408.98 4.97824C408.947 5.50992 408.875 6.0416 408.762 6.57328C408.665 7.08884 408.528 7.62052 408.351 8.16831C408.142 8.76443 407.691 9.7714 406.998 11.1892L406.466 10.6334H413.475L412.943 11.1892C412.605 10.4964 412.29 9.78751 412 9.0625C411.582 8.04747 411.308 7.10495 411.179 6.23494C411.05 5.34881 411.002 4.34184 411.034 3.21404H409.004Z" fill="#FFBA72"/>
<path d="M395.111 2.53736L395.957 3.45571H389.529V0.410645H404.44V3.45571H398.011L398.857 2.53736V17.2552H395.111V2.53736Z" fill="#FFBA72"/>
<path d="M389.154 17.2552L387.342 12.6392L388.478 13.4368H379.512L380.648 12.6392L378.811 17.2552H374.847L382.025 0.410645H385.94L393.142 17.2552H389.154ZM383.016 3.21404C383.032 3.84238 383.024 4.43045 382.992 4.97824C382.96 5.50992 382.887 6.0416 382.774 6.57328C382.678 7.08884 382.541 7.62052 382.363 8.16831C382.154 8.76443 381.703 9.7714 381.01 11.1892L380.478 10.6334H387.487L386.955 11.1892C386.617 10.4964 386.303 9.78751 386.013 9.0625C385.594 8.04747 385.32 7.10495 385.191 6.23494C385.062 5.34881 385.014 4.34184 385.046 3.21404H383.016Z" fill="#FFBA72"/>
<path d="M368.361 17.5935C366.847 17.5935 365.526 17.3277 364.398 16.796C363.27 16.2482 362.4 15.4346 361.788 14.3551C361.192 13.2756 360.894 11.9545 360.894 10.3917V0.410645H364.616V10.295C364.616 11.1973 364.761 11.9626 365.051 12.5909C365.357 13.2031 365.784 13.6704 366.331 13.9926C366.895 14.2987 367.572 14.4518 368.361 14.4518C369.538 14.4518 370.448 14.0973 371.092 13.3884C371.753 12.6634 372.083 11.6323 372.083 10.295V0.410645H375.805V10.3917C375.805 12.744 375.136 14.5323 373.799 15.7568C372.478 16.9813 370.665 17.5935 368.361 17.5935Z" fill="#FFBA72"/>
<path d="M351.977 11.092L353.693 9.30364C353.886 9.51309 354.08 9.67421 354.273 9.78699C354.466 9.88366 354.7 9.93199 354.974 9.93199C355.344 9.93199 355.675 9.82726 355.965 9.61782C356.271 9.39226 356.504 9.08614 356.665 8.69946C356.843 8.31279 356.931 7.87778 356.931 7.39443C356.931 6.66942 356.746 5.98468 356.375 5.34022C356.005 4.67965 355.473 4.15603 354.78 3.76936C354.088 3.36657 353.282 3.16518 352.364 3.16518C351.349 3.16518 350.446 3.40685 349.657 3.89019C348.884 4.37354 348.279 5.04216 347.844 5.89607C347.409 6.74998 347.192 7.72472 347.192 8.8203C347.192 9.89977 347.409 10.8826 347.844 11.7687C348.279 12.6387 348.884 13.3235 349.657 13.8229C350.43 14.3224 351.316 14.5721 352.315 14.5721C352.879 14.5721 353.403 14.4835 353.886 14.3062C354.37 14.1129 354.813 13.8229 355.215 13.4362L357.463 15.5629C356.947 16.1913 356.214 16.6907 355.264 17.0613C354.313 17.4158 353.33 17.593 352.315 17.593C350.624 17.593 349.093 17.2144 347.724 16.4571C346.37 15.6999 345.307 14.6526 344.534 13.3154C343.776 11.9781 343.398 10.4798 343.398 8.8203C343.398 7.19304 343.768 5.71079 344.509 4.37354C345.251 3.03629 346.29 1.98904 347.627 1.2318C348.964 0.458453 350.479 0.0717773 352.17 0.0717773C353.765 0.0717773 355.159 0.385951 356.351 1.0143C357.56 1.64264 358.486 2.46433 359.131 3.47935C359.775 4.47826 360.097 5.54162 360.097 6.66942C360.097 7.45888 359.928 8.15973 359.59 8.77196C359.251 9.3842 358.768 9.85949 358.14 10.1978C357.511 10.5362 356.778 10.7053 355.94 10.7053C355.763 10.7053 355.594 10.6973 355.433 10.6812C355.272 10.6651 355.127 10.6489 354.998 10.6328C354.95 10.6328 354.917 10.6328 354.901 10.6328C354.885 10.6167 354.861 10.6087 354.829 10.6087V12.7837C355.828 12.8482 356.633 12.9609 357.246 13.1221C357.874 13.2832 358.446 13.5329 358.961 13.8712C359.477 14.1935 360.081 14.6768 360.774 15.3213C360.999 15.5307 361.161 15.6838 361.257 15.7804C361.354 15.8771 361.499 16.0302 361.692 16.2396L359.59 18.318L351.977 11.092Z" fill="#FFBA72"/>
<path d="M335.364 17.5935C333.849 17.5935 332.528 17.3277 331.4 16.796C330.272 16.2482 329.402 15.4346 328.79 14.3551C328.194 13.2756 327.896 11.9545 327.896 10.3917V0.410645H331.618V10.295C331.618 11.1973 331.763 11.9626 332.053 12.5909C332.359 13.2031 332.786 13.6704 333.334 13.9926C333.898 14.2987 334.574 14.4518 335.364 14.4518C336.54 14.4518 337.45 14.0973 338.095 13.3884C338.755 12.6634 339.085 11.6323 339.085 10.295V0.410645H342.807V10.3917C342.807 12.744 342.139 14.5323 340.801 15.7568C339.48 16.9813 337.668 17.5935 335.364 17.5935Z" fill="#FFBA72"/>
<path d="M309.063 0.410645H314.283C314.734 1.49011 315.137 2.48902 315.491 3.40738C315.846 4.30962 316.12 5.12325 316.313 5.84826C316.555 6.66994 316.732 7.4433 316.845 8.16831C316.958 8.87721 317.014 9.60223 317.014 10.3434H318.972C318.972 9.52167 319.044 8.69999 319.189 7.8783C319.334 7.04051 319.56 6.15438 319.866 5.21991C320.172 4.28545 320.599 3.14154 321.147 1.78817C321.227 1.56261 321.412 1.10344 321.702 0.410645H326.947V17.2552H323.225C323.225 15.7729 323.249 14.2987 323.297 12.8326C323.362 11.4631 323.467 10.3514 323.612 9.49751C323.773 8.62749 323.982 7.84608 324.24 7.15329C324.498 6.4605 324.86 5.64687 325.328 4.7124L323.394 4.01155L319.407 14.2584H316.555L312.591 4.01155L310.682 4.7849C311.149 5.71937 311.512 6.52494 311.77 7.20162C312.027 7.8783 312.229 8.63554 312.374 9.47334C312.535 10.295 312.648 11.3664 312.712 12.6876C312.761 14.2021 312.785 15.7246 312.785 17.2552H309.063V0.410645Z" fill="#FFBA72"/>
<path d="M633.156 17.8952C631.754 17.8952 630.522 17.718 629.458 17.3636C628.411 17.0091 627.597 16.5016 627.017 15.841C626.437 15.1643 626.147 14.391 626.147 13.521C626.147 12.7315 626.381 12.0709 626.848 11.5393C627.315 11.0076 627.944 10.6048 628.733 10.3309C629.539 10.0409 630.433 9.88784 631.416 9.87173V7.91419C630.304 7.86586 629.329 7.72891 628.492 7.50335C627.654 7.26168 626.985 6.89111 626.486 6.39166C625.986 5.8922 625.737 5.23969 625.737 4.43412C625.737 3.61243 626.002 2.90353 626.534 2.3074C627.066 1.69517 627.831 1.22794 628.83 0.905707C629.829 0.583478 630.989 0.422363 632.31 0.422363C633.905 0.422363 635.355 0.639868 636.66 1.07488C637.965 1.50989 639.222 2.13823 640.43 2.95992L638.763 5.69081C637.957 5.03024 636.974 4.49856 635.814 4.09578C634.67 3.69299 633.543 3.48354 632.431 3.46743C631.513 3.46743 630.812 3.62854 630.328 3.95077C629.845 4.25689 629.603 4.65968 629.603 5.15913C629.603 5.51358 629.724 5.8197 629.966 6.07749C630.207 6.31916 630.546 6.52861 630.981 6.70583C631.432 6.86695 632.004 7.01195 632.697 7.14084L634.703 7.60002C636.41 7.95447 637.748 8.54254 638.714 9.36422C639.697 10.1859 640.189 11.2895 640.189 12.6751C640.189 13.5935 639.907 14.4554 639.343 15.261C638.779 16.0505 637.965 16.6869 636.902 17.1702C635.838 17.6536 634.59 17.8952 633.156 17.8952ZM633.253 15.2127C633.897 15.2127 634.453 15.0999 634.92 14.8743C635.403 14.6488 635.766 14.3507 636.008 13.9802C636.265 13.6096 636.394 13.1987 636.394 12.7476C636.394 12.2482 636.257 11.8132 635.983 11.4426C635.726 11.0559 635.347 10.7579 634.848 10.5484C634.364 10.3229 633.808 10.2101 633.18 10.2101C632.584 10.2101 632.044 10.3148 631.561 10.5242C631.078 10.7337 630.699 11.0318 630.425 11.4184C630.151 11.789 630.014 12.224 630.014 12.7235C630.014 13.1907 630.151 13.6176 630.425 14.0043C630.699 14.3749 631.078 14.6729 631.561 14.8985C632.06 15.108 632.624 15.2127 633.253 15.2127Z" fill="#FFBA72"/>
<path d="M611.25 0.736816H619.08C621.223 0.736816 622.826 1.11544 623.89 1.87267C624.953 2.6138 625.485 3.73355 625.485 5.23191C625.485 6.15027 625.243 6.91556 624.76 7.5278C624.276 8.14003 623.624 8.60726 622.802 8.92949C621.98 9.25172 621.054 9.44506 620.023 9.5095V11.4429C620.764 11.4751 621.4 11.6362 621.932 11.9262C622.48 12.2001 622.987 12.6512 623.455 13.2796L623.527 13.3763L626.621 17.5813H622.246L619.588 13.7871C619.523 13.6904 619.459 13.5938 619.395 13.4971C618.927 12.8365 618.549 12.3693 618.259 12.0954C617.985 11.8215 617.679 11.6362 617.34 11.5395C617.002 11.4268 616.511 11.3704 615.866 11.3704H614.054L614.972 10.4762V17.5813H611.25V0.736816ZM614.054 9.00199H618.404C619.145 9.00199 619.757 8.90532 620.24 8.71199C620.74 8.50254 621.11 8.19642 621.352 7.79363C621.61 7.39085 621.739 6.88334 621.739 6.2711C621.739 5.38497 621.465 4.7244 620.917 4.28939C620.369 3.85438 619.532 3.63688 618.404 3.63688H614.054L614.972 2.69436V9.87201L614.054 9.00199Z" fill="#FFBA72"/>
<path d="M607.172 17.5813L605.359 12.9654L606.495 13.7629H597.529L598.665 12.9654L596.828 17.5813H592.865L600.042 0.736816H603.957L611.159 17.5813H607.172ZM601.033 3.54021C601.049 4.16856 601.041 4.75662 601.009 5.30441C600.977 5.83609 600.904 6.36777 600.792 6.89945C600.695 7.41501 600.558 7.94669 600.381 8.49448C600.171 9.09061 599.72 10.0976 599.027 11.5154L598.496 10.9595H605.504L604.973 11.5154C604.634 10.8226 604.32 10.1137 604.03 9.38867C603.611 8.37365 603.337 7.43113 603.208 6.56111C603.079 5.67498 603.031 4.66801 603.063 3.54021H601.033Z" fill="#FFBA72"/>
<path d="M587.439 17.9196C585.78 17.9196 584.289 17.5571 582.968 16.8321C581.663 16.091 580.64 15.0599 579.899 13.7387C579.158 12.4015 578.787 10.8709 578.787 9.14696C578.787 7.42303 579.158 5.9005 579.899 4.57936C580.656 3.25822 581.704 2.23514 583.041 1.51013C584.394 0.769001 585.925 0.398438 587.633 0.398438C588.97 0.398438 590.154 0.615942 591.185 1.05095C592.216 1.48596 593.167 2.10625 594.037 2.91182L592.152 5.40104C591.556 4.82103 590.911 4.37797 590.218 4.07185C589.526 3.74962 588.744 3.58851 587.874 3.58851C586.843 3.58851 585.917 3.83018 585.095 4.31352C584.289 4.78075 583.661 5.44132 583.21 6.29523C582.759 7.14914 582.533 8.12388 582.533 9.21946C582.533 10.315 582.759 11.2737 583.21 12.0954C583.677 12.917 584.314 13.5534 585.119 14.0046C585.941 14.4396 586.867 14.6571 587.898 14.6571C588.785 14.6571 589.574 14.4799 590.267 14.1254C590.976 13.7709 591.628 13.2715 592.224 12.627L594.158 15.1888C593.255 16.0749 592.273 16.7516 591.209 17.2188C590.162 17.686 588.905 17.9196 587.439 17.9196Z" fill="#FFBA72"/>
<path d="M565.86 0.736816H579.176V3.78188H568.664L569.582 2.91186V8.49448L568.664 7.64863H578.427V10.5245H568.664L569.582 9.72701V15.4546L568.664 14.5363H579.466V17.5813H565.86V0.736816Z" fill="#FFBA72"/>
<path d="M552.996 0.736816H556.718V15.4546L555.8 14.5363H565.781V17.5813H552.996V0.736816Z" fill="#FFBA72"/>
<path d="M546.037 17.9196C544.378 17.9196 542.888 17.5571 541.566 16.8321C540.261 16.091 539.238 15.0599 538.497 13.7387C537.756 12.4015 537.385 10.8709 537.385 9.14696C537.385 7.42303 537.756 5.9005 538.497 4.57936C539.254 3.25822 540.302 2.23514 541.639 1.51013C542.992 0.769001 544.523 0.398438 546.231 0.398438C547.568 0.398438 548.752 0.615942 549.783 1.05095C550.814 1.48596 551.765 2.10625 552.635 2.91182L550.75 5.40104C550.154 4.82103 549.509 4.37797 548.817 4.07185C548.124 3.74962 547.342 3.58851 546.472 3.58851C545.441 3.58851 544.515 3.83018 543.693 4.31352C542.888 4.78075 542.259 5.44132 541.808 6.29523C541.357 7.14914 541.131 8.12388 541.131 9.21946C541.131 10.315 541.357 11.2737 541.808 12.0954C542.275 12.917 542.912 13.5534 543.717 14.0046C544.539 14.4396 545.465 14.6571 546.497 14.6571C547.383 14.6571 548.172 14.4799 548.865 14.1254C549.574 13.7709 550.226 13.2715 550.822 12.627L552.756 15.1888C551.854 16.0749 550.871 16.7516 549.807 17.2188C548.76 17.686 547.503 17.9196 546.037 17.9196Z" fill="#FFBA72"/>
<path d="M530.692 17.8952C529.29 17.8952 528.057 17.718 526.994 17.3636C525.947 17.0091 525.133 16.5016 524.553 15.841C523.973 15.1643 523.683 14.391 523.683 13.521C523.683 12.7315 523.917 12.0709 524.384 11.5393C524.851 11.0076 525.479 10.6048 526.269 10.3309C527.075 10.0409 527.969 9.88784 528.952 9.87173V7.91419C527.84 7.86586 526.865 7.72891 526.027 7.50335C525.189 7.26168 524.521 6.89111 524.021 6.39166C523.522 5.8922 523.272 5.23969 523.272 4.43412C523.272 3.61243 523.538 2.90353 524.07 2.3074C524.601 1.69517 525.367 1.22794 526.366 0.905707C527.365 0.583478 528.525 0.422363 529.846 0.422363C531.441 0.422363 532.891 0.639868 534.196 1.07488C535.501 1.50989 536.758 2.13823 537.966 2.95992L536.298 5.69081C535.493 5.03024 534.51 4.49856 533.35 4.09578C532.206 3.69299 531.078 3.48354 529.967 3.46743C529.048 3.46743 528.347 3.62854 527.864 3.95077C527.381 4.25689 527.139 4.65968 527.139 5.15913C527.139 5.51358 527.26 5.8197 527.501 6.07749C527.743 6.31916 528.081 6.52861 528.516 6.70583C528.968 6.86695 529.54 7.01195 530.232 7.14084L532.238 7.60002C533.946 7.95447 535.283 8.54254 536.25 9.36422C537.233 10.1859 537.724 11.2895 537.724 12.6751C537.724 13.5935 537.442 14.4554 536.878 15.261C536.314 16.0505 535.501 16.6869 534.437 17.1702C533.374 17.6536 532.125 17.8952 530.692 17.8952ZM530.788 15.2127C531.433 15.2127 531.989 15.0999 532.456 14.8743C532.939 14.6488 533.302 14.3507 533.543 13.9802C533.801 13.6096 533.93 13.1987 533.93 12.7476C533.93 12.2482 533.793 11.8132 533.519 11.4426C533.261 11.0559 532.883 10.7579 532.383 10.5484C531.9 10.3229 531.344 10.2101 530.716 10.2101C530.12 10.2101 529.58 10.3148 529.097 10.5242C528.613 10.7337 528.235 11.0318 527.961 11.4184C527.687 11.789 527.55 12.224 527.55 12.7235C527.55 13.1907 527.687 13.6176 527.961 14.0043C528.235 14.3749 528.613 14.6729 529.097 14.8985C529.596 15.108 530.16 15.2127 530.788 15.2127Z" fill="#FFBA72"/>
<path d="M515.166 17.9197C513.651 17.9197 512.33 17.6538 511.202 17.1222C510.074 16.5744 509.204 15.7608 508.592 14.6813C507.996 13.6018 507.698 12.2807 507.698 10.7179V0.736816H511.42V10.6212C511.42 11.5234 511.565 12.2887 511.855 12.9171C512.161 13.5293 512.588 13.9965 513.136 14.3188C513.7 14.6249 514.376 14.778 515.166 14.778C516.342 14.778 517.252 14.4235 517.897 13.7146C518.557 12.9896 518.887 11.9584 518.887 10.6212V0.736816H522.609V10.7179C522.609 13.0701 521.941 14.8585 520.603 16.083C519.282 17.3075 517.47 17.9197 515.166 17.9197Z" fill="#FFBA72"/>
<path d="M488.865 0.737305H494.085C494.536 1.81677 494.939 2.81568 495.294 3.73404C495.648 4.63628 495.922 5.44991 496.115 6.17492C496.357 6.9966 496.534 7.76996 496.647 8.49497C496.76 9.20388 496.816 9.92889 496.816 10.67H498.774C498.774 9.84833 498.846 9.02665 498.991 8.20496C499.136 7.36717 499.362 6.48104 499.668 5.54657C499.974 4.61211 500.401 3.4682 500.949 2.11483C501.029 1.88927 501.215 1.4301 501.505 0.737305H506.749V17.5818H503.027C503.027 16.0996 503.051 14.6254 503.1 13.1592C503.164 11.7898 503.269 10.6781 503.414 9.82417C503.575 8.95415 503.784 8.17274 504.042 7.47995C504.3 6.78716 504.663 5.97353 505.13 5.03906L503.196 4.33821L499.209 14.5851H496.357L492.394 4.33821L490.484 5.11156C490.952 6.04603 491.314 6.8516 491.572 7.52828C491.83 8.20496 492.031 8.9622 492.176 9.8C492.337 10.6217 492.45 11.6931 492.514 13.0142C492.563 14.5287 492.587 16.0512 492.587 17.5818H488.865V0.737305Z" fill="#FFBA72"/>
</svg>
