<svg width="641" height="18" viewBox="0 0 641 18" fill="none" xmlns="http://www.w3.org/2000/svg">
<path d="M347.273 17.3743L345.44 12.7069L346.589 13.5133H337.523L338.671 12.7069L336.814 17.3743H332.807L340.064 0.342106H344.023L351.305 17.3743H347.273ZM341.066 3.17671C341.082 3.81206 341.074 4.40668 341.042 4.96057C341.009 5.49817 340.936 6.03578 340.822 6.57338C340.724 7.09469 340.585 7.63227 340.406 8.18617C340.194 8.78893 339.738 9.80712 339.038 11.2407L338.5 10.6787H345.587L345.049 11.2407C344.707 10.5402 344.389 9.82343 344.096 9.09034C343.673 8.06401 343.396 7.11098 343.265 6.23127C343.135 5.33527 343.086 4.31707 343.119 3.17671H341.066Z" fill="#FFBA72"/>
<path d="M318.843 0.342106H322.607V3.39667C322.607 3.91798 322.541 4.39855 322.411 4.8384C322.281 5.27826 322.036 5.77515 321.678 6.32905C321.336 6.86665 320.831 7.55899 320.163 8.40612L321.776 9.55466L329.938 0.342106H334.507L327.054 8.28396L327.152 6.93994L334.727 17.3743H330.206L324.684 9.60349L325.735 9.70123L321.874 13.831L322.607 12.1449V17.3743H318.843V0.342106Z" fill="#FFBA72"/>
<path d="M309.234 17.6919C307.523 17.6919 305.992 17.3172 304.64 16.5679C303.288 15.8022 302.229 14.7514 301.463 13.4156C300.698 12.0634 300.315 10.5484 300.315 8.87043C300.315 7.19246 300.698 5.68553 301.463 4.34967C302.229 3.01382 303.288 1.97118 304.64 1.2218C305.992 0.456123 307.523 0.0733134 309.234 0.0733134C310.928 0.0733134 312.451 0.456123 313.804 1.2218C315.172 1.97118 316.239 3.01382 317.005 4.34967C317.77 5.68553 318.153 7.19246 318.153 8.87043C318.153 10.5484 317.77 12.0634 317.005 13.4156C316.239 14.7514 315.172 15.8022 313.804 16.5679C312.451 17.3172 310.928 17.6919 309.234 17.6919ZM309.234 14.5885C310.26 14.5885 311.156 14.3442 311.922 13.8554C312.688 13.3667 313.274 12.6906 313.681 11.8272C314.089 10.9638 314.292 9.97821 314.292 8.87043C314.292 7.76265 314.089 6.77705 313.681 5.91363C313.274 5.05021 312.688 4.37413 311.922 3.8854C311.156 3.39667 310.26 3.15228 309.234 3.15228C308.208 3.15228 307.312 3.39667 306.546 3.8854C305.78 4.37413 305.186 5.05021 304.762 5.91363C304.355 6.77705 304.151 7.76265 304.151 8.87043C304.151 9.97821 304.355 10.9638 304.762 11.8272C305.186 12.6906 305.78 13.3667 306.546 13.8554C307.312 14.3442 308.208 14.5885 309.234 14.5885Z" fill="#FFBA72"/>
<path d="M287.244 0.342106H300.709V3.42108H290.079L291.007 2.54138V8.18617L290.079 7.3309H299.951V10.2389H290.079L291.007 9.43244V15.2239L290.079 14.2953H301.002V17.3743H287.244V0.342106Z" fill="#FFBA72"/>
<path d="M270.8 0.342106H277.276C279.198 0.342106 280.868 0.71678 282.285 1.46616C283.703 2.19925 284.786 3.20931 285.535 4.4963C286.285 5.78328 286.659 7.24134 286.659 8.87043C286.659 10.4344 286.285 11.8679 285.535 13.1712C284.786 14.4582 283.703 15.4846 282.285 16.2502C280.868 16.9996 279.198 17.3743 277.276 17.3743H270.8V0.342106ZM273.635 14.2953H277.031C278.221 14.2953 279.247 14.0672 280.11 13.6111C280.99 13.1549 281.658 12.5196 282.114 11.705C282.587 10.8742 282.823 9.92934 282.823 8.87043C282.823 7.81152 282.587 6.87475 282.114 6.0602C281.658 5.22936 280.99 4.58591 280.11 4.12977C279.247 3.65733 278.221 3.42108 277.031 3.42108H273.635L274.563 2.51696V15.2239L273.635 14.2953Z" fill="#FFBA72"/>
<path d="M261.191 17.6919C259.48 17.6919 257.949 17.3172 256.597 16.5679C255.245 15.8022 254.186 14.7514 253.42 13.4156C252.654 12.0634 252.271 10.5484 252.271 8.87043C252.271 7.19246 252.654 5.68553 253.42 4.34967C254.186 3.01382 255.245 1.97118 256.597 1.2218C257.949 0.456123 259.48 0.0733134 261.191 0.0733134C262.885 0.0733134 264.408 0.456123 265.76 1.2218C267.129 1.97118 268.196 3.01382 268.961 4.34967C269.727 5.68553 270.11 7.19246 270.11 8.87043C270.11 10.5484 269.727 12.0634 268.961 13.4156C268.196 14.7514 267.129 15.8022 265.76 16.5679C264.408 17.3172 262.885 17.6919 261.191 17.6919ZM261.191 14.5885C262.217 14.5885 263.113 14.3442 263.879 13.8554C264.644 13.3667 265.231 12.6906 265.638 11.8272C266.045 10.9638 266.249 9.97821 266.249 8.87043C266.249 7.76265 266.045 6.77705 265.638 5.91363C265.231 5.05021 264.644 4.37413 263.879 3.8854C263.113 3.39667 262.217 3.15228 261.191 3.15228C260.164 3.15228 259.268 3.39667 258.503 3.8854C257.737 4.37413 257.142 5.05021 256.719 5.91363C256.312 6.77705 256.108 7.76265 256.108 8.87043C256.108 9.97821 256.312 10.9638 256.719 11.8272C257.142 12.6906 257.737 13.3667 258.503 13.8554C259.268 14.3442 260.164 14.5885 261.191 14.5885Z" fill="#FFBA72"/>
<path d="M245.503 17.6919C244.085 17.6919 242.839 17.5128 241.764 17.1544C240.705 16.796 239.882 16.2828 239.296 15.6149C238.709 14.9306 238.416 14.1487 238.416 13.269C238.416 12.4707 238.652 11.8028 239.125 11.2652C239.597 10.7276 240.233 10.3203 241.031 10.0433C241.845 9.7501 242.75 9.59536 243.743 9.57907V7.59975C242.619 7.55087 241.634 7.41238 240.786 7.18431C239.939 6.93995 239.263 6.56522 238.758 6.0602C238.253 5.55518 238.001 4.89543 238.001 4.08088C238.001 3.25004 238.27 2.53325 238.807 1.93049C239.345 1.31143 240.119 0.838978 241.129 0.513159C242.139 0.18734 243.312 0.0244261 244.647 0.0244261C246.26 0.0244261 247.726 0.244356 249.046 0.684212C250.366 1.12407 251.636 1.75943 252.858 2.59027L251.172 5.35156C250.357 4.68363 249.364 4.14605 248.191 3.73877C247.034 3.3315 245.894 3.11974 244.77 3.10345C243.841 3.10345 243.132 3.26631 242.644 3.59213C242.155 3.90166 241.911 4.30896 241.911 4.81398C241.911 5.17238 242.033 5.48192 242.277 5.74257C242.521 5.98694 242.864 6.1987 243.303 6.3779C243.76 6.54081 244.338 6.68741 245.038 6.81774L247.067 7.28205C248.793 7.64045 250.146 8.23507 251.123 9.06591C252.117 9.89675 252.614 11.0127 252.614 12.4137C252.614 13.3423 252.329 14.2138 251.758 15.0284C251.188 15.8266 250.366 16.4701 249.29 16.9589C248.215 17.4476 246.953 17.6919 245.503 17.6919ZM245.6 14.9795C246.252 14.9795 246.814 14.8654 247.287 14.6374C247.775 14.4093 248.142 14.108 248.386 13.7333C248.647 13.3586 248.777 12.9431 248.777 12.487C248.777 11.982 248.639 11.5421 248.362 11.1674C248.101 10.7765 247.718 10.4751 247.213 10.2633C246.725 10.0352 246.163 9.92119 245.527 9.92119C244.924 9.92119 244.379 10.0271 243.89 10.2389C243.401 10.4507 243.018 10.752 242.741 11.143C242.464 11.5177 242.326 11.9576 242.326 12.4626C242.326 12.935 242.464 13.3667 242.741 13.7577C243.018 14.1324 243.401 14.4338 243.89 14.6619C244.395 14.8736 244.965 14.9795 245.6 14.9795Z" fill="#FFBA72"/>
<path d="M228.912 0.342106H232.675V17.3743H228.912V0.342106Z" fill="#FFBA72"/>
<path d="M224.062 0.342106H227.85V17.3743H224.062V0.342106ZM212.993 0.342106H216.756V17.3743H212.993V0.342106ZM216.438 7.20874H224.405V10.2877H216.438V7.20874Z" fill="#FFBA72"/>
<path d="M205.261 17.6919C203.844 17.6919 202.597 17.5128 201.522 17.1544C200.463 16.796 199.641 16.2828 199.054 15.6149C198.468 14.9306 198.174 14.1487 198.174 13.269C198.174 12.4707 198.411 11.8028 198.883 11.2652C199.356 10.7276 199.991 10.3203 200.789 10.0433C201.604 9.7501 202.508 9.59536 203.502 9.57907V7.59975C202.377 7.55087 201.392 7.41238 200.545 7.18431C199.698 6.93995 199.022 6.56522 198.516 6.0602C198.011 5.55518 197.759 4.89543 197.759 4.08088C197.759 3.25004 198.028 2.53325 198.565 1.93049C199.103 1.31143 199.877 0.838978 200.887 0.513159C201.897 0.18734 203.07 0.0244261 204.406 0.0244261C206.018 0.0244261 207.485 0.244356 208.804 0.684212C210.124 1.12407 211.395 1.75943 212.616 2.59027L210.93 5.35156C210.116 4.68363 209.122 4.14605 207.949 3.73877C206.792 3.3315 205.652 3.11974 204.528 3.10345C203.599 3.10345 202.891 3.26631 202.402 3.59213C201.913 3.90166 201.669 4.30896 201.669 4.81398C201.669 5.17238 201.791 5.48192 202.035 5.74257C202.28 5.98694 202.622 6.1987 203.062 6.3779C203.518 6.54081 204.096 6.68741 204.797 6.81774L206.825 7.28205C208.552 7.64045 209.904 8.23507 210.881 9.06591C211.875 9.89675 212.372 11.0127 212.372 12.4137C212.372 13.3423 212.087 14.2138 211.517 15.0284C210.946 15.8266 210.124 16.4701 209.049 16.9589C207.973 17.4476 206.711 17.6919 205.261 17.6919ZM205.359 14.9795C206.01 14.9795 206.572 14.8654 207.045 14.6374C207.534 14.4093 207.9 14.108 208.144 13.7333C208.405 13.3586 208.535 12.9431 208.535 12.487C208.535 11.982 208.397 11.5421 208.12 11.1674C207.859 10.7765 207.476 10.4751 206.971 10.2633C206.483 10.0352 205.921 9.92119 205.285 9.92119C204.683 9.92119 204.137 10.0271 203.648 10.2389C203.159 10.4507 202.777 10.752 202.5 11.143C202.223 11.5177 202.084 11.9576 202.084 12.4626C202.084 12.935 202.223 13.3667 202.5 13.7577C202.777 14.1324 203.159 14.4338 203.648 14.6619C204.153 14.8736 204.723 14.9795 205.359 14.9795Z" fill="#FFBA72"/>
<path d="M188.968 17.6919C187.257 17.6919 185.726 17.3172 184.374 16.5679C183.022 15.8022 181.963 14.7514 181.197 13.4156C180.431 12.0634 180.049 10.5484 180.049 8.87043C180.049 7.19246 180.431 5.68553 181.197 4.34967C181.963 3.01382 183.022 1.97118 184.374 1.2218C185.726 0.456123 187.257 0.0733134 188.968 0.0733134C190.662 0.0733134 192.185 0.456123 193.537 1.2218C194.906 1.97118 195.973 3.01382 196.739 4.34967C197.504 5.68553 197.887 7.19246 197.887 8.87043C197.887 10.5484 197.504 12.0634 196.739 13.4156C195.973 14.7514 194.906 15.8022 193.537 16.5679C192.185 17.3172 190.662 17.6919 188.968 17.6919ZM188.968 14.5885C189.994 14.5885 190.89 14.3442 191.656 13.8554C192.421 13.3667 193.008 12.6906 193.415 11.8272C193.823 10.9638 194.026 9.97821 194.026 8.87043C194.026 7.76265 193.823 6.77705 193.415 5.91363C193.008 5.05021 192.421 4.37413 191.656 3.8854C190.89 3.39667 189.994 3.15228 188.968 3.15228C187.942 3.15228 187.045 3.39667 186.28 3.8854C185.514 4.37413 184.92 5.05021 184.496 5.91363C184.089 6.77705 183.885 7.76265 183.885 8.87043C183.885 9.97821 184.089 10.9638 184.496 11.8272C184.92 12.6906 185.514 13.3667 186.28 13.8554C187.045 14.3442 187.942 14.5885 188.968 14.5885Z" fill="#FFBA72"/>
<path d="M172.259 10.9475L165.881 0.342106H170.035C170.866 1.69425 171.493 2.84279 171.917 3.78766C172.357 4.71624 172.658 5.61222 172.821 6.47564C173 7.32277 173.09 8.3165 173.09 9.45687H175.24C175.24 8.3165 175.322 7.31463 175.485 6.45121C175.664 5.58779 175.965 4.69177 176.389 3.76318C176.812 2.8346 177.44 1.69425 178.27 0.342106H182.449L176.047 10.9475V17.3743H172.259V10.9475Z" fill="#FFBA72"/>
<path d="M149.478 0.342106H153.241V17.3743H149.478V0.342106Z" fill="#FFBA72"/>
<path d="M139.945 2.4925L140.8 3.42108H134.3V0.342106H149.377V3.42108H142.877L143.732 2.4925V17.3743H139.945V2.4925Z" fill="#FFBA72"/>
<path d="M118.499 0.342106H121.896L131.451 12.1205L133.234 10.8986C132.632 10.2307 132.135 9.6198 131.744 9.06591C131.353 8.51202 131.035 7.9174 130.791 7.28205C130.546 6.63041 130.424 5.95433 130.424 5.25382V0.342106H134.212V17.3743H131.084L121.432 5.52262L119.599 6.72C120.283 7.37164 120.821 8.01514 121.212 8.65049C121.912 9.77456 122.262 11.0045 122.262 12.3404V17.3743H118.499V0.342106Z" fill="#FFBA72"/>
<path d="M104.179 0.342106H117.644V3.42108H107.014L107.942 2.54138V8.18617L107.014 7.3309H116.886V10.2389H107.014L107.942 9.43244V15.2239L107.014 14.2953H117.937V17.3743H104.179V0.342106Z" fill="#FFBA72"/>
<path d="M97.1431 17.7164C95.4651 17.7164 93.9581 17.3499 92.6223 16.6168C91.3027 15.8674 90.2683 14.8247 89.5189 13.4889C88.7695 12.1367 88.3948 10.5891 88.3948 8.84597C88.3948 7.10284 88.7695 5.56336 89.5189 4.22751C90.2846 2.89165 91.3435 1.85715 92.6956 1.12406C94.0641 0.374674 95.6117 0 97.3385 0C98.6907 0 99.8881 0.21993 100.931 0.659785C101.973 1.09964 102.934 1.72684 103.814 2.54138L101.908 5.05836C101.305 4.47189 100.654 4.02387 99.9532 3.71435C99.2527 3.38853 98.4626 3.2256 97.5829 3.2256C96.5403 3.2256 95.6036 3.46998 94.7727 3.95871C93.9582 4.43115 93.3228 5.09906 92.8667 5.96248C92.4105 6.8259 92.1824 7.8115 92.1824 8.91928C92.1824 10.0271 92.4105 10.9964 92.8667 11.8272C93.3391 12.658 93.9826 13.3015 94.7971 13.7577C95.628 14.1975 96.5647 14.4175 97.6073 14.4175C98.5033 14.4175 99.3016 14.2383 100.002 13.8799C100.719 13.5215 101.379 13.0165 101.981 12.3648L103.936 14.9551C103.024 15.8511 102.03 16.5353 100.955 17.0077C99.8962 17.4801 98.6255 17.7164 97.1431 17.7164Z" fill="#FFBA72"/>
<path d="M82.5366 17.7164C80.8586 17.7164 79.3517 17.3499 78.0159 16.6168C76.6963 15.8674 75.6619 14.8247 74.9125 13.4889C74.1631 12.1367 73.7884 10.5891 73.7884 8.84597C73.7884 7.10284 74.1631 5.56336 74.9125 4.22751C75.6782 2.89165 76.737 1.85715 78.0892 1.12406C79.4576 0.374674 81.0053 0 82.7321 0C84.0842 0 85.2816 0.21993 86.3243 0.659785C87.3669 1.09964 88.328 1.72684 89.2077 2.54138L87.3017 5.05836C86.699 4.47189 86.0473 4.02387 85.3468 3.71435C84.6463 3.38853 83.8562 3.2256 82.9765 3.2256C81.9338 3.2256 80.9971 3.46998 80.1663 3.95871C79.3517 4.43115 78.7164 5.09906 78.2602 5.96248C77.8041 6.8259 77.576 7.8115 77.576 8.91928C77.576 10.0271 77.8041 10.9964 78.2602 11.8272C78.7327 12.658 79.3762 13.3015 80.1907 13.7577C81.0216 14.1975 81.9583 14.4175 83.0009 14.4175C83.8969 14.4175 84.6951 14.2383 85.3956 13.8799C86.1124 13.5215 86.7723 13.0165 87.375 12.3648L89.3299 14.9551C88.4177 15.8511 87.4239 16.5353 86.3487 17.0077C85.2898 17.4801 84.0191 17.7164 82.5366 17.7164Z" fill="#FFBA72"/>
<path d="M71.176 17.3743L69.3433 12.7069L70.4918 13.5133H61.4259L62.5744 12.7069L60.7173 17.3743H56.7097L63.9673 0.342106H67.926L75.208 17.3743H71.176ZM64.9692 3.17671C64.9855 3.81206 64.9773 4.40668 64.9447 4.96057C64.9122 5.49817 64.8389 6.03578 64.7248 6.57338C64.6271 7.09469 64.4886 7.63227 64.3094 8.18617C64.0976 8.78893 63.6415 9.80712 62.941 11.2407L62.4033 10.6787H69.4899L68.9523 11.2407C68.6102 10.5402 68.2925 9.82343 67.9993 9.09034C67.5757 8.06401 67.2988 7.11098 67.1685 6.23127C67.0382 5.33527 66.9893 4.31707 67.0219 3.17671H64.9692Z" fill="#FFBA72"/>
<path d="M50.9337 17.6919C49.5164 17.6919 48.2701 17.5128 47.1949 17.1544C46.136 16.796 45.3133 16.2828 44.7269 15.6149C44.1404 14.9306 43.8471 14.1487 43.8471 13.269C43.8471 12.4707 44.0833 11.8028 44.5558 11.2652C45.0282 10.7276 45.6635 10.3203 46.4618 10.0433C47.2763 9.7501 48.1805 9.59536 49.1742 9.57907V7.59975C48.0502 7.55087 47.0646 7.41238 46.2174 7.18431C45.3703 6.93995 44.6942 6.56522 44.1892 6.0602C43.6842 5.55518 43.4317 4.89543 43.4317 4.08088C43.4317 3.25004 43.7005 2.53325 44.2381 1.93049C44.7757 1.31143 45.5495 0.838978 46.5595 0.513159C47.5696 0.18734 48.7425 0.0244261 50.0784 0.0244261C51.6912 0.0244261 53.1574 0.244356 54.477 0.684212C55.7965 1.12407 57.0672 1.75943 58.289 2.59027L56.6029 5.35156C55.7884 4.68363 54.7946 4.14605 53.6216 3.73877C52.465 3.3315 51.3247 3.11974 50.2006 3.10345C49.272 3.10345 48.5633 3.26631 48.0746 3.59213C47.5859 3.90166 47.3415 4.30896 47.3415 4.81398C47.3415 5.17238 47.4637 5.48192 47.7081 5.74257C47.9524 5.98694 48.2945 6.1987 48.7344 6.3779C49.1905 6.54081 49.7688 6.68741 50.4694 6.81774L52.4976 7.28205C54.2244 7.64045 55.5766 8.23507 56.554 9.06591C57.5478 9.89675 58.0447 11.0127 58.0447 12.4137C58.0447 13.3423 57.7596 14.2138 57.1894 15.0284C56.6192 15.8266 55.7965 16.4701 54.7213 16.9589C53.6461 17.4476 52.3836 17.6919 50.9337 17.6919ZM51.0314 14.9795C51.6831 14.9795 52.2451 14.8654 52.7175 14.6374C53.2063 14.4093 53.5728 14.108 53.8172 13.7333C54.0778 13.3586 54.2081 12.9431 54.2081 12.487C54.2081 11.982 54.0697 11.5421 53.7927 11.1674C53.5321 10.7765 53.1492 10.4751 52.6442 10.2633C52.1555 10.0352 51.5934 9.92119 50.9581 9.92119C50.3553 9.92119 49.8096 10.0271 49.3209 10.2389C48.8322 10.4507 48.4493 10.752 48.1724 11.143C47.8954 11.5177 47.7569 11.9576 47.7569 12.4626C47.7569 12.935 47.8954 13.3667 48.1724 13.7577C48.4493 14.1324 48.8322 14.4338 49.3209 14.6619C49.8259 14.8736 50.3961 14.9795 51.0314 14.9795Z" fill="#FFBA72"/>
<path d="M20.0245 0.342106H25.3028C25.7589 1.4336 26.1662 2.44366 26.5246 3.37224C26.883 4.28453 27.1599 5.10722 27.3554 5.84031C27.5998 6.67115 27.779 7.45307 27.893 8.18617C28.007 8.90297 28.0641 9.63606 28.0641 10.3854H30.0434C30.0434 9.55461 30.1167 8.7238 30.2633 7.89296C30.41 7.04584 30.6381 6.14981 30.9476 5.20494C31.2571 4.26006 31.6888 3.10339 32.2427 1.73496C32.3241 1.50688 32.5115 1.04262 32.8047 0.342106H38.1074V17.3743H34.3442C34.3442 15.8755 34.3687 14.3849 34.4175 12.9024C34.4827 11.5177 34.5886 10.3936 34.7352 9.53018C34.8981 8.65047 35.1099 7.86036 35.3706 7.15985C35.6312 6.45934 35.9978 5.63665 36.4702 4.69178L34.5153 3.98314L30.4833 14.3442H27.5998L23.5922 3.98314L21.6617 4.76509C22.1341 5.70996 22.5007 6.52452 22.7614 7.20874C23.022 7.89295 23.2257 8.65863 23.3723 9.50575C23.5352 10.3366 23.6492 11.4199 23.7144 12.7558C23.7633 14.2871 23.7877 15.8267 23.7877 17.3743H20.0245V0.342106Z" fill="#FFBA72"/>
<path d="M15.1783 0.342106H18.9415V17.3743H15.1783V0.342106Z" fill="#FFBA72"/>
<path d="M5.64483 2.4925L6.50008 3.42108H0V0.342106H15.0773V3.42108H8.57716L9.43247 2.4925V17.3743H5.64483V2.4925Z" fill="#FFBA72"/>
<path d="M456.546 17.5705C454.854 17.5705 453.34 17.2 452.002 16.4588C450.665 15.7016 449.618 14.6624 448.861 13.3413C448.103 12.004 447.725 10.5057 447.725 8.84618C447.725 7.1867 448.103 5.69639 448.861 4.37525C449.618 3.05411 450.665 2.02298 452.002 1.28185C453.34 0.524615 454.854 0.145996 456.546 0.145996C458.221 0.145996 459.728 0.524615 461.065 1.28185C462.419 2.02298 463.474 3.05411 464.231 4.37525C464.988 5.69639 465.367 7.1867 465.367 8.84618C465.367 10.5057 464.988 12.004 464.231 13.3413C463.474 14.6624 462.419 15.7016 461.065 16.4588C459.728 17.2 458.221 17.5705 456.546 17.5705ZM456.546 14.5013C457.561 14.5013 458.447 14.2596 459.204 13.7763C459.962 13.2929 460.542 12.6243 460.944 11.7704C461.347 10.9165 461.548 9.94176 461.548 8.84618C461.548 7.7506 461.347 6.77586 460.944 5.92195C460.542 5.06805 459.962 4.39942 459.204 3.91608C458.447 3.43273 457.561 3.19106 456.546 3.19106C455.531 3.19106 454.645 3.43273 453.887 3.91608C453.13 4.39942 452.542 5.06805 452.123 5.92195C451.72 6.77586 451.519 7.7506 451.519 8.84618C451.519 9.94176 451.72 10.9165 452.123 11.7704C452.542 12.6243 453.13 13.2929 453.887 13.7763C454.645 14.2596 455.531 14.5013 456.546 14.5013Z" fill="#FFBA72"/>
<path d="M443.294 0.412109H447.016V17.2566H443.294V0.412109Z" fill="#FFBA72"/>
<path d="M428.022 0.412109H436.408C437.633 0.412109 438.664 0.541001 439.502 0.798784C440.356 1.04046 441.008 1.4513 441.459 2.03131C441.926 2.59521 442.16 3.32023 442.16 4.20636C442.16 4.94748 441.999 5.56778 441.677 6.06723C441.354 6.55057 440.887 6.91308 440.275 7.15475C439.679 7.39643 438.954 7.54143 438.1 7.58976V9.5473C439.083 9.56342 439.912 9.69231 440.589 9.93398C441.282 10.1757 441.814 10.5462 442.184 11.0457C442.555 11.5451 442.74 12.1976 442.74 13.0032C442.74 13.9377 442.482 14.7191 441.967 15.3474C441.467 15.9758 440.766 16.4511 439.864 16.7733C438.962 17.0955 437.915 17.2566 436.722 17.2566H428.022V0.412109ZM436.022 14.3566C436.634 14.3566 437.157 14.2841 437.592 14.1391C438.044 13.978 438.382 13.7363 438.607 13.4141C438.849 13.0918 438.97 12.681 438.97 12.1815C438.97 11.7143 438.849 11.3276 438.607 11.0215C438.382 10.7154 438.052 10.4898 437.617 10.3448C437.182 10.1998 436.65 10.1273 436.022 10.1273H431.768V14.3566H436.022ZM435.466 7.37226C436.449 7.37226 437.182 7.21114 437.665 6.88891C438.164 6.55057 438.414 6.0189 438.414 5.29388C438.414 4.60109 438.164 4.10163 437.665 3.79551C437.182 3.47329 436.449 3.31217 435.466 3.31217H431.768V7.37226H435.466Z" fill="#FFBA72"/>
<path d="M423.254 0.412109H426.975V17.2566H423.254V0.412109Z" fill="#FFBA72"/>
<path d="M407.817 0.412109H415.647C417.79 0.412109 419.393 0.790729 420.456 1.54797C421.519 2.28909 422.051 3.40884 422.051 4.9072C422.051 5.82556 421.809 6.59085 421.326 7.20309C420.843 7.81532 420.19 8.28256 419.369 8.60478C418.547 8.92701 417.62 9.12035 416.589 9.1848V11.1182C417.33 11.1504 417.967 11.3115 418.499 11.6015C419.046 11.8754 419.554 12.3265 420.021 12.9549L420.094 13.0515L423.187 17.2566H418.813L416.154 13.4624C416.09 13.3657 416.025 13.2691 415.961 13.1724C415.494 12.5118 415.115 12.0446 414.825 11.7707C414.551 11.4968 414.245 11.3115 413.907 11.2148C413.568 11.1021 413.077 11.0457 412.433 11.0457H410.62L411.538 10.1515V17.2566H407.817V0.412109ZM410.62 8.67729H414.97C415.711 8.67729 416.323 8.58062 416.807 8.38728C417.306 8.17783 417.677 7.87171 417.919 7.46893C418.176 7.06614 418.305 6.55863 418.305 5.94639C418.305 5.06027 418.031 4.3997 417.484 3.96469C416.936 3.52968 416.098 3.31217 414.97 3.31217H410.62L411.538 2.36965V9.5473L410.62 8.67729Z" fill="#FFBA72"/>
<path d="M398.313 17.5705C396.622 17.5705 395.107 17.2 393.77 16.4588C392.433 15.7016 391.385 14.6624 390.628 13.3413C389.871 12.004 389.492 10.5057 389.492 8.84618C389.492 7.1867 389.871 5.69639 390.628 4.37525C391.385 3.05411 392.433 2.02298 393.77 1.28185C395.107 0.524615 396.622 0.145996 398.313 0.145996C399.989 0.145996 401.495 0.524615 402.832 1.28185C404.186 2.02298 405.241 3.05411 405.998 4.37525C406.756 5.69639 407.134 7.1867 407.134 8.84618C407.134 10.5057 406.756 12.004 405.998 13.3413C405.241 14.6624 404.186 15.7016 402.832 16.4588C401.495 17.2 399.989 17.5705 398.313 17.5705ZM398.313 14.5013C399.328 14.5013 400.214 14.2596 400.972 13.7763C401.729 13.2929 402.309 12.6243 402.712 11.7704C403.114 10.9165 403.316 9.94176 403.316 8.84618C403.316 7.7506 403.114 6.77586 402.712 5.92195C402.309 5.06805 401.729 4.39942 400.972 3.91608C400.214 3.43273 399.328 3.19106 398.313 3.19106C397.298 3.19106 396.412 3.43273 395.655 3.91608C394.898 4.39942 394.31 5.06805 393.891 5.92195C393.488 6.77586 393.286 7.7506 393.286 8.84618C393.286 9.94176 393.488 10.9165 393.891 11.7704C394.31 12.6243 394.898 13.2929 395.655 13.7763C396.412 14.2596 397.298 14.5013 398.313 14.5013Z" fill="#FFBA72"/>
<path d="M381.229 2.53882L382.074 3.45717H375.646V0.412109H390.557V3.45717H384.129L384.975 2.53882V17.2566H381.229V2.53882Z" fill="#FFBA72"/>
<path d="M546.097 0.266602H549.819V17.1111H546.097V0.266602Z" fill="#FFBA72"/>
<path d="M538.887 17.4495C537.534 17.4495 536.358 17.1595 535.359 16.5795C534.36 15.9994 533.579 15.1455 533.015 14.0177L535.286 11.7218C535.625 12.5274 536.068 13.1397 536.616 13.5586C537.163 13.9775 537.792 14.1869 538.501 14.1869C539.387 14.1869 540.096 13.9452 540.627 13.4619C541.159 12.9624 541.425 12.2132 541.425 11.2143V0.266602H545.171V11.6493C545.171 12.8899 544.897 13.9533 544.349 14.8394C543.801 15.7094 543.052 16.3619 542.102 16.797C541.151 17.232 540.08 17.4495 538.887 17.4495Z" fill="#FFBA72"/>
<path d="M520.132 0.266602H533.448V3.31167H522.936L523.854 2.44165V8.02427L522.936 7.17842H532.699V10.0543H522.936L523.854 9.25679V14.9844L522.936 14.0661H533.738V17.1111H520.132V0.266602Z" fill="#FFBA72"/>
<path d="M516.054 17.1111L514.241 12.4952L515.377 13.2927H506.411L507.547 12.4952L505.71 17.1111H501.747L508.924 0.266602H512.84L520.041 17.1111H516.054ZM509.915 3.06999C509.931 3.69834 509.923 4.28641 509.891 4.8342C509.859 5.36588 509.786 5.89756 509.674 6.42923C509.577 6.9448 509.44 7.47648 509.263 8.02427C509.053 8.62039 508.602 9.62736 507.909 11.0452L507.378 10.4893H514.386L513.855 11.0452C513.516 10.3524 513.202 9.64347 512.912 8.91845C512.493 7.90343 512.219 6.96091 512.09 6.09089C511.961 5.20476 511.913 4.1978 511.945 3.06999H509.915Z" fill="#FFBA72"/>
<path d="M496.016 10.7552L489.708 0.266602H493.817C494.638 1.60385 495.259 2.73971 495.678 3.67417C496.113 4.59253 496.411 5.47866 496.572 6.33256C496.749 7.17036 496.838 8.15316 496.838 9.28096H498.964C498.964 8.15316 499.045 7.1623 499.206 6.3084C499.383 5.45449 499.681 4.56836 500.1 3.65001C500.519 2.73165 501.139 1.60385 501.961 0.266602H506.094L499.762 10.7552V17.1111H496.016V10.7552Z" fill="#FFBA72"/>
<path d="M632.987 17.6067C631.472 17.6067 630.151 17.3409 629.024 16.8092C627.896 16.2614 627.026 15.4478 626.413 14.3683C625.817 13.2888 625.519 11.9677 625.519 10.4049V0.423828H629.241V10.3082C629.241 11.2104 629.386 11.9757 629.676 12.6041C629.982 13.2163 630.409 13.6836 630.957 14.0058C631.521 14.3119 632.197 14.465 632.987 14.465C634.163 14.465 635.073 14.1105 635.718 13.4016C636.378 12.6766 636.709 11.6455 636.709 10.3082V0.423828H640.43V10.4049C640.43 12.7571 639.762 14.5455 638.425 15.77C637.103 16.9945 635.291 17.6067 632.987 17.6067Z" fill="#FFBA72"/>
<path d="M617.993 17.5823C616.591 17.5823 615.359 17.405 614.295 17.0506C613.248 16.6961 612.435 16.1886 611.855 15.528C611.275 14.8514 610.985 14.078 610.985 13.208C610.985 12.4185 611.218 11.758 611.685 11.2263C612.153 10.6946 612.781 10.2918 613.57 10.0179C614.376 9.72792 615.27 9.57486 616.253 9.55874V7.6012C615.141 7.55287 614.167 7.41592 613.329 7.19036C612.491 6.94869 611.822 6.57813 611.323 6.07867C610.823 5.57922 610.574 4.9267 610.574 4.12113C610.574 3.29944 610.84 2.59054 611.371 1.99442C611.903 1.38218 612.668 0.914948 613.667 0.592718C614.666 0.270489 615.826 0.109375 617.147 0.109375C618.742 0.109375 620.192 0.32688 621.497 0.761889C622.802 1.1969 624.059 1.82525 625.267 2.64693L623.6 5.37782C622.794 4.71725 621.811 4.18557 620.651 3.78279C619.508 3.38 618.38 3.17055 617.268 3.15444C616.35 3.15444 615.649 3.31555 615.165 3.63778C614.682 3.9439 614.44 4.34669 614.44 4.84614C614.44 5.2006 614.561 5.50671 614.803 5.7645C615.045 6.00617 615.383 6.21562 615.818 6.39284C616.269 6.55396 616.841 6.69896 617.534 6.82785L619.54 7.28703C621.248 7.64148 622.585 8.22955 623.552 9.05123C624.534 9.87292 625.026 10.9766 625.026 12.3621C625.026 13.2805 624.744 14.1425 624.18 14.948C623.616 15.7375 622.802 16.3739 621.739 16.8572C620.676 17.3406 619.427 17.5823 617.993 17.5823ZM618.09 14.8997C618.734 14.8997 619.29 14.7869 619.757 14.5614C620.241 14.3358 620.603 14.0377 620.845 13.6672C621.103 13.2966 621.231 12.8858 621.231 12.4346C621.231 11.9352 621.095 11.5002 620.821 11.1296C620.563 10.7429 620.184 10.4449 619.685 10.2354C619.201 10.0099 618.646 9.89709 618.017 9.89709C617.421 9.89709 616.881 10.0018 616.398 10.2113C615.915 10.4207 615.536 10.7188 615.262 11.1054C614.988 11.476 614.851 11.911 614.851 12.4105C614.851 12.8777 614.988 13.3047 615.262 13.6913C615.536 14.0619 615.915 14.36 616.398 14.5855C616.897 14.795 617.461 14.8997 618.09 14.8997Z" fill="#FFBA72"/>
<path d="M597.981 17.6067C596.467 17.6067 595.146 17.3409 594.018 16.8092C592.89 16.2614 592.02 15.4478 591.408 14.3683C590.812 13.2888 590.514 11.9677 590.514 10.4049V0.423828H594.235V10.3082C594.235 11.2104 594.38 11.9757 594.67 12.6041C594.977 13.2163 595.403 13.6836 595.951 14.0058C596.515 14.3119 597.192 14.465 597.981 14.465C599.157 14.465 600.068 14.1105 600.712 13.4016C601.373 12.6766 601.703 11.6455 601.703 10.3082V0.423828H605.425V10.4049C605.425 12.7571 604.756 14.5455 603.419 15.77C602.098 16.9945 600.285 17.6067 597.981 17.6067Z" fill="#FFBA72"/>
<path d="M580.468 10.9124L574.16 0.423828H578.268C579.09 1.76108 579.71 2.89694 580.129 3.8314C580.564 4.74975 580.862 5.63588 581.023 6.48979C581.201 7.32759 581.289 8.31039 581.289 9.43819H583.416C583.416 8.31039 583.497 7.31953 583.658 6.46562C583.835 5.61172 584.133 4.72559 584.552 3.80723C584.971 2.88888 585.591 1.76108 586.413 0.423828H590.545L584.213 10.9124V17.2684H580.468V10.9124Z" fill="#FFBA72"/>
</svg>
