<svg width="641" height="18" viewBox="0 0 641 18" fill="none" xmlns="http://www.w3.org/2000/svg">
<path d="M82.6921 0.313965H96.0083V3.35903H85.4955L86.4139 2.48901V8.07163L85.4955 7.22578H95.2591V10.1017H85.4955L86.4139 9.30416V15.0318L85.4955 14.1134H96.2983V17.1585H82.6921V0.313965Z" fill="#FFBA72"/>
<path d="M75.0451 17.4729C73.6434 17.4729 72.4108 17.2957 71.3475 16.9412C70.3002 16.5867 69.4866 16.0792 68.9066 15.4187C68.3266 14.742 68.0366 13.9686 68.0366 13.0986C68.0366 12.3092 68.2702 11.6486 68.7374 11.1169C69.2047 10.5852 69.833 10.1824 70.6225 9.90855C71.428 9.61854 72.3222 9.46548 73.305 9.44937V7.49183C72.1933 7.44349 71.2186 7.30655 70.3808 7.08099C69.543 6.83931 68.8744 6.46875 68.3749 5.9693C67.8755 5.46984 67.6257 4.81733 67.6257 4.01175C67.6257 3.19007 67.8916 2.48116 68.4233 1.88504C68.9549 1.27281 69.7202 0.805573 70.7191 0.483343C71.718 0.161114 72.8781 0 74.1992 0C75.7942 0 77.2443 0.217505 78.5493 0.652514C79.8543 1.08752 81.111 1.71587 82.3194 2.53755L80.6518 5.26845C79.8463 4.60788 78.8635 4.0762 77.7034 3.67341C76.5595 3.27063 75.4317 3.06118 74.32 3.04507C73.4017 3.04507 72.7008 3.20618 72.2175 3.52841C71.7342 3.83453 71.4925 4.23731 71.4925 4.73677C71.4925 5.09122 71.6133 5.39734 71.855 5.65512C72.0967 5.89679 72.435 6.10624 72.87 6.28347C73.3211 6.44458 73.8931 6.58959 74.5859 6.71848L76.5918 7.17765C78.2996 7.53211 79.6368 8.12017 80.6035 8.94186C81.5863 9.76354 82.0777 10.8672 82.0777 12.2528C82.0777 13.1711 81.7958 14.0331 81.2319 14.8387C80.668 15.6281 79.8543 16.2645 78.791 16.7479C77.7276 17.2312 76.479 17.4729 75.0451 17.4729ZM75.1417 14.7903C75.7862 14.7903 76.342 14.6775 76.8093 14.452C77.2926 14.2264 77.6551 13.9284 77.8968 13.5578C78.1546 13.1872 78.2835 12.7764 78.2835 12.3253C78.2835 11.8258 78.1465 11.3908 77.8726 11.0202C77.6148 10.6336 77.2362 10.3355 76.7368 10.1261C76.2534 9.90049 75.6976 9.78771 75.0692 9.78771C74.4731 9.78771 73.9334 9.89243 73.45 10.1019C72.9667 10.3113 72.5881 10.6094 72.3142 10.9961C72.0403 11.3666 71.9033 11.8016 71.9033 12.3011C71.9033 12.7683 72.0403 13.1953 72.3142 13.582C72.5881 13.9525 72.9667 14.2506 73.45 14.4761C73.9495 14.6856 74.5134 14.7903 75.1417 14.7903Z" fill="#FFBA72"/>
<path d="M53.1399 0.313965H60.9701C63.1129 0.313965 64.716 0.692584 65.7793 1.44982C66.8427 2.19095 67.3744 3.3107 67.3744 4.80906C67.3744 5.72741 67.1327 6.49271 66.6493 7.10494C66.166 7.71718 65.5135 8.18441 64.6918 8.50664C63.8701 8.82887 62.9437 9.02221 61.9126 9.08665V11.02C62.6537 11.0522 63.2901 11.2134 63.8218 11.5034C64.3696 11.7773 64.8771 12.2284 65.3443 12.8567L65.4168 12.9534L68.5102 17.1585H64.136L61.4776 13.3642C61.4131 13.2676 61.3487 13.1709 61.2842 13.0742C60.817 12.4137 60.4384 11.9464 60.1484 11.6725C59.8745 11.3986 59.5684 11.2134 59.23 11.1167C58.8917 11.0039 58.4003 10.9475 57.7558 10.9475H55.9433L56.8616 10.0533V17.1585H53.1399V0.313965ZM55.9433 8.57914H60.2934C61.0345 8.57914 61.6467 8.48247 62.1301 8.28913C62.6295 8.07969 63.0001 7.77357 63.2418 7.37078C63.4996 6.968 63.6284 6.46049 63.6284 5.84825C63.6284 4.96212 63.3546 4.30155 62.8068 3.86654C62.259 3.43153 61.4212 3.21403 60.2934 3.21403H55.9433L56.8616 2.27151V9.44916L55.9433 8.57914Z" fill="#FFBA72"/>
<path d="M48.3472 0.313965H52.0689V17.1585H48.3472V0.313965Z" fill="#FFBA72"/>
<path d="M38.8432 17.4719C37.1515 17.4719 35.6371 17.1013 34.2998 16.3602C32.9626 15.603 31.9153 14.5638 31.1581 13.2426C30.4008 11.9054 30.0222 10.407 30.0222 8.74755C30.0222 7.08807 30.4008 5.59776 31.1581 4.27662C31.9153 2.95548 32.9626 1.92435 34.2998 1.18322C35.6371 0.425982 37.1515 0.0473633 38.8432 0.0473633C40.5188 0.0473633 42.0253 0.425982 43.3625 1.18322C44.7159 1.92435 45.7712 2.95548 46.5284 4.27662C47.2856 5.59776 47.6643 7.08807 47.6643 8.74755C47.6643 10.407 47.2856 11.9054 46.5284 13.2426C45.7712 14.5638 44.7159 15.603 43.3625 16.3602C42.0253 17.1013 40.5188 17.4719 38.8432 17.4719ZM38.8432 14.4027C39.8583 14.4027 40.7444 14.161 41.5016 13.6777C42.2589 13.1943 42.8389 12.5257 43.2417 11.6718C43.6445 10.8179 43.8458 9.84313 43.8458 8.74755C43.8458 7.65197 43.6445 6.67723 43.2417 5.82332C42.8389 4.96941 42.2589 4.30079 41.5016 3.81744C40.7444 3.3341 39.8583 3.09243 38.8432 3.09243C37.8282 3.09243 36.9421 3.3341 36.1848 3.81744C35.4276 4.30079 34.8395 4.96941 34.4206 5.82332C34.0179 6.67723 33.8165 7.65197 33.8165 8.74755C33.8165 9.84313 34.0179 10.8179 34.4206 11.6718C34.8395 12.5257 35.4276 13.1943 36.1848 13.6777C36.9421 14.161 37.8282 14.4027 38.8432 14.4027Z" fill="#FFBA72"/>
<path d="M27.4391 17.1585L25.6265 12.5426L26.7624 13.3401H17.7963L18.9322 12.5426L17.0955 17.1585H13.1321L20.3097 0.313965H24.2248L31.4266 17.1585H27.4391ZM21.3006 3.11736C21.3167 3.7457 21.3086 4.33377 21.2764 4.88156C21.2442 5.41324 21.1717 5.94492 21.0589 6.4766C20.9622 6.99216 20.8253 7.52384 20.6481 8.07163C20.4386 8.66776 19.9875 9.67472 19.2947 11.0925L18.763 10.5367H25.7715L25.2398 11.0925C24.9015 10.3997 24.5873 9.69083 24.2973 8.96582C23.8784 7.95079 23.6045 7.00828 23.4756 6.13826C23.3467 5.25213 23.2984 4.24516 23.3306 3.11736H21.3006Z" fill="#FFBA72"/>
<path d="M7.41933 17.4729C6.01763 17.4729 4.7851 17.2957 3.72175 16.9412C2.6745 16.5867 1.86087 16.0792 1.28086 15.4187C0.700848 14.742 0.410842 13.9686 0.410842 13.0986C0.410842 12.3092 0.644458 11.6486 1.11169 11.1169C1.57892 10.5852 2.20727 10.1824 2.99673 9.90855C3.8023 9.61854 4.69649 9.46548 5.67929 9.44937V7.49183C4.5676 7.44349 3.59285 7.30655 2.75506 7.08099C1.91726 6.83931 1.24864 6.46875 0.749183 5.9693C0.249727 5.46984 0 4.81733 0 4.01175C0 3.19007 0.265839 2.48116 0.797517 1.88504C1.3292 1.27281 2.09449 0.805573 3.0934 0.483343C4.09231 0.161114 5.25234 0 6.57347 0C8.16851 0 9.61854 0.217505 10.9236 0.652514C12.2286 1.08752 13.4853 1.71587 14.6936 2.53755L13.0261 5.26845C12.2205 4.60788 11.2377 4.0762 10.0777 3.67341C8.9338 3.27063 7.806 3.06118 6.69431 3.04507C5.77596 3.04507 5.07511 3.20618 4.59176 3.52841C4.10842 3.83453 3.86675 4.23731 3.86675 4.73677C3.86675 5.09122 3.98759 5.39734 4.22926 5.65512C4.47093 5.89679 4.80927 6.10624 5.24428 6.28347C5.6954 6.44458 6.26736 6.58959 6.96015 6.71848L8.96603 7.17765C10.6738 7.53211 12.0111 8.12017 12.9778 8.94186C13.9606 9.76354 14.452 10.8672 14.452 12.2528C14.452 13.1711 14.17 14.0331 13.6061 14.8387C13.0422 15.6281 12.2286 16.2645 11.1652 16.7479C10.1019 17.2312 8.85325 17.4729 7.41933 17.4729ZM7.516 14.7903C8.16045 14.7903 8.7163 14.6775 9.18353 14.452C9.66687 14.2264 10.0294 13.9284 10.2711 13.5578C10.5288 13.1872 10.6577 12.7764 10.6577 12.3253C10.6577 11.8258 10.5208 11.3908 10.2469 11.0202C9.9891 10.6336 9.61048 10.3355 9.11103 10.1261C8.62768 9.90049 8.07184 9.78771 7.44349 9.78771C6.84737 9.78771 6.30764 9.89243 5.82429 10.1019C5.34095 10.3113 4.96233 10.6094 4.68843 10.9961C4.41454 11.3666 4.27759 11.8016 4.27759 12.3011C4.27759 12.7683 4.41454 13.1953 4.68843 13.582C4.96233 13.9525 5.34095 14.2506 5.82429 14.4761C6.32375 14.6856 6.88765 14.7903 7.516 14.7903Z" fill="#FFBA72"/>
<path d="M285.119 0.313965H291.523C293.425 0.313965 295.076 0.684528 296.478 1.42566C297.879 2.15067 298.951 3.14958 299.692 4.42239C300.433 5.69519 300.804 7.13717 300.804 8.74831C300.804 10.295 300.433 11.7128 299.692 13.0017C298.951 14.2745 297.879 15.2896 296.478 16.0468C295.076 16.7879 293.425 17.1585 291.523 17.1585H285.119V0.313965ZM287.923 14.1134H291.282C292.458 14.1134 293.473 13.8879 294.327 13.4367C295.197 12.9856 295.857 12.3573 296.309 11.5517C296.776 10.73 297.009 9.79556 297.009 8.74831C297.009 7.70107 296.776 6.77466 296.309 5.96909C295.857 5.1474 295.197 4.511 294.327 4.05988C293.473 3.59265 292.458 3.35903 291.282 3.35903H287.923L288.841 2.46484V15.0318L287.923 14.1134Z" fill="#FFBA72"/>
<path d="M275.615 17.4719C273.924 17.4719 272.409 17.1013 271.072 16.3602C269.735 15.603 268.688 14.5638 267.93 13.2426C267.173 11.9054 266.794 10.407 266.794 8.74755C266.794 7.08807 267.173 5.59776 267.93 4.27662C268.688 2.95548 269.735 1.92435 271.072 1.18322C272.409 0.425982 273.924 0.0473633 275.615 0.0473633C277.291 0.0473633 278.797 0.425982 280.135 1.18322C281.488 1.92435 282.543 2.95548 283.301 4.27662C284.058 5.59776 284.436 7.08807 284.436 8.74755C284.436 10.407 284.058 11.9054 283.301 13.2426C282.543 14.5638 281.488 15.603 280.135 16.3602C278.797 17.1013 277.291 17.4719 275.615 17.4719ZM275.615 14.4027C276.63 14.4027 277.517 14.161 278.274 13.6777C279.031 13.1943 279.611 12.5257 280.014 11.6718C280.417 10.8179 280.618 9.84313 280.618 8.74755C280.618 7.65197 280.417 6.67723 280.014 5.82332C279.611 4.96941 279.031 4.30079 278.274 3.81744C277.517 3.3341 276.63 3.09243 275.615 3.09243C274.6 3.09243 273.714 3.3341 272.957 3.81744C272.2 4.30079 271.612 4.96941 271.193 5.82332C270.79 6.67723 270.589 7.65197 270.589 8.74755C270.589 9.84313 270.79 10.8179 271.193 11.6718C271.612 12.5257 272.2 13.1943 272.957 13.6777C273.714 14.161 274.6 14.4027 275.615 14.4027Z" fill="#FFBA72"/>
<path d="M257.653 17.4719C255.962 17.4719 254.447 17.1013 253.11 16.3602C251.773 15.603 250.725 14.5638 249.968 13.2426C249.211 11.9054 248.832 10.407 248.832 8.74755C248.832 7.08807 249.211 5.59776 249.968 4.27662C250.725 2.95548 251.773 1.92435 253.11 1.18322C254.447 0.425982 255.962 0.0473633 257.653 0.0473633C259.329 0.0473633 260.835 0.425982 262.173 1.18322C263.526 1.92435 264.581 2.95548 265.338 4.27662C266.096 5.59776 266.474 7.08807 266.474 8.74755C266.474 10.407 266.096 11.9054 265.338 13.2426C264.581 14.5638 263.526 15.603 262.173 16.3602C260.835 17.1013 259.329 17.4719 257.653 17.4719ZM257.653 14.4027C258.668 14.4027 259.554 14.161 260.312 13.6777C261.069 13.1943 261.649 12.5257 262.052 11.6718C262.455 10.8179 262.656 9.84313 262.656 8.74755C262.656 7.65197 262.455 6.67723 262.052 5.82332C261.649 4.96941 261.069 4.30079 260.312 3.81744C259.554 3.3341 258.668 3.09243 257.653 3.09243C256.638 3.09243 255.752 3.3341 254.995 3.81744C254.238 4.30079 253.65 4.96941 253.231 5.82332C252.828 6.67723 252.627 7.65197 252.627 8.74755C252.627 9.84313 252.828 10.8179 253.231 11.6718C253.65 12.5257 254.238 13.1943 254.995 13.6777C255.752 14.161 256.638 14.4027 257.653 14.4027Z" fill="#FFBA72"/>
<path d="M237.298 0.313965H241.02V15.0318L240.102 14.1134H250.083V17.1585H237.298V0.313965Z" fill="#FFBA72"/>
<path d="M222.026 0.313965H230.412C231.636 0.313965 232.667 0.442856 233.505 0.700639C234.359 0.942312 235.012 1.35315 235.463 1.93317C235.93 2.49707 236.164 3.22208 236.164 4.10821C236.164 4.84934 236.003 5.46963 235.68 5.96909C235.358 6.45243 234.891 6.81494 234.279 7.05661C233.683 7.29828 232.958 7.44328 232.104 7.49162V9.44916C233.086 9.46527 233.916 9.59416 234.593 9.83584C235.286 10.0775 235.817 10.4481 236.188 10.9475C236.558 11.447 236.744 12.0995 236.744 12.9051C236.744 13.8395 236.486 14.6209 235.97 15.2493C235.471 15.8776 234.77 16.3529 233.868 16.6751C232.966 16.9974 231.918 17.1585 230.726 17.1585H222.026V0.313965ZM230.025 14.2584C230.637 14.2584 231.161 14.1859 231.596 14.0409C232.047 13.8798 232.386 13.6381 232.611 13.3159C232.853 12.9937 232.974 12.5828 232.974 12.0834C232.974 11.6162 232.853 11.2295 232.611 10.9234C232.386 10.6172 232.055 10.3917 231.62 10.2467C231.185 10.1017 230.654 10.0292 230.025 10.0292H225.772V14.2584H230.025ZM229.469 7.27411C230.452 7.27411 231.185 7.113 231.669 6.79077C232.168 6.45243 232.418 5.92075 232.418 5.19574C232.418 4.50294 232.168 4.00349 231.669 3.69737C231.185 3.37514 230.452 3.21403 229.469 3.21403H225.772V7.27411H229.469Z" fill="#FFBA72"/>
<path d="M205.788 0.313965H212.192C214.093 0.313965 215.744 0.684528 217.146 1.42566C218.548 2.15067 219.619 3.14958 220.36 4.42239C221.102 5.69519 221.472 7.13717 221.472 8.74831C221.472 10.295 221.102 11.7128 220.36 13.0017C219.619 14.2745 218.548 15.2896 217.146 16.0468C215.744 16.7879 214.093 17.1585 212.192 17.1585H205.788V0.313965ZM208.591 14.1134H211.95C213.126 14.1134 214.141 13.8879 214.995 13.4367C215.865 12.9856 216.526 12.3573 216.977 11.5517C217.444 10.73 217.678 9.79556 217.678 8.74831C217.678 7.70107 217.444 6.77466 216.977 5.96909C216.526 5.1474 215.865 4.511 214.995 4.05988C214.141 3.59265 213.126 3.35903 211.95 3.35903H208.591L209.509 2.46484V15.0318L208.591 14.1134Z" fill="#FFBA72"/>
<path d="M192.923 0.313965H196.645V15.0318L195.727 14.1134H205.708V17.1585H192.923V0.313965Z" fill="#FFBA72"/>
<path d="M188.13 0.313965H191.852V17.1585H188.13V0.313965Z" fill="#FFBA72"/>
<path d="M165.331 0.313965H169.198C169.698 2.77902 170.028 4.77684 170.189 6.30743C170.366 7.83801 170.406 9.19138 170.31 10.3675C170.213 11.5436 169.971 12.7923 169.585 14.1134L171.663 14.3551C171.905 12.2767 172.187 10.3997 172.509 8.72414C172.831 7.03244 173.403 4.22905 174.225 0.313965H179.131C179.824 3.1818 180.396 5.97714 180.847 8.69998C181.233 10.8267 181.515 12.7117 181.692 14.3551L183.795 14.1134C183.424 12.6151 183.191 11.2456 183.094 10.005C183.014 8.76442 183.054 7.41106 183.215 5.94492C183.376 4.46266 183.69 2.58568 184.158 0.313965H188.024L184.375 17.1585H179.493C178.655 13.5173 178.108 10.7381 177.85 8.82081C177.608 6.88744 177.544 4.87351 177.657 2.77902H175.699C175.828 4.77684 175.763 6.74244 175.506 8.67581C175.264 10.5931 174.716 13.4206 173.862 17.1585H168.981L165.331 0.313965Z" fill="#FFBA72"/>
<path d="M146.87 0.313965H155.256C156.48 0.313965 157.511 0.442856 158.349 0.700639C159.203 0.942312 159.856 1.35315 160.307 1.93317C160.774 2.49707 161.008 3.22208 161.008 4.10821C161.008 4.84934 160.847 5.46963 160.524 5.96909C160.202 6.45243 159.735 6.81494 159.123 7.05661C158.527 7.29828 157.801 7.44328 156.948 7.49162V9.44916C157.93 9.46527 158.76 9.59416 159.437 9.83584C160.13 10.0775 160.661 10.4481 161.032 10.9475C161.402 11.447 161.588 12.0995 161.588 12.9051C161.588 13.8395 161.33 14.6209 160.814 15.2493C160.315 15.8776 159.614 16.3529 158.712 16.6751C157.81 16.9974 156.762 17.1585 155.57 17.1585H146.87V0.313965ZM154.869 14.2584C155.481 14.2584 156.005 14.1859 156.44 14.0409C156.891 13.8798 157.23 13.6381 157.455 13.3159C157.697 12.9937 157.818 12.5828 157.818 12.0834C157.818 11.6162 157.697 11.2295 157.455 10.9234C157.23 10.6172 156.899 10.3917 156.464 10.2467C156.029 10.1017 155.498 10.0292 154.869 10.0292H150.616V14.2584H154.869ZM154.313 7.27411C155.296 7.27411 156.029 7.113 156.513 6.79077C157.012 6.45243 157.262 5.92075 157.262 5.19574C157.262 4.50294 157.012 4.00349 156.513 3.69737C156.029 3.37514 155.296 3.21403 154.313 3.21403H150.616V7.27411H154.313Z" fill="#FFBA72"/>
<path d="M132.732 0.313965H146.048V3.35903H135.535L136.454 2.48901V8.07163L135.535 7.22578H145.299V10.1017H135.535L136.454 9.30416V15.0318L135.535 14.1134H146.338V17.1585H132.732V0.313965Z" fill="#FFBA72"/>
<path d="M125.085 17.4729C123.683 17.4729 122.451 17.2957 121.387 16.9412C120.34 16.5867 119.526 16.0792 118.946 15.4187C118.366 14.742 118.076 13.9686 118.076 13.0986C118.076 12.3092 118.31 11.6486 118.777 11.1169C119.244 10.5852 119.873 10.1824 120.662 9.90855C121.468 9.61854 122.362 9.46548 123.345 9.44937V7.49183C122.233 7.44349 121.258 7.30655 120.421 7.08099C119.583 6.83931 118.914 6.46875 118.415 5.9693C117.915 5.46984 117.666 4.81733 117.666 4.01175C117.666 3.19007 117.931 2.48116 118.463 1.88504C118.995 1.27281 119.76 0.805573 120.759 0.483343C121.758 0.161114 122.918 0 124.239 0C125.834 0 127.284 0.217505 128.589 0.652514C129.894 1.08752 131.151 1.71587 132.359 2.53755L130.692 5.26845C129.886 4.60788 128.903 4.0762 127.743 3.67341C126.599 3.27063 125.472 3.06118 124.36 3.04507C123.441 3.04507 122.741 3.20618 122.257 3.52841C121.774 3.83453 121.532 4.23731 121.532 4.73677C121.532 5.09122 121.653 5.39734 121.895 5.65512C122.136 5.89679 122.475 6.10624 122.91 6.28347C123.361 6.44458 123.933 6.58959 124.626 6.71848L126.632 7.17765C128.339 7.53211 129.677 8.12017 130.643 8.94186C131.626 9.76354 132.118 10.8672 132.118 12.2528C132.118 13.1711 131.836 14.0331 131.272 14.8387C130.708 15.6281 129.894 16.2645 128.831 16.7479C127.767 17.2312 126.519 17.4729 125.085 17.4729ZM125.182 14.7903C125.826 14.7903 126.382 14.6775 126.849 14.452C127.332 14.2264 127.695 13.9284 127.937 13.5578C128.194 13.1872 128.323 12.7764 128.323 12.3253C128.323 11.8258 128.186 11.3908 127.912 11.0202C127.655 10.6336 127.276 10.3355 126.777 10.1261C126.293 9.90049 125.737 9.78771 125.109 9.78771C124.513 9.78771 123.973 9.89243 123.49 10.1019C123.006 10.3113 122.628 10.6094 122.354 10.9961C122.08 11.3666 121.943 11.8016 121.943 12.3011C121.943 12.7683 122.08 13.1953 122.354 13.582C122.628 13.9525 123.006 14.2506 123.49 14.4761C123.989 14.6856 124.553 14.7903 125.182 14.7903Z" fill="#FFBA72"/>
<path d="M478.08 0.337891H481.44L490.889 11.9865L492.653 10.7781C492.057 10.1175 491.566 9.51336 491.179 8.96558C490.792 8.41779 490.478 7.82972 490.236 7.20137C489.995 6.55691 489.874 5.88829 489.874 5.19549V0.337891H493.62V17.1824H490.526L480.98 5.46133L479.168 6.64553C479.845 7.28998 480.376 7.92639 480.763 8.55473C481.456 9.66642 481.802 10.8828 481.802 12.204V17.1824H478.08V0.337891Z" fill="#FFBA72"/>
<path d="M474.001 17.1824L472.189 12.5665L473.324 13.364H464.358L465.494 12.5665L463.658 17.1824H459.694L466.872 0.337891H470.787L477.989 17.1824H474.001ZM467.863 3.14128C467.879 3.76963 467.871 4.3577 467.838 4.90549C467.806 5.43717 467.734 5.96884 467.621 6.50052C467.524 7.01609 467.387 7.54777 467.21 8.09556C467.001 8.69168 466.55 9.69865 465.857 11.1165L465.325 10.5606H472.334L471.802 11.1165C471.464 10.4237 471.149 9.71476 470.859 8.98974C470.44 7.97472 470.167 7.0322 470.038 6.16218C469.909 5.27605 469.86 4.26909 469.893 3.14128H467.863Z" fill="#FFBA72"/>
<path d="M441.708 0.337891H446.928C447.379 1.41736 447.782 2.41627 448.136 3.33462C448.49 4.23686 448.764 5.05049 448.958 5.77551C449.199 6.59719 449.377 7.37054 449.489 8.09556C449.602 8.80446 449.659 9.52948 449.659 10.2706H451.616C451.616 9.44892 451.689 8.62723 451.834 7.80555C451.979 6.96775 452.204 6.08162 452.51 5.14716C452.816 4.2127 453.243 3.06878 453.791 1.71542C453.872 1.48986 454.057 1.03068 454.347 0.337891H459.591V17.1824H455.869C455.869 15.7002 455.894 14.226 455.942 12.7598C456.006 11.3903 456.111 10.2787 456.256 9.42475C456.417 8.55473 456.627 7.77333 456.885 7.08054C457.142 6.38774 457.505 5.57411 457.972 4.63965L456.039 3.9388L452.051 14.1857H449.199L445.236 3.9388L443.327 4.71215C443.794 5.64662 444.156 6.45219 444.414 7.12887C444.672 7.80555 444.873 8.56279 445.018 9.40058C445.18 10.2223 445.292 11.2937 445.357 12.6148C445.405 14.1293 445.429 15.6518 445.429 17.1824H441.708V0.337891Z" fill="#FFBA72"/>
<path d="M425.445 0.337891H431.849C433.751 0.337891 435.402 0.708454 436.804 1.44958C438.205 2.1746 439.277 3.17351 440.018 4.44631C440.759 5.71912 441.13 7.16109 441.13 8.77224C441.13 10.3189 440.759 11.7367 440.018 13.0257C439.277 14.2985 438.205 15.3135 436.804 16.0707C435.402 16.8119 433.751 17.1824 431.849 17.1824H425.445V0.337891ZM428.248 14.1374H431.608C432.784 14.1374 433.799 13.9118 434.653 13.4607C435.523 13.0096 436.183 12.3812 436.634 11.5756C437.102 10.7539 437.335 9.81948 437.335 8.77224C437.335 7.72499 437.102 6.79858 436.634 5.99301C436.183 5.17133 435.523 4.53493 434.653 4.0838C433.799 3.61657 432.784 3.38296 431.608 3.38296H428.248L429.167 2.48877V15.0557L428.248 14.1374Z" fill="#FFBA72"/>
<path d="M415.942 17.4963C414.25 17.4963 412.735 17.1258 411.398 16.3846C410.061 15.6274 409.014 14.5882 408.256 13.2671C407.499 11.9298 407.121 10.4314 407.121 8.77196C407.121 7.11248 407.499 5.62217 408.256 4.30103C409.014 2.9799 410.061 1.94876 411.398 1.20763C412.735 0.450396 414.25 0.0717773 415.942 0.0717773C417.617 0.0717773 419.124 0.450396 420.461 1.20763C421.814 1.94876 422.87 2.9799 423.627 4.30103C424.384 5.62217 424.763 7.11248 424.763 8.77196C424.763 10.4314 424.384 11.9298 423.627 13.2671C422.87 14.5882 421.814 15.6274 420.461 16.3846C419.124 17.1258 417.617 17.4963 415.942 17.4963ZM415.942 14.4271C416.957 14.4271 417.843 14.1854 418.6 13.7021C419.357 13.2187 419.937 12.5501 420.34 11.6962C420.743 10.8423 420.944 9.86754 420.944 8.77196C420.944 7.67638 420.743 6.70164 420.34 5.84773C419.937 4.99383 419.357 4.3252 418.6 3.84186C417.843 3.35851 416.957 3.11684 415.942 3.11684C414.927 3.11684 414.04 3.35851 413.283 3.84186C412.526 4.3252 411.938 4.99383 411.519 5.84773C411.116 6.70164 410.915 7.67638 410.915 8.77196C410.915 9.86754 411.116 10.8423 411.519 11.6962C411.938 12.5501 412.526 13.2187 413.283 13.7021C414.04 14.1854 414.927 14.4271 415.942 14.4271Z" fill="#FFBA72"/>
<path d="M397.979 17.4963C396.288 17.4963 394.773 17.1258 393.436 16.3846C392.099 15.6274 391.051 14.5882 390.294 13.2671C389.537 11.9298 389.158 10.4314 389.158 8.77196C389.158 7.11248 389.537 5.62217 390.294 4.30103C391.051 2.9799 392.099 1.94876 393.436 1.20763C394.773 0.450396 396.288 0.0717773 397.979 0.0717773C399.655 0.0717773 401.161 0.450396 402.498 1.20763C403.852 1.94876 404.907 2.9799 405.664 4.30103C406.422 5.62217 406.8 7.11248 406.8 8.77196C406.8 10.4314 406.422 11.9298 405.664 13.2671C404.907 14.5882 403.852 15.6274 402.498 16.3846C401.161 17.1258 399.655 17.4963 397.979 17.4963ZM397.979 14.4271C398.994 14.4271 399.88 14.1854 400.638 13.7021C401.395 13.2187 401.975 12.5501 402.378 11.6962C402.78 10.8423 402.982 9.86754 402.982 8.77196C402.982 7.67638 402.78 6.70164 402.378 5.84773C401.975 4.99383 401.395 4.3252 400.638 3.84186C399.88 3.35851 398.994 3.11684 397.979 3.11684C396.964 3.11684 396.078 3.35851 395.321 3.84186C394.564 4.3252 393.976 4.99383 393.557 5.84773C393.154 6.70164 392.952 7.67638 392.952 8.77196C392.952 9.86754 393.154 10.8423 393.557 11.6962C393.976 12.5501 394.564 13.2187 395.321 13.7021C396.078 14.1854 396.964 14.4271 397.979 14.4271Z" fill="#FFBA72"/>
<path d="M380.057 17.497C378.687 17.497 377.43 17.1265 376.286 16.3854C375.143 15.6442 374.24 14.6131 373.58 13.292C372.919 11.9547 372.589 10.4402 372.589 8.74852C372.589 7.05682 372.959 5.5504 373.701 4.22926C374.442 2.89201 375.473 1.85282 376.794 1.11169C378.115 0.370564 379.622 0 381.313 0C382.715 0 384.028 0.265839 385.252 0.797517C386.477 1.32919 387.524 2.0381 388.394 2.92423L386.292 5.34095C385.615 4.66427 384.898 4.13259 384.141 3.74591C383.384 3.35924 382.497 3.1659 381.482 3.1659C380.435 3.1659 379.517 3.41563 378.727 3.91508C377.954 4.39843 377.358 5.06705 376.939 5.92096C376.52 6.77487 376.311 7.71739 376.311 8.74852C376.311 9.8441 376.52 10.8269 376.939 11.6969C377.358 12.5508 377.962 13.2195 378.751 13.7028C379.541 14.1861 380.475 14.4278 381.555 14.4278C382.393 14.4278 383.142 14.2425 383.802 13.872C384.463 13.4853 384.971 12.9133 385.325 12.1561C385.679 11.3989 385.808 10.4724 385.712 9.37687L386.654 10.3919H380.854V7.7335H388.684V17.1829H385.542C385.8 16.5706 386.066 16.0067 386.34 15.4912C386.646 14.8628 386.984 14.2748 387.355 13.727L385.349 12.8569C385.204 13.5981 384.93 14.3231 384.527 15.032C384.125 15.7248 383.553 16.3129 382.812 16.7962C382.07 17.2634 381.152 17.497 380.057 17.497Z" fill="#FFBA72"/>
<path d="M358.299 10.8264L351.991 0.337891H356.099C356.921 1.67514 357.541 2.811 357.96 3.74546C358.395 4.66382 358.693 5.54995 358.854 6.40385C359.032 7.24165 359.12 8.22445 359.12 9.35225H361.247C361.247 8.22445 361.328 7.23359 361.489 6.37969C361.666 5.52578 361.964 4.63965 362.383 3.7213C362.802 2.80294 363.422 1.67514 364.244 0.337891H368.376L362.045 10.8264V17.1824H358.299V10.8264Z" fill="#FFBA72"/>
<path d="M337.238 0.337891H340.959V3.35879C340.959 3.87436 340.895 4.34964 340.766 4.78465C340.637 5.21966 340.395 5.71106 340.041 6.25885C339.703 6.79053 339.203 7.47526 338.543 8.31306L340.138 9.44892L348.209 0.337891H352.729L345.358 8.19223L345.454 6.86303L352.946 17.1824H348.475L343.014 9.49725L344.053 9.59392L340.234 13.6782L340.959 12.0106V17.1824H337.238V0.337891Z" fill="#FFBA72"/>
<path d="M329.591 17.4968C328.189 17.4968 326.956 17.3196 325.893 16.9651C324.846 16.6107 324.032 16.1032 323.452 15.4426C322.872 14.7659 322.582 13.9926 322.582 13.1225C322.582 12.3331 322.816 11.6725 323.283 11.1408C323.75 10.6092 324.379 10.2064 325.168 9.93247C325.974 9.64247 326.868 9.48941 327.851 9.4733V7.51575C326.739 7.46742 325.764 7.33047 324.926 7.10491C324.089 6.86324 323.42 6.49268 322.921 5.99322C322.421 5.49377 322.171 4.84125 322.171 4.03568C322.171 3.21399 322.437 2.50509 322.969 1.90897C323.501 1.29673 324.266 0.829499 325.265 0.507269C326.264 0.18504 327.424 0.0239258 328.745 0.0239258C330.34 0.0239258 331.79 0.241431 333.095 0.67644C334.4 1.11145 335.657 1.7398 336.865 2.56148L335.198 5.29237C334.392 4.6318 333.409 4.10012 332.249 3.69734C331.105 3.29455 329.977 3.0851 328.866 3.06899C327.947 3.06899 327.246 3.23011 326.763 3.55234C326.28 3.85845 326.038 4.26124 326.038 4.7607C326.038 5.11515 326.159 5.42126 326.401 5.67905C326.642 5.92072 326.981 6.13017 327.416 6.30739C327.867 6.46851 328.439 6.61351 329.132 6.7424L331.137 7.20158C332.845 7.55603 334.182 8.1441 335.149 8.96578C336.132 9.78747 336.623 10.8911 336.623 12.2767C336.623 13.195 336.341 14.057 335.778 14.8626C335.214 15.652 334.4 16.2884 333.337 16.7718C332.273 17.2551 331.025 17.4968 329.591 17.4968ZM329.687 14.8142C330.332 14.8142 330.888 14.7015 331.355 14.4759C331.838 14.2503 332.201 13.9523 332.442 13.5817C332.7 13.2112 332.829 12.8003 332.829 12.3492C332.829 11.8497 332.692 11.4147 332.418 11.0442C332.16 10.6575 331.782 10.3594 331.282 10.15C330.799 9.92442 330.243 9.81164 329.615 9.81164C329.019 9.81164 328.479 9.91636 327.996 10.1258C327.512 10.3353 327.134 10.6333 326.86 11.02C326.586 11.3906 326.449 11.8256 326.449 12.325C326.449 12.7923 326.586 13.2192 326.86 13.6059C327.134 13.9764 327.512 14.2745 327.996 14.5001C328.495 14.7095 329.059 14.8142 329.687 14.8142Z" fill="#FFBA72"/>
<path d="M626.051 0.337891H633.591C635.025 0.337891 636.249 0.563451 637.264 1.01457C638.295 1.44958 639.077 2.09404 639.609 2.94795C640.156 3.80185 640.43 4.82493 640.43 6.01718C640.43 7.83777 639.826 9.27169 638.618 10.3189C637.409 11.3662 635.734 11.8898 633.591 11.8898H628.854L629.773 11.044V17.1824H626.051V0.337891ZM628.854 8.98974H633.132C634.292 8.98974 635.178 8.74807 635.79 8.26473C636.402 7.76527 636.709 7.04831 636.709 6.11385C636.709 5.22772 636.402 4.55104 635.79 4.0838C635.178 3.61657 634.284 3.38296 633.108 3.38296H628.854L629.773 2.5371V9.81143L628.854 8.98974Z" fill="#FFBA72"/>
<path d="M621.972 17.1824L620.16 12.5665L621.296 13.364H612.33L613.465 12.5665L611.629 17.1824H607.665L614.843 0.337891H618.758L625.96 17.1824H621.972ZM615.834 3.14128C615.85 3.76963 615.842 4.3577 615.81 4.90549C615.777 5.43717 615.705 5.96884 615.592 6.50052C615.495 7.01609 615.359 7.54777 615.181 8.09556C614.972 8.69168 614.521 9.69865 613.828 11.1165L613.296 10.5606H620.305L619.773 11.1165C619.435 10.4237 619.121 9.71476 618.831 8.98974C618.412 7.97472 618.138 7.0322 618.009 6.16218C617.88 5.27605 617.832 4.26909 617.864 3.14128H615.834Z" fill="#FFBA72"/>
<path d="M595.768 0.337891H599.489V15.0557L598.571 14.1374H608.552V17.1824H595.768V0.337891Z" fill="#FFBA72"/>
<path d="M588.809 17.5212C587.149 17.5212 585.659 17.1587 584.338 16.4337C583.033 15.6926 582.01 14.6614 581.268 13.3403C580.527 12.003 580.157 10.4724 580.157 8.74852C580.157 7.0246 580.527 5.50206 581.268 4.18092C582.026 2.85978 583.073 1.83671 584.41 1.11169C585.764 0.370564 587.294 0 589.002 0C590.339 0 591.523 0.217505 592.555 0.652514C593.586 1.08752 594.536 1.70781 595.406 2.51339L593.521 5.00261C592.925 4.42259 592.281 3.97953 591.588 3.67341C590.895 3.35118 590.114 3.19007 589.244 3.19007C588.212 3.19007 587.286 3.43174 586.464 3.91508C585.659 4.38232 585.03 5.04289 584.579 5.89679C584.128 6.7507 583.903 7.72544 583.903 8.82102C583.903 9.9166 584.128 10.8752 584.579 11.6969C585.047 12.5186 585.683 13.155 586.489 13.6061C587.31 14.0411 588.237 14.2586 589.268 14.2586C590.154 14.2586 590.943 14.0814 591.636 13.727C592.345 13.3725 592.998 12.8731 593.594 12.2286L595.527 14.7903C594.625 15.6764 593.642 16.3531 592.579 16.8204C591.531 17.2876 590.275 17.5212 588.809 17.5212Z" fill="#FFBA72"/>
<path d="M563.169 0.337891H566.891V15.0557L565.973 14.1374H575.954V17.1824H563.169V0.337891Z" fill="#FFBA72"/>
<path d="M554.772 17.5208C553.258 17.5208 551.936 17.2549 550.809 16.7232C549.681 16.1755 548.811 15.3618 548.199 14.2824C547.603 13.2029 547.304 11.8817 547.304 10.3189V0.337891H551.026V10.2223C551.026 11.1245 551.171 11.8898 551.461 12.5182C551.767 13.1304 552.194 13.5976 552.742 13.9198C553.306 14.226 553.983 14.379 554.772 14.379C555.948 14.379 556.859 14.0246 557.503 13.3157C558.164 12.5907 558.494 11.5595 558.494 10.2223V0.337891H562.216V10.3189C562.216 12.6712 561.547 14.4596 560.21 15.6841C558.889 16.9085 557.076 17.5208 554.772 17.5208Z" fill="#FFBA72"/>
<path d="M537.922 17.4963C536.23 17.4963 534.716 17.1258 533.379 16.3846C532.041 15.6274 530.994 14.5882 530.237 13.2671C529.48 11.9298 529.101 10.4314 529.101 8.77196C529.101 7.11248 529.48 5.62217 530.237 4.30103C530.994 2.9799 532.041 1.94876 533.379 1.20763C534.716 0.450396 536.23 0.0717773 537.922 0.0717773C539.598 0.0717773 541.104 0.450396 542.441 1.20763C543.795 1.94876 544.85 2.9799 545.607 4.30103C546.364 5.62217 546.743 7.11248 546.743 8.77196C546.743 10.4314 546.364 11.9298 545.607 13.2671C544.85 14.5882 543.795 15.6274 542.441 16.3846C541.104 17.1258 539.598 17.4963 537.922 17.4963ZM537.922 14.4271C538.937 14.4271 539.823 14.1854 540.58 13.7021C541.338 13.2187 541.918 12.5501 542.321 11.6962C542.723 10.8423 542.925 9.86754 542.925 8.77196C542.925 7.67638 542.723 6.70164 542.321 5.84773C541.918 4.99383 541.338 4.3252 540.58 3.84186C539.823 3.35851 538.937 3.11684 537.922 3.11684C536.907 3.11684 536.021 3.35851 535.264 3.84186C534.506 4.3252 533.918 4.99383 533.5 5.84773C533.097 6.70164 532.895 7.67638 532.895 8.77196C532.895 9.86754 533.097 10.8423 533.5 11.6962C533.918 12.5501 534.506 13.2187 535.264 13.7021C536.021 14.1854 536.907 14.4271 537.922 14.4271Z" fill="#FFBA72"/>
<path d="M522.407 17.4968C521.005 17.4968 519.772 17.3196 518.709 16.9651C517.662 16.6107 516.848 16.1032 516.268 15.4426C515.688 14.7659 515.398 13.9926 515.398 13.1225C515.398 12.3331 515.632 11.6725 516.099 11.1408C516.566 10.6092 517.195 10.2064 517.984 9.93247C518.79 9.64247 519.684 9.48941 520.667 9.4733V7.51575C519.555 7.46742 518.58 7.33047 517.742 7.10491C516.905 6.86324 516.236 6.49268 515.736 5.99322C515.237 5.49377 514.987 4.84125 514.987 4.03568C514.987 3.21399 515.253 2.50509 515.785 1.90897C516.316 1.29673 517.082 0.829499 518.081 0.507269C519.08 0.18504 520.24 0.0239258 521.561 0.0239258C523.156 0.0239258 524.606 0.241431 525.911 0.67644C527.216 1.11145 528.473 1.7398 529.681 2.56148L528.013 5.29237C527.208 4.6318 526.225 4.10012 525.065 3.69734C523.921 3.29455 522.793 3.0851 521.682 3.06899C520.763 3.06899 520.062 3.23011 519.579 3.55234C519.096 3.85845 518.854 4.26124 518.854 4.7607C518.854 5.11515 518.975 5.42126 519.217 5.67905C519.458 5.92072 519.797 6.13017 520.232 6.30739C520.683 6.46851 521.255 6.61351 521.947 6.7424L523.953 7.20158C525.661 7.55603 526.998 8.1441 527.965 8.96578C528.948 9.78747 529.439 10.8911 529.439 12.2767C529.439 13.195 529.157 14.057 528.593 14.8626C528.03 15.652 527.216 16.2884 526.153 16.7718C525.089 17.2551 523.841 17.4968 522.407 17.4968ZM522.503 14.8142C523.148 14.8142 523.704 14.7015 524.171 14.4759C524.654 14.2503 525.017 13.9523 525.258 13.5817C525.516 13.2112 525.645 12.8003 525.645 12.3492C525.645 11.8497 525.508 11.4147 525.234 11.0442C524.976 10.6575 524.598 10.3594 524.098 10.15C523.615 9.92442 523.059 9.81164 522.431 9.81164C521.835 9.81164 521.295 9.91636 520.812 10.1258C520.328 10.3353 519.95 10.6333 519.676 11.02C519.402 11.3906 519.265 11.8256 519.265 12.325C519.265 12.7923 519.402 13.2192 519.676 13.6059C519.95 13.9764 520.328 14.2745 520.812 14.5001C521.311 14.7095 521.875 14.8142 522.503 14.8142Z" fill="#FFBA72"/>
</svg>
