<svg width="641" height="18" viewBox="0 0 641 18" fill="none" xmlns="http://www.w3.org/2000/svg">
<path d="M126.422 0.314941H129.781L139.23 11.9635L140.995 10.7552C140.399 10.0946 139.907 9.49042 139.52 8.94263C139.134 8.39484 138.82 7.80677 138.578 7.17842C138.336 6.53396 138.215 5.86534 138.215 5.17255V0.314941H141.961V17.1595H138.868L129.322 5.43838L127.509 6.62258C128.186 7.26703 128.718 7.90344 129.104 8.53178C129.797 9.64347 130.144 10.8599 130.144 12.181V17.1595H126.422V0.314941Z" fill="#FFBA72"/>
<path d="M116.255 10.8035L109.948 0.314941H114.056C114.878 1.65219 115.498 2.78805 115.917 3.72251C116.352 4.64087 116.65 5.527 116.811 6.3809C116.988 7.2187 117.077 8.2015 117.077 9.3293H119.204C119.204 8.2015 119.284 7.21064 119.445 6.35674C119.622 5.50283 119.921 4.6167 120.339 3.69835C120.758 2.77999 121.379 1.65219 122.2 0.314941H126.333L120.001 10.8035V17.1595H116.255V10.8035Z" fill="#FFBA72"/>
<path d="M97.0823 0.314941H104.912C107.055 0.314941 108.658 0.693561 109.722 1.4508C110.785 2.19193 111.317 3.31167 111.317 4.81004C111.317 5.72839 111.075 6.49368 110.592 7.10592C110.108 7.71816 109.456 8.18539 108.634 8.50762C107.813 8.82985 106.886 9.02318 105.855 9.08763V11.021C106.596 11.0532 107.232 11.2143 107.764 11.5043C108.312 11.7782 108.819 12.2294 109.287 12.8577L109.359 12.9544L112.453 17.1595H108.078L105.42 13.3652C105.356 13.2686 105.291 13.1719 105.227 13.0752C104.759 12.4146 104.381 11.9474 104.091 11.6735C103.817 11.3996 103.511 11.2143 103.172 11.1177C102.834 11.0049 102.343 10.9485 101.698 10.9485H99.8857L100.804 10.0543V17.1595H97.0823V0.314941ZM99.8857 8.58012H104.236C104.977 8.58012 105.589 8.48345 106.072 8.29011C106.572 8.08066 106.942 7.77454 107.184 7.37176C107.442 6.96897 107.571 6.46146 107.571 5.84923C107.571 4.9631 107.297 4.30253 106.749 3.86752C106.201 3.43251 105.364 3.215 104.236 3.215H99.8857L100.804 2.27248V9.45014L99.8857 8.58012Z" fill="#FFBA72"/>
<path d="M88.6857 17.4978C87.1712 17.4978 85.8501 17.232 84.7223 16.7003C83.5945 16.1525 82.7244 15.3389 82.1122 14.2594C81.5161 13.1799 81.218 11.8588 81.218 10.296V0.314941H84.9398V10.1993C84.9398 11.1016 85.0848 11.8669 85.3748 12.4952C85.6809 13.1074 86.1078 13.5747 86.6556 13.8969C87.2195 14.203 87.8962 14.3561 88.6857 14.3561C89.8618 14.3561 90.7721 14.0016 91.4166 13.2927C92.0771 12.5677 92.4074 11.5366 92.4074 10.1993V0.314941H96.1292V10.296C96.1292 12.6483 95.4606 14.4366 94.1233 15.6611C92.8022 16.8856 90.9896 17.4978 88.6857 17.4978Z" fill="#FFBA72"/>
<path d="M78.2039 17.1595L76.3914 12.5435L77.5273 13.3411H68.5612L69.6971 12.5435L67.8604 17.1595H63.897L71.0746 0.314941H74.9897L82.1915 17.1595H78.2039ZM72.0655 3.11833C72.0816 3.74668 72.0735 4.33475 72.0413 4.88254C72.0091 5.41422 71.9366 5.9459 71.8238 6.47757C71.7271 6.99314 71.5902 7.52482 71.413 8.07261C71.2035 8.66873 70.7524 9.6757 70.0596 11.0935L69.5279 10.5377H76.5364L76.0047 11.0935C75.6664 10.4007 75.3522 9.69181 75.0622 8.96679C74.6433 7.95177 74.3694 7.00925 74.2405 6.13923C74.1116 5.2531 74.0633 4.24614 74.0955 3.11833H72.0655Z" fill="#FFBA72"/>
<path d="M51.9993 0.314941H55.721V15.0328L54.8027 14.1144H64.7837V17.1595H51.9993V0.314941Z" fill="#FFBA72"/>
<path d="M42.717 0.314941H46.4629V17.1595H42.717V0.314941ZM31.7693 0.314941H35.491V17.1595H31.7693V0.314941ZM35.1769 7.10592H43.0554V10.151H35.1769V7.10592Z" fill="#FFBA72"/>
<path d="M24.1229 17.4729C22.7212 17.4729 21.4887 17.2957 20.4254 16.9412C19.3781 16.5867 18.5645 16.0792 17.9845 15.4187C17.4045 14.742 17.1145 13.9686 17.1145 13.0986C17.1145 12.3092 17.3481 11.6486 17.8153 11.1169C18.2825 10.5852 18.9109 10.1824 19.7003 9.90855C20.5059 9.61854 21.4001 9.46548 22.3829 9.44937V7.49183C21.2712 7.44349 20.2965 7.30655 19.4587 7.08099C18.6209 6.83931 17.9523 6.46875 17.4528 5.9693C16.9533 5.46984 16.7036 4.81733 16.7036 4.01175C16.7036 3.19007 16.9695 2.48116 17.5011 1.88504C18.0328 1.27281 18.7981 0.805573 19.797 0.483343C20.7959 0.161114 21.9559 0 23.2771 0C24.8721 0 26.3222 0.217505 27.6272 0.652514C28.9322 1.08752 30.1889 1.71587 31.3973 2.53755L29.7297 5.26845C28.9242 4.60788 27.9414 4.0762 26.7813 3.67341C25.6374 3.27063 24.5096 3.06118 23.3979 3.04507C22.4796 3.04507 21.7787 3.20618 21.2954 3.52841C20.812 3.83453 20.5704 4.23731 20.5704 4.73677C20.5704 5.09122 20.6912 5.39734 20.9329 5.65512C21.1745 5.89679 21.5129 6.10624 21.9479 6.28347C22.399 6.44458 22.971 6.58959 23.6638 6.71848L25.6696 7.17765C27.3775 7.53211 28.7147 8.12017 29.6814 8.94186C30.6642 9.76354 31.1556 10.8672 31.1556 12.2528C31.1556 13.1711 30.8736 14.0331 30.3097 14.8387C29.7458 15.6281 28.9322 16.2645 27.8689 16.7479C26.8055 17.2312 25.5569 17.4729 24.1229 17.4729ZM24.2196 14.7903C24.8641 14.7903 25.4199 14.6775 25.8871 14.452C26.3705 14.2264 26.733 13.9284 26.9747 13.5578C27.2325 13.1872 27.3613 12.7764 27.3613 12.3253C27.3613 11.8258 27.2244 11.3908 26.9505 11.0202C26.6927 10.6336 26.3141 10.3355 25.8146 10.1261C25.3313 9.90049 24.7755 9.78771 24.1471 9.78771C23.551 9.78771 23.0112 9.89243 22.5279 10.1019C22.0446 10.3113 21.6659 10.6094 21.392 10.9961C21.1182 11.3666 20.9812 11.8016 20.9812 12.3011C20.9812 12.7683 21.1182 13.1953 21.392 13.582C21.6659 13.9525 22.0446 14.2506 22.5279 14.4761C23.0274 14.6856 23.5913 14.7903 24.2196 14.7903Z" fill="#FFBA72"/>
<path d="M14.307 17.1595L12.4944 12.5435L13.6303 13.3411H4.66427L5.80012 12.5435L3.96342 17.1595H0L7.17765 0.314941H11.0927L18.2946 17.1595H14.307ZM8.16851 3.11833C8.18462 3.74668 8.17657 4.33475 8.14434 4.88254C8.11212 5.41422 8.03962 5.9459 7.92684 6.47757C7.83017 6.99314 7.69322 7.52482 7.51599 8.07261C7.30655 8.66873 6.85543 9.6757 6.16263 11.0935L5.63095 10.5377H12.6394L12.1078 11.0935C11.7694 10.4007 11.4552 9.69181 11.1652 8.96679C10.7463 7.95177 10.4724 7.00925 10.3436 6.13923C10.2147 5.2531 10.1663 4.24614 10.1986 3.11833H8.16851Z" fill="#FFBA72"/>
<path d="M249.965 0.314941H258.351C259.576 0.314941 260.607 0.443833 261.445 0.701616C262.298 0.943288 262.951 1.35413 263.402 1.93414C263.869 2.49804 264.103 3.22306 264.103 4.10919C264.103 4.85032 263.942 5.47061 263.62 5.97006C263.297 6.45341 262.83 6.81591 262.218 7.05759C261.622 7.29926 260.897 7.44426 260.043 7.49259V9.45014C261.026 9.46625 261.855 9.59514 262.532 9.83681C263.225 10.0785 263.756 10.449 264.127 10.9485C264.498 11.448 264.683 12.1005 264.683 12.906C264.683 13.8405 264.425 14.6219 263.91 15.2503C263.41 15.8786 262.709 16.3539 261.807 16.6761C260.905 16.9984 259.858 17.1595 258.665 17.1595H249.965V0.314941ZM257.964 14.2594C258.577 14.2594 259.1 14.1869 259.535 14.0419C259.986 13.8808 260.325 13.6391 260.55 13.3169C260.792 12.9947 260.913 12.5838 260.913 12.0844C260.913 11.6171 260.792 11.2305 260.55 10.9243C260.325 10.6182 259.994 10.3927 259.559 10.2477C259.124 10.1027 258.593 10.0301 257.964 10.0301H253.711V14.2594H257.964ZM257.409 7.27509C258.391 7.27509 259.124 7.11398 259.608 6.79175C260.107 6.45341 260.357 5.92173 260.357 5.19671C260.357 4.50392 260.107 4.00446 259.608 3.69835C259.124 3.37612 258.391 3.215 257.409 3.215H253.711V7.27509H257.409Z" fill="#FFBA72"/>
<path d="M240.71 0.314941H244.432V17.1595H240.71V0.314941Z" fill="#FFBA72"/>
<path d="M233.5 17.4978C232.147 17.4978 230.971 17.2078 229.972 16.6278C228.973 16.0478 228.191 15.1939 227.627 14.0661L229.899 11.7702C230.238 12.5758 230.681 13.188 231.228 13.6069C231.776 14.0258 232.404 14.2352 233.113 14.2352C234 14.2352 234.708 13.9936 235.24 13.5102C235.772 13.0108 236.038 12.2616 236.038 11.2627V0.314941H239.784V11.6977C239.784 12.9383 239.51 14.0016 238.962 14.8878C238.414 15.7578 237.665 16.4103 236.714 16.8453C235.764 17.2803 234.692 17.4978 233.5 17.4978Z" fill="#FFBA72"/>
<path d="M212.291 0.314941H215.65L225.099 11.9635L226.864 10.7552C226.267 10.0946 225.776 9.49042 225.389 8.94263C225.003 8.39484 224.689 7.80677 224.447 7.17842C224.205 6.53396 224.084 5.86534 224.084 5.17255V0.314941H227.83V17.1595H224.737L215.191 5.43838L213.378 6.62258C214.055 7.26703 214.587 7.90344 214.973 8.53178C215.666 9.64347 216.013 10.8599 216.013 12.181V17.1595H212.291V0.314941Z" fill="#FFBA72"/>
<path d="M198.129 0.314941H211.445V3.36001H200.932L201.85 2.48999V8.07261L200.932 7.22676H210.696V10.1026H200.932L201.85 9.30513V15.0328L200.932 14.1144H211.735V17.1595H198.129V0.314941Z" fill="#FFBA72"/>
<path d="M182.856 0.314941H191.242C192.467 0.314941 193.498 0.443833 194.336 0.701616C195.19 0.943288 195.842 1.35413 196.293 1.93414C196.76 2.49804 196.994 3.22306 196.994 4.10919C196.994 4.85032 196.833 5.47061 196.511 5.97006C196.188 6.45341 195.721 6.81591 195.109 7.05759C194.513 7.29926 193.788 7.44426 192.934 7.49259V9.45014C193.917 9.46625 194.746 9.59514 195.423 9.83681C196.116 10.0785 196.648 10.449 197.018 10.9485C197.389 11.448 197.574 12.1005 197.574 12.906C197.574 13.8405 197.316 14.6219 196.801 15.2503C196.301 15.8786 195.6 16.3539 194.698 16.6761C193.796 16.9984 192.749 17.1595 191.556 17.1595H182.856V0.314941ZM190.856 14.2594C191.468 14.2594 191.991 14.1869 192.426 14.0419C192.878 13.8808 193.216 13.6391 193.441 13.3169C193.683 12.9947 193.804 12.5838 193.804 12.0844C193.804 11.6171 193.683 11.2305 193.441 10.9243C193.216 10.6182 192.886 10.3927 192.451 10.2477C192.016 10.1027 191.484 10.0301 190.856 10.0301H186.602V14.2594H190.856ZM190.3 7.27509C191.282 7.27509 192.016 7.11398 192.499 6.79175C192.998 6.45341 193.248 5.92173 193.248 5.19671C193.248 4.50392 192.998 4.00446 192.499 3.69835C192.016 3.37612 191.282 3.215 190.3 3.215H186.602V7.27509H190.3Z" fill="#FFBA72"/>
<path d="M433.466 0.65332H446.782V3.69839H436.27L437.188 2.82837V8.41099L436.27 7.56513H446.033V10.441H436.27L437.188 9.64351V15.3711L436.27 14.4528H447.072V17.4978H433.466V0.65332Z" fill="#FFBA72"/>
<path d="M418.195 0.65332H426.581C427.805 0.65332 428.836 0.782212 429.674 1.03999C430.528 1.28167 431.18 1.69251 431.632 2.27252C432.099 2.83642 432.332 3.56144 432.332 4.44757C432.332 5.1887 432.171 5.80899 431.849 6.30844C431.527 6.79178 431.06 7.15429 430.447 7.39597C429.851 7.63764 429.126 7.78264 428.272 7.83097V9.78852C429.255 9.80463 430.085 9.93352 430.762 10.1752C431.454 10.4169 431.986 10.7874 432.357 11.2869C432.727 11.7863 432.912 12.4388 432.912 13.2444C432.912 14.1789 432.655 14.9603 432.139 15.5886C431.64 16.217 430.939 16.6923 430.037 17.0145C429.134 17.3367 428.087 17.4978 426.895 17.4978H418.195V0.65332ZM426.194 14.5978C426.806 14.5978 427.33 14.5253 427.765 14.3803C428.216 14.2192 428.554 13.9775 428.78 13.6553C429.021 13.333 429.142 12.9222 429.142 12.4227C429.142 11.9555 429.021 11.5688 428.78 11.2627C428.554 10.9566 428.224 10.731 427.789 10.586C427.354 10.441 426.822 10.3685 426.194 10.3685H421.94V14.5978H426.194ZM425.638 7.61347C426.621 7.61347 427.354 7.45235 427.837 7.13013C428.337 6.79178 428.586 6.26011 428.586 5.53509C428.586 4.8423 428.337 4.34284 427.837 4.03673C427.354 3.7145 426.621 3.55338 425.638 3.55338H421.94V7.61347H425.638Z" fill="#FFBA72"/>
<path d="M414.139 17.4978L412.327 12.8819L413.463 13.6794H404.497L405.633 12.8819L403.796 17.4978H399.833L407.01 0.65332H410.925L418.127 17.4978H414.139ZM408.001 3.45671C408.017 4.08506 408.009 4.67313 407.977 5.22092C407.945 5.7526 407.872 6.28427 407.759 6.81595C407.663 7.33152 407.526 7.8632 407.349 8.41099C407.139 9.00711 406.688 10.0141 405.995 11.4319L405.463 10.876H412.472L411.94 11.4319C411.602 10.7391 411.288 10.0302 410.998 9.30517C410.579 8.29015 410.305 7.34763 410.176 6.47761C410.047 5.59148 409.999 4.58452 410.031 3.45671H408.001Z" fill="#FFBA72"/>
<path d="M386.259 0.65332H394.645C395.869 0.65332 396.9 0.782212 397.738 1.03999C398.592 1.28167 399.244 1.69251 399.696 2.27252C400.163 2.83642 400.396 3.56144 400.396 4.44757C400.396 5.1887 400.235 5.80899 399.913 6.30844C399.591 6.79178 399.124 7.15429 398.511 7.39597C397.915 7.63764 397.19 7.78264 396.336 7.83097V9.78852C397.319 9.80463 398.149 9.93352 398.825 10.1752C399.518 10.4169 400.05 10.7874 400.421 11.2869C400.791 11.7863 400.976 12.4388 400.976 13.2444C400.976 14.1789 400.719 14.9603 400.203 15.5886C399.704 16.217 399.003 16.6923 398.1 17.0145C397.198 17.3367 396.151 17.4978 394.959 17.4978H386.259V0.65332ZM394.258 14.5978C394.87 14.5978 395.394 14.5253 395.829 14.3803C396.28 14.2192 396.618 13.9775 396.844 13.6553C397.085 13.333 397.206 12.9222 397.206 12.4227C397.206 11.9555 397.085 11.5688 396.844 11.2627C396.618 10.9566 396.288 10.731 395.853 10.586C395.418 10.441 394.886 10.3685 394.258 10.3685H390.004V14.5978H394.258ZM393.702 7.61347C394.685 7.61347 395.418 7.45235 395.901 7.13013C396.401 6.79178 396.65 6.26011 396.65 5.53509C396.65 4.8423 396.401 4.34284 395.901 4.03673C395.418 3.7145 394.685 3.55338 393.702 3.55338H390.004V7.61347H393.702Z" fill="#FFBA72"/>
<path d="M366.36 0.65332H374.19C376.333 0.65332 377.936 1.03194 378.999 1.78918C380.063 2.5303 380.594 3.65005 380.594 5.14842C380.594 6.06677 380.353 6.83206 379.869 7.4443C379.386 8.05653 378.733 8.52377 377.912 8.846C377.09 9.16822 376.164 9.36156 375.133 9.42601V11.3594C375.874 11.3916 376.51 11.5527 377.042 11.8427C377.59 12.1166 378.097 12.5677 378.564 13.1961L378.637 13.2928L381.73 17.4978H377.356L374.698 13.7036C374.633 13.6069 374.569 13.5103 374.504 13.4136C374.037 12.753 373.658 12.2858 373.368 12.0119C373.094 11.738 372.788 11.5527 372.45 11.4561C372.112 11.3433 371.62 11.2869 370.976 11.2869H369.163L370.082 10.3927V17.4978H366.36V0.65332ZM369.163 8.9185H373.513C374.254 8.9185 374.867 8.82183 375.35 8.62849C375.85 8.41904 376.22 8.11292 376.462 7.71014C376.72 7.30735 376.848 6.79984 376.848 6.18761C376.848 5.30148 376.575 4.64091 376.027 4.2059C375.479 3.77089 374.641 3.55338 373.513 3.55338H369.163L370.082 2.61086V9.78852L369.163 8.9185Z" fill="#FFBA72"/>
<path d="M352.198 0.65332H365.514V3.69839H355.001L355.919 2.82837V8.41099L355.001 7.56513H364.765V10.441H355.001L355.919 9.64351V15.3711L355.001 14.4528H365.804V17.4978H352.198V0.65332Z" fill="#FFBA72"/>
<path d="M342.769 2.78003L343.615 3.69839H337.187V0.65332H352.098V3.69839H345.669L346.515 2.78003V17.4978H342.769V2.78003Z" fill="#FFBA72"/>
<path d="M330.259 2.78003L331.105 3.69839H324.677V0.65332H339.588V3.69839H333.159L334.005 2.78003V17.4978H330.259V2.78003Z" fill="#FFBA72"/>
<path d="M320.85 0.65332H324.572V17.4978H320.85V0.65332Z" fill="#FFBA72"/>
<path d="M305.578 0.65332H313.964C315.188 0.65332 316.219 0.782212 317.057 1.03999C317.911 1.28167 318.563 1.69251 319.015 2.27252C319.482 2.83642 319.715 3.56144 319.715 4.44757C319.715 5.1887 319.554 5.80899 319.232 6.30844C318.91 6.79178 318.443 7.15429 317.83 7.39597C317.234 7.63764 316.509 7.78264 315.655 7.83097V9.78852C316.638 9.80463 317.468 9.93352 318.145 10.1752C318.837 10.4169 319.369 10.7874 319.74 11.2869C320.11 11.7863 320.295 12.4388 320.295 13.2444C320.295 14.1789 320.038 14.9603 319.522 15.5886C319.023 16.217 318.322 16.6923 317.42 17.0145C316.517 17.3367 315.47 17.4978 314.278 17.4978H305.578V0.65332ZM313.577 14.5978C314.189 14.5978 314.713 14.5253 315.148 14.3803C315.599 14.2192 315.937 13.9775 316.163 13.6553C316.405 13.333 316.525 12.9222 316.525 12.4227C316.525 11.9555 316.405 11.5688 316.163 11.2627C315.937 10.9566 315.607 10.731 315.172 10.586C314.737 10.441 314.205 10.3685 313.577 10.3685H309.324V14.5978H313.577ZM313.021 7.61347C314.004 7.61347 314.737 7.45235 315.22 7.13013C315.72 6.79178 315.97 6.26011 315.97 5.53509C315.97 4.8423 315.72 4.34284 315.22 4.03673C314.737 3.7145 314.004 3.55338 313.021 3.55338H309.324V7.61347H313.021Z" fill="#FFBA72"/>
<path d="M624.891 0.339355H628.25L637.7 11.9879L639.464 10.7796C638.868 10.119 638.376 9.51483 637.99 8.96704C637.603 8.41925 637.289 7.83118 637.047 7.20284C636.806 6.55838 636.685 5.88975 636.685 5.19696V0.339355H640.431V17.1839H637.337L627.791 5.4628L625.979 6.64699C626.655 7.29145 627.187 7.92785 627.574 8.5562C628.266 9.66789 628.613 10.8843 628.613 12.2054V17.1839H624.891V0.339355Z" fill="#FFBA72"/>
<path d="M608.298 0.339355H611.657L621.107 11.9879L622.871 10.7796C622.275 10.119 621.783 9.51483 621.397 8.96704C621.01 8.41925 620.696 7.83118 620.454 7.20284C620.213 6.55838 620.092 5.88975 620.092 5.19696V0.339355H623.838V17.1839H620.744L611.198 5.4628L609.386 6.64699C610.062 7.29145 610.594 7.92785 610.981 8.5562C611.673 9.66789 612.02 10.8843 612.02 12.2054V17.1839H608.298V0.339355Z" fill="#FFBA72"/>
<path d="M604.219 17.1839L602.406 12.5679L603.542 13.3655H594.576L595.712 12.5679L593.875 17.1839H589.912L597.09 0.339355H601.005L608.206 17.1839H604.219ZM598.08 3.14275C598.096 3.77109 598.088 4.35916 598.056 4.90695C598.024 5.43863 597.951 5.97031 597.839 6.50199C597.742 7.01755 597.605 7.54923 597.428 8.09702C597.218 8.69315 596.767 9.70011 596.075 11.1179L595.543 10.5621H602.551L602.02 11.1179C601.681 10.4251 601.367 9.71622 601.077 8.99121C600.658 7.97619 600.384 7.03367 600.255 6.16365C600.127 5.27752 600.078 4.27055 600.11 3.14275H598.08Z" fill="#FFBA72"/>
<path d="M571.925 0.339355H577.145C577.597 1.41882 577.999 2.41773 578.354 3.33609C578.708 4.23833 578.982 5.05196 579.175 5.77697C579.417 6.59866 579.594 7.37201 579.707 8.09702C579.82 8.80593 579.876 9.53094 579.876 10.2721H581.834C581.834 9.45038 581.906 8.6287 582.051 7.80701C582.196 6.96922 582.422 6.08309 582.728 5.14863C583.034 4.21416 583.461 3.07025 584.009 1.71688C584.089 1.49132 584.275 1.03215 584.565 0.339355H589.809V17.1839H586.087C586.087 15.7016 586.111 14.2274 586.16 12.7613C586.224 11.3918 586.329 10.2801 586.474 9.42622C586.635 8.5562 586.844 7.77479 587.102 7.082C587.36 6.38921 587.723 5.57558 588.19 4.64111L586.256 3.94027L582.269 14.1872H579.417L575.454 3.94027L573.544 4.71362C574.012 5.64808 574.374 6.45365 574.632 7.13033C574.89 7.80702 575.091 8.56425 575.236 9.40205C575.397 10.2237 575.51 11.2951 575.575 12.6163C575.623 14.1308 575.647 15.6533 575.647 17.1839H571.925V0.339355Z" fill="#FFBA72"/>
<path d="M562.422 17.4978C560.73 17.4978 559.216 17.1272 557.879 16.3861C556.541 15.6289 555.494 14.5897 554.737 13.2685C553.98 11.9313 553.601 10.4329 553.601 8.77343C553.601 7.11395 553.98 5.62364 554.737 4.3025C555.494 2.98136 556.541 1.95023 557.879 1.2091C559.216 0.451861 560.73 0.0732422 562.422 0.0732422C564.098 0.0732422 565.604 0.451861 566.941 1.2091C568.295 1.95023 569.35 2.98136 570.107 4.3025C570.865 5.62364 571.243 7.11395 571.243 8.77343C571.243 10.4329 570.865 11.9313 570.107 13.2685C569.35 14.5897 568.295 15.6289 566.941 16.3861C565.604 17.1272 564.098 17.4978 562.422 17.4978ZM562.422 14.4285C563.437 14.4285 564.323 14.1869 565.08 13.7035C565.838 13.2202 566.418 12.5516 566.821 11.6977C567.223 10.8438 567.425 9.86901 567.425 8.77343C567.425 7.67785 567.223 6.70311 566.821 5.8492C566.418 4.99529 565.838 4.32667 565.08 3.84332C564.323 3.35998 563.437 3.11831 562.422 3.11831C561.407 3.11831 560.521 3.35998 559.764 3.84332C559.006 4.32667 558.418 4.99529 558 5.8492C557.597 6.70311 557.395 7.67785 557.395 8.77343C557.395 9.86901 557.597 10.8438 558 11.6977C558.418 12.5516 559.006 13.2202 559.764 13.7035C560.521 14.1869 561.407 14.4285 562.422 14.4285Z" fill="#FFBA72"/>
<path d="M544.499 17.4975C543.129 17.4975 541.873 17.127 540.729 16.3858C539.585 15.6447 538.683 14.6136 538.022 13.2924C537.362 11.9552 537.031 10.4407 537.031 8.74901C537.031 7.05731 537.402 5.55089 538.143 4.22975C538.884 2.89249 539.915 1.85331 541.236 1.11218C542.557 0.371052 544.064 0.000488281 545.756 0.000488281C547.157 0.000488281 548.47 0.266327 549.695 0.798005C550.919 1.32968 551.967 2.03859 552.837 2.92472L550.734 5.34144C550.057 4.66476 549.34 4.13308 548.583 3.7464C547.826 3.35973 546.94 3.16639 545.925 3.16639C544.878 3.16639 543.959 3.41612 543.17 3.91557C542.396 4.39892 541.8 5.06754 541.381 5.92145C540.962 6.77536 540.753 7.71788 540.753 8.74901C540.753 9.84459 540.962 10.8274 541.381 11.6974C541.8 12.5513 542.404 13.2199 543.194 13.7033C543.983 14.1866 544.918 14.4283 545.997 14.4283C546.835 14.4283 547.584 14.243 548.245 13.8725C548.905 13.4858 549.413 12.9138 549.767 12.1566C550.122 11.3993 550.251 10.4729 550.154 9.37736L551.097 10.3924H545.296V7.73399H553.127V17.1834H549.985C550.243 16.5711 550.508 16.0072 550.782 15.4917C551.088 14.8633 551.427 14.2752 551.797 13.7275L549.792 12.8574C549.647 13.5986 549.373 14.3236 548.97 15.0325C548.567 15.7253 547.995 16.3133 547.254 16.7967C546.513 17.2639 545.594 17.4975 544.499 17.4975Z" fill="#FFBA72"/>
<path d="M520.801 0.339355H524.16L533.609 11.9879L535.373 10.7796C534.777 10.119 534.286 9.51483 533.899 8.96704C533.512 8.41925 533.198 7.83118 532.957 7.20284C532.715 6.55838 532.594 5.88975 532.594 5.19696V0.339355H536.34V17.1839H533.247L523.701 5.4628L521.888 6.64699C522.565 7.29145 523.096 7.92785 523.483 8.5562C524.176 9.66789 524.522 10.8843 524.522 12.2054V17.1839H520.801V0.339355Z" fill="#FFBA72"/>
<path d="M511.297 17.4978C509.606 17.4978 508.091 17.1272 506.754 16.3861C505.417 15.6289 504.369 14.5897 503.612 13.2685C502.855 11.9313 502.476 10.4329 502.476 8.77343C502.476 7.11395 502.855 5.62364 503.612 4.3025C504.369 2.98136 505.417 1.95023 506.754 1.2091C508.091 0.451861 509.606 0.0732422 511.297 0.0732422C512.973 0.0732422 514.479 0.451861 515.817 1.2091C517.17 1.95023 518.225 2.98136 518.983 4.3025C519.74 5.62364 520.118 7.11395 520.118 8.77343C520.118 10.4329 519.74 11.9313 518.983 13.2685C518.225 14.5897 517.17 15.6289 515.817 16.3861C514.479 17.1272 512.973 17.4978 511.297 17.4978ZM511.297 14.4285C512.312 14.4285 513.198 14.1869 513.956 13.7035C514.713 13.2202 515.293 12.5516 515.696 11.6977C516.099 10.8438 516.3 9.86901 516.3 8.77343C516.3 7.67785 516.099 6.70311 515.696 5.8492C515.293 4.99529 514.713 4.32667 513.956 3.84332C513.198 3.35998 512.312 3.11831 511.297 3.11831C510.282 3.11831 509.396 3.35998 508.639 3.84332C507.882 4.32667 507.294 4.99529 506.875 5.8492C506.472 6.70311 506.271 7.67785 506.271 8.77343C506.271 9.86901 506.472 10.8438 506.875 11.6977C507.294 12.5516 507.882 13.2202 508.639 13.7035C509.396 14.1869 510.282 14.4285 511.297 14.4285Z" fill="#FFBA72"/>
<path d="M487.968 0.339355H496.354C497.578 0.339355 498.609 0.468247 499.447 0.72603C500.301 0.967702 500.953 1.37854 501.404 1.95856C501.872 2.52246 502.105 3.24747 502.105 4.1336C502.105 4.87473 501.944 5.49502 501.622 5.99448C501.3 6.47782 500.833 6.84033 500.22 7.082C499.624 7.32367 498.899 7.46867 498.045 7.51701V9.47455C499.028 9.49066 499.858 9.61955 500.534 9.86123C501.227 10.1029 501.759 10.4735 502.129 10.9729C502.5 11.4724 502.685 12.1249 502.685 12.9305C502.685 13.8649 502.428 14.6463 501.912 15.2747C501.413 15.903 500.712 16.3783 499.809 16.7005C498.907 17.0228 497.86 17.1839 496.668 17.1839H487.968V0.339355ZM495.967 14.2838C496.579 14.2838 497.103 14.2113 497.538 14.0663C497.989 13.9052 498.327 13.6635 498.553 13.3413C498.794 13.0191 498.915 12.6082 498.915 12.1088C498.915 11.6415 498.794 11.2549 498.553 10.9487C498.327 10.6426 497.997 10.4171 497.562 10.2721C497.127 10.1271 496.595 10.0546 495.967 10.0546H491.713V14.2838H495.967ZM495.411 7.29951C496.394 7.29951 497.127 7.13839 497.61 6.81616C498.11 6.47782 498.359 5.94614 498.359 5.22113C498.359 4.52833 498.11 4.02888 497.61 3.72276C497.127 3.40053 496.394 3.23942 495.411 3.23942H491.713V7.29951H495.411Z" fill="#FFBA72"/>
</svg>
