<svg width="641" height="18" viewBox="0 0 641 18" fill="none" xmlns="http://www.w3.org/2000/svg">
<path d="M316.458 17.6675C315.041 17.6675 313.794 17.4883 312.719 17.1299C311.66 16.7715 310.838 16.2584 310.251 15.5904C309.665 14.9062 309.371 14.1242 309.371 13.2445C309.371 12.4463 309.608 11.7783 310.08 11.2407C310.553 10.7031 311.188 10.2959 311.986 10.0189C312.801 9.72569 313.705 9.57092 314.699 9.55463V7.57528C313.575 7.52641 312.589 7.38794 311.742 7.15987C310.895 6.9155 310.219 6.54081 309.714 6.03579C309.209 5.53077 308.956 4.87099 308.956 4.05644C308.956 3.22561 309.225 2.50881 309.762 1.90604C310.3 1.28699 311.074 0.814543 312.084 0.488724C313.094 0.162905 314.267 0 315.603 0C317.216 0 318.682 0.21993 320.001 0.659785C321.321 1.09964 322.592 1.73498 323.813 2.56582L322.127 5.32714C321.313 4.65921 320.319 4.1216 319.146 3.71433C317.989 3.30706 316.849 3.09528 315.725 3.07899C314.796 3.07899 314.088 3.24189 313.599 3.56771C313.11 3.87724 312.866 4.28451 312.866 4.78953C312.866 5.14793 312.988 5.45746 313.232 5.71812C313.477 5.96248 313.819 6.17426 314.259 6.35346C314.715 6.51637 315.293 6.663 315.994 6.79332L318.022 7.2576C319.749 7.616 321.101 8.21064 322.078 9.04147C323.072 9.87231 323.569 10.9882 323.569 12.3893C323.569 13.3178 323.284 14.1894 322.714 15.004C322.144 15.8022 321.321 16.4457 320.246 16.9344C319.17 17.4232 317.908 17.6675 316.458 17.6675ZM316.556 14.9551C317.207 14.9551 317.77 14.841 318.242 14.613C318.731 14.3849 319.097 14.0835 319.342 13.7088C319.602 13.3341 319.733 12.9187 319.733 12.4626C319.733 11.9575 319.594 11.5177 319.317 11.143C319.056 10.752 318.674 10.4506 318.169 10.2389C317.68 10.0108 317.118 9.89674 316.482 9.89674C315.88 9.89674 315.334 10.0026 314.845 10.2144C314.357 10.4262 313.974 10.7276 313.697 11.1186C313.42 11.4933 313.281 11.9331 313.281 12.4381C313.281 12.9106 313.42 13.3423 313.697 13.7333C313.974 14.1079 314.357 14.4093 314.845 14.6374C315.35 14.8492 315.92 14.9551 316.556 14.9551Z" fill="#FFBA72"/>
<path d="M297.125 0.317675H300.888V15.1994L299.959 14.2709H310.052V17.3498H297.125V0.317675Z" fill="#FFBA72"/>
<path d="M284.117 0.317675H287.88V15.1994L286.952 14.2709H297.044V17.3498H284.117V0.317675Z" fill="#FFBA72"/>
<path d="M279.271 0.317675H283.034V17.3498H279.271V0.317675Z" fill="#FFBA72"/>
<path d="M260.106 0.317675H265.385C265.841 1.40917 266.248 2.4192 266.606 3.34779C266.965 4.26008 267.242 5.08277 267.437 5.81586C267.682 6.6467 267.861 7.42866 267.975 8.16176C268.089 8.87856 268.146 9.61165 268.146 10.361H270.125C270.125 9.5302 270.199 8.69936 270.345 7.86852C270.492 7.02139 270.72 6.12539 271.029 5.18052C271.339 4.23564 271.771 3.07898 272.325 1.71055C272.406 1.48247 272.593 1.01819 272.887 0.317675H278.189V17.3498H274.426C274.426 15.8511 274.451 14.3605 274.499 12.878C274.565 11.4933 274.67 10.3692 274.817 9.50575C274.98 8.62604 275.192 7.83594 275.452 7.13543C275.713 6.43492 276.08 5.61222 276.552 4.66735L274.597 3.9587L270.565 14.3197H267.682L263.674 3.9587L261.744 4.74066C262.216 5.68554 262.583 6.50009 262.843 7.18431C263.104 7.86853 263.308 8.6342 263.454 9.48133C263.617 10.3122 263.731 11.3955 263.796 12.7314C263.845 14.2627 263.87 15.8022 263.87 17.3498H260.106V0.317675Z" fill="#FFBA72"/>
<path d="M251.446 17.3498L249.613 12.6825L250.762 13.4889H241.696L242.844 12.6825L240.987 17.3498H236.98L244.237 0.317675H248.196L255.478 17.3498H251.446ZM245.239 3.15229C245.255 3.78764 245.247 4.38227 245.215 4.93616C245.182 5.47376 245.109 6.01136 244.995 6.54896C244.897 7.07027 244.759 7.60786 244.579 8.16176C244.368 8.76452 243.911 9.78271 243.211 11.2163L242.673 10.6543H249.76L249.222 11.2163C248.88 10.5158 248.562 9.799 248.269 9.06591C247.846 8.03958 247.569 7.08655 247.438 6.20684C247.308 5.31084 247.259 4.29266 247.292 3.15229H245.239Z" fill="#FFBA72"/>
<path d="M221.179 0.317675H224.576L234.13 12.096L235.914 10.8742C235.311 10.2063 234.815 9.59536 234.424 9.04147C234.033 8.48758 233.715 7.89295 233.471 7.2576C233.226 6.60597 233.104 5.9299 233.104 5.22939V0.317675H236.892V17.3498H233.764L224.111 5.49819L222.279 6.69557C222.963 7.3472 223.501 7.9907 223.891 8.62605C224.592 9.75012 224.942 10.9801 224.942 12.3159V17.3498H221.179V0.317675Z" fill="#FFBA72"/>
<path d="M205.57 0.317675H213.488C215.654 0.317675 217.275 0.700506 218.35 1.46618C219.426 2.21556 219.963 3.34778 219.963 4.86284C219.963 5.79142 219.719 6.56525 219.23 7.18431C218.741 7.80336 218.082 8.27579 217.251 8.60161C216.42 8.92743 215.483 9.12292 214.441 9.18808V11.143C215.19 11.1756 215.834 11.3385 216.371 11.6317C216.925 11.9087 217.438 12.3648 217.911 13.0002L217.984 13.0979L221.112 17.3498H216.689L214.001 13.5133C213.936 13.4156 213.87 13.3178 213.805 13.2201C213.333 12.5522 212.95 12.0797 212.657 11.8028C212.38 11.5258 212.07 11.3385 211.728 11.2407C211.386 11.1267 210.889 11.0697 210.238 11.0697H208.405L209.333 10.1655V17.3498H205.57V0.317675ZM208.405 8.67492H212.803C213.553 8.67492 214.172 8.57717 214.661 8.38168C215.166 8.1699 215.54 7.86037 215.785 7.4531C216.045 7.04583 216.176 6.53266 216.176 5.91361C216.176 5.01761 215.899 4.34968 215.345 3.90983C214.791 3.46997 213.944 3.25004 212.803 3.25004H208.405L209.333 2.29702V9.55463L208.405 8.67492Z" fill="#FFBA72"/>
<path d="M195.961 17.6675C194.25 17.6675 192.719 17.2928 191.367 16.5434C190.015 15.7778 188.956 14.727 188.19 13.3911C187.424 12.039 187.042 10.5239 187.042 8.84597C187.042 7.168 187.424 5.66109 188.19 4.32524C188.956 2.98938 190.015 1.94676 191.367 1.19738C192.719 0.431705 194.25 0.0488697 195.961 0.0488697C197.655 0.0488697 199.178 0.431705 200.531 1.19738C201.899 1.94676 202.966 2.98938 203.732 4.32524C204.497 5.66109 204.88 7.168 204.88 8.84597C204.88 10.5239 204.497 12.039 203.732 13.3911C202.966 14.727 201.899 15.7778 200.531 16.5434C199.178 17.2928 197.655 17.6675 195.961 17.6675ZM195.961 14.5641C196.987 14.5641 197.883 14.3197 198.649 13.831C199.415 13.3423 200.001 12.6662 200.408 11.8028C200.816 10.9394 201.019 9.95375 201.019 8.84597C201.019 7.73818 200.816 6.75258 200.408 5.88916C200.001 5.02574 199.415 4.34968 198.649 3.86095C197.883 3.37222 196.987 3.12786 195.961 3.12786C194.935 3.12786 194.039 3.37222 193.273 3.86095C192.507 4.34968 191.913 5.02574 191.489 5.88916C191.082 6.75258 190.878 7.73818 190.878 8.84597C190.878 9.95375 191.082 10.9394 191.489 11.8028C191.913 12.6662 192.507 13.3423 193.273 13.831C194.039 14.3197 194.935 14.5641 195.961 14.5641Z" fill="#FFBA72"/>
<path d="M175.379 0.317675H179.142V15.1994L178.213 14.2709H188.306V17.3498H175.379V0.317675Z" fill="#FFBA72"/>
<path d="M157.646 17.3498L155.814 12.6825L156.962 13.4889H147.896L149.045 12.6825L147.188 17.3498H143.18L150.438 0.317675H154.396L161.678 17.3498H157.646ZM151.44 3.15229C151.456 3.78764 151.448 4.38227 151.415 4.93616C151.383 5.47376 151.309 6.01136 151.195 6.54896C151.097 7.07027 150.959 7.60786 150.78 8.16176C150.568 8.76452 150.112 9.78271 149.411 11.2163L148.874 10.6543H155.96L155.423 11.2163C155.081 10.5158 154.763 9.799 154.47 9.06591C154.046 8.03958 153.769 7.08655 153.639 6.20684C153.509 5.31084 153.46 4.29266 153.492 3.15229H151.44Z" fill="#FFBA72"/>
<path d="M139.311 0.317675H143.075V17.3498H139.311V0.317675Z" fill="#FFBA72"/>
<path d="M122.533 0.317675H125.93L135.484 12.096L137.268 10.8742C136.666 10.2063 136.169 9.59536 135.778 9.04147C135.387 8.48758 135.069 7.89295 134.825 7.2576C134.58 6.60597 134.458 5.9299 134.458 5.22939V0.317675H138.246V17.3498H135.118L125.466 5.49819L123.633 6.69557C124.317 7.3472 124.855 7.9907 125.246 8.62605C125.946 9.75012 126.296 10.9801 126.296 12.3159V17.3498H122.533V0.317675Z" fill="#FFBA72"/>
<path d="M114.043 17.692C112.512 17.692 111.176 17.4232 110.035 16.8855C108.895 16.3317 108.015 15.509 107.396 14.4175C106.793 13.326 106.492 11.9901 106.492 10.4099V0.317675H110.255V10.3122C110.255 11.2244 110.402 11.9983 110.695 12.6336C111.005 13.2527 111.436 13.7251 111.99 14.0509C112.56 14.3605 113.245 14.5152 114.043 14.5152C115.232 14.5152 116.153 14.1568 116.804 13.44C117.472 12.7069 117.806 11.6643 117.806 10.3122V0.317675H121.569V10.4099C121.569 12.7884 120.893 14.5967 119.541 15.8348C118.205 17.0729 116.373 17.692 114.043 17.692Z" fill="#FFBA72"/>
<path d="M97.0049 17.6675C95.2944 17.6675 93.763 17.2928 92.4109 16.5434C91.0587 15.7778 89.9998 14.727 89.2341 13.3911C88.4685 12.039 88.0856 10.5239 88.0856 8.84597C88.0856 7.168 88.4685 5.66109 89.2341 4.32524C89.9998 2.98938 91.0587 1.94676 92.4109 1.19738C93.763 0.431705 95.2944 0.0488697 97.0049 0.0488697C98.6992 0.0488697 100.222 0.431705 101.575 1.19738C102.943 1.94676 104.01 2.98938 104.776 4.32524C105.541 5.66109 105.924 7.168 105.924 8.84597C105.924 10.5239 105.541 12.039 104.776 13.3911C104.01 14.727 102.943 15.7778 101.575 16.5434C100.222 17.2928 98.6992 17.6675 97.0049 17.6675ZM97.0049 14.5641C98.0312 14.5641 98.9272 14.3197 99.6929 13.831C100.459 13.3423 101.045 12.6662 101.452 11.8028C101.86 10.9394 102.063 9.95375 102.063 8.84597C102.063 7.73818 101.86 6.75258 101.452 5.88916C101.045 5.02574 100.459 4.34968 99.6929 3.86095C98.9272 3.37222 98.0312 3.12786 97.0049 3.12786C95.9786 3.12786 95.0826 3.37222 94.3169 3.86095C93.5512 4.34968 92.9566 5.02574 92.5331 5.88916C92.1258 6.75258 91.9221 7.73818 91.9221 8.84597C91.9221 9.95375 92.1258 10.9394 92.5331 11.8028C92.9566 12.6662 93.5512 13.3423 94.3169 13.831C95.0826 14.3197 95.9786 14.5641 97.0049 14.5641Z" fill="#FFBA72"/>
<path d="M72.0082 0.317675H78.4838C80.4061 0.317675 82.0759 0.692362 83.4932 1.44175C84.9105 2.17484 85.9939 3.18488 86.7433 4.47186C87.4927 5.75885 87.8674 7.21688 87.8674 8.84598C87.8674 10.4099 87.4927 11.8435 86.7433 13.1468C85.9939 14.4338 84.9105 15.4601 83.4932 16.2258C82.0759 16.9752 80.4061 17.3498 78.4838 17.3498H72.0082V0.317675ZM74.8428 14.2709H78.2394C79.4287 14.2709 80.455 14.0428 81.3184 13.5866C82.1982 13.1305 82.866 12.4951 83.3222 11.6806C83.7946 10.8498 84.0309 9.90489 84.0309 8.84598C84.0309 7.78707 83.7946 6.85034 83.3222 6.03579C82.866 5.20495 82.1982 4.56146 81.3184 4.10531C80.455 3.63288 79.4287 3.39666 78.2394 3.39666H74.8428L75.7714 2.49251V15.1994L74.8428 14.2709Z" fill="#FFBA72"/>
<path d="M63.3477 17.3498L61.515 12.6825L62.6635 13.4889H53.5976L54.7461 12.6825L52.889 17.3498H48.8814L56.139 0.317675H60.0977L67.3797 17.3498H63.3477ZM57.1409 3.15229C57.1572 3.78764 57.149 4.38227 57.1164 4.93616C57.0838 5.47376 57.0106 6.01136 56.8965 6.54896C56.7988 7.07027 56.6603 7.60786 56.4811 8.16176C56.2693 8.76452 55.8132 9.78271 55.1127 11.2163L54.5751 10.6543H61.6616L61.1241 11.2163C60.7819 10.5158 60.4642 9.799 60.171 9.06591C59.7474 8.03958 59.4705 7.08655 59.3402 6.20684C59.2099 5.31084 59.161 4.29266 59.1935 3.15229H57.1409Z" fill="#FFBA72"/>
<path d="M34.6319 0.317675H41.1076C43.0299 0.317675 44.6997 0.692362 46.1171 1.44175C47.5344 2.17484 48.6177 3.18488 49.3671 4.47186C50.1165 5.75885 50.4912 7.21688 50.4912 8.84598C50.4912 10.4099 50.1165 11.8435 49.3671 13.1468C48.6177 14.4338 47.5344 15.4601 46.1171 16.2258C44.6997 16.9752 43.0299 17.3498 41.1076 17.3498H34.6319V0.317675ZM37.4666 14.2709H40.8632C42.0525 14.2709 43.0788 14.0428 43.9422 13.5866C44.8219 13.1305 45.4898 12.4951 45.946 11.6806C46.4184 10.8498 46.6547 9.90489 46.6547 8.84598C46.6547 7.78707 46.4184 6.85034 45.946 6.03579C45.4898 5.20495 44.8219 4.56146 43.9422 4.10531C43.0788 3.63288 42.0525 3.39666 40.8632 3.39666H37.4666L38.3951 2.49251V15.1994L37.4666 14.2709Z" fill="#FFBA72"/>
<path d="M17.8538 0.317675H21.2505L30.8051 12.096L32.589 10.8742C31.9862 10.2063 31.4893 9.59536 31.0984 9.04147C30.7074 8.48758 30.3897 7.89295 30.1453 7.2576C29.901 6.60597 29.7788 5.9299 29.7788 5.22939V0.317675H33.5664V17.3498H30.4386L20.7862 5.49819L18.9535 6.69557C19.6377 7.3472 20.1753 7.9907 20.5663 8.62605C21.2668 9.75012 21.617 10.9801 21.617 12.3159V17.3498H17.8538V0.317675Z" fill="#FFBA72"/>
<path d="M13.0076 0.317675H16.7708V17.3498H13.0076V0.317675Z" fill="#FFBA72"/>
<path d="M0 0.317675H3.7632V15.1994L2.83459 14.2709H12.9268V17.3498H0V0.317675Z" fill="#FFBA72"/>
<path d="M435.998 17.2684L434.185 12.6524L435.321 13.4499H426.355L427.491 12.6524L425.654 17.2684H421.691L428.868 0.423828H432.783L439.985 17.2684H435.998ZM429.859 3.22722C429.875 3.85557 429.867 4.44364 429.835 4.99143C429.803 5.5231 429.73 6.05478 429.618 6.58646C429.521 7.10203 429.384 7.6337 429.207 8.18149C428.997 8.77762 428.546 9.78458 427.853 11.2024L427.322 10.6465H434.33L433.798 11.2024C433.46 10.5096 433.146 9.8007 432.856 9.07568C432.437 8.06066 432.163 7.11814 432.034 6.24812C431.905 5.36199 431.857 4.35502 431.889 3.22722H429.859Z" fill="#FFBA72"/>
<path d="M406.064 0.423828H409.423L418.873 12.0724L420.637 10.8641C420.041 10.2035 419.549 9.5993 419.163 9.05151C418.776 8.50372 418.462 7.91566 418.22 7.28731C417.979 6.64285 417.858 5.97422 417.858 5.28143V0.423828H421.604V17.2684H418.51L408.964 5.54727L407.152 6.73146C407.828 7.37592 408.36 8.01232 408.747 8.64067C409.44 9.75236 409.786 10.9688 409.786 12.2899V17.2684H406.064V0.423828Z" fill="#FFBA72"/>
<path d="M401.271 0.423828H404.993V17.2684H401.271V0.423828Z" fill="#FFBA72"/>
<path d="M396.476 0.423828H400.222V17.2684H396.476V0.423828ZM385.528 0.423828H389.25V17.2684H385.528V0.423828ZM388.936 7.21481H396.814V10.2599H388.936V7.21481Z" fill="#FFBA72"/>
<path d="M378.569 17.6067C376.91 17.6067 375.42 17.2442 374.098 16.5191C372.793 15.778 371.77 14.7469 371.029 13.4257C370.288 12.0885 369.917 10.5579 369.917 8.83397C369.917 7.11004 370.288 5.58751 371.029 4.26637C371.786 2.94523 372.834 1.92216 374.171 1.19714C375.524 0.456013 377.055 0.0854492 378.763 0.0854492C380.1 0.0854492 381.284 0.302954 382.315 0.737964C383.346 1.17297 384.297 1.79326 385.167 2.59884L383.282 5.08806C382.686 4.50804 382.041 4.06498 381.349 3.75886C380.656 3.43663 379.874 3.27552 379.004 3.27552C377.973 3.27552 377.047 3.51719 376.225 4.00053C375.42 4.46777 374.791 5.12834 374.34 5.98224C373.889 6.83615 373.663 7.81089 373.663 8.90647C373.663 10.0021 373.889 10.9607 374.34 11.7824C374.807 12.6041 375.444 13.2405 376.249 13.6916C377.071 14.1266 377.997 14.3441 379.029 14.3441C379.915 14.3441 380.704 14.1669 381.397 13.8124C382.106 13.458 382.758 12.9585 383.354 12.314L385.288 14.8758C384.386 15.7619 383.403 16.4386 382.339 16.9058C381.292 17.373 380.035 17.6067 378.569 17.6067Z" fill="#FFBA72"/>
<path d="M367.334 17.2684L365.522 12.6524L366.657 13.4499H357.691L358.827 12.6524L356.991 17.2684H353.027L360.205 0.423828H364.12L371.322 17.2684H367.334ZM361.196 3.22722C361.212 3.85557 361.204 4.44364 361.171 4.99143C361.139 5.5231 361.067 6.05478 360.954 6.58646C360.857 7.10203 360.72 7.6337 360.543 8.18149C360.334 8.77762 359.883 9.78458 359.19 11.2024L358.658 10.6465H365.667L365.135 11.2024C364.797 10.5096 364.482 9.8007 364.192 9.07568C363.773 8.06066 363.5 7.11814 363.371 6.24812C363.242 5.36199 363.193 4.35502 363.226 3.22722H361.196Z" fill="#FFBA72"/>
<path d="M335.04 0.423828H340.26C340.711 1.5033 341.114 2.50221 341.469 3.42056C341.823 4.3228 342.097 5.13643 342.29 5.86144C342.532 6.68313 342.709 7.45648 342.822 8.18149C342.935 8.8904 342.991 9.61541 342.991 10.3565H344.949C344.949 9.53486 345.021 8.71317 345.166 7.89149C345.311 7.05369 345.537 6.16756 345.843 5.2331C346.149 4.29863 346.576 3.15472 347.124 1.80136C347.204 1.5758 347.389 1.11662 347.679 0.423828H352.924V17.2684H349.202C349.202 15.7861 349.226 14.3119 349.275 12.8458C349.339 11.4763 349.444 10.3646 349.589 9.51069C349.75 8.64067 349.959 7.85927 350.217 7.16647C350.475 6.47368 350.837 5.66005 351.305 4.72559L349.371 4.02474L345.384 14.2716H342.532L338.568 4.02474L336.659 4.79809C337.126 5.73255 337.489 6.53813 337.747 7.21481C338.005 7.89149 338.206 8.64873 338.351 9.48652C338.512 10.3082 338.625 11.3796 338.689 12.7008C338.738 14.2152 338.762 15.7378 338.762 17.2684H335.04V0.423828Z" fill="#FFBA72"/>
<path d="M624.891 0.423828H628.25L637.699 12.0724L639.464 10.8641C638.868 10.2035 638.376 9.5993 637.989 9.05151C637.603 8.50372 637.289 7.91566 637.047 7.28731C636.805 6.64285 636.684 5.97422 636.684 5.28143V0.423828H640.43V17.2684H637.337L627.791 5.54727L625.978 6.73146C626.655 7.37592 627.187 8.01232 627.573 8.64067C628.266 9.75236 628.613 10.9688 628.613 12.2899V17.2684H624.891V0.423828Z" fill="#FFBA72"/>
<path d="M615.388 17.5827C613.696 17.5827 612.181 17.2122 610.844 16.4711C609.507 15.7138 608.46 14.6746 607.703 13.3535C606.945 12.0162 606.567 10.5179 606.567 8.85839C606.567 7.19891 606.945 5.7086 607.703 4.38746C608.46 3.06632 609.507 2.03519 610.844 1.29406C612.181 0.536822 613.696 0.158203 615.388 0.158203C617.063 0.158203 618.57 0.536822 619.907 1.29406C621.26 2.03519 622.316 3.06632 623.073 4.38746C623.83 5.7086 624.209 7.19891 624.209 8.85839C624.209 10.5179 623.83 12.0162 623.073 13.3535C622.316 14.6746 621.26 15.7138 619.907 16.4711C618.57 17.2122 617.063 17.5827 615.388 17.5827ZM615.388 14.5135C616.403 14.5135 617.289 14.2718 618.046 13.7885C618.803 13.3052 619.383 12.6365 619.786 11.7826C620.189 10.9287 620.39 9.95397 620.39 8.85839C620.39 7.76281 620.189 6.78807 619.786 5.93416C619.383 5.08025 618.803 4.41163 618.046 3.92828C617.289 3.44494 616.403 3.20327 615.388 3.20327C614.373 3.20327 613.487 3.44494 612.729 3.92828C611.972 4.41163 611.384 5.08025 610.965 5.93416C610.562 6.78807 610.361 7.76281 610.361 8.85839C610.361 9.95397 610.562 10.9287 610.965 11.7826C611.384 12.6365 611.972 13.3052 612.729 13.7885C613.487 14.2718 614.373 14.5135 615.388 14.5135Z" fill="#FFBA72"/>
<path d="M599.872 17.5823C598.47 17.5823 597.238 17.405 596.174 17.0506C595.127 16.6961 594.314 16.1886 593.733 15.528C593.153 14.8514 592.863 14.078 592.863 13.208C592.863 12.4185 593.097 11.758 593.564 11.2263C594.032 10.6946 594.66 10.2918 595.449 10.0179C596.255 9.72792 597.149 9.57486 598.132 9.55874V7.6012C597.02 7.55287 596.045 7.41592 595.208 7.19036C594.37 6.94869 593.701 6.57813 593.202 6.07867C592.702 5.57922 592.453 4.9267 592.453 4.12113C592.453 3.29944 592.718 2.59054 593.25 1.99442C593.782 1.38218 594.547 0.914948 595.546 0.592718C596.545 0.270489 597.705 0.109375 599.026 0.109375C600.621 0.109375 602.071 0.32688 603.376 0.761889C604.681 1.1969 605.938 1.82525 607.146 2.64693L605.479 5.37782C604.673 4.71725 603.69 4.18557 602.53 3.78279C601.386 3.38 600.259 3.17055 599.147 3.15444C598.229 3.15444 597.528 3.31555 597.044 3.63778C596.561 3.9439 596.319 4.34669 596.319 4.84614C596.319 5.2006 596.44 5.50671 596.682 5.7645C596.924 6.00617 597.262 6.21562 597.697 6.39284C598.148 6.55396 598.72 6.69896 599.413 6.82785L601.419 7.28703C603.126 7.64148 604.464 8.22955 605.43 9.05123C606.413 9.87292 606.905 10.9766 606.905 12.3621C606.905 13.2805 606.623 14.1425 606.059 14.948C605.495 15.7375 604.681 16.3739 603.618 16.8572C602.555 17.3406 601.306 17.5823 599.872 17.5823ZM599.969 14.8997C600.613 14.8997 601.169 14.7869 601.636 14.5614C602.12 14.3358 602.482 14.0377 602.724 13.6672C602.981 13.2966 603.11 12.8858 603.11 12.4346C603.11 11.9352 602.973 11.5002 602.7 11.1296C602.442 10.7429 602.063 10.4449 601.564 10.2354C601.08 10.0099 600.524 9.89709 599.896 9.89709C599.3 9.89709 598.76 10.0018 598.277 10.2113C597.794 10.4207 597.415 10.7188 597.141 11.1054C596.867 11.476 596.73 11.911 596.73 12.4105C596.73 12.8777 596.867 13.3047 597.141 13.6913C597.415 14.0619 597.794 14.36 598.277 14.5855C598.776 14.795 599.34 14.8997 599.969 14.8997Z" fill="#FFBA72"/>
<path d="M576.999 0.423828H583.404C585.305 0.423828 586.956 0.794392 588.358 1.53552C589.76 2.26053 590.831 3.25944 591.572 4.53225C592.313 5.80505 592.684 7.24703 592.684 8.85817C592.684 10.4049 592.313 11.8227 591.572 13.1116C590.831 14.3844 589.76 15.3994 588.358 16.1567C586.956 16.8978 585.305 17.2684 583.404 17.2684H576.999V0.423828ZM579.803 14.2233H583.162C584.338 14.2233 585.353 13.9977 586.207 13.5466C587.077 13.0955 587.738 12.4671 588.189 11.6616C588.656 10.8399 588.89 9.90542 588.89 8.85817C588.89 7.81093 588.656 6.88452 588.189 6.07895C587.738 5.25727 587.077 4.62086 586.207 4.16974C585.353 3.70251 584.338 3.46889 583.162 3.46889H579.803L580.721 2.57471V15.1416L579.803 14.2233Z" fill="#FFBA72"/>
<path d="M572.207 0.423828H575.929V17.2684H572.207V0.423828Z" fill="#FFBA72"/>
<path d="M555.166 0.423828H559.057C559.363 1.2294 559.653 1.98664 559.927 2.69554C560.7 4.93504 561.272 6.64285 561.643 7.81899C562.013 8.97901 562.271 10.0182 562.416 10.9366C562.561 11.8549 562.633 12.9747 562.633 14.2958H564.639C564.639 13.0069 564.712 11.9113 564.857 11.0091C565.002 10.0907 565.252 9.06762 565.606 7.93982C565.977 6.79591 566.516 5.15254 567.225 3.00972C567.564 2.15581 567.902 1.29385 568.24 0.423828H572.131L565.848 17.2684H561.449L555.166 0.423828Z" fill="#FFBA72"/>
<path d="M554.862 17.2684L553.05 12.6524L554.185 13.4499H545.219L546.355 12.6524L544.519 17.2684H540.555L547.733 0.423828H551.648L558.85 17.2684H554.862ZM548.724 3.22722C548.74 3.85557 548.732 4.44364 548.7 4.99143C548.667 5.5231 548.595 6.05478 548.482 6.58646C548.385 7.10203 548.248 7.6337 548.071 8.18149C547.862 8.77762 547.411 9.78458 546.718 11.2024L546.186 10.6465H553.195L552.663 11.2024C552.325 10.5096 552.01 9.8007 551.72 9.07568C551.302 8.06066 551.028 7.11814 550.899 6.24812C550.77 5.36199 550.722 4.35502 550.754 3.22722H548.724Z" fill="#FFBA72"/>
<path d="M526.463 0.423828H532.867C534.768 0.423828 536.42 0.794392 537.821 1.53552C539.223 2.26053 540.295 3.25944 541.036 4.53225C541.777 5.80505 542.147 7.24703 542.147 8.85817C542.147 10.4049 541.777 11.8227 541.036 13.1116C540.295 14.3844 539.223 15.3994 537.821 16.1567C536.42 16.8978 534.768 17.2684 532.867 17.2684H526.463V0.423828ZM529.266 14.2233H532.626C533.802 14.2233 534.817 13.9977 535.671 13.5466C536.541 13.0955 537.201 12.4671 537.652 11.6616C538.12 10.8399 538.353 9.90542 538.353 8.85817C538.353 7.81093 538.12 6.88452 537.652 6.07895C537.201 5.25727 536.541 4.62086 535.671 4.16974C534.817 3.70251 533.802 3.46889 532.626 3.46889H529.266L530.185 2.57471V15.1416L529.266 14.2233Z" fill="#FFBA72"/>
<path d="M507.814 0.423828H521.13V3.46889H510.618L511.536 2.59887V8.18149L510.618 7.33564H520.381V10.2115H510.618L511.536 9.41402V15.1416L510.618 14.2233H521.42V17.2684H507.814V0.423828Z" fill="#FFBA72"/>
<path d="M503.022 0.423828H506.743V17.2684H503.022V0.423828Z" fill="#FFBA72"/>
<path d="M487.584 0.423828H495.415C497.557 0.423828 499.161 0.802447 500.224 1.55969C501.287 2.30081 501.819 3.42056 501.819 4.91892C501.819 5.83728 501.577 6.60257 501.094 7.21481C500.611 7.82704 499.958 8.29427 499.136 8.6165C498.315 8.93873 497.388 9.13207 496.357 9.19652V11.1299C497.098 11.1621 497.735 11.3232 498.266 11.6132C498.814 11.8871 499.322 12.3382 499.789 12.9666L499.861 13.0633L502.955 17.2684H498.581L495.922 13.4741C495.858 13.3774 495.793 13.2808 495.729 13.1841C495.262 12.5235 494.883 12.0563 494.593 11.7824C494.319 11.5085 494.013 11.3232 493.675 11.2266C493.336 11.1138 492.845 11.0574 492.2 11.0574H490.388L491.306 10.1632V17.2684H487.584V0.423828ZM490.388 8.68901H494.738C495.479 8.68901 496.091 8.59234 496.575 8.399C497.074 8.18955 497.445 7.88343 497.686 7.48064C497.944 7.07786 498.073 6.57035 498.073 5.95811C498.073 5.07198 497.799 4.41141 497.251 3.9764C496.704 3.54139 495.866 3.32389 494.738 3.32389H490.388L491.306 2.38137V9.55902L490.388 8.68901Z" fill="#FFBA72"/>
<path d="M483.506 17.2684L481.693 12.6524L482.829 13.4499H473.863L474.999 12.6524L473.162 17.2684H469.199L476.377 0.423828H480.292L487.494 17.2684H483.506ZM477.367 3.22722C477.384 3.85557 477.376 4.44364 477.343 4.99143C477.311 5.5231 477.239 6.05478 477.126 6.58646C477.029 7.10203 476.892 7.6337 476.715 8.18149C476.506 8.77762 476.054 9.78458 475.362 11.2024L474.83 10.6465H481.838L481.307 11.2024C480.968 10.5096 480.654 9.8007 480.364 9.07568C479.945 8.06066 479.671 7.11814 479.543 6.24812C479.414 5.36199 479.365 4.35502 479.398 3.22722H477.367Z" fill="#FFBA72"/>
<path d="M451.212 0.423828H456.432C456.883 1.5033 457.286 2.50221 457.64 3.42056C457.995 4.3228 458.269 5.13643 458.462 5.86144C458.704 6.68313 458.881 7.45648 458.994 8.18149C459.107 8.8904 459.163 9.61541 459.163 10.3565H461.12C461.12 9.53486 461.193 8.71317 461.338 7.89149C461.483 7.05369 461.709 6.16756 462.015 5.2331C462.321 4.29863 462.748 3.15472 463.296 1.80136C463.376 1.5758 463.561 1.11662 463.851 0.423828H469.096V17.2684H465.374C465.374 15.7861 465.398 14.3119 465.446 12.8458C465.511 11.4763 465.616 10.3646 465.761 9.51069C465.922 8.64067 466.131 7.85927 466.389 7.16647C466.647 6.47368 467.009 5.66005 467.476 4.72559L465.543 4.02474L461.555 14.2716H458.704L454.74 4.02474L452.831 4.79809C453.298 5.73255 453.661 6.53813 453.919 7.21481C454.176 7.89149 454.378 8.64873 454.523 9.48652C454.684 10.3082 454.797 11.3796 454.861 12.7008C454.909 14.2152 454.934 15.7378 454.934 17.2684H451.212V0.423828Z" fill="#FFBA72"/>
</svg>
