<svg width="103" height="17" viewBox="0 0 103 17" fill="none" xmlns="http://www.w3.org/2000/svg">
<path d="M30.8081 3.52242V4.20621H25.8332L21.4562 8.17584H30.8081V8.85963H21.4562L26.5897 13.5131H25.5209L20.0129 8.51774L25.5209 3.52242H30.8081Z" fill="#FFE600"/>
<path fill-rule="evenodd" clip-rule="evenodd" d="M52.9946 4.98551C54.0281 4.04871 55.4298 3.52242 56.8913 3.52242H62.025V4.20621H56.8913C55.6299 4.20621 54.4201 4.66046 53.528 5.46903C51.6705 7.15278 51.6705 9.88269 53.528 11.5664C54.4201 12.375 55.6299 12.8293 56.8913 12.8293H62.025V13.5131H56.8913C55.4298 13.5131 54.0281 12.9868 52.9946 12.05C50.8425 10.0992 50.8425 6.93631 52.9946 4.98551Z" fill="#FFE600"/>
<path d="M71.9801 8.84138V13.5131H71.199V8.54811L76.7432 3.52242H77.8476L71.9801 8.84138Z" fill="#FFE600"/>
<path fill-rule="evenodd" clip-rule="evenodd" d="M16.0578 3.52242H21.345V4.20621H16.3701L11.9931 8.17584H21.345V8.85963H11.9931L16.3701 12.8293H21.345V13.5131H16.0578L10.5498 8.51774L16.0578 3.52242Z" fill="#FFE600"/>
<path fill-rule="evenodd" clip-rule="evenodd" d="M1.22498 3.52242H12.8119L7.28589 8.51888L12.8077 13.5131H11.7393L1.98142 4.69V13.5131H1.22498V3.52242ZM2.51631 4.20637H10.9857L6.751 8.03525L2.51631 4.20637Z" fill="#FFE600"/>
<path fill-rule="evenodd" clip-rule="evenodd" d="M32.5801 3.52242H44.167L38.641 8.51888L44.1628 13.5131H43.0944L33.3365 4.69V13.5131H32.5801V3.52242ZM33.8714 4.20637H42.3408L38.1061 8.03525L33.8714 4.20637Z" fill="#FFE600"/>
<path fill-rule="evenodd" clip-rule="evenodd" d="M64.1382 8.84138V13.5131H63.3571V8.54811L68.1202 4.23044H63.7476V3.52242H74.3785V4.23044H69.2248L64.1382 8.84138Z" fill="#FFE600"/>
<path fill-rule="evenodd" clip-rule="evenodd" d="M82.6414 4.07839C79.9367 4.07839 77.744 6.06595 77.744 8.51774C77.744 10.9695 79.9367 12.9571 82.6414 12.9571C85.3461 12.9571 87.5388 10.9695 87.5388 8.51774C87.5388 6.06595 85.3461 4.07839 82.6414 4.07839ZM76.9673 8.51774C76.9673 5.67711 79.5077 3.37432 82.6414 3.37432C85.7751 3.37432 88.3155 5.67711 88.3155 8.51774C88.3155 11.3584 85.7751 13.6612 82.6414 13.6612C79.5077 13.6612 76.9673 11.3584 76.9673 8.51774Z" fill="#FFE600"/>
<path d="M89.6476 3.52242L89.6476 13.5129H90.5271L90.5272 4.31841L100.67 13.513H101.775L101.774 13.5129H101.775L101.775 3.52242H100.895L100.895 12.7158L90.7535 3.52243H90.5272L89.6476 3.52242Z" fill="#FFE600"/>
<path fill-rule="evenodd" clip-rule="evenodd" d="M50.2118 13.5129H49.3323L49.3323 8.86519H44.3164L39.1891 13.513H38.0847L49.1059 3.52243H49.3322L50.2118 3.52242L50.2118 13.5129ZM49.3323 8.17029L49.3322 4.31841L45.083 8.17029H49.3323Z" fill="#FFE600"/>
<path fill-rule="evenodd" clip-rule="evenodd" d="M101.774 13.513L101.774 13.513L101.775 13.513L101.775 13.513L101.774 13.5129H101.775L101.775 3.52242H100.895L100.895 12.7158L90.7535 3.52243H90.5272L89.6476 3.52242L89.6476 13.5129H90.5271L90.5272 4.31841L100.67 13.513H101.774ZM90.7785 4.86846L100.566 13.7409H102.026V13.4187L102.026 3.29458H100.644L100.644 12.1658L90.8576 3.2946H90.7785L89.3963 3.29458L89.3963 13.7407H90.7785L90.7785 4.86846ZM31.0594 4.43405H25.9374L22.0628 7.948H31.0594V9.08747H22.063L27.1965 13.7409H25.4168L20.2857 9.08747H12.5997L16.4743 12.6014H21.5964V13.7409H15.9537L10.1945 8.51774L15.9537 3.29458H21.5964V4.43405H16.4743L12.5997 7.948H20.2857L25.4168 3.29458H31.0594V4.43405ZM20.3899 8.17584H11.9931L16.3701 4.20621H21.345V3.52242H16.0578L10.5498 8.51774L16.0578 13.5131H21.345V12.8293H16.3701L11.9931 8.85963H20.3899L25.5209 13.5131H26.5897L21.4562 8.85963H30.8081V8.17584H21.4562L25.8332 4.20621H30.8081V3.52242H25.5209L20.3899 8.17584ZM62.2763 3.29458V4.43405H56.8913C55.6965 4.43405 54.5506 4.86429 53.7058 5.63013C51.9464 7.22491 51.9464 9.81056 53.7058 11.4053C54.5506 12.1712 55.6965 12.6014 56.8913 12.6014H62.2763V13.7409H56.8913C55.3631 13.7409 53.8975 13.1906 52.8169 12.2111C50.5667 10.1713 50.5667 6.86418 52.8169 4.8244C53.8975 3.84487 55.3631 3.29458 56.8913 3.29458H62.2763ZM72.2314 13.7409H70.9476V8.45373L76.6391 3.29458H78.4544L72.2314 8.93575V13.7409ZM71.9801 8.84138L77.8476 3.52242H76.7432L71.199 8.54811V13.5131H71.9801V8.84138ZM0.973633 3.29458H13.4198L7.64177 8.51891L13.4155 13.7409H11.6354L2.23276 5.23907V13.7409H0.973633V3.29458ZM1.98142 4.69L11.7393 13.5131H12.8077L7.28589 8.51888L12.8119 3.52242H1.22498V13.5131H1.98142V4.69ZM32.3287 3.29458H44.7749L38.9969 8.5189L41.1201 10.4393L49.0018 3.2946H49.0809L50.4631 3.29458L50.4631 13.7407H49.0809L49.0809 9.09302H44.4205L42.0288 11.2611L44.7706 13.7409H42.9905L41.1395 12.0672L39.2932 13.7409H37.4779L40.2307 11.2455L33.5879 5.23907V13.7409H32.3287V3.29458ZM33.3365 4.69L40.5864 11.2453L38.0847 13.513H39.1891L41.1393 11.7452L43.0944 13.5131H44.1628L41.6731 11.2613L44.3164 8.86519H49.3323L49.3323 13.5129H50.2118L50.2118 3.52242L49.3322 3.52243H49.1059L41.1203 10.7613L38.641 8.51888L44.167 3.52242H32.5801V13.5131H33.3365V4.69ZM64.3895 13.7409H63.1057V8.45373L67.5134 4.45828H63.4963V3.29458H74.6298V4.45828H69.3289L64.3895 8.93575V13.7409ZM64.1382 8.84138L69.2248 4.23044H74.3785V3.52242H63.7476V4.23044H68.1202L63.3571 8.54811V13.5131H64.1382V8.84138ZM56.8913 3.52242C55.4298 3.52242 54.0281 4.04871 52.9946 4.98551C50.8425 6.93631 50.8425 10.0992 52.9946 12.05C54.0281 12.9868 55.4298 13.5131 56.8913 13.5131H62.025V12.8293H56.8913C55.6299 12.8293 54.4201 12.375 53.528 11.5664C51.6705 9.88269 51.6705 7.15278 53.528 5.46903C54.4201 4.66046 55.6299 4.20621 56.8913 4.20621H62.025V3.52242H56.8913ZM2.51631 4.20637L6.751 8.03525L10.9857 4.20637H2.51631ZM3.1242 4.43421L6.751 7.71345L10.3778 4.43421H3.1242ZM33.8714 4.20637L38.1061 8.03525L42.3408 4.20637H33.8714ZM34.4793 4.43421L38.1061 7.71345L41.7329 4.43421H34.4793ZM82.6414 4.30623C80.0755 4.30623 77.9954 6.19178 77.9954 8.51774C77.9954 10.8437 80.0755 12.7292 82.6414 12.7292C85.2073 12.7292 87.2874 10.8437 87.2874 8.51774C87.2874 6.19178 85.2073 4.30623 82.6414 4.30623ZM76.716 8.51774C76.716 5.55128 79.3689 3.14648 82.6414 3.14648C85.9139 3.14648 88.5668 5.55128 88.5668 8.51774C88.5668 11.4842 85.9139 13.889 82.6414 13.889C79.3689 13.889 76.716 11.4842 76.716 8.51774ZM49.3322 4.31841L45.083 8.17029H49.3323L49.3322 4.31841ZM49.0809 4.86846L49.0809 7.94245H45.6898L49.0809 4.86846ZM77.744 8.51774C77.744 6.06595 79.9367 4.07839 82.6414 4.07839C85.3461 4.07839 87.5388 6.06595 87.5388 8.51774C87.5388 10.9695 85.3461 12.9571 82.6414 12.9571C79.9367 12.9571 77.744 10.9695 77.744 8.51774ZM82.6414 3.37432C79.5077 3.37432 76.9673 5.67711 76.9673 8.51774C76.9673 11.3584 79.5077 13.6612 82.6414 13.6612C85.7751 13.6612 88.3155 11.3584 88.3155 8.51774C88.3155 5.67711 85.7751 3.37432 82.6414 3.37432Z" fill="#FFE600"/>
</svg>
