<svg width="1680" height="208" viewBox="0 0 1680 208" fill="none" xmlns="http://www.w3.org/2000/svg">
<path d="M101 208H0V178.353H33.2343V29.6469H0V0H101V29.6469H66.6324V178.353H101V208Z" fill="white"/>
<path d="M267.986 208H225.536L170.772 123.842H155.538V208H122V0H191.668C214.895 0 232.926 5.2337 245.787 15.7011C258.635 26.1686 265.066 41.6539 265.066 62.1572C265.066 71.2892 263.626 79.3421 260.774 86.3024C257.908 93.2628 253.863 99.2384 248.626 104.229C243.388 109.22 237.286 113.186 230.321 116.1C223.355 119.027 215.814 121.01 207.724 122.075L268 207.987L267.986 208ZM231.527 61.5097C231.527 50.8804 227.99 42.9084 220.915 37.6072C213.84 32.2926 204.091 29.6353 191.668 29.6353H155.538V93.8698H191.668C204.091 93.8698 213.84 91.2125 220.915 85.8978C227.99 80.5831 231.527 72.4493 231.527 61.5097Z" fill="white"/>
<path d="M412 207.987H277V0H310.507V178.353H412V208V207.987Z" fill="white"/>
<path d="M1378 208C1320.66 208 1274 161.339 1274 104C1274 76.2191 1284.81 50.108 1304.46 30.4607C1324.11 10.8134 1350.22 0 1378 0C1435.34 0 1482 46.6471 1482 104C1482 161.353 1435.35 208 1378 208ZM1378 1.6698C1350.66 1.6698 1324.97 12.3082 1305.63 31.6457C1286.31 50.9698 1275.66 76.6769 1275.66 104.013C1275.66 160.437 1321.56 206.344 1377.99 206.344C1434.41 206.344 1480.32 160.437 1480.32 104.013C1480.32 47.5898 1434.41 1.68328 1377.99 1.68328" fill="white"/>
<path d="M1444 208C1386.66 208 1340 161.339 1340 104C1340 76.2191 1350.81 50.108 1370.46 30.4607C1390.11 10.8134 1416.22 0 1444 0C1501.34 0 1548 46.6471 1548 104C1548 161.353 1501.35 208 1444 208ZM1444 1.6698C1416.66 1.6698 1390.97 12.3082 1371.63 31.6457C1352.29 50.9833 1341.66 76.6769 1341.66 104.013C1341.66 160.437 1387.56 206.344 1443.99 206.344C1500.41 206.344 1546.32 160.437 1546.32 104.013C1546.32 47.5898 1500.41 1.68328 1443.99 1.68328" fill="white"/>
<path d="M1510 208C1452.66 208 1406 161.339 1406 104C1406 76.2191 1416.81 50.108 1436.46 30.4607C1456.11 10.8134 1482.22 0 1510 0C1567.34 0 1614 46.6471 1614 104C1614 161.353 1567.35 208 1510 208ZM1510 1.6698C1482.66 1.6698 1456.97 12.3082 1437.63 31.6457C1418.29 50.9833 1407.66 76.6769 1407.66 104.013C1407.66 160.437 1453.56 206.344 1509.99 206.344C1566.41 206.344 1612.32 160.437 1612.32 104.013C1612.32 47.5898 1566.41 1.68328 1509.99 1.68328" fill="white"/>
<path d="M1576 208C1518.66 208 1472 161.339 1472 104C1472 46.6606 1518.65 0 1576 0C1633.35 0 1680 46.6471 1680 104C1680 161.353 1633.35 208 1576 208ZM1576 1.6698C1519.58 1.6698 1473.67 47.5763 1473.67 104C1473.67 160.424 1519.58 206.33 1576 206.33C1632.42 206.33 1678.33 160.424 1678.33 104C1678.33 47.5763 1632.42 1.6698 1576 1.6698Z" fill="white"/>
<path d="M1114 208C1056.66 208 1010 161.353 1010 104C1010 46.6471 1056.65 0 1114 0C1171.34 0 1218 46.6606 1218 104C1218 161.339 1171.35 208 1114 208ZM1114 1.6698C1057.58 1.6698 1011.67 47.5763 1011.67 104C1011.67 160.424 1057.58 206.33 1114 206.33C1170.42 206.33 1216.33 160.424 1216.33 104C1216.33 47.5763 1170.42 1.6698 1114 1.6698Z" fill="white"/>
<path d="M1180 208C1122.66 208 1076 161.353 1076 104C1076 46.6471 1122.65 0 1180 0C1237.34 0 1284 46.6606 1284 104C1284 161.339 1237.35 208 1180 208ZM1180 1.6698C1123.58 1.6698 1077.67 47.5763 1077.67 104C1077.67 160.424 1123.58 206.33 1180 206.33C1236.42 206.33 1282.33 160.424 1282.33 104C1282.33 47.5763 1236.42 1.6698 1180 1.6698Z" fill="white"/>
<path d="M1246 208C1188.66 208 1142 161.353 1142 104C1142 46.6471 1188.65 0 1246 0C1303.34 0 1350 46.6606 1350 104C1350 161.339 1303.35 208 1246 208ZM1246 1.6698C1189.58 1.6698 1143.67 47.5763 1143.67 104C1143.67 160.424 1189.58 206.33 1246 206.33C1302.42 206.33 1348.33 160.424 1348.33 104C1348.33 47.5763 1302.42 1.6698 1246 1.6698Z" fill="white"/>
<path d="M1312 208C1254.66 208 1208 161.353 1208 104C1208 46.6471 1254.65 0 1312 0C1369.34 0 1416 46.6606 1416 104C1416 161.339 1369.35 208 1312 208ZM1312 1.6698C1255.58 1.6698 1209.67 47.5763 1209.67 104C1209.67 160.424 1255.58 206.33 1312 206.33C1368.42 206.33 1414.33 160.424 1414.33 104C1414.33 47.5763 1368.42 1.6698 1312 1.6698Z" fill="white"/>
<path d="M850 208C792.661 208 746 161.353 746 104C746 46.6471 792.647 0 850 0C907.353 0 954 46.6471 954 104C954 161.353 907.353 208 850 208ZM850 1.6698C793.576 1.6698 747.67 47.5763 747.67 104C747.67 160.424 793.576 206.33 850 206.33C906.424 206.33 952.33 160.424 952.33 104C952.33 47.5763 906.424 1.6698 850 1.6698Z" fill="white"/>
<path d="M916 208C858.661 208 812 161.353 812 104C812 46.6471 858.647 0 916 0C973.353 0 1020 46.6471 1020 104C1020 161.353 973.353 208 916 208ZM916 1.6698C859.576 1.6698 813.67 47.5763 813.67 104C813.67 160.424 859.576 206.33 916 206.33C972.424 206.33 1018.33 160.424 1018.33 104C1018.33 47.5763 972.424 1.6698 916 1.6698Z" fill="white"/>
<path d="M982 208C924.661 208 878 161.353 878 104C878 46.6471 924.647 0 982 0C1039.35 0 1086 46.6471 1086 104C1086 161.353 1039.35 208 982 208ZM982 1.6698C925.576 1.6698 879.67 47.5763 879.67 104C879.67 160.424 925.576 206.33 982 206.33C1038.42 206.33 1084.33 160.424 1084.33 104C1084.33 47.5763 1038.42 1.6698 982 1.6698Z" fill="white"/>
<path d="M1048 208C990.661 208 944 161.353 944 104C944 46.6471 990.647 0 1048 0C1105.35 0 1152 46.6471 1152 104C1152 161.353 1105.35 208 1048 208ZM1048 1.6698C991.576 1.6698 945.67 47.5763 945.67 104C945.67 160.424 991.576 206.33 1048 206.33C1104.42 206.33 1150.33 160.424 1150.33 104C1150.33 47.5763 1104.42 1.6698 1048 1.6698Z" fill="white"/>
<path d="M586 208C528.661 208 482 161.353 482 104C482 46.6471 528.647 0 586 0C643.353 0 690 46.6471 690 104C690 161.353 643.353 208 586 208ZM586 1.6698C529.576 1.6698 483.67 47.5763 483.67 104C483.67 160.424 529.576 206.33 586 206.33C642.424 206.33 688.33 160.424 688.33 104C688.33 47.5763 642.424 1.6698 586 1.6698Z" fill="white"/>
<path d="M652 208C624.219 208 598.108 197.187 578.461 177.539C558.813 157.892 548 131.781 548 104C548 46.6606 594.647 0 652 0C709.353 0 756 46.6471 756 104C756 161.353 709.353 208 652 208ZM652 1.6698C595.576 1.6698 549.67 47.5763 549.67 104C549.67 131.337 560.308 157.03 579.646 176.368C598.97 195.692 624.677 206.344 652.013 206.344C708.437 206.344 754.344 160.437 754.344 104.013C754.344 47.5898 708.437 1.68328 652.013 1.68328" fill="white"/>
<path d="M718 208C660.661 208 614 161.353 614 104C614 46.6471 660.647 0 718 0C775.353 0 822 46.6471 822 104C822 161.353 775.353 208 718 208ZM718 1.6698C661.576 1.6698 615.67 47.5763 615.67 104C615.67 160.424 661.576 206.33 718 206.33C774.424 206.33 820.33 160.424 820.33 104C820.33 47.5763 774.424 1.6698 718 1.6698Z" fill="white"/>
<path d="M784 208C726.661 208 680 161.353 680 104C680 46.6471 726.647 0 784 0C841.353 0 888 46.6471 888 104C888 161.353 841.353 208 784 208ZM784 1.6698C727.576 1.6698 681.67 47.5763 681.67 104C681.67 160.424 727.576 206.33 784 206.33C840.424 206.33 886.33 160.424 886.33 104C886.33 47.5763 840.424 1.6698 784 1.6698Z" fill="white"/>
</svg>
