<svg width="111" height="104" viewBox="0 0 111 104" fill="none" xmlns="http://www.w3.org/2000/svg">
<g clip-path="url(#clip0_7704_182914)">
<path d="M39.5509 94.3221C17.8362 90.7531 3.32741 68.2448 7.19039 44.077C9.0636 32.3554 14.9295 21.9939 23.7054 14.8995C32.4957 7.79374 43.1531 4.81633 53.7148 6.51473C53.7556 6.52143 53.7989 6.52854 53.8397 6.53525C75.5544 10.1042 90.0632 32.6125 86.2002 56.7803C84.327 68.5019 78.4611 78.8635 69.6853 85.9579C60.8949 93.0636 50.2375 96.041 39.6758 94.3426C39.635 94.3359 39.5917 94.3288 39.5509 94.3221ZM53.7151 7.29356C53.673 7.28665 53.6347 7.28035 53.5927 7.27344C43.2549 5.61061 32.8177 8.53045 24.2017 15.4948C15.5725 22.4696 9.80496 32.6648 7.96113 44.1999C4.16573 67.9488 18.3865 90.0623 39.6756 93.5638C39.7176 93.5707 39.7571 93.5772 39.7979 93.5839C50.1357 95.2468 60.5729 92.3269 69.1889 85.3625C77.8182 78.3878 83.5867 68.194 85.4295 56.6574C89.2249 32.9085 75.0033 10.7924 53.7138 7.29336L53.7151 7.29356Z" fill="#313131"/>
<path d="M43.7387 94.9955C22.0239 91.4265 7.51516 68.9182 11.3781 44.7504C13.2513 33.0288 19.1173 22.6672 27.8931 15.5728C36.6835 8.46708 47.3409 5.48967 57.9026 7.18807C57.9434 7.19477 57.9866 7.20188 58.0274 7.20859C79.7422 10.7776 94.2509 33.2859 90.388 57.4537C88.5148 69.1753 82.6488 79.5368 73.873 86.6312C65.0826 93.737 54.4252 96.7144 43.8635 95.016C43.8227 95.0093 43.7795 95.0022 43.7387 94.9955ZM57.9038 7.96832C57.8618 7.96141 57.8223 7.95491 57.7815 7.94821C47.4437 6.28537 37.0065 9.20522 28.3904 16.1696C19.7612 23.1443 13.9927 33.3381 12.1499 44.8747C8.35451 68.6236 22.5753 90.737 43.8643 94.2386C43.9064 94.2455 43.9459 94.252 43.9867 94.2587C54.3245 95.9215 64.7617 93.0017 73.3777 86.0373C82.0069 79.0626 87.7755 68.8688 89.6183 57.3322C93.4137 33.5833 79.1933 11.4674 57.9038 7.96832Z" fill="#313131"/>
<path d="M47.9318 95.6698C26.2171 92.1008 11.7083 69.5925 15.5712 45.4247C17.4445 33.7031 23.3104 23.3415 32.0862 16.2471C40.8766 9.1414 51.534 6.16399 62.0957 7.86238C62.1365 7.86909 62.1798 7.8762 62.2206 7.8829C83.9353 11.4519 98.4441 33.9602 94.5811 58.128C92.7079 69.8496 86.842 80.2112 78.0661 87.3055C69.2757 94.4113 58.6184 97.3887 48.0566 95.6903C48.0158 95.6836 47.9726 95.6765 47.9318 95.6698ZM62.0957 8.64243C62.0537 8.63553 62.0141 8.62902 61.9733 8.62232C51.6356 6.95948 41.1984 9.87933 32.5823 16.8437C23.9531 23.8184 18.1846 34.0122 16.3418 45.5488C12.5464 69.2977 26.7684 91.4114 48.0574 94.9129C48.0995 94.9198 48.1378 94.9261 48.1798 94.933C58.5176 96.5958 68.9548 93.676 77.5708 86.7116C86.2 79.7369 91.9688 69.5419 93.8114 58.0065C97.6068 34.2576 83.3864 12.1417 62.097 8.64264L62.0957 8.64243Z" fill="#313131"/>
<path d="M52.1208 96.3433C30.406 92.7743 15.8973 70.266 19.759 46.098C21.6322 34.3764 27.4981 24.0149 36.274 16.9205C45.0643 9.81474 55.7217 6.83733 66.2834 8.53572C66.3242 8.54243 66.3675 8.54954 66.4083 8.55624C88.123 12.1252 102.632 34.6335 98.7688 58.8013C96.8956 70.5229 91.0297 80.8845 82.2541 87.9777C73.4637 95.0834 62.8063 98.0608 52.2446 96.3624C52.2038 96.3557 52.1605 96.3486 52.1197 96.3419L52.1208 96.3433ZM66.2847 9.31598C66.2427 9.30907 66.2031 9.30257 66.1623 9.29586C55.8245 7.63302 45.3874 10.5529 36.7713 17.5173C28.1421 24.492 22.3748 34.686 20.5308 46.2224C16.7354 69.9712 30.9574 92.0849 52.2464 95.5864C52.2885 95.5933 52.3268 95.5996 52.3688 95.6065C62.7066 97.2694 73.1437 94.3495 81.7598 87.3852C90.389 80.4104 96.1578 70.2154 98.0004 58.68C101.796 34.9299 87.5754 12.8153 66.2859 9.31618L66.2847 9.31598Z" fill="#313131"/>
<path d="M56.3128 97.0172C34.5981 93.4482 20.0893 70.9399 23.9523 46.7721C25.8255 35.0505 31.6914 24.6889 40.4671 17.5958C49.2575 10.49 59.9148 7.51262 70.4766 9.21102C70.5174 9.21772 70.5606 9.22483 70.6014 9.23154C92.3161 12.8005 106.825 35.3088 102.962 59.4766C101.089 71.1982 95.2228 81.5598 86.4472 88.6529C77.6568 95.7587 66.9994 98.7361 56.4377 97.0377C56.3969 97.031 56.3536 97.0239 56.3128 97.0172ZM70.4768 9.98985C70.4347 9.98294 70.3952 9.97644 70.3544 9.96973C60.0166 8.30689 49.5795 11.2267 40.9634 18.1911C32.3342 25.1658 26.5654 35.3609 24.7228 46.8962C20.9275 70.6451 35.1494 92.7588 56.4385 96.2603C56.4805 96.2672 56.5189 96.2735 56.5609 96.2804C66.8987 97.9432 77.3358 95.0234 85.9519 88.059C94.5811 81.0843 100.35 70.8893 102.192 59.3539C105.988 35.6038 91.7675 13.4891 70.478 9.99005L70.4768 9.98985Z" fill="#313131"/>
<path d="M44.3613 59.6546L35.2173 58.1517L35.657 55.4763L38.6659 55.9708L40.8715 42.5513L37.8626 42.0567L38.3023 39.3813L47.4463 40.8842L47.0066 43.5596L43.8951 43.0482L41.6895 56.4678L44.801 56.9792L44.3613 59.6546Z" fill="#313131"/>
<path d="M59.3984 62.1262L55.5711 61.4971L51.882 53.0916L50.5086 52.8659L49.2605 60.4599L46.2368 59.963L49.3216 41.1938L55.6026 42.2262C57.6967 42.5704 59.2447 43.3098 60.249 44.4449C61.252 45.5798 61.6021 47.0725 61.298 48.9226C61.1626 49.7466 60.9134 50.452 60.553 51.0378C60.1914 51.6234 59.7381 52.1027 59.1919 52.4754C58.6456 52.8482 58.0367 53.1156 57.3655 53.2753C56.6942 53.4362 55.9849 53.5034 55.2397 53.4797L59.3998 62.1252L59.3984 62.1262ZM58.284 48.3672C58.4416 47.4081 58.2409 46.6363 57.6816 46.0531C57.1226 45.4687 56.2831 45.0844 55.1631 44.9004L51.9058 44.365L50.9531 50.1613L54.2104 50.6966C55.3304 50.8807 56.2488 50.7854 56.9655 50.4106C57.6821 50.0359 58.1217 49.3544 58.284 48.3672Z" fill="#313131"/>
<path d="M72.4088 64.2646L60.2263 62.2623L63.3111 43.4932L66.3348 43.9901L63.6895 60.0851L72.8483 61.5904L72.4086 64.2658L72.4088 64.2646Z" fill="#313131"/>
</g>
<defs>
<clipPath id="clip0_7704_182914">
<rect width="97" height="89" fill="white" transform="translate(14.4342) rotate(9.33354)"/>
</clipPath>
</defs>
</svg>
