<svg width="393" height="298" viewBox="0 0 393 298" fill="none" xmlns="http://www.w3.org/2000/svg">
<g clip-path="url(#clip0_7704_182728)">
<path d="M196 25.1992C307.473 25.1992 398 124.723 398 247.699C398 370.675 307.473 470.199 196 470.199C84.5268 470.199 -6 370.675 -6 247.699C-6 124.723 84.5268 25.1992 196 25.1992Z" stroke="#131313" stroke-width="2"/>
<path d="M196 49.1992C307.475 49.1992 398 148.501 398 271.199C398 393.897 307.475 493.199 196 493.199C84.5248 493.199 -6 393.897 -6 271.199C-6 148.501 84.5248 49.1992 196 49.1992Z" stroke="#131313" stroke-width="2"/>
<path d="M196 74.1992C307.475 74.1992 398 173.501 398 296.199C398 418.897 307.475 518.199 196 518.199C84.5248 518.199 -6 418.897 -6 296.199C-6 173.501 84.5248 74.1992 196 74.1992Z" stroke="#131313" stroke-width="2"/>
<path d="M196 96.1992C307.475 96.1992 398 195.501 398 318.199C398 440.897 307.475 540.199 196 540.199C84.5248 540.199 -6 440.897 -6 318.199C-6 195.501 84.5248 96.1992 196 96.1992Z" stroke="#131313" stroke-width="2"/>
<path d="M196 119.199C307.473 119.199 398 218.723 398 341.699C398 464.675 307.473 564.199 196 564.199C84.5268 564.199 -6 464.675 -6 341.699C-6 218.723 84.5268 119.199 196 119.199Z" stroke="#131313" stroke-width="2"/>
<path d="M179.879 216.7H163.594V211.865H168.954V187.614H163.594V182.779H179.879V187.614H174.332V211.865H179.879V216.7Z" fill="#131313"/>
<path d="M206.618 216.7H199.815L191.026 202.982H188.59V216.7H183.211V182.779H194.38C198.11 182.779 200.996 183.641 203.057 185.347C205.119 187.052 206.149 189.582 206.149 192.918C206.149 194.417 205.925 195.729 205.456 196.854C205.006 197.997 204.351 198.971 203.507 199.777C202.664 200.583 201.689 201.239 200.565 201.707C199.44 202.195 198.241 202.513 196.948 202.682L206.618 216.7ZM200.771 192.806C200.771 191.081 200.209 189.77 199.065 188.908C197.922 188.045 196.367 187.614 194.38 187.614H188.59V198.09H194.38C196.367 198.09 197.941 197.659 199.065 196.797C200.19 195.935 200.771 194.605 200.771 192.824" fill="#131313"/>
<path d="M229.766 216.7H208.102V182.779H213.461V211.865H229.766V216.7Z" fill="#131313"/>
<path d="M67.4028 271.456C64.8158 271.456 63.1388 269.701 63.1388 266.269C63.1388 263.344 64.4518 261.134 67.0908 261.134C68.8978 261.134 69.9768 262.265 69.9768 263.916L69.9768 268.778L68.9758 268.778L68.9758 268.076C68.6118 268.622 68.1048 268.895 67.4678 268.895C66.1678 268.895 65.2448 267.92 65.2448 266.308C65.2448 264.735 66.1288 263.708 67.4418 263.708C68.0918 263.708 68.5988 263.929 68.9628 264.423L68.9628 263.994C68.9628 262.811 68.4558 262.044 67.1038 262.044C64.9848 262.044 64.1918 263.786 64.1918 266.321C64.1918 269.35 65.4658 270.52 67.4548 270.52C68.2998 270.52 68.8718 270.208 69.3268 269.766L70.0288 270.546C69.2748 271.235 68.2868 271.456 67.4028 271.456ZM66.3368 266.308C66.3368 267.374 66.5968 268.063 67.6108 268.063C68.4948 268.063 68.9498 267.465 68.9498 266.321C68.9498 265.45 68.7548 264.553 67.6368 264.553C66.6618 264.553 66.3368 265.203 66.3368 266.308ZM84.2538 270.156C81.9528 270.156 80.7568 268.505 80.7568 265.45C80.7568 262.694 81.9008 260.744 84.3058 260.744C85.8788 260.744 87.0618 261.667 87.4648 263.461L86.1908 263.708C85.9828 262.577 85.4758 261.771 84.3188 261.771C83.6558 261.771 83.1618 261.953 82.7588 262.447C82.2388 263.097 82.0958 264.163 82.0958 265.45C82.0958 266.685 82.1998 267.712 82.6678 268.362C83.0318 268.869 83.5388 269.155 84.2798 269.155C85.3198 269.155 85.8658 268.427 86.1908 267.348L87.4908 267.686C86.8798 269.363 85.8398 270.156 84.2538 270.156ZM92.7703 270.156C90.5083 270.156 89.2733 268.518 89.2733 265.45C89.2733 262.655 90.4823 260.744 92.7703 260.744C95.0323 260.744 96.2413 262.668 96.2413 265.45C96.2413 268.271 95.0323 270.156 92.7703 270.156ZM90.6123 265.45C90.6123 266.802 90.7423 267.842 91.2363 268.479C91.5873 268.921 92.1333 269.155 92.7703 269.155C93.3683 269.155 93.9013 268.947 94.2393 268.531C94.7593 267.894 94.9153 266.789 94.9153 265.45C94.9153 264.267 94.8113 263.227 94.4083 262.577C94.0703 262.031 93.4853 261.771 92.8223 261.771C92.1333 261.771 91.5743 262.005 91.2233 262.486C90.7553 263.123 90.6123 264.176 90.6123 265.45ZM98.7129 270L98.7129 260.9L101.469 260.9C103.029 260.9 104.862 261.186 104.862 263.656C104.862 266.048 103.016 266.308 101.456 266.308L99.8829 266.308L99.8829 270L98.7129 270ZM99.8829 265.307L101.456 265.307C102.509 265.307 103.718 265.229 103.718 263.656C103.718 261.94 102.509 261.914 101.469 261.914L99.8829 261.914L99.8829 265.307ZM109.582 270L109.582 266.113L106.592 260.9L107.957 260.9L109.296 263.5C109.374 263.656 109.868 264.592 110.167 265.203C110.492 264.579 110.687 264.176 111.038 263.5L112.39 260.9L113.768 260.9L110.765 266.113L110.765 270L109.582 270ZM115.85 270L115.85 260.9L118.619 260.9C120.205 260.9 122.142 261.108 122.142 263.578C122.142 264.696 121.531 265.528 120.738 265.801C121.596 266.126 121.921 266.789 121.921 267.725C121.921 268.778 121.999 269.402 122.441 269.961L122.428 270L121.141 270C120.842 269.545 120.751 269.116 120.751 267.855C120.751 266.646 120.283 266.23 118.736 266.23L117.02 266.23L117.02 270L115.85 270ZM117.02 265.229L118.606 265.229C119.698 265.229 120.985 265.138 120.985 263.63C120.985 261.914 119.698 261.914 118.619 261.914L117.02 261.914L117.02 265.229ZM124.86 270L124.86 268.973L127.018 268.973L127.018 261.927L124.86 261.927L124.86 260.9L130.359 260.9L130.359 261.927L128.201 261.927L128.201 268.973L130.359 268.973L130.359 270L124.86 270ZM136.393 270.156C134.092 270.156 132.909 268.518 132.909 265.45C132.909 262.642 134.04 260.744 136.445 260.744C138.109 260.744 139.149 261.641 139.565 263.409L138.304 263.656C138.083 262.551 137.628 261.771 136.471 261.771C135.73 261.771 135.184 262.018 134.833 262.512C134.378 263.149 134.222 264.202 134.222 265.45C134.222 266.698 134.3 267.751 134.729 268.349C135.158 268.934 135.652 269.155 136.523 269.155C137.745 269.155 138.499 268.115 138.564 266.282L136.549 266.282L136.549 265.177L139.643 265.177L139.643 270L138.707 270L138.603 268.921C138.135 269.74 137.342 270.156 136.393 270.156ZM141.88 270L141.88 260.9L143.063 260.9L143.063 264.878L146.989 264.878L146.989 260.9L148.172 260.9L148.172 270L146.989 270L146.989 265.931L143.063 265.931L143.063 270L141.88 270ZM153.14 270L153.14 261.927L150.358 261.927L150.358 260.9L157.118 260.9L157.118 261.927L154.323 261.927L154.323 270L153.14 270ZM169.211 266.035L169.211 264.995L173.111 264.995L173.111 266.035L169.211 266.035ZM185.542 270L185.542 260.9L188.311 260.9C189.897 260.9 191.834 261.108 191.834 263.578C191.834 264.696 191.223 265.528 190.43 265.801C191.288 266.126 191.613 266.789 191.613 267.725C191.613 268.778 191.691 269.402 192.133 269.961L192.12 270L190.833 270C190.534 269.545 190.443 269.116 190.443 267.855C190.443 266.646 189.975 266.23 188.428 266.23L186.712 266.23L186.712 270L185.542 270ZM186.712 265.229L188.298 265.229C189.39 265.229 190.677 265.138 190.677 263.63C190.677 261.914 189.39 261.914 188.311 261.914L186.712 261.914L186.712 265.229ZM194.696 270L194.696 260.9L200.429 260.9L200.429 261.953L195.866 261.953L195.866 264.878L199.987 264.878L199.987 265.931L195.866 265.931L195.866 268.947L200.429 268.947L200.429 270L194.696 270ZM203.511 270L203.511 260.9L209.127 260.9L209.127 261.953L204.681 261.953L204.681 264.878L208.646 264.878L208.646 265.931L204.681 265.931L204.681 270L203.511 270ZM211.677 270L211.677 260.9L214.446 260.9C216.032 260.9 217.969 261.108 217.969 263.578C217.969 264.696 217.358 265.528 216.565 265.801C217.423 266.126 217.748 266.789 217.748 267.725C217.748 268.778 217.826 269.402 218.268 269.961L218.255 270L216.968 270C216.669 269.545 216.578 269.116 216.578 267.855C216.578 266.646 216.11 266.23 214.563 266.23L212.847 266.23L212.847 270L211.677 270ZM212.847 265.229L214.433 265.229C215.525 265.229 216.812 265.138 216.812 263.63C216.812 261.914 215.525 261.914 214.446 261.914L212.847 261.914L212.847 265.229ZM219.829 270L222.767 260.9L224.106 260.9L227.031 270L225.822 270L225.003 267.283L221.87 267.283L221.064 270L219.829 270ZM222.182 266.243L224.691 266.243L223.859 263.5C223.716 263.019 223.56 262.421 223.443 262.031L223.417 262.031C223.274 262.512 223.17 262.928 223.001 263.5L222.182 266.243ZM232.35 270.156C230.049 270.156 228.853 268.505 228.853 265.45C228.853 262.694 229.997 260.744 232.402 260.744C233.975 260.744 235.158 261.667 235.561 263.461L234.287 263.708C234.079 262.577 233.572 261.771 232.415 261.771C231.752 261.771 231.258 261.953 230.855 262.447C230.335 263.097 230.192 264.163 230.192 265.45C230.192 266.685 230.296 267.712 230.764 268.362C231.128 268.869 231.635 269.155 232.376 269.155C233.416 269.155 233.962 268.427 234.287 267.348L235.587 267.686C234.976 269.363 233.936 270.156 232.35 270.156ZM240.255 270L240.255 261.927L237.473 261.927L237.473 260.9L244.233 260.9L244.233 261.927L241.438 261.927L241.438 270L240.255 270ZM246.822 270L246.822 268.973L248.98 268.973L248.98 261.927L246.822 261.927L246.822 260.9L252.321 260.9L252.321 261.927L250.163 261.927L250.163 268.973L252.321 268.973L252.321 270L246.822 270ZM258.289 270.156C256.027 270.156 254.792 268.518 254.792 265.45C254.792 262.655 256.001 260.744 258.289 260.744C260.551 260.744 261.76 262.668 261.76 265.45C261.76 268.271 260.551 270.156 258.289 270.156ZM256.131 265.45C256.131 266.802 256.261 267.842 256.755 268.479C257.106 268.921 257.652 269.155 258.289 269.155C258.887 269.155 259.42 268.947 259.758 268.531C260.278 267.894 260.434 266.789 260.434 265.45C260.434 264.267 260.33 263.227 259.927 262.577C259.589 262.031 259.004 261.771 258.341 261.771C257.652 261.771 257.093 262.005 256.742 262.486C256.274 263.123 256.131 264.176 256.131 265.45ZM263.842 270L263.842 260.9L265.194 260.9L268.015 266.217C268.327 266.815 268.652 267.517 269.029 268.232L269.068 268.232C269.016 267.478 268.977 266.334 268.977 265.957L268.977 260.9L270.134 260.9L270.134 270L268.795 270L265.935 264.553C265.753 264.202 265.298 263.227 264.947 262.538L264.908 262.538C264.96 263.409 264.999 264.566 264.999 264.813L264.999 270L263.842 270ZM282.461 266.035L282.461 264.995L286.361 264.995L286.361 266.035L282.461 266.035ZM298.883 270C299.039 267.829 300.209 266.841 301.431 266.074C302.276 265.528 303.654 264.891 303.654 263.591C303.654 262.512 303.121 261.914 302.107 261.914C300.56 261.914 300.391 263.201 300.391 263.877L299.234 263.695C299.221 262.577 299.845 260.939 302.159 260.939C303.771 260.939 304.811 261.979 304.811 263.604C304.811 265.138 303.628 265.944 302.588 266.594C301.548 267.231 300.417 267.92 300.196 268.973L304.824 268.973L304.824 270L298.883 270ZM310.545 270.156C308.452 270.156 307.334 268.583 307.334 265.541C307.334 262.837 308.374 260.939 310.545 260.939C312.716 260.939 313.769 262.85 313.769 265.541C313.769 268.271 312.716 270.156 310.545 270.156ZM308.582 265.541C308.582 266.555 308.66 267.361 308.855 267.959L311.611 262.239C311.338 262.044 310.987 261.94 310.545 261.94C309.765 261.94 309.284 262.252 308.985 262.837C308.686 263.448 308.582 264.358 308.582 265.541ZM309.44 268.856C309.713 269.064 310.077 269.181 310.545 269.181C311.143 269.181 311.572 268.986 311.871 268.635C312.365 268.037 312.521 266.984 312.521 265.541C312.521 264.514 312.443 263.682 312.222 263.084L309.44 268.856ZM316.306 270C316.462 267.829 317.632 266.841 318.854 266.074C319.699 265.528 321.077 264.891 321.077 263.591C321.077 262.512 320.544 261.914 319.53 261.914C317.983 261.914 317.814 263.201 317.814 263.877L316.657 263.695C316.644 262.577 317.268 260.939 319.582 260.939C321.194 260.939 322.234 261.979 322.234 263.604C322.234 265.138 321.051 265.944 320.011 266.594C318.971 267.231 317.84 267.92 317.619 268.973L322.247 268.973L322.247 270L316.306 270ZM328.007 270.156C326.096 270.156 325.03 268.934 325.056 267.27L326.187 267.101C326.174 268.245 326.746 269.181 328.007 269.181C329.203 269.181 329.879 268.557 329.879 267.439C329.879 266.282 329.086 265.866 328.085 265.866L327.357 265.866L327.357 264.826L327.929 264.826C328.787 264.826 329.528 264.332 329.528 263.422C329.528 262.486 328.969 261.901 327.994 261.901C326.512 261.901 326.317 263.305 326.343 263.825L325.173 263.643C325.199 262.057 326.356 260.939 327.994 260.939C329.424 260.939 330.672 261.706 330.672 263.435C330.672 264.15 330.269 264.839 329.593 265.203C330.594 265.489 331.036 266.49 331.036 267.426C331.036 269.246 329.658 270.156 328.007 270.156Z" fill="#131313"/>
</g>
<defs>
<clipPath id="clip0_7704_182728">
<rect width="405" height="298" fill="white" transform="translate(-6)"/>
</clipPath>
</defs>
</svg>
