<svg width="124" height="114" viewBox="0 0 124 114" fill="none" xmlns="http://www.w3.org/2000/svg">
<g clip-path="url(#clip0_7704_182992)">
<path d="M51.2381 114C23.1067 114 0.138365 88.5648 0.00063823 57.2156C-0.0666236 42.0111 5.1846 27.6961 14.7838 16.9062C24.3991 6.09883 37.2252 0.121619 50.9002 0.0742188C50.9531 0.0742188 51.0091 0.0742188 51.062 0.0742188C79.1934 0.0742188 102.162 25.5094 102.299 56.8585C102.367 72.0631 97.1155 86.3781 87.5163 97.168C77.901 107.975 65.0748 113.953 51.3999 114C51.347 114 51.291 114 51.2381 114ZM51.062 1.05857C51.0075 1.05857 50.9579 1.05857 50.9034 1.05857C37.5183 1.10439 24.958 6.9631 15.5333 17.5556C6.09424 28.1638 0.932694 42.2481 0.998354 57.2109C1.13448 88.0165 23.6576 113.012 51.2381 113.016C51.2926 113.016 51.3438 113.016 51.3967 113.016C64.7818 112.97 77.3421 107.111 86.7668 96.5186C96.2058 85.9104 101.369 71.8277 101.302 56.8633C101.166 26.0576 78.6409 1.05857 51.0604 1.05857H51.062Z" fill="white"/>
<path d="M56.6605 113.981C28.529 113.981 5.56073 88.5458 5.423 57.1966C5.35574 41.9921 10.607 27.6771 20.2062 16.8871C29.8214 6.07979 42.6476 0.102576 56.3226 0.0551758C56.3754 0.0551758 56.4315 0.0551758 56.4843 0.0551758C84.6158 0.0551758 107.584 25.4903 107.722 56.8395C107.789 72.044 102.538 86.359 92.9386 97.149C83.3234 107.956 70.4972 113.934 56.8222 113.981C56.7694 113.981 56.7133 113.981 56.6605 113.981ZM56.4859 1.04111C56.4315 1.04111 56.3802 1.04111 56.3274 1.04111C42.9423 1.08693 30.3819 6.94564 20.9573 17.5381C11.5182 28.1463 6.35506 42.2291 6.42232 57.1934C6.55845 87.9991 29.0815 112.995 56.6621 112.998C56.7165 112.998 56.7678 112.998 56.8206 112.998C70.2057 112.952 82.7661 107.094 92.1907 96.5012C101.63 85.8929 106.793 71.8102 106.726 56.8458C106.59 26.0402 84.0665 1.04111 56.4859 1.04111Z" fill="white"/>
<path d="M62.0894 113.962C33.958 113.962 10.9897 88.5267 10.852 57.1776C10.7847 41.973 16.0359 27.658 25.6351 16.8681C35.2504 6.06075 48.0766 0.0835334 61.7515 0.0361328C61.8044 0.0361328 61.8604 0.0361328 61.9133 0.0361328C90.0447 0.0361328 113.013 25.4713 113.151 56.8205C113.218 72.025 107.967 86.34 98.3676 97.1299C88.7523 107.937 75.9262 113.914 62.2512 113.962C62.1983 113.962 62.1423 113.962 62.0894 113.962ZM61.9133 1.02207C61.8588 1.02207 61.8076 1.02207 61.7547 1.02207C48.3696 1.06789 35.8093 6.9266 26.3846 17.5191C16.9456 28.1273 11.7824 42.21 11.8497 57.1744C11.9858 87.98 34.5105 112.976 62.091 112.979C62.1455 112.979 62.1951 112.979 62.2496 112.979C75.6347 112.933 88.195 107.075 97.6197 96.4821C107.059 85.8739 112.222 71.7896 112.155 56.8268C112.019 26.0211 89.4954 1.02207 61.9149 1.02207H61.9133Z" fill="white"/>
<path d="M67.5134 113.943C39.382 113.943 16.4136 88.5082 16.2743 57.159C16.2071 41.9545 21.4583 27.6395 31.0575 16.8495C40.6727 6.04219 53.4989 0.0649787 67.1739 0.0175781C67.2267 0.0175781 67.2828 0.0175781 67.3356 0.0175781C95.4671 0.0175781 118.435 25.4527 118.573 56.8019C118.64 72.0064 113.389 86.3214 103.79 97.1098C94.1747 107.917 81.3485 113.894 67.6735 113.942C67.6207 113.942 67.5646 113.942 67.5118 113.942L67.5134 113.943ZM67.3372 1.00351C67.2828 1.00351 67.2315 1.00351 67.1787 1.00351C53.7936 1.04933 41.2333 6.90804 31.8086 17.5005C22.3695 28.1087 17.208 42.1915 17.2736 57.1558C17.4098 87.9615 39.9345 112.957 67.515 112.961C67.5695 112.961 67.6191 112.961 67.6735 112.961C81.0586 112.915 93.619 107.056 103.044 96.4636C112.483 85.8553 117.646 71.771 117.579 56.8082C117.442 26.001 94.9194 1.00351 67.3388 1.00351H67.3372Z" fill="white"/>
<path d="M72.9408 113.924C44.8093 113.924 21.841 88.489 21.7033 57.1398C21.636 41.9353 26.8872 27.6203 36.4865 16.8319C46.1017 6.02462 58.9279 0.0474006 72.6028 0C72.6557 0 72.7118 0 72.7646 0C100.896 0 123.864 25.4352 124.002 56.7843C124.069 71.9889 118.818 86.3038 109.219 97.0922C99.6037 107.9 86.7775 113.877 73.1025 113.924C73.0497 113.924 72.9936 113.924 72.9408 113.924ZM72.7646 0.984352C72.7101 0.984352 72.6589 0.984352 72.6061 0.984352C59.221 1.03017 46.6606 6.88889 37.2359 17.4813C27.7969 28.0896 22.6337 42.1739 22.701 57.1367C22.8371 87.9423 45.3618 112.938 72.9424 112.941C72.9968 112.941 73.0465 112.941 73.1009 112.941C86.486 112.896 99.0463 107.037 108.471 96.4444C117.91 85.8361 123.073 71.7518 123.006 56.7891C122.87 25.9818 100.347 0.984352 72.7662 0.984352H72.7646Z" fill="white"/>
<path d="M50.1185 69.1829H38.2725V65.71H42.1704V48.2903H38.2725V44.8174H50.1185V48.2903H46.0876V65.71H50.1185V69.1829Z" fill="white"/>
<path d="M69.599 69.1827H64.6408L58.2445 59.325H56.4653V69.1827H52.5481V44.8188H60.6852C63.3981 44.8188 65.504 45.4319 67.0062 46.658C68.5068 47.8841 69.2579 49.6979 69.2579 52.0996C69.2579 53.1692 69.0897 54.1125 68.7566 54.9278C68.4219 55.7431 67.9494 56.4431 67.3377 57.0277C66.7259 57.6123 66.0133 58.0768 65.1997 58.4181C64.3862 58.7609 63.5054 58.9932 62.5605 59.118L69.6006 69.1812L69.599 69.1827ZM65.3407 52.0237C65.3407 50.7787 64.9275 49.8449 64.1011 49.2239C63.2748 48.6014 62.1361 48.2902 60.6852 48.2902H56.4653V55.8142H60.6852C62.1361 55.8142 63.2748 55.5029 64.1011 54.8804C64.9275 54.2579 65.3407 53.3051 65.3407 52.0237Z" fill="white"/>
<path d="M86.4544 69.1827H70.6719V44.8188H74.5891V65.7114H86.4544V69.1843V69.1827Z" fill="white"/>
</g>
<defs>
<clipPath id="clip0_7704_182992">
<rect width="124" height="114" fill="white"/>
</clipPath>
</defs>
</svg>
