<svg width="129" height="121" viewBox="0 0 129 121" fill="none" xmlns="http://www.w3.org/2000/svg">
<g filter="url(#filter0_d_7704_183666)">
<g filter="url(#filter1_d_7704_183666)">
<path d="M56.0814 105C34.0754 105 16.1082 85.1424 16.0005 60.668C15.9479 48.7978 20.0557 37.6221 27.5648 29.1984C35.0864 20.761 45.1197 16.0946 55.8171 16.0576C55.8584 16.0576 55.9023 16.0576 55.9436 16.0576C77.9497 16.0576 95.9168 35.9149 96.0246 60.3892C96.0772 72.2594 91.9694 83.4352 84.4603 91.8589C76.9387 100.296 66.9053 104.963 56.208 105C56.1666 105 56.1228 105 56.0814 105ZM55.9436 16.8261C55.901 16.8261 55.8622 16.8261 55.8196 16.8261C45.349 16.8619 35.5236 21.4358 28.1511 29.7053C20.7673 37.9872 16.7296 48.9828 16.781 60.6643C16.8875 84.7143 34.5063 104.229 56.0814 104.231C56.124 104.231 56.1641 104.231 56.2055 104.231C66.6761 104.195 76.5015 99.6215 83.874 91.3519C91.2578 83.0701 95.2967 72.0756 95.2441 60.3929C95.1376 36.3429 77.5175 16.8261 55.9424 16.8261H55.9436Z" fill="white"/>
</g>
<g filter="url(#filter2_d_7704_183666)">
<path d="M60.3231 104.985C38.3171 104.985 20.3499 85.1277 20.2422 60.6534C20.1896 48.7832 24.2974 37.6074 31.8065 29.1837C39.3281 20.7464 49.3614 16.08 60.0588 16.043C60.1001 16.043 60.144 16.043 60.1853 16.043C82.1914 16.043 100.159 35.9002 100.266 60.3746C100.319 72.2448 96.2111 83.4205 88.702 91.8443C81.1804 100.282 71.147 104.948 60.4497 104.985C60.4083 104.985 60.3645 104.985 60.3231 104.985ZM60.1866 16.8127C60.144 16.8127 60.1039 16.8127 60.0626 16.8127C49.592 16.8485 39.7665 21.4224 32.394 29.6919C25.0102 37.9738 20.9713 48.9682 21.0239 60.6509C21.1304 84.7009 38.7493 104.215 60.3244 104.218C60.367 104.218 60.4071 104.218 60.4484 104.218C70.919 104.182 80.7444 99.6081 88.117 91.3385C95.5008 83.0566 99.5397 72.0622 99.487 60.3795C99.3806 36.3295 81.7617 16.8127 60.1866 16.8127Z" fill="white"/>
</g>
<g filter="url(#filter3_d_7704_183666)">
<path d="M64.5697 104.97C42.5637 104.97 24.5965 85.1131 24.4888 60.6387C24.4362 48.7685 28.544 37.5928 36.053 29.1691C43.5746 20.7317 53.608 16.0653 64.3054 16.0283C64.3467 16.0283 64.3906 16.0283 64.4319 16.0283C86.438 16.0283 104.405 35.8856 104.513 60.3599C104.565 72.2302 100.458 83.4059 92.9486 91.8296C85.427 100.267 75.3936 104.933 64.6962 104.97C64.6549 104.97 64.6111 104.97 64.5697 104.97ZM64.4319 16.798C64.3893 16.798 64.3492 16.798 64.3079 16.798C53.8373 16.8338 44.0119 21.4077 36.6393 29.6773C29.2555 37.9591 25.2166 48.9535 25.2693 60.6363C25.3757 84.6863 42.9959 104.201 64.571 104.203C64.6136 104.203 64.6524 104.203 64.695 104.203C75.1656 104.167 84.991 99.5934 92.3635 91.3239C99.7473 83.042 103.786 72.0464 103.734 60.3649C103.627 36.3149 86.0083 16.798 64.4332 16.798H64.4319Z" fill="white"/>
</g>
<g filter="url(#filter4_d_7704_183666)">
<path d="M68.8127 104.956C46.8066 104.956 28.8395 85.0984 28.7305 60.6241C28.6779 48.7539 32.7857 37.5781 40.2947 29.1544C47.8163 20.7171 57.8497 16.0507 68.5471 16.0137C68.5884 16.0137 68.6323 16.0137 68.6736 16.0137C90.6797 16.0137 108.647 35.8709 108.755 60.3453C108.807 72.2155 104.699 83.3912 97.1903 91.8137C89.6687 100.251 79.6353 104.917 68.9379 104.954C68.8966 104.954 68.8528 104.954 68.8114 104.954L68.8127 104.956ZM68.6749 16.7834C68.6323 16.7834 68.5922 16.7834 68.5508 16.7834C58.0802 16.8192 48.2548 21.3931 40.8823 29.6626C33.4985 37.9445 29.4608 48.9389 29.5122 60.6216C29.6187 84.6716 47.2388 104.186 68.8139 104.188C68.8565 104.188 68.8954 104.188 68.9379 104.188C79.4085 104.153 89.234 99.5788 96.6065 91.3092C103.99 83.0273 108.029 72.0317 107.977 60.3502C107.87 36.299 90.2512 16.7834 68.6761 16.7834H68.6749Z" fill="white"/>
</g>
<g filter="url(#filter5_d_7704_183666)">
<path d="M73.0585 104.941C51.0524 104.941 33.0853 85.0835 32.9776 60.6092C32.9249 48.739 37.0327 37.5632 44.5418 29.1407C52.0634 20.7034 62.0968 16.037 72.7942 16C72.8355 16 72.8793 16 72.9207 16C94.9267 16 112.894 35.8573 113.002 60.3316C113.054 72.2018 108.946 83.3776 101.437 91.8001C93.9158 100.237 83.8824 104.904 73.185 104.941C73.1437 104.941 73.0998 104.941 73.0585 104.941ZM72.9207 16.7685C72.8781 16.7685 72.838 16.7685 72.7967 16.7685C62.3261 16.8043 52.5006 21.3782 45.1281 29.6477C37.7443 37.9296 33.7054 48.9252 33.758 60.6067C33.8645 84.6567 51.4846 104.171 73.0597 104.174C73.1023 104.174 73.1412 104.174 73.1838 104.174C83.6544 104.138 93.4798 99.5639 100.852 91.2943C108.236 83.0124 112.275 72.0168 112.222 60.3353C112.116 36.2841 94.497 16.7685 72.9219 16.7685H72.9207Z" fill="white"/>
</g>
<mask id="mask0_7704_183666" style="mask-type:alpha" maskUnits="userSpaceOnUse" x="46" y="42" width="36" height="38">
<rect x="46.9995" y="42.001" width="35" height="37" fill="#D9D9D9"/>
</mask>
<g mask="url(#mask0_7704_183666)">
<g filter="url(#filter6_d_7704_183666)">
<path d="M58.9995 74.001L79.9995 46.001L58.9995 74.001Z" fill="white"/>
<path d="M58.9995 74.001L79.9995 46.001M48.9995 63.001C50.1535 63.001 52.1235 64.331 53.5875 65.457C54.8764 66.4335 55.9989 67.6121 56.9115 68.947C57.8895 70.401 58.9995 72.401 58.9995 73.981" stroke="white"/>
</g>
</g>
</g>
<defs>
<filter id="filter0_d_7704_183666" x="8" y="8" width="113.002" height="105" filterUnits="userSpaceOnUse" color-interpolation-filters="sRGB">
<feFlood flood-opacity="0" result="BackgroundImageFix"/>
<feColorMatrix in="SourceAlpha" type="matrix" values="0 0 0 0 0 0 0 0 0 0 0 0 0 0 0 0 0 0 127 0" result="hardAlpha"/>
<feOffset/>
<feGaussianBlur stdDeviation="4"/>
<feComposite in2="hardAlpha" operator="out"/>
<feColorMatrix type="matrix" values="0 0 0 0 1 0 0 0 0 1 0 0 0 0 1 0 0 0 0.25 0"/>
<feBlend mode="normal" in2="BackgroundImageFix" result="effect1_dropShadow_7704_183666"/>
<feBlend mode="normal" in="SourceGraphic" in2="effect1_dropShadow_7704_183666" result="shape"/>
</filter>
<filter id="filter1_d_7704_183666" x="0" y="0.0576172" width="112.025" height="120.942" filterUnits="userSpaceOnUse" color-interpolation-filters="sRGB">
<feFlood flood-opacity="0" result="BackgroundImageFix"/>
<feColorMatrix in="SourceAlpha" type="matrix" values="0 0 0 0 0 0 0 0 0 0 0 0 0 0 0 0 0 0 127 0" result="hardAlpha"/>
<feOffset/>
<feGaussianBlur stdDeviation="8"/>
<feComposite in2="hardAlpha" operator="out"/>
<feColorMatrix type="matrix" values="0 0 0 0 1 0 0 0 0 1 0 0 0 0 1 0 0 0 1 0"/>
<feBlend mode="normal" in2="BackgroundImageFix" result="effect1_dropShadow_7704_183666"/>
<feBlend mode="normal" in="SourceGraphic" in2="effect1_dropShadow_7704_183666" result="shape"/>
</filter>
<filter id="filter2_d_7704_183666" x="4.2417" y="0.0429688" width="112.025" height="120.942" filterUnits="userSpaceOnUse" color-interpolation-filters="sRGB">
<feFlood flood-opacity="0" result="BackgroundImageFix"/>
<feColorMatrix in="SourceAlpha" type="matrix" values="0 0 0 0 0 0 0 0 0 0 0 0 0 0 0 0 0 0 127 0" result="hardAlpha"/>
<feOffset/>
<feGaussianBlur stdDeviation="8"/>
<feComposite in2="hardAlpha" operator="out"/>
<feColorMatrix type="matrix" values="0 0 0 0 1 0 0 0 0 1 0 0 0 0 1 0 0 0 1 0"/>
<feBlend mode="normal" in2="BackgroundImageFix" result="effect1_dropShadow_7704_183666"/>
<feBlend mode="normal" in="SourceGraphic" in2="effect1_dropShadow_7704_183666" result="shape"/>
</filter>
<filter id="filter3_d_7704_183666" x="8.48828" y="0.0283203" width="112.025" height="120.942" filterUnits="userSpaceOnUse" color-interpolation-filters="sRGB">
<feFlood flood-opacity="0" result="BackgroundImageFix"/>
<feColorMatrix in="SourceAlpha" type="matrix" values="0 0 0 0 0 0 0 0 0 0 0 0 0 0 0 0 0 0 127 0" result="hardAlpha"/>
<feOffset/>
<feGaussianBlur stdDeviation="8"/>
<feComposite in2="hardAlpha" operator="out"/>
<feColorMatrix type="matrix" values="0 0 0 0 1 0 0 0 0 1 0 0 0 0 1 0 0 0 1 0"/>
<feBlend mode="normal" in2="BackgroundImageFix" result="effect1_dropShadow_7704_183666"/>
<feBlend mode="normal" in="SourceGraphic" in2="effect1_dropShadow_7704_183666" result="shape"/>
</filter>
<filter id="filter4_d_7704_183666" x="12.73" y="0.0136719" width="112.025" height="120.942" filterUnits="userSpaceOnUse" color-interpolation-filters="sRGB">
<feFlood flood-opacity="0" result="BackgroundImageFix"/>
<feColorMatrix in="SourceAlpha" type="matrix" values="0 0 0 0 0 0 0 0 0 0 0 0 0 0 0 0 0 0 127 0" result="hardAlpha"/>
<feOffset/>
<feGaussianBlur stdDeviation="8"/>
<feComposite in2="hardAlpha" operator="out"/>
<feColorMatrix type="matrix" values="0 0 0 0 1 0 0 0 0 1 0 0 0 0 1 0 0 0 1 0"/>
<feBlend mode="normal" in2="BackgroundImageFix" result="effect1_dropShadow_7704_183666"/>
<feBlend mode="normal" in="SourceGraphic" in2="effect1_dropShadow_7704_183666" result="shape"/>
</filter>
<filter id="filter5_d_7704_183666" x="16.9771" y="0" width="112.025" height="120.941" filterUnits="userSpaceOnUse" color-interpolation-filters="sRGB">
<feFlood flood-opacity="0" result="BackgroundImageFix"/>
<feColorMatrix in="SourceAlpha" type="matrix" values="0 0 0 0 0 0 0 0 0 0 0 0 0 0 0 0 0 0 127 0" result="hardAlpha"/>
<feOffset/>
<feGaussianBlur stdDeviation="8"/>
<feComposite in2="hardAlpha" operator="out"/>
<feColorMatrix type="matrix" values="0 0 0 0 1 0 0 0 0 1 0 0 0 0 1 0 0 0 1 0"/>
<feBlend mode="normal" in2="BackgroundImageFix" result="effect1_dropShadow_7704_183666"/>
<feBlend mode="normal" in="SourceGraphic" in2="effect1_dropShadow_7704_183666" result="shape"/>
</filter>
<filter id="filter6_d_7704_183666" x="32.9995" y="29.7012" width="63.3999" height="60.5996" filterUnits="userSpaceOnUse" color-interpolation-filters="sRGB">
<feFlood flood-opacity="0" result="BackgroundImageFix"/>
<feColorMatrix in="SourceAlpha" type="matrix" values="0 0 0 0 0 0 0 0 0 0 0 0 0 0 0 0 0 0 127 0" result="hardAlpha"/>
<feOffset/>
<feGaussianBlur stdDeviation="8"/>
<feComposite in2="hardAlpha" operator="out"/>
<feColorMatrix type="matrix" values="0 0 0 0 1 0 0 0 0 1 0 0 0 0 1 0 0 0 1 0"/>
<feBlend mode="normal" in2="BackgroundImageFix" result="effect1_dropShadow_7704_183666"/>
<feBlend mode="normal" in="SourceGraphic" in2="effect1_dropShadow_7704_183666" result="shape"/>
</filter>
</defs>
</svg>
