<?xml version="1.0" encoding="UTF-8"?>
<svg id="Layer_1" data-name="Layer 1" xmlns="http://www.w3.org/2000/svg" width="16" height="16" viewBox="0 0 16 16">
  <path d="M4.24,11.79H.61s0-1.08,0-1.08h1.2v-5.42H.61s0-1.08,0-1.08h3.63s0,1.08,0,1.08h-1.24v5.42h1.24s0,1.08,0,1.08Z"/>
  <path d="M10.22,11.79h-1.52s-1.96-3.07-1.96-3.07h-.55v3.07s-1.2,0-1.2,0v-7.58s2.5,0,2.5,0c.83,0,1.48.19,1.94.57.46.38.69.95.69,1.69,0,.33-.05.63-.15.88-.1.25-.25.47-.44.65-.19.18-.41.33-.66.43s-.52.18-.81.22l2.16,3.13ZM8.91,6.45c0-.39-.13-.68-.38-.87-.25-.19-.6-.29-1.05-.29h-1.29v2.34h1.29c.44,0,.79-.1,1.05-.29.25-.19.38-.49.38-.89Z"/>
  <path d="M15.39,11.79h-4.84s0-7.58,0-7.58h1.2s0,6.5,0,6.5h3.64s0,1.08,0,1.08Z"/>
</svg>