<?xml version="1.0" encoding="UTF-8"?>
<svg id="Layer_1" data-name="Layer 1" xmlns="http://www.w3.org/2000/svg" width="32" height="32" viewBox="0 0 32 32">
  <path d="M9.06,23H2.34s0-2,0-2h2.21v-10.01h-2.21s0-2,0-2h6.72s0,2,0,2h-2.29v10.01h2.29s0,2,0,2Z"/>
  <path d="M20.1,23h-2.81s-3.63-5.67-3.63-5.67h-1.01v5.67s-2.22,0-2.22,0v-14.01s4.62,0,4.62,0c1.54,0,2.73.35,3.58,1.06.85.7,1.28,1.75,1.28,3.13,0,.62-.1,1.16-.28,1.63-.19.47-.46.87-.8,1.21-.35.34-.75.6-1.21.8s-.96.33-1.5.4l3.99,5.79ZM17.69,13.14c0-.72-.23-1.25-.7-1.61-.47-.36-1.11-.54-1.94-.54h-2.39v4.33h2.39c.82,0,1.47-.18,1.94-.54.47-.36.7-.91.7-1.64Z"/>
  <path d="M29.66,23h-8.95s0-14.01,0-14.01h2.22s0,12.01,0,12.01h6.73s0,2,0,2Z"/>
</svg>