<svg xmlns="http://www.w3.org/2000/svg" xmlns:xlink="http://www.w3.org/1999/xlink" version="1.0" id="katman_1" x="0px" y="0px" viewBox="0 0 1700 1200" style="enable-background:new 0 0 1700 1200;" xml:space="preserve">
<style type="text/css">
	.st0{fill:#4ac2ff;}
	.st1{fill:#ffffff;}
	.st2{fill:none;stroke:#ffffff;stroke-width:7.9434;}
</style>
<path d="M676.6,621.4H621c-12.5,0-22,9.6-22,22v126.3c0,12.5,9.6,22,22,22c12.5,0,22-9.6,22-22V739h21.7l32.7,42  c5.8,7.2,12.5,10.7,20.9,10.7c10.4,0,21.1-7.8,21.1-20.6c0-7.2-3.2-11.9-6.7-16.2l-20.9-25.5c19.4-9.8,29.5-27.2,29.5-50.4v-0.6  c0-16.2-5.2-29.8-15.1-39.7C714.8,627.5,697.4,621.4,676.6,621.4z M696.9,680.5v0.6c0,11.6-8.4,18.2-22.6,18.2h-31.6V662h30.7  C684.1,662,696.9,665.2,696.9,680.5z" fill="#ffffff"/>
<path d="M866.8,635.6c-4.6-10.7-13.3-16.5-24.3-16.5h-2c-11,0-19.7,5.8-24.6,16.5l-55.9,126c-1.2,2.6-2.3,5.8-2.3,9.3  c0,11.6,9,20.9,20.6,20.9c9,0,16.5-5.2,20.3-13.6l10.1-23.8h64.6l9.6,22.6c4.1,9.6,11.6,14.8,20.9,14.8c11.9,0,21.1-9.3,21.1-21.1  c0-2.6-0.6-5.5-2.3-9L866.8,635.6z M856.4,714.7h-31.3l15.6-37.4L856.4,714.7z" fill="#ffffff"/>
<path d="M1016.2,621.4h-44.9c-12.5,0-22,9.6-22,22v124.8c0,12.5,9.6,22,22,22h44.9c51.9,0,89.5-35.6,89.5-84.3v-0.6  C1105.4,656.8,1068,621.4,1016.2,621.4z M1016.2,750h-22.9V662h22.9c26.4,0,44,17.7,44,44v0.6C1059.9,732.4,1042.3,750,1016.2,750z" fill="#ffffff"/>
<path d="M1161.4,620.3c-12.5,0-22,9.6-22,22V770c0,12.5,9.6,22,22,22c12.5,0,22-9.6,22-22V642.3  C1183.4,629.8,1173.8,620.3,1161.4,620.3z" fill="#ffffff"/>
<path d="M1306.1,618.8c-50.4,0-89.8,38.2-89.8,87.2v0.6c0,49.5,38.2,86.6,89.2,86.6c50.4,0,89.8-38.2,89.8-87.2v-0.6  C1395.4,656.2,1357.1,618.8,1306.1,618.8z M1262.1,705.4c0-26.1,18.8-45.5,43.7-45.5c25.2,0,44,19.7,44,46.1v0.6  c0,26.1-18.8,45.5-43.7,45.5c-25.2,0-44-19.7-44-46.1V705.4z" fill="#ffffff"/>
<path d="M676.6,429.8H621c-12.5,0-22,9.6-22,22v126.3c0,12.5,9.6,22,22,22c12.5,0,22-9.6,22-22v-30.7h21.7l33,42  c5.8,7.2,12.5,10.7,20.9,10.7c10.4,0,21.1-7.8,21.1-20.6c0-7.2-3.2-11.9-6.7-16.2l-20.9-25.5c19.4-9.8,29.5-27.2,29.5-50.4v-0.6  c0-16.2-5.2-29.8-15.1-39.7C714.8,435.9,697.7,429.8,676.6,429.8z M697.2,488.9v0.6c0,11.6-8.4,18.2-22.6,18.2H643v-37.4h30.7  C684.4,470.3,697.2,473.5,697.2,488.9z" fill="#ffffff"/>
<path d="M893.3,428.6c-12.5,0-22,9.6-22,22v75.6c0,22.3-10.4,34.2-30.1,34.2c-24.9,0-30.1-19.1-30.1-35.3v-74.4c0-12.5-9.6-22-22-22  c-12.5,0-22,9.6-22,22v75.3c0,48.1,26.9,75.6,73.6,75.6c47.5,0,74.7-27.8,74.7-76.8v-74.2C915.4,438.2,905.8,428.6,893.3,428.6z" fill="#ffffff"/>
<path d="M1080.8,497.8h-40.3c-10.7,0-19.7,8.7-19.7,19.7c0,10.7,8.7,19.4,19.7,19.4h19.4v16.2c-7.8,4.9-17.7,7.5-29,7.5  c-25.5,0-44-19.4-44-46.3v-0.6c0-25.2,18.8-45.5,41.7-45.5c12.7,0,22.6,3.2,32.4,10.1c2.9,2,6.9,4.6,13.3,4.6  c11.9,0,21.7-9.8,21.7-21.7c0-9.8-6.4-15.6-9.3-17.7c-16.2-11.6-33.3-16.5-57.1-16.5c-49.5,0-88.3,38.2-88.3,87.2v0.6  c0,50.1,37.4,86.6,88.6,86.6c20.6,0,40.3-5.5,58.2-16.5c9.8-5.8,14.5-14.5,14.5-26.1v-39.1C1102.8,507.4,1093.2,497.8,1080.8,497.8z  " fill="#ffffff"/>
<path class="st0" d="M426.4,698.9h-35.1v103.8h35.1V698.9z" fill="#ffffff"/>
<path d="M426.4,810.3h-35.1c-4.1,0-7.5-3.4-7.5-7.5V698.9c0-4.1,3.4-7.5,7.5-7.5h35.1c4.1,0,7.5,3.4,7.5,7.5v103.8  C434,806.9,430.6,810.3,426.4,810.3z M398.9,795.2h20v-88.7h-20V795.2z" fill="#ffffff"/>
<path d="M374.1,661.6c-11.6-1.1-21.8-4-30.4-8.7c-2.8-1.5-19-10.9-27.9-34.6l-0.1-0.3l-57.2-185.7l-0.1-0.2  c-0.5-2-12.3-49.2,48-81.4c48.1-25.8,85.6-28.6,108.6-26.5c4.5,0.4,9,1.1,13.1,2c26.7,5.7,47.5,26.2,55.6,42.7  c7.3,14.9,46.1,145.8,54.4,173.8c2.5,6.2,15,40.6-8.2,64.9C511.9,626.2,432.4,667,374.1,661.6z" fill="#ffffff"/>
<path d="M328.2,613.7l-57-185.1c0,0-10.3-38.7,41.4-66.5c51.7-27.8,91.5-27.8,112.8-23.2c21.1,4.6,39.3,20.8,46.7,35.6  c7.2,14.8,53.8,172.4,53.8,172.4s14,31.3-5.4,51.5c-19.3,20.1-121.7,69.3-170.5,42.9C349.9,641.4,335.7,634.3,328.2,613.7z" fill="#ffffff"/>
<path class="st0" d="M525.2,545.6c-2.1-5.6-7-10-13-10.9c-11.1-1.8-18.8,0.2-18.9,0.2c-8.1,1.8-10.9-11.1-2.6-12.7  c0.4-0.1,5.9-0.2,13.9-0.6c1.9-0.1,3.7,0,5.2,0.1c3.7,0.3,6.7-3.2,5.6-6.8c-0.5-1.5-1.6-2.7-3.1-3.3c-2-0.8-5.1-1.7-9-1.7  c-1.3-0.1-2.6-0.1-4,0c-7.3-0.5-10.4-10.2-3.5-13.3c2.3-0.6,4.3-0.9,6.1-1c3.9-0.2,6.5-3.9,5.2-7.6l-0.1-0.2c-0.7-2-2.5-3.4-4.6-3.7  c-4.8-0.6-12.9-0.8-18.6-1.5c-1.6-0.2-3.1-0.1-4.7-0.1l-1.4,0.2c-7.5,1.2-9.8-9.7-3.7-12.3c5.5-1.5,13.2-1.1,19-0.3  c4,0.5,7.2-3.3,6-7.2c-0.5-1.8-1.9-3.2-3.7-3.7c-6.2-1.8-12.4-2-20.2-2.3c-2.9-0.3-5-0.2-6.1-0.1c-8.2,1-9.8-12.1-1.4-12.9  c0.4,0,0.8-0.1,1.1-0.2c4.8-0.7,10.7-0.2,15.5,0.6c4.4,0.7,8-3.4,6.7-7.7c-0.3-1-0.9-1.9-1.6-2.6c-0.7-0.7-1.7-1.2-2.7-1.4  c-5.6-1.3-16-2.6-21.9-2.2c-1.2,0.1-2.1,0.2-3,0.2c-7.6,1.2-9.9-10-3.4-12.4c5.3-0.8,10.7-0.8,15.3-0.5c5.4,0.3,9.4-5,7.4-10.2  c-0.5-1.3-1.3-2.4-2.4-3.2c-1-0.8-2.3-1.3-3.7-1.5c-4-0.4-10-1-15.5-1.1c-0.8,0-1.5,0-2.1,0c-0.2,0-0.4,0-0.5,0  c-1.2,0.1-2.1,0.3-2.9,0.3c-8.3,1.2-10-11.9-1.6-12.8c0.5-0.1,7.1-0.9,16.8,0.7c4.1,0.7,7.6-3.2,6.3-7.2  c-3.8-12.3-12.4-22.6-18-26.4c-1.4-0.9-3,0.6-2.2,2.1c0.9,1.5,1.8,3.3,2.7,5.2c2.7,6-6.1,10.6-9.3,4.6c-6.2-11.8-11.5-30.1-32.1-31  c-1.8-0.1-2.6,2.1-1.2,3.2c5.6,4.7,14.4,14,18,22.4c3.4,8-8.8,13.4-12.4,5.4c-5.7-12.4-10.5-31.6-35-30.6c-2.6,0.1-3.6,3.3-1.7,4.9  c10.8,9.3,23.8,32.5,10.7,36.3c-18,4.6-8.2-41.4-45.9-33.1c-8.1,2.9-17.5,6.6-26.8,11.2c-33.5,16.3-66.8,43.7-45.1,88  c1.5,2.9,5.2,4,8,2.2c8.7-5.4,25.2-15.9,25.2-15.9c7-4.5,14.1,6.5,6.9,11c-2.1,1.7-22.4,12.9-29.9,18.5c-7.6,5.8,0.4,17.4,8.5,12.3  c6.1-3.8,23.2-14.2,23.2-14.2c7-4.6,14.1,6.5,6.8,11c0,0-20.4,12.8-29.8,18.8c-7.7,5.5,0.4,17.4,8.6,12.3l23.5-14.9  c7-4.5,14.1,6.5,6.9,11c-2.3,1.8-22.5,13.1-31,20.1c-7.1,6,0.8,17.1,8.8,12.1c7.4-4.6,23.6-15.1,23.6-15.1c7-4.5,14.1,6.5,6.8,11  c-2,1.5-22.8,13.4-30.9,19.5c-7.5,5.7,0.6,17.3,8.6,12.3c6.1-3.9,22.9-14.4,22.9-14.4c7-4.6,14.1,6.5,6.8,11  c0.2-0.5-21.6,13.5-30.8,19.1c-7.5,5.3,0.4,16.7,8.1,11.9l24.3-15c7-4.5,14.1,6.5,6.8,11l-29.2,18.3c-3.5,2.2-5.1,6.6-3.7,10.6  c6.9,20.9,21.2,42.6,63.9,39.5c9.5-1.2,17.6-2.8,24.4-4.8c67.4-19.8,22.1-76,39.5-79.2c2.7-0.5,4.9,2.6,6,5.1  c4.6,10.2,8.3,34.7-0.8,52.9c-1.7,3.4,2.1,6.8,5.2,4.8c20.5-13.2,21-44,14.2-59.3c-1.2-2.7-3.9-9.4,1-11.8  c13.3-6.5,18.8,25.3,13.2,49.4c-1,4.4,4.6,7.1,7.5,3.6c11.1-13.7,10.5-35.6,6.9-45.6c-0.9-2.6-1-7.2,1.5-8.6  c10.6-5.2,15.9,15.7,8.2,39.3c-0.6,2,1.4,4.9,2.8,3.4C535.2,582.4,532,564.1,525.2,545.6z M338.2,417.6c0.9-0.5,14.2-7.4,32.9-13.8  c14-4.7,31-9.3,48.3-10.5c3.5-0.3,6.6,2.4,6.9,5.9c0.3,3.5-2.4,6.6-5.9,6.9c-15.8,1.2-31,5.1-43.8,9.5c-19.3,6.5-33,14-34.5,14.1  C335,430.5,331.9,421,338.2,417.6z M348.2,459.1c-6.9,0.8-10.1-8.8-3.7-12.2c11.1-5.8,25.3-11,38.7-15.1  c20.4-6.2,38.7-10.2,39.9-10.5c8.3-1.5,11,10.6,2.7,12.7c-0.4-0.2-18.2,4-38.1,10.1C373.7,448.5,358.9,453.8,348.2,459.1z   M355.3,474.2c13.6-7.1,26.3-12.3,37.1-16c22.4-7.6,37.5-9.2,38.4-9.3c8.6-0.5,9.7,11.8,1.2,12.9c-0.8,0.1-15,1.6-35.8,8.8  c-10.3,3.5-22.2,8.3-35,15.1c-0.7,0.4-1.5,0.6-2.2,0.7C352.1,487.1,349,477.5,355.3,474.2z M364.3,501.7c12-5.8,25-10.9,36.7-14.9  c18.5-6.3,33.4-10.2,34.4-10.4c3.4-0.9,6.9,1.2,7.8,4.7c0.9,3.4-1.2,6.9-4.7,7.8c-0.2-0.2-15.5,4-34,10.5  c-12,4.1-25.2,9.2-36.6,14.5C360.8,514.7,357.7,505,364.3,501.7z M368.7,529.5c12.7-5.8,27.8-11.3,40.1-15.5  c13.2-4.4,23.1-7.4,23.9-7.6c8.2-2.1,11.8,9.8,3.6,12.4c-0.2-0.2-10.5,3.1-23.7,7.7c-12.8,4.4-28.5,10.2-40.5,15.3  C365,542.7,362.1,532.6,368.7,529.5z M453.9,543c-0.1,0-6,0.9-18.1,4.6c-4.2,1.3-9.3,3-15,5c-10.5,3.8-23.5,9.1-39,16.3  c-0.6,0.3-1.3,0.5-1.9,0.6c-7.1,0.8-10.2-9.2-3.5-12.3c16.2-7.5,29.7-13,40.6-17c23-8.3,34.5-10,35.1-10.1  C460.6,529.3,462.4,541.6,453.9,543z M471.7,519.7c-12.6,2.8-19.3-21.9-7.1-26c5.1-1.4,11,3.2,12.9,10.4  C479.5,511.2,476.9,518.2,471.7,519.7z" fill="#ffffff"/>
<path class="st1" d="M414.9,644.1c-6.9,2-15,3.7-24.4,4.8c-42.7,3-56.8-18.6-63.9-39.5c-1.3-4,0.2-8.3,3.7-10.6l29.2-18.3  c7.1-4.3,0.1-15.5-6.8-11l-24.3,15c-7.7,4.9-15.6-6.5-8.1-11.9c9.2-5.6,31-19.6,30.8-19.1c7.1-4.3,0.1-15.5-6.8-11  c0,0-16.8,10.6-22.9,14.4c-8,5-16.1-6.4-8.6-12.3c8-6.1,28.9-17.9,30.9-19.5c7.1-4.3,0.1-15.5-6.8-11c0,0-16.3,10.4-23.6,15.1  c-7.9,5-15.9-6.1-8.8-12.1c8.5-7,28.7-18.4,31-20.1c7.1-4.3,0.1-15.5-6.9-11L304.7,501c-8.1,5.1-16.3-6.7-8.6-12.3  c9.4-6,29.8-18.8,29.8-18.8c7.1-4.3,0.1-15.5-6.8-11c0,0-17.1,10.4-23.2,14.2c-8,5.1-16.1-6.5-8.5-12.3c7.4-5.7,27.7-16.9,29.9-18.5  c7.1-4.3,0.1-15.5-6.9-11c0,0-16.6,10.5-25.2,15.9c-2.8,1.8-6.5,0.7-8-2.2c-21.7-44.4,11.7-71.7,45.1-88  c13.8-5.8,31.5,10.5,49.1,46.6c-18.7,6.3-31.9,13.3-32.9,13.8c-6.3,3.4-3.2,13,3.8,12.2c1.5-0.1,15.2-7.5,34.5-14.1  c2.2,5.1,4.4,10.6,6.6,16.3c-13.4,4.1-27.7,9.3-38.7,15.1c-6.3,3.4-3.2,13,3.7,12.2c10.7-5.3,25.6-10.7,39.5-14.9  c1.6,4.5,3.1,9.2,4.7,14c-10.9,3.7-23.5,8.9-37.1,16c-6.3,3.4-3.2,13,3.7,12.2c0.8-0.1,1.5-0.3,2.2-0.7c12.8-6.7,24.7-11.6,35-15.1  c1.6,5.2,3.1,10.7,4.7,16.3c-11.7,4-24.7,9.1-36.7,14.9c-6.5,3.2-3.5,13.1,3.6,12.3c11.4-5.3,24.6-10.4,36.6-14.5  c1.4,5,2.9,9.9,4.3,14.6c-12.4,4.2-27.5,9.7-40.1,15.5c-6.6,3.1-3.7,13.1,3.4,12.3c12.1-5.2,27.7-10.9,40.5-15.3  c1.5,4.7,2.9,9.4,4.3,13.8c-10.9,3.9-24.4,9.5-40.6,17c-6.6,3.1-3.7,13.1,3.5,12.3c0.7-0.1,1.3-0.3,1.9-0.6  c15.6-7.2,28.6-12.5,39-16.3C434.4,596.4,439.7,622.6,414.9,644.1z" fill="#ffffff"/>
<path class="st1" d="M353.2,714.1l-26.9-27.6l-1.2-137.9l28.1,1.3V714.1z" fill="#ffffff"/>
<path class="st1" d="M454.9,642.7l26.5-9.8l-0.6,11.4c0,0-0.6,36.7-0.6,37.4c0,0.6-5.9,15.8-5.6,16.6c0.3,0.8-15.7,7.6-16.6,7.6  s-54.5,4.5-54.5,4.5l-22.6-3.4l-2.5-12l12.8-5.9l18.2-1.6l47.1-6.8l-1.4-5.6l1.7-32.8L454.9,642.7z" fill="#ffffff"/>
<path class="st0" d="M371.5,555l5.4,23l0.8,35.5c0,0-0.8,35.9-0.8,36.2c0,0.3,1.3,30.9,1.3,30.9l1.4,15.6l2.8,11.7l17.5,3.7  l55.7-5.7c0,0,16-5.3,16.2-5.4c0.2-0.1,7.6-10.6,7.6-10.6s2-58.4,2-59.4s4.7,0.1,4.7,0.1l14.6-7.3l5.1,4.6c0,0-0.7,50-0.7,50.9  c0,0.9-3.9,26-3.9,26s-7.9,11.2-8.7,11.4c-0.6,0.3-17.3,8-17.3,8l-27.6,4.4l-54.1,6.4l-20.8-6.5l-13.6-14.6l-8.1-25.2l-0.8-57.9  l2.5-63l-0.3-13.8l0.4-5.3L371.5,555z" fill="#ffffff"/>
<path d="M377.9,698.4l-1.6-12l73.4-9.3v-39.9l12.1-4.4v46.5c0,4.8-3.6,8.9-8.3,9.6L377.9,698.4z" fill="#ffffff"/>
<path d="M396.6,718c-6.1,0-12.1-2.2-16.8-6.3c-5.5-4.8-8.8-11.9-8.8-19.2v-125c0-4.8-3.2-9.2-7.8-10.5l-23.7-6.8l3.3-11.6l23.7,6.8  c9.8,2.8,16.6,11.9,16.6,22v124.9c0,3.9,1.7,7.6,4.6,10.2c2.9,2.5,6.8,3.7,10.7,3.2l64.3-7.9c6.6-0.9,11.7-6.6,11.7-13.4v-57.1  l12.1-6.3v63.5c0,12.7-9.5,23.5-22,25.3l-64.3,7.9C398.9,717.9,397.7,718,396.6,718z" fill="#ffffff"/>
<path d="M393.9,741.2c-12,0-23.5-4.4-32.6-12.7l-27.4-20.6c-10.2-7.6-16.3-19.9-16.3-32.7V557.9c0-11,9-19.9,19.9-19.9  c1.3,0,2.5,0.1,3.8,0.4c1,0.2,2,0.5,2.9,0.8c7.9,2.8,13.2,10.4,13.2,18.8v134.9c0,10.3,4.1,19.7,11.7,26.8c8.1,7.4,19,10.9,29.9,9.3  l69.7-9.2c17.8-2.6,31.2-18.1,31.2-36V624l12.1-6.8v66.6c0,23.9-17.8,44.6-41.4,48l-69.7,9.2C398.5,741.1,396.2,741.2,393.9,741.2z   M337.5,549.9c-4.3,0-7.8,3.5-7.8,7.8v117.4c0,9,4.3,17.6,11.5,23l5.1,3.9c-0.6-3-0.9-6.2-0.9-9.5V557.9c0-3.3-2.1-6.3-5.2-7.4  c-0.4-0.1-0.8-0.2-1.1-0.3C338.5,550,338,549.9,337.5,549.9z" fill="#ffffff"/>
<path class="st0" d="M567.5,831.3H249.2c-12.3,0-22.2,8.7-22.2,19.4s9.9,19.4,22.2,19.4h318.3c12.3,0,22.2-8.7,22.2-19.4  S579.8,831.3,567.5,831.3z" fill="#ffffff"/>
<path d="M567.5,877.5H249.2c-17,0-30.9-12.1-30.9-26.8s13.9-26.8,30.9-26.8h318.3c17,0,30.9,12.1,30.9,26.8S584.5,877.5,567.5,877.5  z M249.2,839c-7.4,0-13.5,5.2-13.5,11.8c0,6.5,6,11.8,13.5,11.8h318.3c7.4,0,13.5-5.2,13.5-11.8c0-6.5-6-11.8-13.5-11.8H249.2z" fill="#ffffff"/>
<path d="M325.4,573.2h-13.5v12.6h13.5V573.2z" fill="#ffffff"/>
<path d="M457.8,664.9v-28.7l49-21.5l-1.4,32.8L457.8,664.9z" fill="#ffffff"/>
<path d="M414.4,644.2c-26.2,8.7-31.6-27.9-31.4-48l-6.4,55.9l34.7,1.2L414.4,644.2z" fill="#ffffff"/>
<path class="st1" d="M480.3,791.9H336.2c-10.7,0-19.3,8.7-19.3,19.3s8.7,19.3,19.3,19.3h144c10.7,0,19.3-8.7,19.3-19.3  S490.9,791.9,480.3,791.9z" fill="#ffffff"/>
<path d="M480.3,838.1H336.2c-14.8,0-26.9-12.1-26.9-26.9s12.1-26.9,26.9-26.9h144c14.8,0,26.9,12.1,26.9,26.9  S495.1,838.1,480.3,838.1z M336.2,799.5c-6.4,0-11.8,5.2-11.8,11.8c0,6.5,5.2,11.8,11.8,11.8h144c6.4,0,11.8-5.2,11.8-11.8  c0-6.5-5.2-11.8-11.8-11.8H336.2z" fill="#ffffff"/>
<path d="M1432.7,606.3h-6.2c-1.7,0-3.1,1.3-3.1,3c0,1.7,1.3,3,3.1,3h3v2.5c-1.2,0.8-2.7,1.2-4.5,1.2c-3.9,0-6.8-3-6.8-7.2v-0.1  c0-3.9,2.9-7,6.5-7c2,0,3.5,0.5,5,1.6c0.4,0.3,1.1,0.7,2.1,0.7c1.8,0,3.4-1.5,3.4-3.4c0-1.5-1-2.4-1.4-2.7c-2.6-1.8-5.2-2.5-8.8-2.5  c-7.7,0-13.7,5.9-13.7,13.5v0.1c0,7.8,5.8,13.4,13.7,13.4c3.2,0,6.2-0.9,9-2.6c1.5-0.9,2.2-2.2,2.2-4v-6  C1436.1,607.8,1434.6,606.3,1432.7,606.3z" fill="#ffffff"/>
<path d="M1464.9,595.7h-0.6c-1.3,0-2.3,0.6-3,1.7l-6.1,9.8l-6-9.8c-0.7-1.1-1.8-1.7-3.1-1.7h-0.6c-1.9,0-3.4,1.5-3.4,3.4v19.8  c0,1.9,1.5,3.3,3.3,3.3c1.8,0,3.4-1.5,3.4-3.3v-10l3.5,5.4c0.8,1.1,1.7,1.7,2.8,1.7c1.2,0,2.1-0.5,2.8-1.7l3.5-5.5v10.1  c0,1.9,1.5,3.4,3.4,3.4c1.9,0,3.4-1.5,3.4-3.4v-19.7C1468.3,597.2,1466.8,595.7,1464.9,595.7z" fill="#ffffff"/>
<circle class="st2" cx="1440.2" cy="608.8" r="40.8" fill="#ffffff"/>
</svg>