<?xml version="1.0" encoding="UTF-8"?>
<svg version="1.1" xmlns="http://www.w3.org/2000/svg" width="2335" height="253">
<path d="M0 0 C5.21063922 4.35695899 10.07416581 8.9358616 14.86303711 13.74951172 C15.61508423 14.50141281 16.36713135 15.2533139 17.14196777 16.02799988 C19.60613996 18.492864 22.06675951 20.96124211 24.52734375 23.4296875 C26.24347927 25.14768975 27.95983694 26.86547012 29.67640686 28.58303833 C34.17813208 33.08856861 38.67684517 37.59709471 43.17492676 42.10626221 C47.77169509 46.71328801 52.37132077 51.31745913 56.97070312 55.921875 C65.98325932 64.94513302 74.99273182 73.97146348 84 83 C89.21063922 78.64304101 94.07416581 74.0641384 98.86303711 69.25048828 C99.99110779 68.12263664 99.99110779 68.12263664 101.14196777 66.97200012 C103.60613996 64.507136 106.06675951 62.03875789 108.52734375 59.5703125 C110.24347927 57.85231025 111.95983694 56.13452988 113.67640686 54.41696167 C118.17813208 49.91143139 122.67684517 45.40290529 127.17492676 40.89373779 C131.77169509 36.28671199 136.37132077 31.68254087 140.97070312 27.078125 C149.98325932 18.05486698 158.99273182 9.02853652 168 0 C173.17656401 4.33008069 178.01312589 8.87464499 182.77124023 13.65771484 C183.51353378 14.39986237 184.25582733 15.14200989 185.02061462 15.90664673 C187.45232135 18.33904528 189.88047539 20.77495733 192.30859375 23.2109375 C194.002309 24.90651952 195.69624643 26.60187963 197.39039612 28.29702759 C201.83293779 32.743374 206.2724672 37.19271615 210.71136475 41.6427002 C215.24780964 46.18940325 219.78711252 50.73325102 224.32617188 55.27734375 C233.22023882 64.18211195 242.11122192 73.08995258 251 82 C254.05775179 80.63415283 256.15881191 79.08911635 258.51812744 76.72238159 C259.19675842 76.04649994 259.8753894 75.37061829 260.57458496 74.67425537 C261.30826294 73.93338684 262.04194092 73.19251831 262.79785156 72.42919922 C263.57872131 71.64862152 264.35959106 70.86804382 265.16412354 70.06381226 C267.74439273 67.48214955 270.31750522 64.89347442 272.890625 62.3046875 C274.67809165 60.51349081 276.46600032 58.72273512 278.2543335 56.93240356 C282.47948631 52.70039428 286.7001546 48.46396242 290.91868377 44.22535431 C295.72246886 39.39920285 300.53194442 34.57873937 305.34190416 29.75874305 C315.23427667 19.84547392 325.11948887 9.92509034 335 0 C342.38169635 6.25457917 342.38169635 6.25457917 345.54858398 9.43505859 C346.14867783 10.03522797 346.74877167 10.63539734 347.36705017 11.25375366 C347.98713455 11.87899933 348.60721893 12.504245 349.24609375 13.1484375 C350.23005882 14.13452499 350.23005882 14.13452499 351.23390198 15.14053345 C353.30415268 17.21632862 355.37087651 19.29559427 357.4375 21.375 C358.85067862 22.7932008 360.26408794 24.21117176 361.67773438 25.62890625 C365.12116065 29.08328777 368.56143099 32.5407837 372 36 C370.44332539 39.72428457 368.15977084 42.08682396 365.31771851 44.92279053 C364.83823403 45.40398385 364.35874955 45.88517718 363.86473525 46.38095212 C362.25877535 47.99020313 360.64577761 49.59220706 359.03271484 51.19433594 C357.87929556 52.34719102 356.7263166 53.50048678 355.57374573 54.65419006 C352.44412928 57.7843807 349.30838145 60.90836342 346.17150831 64.03127956 C342.89410321 67.29618839 339.62235503 70.56675586 336.3500061 73.83673096 C330.15273586 80.0277832 323.95038466 86.21371921 317.7461983 92.39783978 C310.68309568 99.43859339 303.62566627 106.48502188 296.56871104 113.53193617 C282.05211742 128.02762053 267.52840319 142.51615252 253 157 C249.94224821 155.63415283 247.84118809 154.08911635 245.48187256 151.72238159 C244.80324158 151.04649994 244.1246106 150.37061829 243.42541504 149.67425537 C242.69173706 148.93338684 241.95805908 148.19251831 241.20214844 147.42919922 C240.42127869 146.64862152 239.64040894 145.86804382 238.83587646 145.06381226 C236.25560727 142.48214955 233.68249478 139.89347442 231.109375 137.3046875 C229.32190835 135.51349081 227.53399968 133.72273512 225.7456665 131.93240356 C221.52051369 127.70039428 217.2998454 123.46396242 213.08131623 119.22535431 C208.27753114 114.39920285 203.46805558 109.57873937 198.65809584 104.75874305 C188.76572333 94.84547392 178.88051113 84.92509034 169 75 C163.82393587 79.32227064 159.0187609 83.86737645 154.29223633 88.67358398 C153.55636795 89.4173378 152.82049957 90.16109161 152.06233215 90.92738342 C150.47629143 92.53052883 148.89129962 94.13471253 147.30726051 95.73983574 C143.94090898 99.14838687 140.56512002 102.54752496 137.18986797 105.94725895 C130.91449691 112.26833875 124.64308518 118.59322521 118.38793945 124.93432617 C114.02695028 129.35451588 109.65401095 133.76256055 105.27277184 138.16267586 C103.60522522 139.8419983 101.94223313 141.52585574 100.28385353 143.21423149 C97.97374062 145.56510341 95.64875331 147.90021133 93.31958008 150.23217773 C92.63430237 150.93700287 91.94902466 151.641828 91.24298096 152.36801147 C90.60812271 152.99744156 89.97326447 153.62687164 89.31916809 154.27537537 C88.77149686 154.82895438 88.22382563 155.3825334 87.6595583 155.95288754 C86 157 86 157 84.00949097 156.86425972 C81.66361729 155.85532554 80.33206762 154.70414187 78.52897644 152.89646912 C77.86046158 152.23352341 77.19194672 151.5705777 76.50317383 150.88754272 C75.78049316 150.15564728 75.0578125 149.42375183 74.31323242 148.66967773 C73.54360672 147.90209641 72.77398102 147.13451508 71.98103333 146.34367371 C69.43185882 143.79751335 66.89360811 141.24075097 64.35546875 138.68359375 C62.5849188 136.90998558 60.81377696 135.1369681 59.04206848 133.36451721 C55.32448897 129.6423297 51.61167029 125.91546363 47.90307617 122.18432617 C43.16240649 117.41489593 38.4126208 112.65465634 33.65978527 107.89735317 C29.99860812 104.23200462 26.3402705 100.56383359 22.68294716 96.89463997 C20.9336007 95.13961616 19.18379823 93.38504676 17.43352318 91.63094902 C14.97806494 89.16856624 12.52600879 86.70284626 10.07495117 84.23608398 C9.3583432 83.51835815 8.64173523 82.80063232 7.90341187 82.06115723 C3.97707956 78.10170708 0.21897579 74.0509371 -3.40454388 69.81187916 C-6.19732933 66.64025339 -9.24438667 63.73215622 -12.28125 60.796875 C-13.63078605 59.47454768 -14.97972814 58.15161394 -16.328125 56.828125 C-18.42720801 54.7725668 -20.52981574 52.7211899 -22.64257812 50.6796875 C-24.70017139 48.68834609 -26.7417731 46.68174395 -28.78125 44.671875 C-29.42066528 44.0614032 -30.06008057 43.4509314 -30.71887207 42.82196045 C-32.47070313 41.08105469 -32.47070313 41.08105469 -35 38 C-34.75309115 34.52111659 -33.18216657 32.81483631 -30.76538086 30.42480469 C-30.08475082 29.74440125 -29.40412079 29.0639978 -28.7028656 28.36297607 C-27.96431839 27.63991272 -27.22577118 26.91684937 -26.46484375 26.171875 C-25.71159317 25.42286926 -24.95834259 24.67386353 -24.18226624 23.90216064 C-21.77428956 21.51097956 -19.35609255 19.13043835 -16.9375 16.75 C-15.30335262 15.13089823 -13.66988045 13.51111468 -12.03710938 11.890625 C-8.03253917 7.91913583 -4.01893633 3.95694442 0 0 Z " fill="#F6F6F6" transform="translate(35,96)"/>
<path d="M0 0 C12.87 0 25.74 0 39 0 C40.30136552 3.90409655 41.44015083 7.5559216 42.37701416 11.52656555 C42.6319313 12.60093872 42.88684845 13.67531189 43.14949036 14.78224182 C43.42274643 15.94634079 43.6960025 17.11043976 43.97753906 18.30981445 C44.27055405 19.54825104 44.56356903 20.78668762 44.86546326 22.06265259 C45.66775428 25.45378977 46.46666665 28.84571493 47.26500034 32.23778558 C48.10763558 35.81535119 48.95348962 39.39215559 49.79901123 42.96903992 C51.40539155 49.76674529 53.00904356 56.56509111 54.61164737 63.36368769 C56.94182014 73.24826355 59.27605446 83.1318803 61.61028671 93.01549816 C61.95957344 94.49447785 62.30885858 95.97345791 62.65814209 97.45243835 C62.91487186 98.53948516 62.91487186 98.53948516 63.17678809 99.64849252 C64.17460367 103.87385034 65.17165413 108.09938772 66.16799426 112.32509369 C70.07438498 128.89249184 74.01163983 145.45212127 78 162 C78.2052275 161.17724642 78.410455 160.35449284 78.62190151 159.50680733 C83.60999033 139.510331 88.60066737 119.51450222 93.59424496 99.51939583 C96.009013 89.85000017 98.42289653 80.18038529 100.8347168 70.51025391 C102.93625169 62.08421321 105.03942685 53.65858397 107.1445933 45.23344982 C108.2597516 40.77020366 109.37407349 36.30675235 110.48643303 31.84280777 C111.53254047 27.64484587 112.58083315 23.44743588 113.63083458 19.25044632 C114.01664241 17.70666286 114.40163825 16.16267623 114.78577805 14.61847687 C115.30875414 12.51667983 115.83459739 10.41562095 116.3611908 8.31472778 C116.65524276 7.13667635 116.94929472 5.95862492 117.25225735 4.74487495 C118 2 118 2 119 0 C131.54 0 144.08 0 157 0 C158.45148438 5.74535156 159.90296875 11.49070313 161.3984375 17.41015625 C163.39046578 25.29431107 165.38268103 33.17841863 167.375 41.0625 C167.63276844 42.08255253 167.89053688 43.10260506 168.15611649 44.15356827 C175.57239637 73.5009647 182.99658499 102.84633955 190.4375 132.1875 C190.73082844 133.34416105 190.73082844 133.34416105 191.0300827 134.524189 C193.35279244 143.68294389 195.67605793 152.84155771 198 162 C201.86317548 148.16960081 205.05542628 134.18368391 208.3046875 120.19921875 C208.91216379 117.5924672 209.5198233 114.98575901 210.12771606 112.37910461 C211.3983871 106.92879793 212.66735393 101.47809698 213.93505859 96.02709961 C215.70088025 88.43425507 217.46968115 80.84210704 219.23915076 73.25011194 C221.49126231 63.58663766 223.74252514 53.92296447 225.99089241 44.25861835 C226.53160717 41.93449494 227.07270824 39.61046136 227.61422539 37.28652477 C228.99363391 31.35967717 230.35971047 25.43010749 231.70758057 19.4960022 C231.98311831 18.287412 232.25865604 17.07882181 232.54254341 15.83360767 C233.0692283 13.52088818 233.59294751 11.20749076 234.11332512 8.89334393 C234.34680216 7.8697619 234.5802792 6.84617987 234.8208313 5.7915802 C235.0251433 4.88743787 235.2294553 3.98329554 235.43995857 3.05175495 C236 1 236 1 237 0 C239.8116338 -0.08861992 242.59858255 -0.11522355 245.41015625 -0.09765625 C246.25219101 -0.0962413 247.09422577 -0.09482635 247.96177673 -0.09336853 C250.66205335 -0.08775263 253.36224828 -0.07519748 256.0625 -0.0625 C257.88867068 -0.05748705 259.71484266 -0.05292379 261.54101562 -0.04882812 C266.02737542 -0.03777804 270.51367384 -0.02050279 275 0 C274.35234235 5.15208983 273.3166561 10.10944442 272.01660156 15.13818359 C271.81567146 15.92758866 271.61474136 16.71699373 271.40772247 17.53032017 C270.73892088 20.15395063 270.06481462 22.77618687 269.390625 25.3984375 C268.91094348 27.27503651 268.43156014 29.15171175 267.95245361 31.02845764 C266.6587413 36.09183183 265.36021746 41.15396061 264.06063843 46.21583176 C262.97671074 50.44004541 261.89551687 54.66495688 260.81425476 58.88985348 C251.602819 94.87842459 242.29864381 130.84292477 232.94945526 166.79592896 C228.94589993 182.19204933 224.97068932 197.59536473 221 213 C207.14 213 193.28 213 179 213 C172.84567385 190.50873536 167.13000799 167.91622532 161.44030762 145.30383301 C159.4609634 137.43877218 157.47826586 129.57455632 155.49515152 121.7104454 C154.76613093 118.81828519 154.03805125 115.9258892 153.31002808 113.03347778 C150.91662577 103.53327954 148.50081816 94.03951715 146.04150391 84.55615234 C145.80561585 83.64463881 145.5697278 82.73312529 145.32669163 81.79399014 C144.21064078 77.4816391 143.0902113 73.17053607 141.96086121 68.86164856 C141.56590334 67.33905334 141.17114167 65.81640722 140.77661133 64.29370117 C140.59501528 63.60844801 140.41341923 62.92319485 140.22632027 62.21717644 C139.39371608 58.98345761 139 56.37624836 139 53 C138.34 53 137.68 53 137 53 C136.87120956 54.16892792 136.74241913 55.33785583 136.60972595 56.54220581 C136.10513933 60.55935985 135.25608396 64.40057266 134.24438477 68.32470703 C134.06797864 69.01458143 133.89157251 69.70445583 133.70982075 70.41523552 C133.12502271 72.69732417 132.53323536 74.97753809 131.94140625 77.2578125 C131.52033076 78.8951528 131.09969759 80.5326069 130.67947388 82.17016602 C129.54756022 86.57610078 128.4096359 90.98046274 127.27059555 95.38455963 C126.08607724 99.96883049 124.90717843 104.55454571 123.7277832 109.14013672 C121.78718039 116.68269971 119.84344514 124.22444871 117.89746094 131.765625 C115.12543168 142.50868964 112.36212334 153.25398345 109.6015625 164 C108.76361315 167.26156181 107.92563334 170.5231158 107.08764648 173.78466797 C106.88688601 174.56608091 106.68612555 175.34749386 106.47928143 176.15258598 C103.32319971 188.43600378 100.16123026 200.71790637 97 213 C83.14 213 69.28 213 55 213 C49.25696809 192.32508513 49.25696809 192.32508513 47.53417969 185.59155273 C47.32927194 184.79671227 47.12436419 184.0018718 46.91324711 183.18294525 C46.24784973 180.60023854 45.58484862 178.01692359 44.921875 175.43359375 C44.43657083 173.5480204 43.95110761 171.66248799 43.46549988 169.7769928 C42.1622331 164.71504758 40.86102004 159.6525766 39.56022263 154.58999634 C38.19309399 149.27063363 36.82416033 143.95173553 35.45532227 138.6328125 C33.74103637 131.97126926 32.02687849 125.30969329 30.31349182 118.6479187 C26.44357788 103.60239632 22.56615987 88.55882384 18.68349075 73.51658821 C17.80174392 70.10040422 16.92017151 66.68417528 16.03866577 63.26792908 C15.75251341 62.15896176 15.46636105 61.04999445 15.1715374 59.90742207 C14.60091237 57.6959813 14.03029084 55.48453964 13.45967293 53.27309704 C12.0597887 47.84809527 10.65950599 42.42319691 9.25842285 36.99850464 C7.94449889 31.91114464 6.63170009 26.82349561 5.31975746 21.73562431 C4.83655849 19.86259367 4.35293097 17.98967352 3.86885643 16.11686897 C3.21086826 13.57103356 2.55434123 11.02482586 1.89819336 8.47851562 C1.60636988 7.35163409 1.60636988 7.35163409 1.30865097 6.20198727 C0 1.11408935 0 1.11408935 0 0 Z " fill="#F6F6F6" transform="translate(456,25)"/>
<path d="M0 0 C19.96261334 16.63962882 28.53854239 36.3315802 32.453125 61.77636719 C19.253125 61.77636719 6.053125 61.77636719 -7.546875 61.77636719 C-9.196875 56.49636719 -10.846875 51.21636719 -12.546875 45.77636719 C-18.52716727 32.70317014 -27.05846037 24.05056894 -40.546875 18.77636719 C-51.8500064 14.80795544 -66.88269151 15.01554956 -77.98046875 19.51464844 C-82.38018908 21.67767685 -86.52290912 23.96847249 -90.546875 26.77636719 C-91.23394531 27.25460938 -91.92101563 27.73285156 -92.62890625 28.22558594 C-107.14017542 39.58845351 -113.4280098 59.36465487 -115.83691406 76.88598633 C-118.77051327 101.15126796 -115.96401487 129.55474531 -100.48046875 149.42871094 C-91.68919364 159.59601171 -81.24306099 167.81694174 -67.546875 169.77636719 C-50.76361002 170.96264077 -36.7478775 168.52363837 -23.2109375 157.95214844 C-13.07118004 148.86789474 -9.04484556 136.60225925 -5.546875 123.77636719 C7.323125 123.77636719 20.193125 123.77636719 33.453125 123.77636719 C31.57648858 142.54273134 24.95059446 160.42076078 12.453125 174.77636719 C12.00839844 175.36289063 11.56367187 175.94941406 11.10546875 176.55371094 C-1.2317513 192.415851 -22.18495663 199.83738196 -41.296875 203.02636719 C-69.12478605 206.46995484 -96.28572191 201.28096958 -118.734375 183.90136719 C-120.3543013 182.54496957 -121.95893725 181.17007784 -123.546875 179.77636719 C-124.29582031 179.1228125 -125.04476563 178.46925781 -125.81640625 177.79589844 C-145.55648292 159.36952214 -155.36785527 130.85051612 -156.71972656 104.39355469 C-157.81527409 70.29348705 -152.15363451 37.80095123 -128.546875 11.77636719 C-128.00933594 11.15761719 -127.47179688 10.53886719 -126.91796875 9.90136719 C-96.57221995 -22.95418038 -35.16117012 -27.81372864 0 0 Z " fill="#F6F6F6" transform="translate(1411.546875,38.2236328125)"/>
<path d="M0 0 C10.5075054 10.5075054 14.91613095 24.10258304 15.00195312 38.68212891 C15.01439308 39.8296035 15.01439308 39.8296035 15.02708435 41.0002594 C15.0444048 42.65185167 15.05959299 44.3034674 15.07286072 45.9550972 C15.09399625 48.56952356 15.1210075 51.18383176 15.14953613 53.79818726 C15.21915127 60.28745584 15.2787722 66.77680908 15.33856201 73.26617432 C15.38953184 78.75891621 15.44435593 84.25159297 15.50437927 89.74424362 C15.53091387 92.3189474 15.5517478 94.89365751 15.5723877 97.46841431 C15.58899164 99.04616592 15.60586356 100.62391475 15.62304688 102.20166016 C15.62723129 102.91656113 15.63141571 103.6314621 15.63572693 104.36802673 C15.67843968 107.75460369 15.98279674 110.49368694 16.8125 113.8125 C21.4325 114.1425 26.0525 114.4725 30.8125 114.8125 C30.8125 124.3825 30.8125 133.9525 30.8125 143.8125 C26.089375 143.895 21.36625 143.9775 16.5 144.0625 C15.03393311 144.09891602 13.56786621 144.13533203 12.05737305 144.17285156 C3.4925986 144.24471245 -5.29232546 143.92785831 -12.14916992 138.16333008 C-15.89357898 134.2667914 -17.57881125 129.90668103 -19.1875 124.8125 C-19.57679688 125.30878906 -19.96609375 125.80507812 -20.3671875 126.31640625 C-31.15457657 139.41537869 -45.56995084 145.6984331 -62.1875 147.8125 C-78.88786799 149.21435571 -94.22218393 146.20483273 -107.5 135.5625 C-115.921542 127.675933 -119.54605692 117.68799562 -120.46875 106.359375 C-120.80597572 93.60100199 -118.34934893 82.84477265 -110.1875 72.8125 C-96.49371863 58.70301455 -75.43828192 55.26239359 -56.78125 52.53125 C-56.048564 52.42369888 -55.31587799 52.31614777 -54.56098938 52.20533752 C-50.89681495 51.67297209 -47.23116467 51.16389252 -43.55932617 50.68725586 C-36.43298088 49.7277535 -30.29223175 48.78133305 -24.1875 44.8125 C-21.21467915 40.21814051 -20.69398287 36.36154178 -21.56640625 31.08203125 C-22.97456114 25.93650928 -25.07296118 22.19139829 -29.6015625 19.23828125 C-39.6731828 14.05392213 -49.08450379 13.38139398 -60.0625 16.5 C-67.54293888 19.07976949 -71.24864154 21.69020253 -75 28.8125 C-76.68956315 32.31191882 -77.40242763 34.88713817 -78.1875 38.8125 C-90.3975 38.8125 -102.6075 38.8125 -115.1875 38.8125 C-111.33049062 20.81312287 -106.18202182 7.44242988 -90.625 -2.9375 C-63.4043518 -20.06435841 -25.96548982 -17.81945379 0 0 Z M-29.75 70.5 C-36.12157752 72.18126263 -42.51200272 73.43668239 -49.0012207 74.57739258 C-67.36958956 77.38172407 -67.36958956 77.38172407 -81.1875 88.8125 C-84.03497987 94.57093858 -84.27358031 100.9559394 -82.53515625 107.12890625 C-79.82768497 113.25267177 -75.5050735 116.50208154 -69.37890625 118.921875 C-59.80617653 121.59333446 -49.9642776 120.28447716 -41.1875 115.8125 C-31.5450161 110.20759328 -25.35484776 101.39685306 -22.1875 90.8125 C-20.31968512 83.45864598 -19.9241718 76.37587106 -20.1875 68.8125 C-23.66386521 68.8125 -26.38526434 69.59726604 -29.75 70.5 Z " fill="#F6F6F6" transform="translate(844.1875,94.1875)"/>
<path d="M0 0 C15.88808774 14.43427579 21.12086202 35.32948222 23 56 C23 61.94 23 67.88 23 74 C-12.97 74 -48.94 74 -86 74 C-81.95073646 93.17454517 -81.95073646 93.17454517 -71 109 C-59.9195398 115.44709032 -49.61418933 117.98009359 -36.8515625 115.3515625 C-30.1978499 113.170934 -25.7438838 110.14590785 -21 105 C-19.02 101.04 -17.04 97.08 -15 93 C-3.12 93 8.76 93 21 93 C19.12471456 108.00228349 12.35122074 121.10605916 0.73046875 130.93359375 C-16.91504907 144.28764086 -38.28246768 148.23653268 -59.9609375 145.5 C-72.73015968 143.1831102 -83.82262397 139.13167231 -94 131 C-94.75925781 130.41605469 -95.51851562 129.83210937 -96.30078125 129.23046875 C-111.51487187 116.74913361 -119.76074804 97.23942965 -122 78 C-123.89487811 52.57772976 -120.3009757 29.29372481 -104 9 C-103.34773438 8.15179688 -102.69546875 7.30359375 -102.0234375 6.4296875 C-91.19176255 -6.57668667 -73.81354085 -13.48859699 -57.4375 -15.6875 C-36.77539568 -17.46170574 -15.90587758 -14.08227378 0 0 Z M-75.6875 25.03515625 C-81.28713336 32.97263653 -83.79619331 40.3695465 -85 50 C-61.24 50 -37.48 50 -13 50 C-13 39.38548228 -15.68763587 29.02418719 -23 21 C-32.31990745 13.1086915 -42.27175411 12.17325583 -54.00585938 12.8046875 C-62.40703675 13.62752564 -70.36208272 18.61260439 -75.6875 25.03515625 Z " fill="#F6F6F6" transform="translate(2061,96)"/>
<path d="M0 0 C13.53876826 12.49906319 19.86162057 30.07242358 22 48 C22.11085938 48.87785156 22.22171875 49.75570312 22.3359375 50.66015625 C23.19256564 58.52029827 23 65.98858011 23 74 C-12.97 74 -48.94 74 -86 74 C-82.011962 94.83966484 -82.011962 94.83966484 -68.86328125 110.46875 C-58.90977843 116.28200122 -48.1778754 117.70075366 -36.86328125 115.34765625 C-30.20132004 113.18275114 -25.7443875 110.14645424 -21 105 C-19.02 101.04 -17.04 97.08 -15 93 C-3.12 93 8.76 93 21 93 C17.77061955 109.14690223 11.87367167 122.42238906 -1.5 132.5 C-20.73704104 145.30675739 -43.62034785 148.99145353 -66.18066406 144.47607422 C-84.10405743 140.43243594 -99.02239168 130.03867342 -109.15625 114.74609375 C-118.66926047 99.23756216 -122.397094 83.26487095 -122.3125 65.1875 C-122.30758545 63.94863037 -122.3026709 62.70976074 -122.29760742 61.43334961 C-122.1879987 52.89904621 -121.68948514 45.15486458 -119 37 C-118.64808594 35.91332031 -118.29617188 34.82664063 -117.93359375 33.70703125 C-111.06238013 14.36331767 -99.13638794 -0.28075282 -80.5625 -9.3125 C-54.467464 -20.70392734 -22.22791531 -18.41741554 0 0 Z M-76 25 C-82.10040117 32.72082023 -83.36716132 40.12685496 -86 50 C-61.91 50 -37.82 50 -13 50 C-14.26912183 36.03965991 -16.32383434 27.43148953 -27 18 C-42.39196216 7.77475976 -64.06894704 11.60086826 -76 25 Z " fill="#F6F6F6" transform="translate(1122,96)"/>
<path d="M0 0 C0.78142365 0.00337372 1.56284729 0.00674744 2.36795044 0.01022339 C51.20690875 0.31416549 95.48343815 23.55253726 129.6875 57.6875 C130.55375 58.595 131.42 59.5025 132.3125 60.4375 C130.9363464 63.52929136 129.36091555 65.63388753 126.96435547 68.01269531 C125.94352371 69.03330048 125.94352371 69.03330048 124.90206909 70.07452393 C124.16868317 70.79758728 123.43529724 71.52065063 122.6796875 72.265625 C121.92785187 73.01463074 121.17601624 73.76363647 120.40139771 74.53533936 C118.00142099 76.9241302 115.59457991 79.30586897 113.1875 81.6875 C111.55813648 83.30683169 109.92922466 84.92661802 108.30078125 86.546875 C104.30991194 90.51570505 100.31338585 94.47876899 96.3125 98.4375 C95.19708229 97.4872787 94.08249784 96.53607922 92.96826172 95.58447266 C92.34748749 95.05487946 91.72671326 94.52528625 91.08712769 93.97964478 C88.80219662 91.99404829 86.62747112 89.90194785 84.4375 87.8125 C72.73867557 77.18593444 59.74022535 68.83654385 45.3125 62.4375 C44.67570313 62.15148926 44.03890625 61.86547852 43.3828125 61.57080078 C34.57796794 57.66926634 25.81232858 55.06326888 16.3125 53.4375 C15.03375 53.210625 13.755 52.98375 12.4375 52.75 C-20.40627845 49.47259536 -51.4538496 61.92194906 -76.6875 82.4375 C-80.87729083 85.90715389 -85.00070972 89.44942633 -89.07275391 93.05639648 C-91.23279351 94.90389332 -93.467989 96.6618912 -95.6875 98.4375 C-107.5675 86.5575 -119.4475 74.6775 -131.6875 62.4375 C-129.66291625 58.38833249 -127.40125409 55.97582444 -124.125 53 C-123.27204346 52.22100342 -123.27204346 52.22100342 -122.40185547 51.42626953 C-106.23447691 36.91597136 -88.39436684 24.56563581 -68.6875 15.4375 C-66.99560547 14.63699219 -66.99560547 14.63699219 -65.26953125 13.8203125 C-58.60714044 10.80544397 -51.85696092 8.40418056 -44.875 6.25 C-44.11799805 6.01200684 -43.36099609 5.77401367 -42.58105469 5.52880859 C-28.51697563 1.3598346 -14.60257539 -0.12350018 0 0 Z " fill="#F6F6F6" transform="translate(202.6875,-0.4375)"/>
<path d="M0 0 C14.97751323 14.06624487 23.6602781 32.20877623 24.95483398 52.82446289 C25.05328299 56.32328561 25.07893263 59.81234897 25.0625 63.3125 C25.05512817 65.16693726 25.05512817 65.16693726 25.04760742 67.05883789 C24.76255078 89.27717615 17.85920847 110.7674112 1.64453125 126.62109375 C-15.22319983 141.11547574 -36.43612936 145.87954607 -58.25 144.5625 C-75.9978523 142.74834725 -93.25507731 135.97311754 -105.57421875 122.67578125 C-122.35219449 101.51754145 -127.9888386 76.52841947 -124.94091797 49.85791016 C-122.72590374 34.4999124 -117.96337659 20.86036704 -108.25 8.5625 C-107.74082031 7.87800781 -107.23164062 7.19351563 -106.70703125 6.48828125 C-95.28368217 -7.86847105 -77.32606222 -14.8175401 -59.625 -17.125 C-37.95667979 -19.01262136 -16.59907576 -14.52727433 0 0 Z M-77.93359375 25.40625 C-88.84109937 38.68022193 -89.31515032 57.19037641 -88.25 73.5625 C-86.79898015 86.49408388 -82.1451714 98.7917799 -72.25 107.5625 C-62.81808013 114.3191134 -53.69052847 115.65397899 -42.25 114.5625 C-32.47580169 112.66062397 -25.0300387 106.97182697 -19.4375 98.8125 C-10.09464819 82.28531732 -9.37807185 61.75249581 -13.25 43.5625 C-16.46736371 32.42740528 -21.79745685 22.36783128 -32.16015625 16.4765625 C-48.46156868 7.8840423 -65.9112985 12.24030253 -77.93359375 25.40625 Z " fill="#F6F6F6" transform="translate(1580.25,97.4375)"/>
<path d="M0 0 C13.76759171 12.90874384 17.17954574 30.61845813 17.9237442 48.81154251 C18.08806222 55.70862024 18.04669721 62.605526 18.01171875 69.50390625 C18.00797884 71.69921234 18.00513651 73.89452012 18.00314331 76.08982849 C17.99558374 81.8090798 17.97600314 87.5282261 17.95373535 93.24743652 C17.93310956 99.10700054 17.92410616 104.96658186 17.9140625 110.82617188 C17.8927484 122.28000097 17.85763083 133.73372524 17.81640625 145.1875 C5.93640625 145.1875 -5.94359375 145.1875 -18.18359375 145.1875 C-18.21332275 141.11704346 -18.21332275 141.11704346 -18.24365234 136.96435547 C-18.31085935 127.9518034 -18.38849265 118.93936221 -18.47112083 109.92693901 C-18.52085422 104.46808234 -18.56718446 99.0092429 -18.60546875 93.55029297 C-18.64261383 88.27227562 -18.68904899 82.99441109 -18.74165726 77.71652603 C-18.76004723 75.71296013 -18.77521056 73.70936167 -18.78693771 71.7057457 C-18.18916974 47.93833014 -18.18916974 47.93833014 -27.97265625 27.125 C-34.57481048 20.8121832 -41.06097495 19.06432729 -50.05859375 18.75 C-60.8870036 19.05272974 -68.24122749 22.21774461 -76.0234375 29.765625 C-83.84281371 38.5323759 -86.63559436 49.42181236 -86.6159668 60.95166016 C-86.62615845 61.86995605 -86.6363501 62.78825195 -86.64685059 63.734375 C-86.67674273 66.73183481 -86.68620989 69.72897384 -86.6953125 72.7265625 C-86.71217684 74.81978396 -86.73032942 76.9129954 -86.74971008 79.00619507 C-86.79702551 84.48708973 -86.82695405 89.96794375 -86.85314941 95.44897461 C-86.88304839 101.05330426 -86.9295465 106.65749415 -86.97460938 112.26171875 C-87.06043248 123.23692176 -87.1263347 134.21211076 -87.18359375 145.1875 C-99.06359375 145.1875 -110.94359375 145.1875 -123.18359375 145.1875 C-123.18359375 94.3675 -123.18359375 43.5475 -123.18359375 -8.8125 C-111.30359375 -8.8125 -99.42359375 -8.8125 -87.18359375 -8.8125 C-86.68859375 0.5925 -86.68859375 0.5925 -86.18359375 10.1875 C-84.20359375 7.8775 -82.22359375 5.5675 -80.18359375 3.1875 C-57.9015482 -15.91139618 -23.40857881 -19.43037669 0 0 Z " fill="#F6F6F6" transform="translate(1907.18359375,92.8125)"/>
<path d="M0 0 C4.58458403 4.04155563 7.43058707 8.71619873 10.19921875 14.0859375 C10.68769287 15.01962158 10.68769287 15.01962158 11.18603516 15.97216797 C18.10962572 30.26219965 17.28424366 45.25089561 17.1796875 60.73046875 C17.17408358 63.17811319 17.16981725 65.62576101 17.16682434 68.07341003 C17.15543826 74.47666925 17.12602529 80.87972028 17.0927124 87.28289795 C17.06187637 93.83245021 17.04829021 100.38203651 17.03320312 106.93164062 C17.00114915 119.75401185 16.94843271 132.57617469 16.88671875 145.3984375 C5.00671875 145.3984375 -6.87328125 145.3984375 -19.11328125 145.3984375 C-19.12262695 142.40168945 -19.13197266 139.40494141 -19.14160156 136.31738281 C-19.1754668 126.38276146 -19.23106877 116.44834573 -19.29718399 106.51388931 C-19.33658396 100.49443774 -19.36880921 94.47513082 -19.38427734 88.45556641 C-19.39949305 82.63930141 -19.43402605 76.82343432 -19.48159027 71.00734711 C-19.49635342 68.79559551 -19.50431933 66.58378709 -19.5051651 64.37198639 C-19.16926016 43.5886125 -19.16926016 43.5886125 -29.1796875 26.01953125 C-37.41561653 19.11466146 -46.72846099 18.605535 -57.11328125 19.3984375 C-64.01244368 20.97148073 -68.95793071 23.63965239 -74.11328125 28.3984375 C-74.77328125 28.3984375 -75.43328125 28.3984375 -76.11328125 28.3984375 C-76.39300781 28.98367187 -76.67273437 29.56890625 -76.9609375 30.171875 C-78.03588084 32.24888417 -79.23360449 34.09486094 -80.55078125 36.0234375 C-85.28437656 43.59372228 -86.5604687 51.45541808 -86.5456543 60.25439453 C-86.55584595 61.182444 -86.5660376 62.11049347 -86.57653809 63.06666565 C-86.6064352 66.09659036 -86.61589818 69.12619776 -86.625 72.15625 C-86.64186397 74.2718916 -86.6600165 76.38752328 -86.67939758 78.50314331 C-86.72671705 84.04322206 -86.756643 89.58326059 -86.78283691 95.12347412 C-86.81273383 100.788126 -86.85923265 106.45263957 -86.90429688 112.1171875 C-86.99012459 123.2108807 -87.05602457 134.30456001 -87.11328125 145.3984375 C-98.99328125 145.3984375 -110.87328125 145.3984375 -123.11328125 145.3984375 C-123.11328125 94.5784375 -123.11328125 43.7584375 -123.11328125 -8.6015625 C-111.23328125 -8.6015625 -99.35328125 -8.6015625 -87.11328125 -8.6015625 C-86.61828125 0.8034375 -86.61828125 0.8034375 -86.11328125 10.3984375 C-85.16453125 9.2228125 -84.21578125 8.0471875 -83.23828125 6.8359375 C-62.30412465 -16.95669832 -24.58983479 -18.63554947 0 0 Z " fill="#F6F6F6" transform="translate(1744.11328125,92.6015625)"/>
<path d="M0 0 C18.51005614 -0.51500975 36.79745019 4.19663715 51.01171875 16.37109375 C55.72033456 20.8259965 59.40187898 25.59028059 62.76171875 31.12109375 C63.45394531 32.23871094 63.45394531 32.23871094 64.16015625 33.37890625 C68.35596529 40.88050423 71.76171875 51.44133858 71.76171875 60.12109375 C59.55171875 60.12109375 47.34171875 60.12109375 34.76171875 60.12109375 C33.44171875 56.16109375 32.12171875 52.20109375 30.76171875 48.12109375 C26.49343519 39.83859112 21.05533311 35.30081731 12.57421875 31.80859375 C1.64614413 29.83795734 -8.19771137 30.63047386 -17.67578125 36.67578125 C-26.71357522 43.78999069 -31.63257166 55.22178968 -33.80078125 66.3203125 C-35.8686231 84.28468857 -35.31234904 103.95282717 -24.23828125 119.12109375 C-17.8856447 126.32725153 -11.00644558 130.55777353 -1.3984375 131.49609375 C8.36817055 131.93813691 16.5059481 130.49083448 24.51171875 124.62109375 C29.69464273 119.84346951 32.56711675 112.70489975 34.76171875 106.12109375 C46.97171875 106.12109375 59.18171875 106.12109375 71.76171875 106.12109375 C67.0475942 124.97759195 61.84205499 139.97054425 45.38671875 150.99609375 C24.79693392 163.03319873 1.63342072 165.10329311 -21.23828125 159.12109375 C-40.18326304 152.96397467 -53.95603438 140.58990211 -63.63671875 123.39453125 C-70.07787646 110.2294333 -72.62861135 96.44901066 -72.55078125 81.87109375 C-72.5458667 80.77571289 -72.54095215 79.68033203 -72.53588867 78.55175781 C-72.19841823 55.11919503 -64.0172041 34.52401833 -47.23828125 18.12109375 C-34.22855247 6.17700828 -17.37682055 0.94010722 0 0 Z " fill="#F6F6F6" transform="translate(2164.23828125,79.87890625)"/>
<path d="M0 0 C11.88 0 23.76 0 36 0 C36 16.5 36 33 36 50 C46.89 50 57.78 50 69 50 C69 59.24 69 68.48 69 78 C58.11 78 47.22 78 36 78 C36.06304247 88.79698133 36.13855838 99.5936811 36.23571491 110.39041042 C36.28034219 115.40438145 36.31961506 120.41827265 36.34643555 125.43237305 C36.37254488 130.27602084 36.41300095 135.11936018 36.46318626 139.96281624 C36.4798035 141.80582896 36.49134968 143.64889498 36.49761391 145.49197197 C36.50731125 148.08408417 36.53543653 150.67541636 36.56762695 153.26733398 C36.56619186 154.02043854 36.56475677 154.77354309 36.5632782 155.54946899 C36.65863667 161.01902414 37.68530662 166.0118995 40 171 C43.61114773 174.22425289 46.87637916 174.4035703 51.61328125 174.51171875 C52.73774658 174.54483154 53.86221191 174.57794434 55.02075195 174.61206055 C57.14516724 174.64940308 57.14516724 174.64940308 59.3125 174.6875 C66.0878125 174.8421875 66.0878125 174.8421875 73 175 C73 184.57 73 194.14 73 204 C67.23781668 204.06933108 61.47711374 204.12892422 55.71484375 204.16479492 C53.7597154 204.1797675 51.80461997 204.20015281 49.84960938 204.22631836 C20.30029504 204.61154715 20.30029504 204.61154715 10.1640625 195.31640625 C0.95367939 185.65910582 -0.16811207 174.32132032 -0.11352539 161.5546875 C-0.11367142 160.64643723 -0.11381744 159.73818695 -0.1139679 158.80241394 C-0.11327612 155.82658425 -0.10551838 152.85081864 -0.09765625 149.875 C-0.09578946 147.80135126 -0.09436679 145.72770208 -0.09336853 143.65405273 C-0.08956393 138.21582811 -0.07975133 132.77763051 -0.06866455 127.3394165 C-0.05840608 121.78227097 -0.05386143 116.22512104 -0.04882812 110.66796875 C-0.03812711 99.7786321 -0.02054708 88.88932253 0 78 C-7.92 78 -15.84 78 -24 78 C-24 68.76 -24 59.52 -24 50 C-13.625 49.625 -13.625 49.625 -10.35791016 49.52197266 C-9.51019043 49.4863623 -8.6624707 49.45075195 -7.7890625 49.4140625 C-6.91975098 49.3826416 -6.05043945 49.3512207 -5.15478516 49.31884766 C-2.79038206 49.18770567 -2.79038206 49.18770567 -1 47 C-0.66983494 44.90019956 -0.66983494 44.90019956 -0.68115234 42.45849609 C-0.66128265 41.51767181 -0.64141296 40.57684753 -0.62094116 39.60751343 C-0.60938995 38.58976837 -0.59783875 37.57202332 -0.5859375 36.5234375 C-0.56657135 35.48305328 -0.5472052 34.44266907 -0.5272522 33.37075806 C-0.46734273 30.0389228 -0.42102548 26.70705321 -0.375 23.375 C-0.3368307 21.11977637 -0.2977796 18.86456748 -0.2578125 16.609375 C-0.15996774 11.07299218 -0.08048865 5.53677154 0 0 Z " fill="#F6F6F6" transform="translate(1170,34)"/>
<path d="M0 0 C11.88 0 23.76 0 36 0 C36 16.5 36 33 36 50 C46.56 50 57.12 50 68 50 C68 59.24 68 68.48 68 78 C57.44 78 46.88 78 36 78 C36.06294049 89.37032152 36.13836973 100.7403726 36.23571491 112.11045265 C36.28041968 117.39018855 36.31967571 122.66984726 36.34643555 127.94970703 C36.37246726 133.04620498 36.41286906 138.14240592 36.46318626 143.23871994 C36.47985581 145.18190183 36.49136954 147.12513509 36.49761391 149.06837845 C36.50725395 151.79280902 36.53531219 154.5164796 36.56762695 157.24072266 C36.56619186 158.04201599 36.56475677 158.84330933 36.5632782 159.66888428 C36.64411963 164.49618934 37.37528359 167.79701564 40 172 C43.22724016 174.44565677 46.56013192 174.30618542 50.515625 174.4140625 C51.64258789 174.44967285 52.76955078 174.4852832 53.93066406 174.52197266 C56.06873535 174.57297119 56.06873535 174.57297119 58.25 174.625 C62.7875 174.74875 67.325 174.8725 72 175 C72 184.57 72 194.14 72 204 C66.23781668 204.06933108 60.47711374 204.12892422 54.71484375 204.16479492 C52.7597154 204.1797675 50.80461997 204.20015281 48.84960938 204.22631836 C19.04764393 204.61484092 19.04764393 204.61484092 8.28515625 194.3671875 C0.95087744 186.36941648 -0.15501824 177.82072973 -0.11352539 167.34448242 C-0.11367142 166.3781488 -0.11381744 165.41181519 -0.1139679 164.41619873 C-0.11327248 161.22926573 -0.1054974 158.04239152 -0.09765625 154.85546875 C-0.09579075 152.64301078 -0.09436747 150.4305524 -0.09336853 148.21809387 C-0.08955372 142.40006364 -0.07973225 136.58205844 -0.06866455 130.76403809 C-0.05842818 124.82511738 -0.05386614 118.88619262 -0.04882812 112.94726562 C-0.03810907 101.29816432 -0.02052063 89.64908816 0 78 C-7.92 78 -15.84 78 -24 78 C-24 68.76 -24 59.52 -24 50 C-16.74 49.67 -9.48 49.34 -2 49 C-1.30503192 45.52515958 -0.86413907 42.83660807 -0.79467773 39.39331055 C-0.77473251 38.51277512 -0.75478729 37.63223969 -0.73423767 36.72502136 C-0.71752518 35.7883815 -0.70081268 34.85174164 -0.68359375 33.88671875 C-0.66281265 32.91716751 -0.64203156 31.94761627 -0.62062073 30.94868469 C-0.55541059 27.86169293 -0.4963732 24.77461848 -0.4375 21.6875 C-0.39428763 19.59048636 -0.35067248 17.49348097 -0.30664062 15.39648438 C-0.19900306 10.2644063 -0.09971738 5.1322625 0 0 Z " fill="#F6F6F6" transform="translate(2263,34)"/>
<path d="M0 0 C11.88 0 23.76 0 36 0 C36 70.29 36 140.58 36 213 C24.12 213 12.24 213 0 213 C0 142.71 0 72.42 0 0 Z " fill="#F6F6F6" transform="translate(948,25)"/>
<path d="M0 0 C11.88 0 23.76 0 36 0 C36 70.29 36 140.58 36 213 C24.12 213 12.24 213 0 213 C0 142.71 0 72.42 0 0 Z " fill="#F6F6F6" transform="translate(888,25)"/>
</svg>
