<svg width="940" height="300" viewBox="0 0 940 300" fill="none" xmlns="http://www.w3.org/2000/svg">
<path d="M0 8.00001C0 3.58173 3.58172 1.27637e-05 8 1.27637e-05H132C136.418 1.27637e-05 140 3.58174 140 8.00001V41.7352C140 43.1403 140.737 44.4423 141.942 45.1652L147.942 48.7652C149.209 49.5253 150.791 49.5253 152.058 48.7652L158.058 45.1652C159.263 44.4423 160 43.1403 160 41.7353V8.00001C160 3.58174 163.582 1.27637e-05 168 1.27637e-05H292C296.418 1.27637e-05 300 3.58174 300 8.00001V82C300 86.4183 296.418 90 292 90H171.889C170.647 90 169.422 89.7109 168.311 89.1554L151.789 80.8944C150.663 80.3314 149.337 80.3314 148.211 80.8944L132.211 88.8944C130.856 89.572 130 90.9571 130 92.4721V107.528C130 109.043 130.856 110.428 132.211 111.106L148.211 119.106C149.337 119.669 150.663 119.669 151.789 119.106L168.311 110.845C169.422 110.289 170.647 110 171.889 110H292C296.418 110 300 113.582 300 118V182C300 186.418 296.418 190 292 190H171.889C170.647 190 169.422 189.711 168.311 189.155L151.789 180.894C150.663 180.331 149.337 180.331 148.211 180.894L132.211 188.894C130.856 189.572 130 190.957 130 192.472V207.528C130 209.043 130.856 210.428 132.211 211.106L147.789 218.894C149.144 219.572 150 220.957 150 222.472V292C150 296.418 146.418 300 142 300H8C3.58172 300 0 296.418 0 292V218C0 213.582 3.58172 210 8 210H41.7352C43.1403 210 44.4423 209.263 45.1652 208.058L48.7652 202.058C49.5252 200.791 49.5252 199.209 48.7652 197.942L45.1652 191.942C44.4423 190.737 43.1403 190 41.7352 190H8C3.58172 190 0 186.418 0 182V118C0 113.582 3.58172 110 8 110H41.7352C43.1403 110 44.4423 109.263 45.1652 108.058L48.7652 102.058C49.5252 100.791 49.5252 99.2088 48.7652 97.942L45.1652 91.942C44.4423 90.7372 43.1403 90 41.7352 90H8C3.58172 90 0 86.4183 0 82V8.00001Z" fill="#1E1E1E"/>
<path d="M648 210C643.582 210 640 213.582 640 218V292C640 296.418 643.582 300 648 300H722C726.418 300 730 296.418 730 292V258.265C730 256.86 730.737 255.558 731.942 254.835L737.942 251.235C739.209 250.475 740.791 250.475 742.058 251.235L748.058 254.835C749.263 255.558 750 256.86 750 258.265V292C750 296.418 753.582 300 758 300L932 300C936.418 300 940 296.418 940 292V168C940 163.582 936.418 160 932 160H898.265C896.86 160 895.558 159.263 894.835 158.058L891.235 152.058C890.475 150.791 890.475 149.209 891.235 147.942L894.835 141.942C895.558 140.737 896.86 140 898.265 140H932C936.418 140 940 136.418 940 132V8C940 3.58172 936.418 -1.93129e-07 932 0L758 7.60578e-06C753.582 7.79891e-06 750 3.58173 750 8.00001V41.7352C750 43.1403 749.263 44.4423 748.058 45.1652L742.058 48.7652C740.791 49.5253 739.209 49.5253 737.942 48.7652L731.942 45.1652C730.737 44.4423 730 43.1403 730 41.7352V8.00001C730 3.58173 726.418 8.98626e-06 722 9.17939e-06L648 1.2414e-05C643.582 1.26072e-05 640 3.58174 640 8.00001V82C640 86.4183 643.582 90 648 90L818.111 90C819.353 90 820.578 89.7108 821.689 89.1554L838.211 80.8944C839.337 80.3314 840.663 80.3314 841.789 80.8944L857.789 88.8944C859.144 89.572 860 90.957 860 92.4721V107.528C860 109.043 859.144 110.428 857.789 111.106L841.789 119.106C840.663 119.669 839.337 119.669 838.211 119.106L821.689 110.845C820.578 110.289 819.353 110 818.111 110L648 110C643.582 110 640 113.582 640 118V182C640 186.418 643.582 190 648 190L818.111 190C819.353 190 820.578 189.711 821.689 189.155L838.211 180.894C839.337 180.331 840.663 180.331 841.789 180.894L857.789 188.894C859.144 189.572 860 190.957 860 192.472V207.528C860 209.043 859.144 210.428 857.789 211.106L841.789 219.106C840.663 219.669 839.337 219.669 838.211 219.106L821.689 210.845C820.578 210.289 819.353 210 818.111 210L648 210Z" fill="#1E1E1E"/>
<path d="M410 8.00001C410 3.58174 406.418 1.3813e-05 402 1.37594e-05L328 1.28609e-05C323.582 1.28072e-05 320 3.58173 320 8.00001V82C320 86.4183 323.582 90 328 90H361.735C363.14 90 364.442 90.7372 365.165 91.942L368.765 97.942C369.525 99.2088 369.525 100.791 368.765 102.058L365.165 108.058C364.442 109.263 363.14 110 361.735 110H328C323.582 110 320 113.582 320 118V182C320 186.418 323.582 190 328 190H361.735C363.14 190 364.442 190.737 365.165 191.942L368.765 197.942C369.525 199.209 369.525 200.791 368.765 202.058L365.165 208.058C364.442 209.263 363.14 210 361.735 210H328C323.582 210 320 213.582 320 218V292C320 296.418 323.582 300 328 300H452C456.418 300 460 296.418 460 292V258.265C460 256.86 460.737 255.558 461.942 254.835L467.942 251.235C469.209 250.475 470.791 250.475 472.058 251.235L478.058 254.835C479.263 255.558 480 256.86 480 258.265V292C480 296.418 483.582 300 488 300H612C616.418 300 620 296.418 620 292V218C620 213.582 616.418 210 612 210H578.265C576.86 210 575.558 209.263 574.835 208.058L571.235 202.058C570.475 200.791 570.475 199.209 571.235 197.942L574.835 191.942C575.558 190.737 576.86 190 578.265 190H612C616.418 190 620 186.418 620 182V118C620 113.582 616.418 110 612 110H578.265C576.86 110 575.558 109.263 574.835 108.058L571.235 102.058C570.475 100.791 570.475 99.2088 571.235 97.942L574.835 91.942C575.558 90.7372 576.86 90 578.265 90H612C616.418 90 620 86.4183 620 82V8.00001C620 3.58174 616.418 1.3129e-05 612 1.35797e-05L538 2.11272e-05C533.582 2.15778e-05 530 3.58174 530 8.00002V178.111C530 179.353 530.289 180.578 530.845 181.689L539.106 198.211C539.669 199.337 539.669 200.663 539.106 201.789L531.106 217.789C530.428 219.144 529.043 220 527.528 220H512.472C510.957 220 509.572 219.144 508.894 217.789L500.894 201.789C500.331 200.663 500.331 199.337 500.894 198.211L509.155 181.689C509.711 180.578 510 179.353 510 178.111V8.00002C510 3.58174 506.418 2.0746e-05 502 2.03477e-05L438 1.45777e-05C433.582 1.41794e-05 430 3.58174 430 8.00001V178.111C430 179.353 430.289 180.578 430.845 181.689L439.106 198.211C439.669 199.337 439.669 200.663 439.106 201.789L431.106 217.789C430.428 219.144 429.043 220 427.528 220H412.472C410.957 220 409.572 219.144 408.894 217.789L400.894 201.789C400.331 200.663 400.331 199.337 400.894 198.211L409.155 181.689C409.711 180.578 410 179.353 410 178.111V8.00001Z" fill="#1E1E1E"/>
</svg>
