<svg width="1024" height="1024" viewBox="0 0 1024 1024" fill="none" xmlns="http://www.w3.org/2000/svg">
<rect width="1024" height="1024" fill="black"/>
<path d="M855.963 598.853C841.657 598.853 830.29 595.464 821.863 588.687C813.436 581.715 809.223 569.419 809.223 551.797V480.923H772.478V454.78H794.231C804.225 454.78 810.105 449.939 811.869 440.257L816.278 417.02H840.383V454.78H898V480.923H840.383V551.216C840.383 558.768 842.049 564.094 845.38 567.192C848.908 570.097 854.885 571.549 863.312 571.549H897.412V598.853H855.963Z" fill="white"/>
<path d="M618.178 598.973V389.836H649.338V515.318L705.191 454.901H744.288L683.437 518.804V521.128L752.225 598.973H714.304L649.338 524.904V598.973H618.178Z" fill="white"/>
<path d="M537.128 433.023C530.269 433.023 524.487 430.893 519.784 426.632C515.277 422.178 513.023 416.756 513.023 410.366C513.023 403.976 515.277 398.651 519.784 394.39C524.487 390.13 530.269 388 537.128 388C544.183 388 549.964 390.13 554.472 394.39C559.175 398.651 561.527 403.976 561.527 410.366C561.527 416.756 559.175 422.178 554.472 426.632C549.964 430.893 544.183 433.023 537.128 433.023ZM457.17 663.074V636.351H514.787C521.254 636.351 524.487 633.156 524.487 626.765V491.407C524.487 485.017 521.254 481.821 514.787 481.821H478.923V455.098H520.666C532.816 455.098 541.635 457.906 547.123 463.522C552.806 468.944 555.648 477.658 555.648 489.664V628.508C555.648 640.514 552.806 649.228 547.123 654.65C541.635 660.266 532.816 663.074 520.666 663.074H457.17Z" fill="white"/>
<path d="M387.98 602.459C377.201 602.459 368.089 600.329 360.642 596.069C353.39 591.615 347.805 585.515 343.886 577.769H342.122L339.476 598.973H312.726V389.836H343.886V473.491C347.413 467.682 352.998 462.55 360.642 458.096C368.285 453.642 377.397 451.415 387.98 451.415C400.131 451.415 411.007 454.32 420.61 460.129C430.213 465.745 437.758 474.169 443.245 485.4C448.928 496.632 451.77 510.477 451.77 526.937C451.77 543.397 448.928 557.243 443.245 568.474C437.758 579.706 430.213 588.226 420.61 594.035C411.007 599.651 400.131 602.459 387.98 602.459ZM381.513 573.122C392.683 573.122 401.894 569.346 409.145 561.793C416.592 554.048 420.316 542.526 420.316 527.228C420.316 511.736 416.592 500.117 409.145 492.371C401.894 484.626 392.683 480.753 381.513 480.753C370.342 480.753 361.033 484.626 353.586 492.371C346.335 499.924 342.71 511.446 342.71 526.937C342.71 542.235 346.335 553.757 353.586 561.503C361.033 569.249 370.342 573.122 381.513 573.122Z" fill="white"/>
<path d="M198.608 602.739C184.694 602.739 172.249 599.641 161.275 593.444C150.3 587.247 141.677 578.533 135.406 567.302C129.135 555.877 125.999 542.515 125.999 527.217C125.999 511.919 129.135 498.654 135.406 487.423C141.677 475.998 150.3 467.187 161.275 460.99C172.249 454.794 184.792 451.695 198.902 451.695C213.012 451.695 225.456 454.794 236.235 460.99C247.21 467.187 255.735 475.998 261.81 487.423C268.081 498.654 271.217 511.919 271.217 527.217C271.217 542.515 268.081 555.877 261.81 567.302C255.539 578.533 246.916 587.247 235.941 593.444C225.162 599.641 212.718 602.739 198.608 602.739ZM198.608 573.402C206.055 573.402 212.914 571.756 219.185 568.464C225.456 565.172 230.454 560.137 234.177 553.359C238.097 546.388 240.057 537.674 240.057 527.217C240.057 516.567 238.097 507.853 234.177 501.075C230.454 494.297 225.456 489.263 219.185 485.971C213.11 482.679 206.349 481.033 198.902 481.033C191.455 481.033 184.596 482.679 178.324 485.971C172.053 489.263 166.958 494.297 163.038 501.075C159.315 507.853 157.453 516.567 157.453 527.217C157.453 543.096 161.471 554.812 169.506 562.364C177.736 569.722 187.437 573.402 198.608 573.402Z" fill="white"/>
</svg>
