<svg width="106" height="28" viewBox="0 0 106 28" fill="none" xmlns="http://www.w3.org/2000/svg">
<g clip-path="url(#clip0_7704_183615)">
<path d="M16.4889 8.16667C16.4889 3.65636 20.1801 0 24.7333 0H36.5111C41.0646 0 44.7555 3.65636 44.7555 8.16667V19.8333C44.7555 24.3436 41.0646 28 36.5111 28H24.7333C20.1801 28 16.4889 24.3436 16.4889 19.8333V8.16667Z" fill="#131313"/>
<path fill-rule="evenodd" clip-rule="evenodd" d="M31.6367 8.07324L27.4344 19.3432H28.8487L33.051 8.07324H31.6367Z" fill="white"/>
<path d="M0 7.58333C0 3.39518 3.42751 0 7.65555 0C11.8836 0 15.3111 3.39518 15.3111 7.58333V20.4167C15.3111 24.6048 11.8836 28 7.65555 28C3.42751 28 0 24.6048 0 20.4167V7.58333Z" fill="#131313"/>
<path fill-rule="evenodd" clip-rule="evenodd" d="M6.82507 15.9478V17.5927H8.48577V15.9478H6.82507Z" fill="white"/>
<path d="M45.9335 14C45.9335 6.26805 51.8546 0 59.1591 0H92.7743C100.079 0 106 6.26805 106 14C106 21.7319 100.079 28 92.7743 28H59.1591C51.8546 28 45.9335 21.7319 45.9335 14Z" fill="#131313"/>
<path d="M88.3719 10.7952H87.0536V17.4266H88.3719V13.6104C88.3719 12.5104 89.1669 11.7414 90.142 11.7414C90.5969 11.7414 90.9722 11.8832 91.2336 12.1527C91.496 12.4225 91.6528 12.83 91.6528 13.3794V17.4266H92.9581V13.3152C92.9581 12.4401 92.7071 11.7666 92.2661 11.3112C91.8251 10.8558 91.2025 10.6284 90.4789 10.6284C89.6249 10.6284 88.8382 10.9746 88.3719 11.5814V10.7952Z" fill="white"/>
<path d="M78.6062 10.7954L79.8411 17.4267H81.265L82.3193 14.246L83.3607 17.4267H84.7856L86.02 10.7954H84.7628L83.9393 15.8261L82.9109 12.6177H81.7153L80.6755 15.8622L79.8639 10.7954H78.6062Z" fill="white"/>
<path fill-rule="evenodd" clip-rule="evenodd" d="M65.7697 14.4878H70.5899L70.5951 14.4106C70.6732 13.0048 70.3534 12.0559 69.7939 11.4583C69.2339 10.8606 68.4477 10.6284 67.6232 10.6284C66.6418 10.6284 65.8385 11.0035 65.2811 11.6298C64.7247 12.2551 64.4188 13.1255 64.4188 14.1109C64.4188 15.1026 64.7247 15.9731 65.2811 16.5969C65.8385 17.2217 66.6423 17.5934 67.6232 17.5934C69.2282 17.5934 70.2887 16.5793 70.4771 15.459L70.4931 15.3639H69.1956L69.1774 15.4207C68.9932 15.9925 68.4528 16.4932 67.6232 16.4932C66.999 16.4932 66.5606 16.2598 66.2645 15.8875C65.9809 15.5306 65.823 15.0396 65.7697 14.4878ZM69.3089 13.4646H65.8023C65.8862 12.9869 66.0616 12.5643 66.3421 12.2567C66.6382 11.9313 67.0564 11.7286 67.6232 11.7286C68.1449 11.7286 68.5419 11.8744 68.8198 12.1665C69.0874 12.4469 69.2551 12.8725 69.3089 13.4646Z" fill="white"/>
<path fill-rule="evenodd" clip-rule="evenodd" d="M58.9771 10.7954V17.4267H60.3212V13.9314C60.3212 13.2985 60.5013 12.8297 60.7974 12.5197C61.0929 12.2101 61.5137 12.0496 62.0137 12.0496H63.7543V10.7954H62.1043C61.4216 10.7954 60.7611 11.1015 60.3212 11.6928V10.7954H58.9771Z" fill="white"/>
<path fill-rule="evenodd" clip-rule="evenodd" d="M71.6189 14.1109C71.6189 15.0956 71.915 15.9663 72.4703 16.592C73.0262 17.2188 73.8367 17.5934 74.8496 17.5934C75.8625 17.5934 76.673 17.2188 77.2289 16.592C77.7843 15.9663 78.0803 15.0956 78.0803 14.1109C78.0803 13.1325 77.7843 12.262 77.2294 11.6348C76.6736 11.0064 75.863 10.6284 74.8496 10.6284C73.8362 10.6284 73.0257 11.0064 72.4698 11.6348C71.915 12.262 71.6189 13.1325 71.6189 14.1109ZM76.7362 14.0981C76.7362 14.7171 76.6021 15.3151 76.3004 15.7559C76.0012 16.1925 75.5344 16.4804 74.8496 16.4804C74.1649 16.4804 73.698 16.1925 73.3988 15.7559C73.0971 15.3151 72.963 14.7171 72.963 14.0981C72.963 13.4857 73.0971 12.8942 73.3988 12.4583C73.697 12.0265 74.1643 11.7414 74.8496 11.7414C75.5349 11.7414 76.0023 12.0265 76.3004 12.4583C76.6021 12.8942 76.7362 13.4857 76.7362 14.0981Z" fill="white"/>
</g>
<defs>
<clipPath id="clip0_7704_183615">
<rect width="106" height="28" fill="white"/>
</clipPath>
</defs>
</svg>
