<svg width="221" height="24" viewBox="0 0 221 24" fill="none" xmlns="http://www.w3.org/2000/svg">
<g clip-path="url(#clip0_7704_183595)">
<mask id="mask0_7704_183595" style="mask-type:luminance" maskUnits="userSpaceOnUse" x="0" y="0" width="221" height="24">
<path d="M221 0H0V24H221V0Z" fill="white"/>
</mask>
<g mask="url(#mask0_7704_183595)">
<path d="M3.31264 9.10693C3.80581 9.52021 4.26612 9.95458 4.71937 10.4112C4.79056 10.4825 4.86174 10.5539 4.93507 10.6274C5.1683 10.8612 5.40119 11.0953 5.63408 11.3295C5.79648 11.4925 5.95893 11.6554 6.12142 11.8184C6.54746 12.2457 6.97328 12.6734 7.399 13.1012C7.83407 13.5382 8.26941 13.975 8.70474 14.4118C9.55773 15.2677 10.4105 16.124 11.263 16.9804C11.7561 16.5671 12.2164 16.1328 12.6697 15.6761C12.7765 15.5691 12.7765 15.5691 12.8854 15.46C13.1186 15.2262 13.3515 14.992 13.5844 14.7579C13.7468 14.5949 13.9093 14.4319 14.0717 14.269C14.4978 13.8416 14.9236 13.4139 15.3493 12.9862C15.7844 12.5491 16.2197 12.1124 16.655 11.6756C17.508 10.8196 18.3608 9.96337 19.2133 9.10693C19.7032 9.51766 20.161 9.94878 20.6113 10.4025C20.6816 10.4729 20.7519 10.5433 20.8242 10.6159C21.0544 10.8466 21.2842 11.0777 21.514 11.3087C21.6743 11.4696 21.8346 11.6304 21.995 11.7912C22.4155 12.213 22.8356 12.6351 23.2558 13.0572C23.6851 13.4885 24.1147 13.9195 24.5444 14.3506C25.3861 15.1953 26.2276 16.0403 27.069 16.8856C27.3583 16.756 27.5572 16.6094 27.7805 16.385C27.8447 16.3208 27.909 16.2567 27.9752 16.1906C28.0446 16.1204 28.114 16.0501 28.1856 15.9777C28.2595 15.9036 28.3334 15.8296 28.4095 15.7533C28.6537 15.5084 28.8973 15.2628 29.1408 15.0173C29.31 14.8473 29.4792 14.6774 29.6485 14.5076C30.0484 14.1062 30.4479 13.7043 30.8471 13.3022C31.3018 12.8444 31.757 12.3871 32.2122 11.9299C33.1485 10.9895 34.0841 10.0484 35.0193 9.10693C35.7179 9.70025 35.7179 9.70025 36.0177 10.002C36.0744 10.0589 36.1312 10.1158 36.1898 10.1745C36.2485 10.2338 36.3072 10.2931 36.3676 10.3542C36.4607 10.4477 36.4607 10.4477 36.5557 10.5432C36.7517 10.7401 36.9473 10.9374 37.1429 11.1346C37.2767 11.2691 37.4104 11.4036 37.5442 11.5381C37.8702 11.8658 38.1958 12.1938 38.5212 12.5219C38.3739 12.8752 38.1577 13.0993 37.8888 13.3684C37.8434 13.414 37.798 13.4597 37.7512 13.5067C37.5992 13.6594 37.4465 13.8113 37.2939 13.9633C37.1847 14.0726 37.0756 14.1821 36.9665 14.2915C36.6703 14.5884 36.3735 14.8848 36.0766 15.181C35.7664 15.4908 35.4567 15.801 35.147 16.1112C34.5605 16.6985 33.9735 17.2853 33.3863 17.8719C32.7177 18.5398 32.0498 19.2083 31.3819 19.8767C30.0079 21.2518 28.6333 22.6262 27.2583 24.0002C26.9688 23.8706 26.77 23.7241 26.5467 23.4995C26.4825 23.4355 26.4182 23.3713 26.352 23.3053C26.2826 23.235 26.2132 23.1647 26.1416 23.0923C26.0677 23.0183 25.9938 22.9442 25.9177 22.8679C25.6735 22.623 25.4299 22.3774 25.1864 22.1319C25.0172 21.962 24.848 21.7921 24.6787 21.6222C24.2788 21.2208 23.8794 20.8189 23.4801 20.4168C23.0254 19.959 22.5702 19.5017 22.115 19.0445C21.1787 18.1041 20.2431 17.1631 19.3079 16.2215C18.818 16.6315 18.3632 17.0627 17.9159 17.5186C17.8462 17.5892 17.7766 17.6598 17.7048 17.7324C17.5547 17.8845 17.4047 18.0367 17.2548 18.189C16.9362 18.5123 16.6167 18.8348 16.2972 19.1573C15.7032 19.7569 15.1097 20.3569 14.5177 20.9584C14.1049 21.3777 13.691 21.7959 13.2764 22.2133C13.1185 22.3726 12.9611 22.5323 12.8042 22.6925C12.5855 22.9155 12.3655 23.137 12.145 23.3582C12.0802 23.425 12.0153 23.4919 11.9485 23.5608C11.8884 23.6205 11.8283 23.6802 11.7664 23.7417C11.7146 23.7943 11.6627 23.8468 11.6093 23.9009C11.4523 24.0002 11.4523 24.0002 11.2639 23.9873C11.0418 23.8916 10.9158 23.7824 10.7451 23.6109C10.6819 23.548 10.6186 23.4852 10.5534 23.4204C10.485 23.3509 10.4166 23.2815 10.3461 23.21C10.2733 23.1372 10.2004 23.0643 10.1254 22.9893C9.88413 22.7478 9.64387 22.5053 9.40366 22.2627C9.23608 22.0945 9.06846 21.9262 8.90079 21.7581C8.54891 21.405 8.19753 21.0515 7.84649 20.6975C7.39782 20.2451 6.94828 19.7935 6.49843 19.3422C6.15191 18.9945 5.80565 18.6466 5.45952 18.2985C5.29391 18.132 5.12831 17.9656 4.96265 17.7992C4.73025 17.5656 4.4982 17.3317 4.26619 17.0977C4.19837 17.0296 4.13055 16.9615 4.06067 16.8914C3.68905 16.5158 3.33336 16.1315 2.9904 15.7294C2.72608 15.4285 2.43768 15.1526 2.15025 14.8742C2.02253 14.7488 1.89485 14.6233 1.76723 14.4977C1.56856 14.3028 1.36956 14.1081 1.16959 13.9145C0.974843 13.7256 0.781614 13.5352 0.588582 13.3446C0.528067 13.2867 0.467547 13.2287 0.405194 13.1691C0.23939 13.0039 0.23939 13.0039 0 12.7117C0.0233691 12.3817 0.172052 12.2198 0.400793 11.9931C0.465214 11.9285 0.529633 11.864 0.596003 11.7975C0.665903 11.7289 0.735804 11.6603 0.807823 11.5896C0.879119 11.5186 0.95041 11.4475 1.02386 11.3743C1.25177 11.1475 1.48064 10.9217 1.70956 10.6959C1.86422 10.5423 2.01882 10.3886 2.17336 10.2349C2.55238 9.85814 2.93226 9.48227 3.31264 9.10693Z" fill="#307FE2"/>
<path d="M43.1589 2.37156C44.3772 2.37156 45.5952 2.37156 46.8499 2.37156C46.9732 2.74191 47.0811 3.08833 47.1697 3.46499C47.1938 3.56691 47.2179 3.66883 47.2429 3.77383C47.2688 3.88426 47.2946 3.99469 47.3214 4.10846C47.349 4.22594 47.3767 4.34342 47.4052 4.46445C47.481 4.78617 47.5569 5.10793 47.6324 5.42969C47.7122 5.76907 47.792 6.10837 47.8723 6.44766C48.0244 7.0925 48.1762 7.73742 48.3279 8.38234C48.5481 9.32001 48.7692 10.2576 48.9902 11.1952C49.0231 11.3355 49.0564 11.4758 49.0893 11.6161C49.1134 11.7192 49.1134 11.7192 49.1384 11.8244C49.2327 12.2252 49.327 12.626 49.4213 13.0269C49.791 14.5985 50.1638 16.1694 50.5415 17.7391C50.5607 17.6611 50.58 17.583 50.6002 17.5027C51.0721 15.6057 51.5445 13.7089 52.0173 11.8121C52.2458 10.8949 52.4743 9.9776 52.7028 9.06028C52.9014 8.26098 53.1006 7.46169 53.2997 6.66248C53.4054 6.23909 53.5106 5.81566 53.6159 5.39223C53.715 4.99399 53.8141 4.59584 53.9137 4.19769C53.9501 4.05125 53.9865 3.90478 54.0229 3.7583C54.0725 3.55892 54.1224 3.35961 54.172 3.16031C54.2001 3.04856 54.2277 2.93681 54.2567 2.82167C54.3273 2.56129 54.3273 2.56129 54.422 2.37156C55.6088 2.37156 56.7956 2.37156 58.0183 2.37156C58.1556 2.91658 58.2933 3.46159 58.4346 4.02312C58.6231 4.771 58.8117 5.51892 59.0003 6.26683C59.0249 6.36358 59.049 6.46037 59.0744 6.56006C59.7762 9.34397 60.4788 12.1278 61.1831 14.9111C61.2108 15.0208 61.2108 15.0208 61.2393 15.1328C61.459 16.0016 61.6792 16.8704 61.8989 17.7391C62.2647 16.4272 62.5668 15.1005 62.8743 13.7739C62.9317 13.5266 62.9892 13.2793 63.0467 13.032C63.1673 12.515 63.287 11.9979 63.4072 11.4808C63.5743 10.7606 63.7418 10.0404 63.9093 9.32019C64.1225 8.40349 64.3352 7.48678 64.5483 6.56999C64.5992 6.34955 64.6505 6.12907 64.7019 5.90863C64.8326 5.34639 64.9615 4.78393 65.0891 4.22099C65.1154 4.10634 65.1413 3.99169 65.1685 3.87357C65.2181 3.65418 65.2676 3.43472 65.3172 3.2152C65.3391 3.1181 65.361 3.021 65.3838 2.92096C65.4031 2.83519 65.4224 2.74943 65.4426 2.66106C65.4957 2.46642 65.4957 2.46642 65.59 2.37156C65.8562 2.36316 66.1202 2.36063 66.386 2.3623C66.4658 2.36243 66.5456 2.36257 66.6277 2.36271C66.8833 2.36324 67.1386 2.36443 67.3943 2.36564C67.5671 2.36611 67.7399 2.36654 67.9127 2.36693C68.3377 2.36798 68.7622 2.36962 69.1868 2.37156C69.1254 2.8603 69.0276 3.33056 68.9043 3.8076C68.8855 3.88248 68.8662 3.95736 68.8469 4.03452C68.7833 4.2834 68.7197 4.53215 68.6556 4.78089C68.6105 4.95892 68.5649 5.13694 68.5197 5.31496C68.3973 5.79531 68.2745 6.27549 68.1513 6.75566C68.0487 7.15641 67.9465 7.55716 67.8443 7.95795C66.9724 11.3719 66.0917 14.7835 65.2067 18.1941C64.8277 19.6546 64.4519 21.1158 64.076 22.5771C62.7642 22.5771 61.4524 22.5771 60.1007 22.5771C59.5183 20.4435 58.9771 18.3004 58.4385 16.1553C58.2512 15.4092 58.0635 14.6632 57.8758 13.9172C57.807 13.6429 57.7381 13.3685 57.6692 13.0941C57.4425 12.1929 57.214 11.2923 56.9811 10.3927C56.9587 10.3062 56.9368 10.2198 56.9136 10.1307C56.8079 9.7216 56.7017 9.31263 56.5952 8.90388C56.5579 8.75944 56.5202 8.615 56.4829 8.47056C56.4658 8.40555 56.4487 8.34054 56.4307 8.2736C56.3522 7.96683 56.3149 7.71949 56.3149 7.39922C56.2522 7.39922 56.1899 7.39922 56.1254 7.39922C56.1132 7.51012 56.1013 7.62103 56.0886 7.73527C56.0408 8.11632 55.9605 8.48072 55.8645 8.85294C55.8478 8.91839 55.8312 8.98384 55.814 9.05127C55.7588 9.26775 55.7027 9.48406 55.647 9.70037C55.607 9.85571 55.5671 10.011 55.5272 10.1663C55.4202 10.5843 55.3123 11.0021 55.2049 11.4199C55.0926 11.8548 54.9807 12.2898 54.8693 12.7248C54.6856 13.4403 54.5018 14.1557 54.3176 14.871C54.0553 15.8902 53.7935 16.9095 53.5321 17.9289C53.4532 18.2383 53.3738 18.5477 53.2944 18.8571C53.2756 18.9312 53.2563 19.0053 53.237 19.0817C52.9383 20.2469 52.6387 21.412 52.3396 22.5771C51.0278 22.5771 49.716 22.5771 48.3643 22.5771C47.8209 20.6158 47.8209 20.6158 47.6578 19.9771C47.6385 19.9017 47.6192 19.8263 47.599 19.7486C47.5363 19.5036 47.4731 19.2586 47.4104 19.0135C47.3648 18.8346 47.3188 18.6558 47.2727 18.4769C47.1495 17.9967 47.0262 17.5165 46.903 17.0362C46.7736 16.5316 46.6442 16.027 46.5149 15.5225C46.3526 14.8906 46.1903 14.2587 46.028 13.6267C45.6618 12.1994 45.2947 10.7724 44.9272 9.34546C44.8439 9.02142 44.7605 8.69733 44.6768 8.37325C44.65 8.26806 44.6228 8.16287 44.5948 8.05448C44.5408 7.84472 44.4869 7.63492 44.4329 7.42516C44.3005 6.91052 44.168 6.39588 44.0351 5.88129C43.911 5.3987 43.7866 4.9161 43.6624 4.43342C43.6167 4.25576 43.5709 4.07809 43.5251 3.90044C43.4628 3.65893 43.4007 3.4174 43.3386 3.17585C43.3109 3.06895 43.3109 3.06895 43.2828 2.9599C43.1589 2.47725 43.1589 2.47725 43.1589 2.37156Z" fill="#307FE2"/>
<path d="M133.598 3.62617C135.488 5.20462 136.299 7.07266 136.67 9.48638C135.42 9.48638 134.171 9.48638 132.884 9.48638C132.728 8.9855 132.571 8.48462 132.411 7.96857C131.845 6.72844 131.037 5.90765 129.761 5.40734C128.691 5.03086 127.268 5.05055 126.218 5.47736C125.801 5.68255 125.409 5.89987 125.028 6.1662C124.963 6.21161 124.898 6.25697 124.831 6.30369C123.458 7.38158 122.863 9.25758 122.635 10.9197C122.357 13.2215 122.623 15.916 124.088 17.8012C124.92 18.7657 125.909 19.5455 127.205 19.7314C128.794 19.844 130.12 19.6126 131.401 18.6098C132.361 17.748 132.742 16.5845 133.073 15.3678C134.291 15.3678 135.51 15.3678 136.764 15.3678C136.587 17.148 135.959 18.844 134.777 20.2058C134.735 20.2614 134.693 20.317 134.649 20.3743C133.482 21.879 131.498 22.5831 129.69 22.8856C127.056 23.2123 124.485 22.72 122.36 21.0713C122.207 20.9427 122.055 20.8123 121.905 20.68C121.834 20.6181 121.763 20.556 121.69 20.4922C119.822 18.7442 118.893 16.0389 118.765 13.5291C118.661 10.2943 119.197 7.21205 121.432 4.7433C121.482 4.68462 121.533 4.62589 121.586 4.56541C124.458 1.4487 130.27 0.987712 133.598 3.62617Z" fill="#307FE2"/>
<path d="M79.8995 8.93519C80.8942 9.93193 81.3112 11.2216 81.3196 12.6046C81.3205 12.7135 81.3205 12.7135 81.3218 12.8245C81.3235 12.9812 81.3248 13.1379 81.3262 13.2946C81.3284 13.5426 81.3305 13.7906 81.3336 14.0386C81.3402 14.6542 81.3455 15.2697 81.3512 15.8853C81.356 16.4064 81.3612 16.9275 81.3669 17.4485C81.3696 17.6927 81.3713 17.9369 81.3735 18.1812C81.3748 18.3309 81.3766 18.4805 81.3783 18.6302C81.3788 18.698 81.3792 18.7658 81.3792 18.8357C81.3836 19.157 81.4121 19.4168 81.4906 19.7316C81.9279 19.7629 82.3652 19.7943 82.816 19.8265C82.816 20.7343 82.816 21.6421 82.816 22.5775C82.3687 22.5853 81.9217 22.5931 81.4612 22.6012C81.3226 22.6046 81.1836 22.6081 81.0406 22.6117C80.2302 22.6185 79.3986 22.5884 78.7495 22.0416C78.3951 21.672 78.2359 21.2584 78.0833 20.7751C78.0465 20.8222 78.0096 20.8693 77.9719 20.9178C76.9509 22.1604 75.5865 22.7564 74.0137 22.9569C72.4331 23.0899 70.9818 22.8044 69.7249 21.7949C68.928 21.0467 68.585 20.0993 68.4977 19.0246C68.4657 17.8144 68.6981 16.794 69.4705 15.8423C70.7669 14.5038 72.7594 14.1775 74.5256 13.9184C74.5948 13.9082 74.6641 13.898 74.7356 13.8875C75.0825 13.837 75.4295 13.7887 75.7768 13.7435C76.4514 13.6525 77.0325 13.5627 77.6101 13.1862C77.8916 12.7504 77.9408 12.3845 77.8583 11.8837C77.725 11.3956 77.5263 11.0403 77.0978 10.7602C76.1448 10.2684 75.254 10.2046 74.215 10.5004C73.5067 10.7451 73.1563 10.9928 72.8011 11.6684C72.641 12.0004 72.5739 12.2446 72.4993 12.617C71.3437 12.617 70.188 12.617 68.9973 12.617C69.3626 10.9096 69.8499 9.64121 71.3222 8.65655C73.8984 7.03185 77.4421 7.24481 79.8995 8.93519ZM77.0838 15.6229C76.4807 15.7824 75.8759 15.9015 75.2619 16.0097C73.5234 16.2758 73.5234 16.2758 72.2156 17.3601C71.9458 17.9064 71.9235 18.512 72.0879 19.0976C72.3441 19.6785 72.7533 19.9868 73.3331 20.2163C74.2392 20.4697 75.1707 20.3456 76.0014 19.9213C76.9141 19.3896 77.5 18.5539 77.7995 17.5498C77.9763 16.8522 78.0136 16.1803 77.989 15.4629C77.6596 15.4629 77.4022 15.5373 77.0838 15.6229Z" fill="#307FE2"/>
<path d="M195.067 9.10688C196.571 10.4761 197.066 12.4583 197.244 14.4191C197.244 14.9826 197.244 15.5461 197.244 16.1266C193.839 16.1266 190.435 16.1266 186.927 16.1266C187.311 17.9456 187.311 17.9456 188.347 19.4468C189.396 20.0584 190.371 20.2987 191.579 20.0493C192.209 19.8424 192.63 19.5555 193.079 19.0673C193.267 18.6917 193.454 18.316 193.647 17.929C194.772 17.929 195.896 17.929 197.055 17.929C196.877 19.3522 196.236 20.5952 195.136 21.5275C193.466 22.7942 191.443 23.1688 189.392 22.9093C188.183 22.6895 187.133 22.3051 186.17 21.5337C186.098 21.4784 186.026 21.423 185.952 21.3659C184.512 20.1819 183.732 18.3311 183.52 16.5061C183.341 14.0945 183.681 11.8857 185.223 9.96064C185.285 9.88016 185.347 9.79972 185.411 9.71682C186.436 8.48297 188.081 7.82732 189.631 7.61871C191.586 7.45044 193.561 7.77102 195.067 9.10688ZM187.903 11.4817C187.373 12.2347 187.136 12.9364 187.022 13.85C189.271 13.85 191.52 13.85 193.836 13.85C193.836 12.8431 193.582 11.8602 192.89 11.099C192.008 10.3504 191.066 10.2617 189.955 10.3216C189.16 10.3996 188.408 10.8725 187.903 11.4817Z" fill="#307FE2"/>
<path d="M106.194 9.10693C107.475 10.2926 108.073 11.9596 108.276 13.6603C108.287 13.7435 108.297 13.8268 108.308 13.9126C108.389 14.6582 108.37 15.3667 108.37 16.1267C104.966 16.1267 101.562 16.1267 98.054 16.1267C98.4316 18.1035 98.4316 18.1035 99.6759 19.5862C100.618 20.1376 101.634 20.2722 102.705 20.049C103.335 19.8436 103.757 19.5556 104.206 19.0674C104.393 18.6917 104.581 18.3161 104.774 17.929C105.898 17.929 107.023 17.929 108.181 17.929C107.876 19.4608 107.317 20.7201 106.052 21.6761C104.231 22.891 102.065 23.2405 99.9298 22.8122C98.2334 22.4286 96.8216 21.4426 95.8625 19.9919C94.962 18.5207 94.609 17.0056 94.6173 15.2907C94.6178 15.1732 94.6182 15.0557 94.6186 14.9346C94.6287 14.125 94.6761 13.3904 94.9305 12.6168C94.9638 12.5137 94.9971 12.4106 95.0318 12.3044C95.6818 10.4694 96.8107 9.08029 98.5685 8.2235C101.039 7.14288 104.09 7.35981 106.194 9.10693ZM99.0005 11.4784C98.4229 12.2109 98.3031 12.9134 98.054 13.85C100.334 13.85 102.614 13.85 104.963 13.85C104.843 12.5257 104.649 11.7091 103.638 10.8144C102.182 9.84442 100.13 10.2074 99.0005 11.4784Z" fill="#307FE2"/>
<path d="M19.1837 -0.0413226C19.2576 -0.0410025 19.3315 -0.0406825 19.4078 -0.0403527C24.0302 -0.0115203 28.2208 2.19291 31.4581 5.431C31.5401 5.51711 31.6221 5.60317 31.7066 5.69187C31.5763 5.98515 31.4272 6.1848 31.2004 6.41047C31.1038 6.5073 31.1038 6.5073 31.0052 6.60607C30.9358 6.67464 30.8664 6.74326 30.7949 6.8139C30.7237 6.88497 30.6525 6.95601 30.5793 7.02924C30.3521 7.25583 30.1243 7.48176 29.8965 7.7077C29.7423 7.86128 29.5881 8.01495 29.4339 8.16867C29.0562 8.54515 28.678 8.92111 28.2993 9.29662C28.1937 9.20647 28.0883 9.11627 27.9828 9.02598C27.924 8.97574 27.8653 8.9255 27.8048 8.87372C27.5885 8.68537 27.3826 8.48691 27.1754 8.28871C26.0681 7.28067 24.8379 6.48862 23.4723 5.88159C23.412 5.85447 23.3518 5.82735 23.2897 5.79939C22.4563 5.42928 21.6267 5.18207 20.7276 5.02783C20.6065 5.00634 20.4855 4.9848 20.3608 4.96264C17.2522 4.65174 14.3137 5.83271 11.9254 7.77882C11.5289 8.10796 11.1386 8.44401 10.7532 8.78616C10.5488 8.96141 10.3372 9.12818 10.1271 9.29662C9.00274 8.16968 7.87836 7.04269 6.71985 5.88159C6.91146 5.4975 7.12553 5.26862 7.43561 4.98634C7.51635 4.91245 7.51635 4.91245 7.59872 4.83706C9.12892 3.46059 10.8174 2.28901 12.6826 1.42311C12.8427 1.34717 12.8427 1.34717 13.0061 1.26969C13.6367 0.983699 14.2756 0.75591 14.9364 0.551563C15.008 0.528987 15.0796 0.506411 15.1535 0.483149C16.4846 0.0876734 17.8016 -0.0530378 19.1837 -0.0413226Z" fill="#307FE2"/>
<path d="M149.566 9.24328C150.983 10.5777 151.805 12.2987 151.927 14.2543C151.937 14.5862 151.939 14.9172 151.937 15.2492C151.937 15.4251 151.937 15.4251 151.936 15.6046C151.909 17.7122 151.256 19.7509 149.721 21.2548C148.125 22.6297 146.117 23.0817 144.052 22.9567C142.372 22.7846 140.739 22.1419 139.573 20.8805C137.985 18.8734 137.452 16.5029 137.74 13.9729C137.95 12.516 138.401 11.2221 139.32 10.0555C139.368 9.99062 139.416 9.92565 139.466 9.8588C140.547 8.49686 142.247 7.83765 143.922 7.6188C145.973 7.43972 147.995 7.86521 149.566 9.24328ZM142.189 11.6533C141.157 12.9126 141.112 14.6685 141.213 16.2216C141.35 17.4482 141.791 18.6148 142.727 19.4468C143.62 20.0878 144.484 20.2144 145.567 20.1109C146.492 19.9304 147.196 19.3908 147.726 18.6168C148.61 17.049 148.678 15.1012 148.311 13.3757C148.007 12.3194 147.502 11.3651 146.521 10.8063C144.979 9.99119 143.327 10.4044 142.189 11.6533Z" fill="#307FE2"/>
<path d="M180.509 8.80445C181.812 10.029 182.134 11.709 182.205 13.4348C182.22 14.0891 182.216 14.7433 182.213 15.3977C182.213 15.6059 182.213 15.8142 182.212 16.0225C182.212 16.565 182.21 17.1075 182.208 17.6501C182.206 18.2059 182.205 18.7618 182.204 19.3176C182.202 20.4041 182.199 21.4906 182.195 22.5772C181.07 22.5772 179.946 22.5772 178.788 22.5772C178.785 22.191 178.785 22.191 178.782 21.7971C178.775 20.9422 178.768 20.0872 178.76 19.2323C178.756 18.7145 178.751 18.1966 178.748 17.6788C178.744 17.1781 178.74 16.6774 178.735 16.1768C178.733 15.9867 178.731 15.7966 178.731 15.6066C178.787 13.352 178.787 13.352 177.861 11.3776C177.236 10.7787 176.622 10.6129 175.771 10.5831C174.746 10.6118 174.05 10.9121 173.313 11.6281C172.573 12.4597 172.309 13.4927 172.311 14.5864C172.31 14.6735 172.309 14.7606 172.308 14.8504C172.305 15.1347 172.304 15.419 172.303 15.7034C172.301 15.902 172.3 16.1005 172.298 16.2991C172.294 16.819 172.291 17.339 172.288 17.8589C172.285 18.3905 172.281 18.9222 172.277 19.4538C172.269 20.4949 172.262 21.536 172.257 22.5772C171.133 22.5772 170.008 22.5772 168.85 22.5772C168.85 17.7563 168.85 12.9354 168.85 7.96849C169.974 7.96849 171.098 7.96849 172.257 7.96849C172.304 8.86067 172.304 8.86067 172.351 9.77087C172.539 9.5517 172.726 9.33258 172.919 9.10682C175.029 7.29509 178.293 6.96124 180.509 8.80445Z" fill="#307FE2"/>
<path d="M165.075 8.78429C165.508 9.16768 165.778 9.61111 166.04 10.1205C166.086 10.2091 166.086 10.2091 166.133 10.2994C166.789 11.655 166.71 13.0769 166.7 14.5453C166.7 14.7775 166.699 15.0097 166.699 15.2418C166.698 15.8493 166.696 16.4566 166.692 17.0641C166.689 17.6854 166.688 18.3067 166.687 18.928C166.684 20.1443 166.678 21.3607 166.673 22.577C165.548 22.577 164.424 22.577 163.265 22.577C163.265 22.2927 163.264 22.0085 163.263 21.7156C163.26 20.7732 163.254 19.8308 163.248 18.8884C163.244 18.3173 163.241 17.7464 163.24 17.1753C163.238 16.6236 163.235 16.0719 163.231 15.5202C163.229 15.3104 163.229 15.1005 163.229 14.8907C163.26 12.9192 163.26 12.9192 162.313 11.2525C161.533 10.5975 160.652 10.5492 159.669 10.6244C159.016 10.7737 158.548 11.0268 158.06 11.4782C157.998 11.4782 157.935 11.4782 157.87 11.4782C157.844 11.5337 157.818 11.5892 157.79 11.6464C157.688 11.8435 157.575 12.0186 157.451 12.2015C157.002 12.9196 156.882 13.6654 156.883 14.5001C156.882 14.5882 156.881 14.6762 156.88 14.7669C156.877 15.0543 156.877 15.3417 156.876 15.6291C156.874 15.8298 156.872 16.0305 156.87 16.2312C156.866 16.7568 156.863 17.2823 156.861 17.8079C156.858 18.3452 156.853 18.8825 156.849 19.4199C156.841 20.4722 156.835 21.5246 156.83 22.577C155.705 22.577 154.581 22.577 153.422 22.577C153.422 17.7562 153.422 12.9353 153.422 7.96834C154.546 7.96834 155.671 7.96834 156.83 7.96834C156.876 8.86052 156.876 8.86051 156.924 9.77071C157.014 9.65915 157.104 9.54764 157.196 9.43273C159.177 7.17572 162.747 7.01647 165.075 8.78429Z" fill="#307FE2"/>
<path d="M204.838 7.57781C206.59 7.52893 208.321 7.97592 209.666 9.13077C210.112 9.55337 210.46 10.0053 210.778 10.53C210.844 10.636 210.844 10.636 210.911 10.7442C211.308 11.4558 211.63 12.4576 211.63 13.281C210.475 13.281 209.319 13.281 208.128 13.281C208.003 12.9053 207.878 12.5297 207.75 12.1426C207.346 11.357 206.831 10.9265 206.028 10.5952C204.994 10.4083 204.062 10.4834 203.165 11.0569C202.31 11.7318 201.844 12.8162 201.639 13.8691C201.443 15.5732 201.496 17.439 202.544 18.8778C203.145 19.5614 203.796 19.9627 204.705 20.0517C205.63 20.0937 206.4 19.9564 207.158 19.3996C207.648 18.9463 207.92 18.2691 208.128 17.6446C209.284 17.6446 210.439 17.6446 211.63 17.6446C211.184 19.4334 210.691 20.8557 209.134 21.9015C207.185 23.0434 204.993 23.2398 202.828 22.6723C201.035 22.0882 199.731 20.9144 198.815 19.2832C198.205 18.0343 197.964 16.7271 197.971 15.3442C197.972 15.2403 197.972 15.1364 197.973 15.0294C198.005 12.8065 198.779 10.8528 200.367 9.2968C201.599 8.16374 203.193 7.66699 204.838 7.57781Z" fill="#307FE2"/>
<path d="M110.737 3.22559C111.861 3.22559 112.985 3.22559 114.144 3.22559C114.144 4.79079 114.144 6.35603 114.144 7.96869C115.175 7.96869 116.205 7.96869 117.267 7.96869C117.267 8.84517 117.267 9.7217 117.267 10.6248C116.237 10.6248 115.206 10.6248 114.144 10.6248C114.15 11.649 114.157 12.6732 114.166 13.6974C114.17 14.173 114.174 14.6486 114.177 15.1243C114.179 15.5838 114.183 16.0432 114.188 16.5027C114.189 16.6775 114.19 16.8524 114.191 17.0272C114.192 17.2731 114.195 17.5189 114.198 17.7648C114.198 17.8362 114.197 17.9077 114.197 17.9813C114.206 18.5001 114.303 18.9737 114.523 19.4469C114.864 19.7528 115.173 19.7698 115.622 19.7801C115.728 19.7832 115.834 19.7864 115.944 19.7896C116.145 19.7931 116.145 19.7931 116.35 19.7967C116.991 19.8114 116.991 19.8114 117.646 19.8264C117.646 20.7342 117.646 21.642 117.646 22.5773C117.101 22.5839 116.555 22.5896 116.01 22.593C115.825 22.5944 115.64 22.5963 115.455 22.5988C112.658 22.6354 112.658 22.6354 111.699 21.7536C110.827 20.8375 110.721 19.762 110.726 18.5509C110.726 18.4648 110.726 18.3786 110.726 18.2898C110.726 18.0075 110.727 17.7253 110.727 17.443C110.728 17.2463 110.728 17.0496 110.728 16.8529C110.728 16.3369 110.729 15.8211 110.73 15.3052C110.731 14.778 110.732 14.2509 110.732 13.7237C110.733 12.6908 110.735 11.6578 110.737 10.6248C109.987 10.6248 109.237 10.6248 108.465 10.6248C108.465 9.74829 108.465 8.87176 108.465 7.96869C109.447 7.93308 109.447 7.93308 109.756 7.92332C109.836 7.91994 109.917 7.91655 110 7.91308C110.082 7.91009 110.164 7.9071 110.249 7.90407C110.472 7.89163 110.472 7.89163 110.642 7.68407C110.673 7.4849 110.673 7.4849 110.672 7.25326C110.674 7.16403 110.676 7.07475 110.678 6.98284C110.679 6.88627 110.68 6.78974 110.681 6.69027C110.683 6.59159 110.685 6.49286 110.687 6.39119C110.693 6.07515 110.697 5.75906 110.701 5.44297C110.705 5.22904 110.708 5.0151 110.712 4.80117C110.721 4.27599 110.729 3.75081 110.737 3.22559Z" fill="#307FE2"/>
<path d="M214.185 3.22559C215.31 3.22559 216.434 3.22559 217.593 3.22559C217.593 4.79079 217.593 6.35603 217.593 7.96869C218.592 7.96869 219.592 7.96869 220.621 7.96869C220.621 8.84517 220.621 9.7217 220.621 10.6248C219.622 10.6248 218.622 10.6248 217.593 10.6248C217.599 11.7034 217.606 12.782 217.615 13.8606C217.619 14.3614 217.623 14.8623 217.626 15.3631C217.628 15.8466 217.632 16.33 217.637 16.8134C217.638 16.9978 217.639 17.1821 217.64 17.3664C217.641 17.6249 217.644 17.8833 217.647 18.1417C217.646 18.2177 217.646 18.2937 217.646 18.372C217.654 18.83 217.723 19.1431 217.971 19.5418C218.277 19.7738 218.592 19.7606 218.967 19.7708C219.073 19.7742 219.18 19.7776 219.29 19.781C219.492 19.7859 219.492 19.7859 219.699 19.7908C220.128 19.8025 220.557 19.8143 221 19.8264C221 20.7342 221 21.642 221 22.5773C220.455 22.5839 219.909 22.5896 219.364 22.593C219.179 22.5944 218.994 22.5963 218.809 22.5988C215.988 22.6357 215.988 22.6357 214.97 21.6636C214.275 20.9049 214.171 20.094 214.175 19.1002C214.175 19.0085 214.175 18.9168 214.175 18.8224C214.175 18.5201 214.175 18.2177 214.176 17.9154C214.177 17.7056 214.177 17.4957 214.177 17.2858C214.177 16.7339 214.178 16.182 214.179 15.6301C214.18 15.0667 214.181 14.5033 214.181 13.9399C214.182 12.8349 214.184 11.7298 214.185 10.6248C213.436 10.6248 212.686 10.6248 211.914 10.6248C211.914 9.74829 211.914 8.87176 211.914 7.96869C212.601 7.93734 213.288 7.90605 213.996 7.87383C214.062 7.54416 214.104 7.28912 214.11 6.96249C214.112 6.87897 214.114 6.79545 214.116 6.70939C214.117 6.62051 214.119 6.53167 214.121 6.44016C214.123 6.34816 214.125 6.2562 214.127 6.16143C214.133 5.8686 214.138 5.57576 214.144 5.28288C214.148 5.08398 214.152 4.88504 214.156 4.68614C214.166 4.19928 214.176 3.71244 214.185 3.22559Z" fill="#307FE2"/>
<path d="M89.725 2.37158C90.8495 2.37158 91.974 2.37158 93.1323 2.37158C93.1323 9.03942 93.1323 15.7072 93.1323 22.5771C92.0078 22.5771 90.8837 22.5771 89.725 22.5771C89.725 15.9093 89.725 9.24145 89.725 2.37158Z" fill="#307FE2"/>
<path d="M84.0463 2.37158C85.1708 2.37158 86.2953 2.37158 87.4536 2.37158C87.4536 9.03942 87.4536 15.7072 87.4536 22.5771C86.3291 22.5771 85.2046 22.5771 84.0463 22.5771C84.0463 15.9093 84.0463 9.24145 84.0463 2.37158Z" fill="#307FE2"/>
</g>
</g>
<defs>
<clipPath id="clip0_7704_183595">
<rect width="221" height="24" fill="white"/>
</clipPath>
</defs>
</svg>
