<?xml version="1.0" encoding="utf-8"?>
<!-- Generator: Adobe Illustrator 24.1.0, SVG Export Plug-In . SVG Version: 6.00 Build 0)  -->
<svg version="1.1" id="Capa_1" xmlns="http://www.w3.org/2000/svg" xmlns:xlink="http://www.w3.org/1999/xlink" x="0px" y="0px"
	 viewBox="0 0 503.4 113.5" style="enable-background:new 0 0 503.4 113.5;" xml:space="preserve">
<g>
	<path d="M19.1,96.1c0-26.2,0-52.4,0-78.8c0.5,0,0.9,0,1.3,0c26.5,0,53,0,79.4,0c0.8,0,1.4,0.2,2,0.8c8.2,8.2,16.5,16.5,24.7,24.7
		c0.4,0.4,0.7,1.2,0.7,1.7c0,16.8,0,33.6,0,50.4c0,0.4,0,0.7,0,1.1c-5.3,0-10.5,0-15.8,0c0-0.5,0-1,0-1.5c0-20,0-40,0-60
		c0-1.2-0.3-1.5-1.5-1.5c-9.2,0.1-18.3,0-27.5,0c-0.4,0-0.9,0-1.4,0c0,21,0,42,0,63c-5.3,0-10.5,0-15.8,0c0-20.9,0-41.9,0-62.9
		c-10.1,0-20.2,0-30.3,0c0,20.9,0,41.9,0,62.9C29.6,96.1,24.4,96.1,19.1,96.1z"/>
	<path d="M339,49.4c12.5,0,25,0,37.5,0c0,5,0,10,0,15.1c-12.5,0-25,0-37.5,0c0,5.7,0,11.3,0,17c15.4,0,30.7,0,46.2,0
		c0,4.9,0,9.8,0,14.6c-20.3,0-40.6,0-61,0c0-26.2,0-52.4,0-78.7c20.3,0,40.6,0,61,0c0,4.8,0,9.6,0,14.5c-15.4,0-30.8,0-46.2,0
		C339,37.7,339,43.5,339,49.4z"/>
	<path d="M475.8,17.3c-11.7,11.8-23.3,23.5-34.9,35.2c14.5,14.5,28.9,28.9,43.6,43.6c-0.7,0-1.1,0.1-1.5,0.1c-6,0-12,0-18,0
		c-0.8,0-1.4-0.2-2-0.8c-10.4-10.5-20.9-20.9-31.3-31.3c-0.3-0.3-0.6-0.7-1-1.2c-0.4,0.4-0.7,0.6-0.9,0.9c-2.2,2.2-4.4,4.4-6.6,6.6
		c-0.6,0.5-0.8,1.1-0.8,1.9c0,7.5,0,15,0,22.4c0,0.4,0,0.9,0,1.4c-5,0-10,0-15,0c0-26.2,0-52.4,0-78.7c0.3,0,0.7-0.1,1-0.1
		c4.2,0,8.5,0,12.7,0c1,0,1.3,0.3,1.3,1.3c0,10,0,20.1,0,30.1c0,0.4,0,0.9,0,1.6c0.5-0.5,0.8-0.8,1.2-1.1c10.3-10.3,20.7-20.6,31-31
		c0.7-0.7,1.4-1,2.3-0.9c5.9,0,11.8,0,17.8,0C474.8,17.3,475.2,17.3,475.8,17.3z"/>
	<path d="M165.3,80.3c11.8,0,23.4,0,35.2,0c0-21,0-41.9,0-62.9c5.4,0,10.6,0,15.8,0c0,26.2,0,52.4,0,78.8c-0.4,0-0.8,0-1.2,0
		c-12.8,0-25.5,0-38.3,0c-0.8,0-1.3-0.2-1.9-0.8c-8.2-8.2-16.5-16.5-24.7-24.7c-0.4-0.4-0.8-1.1-0.8-1.6c0-17,0-33.9,0-50.9
		c0-0.2,0-0.5,0-0.8c5.2,0,10.4,0,15.8,0C165.3,38.4,165.3,59.3,165.3,80.3z"/>
	<path d="M262.5,32.7c-9.6,0-19,0-28.4,0c0-5.1,0-10.2,0-15.3c24.2,0,48.4,0,72.6,0c0,5.1,0,10.1,0,15.3c-0.5,0-1,0-1.5,0
		c-8.5,0-17,0-25.4,0c-1.2,0-1.5,0.3-1.5,1.5c0,20.1,0,40.2,0,60.4c0,0.5,0,1,0,1.6c-5.3,0-10.5,0-15.8,0
		C262.5,75.1,262.5,54,262.5,32.7z"/>
</g>
</svg>
