<svg width="33" height="32" viewBox="0 0 33 32" fill="none" xmlns="http://www.w3.org/2000/svg">
<path d="M16.5003 20.8891C17.8374 20.8891 19.1198 20.374 20.0653 19.4572C21.0108 18.5403 21.542 17.2968 21.542 16.0002C21.542 14.7036 21.0108 13.4601 20.0653 12.5433C19.1198 11.6264 17.8374 11.1113 16.5003 11.1113C15.1632 11.1113 13.8808 11.6264 12.9353 12.5433C11.9898 13.4601 11.4586 14.7036 11.4586 16.0002C11.4586 17.2968 11.9898 18.5403 12.9353 19.4572C13.8808 20.374 15.1632 20.8891 16.5003 20.8891Z" stroke="#171717" stroke-width="1.5" stroke-linecap="round" stroke-linejoin="round"/>
<path d="M5.15625 20.8889V11.1111C5.15625 9.49034 5.82022 7.93596 7.00209 6.7899C8.18396 5.64385 9.78692 5 11.4583 5H21.5417C23.2131 5 24.816 5.64385 25.9979 6.7899C27.1798 7.93596 27.8437 9.49034 27.8437 11.1111V20.8889C27.8437 22.5097 27.1798 24.064 25.9979 25.2101C24.816 26.3562 23.2131 27 21.5417 27H11.4583C9.78692 27 8.18396 26.3562 7.00209 25.2101C5.82022 24.064 5.15625 22.5097 5.15625 20.8889Z" stroke="#171717" stroke-width="1.5"/>
<path d="M23.432 9.29079L23.4446 9.27734" stroke="#171717" stroke-width="1.5" stroke-linecap="round" stroke-linejoin="round"/>
</svg>
